<svg width="12" height="12" viewBox="0 0 12 12" fill="none" xmlns="http://www.w3.org/2000/svg">
<path fill-rule="evenodd" clip-rule="evenodd" d="M0.817186 0.817675C1.01875 0.616114 1.34554 0.616114 1.5471 0.817675L5.99935 5.26992L10.4516 0.817675C10.6532 0.616114 10.9799 0.616114 11.1815 0.817675C11.3831 1.01924 11.3831 1.34603 11.1815 1.54759L6.72926 5.99984L11.1815 10.4521C11.3831 10.6536 11.3831 10.9804 11.1815 11.182C10.9799 11.3836 10.6532 11.3836 10.4516 11.182L5.99935 6.72975L1.5471 11.182C1.34554 11.3836 1.01875 11.3836 0.817186 11.182C0.615625 10.9804 0.615625 10.6536 0.817186 10.4521L5.26943 5.99984L0.817186 1.54759C0.615625 1.34603 0.615625 1.01924 0.817186 0.817675Z" fill="#A2AEBD"/>
</svg>
