<svg width="12" height="14" viewBox="0 0 12 14" fill="none" xmlns="http://www.w3.org/2000/svg">
<path fill-rule="evenodd" clip-rule="evenodd" d="M8.94059 0.845419L8.94125 1.34517C10.7777 1.4891 11.9908 2.74047 11.9927 4.65951L12 10.2767C12.0026 12.369 10.6882 13.6563 8.5812 13.6597L3.43459 13.6663C1.3408 13.669 0.00987771 12.351 0.00724484 10.2527L4.43317e-06 4.70149C-0.00262844 2.76979 1.16768 1.52175 3.00411 1.35317L3.00346 0.853415C3.0028 0.560229 3.22001 0.339673 3.50963 0.339673C3.79924 0.339006 4.01645 0.558896 4.01711 0.852083L4.01777 1.31852L7.92759 1.31319L7.92693 0.846752C7.92627 0.553566 8.14349 0.333676 8.4331 0.333009C8.71614 0.332343 8.93993 0.552233 8.94059 0.845419ZM1.01432 4.90738L10.9797 4.89406V4.66084C10.9514 3.22823 10.2327 2.4766 8.94256 2.36466L8.94322 2.87773C8.94322 3.16426 8.72008 3.39148 8.43705 3.39148C8.14743 3.39214 7.92956 3.16559 7.92956 2.87907L7.9289 2.33934L4.01908 2.34467L4.01974 2.88373C4.01974 3.17092 3.80319 3.39747 3.51357 3.39747C3.22396 3.39814 3.00609 3.17225 3.00609 2.88506L3.00543 2.37199C1.7219 2.50059 1.01168 3.25488 1.01366 4.70015L1.01432 4.90738ZM8.15994 7.93587V7.9432C8.16652 8.24971 8.41664 8.48226 8.72008 8.4756C9.01628 8.46827 9.25258 8.21439 9.246 7.90788C9.23217 7.6147 8.99456 7.37548 8.69902 7.37615C8.39624 7.38281 8.15928 7.62935 8.15994 7.93587ZM8.70363 10.9277C8.40084 10.921 8.15665 10.6685 8.15599 10.362C8.14941 10.0555 8.39229 9.8016 8.69507 9.79427H8.70165C9.01101 9.79427 9.2618 10.0468 9.2618 10.36C9.26245 10.6732 9.01233 10.927 8.70363 10.9277ZM5.44808 7.94653C5.46124 8.25304 5.71202 8.49226 6.0148 8.47893C6.311 8.46494 6.5473 8.21173 6.53414 7.90522C6.5269 7.60537 6.28336 7.37215 5.98716 7.37282C5.68438 7.38614 5.44742 7.64002 5.44808 7.94653ZM6.01744 10.8977C5.71466 10.911 5.46453 10.6718 5.45071 10.3653C5.45071 10.0588 5.68701 9.8056 5.98979 9.79161C6.28599 9.79094 6.53019 10.0242 6.53677 10.3233C6.55059 10.6305 6.31364 10.8837 6.01744 10.8977ZM2.73622 7.96985C2.74938 8.27636 3.00016 8.51624 3.30294 8.50225C3.59914 8.48892 3.83544 8.23505 3.82162 7.92854C3.81504 7.62869 3.5715 7.39547 3.27464 7.39614C2.97186 7.40946 2.73556 7.66334 2.73622 7.96985ZM3.30558 10.901C3.0028 10.915 2.75267 10.6752 2.73885 10.3686C2.73819 10.0621 2.97515 9.80826 3.27793 9.79494C3.57413 9.79427 3.81833 10.0275 3.82491 10.3273C3.83873 10.6338 3.60243 10.8877 3.30558 10.901Z" fill="#A2AEBD"/>
</svg>
