<svg width="21" height="20" viewBox="0 0 21 20" fill="none" xmlns="http://www.w3.org/2000/svg">
<path d="M13.0106 9.5752C14.8909 9.5752 16.4294 8.04458 16.4294 6.17384C16.4294 4.30309 14.8909 2.77248 13.0106 2.77248C12.9251 2.77248 12.8396 2.77248 12.7542 2.77248C13.267 3.62282 13.6089 4.64322 13.6089 5.66363C13.6089 7.10921 13.0106 8.46975 12.0704 9.49016C12.3268 9.5752 12.6687 9.5752 13.0106 9.5752Z" fill="#A2AEBD"/>
<path d="M14.4636 11.3608H13.6089C14.891 12.4662 15.7457 14.1669 15.7457 16.0377C15.7457 16.4628 15.6602 16.803 15.5747 17.1431C16.6858 16.973 17.3696 16.7179 17.7969 16.4628C18.2243 16.2077 18.3952 15.7826 18.3952 15.2724C18.3952 13.1465 16.6004 11.3608 14.4636 11.3608Z" fill="#A2AEBD"/>
<path d="M7.88234 9.57516C8.90798 9.57516 9.76268 9.23502 10.5319 8.55475C11.3866 7.87448 11.814 6.76903 11.814 5.66359C11.814 4.81325 11.5576 3.96291 11.0447 3.36767C10.361 2.34726 9.24986 1.66699 7.88234 1.66699C5.74559 1.66699 3.95072 3.45271 3.95072 5.57856C3.95072 7.78944 5.74559 9.57516 7.88234 9.57516Z" fill="#A2AEBD"/>
<path d="M10.1901 11.6161C9.93364 11.6161 9.7627 11.531 9.50629 11.531H6.25843C3.7798 11.531 1.72852 13.5718 1.72852 16.0378C1.72852 16.6331 1.98493 17.0582 2.41228 17.3984C3.09604 17.8235 4.71997 18.3337 7.88236 18.3337C11.0448 18.3337 12.5832 17.8235 13.3524 17.3984C13.3524 17.3984 13.4379 17.3133 13.5234 17.3133C13.8653 17.0582 14.1217 16.6331 14.1217 16.0378C14.0362 13.8269 12.4123 11.9562 10.1901 11.6161Z" fill="#A2AEBD"/>
</svg>
