<svg width="24" height="24" viewBox="0 0 24 24" fill="none" xmlns="http://www.w3.org/2000/svg">
<rect width="24" height="24" rx="12" fill="#F85B9F"/>
<g clip-path="url(#clip0_1739_31120)">
<path d="M11.9184 12.7999C13.2416 12.7999 14.4416 13.3383 15.3112 14.2071L14.18 15.3383C13.6008 14.7591 12.8008 14.3999 11.9184 14.3999C11.036 14.3999 10.236 14.7591 9.6568 15.3383L8.5256 14.2071C8.97058 13.7607 9.49938 13.4065 10.0816 13.165C10.6639 12.9236 11.2881 12.7995 11.9184 12.7999ZM6.2616 11.9431C7.7728 10.4319 9.7816 9.59991 11.9184 9.59991C14.0552 9.59991 16.064 10.4319 17.5752 11.9431L16.444 13.0743C15.2352 11.8655 13.628 11.1999 11.9184 11.1999C10.2088 11.1999 8.6016 11.8655 7.3928 13.0743L6.2616 11.9431ZM16.2784 7.28071C17.6091 7.84304 18.818 8.65809 19.8384 9.68071L18.7072 10.8119C16.8936 8.99911 14.4832 7.99991 11.9192 7.99991C9.3552 7.99991 6.944 8.99831 5.1312 10.8119L4 9.68071C5.03885 8.63898 6.27335 7.81285 7.63254 7.24982C8.99173 6.68678 10.4488 6.39795 11.92 6.39991C13.432 6.39991 14.8984 6.69591 16.28 7.28071H16.2784ZM11.1184 16.7999C11.1184 16.5877 11.2027 16.3843 11.3527 16.2342C11.5027 16.0842 11.7062 15.9999 11.9184 15.9999C12.1306 15.9999 12.3341 16.0842 12.4841 16.2342C12.6341 16.3843 12.7184 16.5877 12.7184 16.7999C12.7184 17.0121 12.6341 17.2156 12.4841 17.3656C12.3341 17.5156 12.1306 17.5999 11.9184 17.5999C11.7062 17.5999 11.5027 17.5156 11.3527 17.3656C11.2027 17.2156 11.1184 17.0121 11.1184 16.7999Z" fill="white"/>
</g>
<defs>
<clipPath id="clip0_1739_31120">
<rect width="16" height="16" fill="white" transform="translate(4 4)"/>
</clipPath>
</defs>
</svg>
