<svg width="12" height="14" viewBox="0 0 12 14" fill="none" xmlns="http://www.w3.org/2000/svg">
<path d="M10.6716 2.3469C9.5037 1.0969 7.7862 0.333008 6 0.333008C4.2138 0.333008 2.4963 1.02745 1.32839 2.3469C0.366592 3.45801 -0.114308 4.8469 0.0230921 6.23579C0.0230921 6.51356 0.0917922 6.79134 0.160492 6.99967C0.778793 9.91634 3.939 12.4858 5.313 13.458C5.5191 13.5969 5.7252 13.6663 6 13.6663C6.2748 13.6663 6.4809 13.5969 6.687 13.458C7.9923 12.4858 11.2212 9.91634 11.8395 6.99967C11.9082 6.79134 11.9082 6.51356 11.9769 6.23579C12.1143 4.8469 11.6334 3.45801 10.6716 2.3469ZM6 8.31912C4.9695 8.31912 4.0764 7.48579 4.0764 6.37467C4.0764 5.26356 4.9008 4.43023 6 4.43023C7.0992 4.43023 7.9236 5.26356 7.9236 6.37467C7.9236 7.48579 7.0305 8.31912 6 8.31912Z" fill="#A2AEBD"/>
</svg>
