<svg width="343" height="186" viewBox="0 0 343 186" fill="none" xmlns="http://www.w3.org/2000/svg">
<rect width="343" height="186" rx="10" fill="#F0F5FA"/>
<path fill-rule="evenodd" clip-rule="evenodd" d="M161.887 116.334H182.109C190.02 116.334 195.333 110.785 195.333 102.528V83.4727C195.333 75.2159 190.02 69.667 182.112 69.667H161.887C153.979 69.667 148.666 75.2159 148.666 83.4727V102.528C148.666 110.785 153.979 116.334 161.887 116.334ZM163.83 90.667C160.613 90.667 157.999 88.0496 157.999 84.8337C157.999 81.6177 160.613 79.0003 163.83 79.0003C167.045 79.0003 169.661 81.6177 169.661 84.8337C169.661 88.0496 167.045 90.667 163.83 90.667ZM190.248 99.8462C191.029 101.85 190.623 104.258 189.788 106.242C188.798 108.602 186.902 110.388 184.513 111.169C183.453 111.515 182.341 111.667 181.231 111.667H161.566C159.609 111.667 157.878 111.197 156.458 110.323C155.569 109.774 155.412 108.508 156.071 107.687C157.174 106.314 158.263 104.937 159.361 103.547C161.454 100.889 162.864 100.118 164.431 100.795C165.067 101.074 165.705 101.493 166.362 101.936C168.112 103.126 170.546 104.761 173.751 102.986C175.944 101.758 177.216 99.6506 178.324 97.8157L178.343 97.785C178.421 97.6563 178.499 97.5275 178.576 97.3991C178.949 96.7831 179.316 96.1753 179.732 95.6154C180.252 94.9147 182.184 92.7234 184.685 94.2838C186.278 95.2662 187.618 96.5954 189.051 98.0186C189.598 98.5628 189.987 99.1816 190.248 99.8462Z" fill="#A2AEBD"/>
</svg>
