<svg width="28" height="28" viewBox="0 0 28 28" fill="none" xmlns="http://www.w3.org/2000/svg">
<path fill-rule="evenodd" clip-rule="evenodd" d="M7.77366 0.666016H20.2137C24.747 0.666016 27.3337 3.22602 27.3337 7.77268V20.226C27.3337 24.746 24.7603 27.3327 20.227 27.3327H7.77366C3.22699 27.3327 0.666992 24.746 0.666992 20.226V7.77268C0.666992 3.22602 3.22699 0.666016 7.77366 0.666016ZM15.0937 15.106H18.8803C19.4937 15.0927 19.987 14.5993 19.987 13.986C19.987 13.3727 19.4937 12.8793 18.8803 12.8793H15.0937V9.11935C15.0937 8.50602 14.6003 8.01268 13.987 8.01268C13.3737 8.01268 12.8803 8.50602 12.8803 9.11935V12.8793H9.10699C8.81366 12.8793 8.53366 12.9993 8.32033 13.1993C8.12033 13.4127 8.00033 13.6913 8.00033 13.986C8.00033 14.5993 8.49366 15.0927 9.10699 15.106H12.8803V18.8793C12.8803 19.4927 13.3737 19.986 13.987 19.986C14.6003 19.986 15.0937 19.4927 15.0937 18.8793V15.106Z" fill="#7966FF"/>
</svg>
