<svg width="20" height="20" viewBox="0 0 20 20" fill="none" xmlns="http://www.w3.org/2000/svg">
<path d="M10 0C15.523 0 20 4.47695 20 10C20 15.523 15.523 20 10 20C4.47695 20 0 15.523 0 10C0 4.47695 4.47695 0 10 0Z" fill="url(#paint0_linear_7052_111932)"/>
<path d="M4.58789 7.35866V11.3227C4.5918 12.2192 5.32383 12.9403 6.21641 12.9368H11.9949C12.1594 12.9368 12.2914 12.8048 12.2914 12.6442V8.67976C12.2879 7.78366 11.5559 7.06218 10.6629 7.06569H4.88437C4.72031 7.06569 4.58789 7.19773 4.58789 7.35866V7.35866ZM12.6594 8.90476L15.0449 7.16218C15.252 6.99069 15.4129 7.03366 15.4129 7.34421V12.6583C15.4129 13.0118 15.2164 12.9692 15.0449 12.8407L12.6594 11.1012V8.90476Z" fill="white"/>
<defs>
<linearGradient id="paint0_linear_7052_111932" x1="2.64961" y1="3.21953" x2="18.523" y2="15.2336" gradientUnits="userSpaceOnUse">
<stop stop-color="#4A8CFF"/>
<stop offset="1" stop-color="#23B7EC"/>
</linearGradient>
</defs>
</svg>
