<svg width="24" height="24" viewBox="0 0 24 24" fill="none" xmlns="http://www.w3.org/2000/svg">
<path d="M0 12C0 5.37258 5.37258 0 12 0V0C18.6274 0 24 5.37258 24 12V12C24 18.6274 18.6274 24 12 24V24C5.37258 24 0 18.6274 0 12V12Z" fill="#7966FF"/>
<g clip-path="url(#clip0_1949_41201)">
<path d="M11.9183 12.8004C13.2415 12.8004 14.4415 13.3388 15.3111 14.2076L14.1799 15.3388C13.6007 14.7596 12.8007 14.4004 11.9183 14.4004C11.0359 14.4004 10.2359 14.7596 9.65674 15.3388L8.52554 14.2076C8.97052 13.7612 9.49932 13.407 10.0816 13.1655C10.6638 12.924 11.288 12.8 11.9183 12.8004ZM6.26154 11.9436C7.77274 10.4324 9.78154 9.6004 11.9183 9.6004C14.0551 9.6004 16.0639 10.4324 17.5751 11.9436L16.4439 13.0748C15.2351 11.866 13.6279 11.2004 11.9183 11.2004C10.2087 11.2004 8.60154 11.866 7.39274 13.0748L6.26154 11.9436ZM16.2783 7.2812C17.609 7.84353 18.818 8.65858 19.8383 9.6812L18.7071 10.8124C16.8935 8.9996 14.4831 8.0004 11.9191 8.0004C9.35514 8.0004 6.94394 8.9988 5.13114 10.8124L3.99994 9.6812C5.03879 8.63947 6.27329 7.81334 7.63248 7.2503C8.99167 6.68727 10.4487 6.39843 11.9199 6.4004C13.4319 6.4004 14.8983 6.6964 16.2799 7.2812H16.2783ZM11.1183 16.8004C11.1183 16.5882 11.2026 16.3847 11.3527 16.2347C11.5027 16.0847 11.7062 16.0004 11.9183 16.0004C12.1305 16.0004 12.334 16.0847 12.484 16.2347C12.6341 16.3847 12.7183 16.5882 12.7183 16.8004C12.7183 17.0126 12.6341 17.2161 12.484 17.3661C12.334 17.5161 12.1305 17.6004 11.9183 17.6004C11.7062 17.6004 11.5027 17.5161 11.3527 17.3661C11.2026 17.2161 11.1183 17.0126 11.1183 16.8004Z" fill="white"/>
</g>
<defs>
<clipPath id="clip0_1949_41201">
<rect width="16" height="16" fill="white" transform="translate(4 4)"/>
</clipPath>
</defs>
</svg>
