<svg width="21" height="20" viewBox="0 0 21 20" fill="none" xmlns="http://www.w3.org/2000/svg">
<g clip-path="url(#clip0_1795_30542)">
<path fill-rule="evenodd" clip-rule="evenodd" d="M15.9375 20H5.9375C5.28087 20.0001 4.63066 19.8708 4.024 19.6195C3.41733 19.3683 2.86611 19 2.4018 18.5357C1.93749 18.0714 1.5692 17.5202 1.31795 16.9135C1.0667 16.3068 0.937426 15.6566 0.9375 15V5C0.937426 4.34337 1.0667 3.69316 1.31795 3.0865C1.5692 2.47983 1.93749 1.92861 2.4018 1.4643C2.86611 0.999994 3.41733 0.631699 4.024 0.380452C4.63066 0.129205 5.28087 -7.38517e-05 5.9375 3.16507e-08H15.9375C16.5941 -7.38517e-05 17.2443 0.129205 17.851 0.380452C18.4577 0.631699 19.0089 0.999994 19.4732 1.4643C19.9375 1.92861 20.3058 2.47983 20.557 3.0865C20.8083 3.69316 20.9376 4.34337 20.9375 5V15C20.9376 15.6566 20.8083 16.3068 20.557 16.9135C20.3058 17.5202 19.9375 18.0714 19.4732 18.5357C19.0089 19 18.4577 19.3683 17.851 19.6195C17.2443 19.8708 16.5941 20.0001 15.9375 20Z" fill="#785AFA"/>
<path fill-rule="evenodd" clip-rule="evenodd" d="M10.3125 5.625H15.9375C16.6585 5.62496 17.352 5.34802 17.8747 4.85138C18.3974 4.35474 18.7094 3.67633 18.7463 2.95625C18.7832 2.23617 18.5422 1.52942 18.073 0.981957C17.6038 0.434491 16.9422 0.0881194 16.225 0.014375C16.1281 0.00906253 16.0344 3.16507e-08 15.9375 3.16507e-08H5.9375C5.28087 -7.38517e-05 4.63066 0.129205 4.024 0.380452C3.41733 0.631699 2.86611 0.999994 2.4018 1.4643C1.93749 1.92861 1.5692 2.47983 1.31795 3.0865C1.0667 3.69316 0.937426 4.34337 0.9375 5V15C0.9375 12.5136 1.92522 10.129 3.68337 8.37087C5.44153 6.61272 7.8261 5.625 10.3125 5.625Z" fill="#9678FF"/>
<path fill-rule="evenodd" clip-rule="evenodd" d="M15.9375 10C14.9486 10 13.9819 10.2932 13.1596 10.8427C12.3374 11.3921 11.6965 12.173 11.3181 13.0866C10.9397 14.0002 10.8406 15.0055 11.0336 15.9755C11.2265 16.9454 11.7027 17.8363 12.402 18.5355C13.1012 19.2348 13.9921 19.711 14.962 19.9039C15.932 20.0969 16.9373 19.9978 17.8509 19.6194C18.7645 19.241 19.5454 18.6001 20.0948 17.7779C20.6442 16.9556 20.9375 15.9889 20.9375 15V5C20.9376 5.65663 20.8083 6.30684 20.557 6.9135C20.3058 7.52017 19.9375 8.07139 19.4732 8.5357C19.0089 9.00001 18.4577 9.3683 17.851 9.61955C17.2443 9.8708 16.5941 10.0001 15.9375 10Z" fill="#5F41E1"/>
<path d="M16.5627 11.0518C16.2034 13.9509 14.0815 14.1331 13.6909 14.2587C12.4955 14.5507 11.2621 14.6557 10.0346 14.57C10.0346 14.57 8.58462 16.0525 8.13462 16.5068C8.10912 16.5368 8.0768 16.5602 8.04036 16.5751C8.00393 16.59 7.96445 16.596 7.92525 16.5925C7.84712 16.5734 7.82525 16.4812 7.82525 16.3462C7.82837 16.1537 7.83775 14.2243 7.83775 14.2243C5.0065 13.4384 5.17213 10.4831 5.20338 8.93527C5.23463 7.38746 5.52525 6.11996 6.39088 5.26746C7.94088 3.86214 11.1377 4.07214 11.1377 4.07214C13.8377 4.08371 15.1315 4.89652 15.4315 5.16902C16.4252 6.02152 16.9346 8.06184 16.5627 11.0512V11.0518ZM16.1752 4.44589C15.8221 4.11902 14.3877 3.07902 11.1971 3.06496C11.1971 3.06496 7.43462 2.83777 5.60025 4.52058C4.57838 5.54183 4.219 7.03621 4.1815 8.88902C4.144 10.7418 3.84088 14.2143 7.18775 15.1559V16.5925C7.18775 16.9597 7.29713 17.4997 7.82525 17.4997C8.04087 17.4997 8.34712 17.4172 8.77525 16.9822L10.1971 15.6112C11.4955 15.6796 12.7971 15.5633 14.0627 15.2656C14.5252 15.1156 17.1409 14.7806 17.5659 11.3087C18.0034 7.72996 17.3534 5.46621 16.1752 4.44589Z" fill="white"/>
<path fill-rule="evenodd" clip-rule="evenodd" d="M10.9383 5.625C11.3897 5.62489 11.8368 5.71372 12.2539 5.88643C12.671 6.05914 13.05 6.31234 13.3692 6.63156C13.6885 6.95079 13.9417 7.32978 14.1144 7.74689C14.2871 8.164 14.3759 8.61105 14.3758 9.0625C14.3751 9.14505 14.3426 9.22415 14.2852 9.28344C14.2414 9.32715 14.1857 9.35691 14.125 9.36897C14.0643 9.38104 14.0015 9.37487 13.9443 9.35123C13.8871 9.3276 13.8382 9.28756 13.8038 9.23618C13.7694 9.18479 13.7509 9.12436 13.7508 9.0625C13.7502 8.31675 13.4538 7.6017 12.9264 7.07438C12.3991 6.54705 11.684 6.25056 10.9383 6.25H10.9102C10.8273 6.24987 10.7479 6.2169 10.6893 6.15833C10.6308 6.09975 10.5978 6.02034 10.5977 5.9375C10.5973 5.8965 10.6051 5.85584 10.6207 5.8179C10.6363 5.77996 10.6592 5.74551 10.6883 5.71656C10.7174 5.68744 10.752 5.66436 10.7901 5.64865C10.8282 5.63294 10.869 5.6249 10.9102 5.625H10.9383Z" fill="white"/>
<path fill-rule="evenodd" clip-rule="evenodd" d="M10.9383 6.875C11.2256 6.87496 11.51 6.93152 11.7755 7.04144C12.0409 7.15136 12.282 7.31249 12.4852 7.51562C12.6883 7.71876 12.8494 7.95992 12.9594 8.22534C13.0693 8.49075 13.1258 8.77523 13.1258 9.0625C13.1257 9.12436 13.1072 9.18479 13.0728 9.23618C13.0384 9.28756 12.9895 9.3276 12.9323 9.35123C12.8752 9.37487 12.8123 9.38104 12.7516 9.36898C12.6909 9.35691 12.6352 9.32715 12.5914 9.28344C12.534 9.22415 12.5015 9.14505 12.5008 9.0625C12.5007 8.64813 12.336 8.25076 12.043 7.95776C11.75 7.66475 11.3527 7.5001 10.9383 7.5H10.9102C10.869 7.5001 10.8282 7.49206 10.7901 7.47635C10.752 7.46064 10.7174 7.43756 10.6883 7.40844C10.6592 7.37949 10.6363 7.34504 10.6207 7.3071C10.6051 7.26917 10.5973 7.2285 10.5977 7.1875C10.5978 7.10466 10.6308 7.02525 10.6893 6.96668C10.7479 6.9081 10.8273 6.87513 10.9102 6.875H10.9383Z" fill="white"/>
<path d="M14.2418 12.1501C14.2998 12.0581 14.3248 11.9493 14.3129 11.8413C14.301 11.7333 14.2528 11.6325 14.1762 11.5554C13.7937 11.218 13.3793 10.9188 12.9387 10.6619C12.8296 10.5939 12.7001 10.5663 12.5727 10.5841C12.4454 10.6018 12.3283 10.6636 12.2418 10.7588L11.9887 11.0741C11.67 11.4679 10.695 10.8776 10.2325 10.3941C9.74809 9.92881 9.15746 8.95506 9.55121 8.63569L9.86684 8.38538C9.96206 8.29863 10.0239 8.18127 10.0416 8.05368C10.0593 7.92609 10.0317 7.79633 9.96371 7.68694C9.70843 7.24536 9.40897 6.83084 9.06996 6.44975C8.99318 6.37302 8.89261 6.32465 8.78473 6.31255C8.67686 6.30046 8.56808 6.32537 8.47621 6.38319C8.23443 6.5256 8.01533 6.7034 7.82621 6.91069C7.71324 7.01697 7.6325 7.15294 7.59326 7.303C7.55402 7.45306 7.55785 7.61115 7.60433 7.75913C8.03903 8.97269 8.72237 10.0821 9.61058 11.0163C10.5452 11.9033 11.6541 12.5861 12.8668 13.0213C13.0149 13.0684 13.1732 13.0727 13.3236 13.0337C13.474 12.9947 13.6103 12.9141 13.7168 12.801C13.9148 12.6036 14.0908 12.3854 14.2418 12.1501Z" fill="white"/>
</g>
<defs>
<clipPath id="clip0_1795_30542">
<rect width="20" height="20" fill="white" transform="translate(0.9375)"/>
</clipPath>
</defs>
</svg>
