<svg width="18" height="18" viewBox="0 0 18 18" fill="none" xmlns="http://www.w3.org/2000/svg">
<g opacity="0.5" clip-path="url(#clip0_6672_16271)">
<path d="M8.9082 9.90021C10.3968 9.90021 11.7468 10.5059 12.7251 11.4833L11.4525 12.7559C10.8009 12.1043 9.9009 11.7002 8.9082 11.7002C7.9155 11.7002 7.0155 12.1043 6.3639 12.7559L5.0913 11.4833C5.59191 10.9811 6.1868 10.5827 6.84182 10.311C7.49684 10.0393 8.19907 9.89971 8.9082 9.90021ZM2.5443 8.93631C4.2444 7.23621 6.5043 6.30021 8.9082 6.30021C11.3121 6.30021 13.572 7.23621 15.2721 8.93631L13.9995 10.2089C12.6396 8.84901 10.8315 8.10021 8.9082 8.10021C6.9849 8.10021 5.1768 8.84901 3.8169 10.2089L2.5443 8.93631ZM13.8132 3.69111C15.3102 4.32373 16.6703 5.24065 17.8182 6.39111L16.5456 7.66371C14.5053 5.62431 11.7936 4.50021 8.9091 4.50021C6.0246 4.50021 3.312 5.62341 1.2726 7.66371L0 6.39111C1.1687 5.21916 2.55752 4.28976 4.08661 3.65635C5.6157 3.02293 7.25491 2.69799 8.91 2.70021C10.611 2.70021 12.2607 3.03321 13.815 3.69111H13.8132ZM8.0082 14.4002C8.0082 14.1615 8.10302 13.9326 8.2718 13.7638C8.44059 13.595 8.6695 13.5002 8.9082 13.5002C9.14689 13.5002 9.37581 13.595 9.54459 13.7638C9.71338 13.9326 9.8082 14.1615 9.8082 14.4002C9.8082 14.6389 9.71338 14.8678 9.54459 15.0366C9.37581 15.2054 9.14689 15.3002 8.9082 15.3002C8.6695 15.3002 8.44059 15.2054 8.2718 15.0366C8.10302 14.8678 8.0082 14.6389 8.0082 14.4002Z" fill="white"/>
</g>
<defs>
<clipPath id="clip0_6672_16271">
<rect width="18" height="18" fill="white"/>
</clipPath>
</defs>
</svg>
