<svg width="20" height="20" viewBox="0 0 20 20" fill="none" xmlns="http://www.w3.org/2000/svg">
<path fill-rule="evenodd" clip-rule="evenodd" d="M0.931236 0.930564C1.28397 0.577833 1.85586 0.577833 2.20859 0.930564L10 8.72199L17.7914 0.930564C18.1442 0.577833 18.7161 0.577833 19.0688 0.930564C19.4215 1.2833 19.4215 1.85519 19.0688 2.20792L11.2774 9.99935L19.0688 17.7908C19.4215 18.1435 19.4215 18.7154 19.0688 19.0681C18.7161 19.4209 18.1442 19.4209 17.7914 19.0681L10 11.2767L2.20859 19.0681C1.85586 19.4209 1.28397 19.4209 0.931236 19.0681C0.578504 18.7154 0.578504 18.1435 0.931236 17.7908L8.72266 9.99935L0.931236 2.20792C0.578504 1.85519 0.578504 1.2833 0.931236 0.930564Z" fill="#A2AEBD"/>
</svg>
