<svg width="56" height="56" viewBox="0 0 56 56" fill="none" xmlns="http://www.w3.org/2000/svg">
<path d="M28 15.4219L0.109375 16.5156V52.6094L28 53.7031L55.8906 52.6094V16.5156L28 15.4219Z" fill="#ECF5FF"/>
<path d="M29.6406 3.39062L28 6.67188L26.3594 3.39062H0.109375V13.2344L28 14.3281L55.8906 13.2344V3.39062H29.6406Z" fill="#FF4949"/>
<path d="M6.67188 6.67188H9.95312C9.95312 5.87344 9.95312 0.907813 9.95312 0.109375H6.67188V6.67188Z" fill="#1F2F4E"/>
<path d="M16.5156 6.67188H19.7969C19.7969 5.87344 19.7969 0.907813 19.7969 0.109375H16.5156V6.67188Z" fill="#1F2F4E"/>
<path d="M26.3594 0.109375V6.67188H29.6406C29.6406 5.87344 29.6406 0.907813 29.6406 0.109375C28.4922 0.109375 27.5078 0.109375 26.3594 0.109375Z" fill="#1F2F4E"/>
<path d="M36.2031 6.67188H39.4844C39.4844 5.87344 39.4844 0.907813 39.4844 0.109375H36.2031V6.67188Z" fill="#1F2F4E"/>
<path d="M46.0469 0.109375V6.67188H49.3281C49.3281 5.87344 49.3281 0.907813 49.3281 0.109375H46.0469Z" fill="#1F2F4E"/>
<path d="M0.109375 13.2344V16.5156H55.8906V13.2344C54.3156 13.2344 1.68437 13.2344 0.109375 13.2344Z" fill="#F30051"/>
<path d="M0.109375 52.6094V55.8906H55.8906V52.6094C54.3156 52.6094 1.68437 52.6094 0.109375 52.6094Z" fill="#D6E8FE"/>
<path d="M28 21.4375C20.7594 21.4375 14.875 27.3219 14.875 34.5625C14.875 41.8031 20.7594 47.6875 28 47.6875C35.2406 47.6875 41.125 41.8031 41.125 34.5625C41.125 27.3219 35.2406 21.4375 28 21.4375Z" fill="#FB2B3A"/>
<path d="M28 24.7188C22.575 24.7188 18.1562 29.1375 18.1562 34.5625C18.1562 39.9875 22.575 44.4062 28 44.4062C33.425 44.4062 37.8438 39.9875 37.8438 34.5625C37.8438 29.1375 33.425 24.7188 28 24.7188Z" fill="#FD4755"/>
<path fill-rule="evenodd" clip-rule="evenodd" d="M33.5247 30.495C33.7841 30.495 34 30.7103 34 30.9843V31.2376C34 31.505 33.7841 31.727 33.5247 31.727H22.4759C22.2159 31.727 22 31.505 22 31.2376V30.9843C22 30.7103 22.2159 30.495 22.4759 30.495H24.4197C24.8146 30.495 25.1582 30.2143 25.247 29.8183L25.3488 29.3637C25.507 28.7443 26.0277 28.333 26.6235 28.333H29.3765C29.9659 28.333 30.4923 28.7443 30.6447 29.331L30.7536 29.8177C30.8418 30.2143 31.1854 30.495 31.5809 30.495H33.5247ZM32.5372 39.7557C32.7402 37.8644 33.0955 33.3711 33.0955 33.3258C33.1084 33.1884 33.0637 33.0584 32.9749 32.9538C32.8796 32.8558 32.759 32.7978 32.626 32.7978H23.379C23.2455 32.7978 23.1184 32.8558 23.0302 32.9538C22.9407 33.0584 22.8966 33.1884 22.9031 33.3258C22.9043 33.3341 22.9171 33.4924 22.9384 33.757C23.0331 34.9325 23.2968 38.2065 23.4672 39.7557C23.5878 40.897 24.3367 41.6143 25.4214 41.6403C26.2584 41.6597 27.1207 41.6663 28.0025 41.6663C28.8331 41.6663 29.6766 41.6597 30.5396 41.6403C31.6619 41.621 32.4101 40.9163 32.5372 39.7557Z" fill="white"/>
</svg>
