<svg width="57" height="56" viewBox="0 0 57 56" fill="none" xmlns="http://www.w3.org/2000/svg">
<circle cx="28.5" cy="28" r="28" fill="white"/>
<g clip-path="url(#clip0_3375_33508)">
<path d="M32.8327 16.6667H25.166C24.614 16.6667 24.166 16.2187 24.166 15.6667V11C24.166 10.448 24.614 10 25.166 10H32.8327C33.2233 10 33.578 10.2267 33.7407 10.5827C33.9047 10.9373 33.846 11.3547 33.5913 11.652L32.15 13.3333L33.5927 15.016C33.8473 15.3133 33.9047 15.7307 33.742 16.0853C33.578 16.44 33.2233 16.6667 32.8327 16.6667Z" fill="#F44336"/>
<path d="M25.166 20.6667C24.614 20.6667 24.166 20.2187 24.166 19.6667V11C24.166 10.448 24.614 10 25.166 10C25.718 10 26.166 10.448 26.166 11V19.6667C26.166 20.2187 25.718 20.6667 25.166 20.6667Z" fill="#607D8B"/>
<path d="M30.6456 27.36L27.8056 29.76C27.6189 29.92 27.3923 30 27.1656 30C26.9123 30 26.6589 29.9067 26.4589 29.7067L25.1656 28.4134L23.8723 29.7067C23.499 30.08 22.9123 30.0934 22.5256 29.76L19.7656 27.44L20.7523 25.6534L24.2856 19.1867C24.459 18.8667 24.7923 18.6667 25.1656 18.6667C25.499 18.6267 25.8589 18.8534 26.0323 19.1734L29.6456 25.5867L30.6456 27.36Z" fill="#ECEFF1"/>
<path d="M25.166 10C24.614 10 24.166 10.448 24.166 11V19.4067L24.286 19.1867C24.4593 18.8667 24.7927 18.6667 25.166 18.6667V10Z" fill="#546D79"/>
<path d="M25.1656 18.666C24.7923 18.666 24.459 18.866 24.2856 19.186L24.1656 19.406L20.7523 25.6527L19.7656 27.4393L22.5256 29.7593C22.7096 29.918 22.9403 29.998 23.1696 29.998C23.423 29.998 23.6763 29.902 23.8723 29.706L25.1656 28.4127V18.666Z" fill="#CDD0D2"/>
<path d="M43.4992 41.9993H30.0432C29.6952 41.9993 29.3725 41.818 29.1899 41.522C29.0085 41.226 28.9939 40.8553 29.1525 40.546L35.6085 27.8793C35.7765 27.55 36.1125 27.3407 36.4819 27.334C36.9032 27.3633 37.1965 27.5273 37.3739 27.85L44.3739 40.5167C44.5445 40.826 44.5405 41.2033 44.3605 41.5087C44.1805 41.8127 43.8539 41.9993 43.4992 41.9993Z" fill="#1976D2"/>
<path d="M36.4819 27.334C36.1125 27.3407 35.7765 27.55 35.6085 27.8793L29.1525 40.546C28.9939 40.8566 29.0085 41.226 29.1899 41.522C29.3725 41.8193 29.6952 42.0006 30.0432 42.0006H36.4992V27.3353C36.4939 27.3353 36.4885 27.334 36.4819 27.334Z" fill="#1667B7"/>
<path d="M38.033 40.506L30.6463 27.3594L27.8063 29.7594C27.6196 29.9194 27.393 29.9994 27.1663 29.9994C26.913 29.9994 26.6596 29.906 26.4596 29.706L25.1663 28.4127L23.873 29.706C23.4996 30.0794 22.913 30.0927 22.5263 29.7594L19.7663 27.4394L12.6196 40.5194C12.4463 40.826 12.4596 41.1994 12.633 41.506C12.8196 41.8127 13.153 41.9994 13.4996 41.9994H37.1663C37.5263 41.9994 37.8463 41.8127 38.033 41.506C38.2063 41.1994 38.2063 40.8127 38.033 40.506Z" fill="#2196F3"/>
<path d="M19.7663 27.4395L12.6196 40.5194C12.4463 40.8261 12.4596 41.1994 12.633 41.5061C12.8196 41.8128 13.153 41.9994 13.4996 41.9994H25.1663V28.4128L23.873 29.7061C23.677 29.9008 23.4236 29.9981 23.1703 29.9981C22.9396 29.9981 22.7103 29.9181 22.5263 29.7595L19.7663 27.4395Z" fill="#1D83D4"/>
</g>
<defs>
<clipPath id="clip0_3375_33508">
<rect width="32" height="32" fill="white" transform="translate(12.5 10)"/>
</clipPath>
</defs>
</svg>
