<svg width="18" height="16" viewBox="0 0 18 16" fill="none" xmlns="http://www.w3.org/2000/svg">
<path fill-rule="evenodd" clip-rule="evenodd" d="M9.59576 0.867359L11.5258 4.74986C11.6224 4.94569 11.8091 5.08236 12.0258 5.11403L16.3466 5.73819C16.5216 5.76153 16.6791 5.85319 16.7866 5.99319C16.9883 6.25569 16.9574 6.62736 16.7158 6.85319L13.5841 9.88153C13.4249 10.0315 13.3541 10.2515 13.3958 10.4657L14.1458 14.739C14.1983 15.0932 13.9566 15.4249 13.6024 15.4824C13.4558 15.5049 13.3058 15.4815 13.1724 15.4157L9.32409 13.3982C9.13076 13.2932 8.89909 13.2932 8.70576 13.3982L4.82909 15.4265C4.50492 15.5915 4.10826 15.469 3.93159 15.1515C3.86409 15.0232 3.84076 14.8774 3.86409 14.7349L4.61409 10.4615C4.65159 10.2482 4.58076 10.029 4.42576 9.87819L1.27743 6.85069C1.02076 6.59569 1.01909 6.18069 1.27493 5.92403C1.27576 5.92319 1.27659 5.92153 1.27743 5.92069C1.38326 5.82486 1.51326 5.76069 1.65409 5.73569L5.97576 5.11153C6.19159 5.07736 6.37743 4.94236 6.47576 4.74653L8.40409 0.867359C8.48159 0.709858 8.61909 0.589025 8.78576 0.534025C8.95326 0.478192 9.13659 0.491525 9.29409 0.570692C9.42326 0.634858 9.52909 0.739025 9.59576 0.867359Z" fill="white" stroke="#7966FF" stroke-linecap="round" stroke-linejoin="round"/>
</svg>
