<svg width="18" height="18" viewBox="0 0 18 18" fill="none" xmlns="http://www.w3.org/2000/svg">
<path fill-rule="evenodd" clip-rule="evenodd" d="M5.10913 0.666016H12.8832C15.7162 0.666016 17.3327 2.26602 17.3327 5.10768V12.891C17.3327 15.716 15.7246 17.3327 12.8916 17.3327H5.10913C2.26778 17.3327 0.667969 15.716 0.667969 12.891V5.10768C0.667969 2.26602 2.26778 0.666016 5.10913 0.666016ZM9.6836 9.69102H12.05C12.4333 9.68268 12.7416 9.37435 12.7416 8.99102C12.7416 8.60768 12.4333 8.29935 12.05 8.29935H9.6836V5.94935C9.6836 5.56602 9.3753 5.25768 8.99201 5.25768C8.60872 5.25768 8.30043 5.56602 8.30043 5.94935V8.29935H5.94236C5.75905 8.29935 5.58407 8.37435 5.45075 8.49935C5.32577 8.63268 5.25078 8.80685 5.25078 8.99102C5.25078 9.37435 5.55907 9.68268 5.94236 9.69102H8.30043V12.0493C8.30043 12.4327 8.60872 12.741 8.99201 12.741C9.3753 12.741 9.6836 12.4327 9.6836 12.0493V9.69102Z" fill="#28C76F"/>
</svg>
