<svg width="32" height="32" viewBox="0 0 32 32" fill="none" xmlns="http://www.w3.org/2000/svg">
<path d="M6 24.5H16C17.3261 24.5 18.5979 25.0268 19.5355 25.9645C20.4732 26.9021 21 28.1739 21 29.5V31H1V29.5C1 28.1739 1.52678 26.9021 2.46447 25.9645C3.40215 25.0268 4.67392 24.5 6 24.5Z" fill="#3B5892"/>
<path d="M18.0004 28V24.919C17.3699 24.6425 16.6889 24.4999 16.0004 24.5H6.00039C4.76086 24.5 3.56551 24.9604 2.64625 25.7919C1.72699 26.6234 1.14934 27.7667 1.02539 29H17.0004C17.2656 29 17.52 28.8946 17.7075 28.7071C17.895 28.5196 18.0004 28.2652 18.0004 28Z" fill="#4C6CB5"/>
<path d="M13 23.0322C12.3786 23.341 11.6939 23.5012 11 23.5002C10.3061 23.5012 9.62143 23.341 9 23.0322V24.5002C9 25.0307 9.21071 25.5394 9.58579 25.9144C9.96086 26.2895 10.4696 26.5002 11 26.5002C11.5304 26.5002 12.0391 26.2895 12.4142 25.9144C12.7893 25.5394 13 25.0307 13 24.5002V23.0322Z" fill="#F2B9A1"/>
<path d="M15.5 16.5H16.5L16.9295 14.3535C16.9765 14.1184 17.0001 13.8792 17 13.6395C17 13.1616 16.9059 12.6883 16.723 12.2467C16.5401 11.8052 16.272 11.4039 15.934 11.066C15.5961 10.728 15.1948 10.4599 14.7533 10.277C14.3117 10.0941 13.8384 10 13.3605 10H12.25C12.0511 10 11.8603 9.92098 11.7197 9.78033C11.579 9.63968 11.5 9.44891 11.5 9.25C11.5 9.05109 11.421 8.86032 11.2803 8.71967C11.1397 8.57902 10.9489 8.5 10.75 8.5H9.2C8.08609 8.5 7.0178 8.9425 6.23015 9.73015C5.4425 10.5178 5 11.5861 5 12.7C4.99998 12.8987 5.01402 13.0972 5.042 13.294L5.5 16.5H6.5V16.0355C6.50001 15.3726 6.76331 14.7368 7.232 14.268L8.6465 12.8535C8.75858 12.7414 8.89165 12.6525 9.03809 12.5919C9.18454 12.5312 9.34149 12.5 9.5 12.5C9.65851 12.5 9.81546 12.5312 9.96191 12.5919C10.1084 12.6525 10.2414 12.7414 10.3535 12.8535L11.9645 14.4645C12.1066 14.6064 12.2992 14.686 12.5 14.686C12.7008 14.686 12.8934 14.6064 13.0355 14.4645C13.1644 14.3356 13.3355 14.2575 13.5173 14.2445C13.6992 14.2316 13.8796 14.2846 14.0255 14.394L15.1 15.2C15.2242 15.2931 15.325 15.4139 15.3944 15.5528C15.4639 15.6916 15.5 15.8448 15.5 16V16.5Z" fill="#976947"/>
<path d="M15.5 16V19C15.5 20.1935 15.0259 21.3381 14.182 22.182C13.3381 23.0259 12.1935 23.5 11 23.5C9.80653 23.5 8.66193 23.0259 7.81802 22.182C6.97411 21.3381 6.5 20.1935 6.5 19V16.0355C6.50001 15.3726 6.76331 14.7368 7.232 14.268L8.6465 12.8535C8.75858 12.7414 8.89165 12.6525 9.03809 12.5919C9.18454 12.5312 9.34149 12.5 9.5 12.5C9.65851 12.5 9.81546 12.5312 9.96191 12.5919C10.1084 12.6525 10.2414 12.7414 10.3535 12.8535L11.9645 14.4645C12.1066 14.6064 12.2992 14.686 12.5 14.686C12.7008 14.686 12.8934 14.6064 13.0355 14.4645C13.1644 14.3356 13.3355 14.2575 13.5173 14.2445C13.6992 14.2316 13.8796 14.2846 14.0255 14.394L15.1 15.2C15.2242 15.2931 15.325 15.4139 15.3944 15.5528C15.4639 15.6916 15.5 15.8448 15.5 16Z" fill="#FBE1CA"/>
<path d="M6.5 16.5H5.5C5.10218 16.5 4.72064 16.658 4.43934 16.9393C4.15804 17.2206 4 17.6022 4 18C4 18.3978 4.15804 18.7794 4.43934 19.0607C4.72064 19.342 5.10218 19.5 5.5 19.5H6.5" fill="#F2B9A1"/>
<path d="M15.5 16.5H16.5C16.8978 16.5 17.2794 16.658 17.5607 16.9393C17.842 17.2206 18 17.6022 18 18C18 18.3978 17.842 18.7794 17.5607 19.0607C17.2794 19.342 16.8978 19.5 16.5 19.5H15.5" fill="#F2B9A1"/>
<path d="M31 9.5V6.5H29.8035C29.664 5.95822 29.4489 5.43878 29.1645 4.957L30.0105 4.111L27.889 1.9895L27.043 2.8355C26.5612 2.55111 26.0418 2.336 25.5 2.1965V1H22.5V2.1965C21.9582 2.336 21.4388 2.55111 20.957 2.8355L20.111 1.9895L17.9895 4.111L18.8355 4.957C18.5511 5.43878 18.336 5.95822 18.1965 6.5H17V9.5H18.1965C18.336 10.0418 18.5511 10.5612 18.8355 11.043L17.9895 11.889L20.111 14.0105L20.957 13.1645C21.4388 13.4489 21.9582 13.664 22.5 13.8035V15H25.5V13.8035C26.0418 13.664 26.5612 13.4489 27.043 13.1645L27.889 14.0105L30.0105 11.889L29.1645 11.043C29.4489 10.5612 29.664 10.0418 29.8035 9.5H31ZM24 11.5C23.3078 11.5 22.6311 11.2947 22.0555 10.9101C21.4799 10.5256 21.0313 9.97893 20.7664 9.33939C20.5015 8.69985 20.4322 7.99612 20.5673 7.31718C20.7023 6.63825 21.0356 6.01461 21.5251 5.52513C22.0146 5.03564 22.6383 4.7023 23.3172 4.56725C23.9961 4.4322 24.6999 4.50152 25.3394 4.76642C25.9789 5.03133 26.5256 5.47993 26.9101 6.0555C27.2947 6.63108 27.5 7.30777 27.5 8C27.5 8.92826 27.1313 9.8185 26.4749 10.4749C25.8185 11.1313 24.9283 11.5 24 11.5Z" fill="#474747"/>
<path d="M24.5 19L27.5 16L30.5 19H29V21.5C29 22.4283 28.6313 23.3185 27.9749 23.9749C27.3185 24.6313 26.4283 25 25.5 25H21.5V22H25C25.2652 22 25.5196 21.8946 25.7071 21.7071C25.8946 21.5196 26 21.2652 26 21V19H24.5Z" fill="#D23F34"/>
</svg>
