<svg width="56" height="56" viewBox="0 0 56 56" fill="none" xmlns="http://www.w3.org/2000/svg">
<circle cx="28" cy="28" r="28" fill="white"/>
<path d="M31.0293 17.0725L30.2639 12H19.0338C17.3428 12 16 13.3777 16 15.0686V36.3045C16 37.9953 17.3428 39.3451 19.0338 39.3451H29.6865L37.3611 27.725V19.4383L31.0293 17.0725Z" fill="#00ACEA"/>
<path d="M30.2637 12.0073L37.3401 19.4386H32.6295C31.3213 19.4386 30.2637 18.381 30.2637 17.0728V12.0073Z" fill="#00EFD1"/>
<path d="M20.9264 29.3257H29.9926C30.3752 29.3257 30.6885 29.0128 30.6885 28.63C30.6885 28.2474 30.3752 27.9341 29.9926 27.9341H20.9264C20.5437 27.9341 20.2305 28.2474 20.2305 28.63C20.2305 29.0128 20.5437 29.3257 20.9264 29.3257Z" fill="#083863"/>
<path d="M20.9264 25.8462H27.9748C28.3574 25.8462 28.6707 25.5331 28.6707 25.1503C28.6707 24.7677 28.3574 24.4546 27.9748 24.4546H20.9264C20.5437 24.4546 20.2305 24.7677 20.2305 25.1503C20.2305 25.5331 20.5437 25.8462 20.9264 25.8462Z" fill="#083863"/>
<path d="M27.7033 31.4824H20.9264C20.5437 31.4824 20.2305 31.7957 20.2305 32.1781C20.2305 32.5609 20.5437 32.874 20.9264 32.874H27.7033C28.0861 32.874 28.3992 32.5609 28.3992 32.1781C28.3992 31.7957 28.0861 31.4824 27.7033 31.4824Z" fill="#083863"/>
<path d="M37.3404 26.3406C41.6545 26.9457 44.9732 30.6475 44.9732 35.1283C44.9732 40.0268 41.0004 44 36.102 44C32.7344 44 29.798 42.1213 28.302 39.352C27.6201 38.0926 27.2305 36.6523 27.2305 35.1215C27.2305 30.223 31.2035 26.25 36.102 26.25C36.5195 26.257 36.9299 26.285 37.3404 26.3406Z" fill="#FEDB41"/>
<path d="M38.4461 34.9613H36.4561V32.1156C36.4561 31.7328 36.1432 31.4199 35.7604 31.4199C35.3777 31.4199 35.0645 31.7328 35.0645 32.1156V35.6572C35.0645 36.04 35.3707 36.3529 35.7535 36.3529H38.4531C38.8357 36.3529 39.149 36.04 39.149 35.6572C39.149 35.2746 38.8357 34.9613 38.4461 34.9613Z" fill="#083863"/>
<path d="M36.0883 28.0596C32.1779 28.0596 28.998 31.2396 28.998 35.15C28.998 39.0603 32.1779 42.24 36.0883 42.24C39.9986 42.24 43.1783 39.0603 43.1783 35.15C43.1783 31.2396 39.9986 28.0596 36.0883 28.0596ZM36.0883 40.8486C32.9432 40.8486 30.3895 38.2949 30.3895 35.15C30.3895 32.0049 32.9432 29.4512 36.0883 29.4512C39.2332 29.4512 41.7867 32.0049 41.7867 35.15C41.7867 38.2949 39.2332 40.8486 36.0883 40.8486Z" fill="#083863"/>
</svg>
