<svg width="76" height="76" viewBox="0 0 76 76" fill="none" xmlns="http://www.w3.org/2000/svg">
<g filter="url(#filter0_d_7248_55503)">
<circle cx="38" cy="34" r="28" fill="#F1F7FF"/>
<circle cx="38" cy="34" r="27.5" stroke="#DBDFEF" stroke-opacity="0.5"/>
</g>
<path d="M46.8306 22H33.4679C31.7249 22 30.2988 23.4261 30.2988 25.169V26.2473H42.3865C44.1295 26.2473 45.5556 27.6734 45.5556 29.4164V37.317H46.8306C48.5736 37.317 49.9996 35.8909 49.9996 34.148V25.169C49.9996 23.426 48.5736 22 46.8306 22Z" fill="#60B8FE"/>
<path d="M42.5318 26.1016H29.169C27.4261 26.1016 26 27.5276 26 29.2706V38.2495C26 39.9925 27.4261 41.4185 29.169 41.4185H37.1892C37.533 41.4185 37.7897 41.7385 37.711 42.0732C37.4983 42.9787 37.1729 43.9362 36.6918 44.9178C36.4757 45.3587 36.9672 45.8069 37.3847 45.5485C38.5918 44.8015 40.3092 43.5512 41.7555 41.7836C41.9456 41.5513 42.2315 41.4185 42.5318 41.4185C44.2747 41.4185 45.7008 39.9924 45.7008 38.2495V29.2705C45.7008 27.5276 44.2747 26.1016 42.5318 26.1016Z" fill="#EB5757"/>
<path d="M30.3934 35.07C30.9742 35.07 31.445 34.5992 31.445 34.0184C31.445 33.4376 30.9742 32.9668 30.3934 32.9668C29.8126 32.9668 29.3418 33.4376 29.3418 34.0184C29.3418 34.5992 29.8126 35.07 30.3934 35.07Z" fill="white"/>
<path d="M33.7899 35.07C34.3707 35.07 34.8415 34.5992 34.8415 34.0184C34.8415 33.4376 34.3707 32.9668 33.7899 32.9668C33.2091 32.9668 32.7383 33.4376 32.7383 34.0184C32.7383 34.5992 33.2091 35.07 33.7899 35.07Z" fill="white"/>
<path d="M37.1864 35.07C37.7671 35.07 38.238 34.5992 38.238 34.0184C38.238 33.4376 37.7671 32.9668 37.1864 32.9668C36.6056 32.9668 36.1348 33.4376 36.1348 34.0184C36.1348 34.5992 36.6056 35.07 37.1864 35.07Z" fill="white"/>
<path d="M40.5828 35.07C41.1636 35.07 41.6344 34.5992 41.6344 34.0184C41.6344 33.4376 41.1636 32.9668 40.5828 32.9668C40.0021 32.9668 39.5312 33.4376 39.5312 34.0184C39.5312 34.5992 40.0021 35.07 40.5828 35.07Z" fill="white"/>
<defs>
<filter id="filter0_d_7248_55503" x="0" y="0" width="76" height="76" filterUnits="userSpaceOnUse" color-interpolation-filters="sRGB">
<feFlood flood-opacity="0" result="BackgroundImageFix"/>
<feColorMatrix in="SourceAlpha" type="matrix" values="0 0 0 0 0 0 0 0 0 0 0 0 0 0 0 0 0 0 127 0" result="hardAlpha"/>
<feOffset dy="4"/>
<feGaussianBlur stdDeviation="5"/>
<feColorMatrix type="matrix" values="0 0 0 0 0.396078 0 0 0 0 0.4 0 0 0 0 0.913725 0 0 0 0.05 0"/>
<feBlend mode="normal" in2="BackgroundImageFix" result="effect1_dropShadow_7248_55503"/>
<feBlend mode="normal" in="SourceGraphic" in2="effect1_dropShadow_7248_55503" result="shape"/>
</filter>
</defs>
</svg>
