<svg width="76" height="76" viewBox="0 0 76 76" fill="none" xmlns="http://www.w3.org/2000/svg">
<g filter="url(#filter0_d_7248_55475)">
<circle cx="38" cy="34" r="28" fill="#F1F7FF"/>
<circle cx="38" cy="34" r="27.5" stroke="#DBDFEF" stroke-opacity="0.5"/>
</g>
<g clip-path="url(#clip0_7248_55475)">
<path d="M42.1372 33.9609H36.0443C35.7268 33.9609 35.4486 33.7485 35.3648 33.4422C35.2811 33.1359 35.4126 32.8115 35.686 32.6499C38.3406 31.0813 39.7196 29.2515 39.9014 27.0559C39.9649 26.294 40.6435 25.6854 41.4139 25.6954C42.2 25.708 42.9365 26.0231 43.488 26.5828C44.04 27.143 44.3443 27.8848 44.3445 28.6716C44.3445 28.6717 44.3445 28.6718 44.3445 28.6719V28.9085C44.3445 30.8304 43.7753 32.0558 42.725 33.6448C42.5944 33.8422 42.3738 33.9609 42.1372 33.9609Z" fill="#FFC380"/>
<path d="M49.6042 34.758C49.6042 33.541 48.6141 32.5508 47.397 32.5508H36.0443C35.9181 32.5508 35.7943 32.5846 35.6858 32.6488C34.8889 33.12 34.0842 33.5079 33.4377 33.8197C33.2121 33.9284 32.9991 34.0311 32.8054 34.1279C32.5668 34.2473 32.416 34.4912 32.416 34.758V43.7749C32.416 44.0417 32.5668 44.2856 32.8054 44.405C35.6518 45.8279 38.0179 46 40.777 46C41.2042 46 41.6412 45.9959 42.0905 45.9917C42.5875 45.987 43.1013 45.9821 43.64 45.9821H45.867C47.084 45.9821 48.0742 44.992 48.0742 43.7749C48.0742 43.3656 47.9623 42.9821 47.7674 42.6532C48.4016 42.265 48.8256 41.5657 48.8256 40.7692C48.8256 40.36 48.7138 39.9765 48.5188 39.6476C49.153 39.2593 49.577 38.5601 49.577 37.7636C49.577 37.1912 49.358 36.6689 48.9994 36.2764C49.3899 35.8648 49.6042 35.3279 49.6042 34.758Z" fill="#FFCF99"/>
<path d="M48.1389 28.6159H46.6361C46.2471 28.6159 45.9316 28.3005 45.9316 27.9115C45.9316 27.5225 46.2471 27.207 46.6361 27.207H48.1389C48.5279 27.207 48.8433 27.5225 48.8433 27.9115C48.8433 28.3005 48.528 28.6159 48.1389 28.6159Z" fill="#29CCB1"/>
<path d="M37.6194 28.614H36.1165C35.7275 28.614 35.4121 28.2985 35.4121 27.9095C35.4121 27.5205 35.7275 27.2051 36.1165 27.2051H37.6194C38.0084 27.2051 38.3238 27.5205 38.3238 27.9095C38.3238 28.2985 38.0085 28.614 37.6194 28.614Z" fill="#29CCB1"/>
<path d="M39.8746 24.7105C39.631 24.7105 39.3943 24.5842 39.2639 24.3582L38.5125 23.0567C38.3179 22.7199 38.4334 22.289 38.7703 22.0945C39.1072 21.9 39.538 22.0154 39.7325 22.3523L40.4839 23.6538C40.6785 23.9907 40.563 24.4216 40.2261 24.616C40.1152 24.6801 39.994 24.7105 39.8746 24.7105Z" fill="#29CCB1"/>
<path d="M44.3816 24.7106C44.2621 24.7106 44.1409 24.6802 44.03 24.6161C43.6932 24.4216 43.5777 23.9907 43.7722 23.6538L44.5236 22.3524C44.7181 22.0155 45.149 21.8999 45.4859 22.0945C45.8228 22.2891 45.9382 22.7199 45.7437 23.0568L44.9923 24.3583C44.8619 24.5843 44.6251 24.7106 44.3816 24.7106Z" fill="#29CCB1"/>
<path d="M30.8093 42.2806V45.9907H29.4004V42.2806C29.4004 41.8918 29.716 41.5762 30.1048 41.5762C30.4937 41.5762 30.8093 41.8918 30.8093 42.2806Z" fill="#73C3FF"/>
<path d="M48.1389 28.6159H46.6361C46.2471 28.6159 45.9316 28.3005 45.9316 27.9115C45.9316 27.5225 46.2471 27.207 46.6361 27.207H48.1389C48.5279 27.207 48.8433 27.5225 48.8433 27.9115C48.8433 28.3005 48.528 28.6159 48.1389 28.6159Z" fill="#29CCB1"/>
<path d="M37.6194 28.614H36.1165C35.7275 28.614 35.4121 28.2985 35.4121 27.9095C35.4121 27.5205 35.7275 27.2051 36.1165 27.2051H37.6194C38.0084 27.2051 38.3238 27.5205 38.3238 27.9095C38.3238 28.2985 38.0085 28.614 37.6194 28.614Z" fill="#29CCB1"/>
<path d="M39.8746 24.7105C39.631 24.7105 39.3943 24.5842 39.2639 24.3582L38.5125 23.0567C38.3179 22.7199 38.4334 22.289 38.7703 22.0945C39.1072 21.9 39.538 22.0154 39.7325 22.3523L40.4839 23.6538C40.6785 23.9907 40.563 24.4216 40.2261 24.616C40.1152 24.6801 39.994 24.7105 39.8746 24.7105Z" fill="#29CCB1"/>
<path d="M44.3816 24.7106C44.2621 24.7106 44.1409 24.6802 44.03 24.6161C43.6932 24.4216 43.5777 23.9907 43.7722 23.6538L44.5236 22.3524C44.7181 22.0155 45.149 21.8999 45.4859 22.0945C45.8228 22.2891 45.9382 22.7199 45.7437 23.0568L44.9923 24.3583C44.8619 24.5843 44.6251 24.7106 44.3816 24.7106Z" fill="#29CCB1"/>
<path d="M30.8093 42.2806V45.9907H29.4004V42.2806C29.4004 41.8918 29.716 41.5762 30.1048 41.5762C30.4937 41.5762 30.8093 41.8918 30.8093 42.2806Z" fill="#73C3FF"/>
<path d="M33.1121 32.5508H27.1009C26.7121 32.5508 26.3965 32.8664 26.3965 33.2552V45.2776C26.3965 45.6669 26.7121 45.9821 27.1009 45.991H31.6093C32.4729 45.9821 33.222 45.4838 33.5841 44.7596C33.733 44.4633 33.8166 44.1284 33.8166 43.7748V33.2552C33.8166 32.8663 33.501 32.5508 33.1121 32.5508Z" fill="#F9A504"/>
<path d="M30.8093 42.2337V45.9908H29.4004V42.2337C29.4004 41.8449 29.716 41.5293 30.1048 41.5293C30.4937 41.5293 30.8093 41.8449 30.8093 42.2337Z" fill="#FFC557"/>
</g>
<defs>
<filter id="filter0_d_7248_55475" x="0" y="0" width="76" height="76" filterUnits="userSpaceOnUse" color-interpolation-filters="sRGB">
<feFlood flood-opacity="0" result="BackgroundImageFix"/>
<feColorMatrix in="SourceAlpha" type="matrix" values="0 0 0 0 0 0 0 0 0 0 0 0 0 0 0 0 0 0 127 0" result="hardAlpha"/>
<feOffset dy="4"/>
<feGaussianBlur stdDeviation="5"/>
<feColorMatrix type="matrix" values="0 0 0 0 0.396078 0 0 0 0 0.4 0 0 0 0 0.913725 0 0 0 0.05 0"/>
<feBlend mode="normal" in2="BackgroundImageFix" result="effect1_dropShadow_7248_55475"/>
<feBlend mode="normal" in="SourceGraphic" in2="effect1_dropShadow_7248_55475" result="shape"/>
</filter>
<clipPath id="clip0_7248_55475">
<rect width="24" height="24" fill="white" transform="translate(26 22)"/>
</clipPath>
</defs>
</svg>
