<svg width="76" height="76" viewBox="0 0 76 76" fill="none" xmlns="http://www.w3.org/2000/svg">
<g filter="url(#filter0_d_7248_55519)">
<circle cx="38" cy="34" r="28" fill="#F1F7FF"/>
<circle cx="38" cy="34" r="27.5" stroke="#DBDFEF" stroke-opacity="0.5"/>
</g>
<path d="M44.5 38.9784C43.6138 38.9784 42.8144 39.3341 42.2082 39.9067L33.895 34.8994C33.9594 34.6275 34 34.3441 34 34.0549C34 33.7658 33.9594 33.4838 33.895 33.212L42.12 28.2538C42.7639 28.8804 43.6152 29.2295 44.5 29.2298C46.4306 29.2298 48 27.6089 48 25.6149C48 23.6209 46.4306 22 44.5 22C42.5694 22 41 23.6209 41 25.6149C41 25.9041 41.0406 26.1875 41.105 26.4579L32.88 31.4161C32.2357 30.79 31.3846 30.441 30.5 30.4401C28.5694 30.4401 27 32.061 27 34.0549C27 36.0489 28.5694 37.6698 30.5 37.6698C31.3848 37.6696 32.2361 37.3205 32.88 36.6938L41.1932 41.7012C41.132 41.9596 41.1005 42.2246 41.0994 42.4907C41.0997 43.1849 41.2992 43.8635 41.6729 44.4406C42.0465 45.0177 42.5774 45.4675 43.1984 45.733C43.8195 45.9986 44.5028 46.068 45.1621 45.9325C45.8213 45.797 46.4269 45.4626 46.9022 44.9717C47.3775 44.4808 47.7012 43.8554 47.8324 43.1745C47.9636 42.4936 47.8964 41.7878 47.6393 41.1464C47.3822 40.5049 46.9467 39.9566 46.388 39.5707C45.8292 39.1848 45.1722 38.9787 44.5 38.9784Z" fill="#7966FF"/>
<defs>
<filter id="filter0_d_7248_55519" x="0" y="0" width="76" height="76" filterUnits="userSpaceOnUse" color-interpolation-filters="sRGB">
<feFlood flood-opacity="0" result="BackgroundImageFix"/>
<feColorMatrix in="SourceAlpha" type="matrix" values="0 0 0 0 0 0 0 0 0 0 0 0 0 0 0 0 0 0 127 0" result="hardAlpha"/>
<feOffset dy="4"/>
<feGaussianBlur stdDeviation="5"/>
<feColorMatrix type="matrix" values="0 0 0 0 0.396078 0 0 0 0 0.4 0 0 0 0 0.913725 0 0 0 0.05 0"/>
<feBlend mode="normal" in2="BackgroundImageFix" result="effect1_dropShadow_7248_55519"/>
<feBlend mode="normal" in="SourceGraphic" in2="effect1_dropShadow_7248_55519" result="shape"/>
</filter>
</defs>
</svg>
