<svg width="21" height="20" viewBox="0 0 21 20" fill="none" xmlns="http://www.w3.org/2000/svg">
<path d="M10.5 0C4.9898 0 0.5 4.4898 0.5 10C0.5 11.5306 0.806122 13.0612 1.52041 14.3878V18.1633C1.52041 18.5714 1.82653 18.9796 2.33673 18.9796H6.11225C7.43878 19.6939 8.96939 20 10.5 20C16.0102 20 20.5 15.5102 20.5 10C20.5 4.4898 16.0102 0 10.5 0ZM7.43878 11.0204C6.92857 11.0204 6.41837 10.5102 6.41837 10C6.41837 9.4898 6.92857 8.97959 7.43878 8.97959C7.94898 8.97959 8.45918 9.4898 8.45918 10C8.45918 10.5102 7.94898 11.0204 7.43878 11.0204ZM10.5 11.0204C9.9898 11.0204 9.47959 10.5102 9.47959 10C9.47959 9.4898 9.9898 8.97959 10.5 8.97959C11.0102 8.97959 11.5204 9.4898 11.5204 10C11.5204 10.5102 11.0102 11.0204 10.5 11.0204ZM13.5612 11.0204C13.051 11.0204 12.5408 10.5102 12.5408 10C12.5408 9.4898 13.051 8.97959 13.5612 8.97959C14.0714 8.97959 14.5816 9.4898 14.5816 10C14.5816 10.5102 14.0714 11.0204 13.5612 11.0204Z" fill="#7966FF"/>
</svg>
