<svg width="16" height="18" viewBox="0 0 16 18" fill="none" xmlns="http://www.w3.org/2000/svg">
<path fill-rule="evenodd" clip-rule="evenodd" d="M14.9059 3.36947C15.2301 3.36947 15.5 3.63863 15.5 3.98113V4.29779C15.5 4.63195 15.2301 4.90945 14.9059 4.90945H1.09488C0.769883 4.90945 0.5 4.63195 0.5 4.29779V3.98113C0.5 3.63863 0.769883 3.36947 1.09488 3.36947H3.52464C4.01821 3.36947 4.44775 3.01864 4.55879 2.52364L4.68603 1.95531C4.88378 1.18115 5.53458 0.666992 6.27939 0.666992H9.72061C10.4573 0.666992 11.1154 1.18115 11.3059 1.91448L11.442 2.52281C11.5522 3.01864 11.9818 3.36947 12.4762 3.36947H14.9059ZM13.6715 14.9453C13.9252 12.5812 14.3693 6.9646 14.3693 6.90793C14.3855 6.73626 14.3296 6.57377 14.2186 6.44293C14.0994 6.32044 13.9487 6.24794 13.7826 6.24794H2.22377C2.05681 6.24794 1.89796 6.32044 1.78774 6.44293C1.6759 6.57377 1.62079 6.73626 1.62889 6.90793C1.63038 6.91834 1.64632 7.11618 1.67296 7.44694C1.79132 8.91631 2.12097 13.0088 2.33399 14.9453C2.48474 16.372 3.42082 17.2687 4.77672 17.3012C5.82302 17.3253 6.90093 17.3337 8.00316 17.3337C9.04136 17.3337 10.0958 17.3253 11.1745 17.3012C12.5774 17.277 13.5127 16.3962 13.6715 14.9453Z" fill="#EA5455"/>
</svg>
