<svg width="53" height="56" viewBox="0 0 53 56" fill="none" xmlns="http://www.w3.org/2000/svg">
<circle cx="28" cy="28" r="28" fill="white"/>
<path d="M28.0008 39.7618C34.496 39.7618 39.7614 34.4965 39.7614 28.0013C39.7614 21.5061 34.496 16.2407 28.0008 16.2407C21.5056 16.2407 16.2402 21.5061 16.2402 28.0013C16.2402 34.4965 21.5056 39.7618 28.0008 39.7618Z" fill="#5591D6"/>
<path d="M22.6887 35.7294L20.9805 37.4375C20.1003 36.7821 19.3148 36.0056 18.6484 35.1338H22.4421C22.7524 35.1337 22.9082 35.5098 22.6887 35.7294Z" fill="black"/>
<path d="M37.352 35.1328C36.6856 36.0046 35.9 36.7811 35.0199 37.4366L33.3117 35.7284C33.0921 35.5088 33.2479 35.1328 33.5583 35.1328H37.352Z" fill="black"/>
<path d="M22.4423 24.8033H16.6797C17.3332 22.4847 18.6795 20.4572 20.4811 18.957V21.9999L22.6889 24.2077C22.9084 24.4273 22.7526 24.8033 22.4423 24.8033Z" fill="#1475CB"/>
<path d="M39.3228 24.8033H33.5602C33.2499 24.8033 33.0941 24.4273 33.3136 24.2077L35.5214 21.9999V18.957C37.3229 20.4566 38.6692 22.4848 39.3228 24.8033Z" fill="#1475CB"/>
<path d="M39.7608 28.0003C39.7614 34.4954 34.496 39.7609 28.0008 39.7609C27.5663 39.7609 27.1375 39.7371 26.7155 39.6914C32.6058 39.0508 37.19 34.0609 37.19 28.0003C37.19 21.9397 32.6052 16.9497 26.7148 16.3092C27.1368 16.2636 27.5657 16.2397 28.0002 16.2397C34.4954 16.2397 39.7608 21.5052 39.7608 28.0003Z" fill="#1475CB"/>
<path d="M28.0012 37.4644C33.2281 37.4644 37.4654 33.2271 37.4654 28.0003C37.4654 22.7734 33.2281 18.5361 28.0012 18.5361C22.7743 18.5361 18.5371 22.7734 18.5371 28.0003C18.5371 33.2271 22.7743 37.4644 28.0012 37.4644Z" fill="#F8F3F1"/>
<path d="M22.6885 35.7294L22.6254 35.7925C22.3311 35.5884 22.0485 35.3688 21.7793 35.1338H22.4419C22.7522 35.1337 22.908 35.5098 22.6885 35.7294Z" fill="#E5E1E5"/>
<path d="M34.2209 35.1328C33.9517 35.3678 33.6691 35.5874 33.3748 35.7915L33.3117 35.7284C33.0921 35.5088 33.2479 35.1328 33.5583 35.1328H34.2209Z" fill="#E5E1E5"/>
<path d="M36.9102 24.803H33.5583C33.248 24.803 33.0922 24.427 33.3117 24.2074L35.4087 22.1104C36.0468 22.912 36.558 23.8199 36.9102 24.803Z" fill="#E5E1E5"/>
<path d="M22.4418 24.803H19.0898C19.442 23.8198 19.9533 22.912 20.5913 22.1104L22.6884 24.2074C22.908 24.427 22.7522 24.803 22.4418 24.803Z" fill="#E5E1E5"/>
<path d="M37.4643 28.0001C37.4643 33.2268 33.2271 37.464 27.9998 37.464C27.6141 37.464 27.2332 37.4409 26.8594 37.3959C31.5486 36.8329 35.1828 32.8409 35.1828 28.0001C35.1828 23.1592 31.5486 19.1673 26.8594 18.6042C27.2333 18.5593 27.6141 18.5361 27.9998 18.5361C33.2271 18.5362 37.4643 22.7734 37.4643 28.0001Z" fill="#E5E1E5"/>
<path d="M29.1741 31.7252L27.2793 28.5659L28.8482 27.625L30.743 30.7843C30.8621 30.9829 30.7977 31.2405 30.5991 31.3596L29.7494 31.8692C29.5507 31.9882 29.2932 31.9238 29.1741 31.7252Z" fill="#FEE265"/>
<path d="M28.02 27.5087C27.7533 27.5087 27.5371 27.2925 27.5371 27.0258V23.4248C27.5371 23.158 27.7533 22.9419 28.02 22.9419C28.2867 22.9419 28.5028 23.1581 28.5028 23.4248V27.0258C28.5029 27.2925 28.2867 27.5087 28.02 27.5087Z" fill="#5591D6"/>
<path d="M28.0018 29.297C28.7179 29.297 29.2984 28.7164 29.2984 28.0003C29.2984 27.2842 28.7179 26.7036 28.0018 26.7036C27.2856 26.7036 26.7051 27.2842 26.7051 28.0003C26.7051 28.7164 27.2856 29.297 28.0018 29.297Z" fill="#FB9927"/>
<path d="M35.2716 28.4678C35.2704 28.4678 35.2694 28.4678 35.2682 28.4678L35.2589 28.4678C34.9922 28.466 34.7775 28.2483 34.7793 27.9816C34.7811 27.7161 34.997 27.502 35.2621 27.502H35.2654L35.2747 27.502C35.5414 27.5038 35.7562 27.7215 35.7544 27.9882C35.7526 28.2537 35.5367 28.4678 35.2716 28.4678Z" fill="#C9C0C7"/>
<path d="M20.7402 28.4677H20.7309C20.4642 28.4677 20.248 28.2515 20.248 27.9848C20.248 27.7181 20.4642 27.502 20.7309 27.502H20.7402C21.0069 27.502 21.2231 27.7181 21.2231 27.9848C21.2231 28.2515 21.0069 28.4677 20.7402 28.4677Z" fill="#C9C0C7"/>
<path d="M27.9809 21.2075C27.7142 21.2075 27.498 20.9913 27.498 20.7246V20.7153C27.498 20.4485 27.7142 20.2324 27.9809 20.2324C28.2476 20.2324 28.4638 20.4486 28.4638 20.7153V20.7246C28.4638 20.9913 28.2476 21.2075 27.9809 21.2075Z" fill="#C9C0C7"/>
<path d="M28.0219 35.7378C27.7553 35.7378 27.5391 35.5216 27.5391 35.2549V35.2456C27.5391 34.9788 27.7553 34.7627 28.0219 34.7627C28.2886 34.7627 28.5048 34.9789 28.5048 35.2456V35.2549C28.5048 35.5216 28.2886 35.7378 28.0219 35.7378Z" fill="#C9C0C7"/>
<path d="M24.3533 22.1903C24.1865 22.1903 24.0243 22.1039 23.9348 21.9491L23.9302 21.941C23.7967 21.7101 23.8757 21.4147 24.1065 21.2813C24.3374 21.1477 24.6328 21.2267 24.7663 21.4576L24.7709 21.4657C24.9044 21.6966 24.8254 21.992 24.5945 22.1255C24.5185 22.1695 24.4353 22.1903 24.3533 22.1903Z" fill="#C9C0C7"/>
<path d="M21.7015 24.8553C21.6195 24.8553 21.5364 24.8345 21.4603 24.7905L21.4522 24.7858C21.2213 24.6523 21.1424 24.357 21.2758 24.1261C21.4093 23.8952 21.7047 23.8162 21.9356 23.9497L21.9436 23.9543C22.1745 24.0878 22.2535 24.3832 22.12 24.6141C22.0305 24.7688 21.8683 24.8553 21.7015 24.8553Z" fill="#C9C0C7"/>
<path d="M34.307 32.0848C34.225 32.0848 34.1419 32.064 34.0657 32.02L34.0577 32.0153C33.8268 31.8818 33.7479 31.5865 33.8813 31.3556C34.0147 31.1247 34.3102 31.0456 34.541 31.1792L34.5491 31.1838C34.78 31.3173 34.8589 31.6127 34.7255 31.8436C34.636 31.9983 34.4737 32.0848 34.307 32.0848Z" fill="#C9C0C7"/>
<path d="M31.6486 22.1908C31.5666 22.1908 31.4834 22.17 31.4073 22.126C31.1764 21.9925 31.0974 21.6971 31.2309 21.4662L31.2356 21.4581C31.369 21.2273 31.6644 21.1481 31.8953 21.2818C32.1262 21.4153 32.2052 21.7106 32.0717 21.9415L32.0671 21.9496C31.9776 22.1043 31.8154 22.1908 31.6486 22.1908Z" fill="#C9C0C7"/>
<path d="M24.3478 34.7543C24.2663 34.7543 24.1837 34.7337 24.1079 34.6903C23.8766 34.5575 23.7966 34.2624 23.9294 34.0311L23.934 34.023C24.0667 33.7916 24.3619 33.7117 24.5931 33.8444C24.8244 33.9771 24.9044 34.2722 24.7717 34.5035L24.767 34.5116C24.6779 34.6673 24.5152 34.7543 24.3478 34.7543Z" fill="#C9C0C7"/>
<path d="M34.2998 24.8558C34.1327 24.8558 33.9703 24.7691 33.8809 24.6139C33.7478 24.3828 33.8273 24.0875 34.0584 23.9545L34.0665 23.9498C34.2975 23.8166 34.5928 23.8962 34.7259 24.1273C34.859 24.3584 34.7795 24.6537 34.5484 24.7867L34.5403 24.7913C34.4644 24.8351 34.3816 24.8558 34.2998 24.8558Z" fill="#C9C0C7"/>
<path d="M21.6944 32.0853C21.5272 32.0853 21.3648 31.9986 21.2754 31.8434C21.1424 31.6123 21.2218 31.317 21.4529 31.184L21.461 31.1793C21.6921 31.0461 21.9873 31.1257 22.1204 31.3568C22.2535 31.5879 22.1741 31.8832 21.9429 32.0162L21.9349 32.0208C21.859 32.0646 21.7761 32.0853 21.6944 32.0853Z" fill="#C9C0C7"/>
<path d="M31.6541 34.7538C31.4867 34.7538 31.324 34.6668 31.2348 34.5112L31.2301 34.503C31.0974 34.2717 31.1774 33.9766 31.4087 33.8439C31.64 33.7112 31.9351 33.7912 32.0678 34.0225L32.0725 34.0307C32.2052 34.262 32.1252 34.5571 31.8939 34.6898C31.8181 34.7332 31.7356 34.7538 31.6541 34.7538Z" fill="#C9C0C7"/>
<path d="M22.6881 33.761L20.6688 35.7803C20.5481 35.901 20.4803 36.0648 20.4803 36.2355V39.9114C20.4803 40.4609 20.0347 40.9064 19.4852 40.9064H12.995C12.4455 40.9064 12 40.4609 12 39.9114V34.1605C12 33.611 12.4455 33.1655 12.995 33.1655H22.4414C22.7521 33.1656 22.9078 33.5413 22.6881 33.761Z" fill="#35BCC7"/>
<path d="M22.6885 33.7609L20.6695 35.7799C20.5487 35.9007 20.4809 36.0644 20.4809 36.2352V39.9112C20.4809 40.4608 20.0353 40.9065 19.4856 40.9065H16.8691C17.4186 40.9065 17.8637 40.4607 17.8637 39.9112V36.279C17.8637 36.0802 17.9427 35.8895 18.0833 35.7489L20.0713 33.7609C20.2912 33.541 20.1357 33.1655 19.8246 33.1655H22.4418C22.7521 33.1655 22.9084 33.541 22.6885 33.7609Z" fill="#20ABB9"/>
<path d="M16.6306 36.4614H14.7407C14.474 36.4614 14.2578 36.2452 14.2578 35.9785C14.2578 35.7118 14.474 35.4956 14.7407 35.4956H16.6306C16.8972 35.4956 17.1134 35.7118 17.1134 35.9785C17.1134 36.2452 16.8972 36.4614 16.6306 36.4614Z" fill="#159AA0"/>
<path d="M17.6809 38.4809H14.7407C14.474 38.4809 14.2578 38.2647 14.2578 37.998C14.2578 37.7313 14.474 37.5151 14.7407 37.5151H17.6809C17.9476 37.5151 18.1638 37.7313 18.1638 37.998C18.1638 38.2647 17.9476 38.4809 17.6809 38.4809Z" fill="#159AA0"/>
<path d="M33.3118 33.761L35.3311 35.7803C35.4518 35.901 35.5196 36.0648 35.5196 36.2355V39.9114C35.5196 40.4609 35.9651 40.9064 36.5146 40.9064H43.0049C43.5544 40.9064 43.9999 40.4609 43.9999 39.9114V34.1605C43.9999 33.611 43.5544 33.1655 43.0049 33.1655H33.5584C33.2478 33.1656 33.0921 33.5413 33.3118 33.761Z" fill="#31A7FB"/>
<path d="M44.0006 34.1603V39.9113C44.0006 40.4605 43.5551 40.906 43.0059 40.906H40.2656C40.8148 40.906 41.2604 40.4605 41.2604 39.9113V34.1603C41.2604 33.6111 40.8148 33.1655 40.2656 33.1655H43.0059C43.5551 33.1655 44.0006 33.6111 44.0006 34.1603Z" fill="#1C96F9"/>
<path d="M41.2595 36.4614H39.3696C39.1029 36.4614 38.8867 36.2452 38.8867 35.9785C38.8867 35.7118 39.1029 35.4956 39.3696 35.4956H41.2595C41.5262 35.4956 41.7423 35.7118 41.7423 35.9785C41.7423 36.2452 41.5262 36.4614 41.2595 36.4614Z" fill="#1785F8"/>
<path d="M41.259 38.4809H38.3188C38.0521 38.4809 37.8359 38.2647 37.8359 37.998C37.8359 37.7313 38.0521 37.5151 38.3188 37.5151H41.259C41.5257 37.5151 41.7419 37.7313 41.7419 37.998C41.7419 38.2647 41.5257 38.4809 41.259 38.4809Z" fill="#1785F8"/>
<path d="M33.3118 22.2401L35.3311 20.2209C35.4518 20.1001 35.5196 19.9364 35.5196 19.7656V16.0897C35.5196 15.5402 35.9651 15.0947 36.5146 15.0947H43.0049C43.5544 15.0947 43.9999 15.5402 43.9999 16.0897V21.8406C43.9999 22.3901 43.5544 22.8356 43.0049 22.8356H33.5584C33.2478 22.8355 33.0921 22.4599 33.3118 22.2401Z" fill="#FDDD45"/>
<path d="M44.0006 16.09V21.841C44.0006 22.3902 43.5551 22.8357 43.0059 22.8357H40.2656C40.8148 22.8357 41.2604 22.3902 41.2604 21.841V16.09C41.2604 15.5408 40.8148 15.0952 40.2656 15.0952H43.0059C43.5551 15.0952 44.0006 15.5407 44.0006 16.09Z" fill="#F8C52D"/>
<path d="M41.2595 20.5053H39.3696C39.1029 20.5053 38.8867 20.2891 38.8867 20.0224C38.8867 19.7557 39.1029 19.5396 39.3696 19.5396H41.2595C41.5262 19.5396 41.7423 19.7557 41.7423 20.0224C41.7423 20.2892 41.5262 20.5053 41.2595 20.5053Z" fill="#EDB529"/>
<path d="M41.259 18.4867H38.3188C38.0521 18.4867 37.8359 18.2706 37.8359 18.0039C37.8359 17.7371 38.0521 17.521 38.3188 17.521H41.259C41.5257 17.521 41.7419 17.7372 41.7419 18.0039C41.7419 18.2706 41.5257 18.4867 41.259 18.4867Z" fill="#EDB529"/>
<path d="M22.6881 22.2401L20.6688 20.2209C20.5481 20.1001 20.4803 19.9364 20.4803 19.7656V16.0897C20.4803 15.5402 20.0347 15.0947 19.4852 15.0947H12.995C12.4454 15.0947 12 15.5402 12 16.0897V21.8406C12 22.3901 12.4455 22.8356 12.995 22.8356H22.4414C22.7521 22.8355 22.9078 22.4599 22.6881 22.2401Z" fill="#FB9927"/>
<path d="M22.6885 22.2399L20.6695 20.2209C20.5487 20.1001 20.4809 19.9364 20.4809 19.7656V16.0896C20.4809 15.5399 20.0353 15.0942 19.4856 15.0942H16.8691C17.4186 15.0942 17.8637 15.5401 17.8637 16.0896V19.7217C17.8637 19.9206 17.9427 20.1112 18.0833 20.2518L20.0713 22.2398C20.2912 22.4597 20.1357 22.8352 19.8246 22.8352H22.4418C22.7521 22.8352 22.9084 22.4598 22.6885 22.2399Z" fill="#FB7722"/>
<path d="M16.6306 20.5048H14.7407C14.474 20.5048 14.2578 20.2886 14.2578 20.0219C14.2578 19.7552 14.474 19.5391 14.7407 19.5391H16.6306C16.8972 19.5391 17.1134 19.7553 17.1134 20.0219C17.1134 20.2887 16.8972 20.5048 16.6306 20.5048Z" fill="#EF6A20"/>
<path d="M17.6809 18.4853H14.7407C14.474 18.4853 14.2578 18.2691 14.2578 18.0024C14.2578 17.7357 14.474 17.5195 14.7407 17.5195H17.6809C17.9476 17.5195 18.1638 17.7357 18.1638 18.0024C18.1638 18.2691 17.9476 18.4853 17.6809 18.4853Z" fill="#EF6A20"/>
</svg>
