<svg width="16" height="22" viewBox="0 0 16 22" fill="none" xmlns="http://www.w3.org/2000/svg">
<path fill-rule="evenodd" clip-rule="evenodd" d="M1.25 8C1.25 4.27208 4.27208 1.25 8 1.25C11.7279 1.25 14.75 4.27208 14.75 8V15C14.75 15.4142 14.4142 15.75 14 15.75C13.5858 15.75 13.25 15.4142 13.25 15V8C13.25 5.1005 10.8995 2.75 8 2.75C5.10051 2.75 2.75 5.10051 2.75 8V16C2.75 17.7949 4.20507 19.25 6 19.25C7.79493 19.25 9.25 17.7949 9.25 16V9C9.25 8.30964 8.69036 7.75 8 7.75C7.30964 7.75 6.75 8.30964 6.75 9V15C6.75 15.4142 6.41421 15.75 6 15.75C5.58579 15.75 5.25 15.4142 5.25 15V9C5.25 7.48122 6.48122 6.25 8 6.25C9.51878 6.25 10.75 7.48122 10.75 9V16C10.75 18.6234 8.62335 20.75 6 20.75C3.37665 20.75 1.25 18.6234 1.25 16V8Z" fill="#7966FF" stroke="#7966FF" stroke-linecap="round" stroke-linejoin="round"/>
</svg>
