<svg width="20" height="5" viewBox="0 0 20 5" fill="none" xmlns="http://www.w3.org/2000/svg">
<path d="M15.5555 2.22224C15.5555 3.44955 16.5505 4.44448 17.7778 4.44448C19.0051 4.44448 20 3.44955 20 2.22224C20 0.994931 19.0051 -4.34898e-08 17.7778 -9.71372e-08C16.5505 -1.50785e-07 15.5555 0.994931 15.5555 2.22224Z" fill="#A2AEBD"/>
<path d="M7.77818 2.22224C7.77818 3.44955 8.77311 4.44448 10.0004 4.44448C11.2277 4.44448 12.2227 3.44955 12.2227 2.22224C12.2227 0.994931 11.2277 -4.34898e-08 10.0004 -9.71372e-08C8.77311 -1.50785e-07 7.77818 0.994931 7.77818 2.22224Z" fill="#A2AEBD"/>
<path d="M0.000832461 2.22224C0.000832407 3.44955 0.995763 4.44448 2.22307 4.44448C3.45038 4.44448 4.44531 3.44955 4.44531 2.22224C4.44531 0.994931 3.45038 -4.34898e-08 2.22307 -9.71372e-08C0.995763 -1.50785e-07 0.000832514 0.994931 0.000832461 2.22224Z" fill="#A2AEBD"/>
</svg>
