<svg width="18" height="16" viewBox="0 0 18 16" fill="none" xmlns="http://www.w3.org/2000/svg">
<path d="M17.75 8C17.75 10.9294 15.3669 13.3125 12.4375 13.3125H11.5V15.0538C11.5 15.4494 11.0219 15.6469 10.7425 15.3675L7.75 12.375L10.7425 9.3825C11.0219 9.10313 11.5 9.30125 11.5 9.69625V11.4375H12.4375C14.3325 11.4375 15.875 9.89563 15.875 8C15.875 6.10438 14.3325 4.5625 12.4375 4.5625C11.92 4.5625 11.5 4.14313 11.5 3.625C11.5 3.10688 11.92 2.6875 12.4375 2.6875C15.3669 2.6875 17.75 5.07063 17.75 8Z" fill="#02C5DD"/>
<path d="M10.25 3.62531L7.2575 6.61781C6.97812 6.89718 6.5 6.69906 6.5 6.30406V4.56281H5.5625C3.6675 4.56281 2.125 6.10468 2.125 8.00031C2.125 9.89593 3.6675 11.4378 5.5625 11.4378C6.08 11.4378 6.5 11.8572 6.5 12.3753C6.5 12.8934 6.08 13.3128 5.5625 13.3128C2.63313 13.3128 0.25 10.9297 0.25 8.00031C0.25 5.07093 2.63313 2.68781 5.5625 2.68781H6.5V0.946556C6.5 0.550931 6.97812 0.35343 7.2575 0.632805L10.25 3.62531Z" fill="#02C5DD"/>
</svg>
