<svg width="24" height="24" viewBox="0 0 24 24" fill="none" xmlns="http://www.w3.org/2000/svg">
<rect width="24" height="24" rx="10" fill="#7966FF"/>
<path d="M11.898 7.007L12 7C12.1812 7.00001 12.3563 7.06564 12.4929 7.18477C12.6295 7.30389 12.7184 7.46845 12.743 7.648L12.75 7.75V11.25H16.25C16.4312 11.25 16.6063 11.3156 16.7429 11.4348C16.8795 11.5539 16.9684 11.7184 16.993 11.898L17 12C17 12.1812 16.9344 12.3563 16.8152 12.4929C16.6961 12.6295 16.5316 12.7184 16.352 12.743L16.25 12.75H12.75V16.25C12.75 16.4312 12.6844 16.6063 12.5652 16.7429C12.4461 16.8795 12.2816 16.9684 12.102 16.993L12 17C11.8188 17 11.6437 16.9344 11.5071 16.8152C11.3705 16.6961 11.2816 16.5316 11.257 16.352L11.25 16.25V12.75H7.75C7.56876 12.75 7.39366 12.6844 7.25707 12.5652C7.12048 12.4461 7.03165 12.2816 7.007 12.102L7 12C7.00001 11.8188 7.06564 11.6437 7.18477 11.5071C7.30389 11.3705 7.46845 11.2816 7.648 11.257L7.75 11.25H11.25V7.75C11.25 7.56876 11.3156 7.39366 11.4348 7.25707C11.5539 7.12048 11.7184 7.03165 11.898 7.007L12 7L11.898 7.007Z" fill="white"/>
</svg>
