<svg width="12" height="14" viewBox="0 0 12 14" fill="none" xmlns="http://www.w3.org/2000/svg">
<path d="M10.6716 2.34787C9.5037 1.09787 7.7862 0.333984 6 0.333984C4.2138 0.333984 2.4963 1.02843 1.32839 2.34787C0.366592 3.45898 -0.114308 4.84787 0.0230921 6.23676C0.0230921 6.51454 0.0917922 6.79232 0.160492 7.00065C0.778793 9.91732 3.939 12.4868 5.313 13.459C5.5191 13.5979 5.7252 13.6673 6 13.6673C6.2748 13.6673 6.4809 13.5979 6.687 13.459C7.9923 12.4868 11.2212 9.91732 11.8395 7.00065C11.9082 6.79232 11.9082 6.51454 11.9769 6.23676C12.1143 4.84787 11.6334 3.45898 10.6716 2.34787ZM6 8.3201C4.9695 8.3201 4.0764 7.48676 4.0764 6.37565C4.0764 5.26454 4.9008 4.43121 6 4.43121C7.0992 4.43121 7.9236 5.26454 7.9236 6.37565C7.9236 7.48676 7.0305 8.3201 6 8.3201Z" fill="#A2AEBD"/>
</svg>
