<svg width="76" height="76" viewBox="0 0 76 76" fill="none" xmlns="http://www.w3.org/2000/svg">
<g filter="url(#filter0_d_2260_46095)">
<circle cx="38" cy="38" r="28" fill="#7966FF"/>
<circle cx="38" cy="38" r="26.5" stroke="white" stroke-opacity="0.1" stroke-width="3"/>
</g>
<path d="M37.796 28.014L38 28C38.3625 28 38.7127 28.1313 38.9859 28.3695C39.259 28.6078 39.4367 28.9369 39.486 29.296L39.5 29.5V36.5H46.5C46.8625 36.5 47.2127 36.6313 47.4859 36.8695C47.759 37.1078 47.9367 37.4369 47.986 37.796L48 38C48 38.3625 47.8687 38.7127 47.6305 38.9859C47.3922 39.259 47.0631 39.4367 46.704 39.486L46.5 39.5H39.5V46.5C39.5 46.8625 39.3687 47.2127 39.1305 47.4859C38.8922 47.759 38.5631 47.9367 38.204 47.986L38 48C37.6375 48 37.2873 47.8687 37.0141 47.6305C36.741 47.3922 36.5633 47.0631 36.514 46.704L36.5 46.5V39.5H29.5C29.1375 39.5 28.7873 39.3687 28.5141 39.1305C28.241 38.8922 28.0633 38.5631 28.014 38.204L28 38C28 37.6375 28.1313 37.2873 28.3695 37.0141C28.6078 36.741 28.9369 36.5633 29.296 36.514L29.5 36.5H36.5V29.5C36.5 29.1375 36.6313 28.7873 36.8695 28.5141C37.1078 28.241 37.4369 28.0633 37.796 28.014L38 28L37.796 28.014Z" fill="white"/>
<defs>
<filter id="filter0_d_2260_46095" x="0" y="0" width="76" height="76" filterUnits="userSpaceOnUse" color-interpolation-filters="sRGB">
<feFlood flood-opacity="0" result="BackgroundImageFix"/>
<feColorMatrix in="SourceAlpha" type="matrix" values="0 0 0 0 0 0 0 0 0 0 0 0 0 0 0 0 0 0 127 0" result="hardAlpha"/>
<feOffset/>
<feGaussianBlur stdDeviation="5"/>
<feColorMatrix type="matrix" values="0 0 0 0 0.396078 0 0 0 0 0.4 0 0 0 0 0.913725 0 0 0 0.2 0"/>
<feBlend mode="normal" in2="BackgroundImageFix" result="effect1_dropShadow_2260_46095"/>
<feBlend mode="normal" in="SourceGraphic" in2="effect1_dropShadow_2260_46095" result="shape"/>
</filter>
</defs>
</svg>
