<svg width="18" height="18" viewBox="0 0 18 18" fill="none" xmlns="http://www.w3.org/2000/svg">
<path fill-rule="evenodd" clip-rule="evenodd" d="M9.27133 0.841711C9.40441 0.722261 9.58045 0.659648 9.76063 0.66768C13.5696 0.781704 16.753 3.54683 17.3299 7.24252C17.3336 7.26458 17.3336 7.28709 17.3299 7.30915C17.3424 7.48402 17.2833 7.65653 17.1657 7.78853C17.0482 7.92054 16.8818 8.00115 16.7036 8.01254L10.304 8.43458C10.0924 8.45334 9.88247 8.3837 9.72589 8.24276C9.5693 8.10182 9.48054 7.90264 9.4814 7.69417L9.05124 1.40809V1.30443C9.05907 1.12764 9.13826 0.961161 9.27133 0.841711ZM8.83239 10.0783L14.3792 9.72289L14.4169 9.7377C14.6551 9.74159 14.882 9.83818 15.0476 10.0062C15.2132 10.1742 15.3039 10.3999 15.2999 10.6336C15.0813 13.8187 12.7462 16.4799 9.56832 17.1655C6.3905 17.8511 3.13283 16.3965 1.5725 13.5952C1.1137 12.7884 0.823768 11.8998 0.719727 10.9816C0.679375 10.7095 0.661708 10.4346 0.666901 10.1597C0.677418 6.77288 3.08875 3.84955 6.46274 3.13324C6.87118 3.05679 7.2807 3.26073 7.4589 3.62932C7.50326 3.6962 7.53876 3.76836 7.56455 3.84404C7.6278 4.82033 7.6934 5.78737 7.75873 6.75034C7.81032 7.51089 7.86175 8.2689 7.9117 9.0269C7.90912 9.20546 7.93718 9.38317 7.99471 9.55259C8.13014 9.88594 8.46715 10.0974 8.83239 10.0783Z" fill="#7966FF"/>
</svg>
