<svg width="74" height="74" viewBox="0 0 74 74" fill="none" xmlns="http://www.w3.org/2000/svg">
<g filter="url(#filter0_d_1018_23740)">
<circle cx="37" cy="33" r="27" fill="white"/>
<circle cx="37" cy="33" r="26.5" stroke="#DBDFEF" stroke-opacity="0.5"/>
</g>
<path d="M32.416 32.2969H36.296V28.0547H32.9554C32.6443 29.3605 32.46 30.7981 32.416 32.2969Z" fill="#F763A1"/>
<path d="M37.7031 32.2969H41.5832C41.5391 30.7981 41.3549 29.3605 41.0438 28.0547H37.7031V32.2969Z" fill="#F763A1"/>
<path d="M42.9892 32.2969H48.9785C48.8932 30.8131 48.539 29.3802 47.9391 28.0547H42.4844C42.7757 29.3787 42.9477 30.8128 42.9892 32.2969Z" fill="#F763A1"/>
<path d="M31.5137 28.0547H26.0589C25.4591 29.3802 25.1048 30.8131 25.0195 32.2969H31.0088C31.0503 30.8128 31.2224 29.3787 31.5137 28.0547V28.0547Z" fill="#F763A1"/>
<path d="M36.2983 22.5454C35.4249 22.8883 34.5754 23.854 33.8926 25.3102C33.6964 25.7286 33.5186 26.1763 33.3594 26.6482H36.2983V22.5454Z" fill="#F763A1"/>
<path d="M32.6181 24.7134C33.7409 22.3188 35.2971 21 37.0002 21C33.7948 21 30.7814 22.2482 28.5148 24.5147C27.8614 25.1682 27.2931 25.884 26.8145 26.6484H31.8822C32.0925 25.9589 32.3383 25.3102 32.6181 24.7134Z" fill="#F763A1"/>
<path d="M41.3821 24.7134C41.6619 25.3101 41.9076 25.9589 42.1179 26.6484H47.1857C46.707 25.884 46.1387 25.1682 45.4852 24.5147C43.2188 22.2482 40.2053 21 37 21C38.703 21 40.2593 22.3188 41.3821 24.7134V24.7134Z" fill="#F763A1"/>
<path d="M37.7031 22.5454V26.6482H40.642C40.4828 26.1763 40.305 25.7286 40.1088 25.3102C39.4261 23.854 38.5766 22.8883 37.7031 22.5454Z" fill="#F763A1"/>
<path d="M25 33.7031V44.2969C25 44.6852 25.3148 45 25.7031 45H48.2969C48.6852 45 49 44.6852 49 44.2969V33.7031H25ZM31.4394 41.9713C31.1693 42.0556 30.8851 41.9516 30.7152 41.7062L28.9359 39.1298V41.461C28.9359 41.7846 28.6736 42.0469 28.35 42.0469C28.0264 42.0469 27.764 41.7846 27.764 41.461V37.2502C27.764 36.9937 27.9308 36.7671 28.1756 36.6907C28.4204 36.6143 28.6863 36.7062 28.8321 36.9172L30.7039 39.6277L30.6809 37.2479C30.6777 36.9243 30.9376 36.6595 31.2611 36.6563H31.2669C31.5879 36.6563 31.8496 36.915 31.8527 37.2366L31.8921 41.3132V41.3189C31.8922 41.6293 31.7144 41.8854 31.4394 41.9713V41.9713ZM34.9452 38.7657C35.2688 38.7657 35.5312 39.028 35.5312 39.3517C35.5312 39.6753 35.2688 39.9376 34.9452 39.9376H33.8846V40.8751H35.0763C35.3999 40.8751 35.6622 41.1375 35.6622 41.461C35.6622 41.7846 35.3999 42.047 35.0763 42.047H33.2987C32.9751 42.047 32.7128 41.7846 32.7128 41.461V37.2423C32.7128 36.9187 32.9751 36.6563 33.2987 36.6563H35.0763C35.3999 36.6563 35.6622 36.9187 35.6622 37.2423C35.6622 37.5659 35.3999 37.8282 35.0763 37.8282H33.8846V38.7657H34.9452ZM42.0631 37.3644L41.2378 41.5108C41.2328 41.536 41.2262 41.5608 41.2179 41.5851C41.1246 41.8594 40.8673 42.045 40.5775 42.0469C40.576 42.0469 40.5745 42.0469 40.573 42.0469C40.2851 42.0469 40.0276 41.8653 39.9311 41.5937C39.9283 41.5859 39.9258 41.5781 39.9233 41.5702L39.203 39.2321L38.4795 41.5697C38.4779 41.5748 38.4762 41.58 38.4745 41.5851C38.3812 41.8593 38.1239 42.0449 37.8343 42.0469C37.8327 42.0469 37.8312 42.0469 37.8295 42.0469C37.5418 42.0469 37.2843 41.8654 37.1878 41.594C37.1782 41.567 37.1706 41.5394 37.165 41.5113L36.3431 37.3559C36.2803 37.0385 36.4868 36.7302 36.8043 36.6674C37.1216 36.6046 37.4299 36.811 37.4927 37.1285L37.9352 39.3651L38.6317 37.1146C38.6762 36.9162 38.8225 36.7463 39.0308 36.6822C39.34 36.5869 39.6679 36.7604 39.7632 37.0697L40.4702 39.3646L40.9138 37.1356C40.977 36.8182 41.2855 36.6123 41.6029 36.6753C41.9201 36.7385 42.1262 37.047 42.0631 37.3644V37.3644ZM46.2926 40.6497C46.148 41.4593 45.3772 42.047 44.4597 42.047C43.7204 42.047 43.0263 41.7489 42.5553 41.2291C42.338 40.9893 42.3563 40.6188 42.5961 40.4015C42.8359 40.1842 43.2064 40.2025 43.4237 40.4423C43.6693 40.7133 44.0566 40.8751 44.4597 40.8751C44.8367 40.8751 45.1011 40.6558 45.139 40.4437C45.1885 40.1662 44.7567 39.9839 44.6232 39.9346C43.9671 39.6926 43.3844 39.4333 43.36 39.4223C43.3317 39.4097 43.3045 39.395 43.2787 39.3781C42.8146 39.0755 42.5754 38.5449 42.6546 37.9933C42.7388 37.407 43.1665 36.9297 43.771 36.7476C44.8866 36.4114 45.815 37.1059 45.9506 37.2143C46.088 37.3216 46.1766 37.4883 46.1766 37.676C46.1766 37.9996 45.9143 38.262 45.5906 38.262C45.4468 38.262 45.3152 38.2099 45.2132 38.124L45.2127 38.1246L45.2164 38.1277C45.2112 38.1233 44.6778 37.6982 44.109 37.8697C43.8705 37.9415 43.8236 38.0965 43.8145 38.1599C43.8085 38.2021 43.8053 38.3021 43.891 38.3758C44.047 38.4439 44.5207 38.6478 45.0287 38.8352C46.1271 39.2403 46.4018 40.0381 46.2926 40.6497V40.6497Z" fill="#F763A1"/>
<defs>
<filter id="filter0_d_1018_23740" x="0" y="0" width="74" height="74" filterUnits="userSpaceOnUse" color-interpolation-filters="sRGB">
<feFlood flood-opacity="0" result="BackgroundImageFix"/>
<feColorMatrix in="SourceAlpha" type="matrix" values="0 0 0 0 0 0 0 0 0 0 0 0 0 0 0 0 0 0 127 0" result="hardAlpha"/>
<feOffset dy="4"/>
<feGaussianBlur stdDeviation="5"/>
<feColorMatrix type="matrix" values="0 0 0 0 0.396078 0 0 0 0 0.4 0 0 0 0 0.913725 0 0 0 0.05 0"/>
<feBlend mode="normal" in2="BackgroundImageFix" result="effect1_dropShadow_1018_23740"/>
<feBlend mode="normal" in="SourceGraphic" in2="effect1_dropShadow_1018_23740" result="shape"/>
</filter>
</defs>
</svg>
