<svg width="24" height="24" viewBox="0 0 24 24" fill="none" xmlns="http://www.w3.org/2000/svg">
<path d="M0 12C0 5.37258 5.37258 0 12 0C18.6274 0 24 5.37258 24 12C24 18.6274 18.6274 24 12 24C5.37258 24 0 18.6274 0 12Z" fill="#7966FF"/>
<path fill-rule="evenodd" clip-rule="evenodd" d="M18.6666 11.333H12.6666V5.33301C17.1363 5.97564 18.4555 9.46937 18.6666 11.333ZM5.33331 12.3382C5.33331 8.96081 7.99629 6.1909 11.333 5.99967V12.6636H18C17.8095 16.0406 15.0468 18.6663 11.6719 18.6663C8.17397 18.6663 5.33331 15.8329 5.33331 12.3382Z" fill="white"/>
</svg>
