<svg width="56" height="56" viewBox="0 0 56 56" fill="none" xmlns="http://www.w3.org/2000/svg">
<path d="M0 18C0 8.05888 8.05887 0 18 0H38C47.9411 0 56 8.05887 56 18V38C56 47.9411 47.9411 56 38 56H18C8.05888 56 0 47.9411 0 38V18Z" fill="#7966FF"/>
<g clip-path="url(#clip0_2851_16327)">
<path d="M42.7021 33.1147V22.8856C43.7904 22.45 44.5615 21.3854 44.5615 20.1434C44.5615 18.515 43.2367 17.1903 41.6084 17.1903C40.919 17.1903 40.2846 17.4283 39.7815 17.8257L30.9223 12.7108C30.9423 12.5722 30.9532 12.4306 30.9532 12.2866C30.9532 10.6582 29.6285 9.3335 28.0001 9.3335C26.3717 9.3335 25.047 10.6582 25.047 12.2866C25.047 12.4307 25.0578 12.5722 25.0779 12.7108L16.2186 17.8257C15.7155 17.4283 15.0811 17.1903 14.3917 17.1903C12.7633 17.1903 11.4386 18.515 11.4386 20.1434C11.4386 21.3854 12.2097 22.45 13.298 22.8856V33.1147C12.2097 33.5504 11.4386 34.6149 11.4386 35.8569C11.4386 37.4853 12.7633 38.8101 14.3917 38.8101C15.0811 38.8101 15.7155 38.572 16.2186 38.1746L25.0779 43.2895C25.0578 43.4282 25.047 43.5697 25.047 43.7137C25.047 45.3421 26.3717 46.6668 28.0001 46.6668C29.6285 46.6668 30.9532 45.3421 30.9532 43.7137C30.9532 43.5696 30.9423 43.4281 30.9223 43.2895L39.7816 38.1746C40.2846 38.572 40.9191 38.8101 41.6084 38.8101C43.2368 38.8101 44.5616 37.4853 44.5616 35.8569C44.5615 34.6149 43.7904 33.5503 42.7021 33.1147ZM15.4855 33.1146V22.8856C15.751 22.7794 15.9975 22.6358 16.2186 22.461L23.3947 26.6042C23.2605 27.0463 23.1876 27.5148 23.1876 28.0002C23.1876 28.4855 23.2605 28.9541 23.3947 29.3961L16.2186 33.5392C15.9975 33.3646 15.751 33.2209 15.4855 33.1146ZM26.9063 40.9714C26.6408 41.0777 26.3944 41.2213 26.1732 41.396L17.3139 36.281C17.334 36.1424 17.3448 36.0009 17.3448 35.8569C17.3449 35.7128 17.334 35.5713 17.314 35.4327L24.4913 31.2888C25.1308 31.9707 25.9659 32.4662 26.9063 32.6857V40.9714ZM26.9063 23.3145C25.9659 23.534 25.1308 24.0296 24.4913 24.7114L17.314 20.5675C17.3341 20.4289 17.3449 20.2874 17.3449 20.1433C17.3449 19.9992 17.3341 19.8577 17.314 19.7192L26.1733 14.6042C26.3944 14.779 26.6408 14.9226 26.9063 15.0289V23.3145ZM29.0938 15.0289C29.3593 14.9226 29.6058 14.7789 29.8269 14.6043L38.6862 19.7192C38.6662 19.8578 38.6553 19.9993 38.6553 20.1434C38.6553 20.2875 38.6662 20.429 38.6862 20.5676L31.5088 24.7115C30.8694 24.0296 30.0343 23.5341 29.0938 23.3146V15.0289ZM38.6862 36.2812L29.8269 41.396C29.6058 41.2213 29.3593 41.0777 29.0938 40.9715V32.6858C30.0343 32.4663 30.8694 31.9708 31.5088 31.2889L38.6862 35.4328C38.6661 35.5714 38.6552 35.7129 38.6552 35.8569C38.6552 36.001 38.6661 36.1425 38.6862 36.2812ZM40.5147 33.1148C40.2491 33.2209 40.0027 33.3646 39.7816 33.5393L32.6054 29.3961C32.7397 28.9541 32.8126 28.4855 32.8126 28.0002C32.8126 27.5148 32.7397 27.0463 32.6054 26.6042L39.7816 22.4611C40.0027 22.6358 40.2491 22.7794 40.5147 22.8857V33.1148Z" fill="white"/>
</g>
<defs>
<clipPath id="clip0_2851_16327">
<rect width="37.3333" height="37.3333" fill="white" transform="translate(9.33337 9.3335)"/>
</clipPath>
</defs>
</svg>
