<svg width="54" height="54" viewBox="0 0 54 54" fill="none" xmlns="http://www.w3.org/2000/svg">
<path fill-rule="evenodd" clip-rule="evenodd" d="M0.333496 27.0161C0.333496 12.2973 12.3026 0.333984 27.0002 0.333984C41.6977 0.333984 53.6668 12.2973 53.6668 27.0161C53.6668 41.704 41.6977 53.6673 27.0002 53.6673C12.3026 53.6673 0.333496 41.704 0.333496 27.0161ZM36.7814 29.7149C37.0645 29.4319 37.4249 28.9945 37.5021 28.8916C37.9139 28.3513 38.1199 27.6824 38.1199 27.0161C38.1199 26.2674 37.8882 25.5728 37.4506 25.0068C37.4147 24.9709 37.3445 24.8945 37.253 24.7949C37.0818 24.6085 36.836 24.341 36.6012 24.1063C34.4905 21.8423 28.9821 18.1375 26.0993 17.0055C25.6617 16.828 24.5549 16.4395 23.9628 16.4137C23.3966 16.4137 22.856 16.5424 22.3412 16.7997C21.6977 17.1598 21.1829 17.7258 20.8998 18.3948C20.7196 18.8579 20.4365 20.2472 20.4365 20.2729C20.1533 21.7908 19.9989 24.2607 19.9989 26.9878C19.9989 29.5888 20.1533 31.9532 20.385 33.4969C20.3913 33.5032 20.4135 33.6136 20.4479 33.7851C20.5525 34.3066 20.7703 35.3928 21.0027 35.8381C21.569 36.9186 22.6758 37.5876 23.8599 37.5876H23.9628C24.735 37.5618 26.3567 36.8929 26.3567 36.8672C29.0851 35.7352 34.4648 32.2105 36.6269 29.8693L36.7814 29.7149Z" fill="#7966FF"/>
</svg>
