<svg width="16" height="16" viewBox="0 0 16 16" fill="none" xmlns="http://www.w3.org/2000/svg">
<path d="M15.3771 10.353C15.1458 11.5822 14.5292 12.7345 13.6042 13.5795C12.6792 14.5013 11.6 15.0391 10.3667 15.3464C9.98125 15.4232 9.51875 15.5 9.13333 15.5C8.28542 15.5 7.51458 15.3464 6.74375 15.0391C5.5875 14.5782 4.58542 13.7331 3.89167 12.7345C3.35208 11.9663 2.96667 11.0444 2.88958 10.0457C2.8125 9.66164 2.96667 9.35435 3.19792 9.04707C3.35208 8.73979 3.7375 8.58615 4.12292 8.58615H7.82292C8.20833 8.58615 8.51667 8.27886 8.51667 7.89476V4.13055C8.51667 3.74645 8.67083 3.36235 8.97917 3.13188C9.21042 2.90142 9.59583 2.74778 9.98125 2.8246C10.9062 2.97824 11.8313 3.36235 12.6792 3.82327C13.7583 4.51466 14.5292 5.51332 14.9917 6.66563C15.5313 7.81794 15.6083 9.12389 15.3771 10.353Z" fill="white"/>
<path d="M7.05208 1.82593V6.12789C7.05208 6.58881 6.66667 6.97291 6.20417 6.97291H1.81042C1.425 6.97291 1.03958 6.81927 0.808333 6.51199C0.577083 6.28153 0.5 5.89743 0.5 5.59014C0.654167 4.28419 1.27083 3.13188 2.19583 2.21004C3.12083 1.28819 4.27708 0.673625 5.5875 0.519983C5.89583 0.443163 6.28125 0.596804 6.58958 0.827266C6.82083 1.05773 7.05208 1.44183 7.05208 1.82593Z" fill="white"/>
</svg>
