<svg width="74" height="74" viewBox="0 0 74 74" fill="none" xmlns="http://www.w3.org/2000/svg">
<g filter="url(#filter0_d_1018_23786)">
<circle cx="37" cy="33" r="27" fill="white"/>
<circle cx="37" cy="33" r="26.5" stroke="#DBDFEF" stroke-opacity="0.5"/>
</g>
<path d="M28.0215 22H46.9785C48.0932 22 49 22.9068 49 24.0215V27.4355H26V24.0215C26 22.9068 26.9068 22 28.0215 22ZM45.6309 26.043C46.003 26.043 46.3047 25.7413 46.3047 25.3691C46.3047 24.9969 46.003 24.6953 45.6309 24.6953C45.2587 24.6953 44.957 24.9969 44.957 25.3691C44.957 25.7413 45.2587 26.043 45.6309 26.043ZM42.9355 26.043C43.3077 26.043 43.6094 25.7413 43.6094 25.3691C43.6094 24.9969 43.3077 24.6953 42.9355 24.6953C42.5634 24.6953 42.2617 24.9969 42.2617 25.3691C42.2617 25.7413 42.5634 26.043 42.9355 26.043ZM40.2402 26.043C40.6124 26.043 40.9141 25.7413 40.9141 25.3691C40.9141 24.9969 40.6124 24.6953 40.2402 24.6953C39.8681 24.6953 39.5664 24.9969 39.5664 25.3691C39.5664 25.7413 39.8681 26.043 40.2402 26.043Z" fill="#7367F0"/>
<path d="M49 28.7832V42.9785C49 44.0932 48.0932 45 46.9785 45H28.0215C26.9068 45 26 44.0932 26 42.9785V28.7832H49ZM46.3047 30.8496C46.3047 30.4772 46.0033 30.1758 45.6309 30.1758H38.8926C38.5201 30.1758 38.2188 30.4772 38.2188 30.8496V36.2402C38.2188 36.6127 38.5201 36.9141 38.8926 36.9141H45.6309C46.0033 36.9141 46.3047 36.6127 46.3047 36.2402V30.8496ZM29.3691 42.3047H45.6309C46.0033 42.3047 46.3047 42.0033 46.3047 41.6309C46.3047 41.2584 46.0033 40.957 45.6309 40.957H29.3691C28.9967 40.957 28.6953 41.2584 28.6953 41.6309C28.6953 42.0033 28.9967 42.3047 29.3691 42.3047ZM29.3691 39.6094H45.6309C46.0033 39.6094 46.3047 39.308 46.3047 38.9355C46.3047 38.5631 46.0033 38.2617 45.6309 38.2617H29.3691C28.9967 38.2617 28.6953 38.5631 28.6953 38.9355C28.6953 39.308 28.9967 39.6094 29.3691 39.6094ZM29.3691 36.9141H36.1973C36.5697 36.9141 36.8711 36.6127 36.8711 36.2402C36.8711 35.8678 36.5697 35.5664 36.1973 35.5664H29.3691C28.9967 35.5664 28.6953 35.8678 28.6953 36.2402C28.6953 36.6127 28.9967 36.9141 29.3691 36.9141ZM29.3691 34.2188H36.1973C36.5697 34.2188 36.8711 33.9174 36.8711 33.5449C36.8711 33.1725 36.5697 32.8711 36.1973 32.8711H29.3691C28.9967 32.8711 28.6953 33.1725 28.6953 33.5449C28.6953 33.9174 28.9967 34.2188 29.3691 34.2188Z" fill="#7367F0"/>
<path d="M39.5664 31.5234H44.957V35.5664H39.5664V31.5234Z" fill="#7367F0"/>
<defs>
<filter id="filter0_d_1018_23786" x="0" y="0" width="74" height="74" filterUnits="userSpaceOnUse" color-interpolation-filters="sRGB">
<feFlood flood-opacity="0" result="BackgroundImageFix"/>
<feColorMatrix in="SourceAlpha" type="matrix" values="0 0 0 0 0 0 0 0 0 0 0 0 0 0 0 0 0 0 127 0" result="hardAlpha"/>
<feOffset dy="4"/>
<feGaussianBlur stdDeviation="5"/>
<feColorMatrix type="matrix" values="0 0 0 0 0.396078 0 0 0 0 0.4 0 0 0 0 0.913725 0 0 0 0.05 0"/>
<feBlend mode="normal" in2="BackgroundImageFix" result="effect1_dropShadow_1018_23786"/>
<feBlend mode="normal" in="SourceGraphic" in2="effect1_dropShadow_1018_23786" result="shape"/>
</filter>
</defs>
</svg>
