<svg width="24" height="25" viewBox="0 0 24 25" fill="none" xmlns="http://www.w3.org/2000/svg">
<rect y="0.148438" width="24" height="24" rx="12" fill="#7966FF"/>
<g clip-path="url(#clip0_2432_14102)">
<path d="M18.301 14.3404V9.9565C18.7674 9.76978 19.0979 9.31353 19.0979 8.78125C19.0979 8.08337 18.5301 7.51562 17.8322 7.51562C17.5368 7.51562 17.2649 7.61766 17.0493 7.78797L13.2525 5.59584C13.2611 5.53644 13.2657 5.47578 13.2657 5.41406C13.2657 4.71619 12.698 4.14844 12.0001 4.14844C11.3022 4.14844 10.7345 4.71619 10.7345 5.41406C10.7345 5.47581 10.7392 5.53647 10.7477 5.59584L6.95091 7.78797C6.73531 7.61766 6.46341 7.51562 6.16797 7.51562C5.47009 7.51562 4.90234 8.08337 4.90234 8.78125C4.90234 9.31353 5.23281 9.76981 5.69922 9.9565V14.3404C5.23281 14.5271 4.90234 14.9833 4.90234 15.5156C4.90234 16.2135 5.47009 16.7812 6.16797 16.7812C6.46341 16.7812 6.73531 16.6792 6.95091 16.5089L10.7477 18.701C10.7392 18.7604 10.7345 18.8211 10.7345 18.8828C10.7345 19.5807 11.3022 20.1484 12.0001 20.1484C12.698 20.1484 13.2657 19.5807 13.2657 18.8828C13.2657 18.8211 13.2611 18.7604 13.2525 18.701L17.0493 16.5089C17.2649 16.6792 17.5368 16.7812 17.8323 16.7812C18.5302 16.7812 19.0979 16.2135 19.0979 15.5156C19.0979 14.9833 18.7674 14.5271 18.301 14.3404ZM6.63672 14.3403V9.9565C6.75053 9.91097 6.85616 9.84941 6.95091 9.77453L10.0264 11.5502C9.96887 11.7396 9.93762 11.9404 9.93762 12.1484C9.93762 12.3564 9.96887 12.5573 10.0264 12.7467L6.95091 14.5223C6.85616 14.4475 6.75053 14.3859 6.63672 14.3403ZM11.5314 17.7075C11.4176 17.7531 11.312 17.8147 11.2172 17.8895L7.42034 15.6974C7.42894 15.638 7.43359 15.5773 7.43359 15.5156C7.43362 15.4539 7.42894 15.3932 7.42037 15.3338L10.4964 13.5579C10.7704 13.8501 11.1283 14.0625 11.5314 14.1565V17.7075ZM11.5314 10.1403C11.1283 10.2344 10.7704 10.4468 10.4964 10.739L7.42037 8.96303C7.42897 8.90363 7.43362 8.84297 7.43362 8.78122C7.43362 8.71947 7.42897 8.65881 7.42037 8.59944L11.2172 6.40731C11.312 6.48222 11.4176 6.54378 11.5314 6.58931V10.1403ZM12.4689 6.58931C12.5827 6.54375 12.6883 6.48219 12.7831 6.40734L16.5799 8.59944C16.5713 8.65884 16.5667 8.7195 16.5667 8.78125C16.5667 8.843 16.5713 8.90366 16.5799 8.96306L13.5039 10.739C13.2298 10.4468 12.8719 10.2344 12.4689 10.1403V6.58931ZM16.5799 15.6974L12.7831 17.8895C12.6883 17.8147 12.5827 17.7531 12.4689 17.7076V14.1566C12.8719 14.0625 13.2298 13.8501 13.5039 13.5579L16.5799 15.3338C16.5713 15.3933 16.5666 15.4539 16.5666 15.5156C16.5666 15.5774 16.5713 15.638 16.5799 15.6974ZM17.3635 14.3404C17.2497 14.3859 17.1441 14.4475 17.0493 14.5223L13.9738 12.7467C14.0314 12.5573 14.0626 12.3564 14.0626 12.1484C14.0626 11.9404 14.0314 11.7396 13.9738 11.5502L17.0493 9.77456C17.1441 9.84941 17.2497 9.91097 17.3635 9.95653V14.3404Z" fill="white"/>
</g>
<defs>
<clipPath id="clip0_2432_14102">
<rect width="16" height="16" fill="white" transform="translate(4 4.14844)"/>
</clipPath>
</defs>
</svg>
