<svg width="14" height="14" viewBox="0 0 14 14" fill="none" xmlns="http://www.w3.org/2000/svg">
<path fill-rule="evenodd" clip-rule="evenodd" d="M6.13689 1.34664C5.69 1.34664 5.30981 1.65718 5.20309 2.07575H8.79155C8.68483 1.65718 8.30464 1.34664 7.85775 1.34664H6.13689ZM9.80539 2.07575H11.126C12.5267 2.07575 13.6673 3.23017 13.6673 4.64789C13.6673 4.64789 13.6273 5.24805 13.614 6.08383C13.6126 6.14999 13.5806 6.2148 13.5279 6.25395C13.2071 6.49091 12.9136 6.68669 12.8869 6.7002C11.7797 7.44281 10.4931 7.96534 9.12238 8.22525C9.033 8.2428 8.94496 8.19622 8.8996 8.11656C8.51541 7.45091 7.79772 7.01749 6.99732 7.01749C6.20225 7.01749 5.47789 7.44618 5.08236 8.11251C5.03634 8.19082 4.94963 8.23605 4.86091 8.21918C3.50157 7.95859 2.21492 7.43673 1.11437 6.70695L0.474054 6.26138C0.420694 6.22762 0.387344 6.16687 0.387344 6.09936C0.367334 5.75505 0.333984 4.64789 0.333984 4.64789C0.333984 3.23017 1.47455 2.07575 2.87526 2.07575H4.18925C4.31598 1.09685 5.13639 0.333984 6.13689 0.333984H7.85775C8.85825 0.333984 9.67866 1.09685 9.80539 2.07575ZM13.4405 7.54414L13.4139 7.55764C12.0665 8.46228 10.4457 9.06312 8.74486 9.31291C8.50474 9.34666 8.26462 9.19139 8.19792 8.94835C8.05118 8.39477 7.57761 8.03021 7.01066 8.03021H7.00399H6.99065C6.4237 8.03021 5.95013 8.39477 5.80339 8.94835C5.73669 9.19139 5.49657 9.34666 5.25645 9.31291C3.5556 9.06312 1.93478 8.46228 0.587444 7.55764C0.580774 7.55089 0.514074 7.51039 0.460714 7.54414C0.400684 7.5779 0.400684 7.65891 0.400684 7.65891L0.447374 11.1019C0.447374 12.5196 1.58127 13.6673 2.98198 13.6673H11.0127C12.4134 13.6673 13.5473 12.5196 13.5473 11.1019L13.6006 7.65891C13.6006 7.65891 13.6006 7.5779 13.5406 7.54414C13.5072 7.52389 13.4672 7.53064 13.4405 7.54414ZM7.49757 10.3728C7.49757 10.6564 7.27746 10.8791 6.99732 10.8791C6.72385 10.8791 6.49707 10.6564 6.49707 10.3728V9.50194C6.49707 9.22515 6.72385 8.99561 6.99732 8.99561C7.27746 8.99561 7.49757 9.22515 7.49757 9.50194V10.3728Z" fill="white"/>
</svg>
