<svg width="18" height="17" viewBox="0 0 18 17" fill="none" xmlns="http://www.w3.org/2000/svg">
<path fill-rule="evenodd" clip-rule="evenodd" d="M5.39102 0.240234H12.616C15.441 0.240234 17.3327 2.22357 17.3327 5.17357V11.9827C17.3327 14.9244 15.441 16.9069 12.616 16.9069H5.39102C2.56602 16.9069 0.666016 14.9244 0.666016 11.9827V5.17357C0.666016 2.22357 2.56602 0.240234 5.39102 0.240234ZM11.5077 11.0736C11.791 10.7911 11.791 10.3327 11.5077 10.0494L10.0243 8.56607L11.5077 7.0819C11.791 6.7994 11.791 6.33273 11.5077 6.0494C11.2243 5.76523 10.766 5.76523 10.4743 6.0494L8.99935 7.5319L7.51602 6.0494C7.22435 5.76523 6.76602 5.76523 6.48268 6.0494C6.19935 6.33273 6.19935 6.7994 6.48268 7.0819L7.96602 8.56607L6.48268 10.0411C6.19935 10.3327 6.19935 10.7911 6.48268 11.0736C6.62435 11.2152 6.81602 11.2911 6.99935 11.2911C7.19102 11.2911 7.37435 11.2152 7.51602 11.0736L8.99935 9.5994L10.4827 11.0736C10.6243 11.2244 10.8077 11.2911 10.991 11.2911C11.1827 11.2911 11.366 11.2152 11.5077 11.0736Z" fill="#A2AEBD"/>
</svg>
