<svg width="18" height="18" viewBox="0 0 18 18" fill="none" xmlns="http://www.w3.org/2000/svg">
<path fill-rule="evenodd" clip-rule="evenodd" d="M10.9626 0.6736C10.7767 0.646952 10.5899 0.701914 10.4414 0.820166C10.2887 0.940084 10.1932 1.1133 10.1725 1.30733C10.1285 1.69956 10.4115 2.05432 10.8032 2.09846C13.5046 2.39991 15.6043 4.5043 15.908 7.21411C15.9487 7.57719 16.2533 7.85117 16.6168 7.85117C16.6442 7.85117 16.6707 7.8495 16.6981 7.84617C16.8882 7.82536 17.0575 7.73125 17.177 7.58136C17.2957 7.43146 17.3496 7.24492 17.328 7.05422C16.9496 3.67321 14.3329 1.04918 10.9626 0.6736ZM11.0144 3.57527C10.6177 3.50199 10.2534 3.75515 10.1779 4.14238C10.1023 4.52962 10.3563 4.90769 10.7422 4.98347C11.9041 5.20998 12.8012 6.10937 13.0286 7.27523V7.27607C13.0934 7.61167 13.3888 7.85567 13.7291 7.85567C13.7747 7.85567 13.8204 7.8515 13.8669 7.84318C14.2528 7.76573 14.5067 7.38849 14.4312 7.00042C14.0918 5.25912 12.7514 3.91421 11.0144 3.57527ZM12.3327 11.5758C12.709 11.3588 13.1339 11.1138 13.6699 11.2279C14.1554 11.3303 15.8103 12.6735 16.2634 13.139C16.5605 13.4438 16.7257 13.7586 16.7514 14.0734C16.7962 15.3084 15.1181 16.7182 14.8127 16.894C14.4069 17.1863 13.9347 17.3337 13.4043 17.3337C12.8624 17.3337 12.2582 17.1796 11.5993 16.8723C8.02398 15.38 2.56229 10.0262 1.11823 6.47861C0.519032 5.15785 0.514882 4.0686 1.10827 3.25C1.3448 2.86609 2.69342 1.26136 3.90095 1.31216C4.22213 1.33964 4.53418 1.50453 4.84042 1.80432C5.30351 2.25818 6.61312 3.91787 6.71437 4.40504C6.82641 4.94633 6.58075 5.37687 6.36249 5.75494C6.31593 5.83622 6.2532 5.93267 6.18449 6.03833C5.92368 6.43935 5.57655 6.97312 5.69938 7.31387C6.57992 9.47572 8.61405 11.3619 10.7768 12.248C11.1113 12.3695 11.6447 12.0199 12.0445 11.758C12.1486 11.6897 12.2437 11.6274 12.3238 11.5809L12.3327 11.5758Z" fill="#A2AEBD"/>
</svg>
