<svg width="56" height="56" viewBox="0 0 56 56" fill="none" xmlns="http://www.w3.org/2000/svg">
<circle cx="28" cy="28" r="28" fill="white"/>
<g clip-path="url(#clip0_8502_113141)">
<path fill-rule="evenodd" clip-rule="evenodd" d="M23.2483 17.8022H32.7517C38.9371 17.8022 43.9999 22.8681 43.9999 29.061V29.5487C43.9999 35.7417 38.937 40.8075 32.7517 40.8075H23.2483H21.0015C20.7606 40.8075 20.7879 40.7984 20.5744 40.908L16.0755 43.2226C15.8346 43.3121 15.7177 43.2446 15.7306 42.9979L15.9916 38.1897C15.9971 38.1513 16.0062 38.1458 15.9806 38.1239C13.5496 36.0541 12 32.9741 12 29.5487V29.061C12 22.8681 17.0611 17.8022 23.2483 17.8022Z" fill="#8DCAFC"/>
<path fill-rule="evenodd" clip-rule="evenodd" d="M38.5607 14.9136L31.9902 28.7482L33.8519 30.4618L36.2282 30.765L42.7987 16.9304L38.5607 14.9136Z" fill="#FB8627"/>
<path fill-rule="evenodd" clip-rule="evenodd" d="M38.2559 15.5566L42.4938 17.5734L43.4502 15.5584C43.7969 14.8277 43.4192 13.9143 42.6106 13.5288L41.9627 13.2218L41.3147 12.9131C40.5062 12.5277 39.559 12.8108 39.2122 13.5415L38.2559 15.5566Z" fill="#FE636E"/>
<path fill-rule="evenodd" clip-rule="evenodd" d="M34.116 32.7272L33.1176 31.5781L31.8053 31.6274L31.6191 34.5047C31.6228 34.7422 31.8181 34.8353 32.0043 34.6892L34.116 32.7272Z" fill="#9C9C9C"/>
<path fill-rule="evenodd" clip-rule="evenodd" d="M41.2219 12.8711C41.9684 13.2803 42.306 14.1517 41.972 14.855L41.0156 16.8682L42.494 17.5734L43.4504 15.5584C43.7971 14.8277 43.4194 13.9143 42.6108 13.5288L41.9629 13.2218L41.3149 12.9131C41.2839 12.8985 41.2529 12.8838 41.2219 12.8711Z" fill="#F92C3D"/>
<path fill-rule="evenodd" clip-rule="evenodd" d="M41.0155 16.8682L34.748 30.0615L36.2282 30.7649L42.4939 17.5733L41.0155 16.8682Z" fill="#F2671F"/>
<path fill-rule="evenodd" clip-rule="evenodd" d="M34.116 32.7268L32.6376 32.0234L31.725 32.8711L31.6191 34.5043C31.6228 34.7418 31.8181 34.8349 32.0043 34.6888L34.116 32.7268Z" fill="#838383"/>
<path fill-rule="evenodd" clip-rule="evenodd" d="M36.2288 30.7649L31.9908 28.748L31.8047 31.6271L34.1153 32.7269L36.2288 30.7649Z" fill="#FCD79F"/>
<path fill-rule="evenodd" clip-rule="evenodd" d="M36.2286 30.7648L34.7484 30.0615L32.6367 32.0235L34.1151 32.7268L36.2286 30.7648Z" fill="#FAC574"/>
<path fill-rule="evenodd" clip-rule="evenodd" d="M27.0508 17.8023C30.3616 17.8023 33.3475 19.2528 35.4117 21.5491L36.8262 18.5714C35.5614 18.0745 34.1871 17.8022 32.7525 17.8022H27.0508V17.8023Z" fill="#8AC9FE"/>
<path fill-rule="evenodd" clip-rule="evenodd" d="M40.7775 21.1904L38.0818 26.8627C38.2242 27.5734 38.299 28.3077 38.299 29.0604V29.5482C38.299 35.7411 33.238 40.8069 27.0508 40.8069H32.7525C38.9378 40.8069 44.0007 35.7411 44.0007 29.5482V29.0604C44.0007 26.006 42.7688 23.2237 40.7775 21.1904Z" fill="#64B9FC"/>
<path d="M29.4186 31.5361H18.9223C18.6556 31.5361 18.4395 31.3199 18.4395 31.0532C18.4395 30.7865 18.6556 30.5703 18.9223 30.5703H29.4186C29.6853 30.5703 29.9015 30.7865 29.9015 31.0532C29.9015 31.3199 29.6853 31.5361 29.4186 31.5361Z" fill="#F8F6F6"/>
<path d="M31.6179 34.9872H18.9223C18.6556 34.9872 18.4395 34.771 18.4395 34.5044C18.4395 34.2377 18.6556 34.0215 18.9223 34.0215H31.6179C31.8846 34.0215 32.1008 34.2377 32.1008 34.5044C32.1008 34.771 31.8846 34.9872 31.6179 34.9872Z" fill="#F8F6F6"/>
<path d="M29.4186 28.0859H18.9223C18.6556 28.0859 18.4395 27.8697 18.4395 27.603C18.4395 27.3363 18.6556 27.1201 18.9223 27.1201H29.4186C29.6853 27.1201 29.9015 27.3363 29.9015 27.603C29.9015 27.8696 29.6853 28.0859 29.4186 28.0859Z" fill="#F8F6F6"/>
<path d="M25.2701 24.6352H18.9223C18.6556 24.6352 18.4395 24.419 18.4395 24.1523C18.4395 23.8856 18.6556 23.6694 18.9223 23.6694H25.2701C25.5368 23.6694 25.753 23.8856 25.753 24.1523C25.753 24.419 25.5368 24.6352 25.2701 24.6352Z" fill="#F8F6F6"/>
</g>
<defs>
<clipPath id="clip0_8502_113141">
<rect width="32" height="32" fill="white" transform="translate(12 12)"/>
</clipPath>
</defs>
</svg>
