<svg width="17" height="20" viewBox="0 0 17 20" fill="none" xmlns="http://www.w3.org/2000/svg">
<path d="M13.9989 9.28572V17.1429C13.9989 18.6735 12.7637 20 11.1168 20H2.88213C1.33813 20 0 18.7755 0 17.1429V5.91837C0 4.38776 1.2352 3.06122 2.88213 3.06122H7.72C8.44053 3.06122 9.16107 3.36735 9.77867 3.87755L13.1755 7.2449C13.6901 7.85714 13.9989 8.57143 13.9989 9.28572Z" fill="#E2E8F0"/>
<path d="M16.2635 15.9184C15.8517 15.9184 15.44 15.6122 15.44 15.102V7.7551C15.44 7.44898 15.3371 7.14286 15.0283 6.83674L10.0875 1.93878C9.8816 1.73469 9.46987 1.53061 9.16107 1.53061H4.9408C4.52907 1.63265 4.11733 1.22449 4.11733 0.816327C4.11733 0.408163 4.52907 0 4.9408 0H9.264C9.98453 0 10.7051 0.306122 11.2197 0.816327L16.1605 5.71429C16.6752 6.22449 16.984 6.93878 16.984 7.65306V15.102C17.0869 15.5102 16.6752 15.9184 16.2635 15.9184Z" fill="#E2E8F0"/>
</svg>
