<svg width="32" height="32" viewBox="0 0 32 32" fill="none" xmlns="http://www.w3.org/2000/svg">
<path d="M16 32C24.8366 32 32 24.8366 32 16C32 7.16344 24.8366 0 16 0C7.16344 0 0 7.16344 0 16C0 24.8366 7.16344 32 16 32Z" fill="#EA5455"/>
<path fill-rule="evenodd" clip-rule="evenodd" d="M12.391 7.66602H19.616C22.441 7.66602 24.3327 9.64935 24.3327 12.5993V19.4085C24.3327 22.3502 22.441 24.3327 19.616 24.3327H12.391C9.56602 24.3327 7.66602 22.3502 7.66602 19.4085V12.5993C7.66602 9.64935 9.56602 7.66602 12.391 7.66602ZM18.5077 18.4993C18.791 18.2168 18.791 17.7585 18.5077 17.4752L17.0243 15.9918L18.5077 14.5077C18.791 14.2252 18.791 13.7585 18.5077 13.4752C18.2243 13.191 17.766 13.191 17.4743 13.4752L15.9993 14.9577L14.516 13.4752C14.2243 13.191 13.766 13.191 13.4827 13.4752C13.1993 13.7585 13.1993 14.2252 13.4827 14.5077L14.966 15.9918L13.4827 17.4668C13.1993 17.7585 13.1993 18.2168 13.4827 18.4993C13.6243 18.641 13.816 18.7168 13.9993 18.7168C14.191 18.7168 14.3743 18.641 14.516 18.4993L15.9993 17.0252L17.4827 18.4993C17.6243 18.6502 17.8077 18.7168 17.991 18.7168C18.1827 18.7168 18.366 18.641 18.5077 18.4993Z" fill="white"/>
</svg>
