<svg width="56" height="56" viewBox="0 0 56 56" fill="none" xmlns="http://www.w3.org/2000/svg">
<circle cx="28" cy="28" r="28" fill="white"/>
<path d="M36.1691 12.9668H34.7247C34.7247 12.4329 34.292 12 33.7579 12H16.9433C16.4094 12 15.9766 12.4328 15.9766 12.9668V38.6604C15.9766 39.1943 16.4094 39.6271 16.9433 39.6271C35.2723 39.6271 33.8438 39.6835 34.1594 39.539C34.4041 39.427 34.5937 39.2162 34.6774 38.9576H36.1691C36.1691 38.7721 36.1691 13.3291 36.1691 12.9668Z" fill="#60B7FF"/>
<path d="M35.7675 12H33.7578C34.2918 12 34.7246 12.4328 34.7246 12.9668V38.6604C34.7246 39.1943 34.2918 39.6271 33.7578 39.6271H35.7675C36.3014 39.6271 36.7343 39.1943 36.7343 38.6604V12.9668C36.7343 12.4328 36.3014 12 35.7675 12V12Z" fill="#26A6FE"/>
<path d="M36.7333 18.6225L32.268 14.1572H18.8246C18.0866 14.1572 17.4883 14.7555 17.4883 15.4935V39.3869C17.4883 39.469 17.4968 39.549 17.511 39.627H35.7665C36.3005 39.627 36.7333 39.1942 36.7333 38.6603V18.6225Z" fill="#26A6FE"/>
<path d="M38.3181 18.8714L36.0523 17.4567L34.0961 14.1572H20.6527C19.9147 14.1572 19.3164 14.7555 19.3164 15.4935V39.3869C19.3164 40.1249 19.9147 40.7232 20.6527 40.7232H38.2922C38.3009 40.7232 38.3094 40.7221 38.3181 40.7219V18.8714Z" fill="#EAF6FF"/>
<path d="M39.6291 19.6899L37.6195 18.4351V39.3872C37.6195 40.1252 37.0212 40.7236 36.2832 40.7236H38.2929C39.0309 40.7236 39.6292 40.1252 39.6292 39.3872V19.6899H39.6291Z" fill="#D8ECFE"/>
<path d="M35.432 19.6896H39.6281L34.0957 14.1572V18.3533C34.0957 19.0913 34.694 19.6896 35.432 19.6896Z" fill="#B3DAFE"/>
<path d="M36.4202 22.7177H22.5224C22.2554 22.7177 22.0391 22.5013 22.0391 22.2344C22.0391 21.9674 22.2554 21.751 22.5224 21.751H36.4202C36.6872 21.751 36.9036 21.9674 36.9036 22.2344C36.9036 22.5013 36.6872 22.7177 36.4202 22.7177Z" fill="#82AEE3"/>
<path d="M36.4202 25.916H22.5224C22.2554 25.916 22.0391 25.6995 22.0391 25.4326C22.0391 25.1657 22.2554 24.9492 22.5224 24.9492H36.4202C36.6872 24.9492 36.9036 25.1657 36.9036 25.4326C36.9036 25.6995 36.6872 25.916 36.4202 25.916Z" fill="#82AEE3"/>
<path d="M41.6885 28.0001H40.6409C40.4166 27.6122 39.9973 27.3522 39.5246 27.3522C38.8615 27.3522 24.2297 27.3522 23.2968 27.3522L21.6 24.5446H20.5713C20.3907 24.3031 20.1052 24.1567 19.7976 24.1567H14.1425C13.6086 24.1567 13.1758 24.5896 13.1758 25.1235V42.711C13.1758 43.4229 13.7529 44 14.4648 44H39.5246C39.7375 44 39.9539 43.9449 40.1453 43.8391H40.1478C40.3103 43.7491 40.4508 43.6247 40.5607 43.4764H41.6885V28.0001H41.6885Z" fill="#FDB441"/>
<path d="M20.6534 24.6753L22.0541 27.3522H24.0638L22.6631 24.6753C22.4963 24.3565 22.1663 24.1567 21.8066 24.1567H19.7969C20.1566 24.1567 20.4866 24.3565 20.6534 24.6753Z" fill="#FEA613"/>
<path d="M41.5331 27.3521H39.5234C40.2354 27.3521 40.8124 27.9292 40.8124 28.6411V42.7109C40.8124 43.4228 40.2353 43.9999 39.5234 43.9999H41.5331C42.245 43.9999 42.8221 43.4227 42.8221 42.7109V28.6411C42.8221 27.9292 42.245 27.3521 41.5331 27.3521Z" fill="#FEA613"/>
</svg>
