<svg width="24" height="25" viewBox="0 0 24 25" fill="none" xmlns="http://www.w3.org/2000/svg">
<rect y="0.148438" width="24" height="24" rx="12" fill="#00DAB3"/>
<path fill-rule="evenodd" clip-rule="evenodd" d="M9.03144 6.33372C9.14223 6.4137 9.3209 6.5974 9.3209 6.5974C10.0145 7.24749 11.0592 8.8644 11.3947 9.68473C11.4017 9.68473 11.6007 10.1725 11.6085 10.4045V10.4354C11.6085 10.7909 11.4095 11.1235 11.0896 11.2937C10.9578 11.3639 10.637 11.4292 10.4823 11.4607C10.431 11.4711 10.398 11.4778 10.396 11.4798C9.93883 11.5495 9.23741 11.5954 8.46734 11.5954C7.65903 11.5954 6.92719 11.5495 6.477 11.464C6.4692 11.464 6.05803 11.3792 5.92071 11.3246C5.72253 11.2399 5.55479 11.0847 5.4479 10.8915C5.37143 10.7371 5.33398 10.5739 5.33398 10.4045C5.34101 10.2263 5.4557 9.89377 5.50875 9.76233C5.84425 8.89528 6.94201 7.23957 7.613 6.60532C7.6827 6.53458 7.76202 6.46048 7.81722 6.40891C7.84667 6.3814 7.86925 6.36031 7.87983 6.34956C8.04758 6.21812 8.25356 6.14844 8.47514 6.14844C8.67254 6.14844 8.87071 6.2102 9.03144 6.33372ZM16.1531 10.923C16.1531 11.2722 15.8745 11.5548 15.5305 11.5548C15.1864 11.5548 14.9078 11.2722 14.9078 10.923L14.7362 7.87041C14.7362 7.42539 15.092 7.0651 15.5305 7.0651C15.9689 7.0651 16.3239 7.42539 16.3239 7.87041L16.1531 10.923ZM18.0806 12.9722C18.2788 13.0577 18.4465 13.2121 18.5534 13.4053C18.6299 13.5597 18.6673 13.7228 18.6673 13.8931C18.6603 14.0705 18.5456 14.4038 18.4918 14.5353C18.1571 15.4015 17.0585 17.0573 16.3883 17.6923C16.3198 17.7614 16.2419 17.834 16.1869 17.8854L16.1868 17.8854C16.156 17.9142 16.1324 17.9362 16.1215 17.9473C15.9529 18.0788 15.7477 18.1484 15.5269 18.1484C15.328 18.1484 15.1298 18.0867 14.9699 17.9624C14.8591 17.8832 14.6804 17.6995 14.6804 17.6995C13.986 17.0502 12.9421 15.4324 12.6066 14.6121C12.5988 14.6121 12.4006 14.1251 12.3928 13.8931V13.8622C12.3928 13.5059 12.591 13.1733 12.9117 13.003C13.0433 12.9336 13.363 12.8681 13.5181 12.8364C13.5699 12.8258 13.6033 12.8189 13.6053 12.817C14.0625 12.7473 14.7639 12.7014 15.534 12.7014C16.3423 12.7014 17.0741 12.7473 17.5243 12.8328C17.5313 12.8328 17.9433 12.9175 18.0806 12.9722ZM8.47101 12.7421C8.12693 12.7421 7.84839 13.0248 7.84839 13.374L7.67674 16.4265C7.67674 16.8715 8.03252 17.2318 8.47101 17.2318C8.90949 17.2318 9.26449 16.8715 9.26449 16.4265L9.09362 13.374C9.09362 13.0248 8.81508 12.7421 8.47101 12.7421Z" fill="white"/>
</svg>
