<svg width="24" height="24" viewBox="0 0 24 24" fill="none" xmlns="http://www.w3.org/2000/svg">
<path d="M20.8306 0H7.46786C5.72491 0 4.29883 1.42608 4.29883 3.16903V4.24734H16.3865C18.1295 4.24734 19.5556 5.67342 19.5556 7.41638V15.317H20.8306C22.5736 15.317 23.9996 13.8909 23.9996 12.148V3.16903C23.9996 1.42603 22.5736 0 20.8306 0Z" fill="#60B8FE"/>
<path d="M16.5318 4.10254H3.16903C1.42608 4.10254 0 5.52862 0 7.27157V16.2505C0 17.9934 1.42608 19.4195 3.16903 19.4195H11.1892C11.533 19.4195 11.7897 19.7395 11.711 20.0742C11.4983 20.9797 11.1729 21.9372 10.6918 22.9188C10.4757 23.3597 10.9672 23.8079 11.3847 23.5495C12.5918 22.8024 14.3092 21.5521 15.7555 19.7846C15.9456 19.5523 16.2315 19.4195 16.5318 19.4195C18.2747 19.4195 19.7008 17.9934 19.7008 16.2504V7.27152C19.7008 5.52862 18.2747 4.10254 16.5318 4.10254Z" fill="#EB5757"/>
<path d="M4.39339 13.07C4.97417 13.07 5.44498 12.5992 5.44498 12.0184C5.44498 11.4376 4.97417 10.9668 4.39339 10.9668C3.81261 10.9668 3.3418 11.4376 3.3418 12.0184C3.3418 12.5992 3.81261 13.07 4.39339 13.07Z" fill="white"/>
<path d="M7.78987 13.07C8.37065 13.07 8.84147 12.5992 8.84147 12.0184C8.84147 11.4376 8.37065 10.9668 7.78987 10.9668C7.2091 10.9668 6.73828 11.4376 6.73828 12.0184C6.73828 12.5992 7.2091 13.07 7.78987 13.07Z" fill="white"/>
<path d="M11.1864 13.07C11.7671 13.07 12.238 12.5992 12.238 12.0184C12.238 11.4376 11.7671 10.9668 11.1864 10.9668C10.6056 10.9668 10.1348 11.4376 10.1348 12.0184C10.1348 12.5992 10.6056 13.07 11.1864 13.07Z" fill="white"/>
<path d="M14.5828 13.07C15.1636 13.07 15.6344 12.5992 15.6344 12.0184C15.6344 11.4376 15.1636 10.9668 14.5828 10.9668C14.0021 10.9668 13.5312 11.4376 13.5312 12.0184C13.5312 12.5992 14.0021 13.07 14.5828 13.07Z" fill="white"/>
</svg>
