<svg width="14" height="14" viewBox="0 0 14 14" fill="none" xmlns="http://www.w3.org/2000/svg">
<path d="M13.4611 2.25838C13.3924 1.36491 12.7051 0.608898 11.7429 0.54017C10.3683 0.402713 8.44395 0.333984 7.00065 0.333984C5.55735 0.333984 3.63295 0.402713 2.25838 0.54017C1.77728 0.54017 1.36491 0.746356 1.09 1.09C0.815084 1.43364 0.608898 1.77728 0.54017 2.25838C0.402713 3.63295 0.333984 5.55735 0.333984 7.00065C0.333984 8.44395 0.471441 10.3683 0.54017 11.7429C0.608898 12.6364 1.29618 13.3924 2.25838 13.4611C3.63295 13.5986 5.55735 13.6673 7.00065 13.6673C8.44395 13.6673 10.3683 13.5299 11.7429 13.4611C12.6364 13.3924 13.3924 12.7051 13.4611 11.7429C13.5986 10.3683 13.6673 8.44395 13.6673 7.00065C13.6673 5.55735 13.5986 3.63295 13.4611 2.25838ZM9.40615 5.96972L6.65701 8.71886C6.51955 8.78759 6.45082 8.85632 6.31337 8.85632C6.17591 8.85632 6.03845 8.78759 5.96972 8.71886L4.59515 7.34429C4.38897 7.13811 4.38897 6.79446 4.59515 6.58828C4.80134 6.38209 5.14498 6.38209 5.35117 6.58828L6.38209 7.61921L8.78759 5.21371C8.99378 5.00752 9.33742 5.00752 9.54361 5.21371C9.61233 5.48862 9.61233 5.76354 9.40615 5.96972Z" fill="white"/>
</svg>
