<svg width="14" height="14" viewBox="0 0 14 14" fill="none" xmlns="http://www.w3.org/2000/svg">
<path d="M10.9466 8.54601C10.7739 8.71335 10.6946 8.95535 10.7339 9.19268L11.3266 12.4727C11.3766 12.7507 11.2592 13.032 11.0266 13.1927C10.7986 13.3593 10.4952 13.3793 10.2466 13.246L7.2939 11.706C7.19123 11.6513 7.07723 11.622 6.96057 11.6187H6.7799C6.71724 11.628 6.6559 11.648 6.5999 11.6787L3.64657 13.226C3.50057 13.2993 3.33524 13.3253 3.17324 13.2993C2.77857 13.2247 2.51523 12.8487 2.5799 12.452L3.17324 9.17202C3.21257 8.93268 3.13324 8.68935 2.96057 8.51935L0.553235 6.18602C0.351902 5.99068 0.281902 5.69735 0.373902 5.43268C0.463235 5.16868 0.691235 4.97602 0.966568 4.93268L4.2799 4.45202C4.5319 4.42602 4.75324 4.27268 4.86657 4.04602L6.32657 1.05268C6.36123 0.986016 6.4059 0.924682 6.4599 0.872682L6.5199 0.826016C6.55123 0.791349 6.58723 0.762682 6.62723 0.739349L6.6999 0.712682L6.81324 0.666016H7.0939C7.34457 0.692016 7.56523 0.842016 7.68057 1.06602L9.1599 4.04602C9.26657 4.26402 9.4739 4.41535 9.71324 4.45202L13.0266 4.93268C13.3066 4.97268 13.5406 5.16602 13.6332 5.43268C13.7206 5.70002 13.6452 5.99335 13.4399 6.18602L10.9466 8.54601Z" fill="white"/>
</svg>
