<svg width="56" height="56" viewBox="0 0 56 56" fill="none" xmlns="http://www.w3.org/2000/svg">
<circle cx="28" cy="28" r="28" fill="white"/>
<g clip-path="url(#clip0_8502_113053)">
<path d="M33.8353 32.7319L20.1854 41.1022H14.9219C14.6202 41.1022 14.3877 41.3766 14.4467 41.6724C14.7116 42.9995 15.883 43.9995 17.288 43.9995H36.7327L33.8353 32.7319Z" fill="#7D8FE5"/>
<path d="M33.8359 32.7319V41.1022C33.8359 42.7023 35.1331 43.9995 36.7333 43.9995H38.6649V32.7319H33.8359Z" fill="#666DDC"/>
<path d="M33.8353 23.2676L20.1854 14.8974H14.9219C14.6202 14.8974 14.3877 14.6229 14.4467 14.3271C14.7116 13 15.883 12 17.288 12H36.7327L33.8353 23.2676Z" fill="#7D8FE5"/>
<path d="M33.8359 23.2676V14.8974C33.8359 13.2972 35.1331 12 36.7333 12H38.6649V23.2676H33.8359Z" fill="#666DDC"/>
<path d="M38.665 12C38.3263 12 38.0014 12.0587 37.6992 12.1655V43.8345C38.0014 43.9413 38.3263 44 38.665 44C40.2652 44 41.5624 42.7028 41.5624 41.1026V14.8974C41.5624 13.2972 40.2652 12 38.665 12V12Z" fill="#95B0ED"/>
<path d="M37.6986 12.1655C36.5734 12.5634 35.767 13.6359 35.767 14.8974H20.1855V41.1026H35.767C35.767 42.3641 36.5734 43.4366 37.6986 43.8344C38.8238 43.4366 39.6302 42.3641 39.6302 41.1026V14.8974C39.6302 13.6359 38.8238 12.5634 37.6986 12.1655Z" fill="#ACD2F6"/>
<path d="M30.873 18.3423V31.8634C34.6068 31.8634 37.6336 28.8366 37.6336 25.1029C37.6336 21.3691 34.6068 18.3423 30.873 18.3423Z" fill="#C4F3FF"/>
<path d="M35.7028 25.1029C35.7028 21.3691 33.5408 18.3423 30.8739 18.3423C27.1401 18.3423 24.1133 21.3691 24.1133 25.1029C24.1133 28.8366 27.1401 31.8634 30.8739 31.8634C33.5408 31.8634 35.7028 28.8366 35.7028 25.1029Z" fill="white"/>
<path d="M30.8735 30.415C31.1402 30.415 31.3564 30.1988 31.3564 29.9321C31.3564 29.6654 31.1402 29.4492 30.8735 29.4492C30.6068 29.4492 30.3906 29.6654 30.3906 29.9321C30.3906 30.1988 30.6068 30.415 30.8735 30.415Z" fill="#4E4CD3"/>
<path d="M33.2895 29.768C33.5562 29.768 33.7724 29.5518 33.7724 29.2851C33.7724 29.0184 33.5562 28.8022 33.2895 28.8022C33.0228 28.8022 32.8066 29.0184 32.8066 29.2851C32.8066 29.5518 33.0228 29.768 33.2895 29.768Z" fill="#4E4CD3"/>
<path d="M28.4595 21.4038C28.7262 21.4038 28.9424 21.1876 28.9424 20.9209C28.9424 20.6542 28.7262 20.438 28.4595 20.438C28.1928 20.438 27.9766 20.6542 27.9766 20.9209C27.9766 21.1876 28.1928 21.4038 28.4595 21.4038Z" fill="#4E4CD3"/>
<path d="M35.0571 28.0005C35.3238 28.0005 35.54 27.7843 35.54 27.5176C35.54 27.2509 35.3238 27.0347 35.0571 27.0347C34.7904 27.0347 34.5742 27.2509 34.5742 27.5176C34.5742 27.7843 34.7904 28.0005 35.0571 28.0005Z" fill="#4E4CD3"/>
<path d="M26.6919 23.1714C26.9586 23.1714 27.1748 22.9552 27.1748 22.6885C27.1748 22.4218 26.9586 22.2056 26.6919 22.2056C26.4252 22.2056 26.209 22.4218 26.209 22.6885C26.209 22.9552 26.4252 23.1714 26.6919 23.1714Z" fill="#4E4CD3"/>
<path d="M26.0454 25.5859C26.3121 25.5859 26.5283 25.3697 26.5283 25.103C26.5283 24.8363 26.3121 24.6201 26.0454 24.6201C25.7787 24.6201 25.5625 24.8363 25.5625 25.103C25.5625 25.3697 25.7787 25.5859 26.0454 25.5859Z" fill="#4E4CD3"/>
<path d="M35.0571 23.1714C35.3238 23.1714 35.54 22.9552 35.54 22.6885C35.54 22.4218 35.3238 22.2056 35.0571 22.2056C34.7904 22.2056 34.5742 22.4218 34.5742 22.6885C34.5742 22.9552 34.7904 23.1714 35.0571 23.1714Z" fill="#4E4CD3"/>
<path d="M26.6919 28.0005C26.9586 28.0005 27.1748 27.7843 27.1748 27.5176C27.1748 27.2509 26.9586 27.0347 26.6919 27.0347C26.4252 27.0347 26.209 27.2509 26.209 27.5176C26.209 27.7843 26.4252 28.0005 26.6919 28.0005Z" fill="#4E4CD3"/>
<path d="M33.2895 21.4038C33.5562 21.4038 33.7724 21.1876 33.7724 20.9209C33.7724 20.6542 33.5562 20.438 33.2895 20.438C33.0228 20.438 32.8066 20.6542 32.8066 20.9209C32.8066 21.1876 33.0228 21.4038 33.2895 21.4038Z" fill="#4E4CD3"/>
<path d="M28.4595 29.768C28.7262 29.768 28.9424 29.5518 28.9424 29.2851C28.9424 29.0184 28.7262 28.8022 28.4595 28.8022C28.1928 28.8022 27.9766 29.0184 27.9766 29.2851C27.9766 29.5518 28.1928 29.768 28.4595 29.768Z" fill="#4E4CD3"/>
<path d="M24.1138 34.2773C24.3805 34.2773 24.5967 34.0611 24.5967 33.7944C24.5967 33.5277 24.3805 33.3115 24.1138 33.3115C23.8471 33.3115 23.6309 33.5277 23.6309 33.7944C23.6309 34.0611 23.8471 34.2773 24.1138 34.2773Z" fill="#4A36B5"/>
<path d="M24.1138 36.2089C24.3805 36.2089 24.5967 35.9927 24.5967 35.7261C24.5967 35.4594 24.3805 35.2432 24.1138 35.2432C23.8471 35.2432 23.6309 35.4594 23.6309 35.7261C23.6309 35.9927 23.8471 36.2089 24.1138 36.2089Z" fill="#4A36B5"/>
<path d="M24.1138 38.1411C24.3805 38.1411 24.5967 37.9249 24.5967 37.6582C24.5967 37.3915 24.3805 37.1753 24.1138 37.1753C23.8471 37.1753 23.6309 37.3915 23.6309 37.6582C23.6309 37.9249 23.8471 38.1411 24.1138 38.1411Z" fill="#4A36B5"/>
<path d="M35.7025 25.5853H30.8735C30.6068 25.5853 30.3906 25.3691 30.3906 25.1024V20.2734C30.3906 20.0067 30.6068 19.7905 30.8735 19.7905C31.1403 19.7905 31.3564 20.0067 31.3564 20.2734V24.6195H35.7025C35.9692 24.6195 36.1854 24.8357 36.1854 25.1024C36.1854 25.3691 35.9692 25.5853 35.7025 25.5853Z" fill="#4A36B5"/>
<path d="M37.6349 34.2773H26.0454C25.7786 34.2773 25.5625 34.0611 25.5625 33.7944C25.5625 33.5277 25.7786 33.3115 26.0454 33.3115H37.6349C37.9017 33.3115 38.1178 33.5277 38.1178 33.7944C38.1178 34.0611 37.9016 34.2773 37.6349 34.2773Z" fill="#4E4CD3"/>
<path d="M37.6349 36.2089H26.0454C25.7786 36.2089 25.5625 35.9927 25.5625 35.7261C25.5625 35.4594 25.7786 35.2432 26.0454 35.2432H37.6349C37.9017 35.2432 38.1178 35.4594 38.1178 35.7261C38.1178 35.9927 37.9016 36.2089 37.6349 36.2089Z" fill="#4E4CD3"/>
<path d="M37.6349 38.1411H26.0454C25.7786 38.1411 25.5625 37.9249 25.5625 37.6582C25.5625 37.3915 25.7786 37.1753 26.0454 37.1753H37.6349C37.9017 37.1753 38.1178 37.3915 38.1178 37.6582C38.1178 37.9249 37.9016 38.1411 37.6349 38.1411Z" fill="#4E4CD3"/>
</g>
<defs>
<clipPath id="clip0_8502_113053">
<rect width="32" height="32" fill="white" transform="translate(12 12)"/>
</clipPath>
</defs>
</svg>
