<svg width="20" height="20" viewBox="0 0 20 20" fill="none" xmlns="http://www.w3.org/2000/svg">
<path d="M10 0C4.4898 0 0 4.4898 0 10C0 15.5102 4.4898 20 10 20C15.5102 20 20 15.5102 20 10C20 4.4898 15.5102 0 10 0ZM11.0204 10L7.55102 13.5714C7.34694 13.6735 7.2449 13.7755 7.04082 13.7755C6.83674 13.7755 6.63265 13.6735 6.53061 13.5714C6.22449 13.2653 6.22449 12.7551 6.53061 12.449L9.38776 9.59184V4.89796C9.38776 4.4898 9.69388 4.08163 10.2041 4.08163C10.7143 4.08163 11.0204 4.38776 11.0204 4.89796V10Z" fill="#A2AEBD"/>
</svg>
