<svg width="17" height="18" viewBox="0 0 17 18" fill="none" xmlns="http://www.w3.org/2000/svg">
<path fill-rule="evenodd" clip-rule="evenodd" d="M10.4626 0.6736C10.2767 0.646952 10.0899 0.701914 9.94137 0.820166C9.78866 0.940084 9.69322 1.1133 9.67247 1.30733C9.62849 1.69956 9.91149 2.05432 10.3032 2.09846C13.0046 2.39991 15.1043 4.5043 15.408 7.21411C15.4487 7.57719 15.7533 7.85117 16.1168 7.85117C16.1442 7.85117 16.1707 7.8495 16.1981 7.84617C16.3882 7.82536 16.5575 7.73125 16.677 7.58136C16.7957 7.43146 16.8496 7.24492 16.828 7.05422C16.4496 3.67321 13.8329 1.04918 10.4626 0.6736ZM10.5144 3.57527C10.1177 3.50199 9.75339 3.75515 9.67787 4.14238C9.60235 4.52962 9.8563 4.90769 10.2422 4.98347C11.4041 5.20998 12.3012 6.10937 12.5286 7.27523V7.27607C12.5934 7.61167 12.8888 7.85567 13.2291 7.85567C13.2747 7.85567 13.3204 7.8515 13.3669 7.84318C13.7528 7.76573 14.0067 7.38849 13.9312 7.00042C13.5918 5.25912 12.2514 3.91421 10.5144 3.57527ZM11.8327 11.5758C12.209 11.3588 12.6339 11.1138 13.1699 11.2279C13.6554 11.3303 15.3103 12.6735 15.7634 13.139C16.0605 13.4438 16.2257 13.7586 16.2514 14.0734C16.2962 15.3084 14.6181 16.7182 14.3127 16.894C13.9069 17.1863 13.4347 17.3337 12.9043 17.3337C12.3624 17.3337 11.7582 17.1796 11.0993 16.8723C7.52398 15.38 2.06229 10.0262 0.618233 6.47861C0.019032 5.15785 0.0148824 4.0686 0.608274 3.25C0.844801 2.86609 2.19342 1.26136 3.40095 1.31216C3.72213 1.33964 4.03418 1.50453 4.34042 1.80432C4.80351 2.25818 6.11312 3.91787 6.21437 4.40504C6.32641 4.94633 6.08075 5.37687 5.86249 5.75494C5.81593 5.83622 5.7532 5.93267 5.68449 6.03833C5.42368 6.43935 5.07655 6.97312 5.19938 7.31387C6.07992 9.47572 8.11405 11.3619 10.2768 12.248C10.6113 12.3695 11.1447 12.0199 11.5445 11.758C11.6486 11.6897 11.7437 11.6274 11.8238 11.5809L11.8327 11.5758Z" fill="#A2AEBD"/>
</svg>
