<svg width="56" height="56" viewBox="0 0 56 56" fill="none" xmlns="http://www.w3.org/2000/svg">
<circle cx="28" cy="28" r="28" fill="white"/>
<path d="M42.5 23V26H36L33.5 22.5H21.5V19.5C21.5008 19.235 21.6064 18.9811 21.7938 18.7938C21.9811 18.6064 22.235 18.5008 22.5 18.5H33.5L36 22H41.5C41.765 22.0008 42.0189 22.1064 42.2062 22.2938C42.3936 22.4811 42.4992 22.735 42.5 23Z" fill="#EE8700"/>
<path d="M39.5 14V26H24.5V14C24.5 13.8674 24.5527 13.7402 24.6464 13.6464C24.7402 13.5527 24.8674 13.5 25 13.5H39C39.1326 13.5 39.2598 13.5527 39.3536 13.6464C39.4473 13.7402 39.5 13.8674 39.5 14Z" fill="#E6E7E8"/>
<path d="M42.5 26V36C42.4992 36.265 42.3936 36.5189 42.2062 36.7062C42.0189 36.8936 41.765 36.9992 41.5 37H22.5C22.235 36.9992 21.9811 36.8936 21.7938 36.7062C21.6064 36.5189 21.5008 36.265 21.5 36V22.5H33.5L36 26H42.5Z" fill="#FF9811"/>
<path d="M28.5 36.5C28.5 36.67 28.495 36.835 28.48 37H22.5C22.235 36.9992 21.9811 36.8936 21.7938 36.7062C21.6064 36.5189 21.5008 36.265 21.5 36V29.5C22.4193 29.5 23.3295 29.6811 24.1788 30.0328C25.0281 30.3846 25.7997 30.9002 26.4497 31.5503C27.0998 32.2003 27.6154 32.9719 27.9672 33.8212C28.3189 34.6705 28.5 35.5807 28.5 36.5Z" fill="#EE8700"/>
<path d="M20.5 42.5C24.366 42.5 27.5 39.366 27.5 35.5C27.5 31.634 24.366 28.5 20.5 28.5C16.634 28.5 13.5 31.634 13.5 35.5C13.5 39.366 16.634 42.5 20.5 42.5Z" fill="#3D9AE2"/>
<path d="M25.5 35.5004C25.5002 36.6572 25.0994 37.7783 24.3657 38.6726C23.632 39.567 22.6109 40.1793 21.4764 40.4052C20.3419 40.6311 19.1642 40.4566 18.1439 39.9115C17.1236 39.3664 16.3238 38.4844 15.881 37.4157C15.4381 36.3471 15.3794 35.1579 15.715 34.0509C16.0507 32.9438 16.7597 31.9874 17.7215 31.3446C18.6832 30.7017 19.8381 30.4123 20.9893 30.5255C22.1405 30.6387 23.2169 31.1476 24.035 31.9654C24.5 32.4291 24.8688 32.9801 25.1202 33.5867C25.3716 34.1934 25.5007 34.8437 25.5 35.5004Z" fill="#E6E7E8"/>
<path d="M39.5 22H40.5V26H39.5V22Z" fill="#CC7400"/>
<path d="M23.5 18.5H24.5V22.5H23.5V18.5Z" fill="#CC7400"/>
<path d="M27 16H37V17H27V16Z" fill="#BCBEC0"/>
<path d="M27 18H37V19H27V18Z" fill="#BCBEC0"/>
<path d="M27 20H37V21H27V20Z" fill="#BCBEC0"/>
<path d="M20.5 30C19.4122 30 18.3488 30.3226 17.4444 30.9269C16.5399 31.5313 15.8349 32.3902 15.4187 33.3952C15.0024 34.4002 14.8935 35.5061 15.1057 36.573C15.3179 37.6399 15.8417 38.6199 16.6109 39.3891C17.3801 40.1583 18.3601 40.6821 19.427 40.8943C20.4939 41.1065 21.5998 40.9976 22.6048 40.5813C23.6098 40.165 24.4687 39.4601 25.0731 38.5556C25.6774 37.6512 26 36.5878 26 35.5C25.9983 34.0418 25.4183 32.6439 24.3872 31.6128C23.3561 30.5817 21.9582 30.0017 20.5 30ZM24.9705 36C24.8762 36.8438 24.5439 37.6433 24.0125 38.3055L23.3285 37.6215L22.6215 38.3285L23.3055 39.0125C22.6434 39.5439 21.8438 39.8762 21 39.9705V39H20V39.9705C19.1562 39.8762 18.3566 39.5439 17.6945 39.0125L18.3785 38.3285L17.6715 37.6215L16.9875 38.3055C16.4561 37.6433 16.1238 36.8438 16.0295 36H17V35H16.0295C16.1238 34.1562 16.4561 33.3566 16.9875 32.6945L17.6715 33.3785L18.3785 32.6715L17.6945 31.9875C18.3566 31.4561 19.1562 31.1238 20 31.0295V32H21V31.0295C21.8438 31.1238 22.6434 31.4561 23.3055 31.9875L22.6215 32.6715L23.3285 33.3785L24.0125 32.6945C24.5439 33.3566 24.8762 34.1562 24.9705 35H24V36H24.9705Z" fill="#1E81CE"/>
<path d="M20 35.293L19.1465 36.1465L19.8535 36.8535L20.8535 35.8535C20.9473 35.7598 20.9999 35.6326 21 35.5V33H20V35.293Z" fill="#1E81CE"/>
</svg>
