<svg width="56" height="56" viewBox="0 0 56 56" fill="none" xmlns="http://www.w3.org/2000/svg">
<path d="M0 18C0 8.05888 8.05887 0 18 0H38C47.9411 0 56 8.05887 56 18V38C56 47.9411 47.9411 56 38 56H18C8.05888 56 0 47.9411 0 38V18Z" fill="#FF9F43"/>
<path fill-rule="evenodd" clip-rule="evenodd" d="M18.8425 16.3335H27.8523C31.6199 16.3335 34.2504 18.9298 34.2504 22.6505V33.3498C34.2504 37.0705 31.6199 39.6668 27.8523 39.6668H18.8425C15.0749 39.6668 12.4444 37.0705 12.4444 33.3498V22.6505C12.4444 18.9298 15.0749 16.3335 18.8425 16.3335ZM40.379 20.0341C41.0619 19.6867 41.863 19.723 42.5148 20.1336C43.1666 20.5427 43.5555 21.2533 43.5555 22.0303V33.971C43.5555 34.7495 43.1666 35.4586 42.5148 35.8676C42.1586 36.0903 41.7604 36.204 41.359 36.204C41.0246 36.204 40.6901 36.1251 40.3775 35.9656L38.0737 34.8032C37.2212 34.3705 36.6923 33.5019 36.6923 32.537V23.4627C36.6923 22.4962 37.2212 21.6276 38.0737 21.198L40.379 20.0341Z" fill="white"/>
</svg>
