<svg width="24" height="25" viewBox="0 0 24 25" fill="none" xmlns="http://www.w3.org/2000/svg">
<rect y="0.148438" width="24" height="24" rx="12" fill="#C85AEE"/>
<path fill-rule="evenodd" clip-rule="evenodd" d="M9.0907 6.41242C7.3727 6.41242 6.2627 7.59042 6.2627 9.40776V14.8838C6.2627 15.3938 6.35736 15.8491 6.51936 16.2431C6.52636 16.2347 6.67915 16.0485 6.87839 15.8057C7.26737 15.3317 7.8334 14.6419 7.83736 14.6384C8.2987 14.1118 9.1647 13.3264 10.3014 13.8018C10.5504 13.905 10.7718 14.0465 10.9757 14.1767C10.9955 14.1894 11.0152 14.202 11.0347 14.2144C11.4167 14.4698 11.6414 14.5898 11.8747 14.5698C11.9714 14.5564 12.062 14.5278 12.148 14.4744C12.4724 14.2744 13.3135 13.0827 13.5654 12.7258C13.6023 12.6735 13.6266 12.6391 13.6347 12.6284C14.3614 11.6818 15.4814 11.4284 16.4147 11.9884C16.54 12.0631 17.438 12.6904 17.7354 12.9424V9.40776C17.7354 7.59042 16.6254 6.41242 14.9014 6.41242H9.0907ZM14.9014 5.48242C17.1527 5.48242 18.6654 7.05709 18.6654 9.40775V14.8838C18.6654 14.9429 18.6592 14.9983 18.653 15.0537C18.6486 15.0927 18.6442 15.1316 18.642 15.1718C18.6406 15.196 18.6399 15.2203 18.6392 15.2446C18.6383 15.277 18.6374 15.3094 18.6347 15.3418C18.6334 15.3544 18.6309 15.3666 18.6284 15.3788C18.6259 15.3909 18.6234 15.4031 18.622 15.4158C18.6 15.6251 18.566 15.8251 18.5187 16.0191C18.5075 16.0676 18.4946 16.1143 18.4815 16.1615L18.4787 16.1718C18.4254 16.3598 18.3627 16.5391 18.2874 16.7104C18.2742 16.7392 18.2602 16.7673 18.2463 16.7954C18.237 16.8141 18.2278 16.8328 18.2187 16.8518C18.1374 17.0151 18.0494 17.1718 17.9474 17.3171C17.9285 17.344 17.9084 17.3692 17.8883 17.3945C17.875 17.4111 17.8617 17.4279 17.8487 17.4451C17.7427 17.5824 17.632 17.7138 17.5067 17.8331C17.4817 17.8569 17.4546 17.8787 17.4276 17.9004C17.4107 17.914 17.3938 17.9277 17.3774 17.9418C17.2487 18.0524 17.1174 18.1584 16.9727 18.2491C16.9411 18.2689 16.9076 18.2856 16.8742 18.3021C16.8525 18.3129 16.831 18.3236 16.81 18.3351C16.6627 18.4164 16.514 18.4958 16.352 18.5571C16.3131 18.5719 16.2716 18.5826 16.23 18.5933C16.2004 18.601 16.1708 18.6086 16.142 18.6178C16.1276 18.6222 16.1132 18.6267 16.0988 18.6312C15.9541 18.6762 15.8099 18.7211 15.654 18.7478C15.5638 18.7636 15.468 18.7697 15.3721 18.7757C15.3306 18.7784 15.2891 18.781 15.248 18.7844C15.2039 18.7877 15.1606 18.793 15.1172 18.7984C15.0467 18.8071 14.9761 18.8158 14.9014 18.8158H9.0907C8.84003 18.8158 8.6007 18.7904 8.36936 18.7524L8.3447 18.7484C7.4427 18.5931 6.69403 18.1578 6.16936 17.5011C6.16572 17.5011 6.16429 17.4986 6.16238 17.4954C6.16115 17.4932 6.15972 17.4908 6.15736 17.4884C5.63003 16.8244 5.33203 15.9318 5.33203 14.8838V9.40775C5.33203 7.05709 6.84603 5.48242 9.0907 5.48242H14.9014ZM11.3324 9.82546C11.3324 10.7288 10.5766 11.4822 9.66899 11.4822C8.87119 11.4822 8.19096 10.8993 8.0385 10.1446C8.01331 10.0313 7.9991 9.91489 7.9991 9.79458C7.9991 8.88484 8.73812 8.14882 9.65155 8.14882C10.1167 8.14882 10.5379 8.34441 10.8395 8.65645C11.1425 8.95755 11.3324 9.37252 11.3324 9.82546Z" fill="white"/>
</svg>
