<svg width="56" height="56" viewBox="0 0 56 56" fill="none" xmlns="http://www.w3.org/2000/svg">
<circle cx="28" cy="28" r="28" fill="white"/>
<g clip-path="url(#clip0_8502_113182)">
<path d="M43.6781 22.6562H33.1712C32.6526 23.2761 31.987 23.7794 31.2104 24.11L31.1717 24.1265C31.1717 24.1265 31.1731 24.2106 31.1731 24.2254C31.1731 27.9819 28.9938 31.2385 25.8334 32.7988V35.5335H12.3219C12.1441 35.5335 12 35.6776 12 35.8554V41.6502C12 41.828 12.1441 41.9721 12.3219 41.9721H43.6781C43.8559 41.9721 44 41.828 44 41.6502V22.9782C44 22.8004 43.8559 22.6562 43.6781 22.6562V22.6562Z" fill="#EAF6FF"/>
<path d="M43.6793 22.6562H33.1724C32.6538 23.2761 31.9882 23.7794 31.2116 24.11L31.1729 24.1265C31.1729 24.1265 31.1743 24.2106 31.1743 24.2254C31.1743 24.7881 31.1249 25.3394 31.0312 25.8756H44.0012V22.9782C44.0012 22.8004 43.8571 22.6562 43.6793 22.6562V22.6562Z" fill="#EAF6FF"/>
<path d="M30.1035 38.7529V41.9722H43.6776C43.8554 41.9722 43.9995 41.8281 43.9995 41.6503V38.7529H30.1035Z" fill="#EAF6FF"/>
<path d="M30.1035 35.5337H43.9995V38.753H30.1035V35.5337Z" fill="#EAF6FF"/>
<path d="M26.6992 32.314C26.4202 32.4899 26.1314 32.6517 25.834 32.7985V35.5333H44.0005V32.314H26.6992Z" fill="#EAF6FF"/>
<path d="M25.834 33.9238H28.5156V35.5335H25.834V33.9238Z" fill="#D8ECFE"/>
<path d="M29.8365 29.0952C29.0603 30.4003 27.9823 31.5057 26.6992 32.3145H44.0005V29.0952H29.8365Z" fill="#EAF6FF"/>
<path d="M26.8223 32.3141H28.5147V30.9272C28.006 31.4507 27.4385 31.9168 26.8223 32.3141V32.3141Z" fill="#D8ECFE"/>
<path d="M31.03 25.876C30.8276 27.0336 30.416 28.12 29.8359 29.0953H43.9999V25.876H31.03Z" fill="#EAF6FF"/>
<path d="M30.1035 38.7529H43.9995V40.3626H30.1035V38.7529Z" fill="#D8ECFE"/>
<path d="M30.1035 35.5337H43.9995V37.1434H30.1035V35.5337Z" fill="#D8ECFE"/>
<path d="M26.6992 32.314C26.4202 32.49 26.1314 32.6518 25.834 32.7986V33.9237H44.0005V32.314H26.6992V32.314Z" fill="#D8ECFE"/>
<path d="M25.834 32.8717V33.9237H28.5156V32.314H26.8232C26.5057 32.5186 26.1755 32.7048 25.834 32.8717Z" fill="#C4E2FF"/>
<path d="M29.8367 29.0952C29.4925 29.6738 29.0891 30.2132 28.6348 30.7049H44.0007V29.0952H29.8367Z" fill="#D8ECFE"/>
<path d="M31.0314 25.876C30.9346 26.4303 30.7899 26.9684 30.6016 27.4857H44.0014V25.876H31.0314Z" fill="#D8ECFE"/>
<path d="M43.6782 22.6562H33.1714C32.6528 23.2761 31.9872 23.7794 31.2106 24.11L31.1719 24.1265C31.1719 24.1265 31.1733 24.2106 31.1733 24.2254C31.1733 24.2389 31.1728 24.2524 31.1727 24.2659H44.0002V22.9782C44.0002 22.8004 43.8561 22.6562 43.6782 22.6562Z" fill="#D8ECFE"/>
<path d="M30.1665 41.9722H12.3219C12.1441 41.9722 12 41.8281 12 41.6503V38.7529H30.1665V41.9722Z" fill="#D8ECFE"/>
<path d="M14.672 41.6501V40.3623H12V41.6501C12 41.8279 12.1441 41.972 12.3219 41.972H14.994C14.8162 41.9719 14.672 41.8278 14.672 41.6501V41.6501Z" fill="#C4E2FF"/>
<path d="M12 38.7529H30.1665V40.3626H12V38.7529Z" fill="#EAF6FF"/>
<path d="M12 38.7529H14.6721V40.3626H12V38.7529Z" fill="#D8ECFE"/>
<path d="M30.1665 38.7525H12V35.8551C12 35.6773 12.1441 35.5332 12.3219 35.5332H30.1665V38.7525Z" fill="#D8ECFE"/>
<path d="M12 37.1431H14.672V38.7528H12V37.1431Z" fill="#C4E2FF"/>
<path d="M30.1665 37.1429H12V35.8551C12 35.6773 12.1441 35.5332 12.3219 35.5332H30.1665V37.1429Z" fill="#EAF6FF"/>
<path d="M14.9939 35.5332H12.3219C12.1441 35.5332 12 35.6773 12 35.8551V37.1429H14.6721V35.8551C14.6721 35.6773 14.8162 35.5332 14.9939 35.5332Z" fill="#D8ECFE"/>
<path d="M29.1685 24.5244C26.2918 24.5244 23.9513 22.184 23.9513 19.3072C23.9513 17.7964 24.5974 16.4342 25.6271 15.4805C24.4066 14.9199 23.0488 14.6069 21.6178 14.6069C16.3061 14.607 12 18.9131 12 24.2248C12 29.5366 16.3061 33.8426 21.6178 33.8426C26.9296 33.8426 31.2356 29.5366 31.2356 24.2248C31.2356 24.1821 31.2346 24.1397 31.234 24.0972C30.6002 24.3716 29.902 24.5244 29.1685 24.5244V24.5244Z" fill="#26A6FE"/>
<path d="M13.4875 24.2248C13.4875 20.5086 15.9936 17.3669 19.4046 16.4007C20.5451 15.5839 21.8713 15.0098 23.3079 14.7551C22.7592 14.6579 22.1944 14.6069 21.6178 14.6069C16.3061 14.607 12 18.9131 12 24.2248C12 29.5366 16.3061 33.8426 21.6178 33.8426C22.1945 33.8426 22.7593 33.7917 23.3079 33.6944C21.8713 33.4397 20.5451 32.8657 19.4046 32.0489C15.9936 31.0827 13.4875 27.941 13.4875 24.2248V24.2248Z" fill="#0593FC"/>
<path d="M29.1693 24.5247C26.2925 24.5247 23.9521 22.1843 23.9521 19.3075C23.9521 18.5199 24.1285 17.773 24.4424 17.1029C23.5681 16.755 22.6153 16.5635 21.6185 16.5635C17.394 16.5635 13.957 20.0005 13.957 24.2251C13.957 28.4497 17.394 31.8867 21.6186 31.8867C25.7438 31.8867 29.1173 28.6095 29.2739 24.522C29.239 24.5227 29.2044 24.5247 29.1693 24.5247V24.5247Z" fill="white"/>
<path d="M21.7976 16.972C21.7381 16.9705 21.6785 16.9697 21.6186 16.9697C17.618 16.9697 14.3633 20.2245 14.3633 24.2251C14.3633 28.2257 17.618 31.4804 21.6186 31.4804C21.6784 31.4804 21.7381 31.4796 21.7976 31.4781C18.7808 30.4484 16.6052 27.5862 16.6052 24.2251C16.6052 20.864 18.7807 18.0017 21.7976 16.972V16.972Z" fill="#F3F0F3"/>
<path d="M21.6191 16.9697C21.4616 16.9697 21.3055 16.9754 21.1504 16.9853V17.3107C21.1504 17.5696 21.3602 17.7794 21.6191 17.7794C21.8781 17.7794 22.0879 17.5696 22.0879 17.3107V16.9853C21.9328 16.9754 21.7766 16.9697 21.6191 16.9697Z" fill="#7A6D79"/>
<path d="M21.6191 30.6709C21.3602 30.6709 21.1504 30.8807 21.1504 31.1396V31.465C21.3055 31.475 21.4616 31.4806 21.6191 31.4806C21.7766 31.4806 21.9328 31.475 22.0879 31.465V31.1396C22.0879 30.8808 21.878 30.6709 21.6191 30.6709Z" fill="#7A6D79"/>
<path d="M15.173 24.2251C15.173 23.9662 14.9632 23.7563 14.7042 23.7563H14.3788C14.3689 23.9114 14.3633 24.0676 14.3633 24.2251C14.3633 24.3826 14.3689 24.5388 14.3788 24.6938H14.7042C14.9631 24.6938 15.173 24.484 15.173 24.2251Z" fill="#7A6D79"/>
<path d="M17.7553 18.471C17.8421 18.6214 17.9997 18.7054 18.1617 18.7054C18.2412 18.7054 18.3218 18.6852 18.3956 18.6426C18.6198 18.5132 18.6966 18.2265 18.5672 18.0023L18.4049 17.7212C18.1238 17.8607 17.8529 18.0177 17.5938 18.1911L17.7553 18.471Z" fill="#7A6D79"/>
<path d="M24.8419 29.807C24.6176 29.9364 24.5409 30.2231 24.6703 30.4473L24.8326 30.7284C25.1138 30.5889 25.3847 30.4319 25.6438 30.2584L25.4822 29.9785C25.3527 29.7544 25.066 29.6776 24.8419 29.807Z" fill="#7A6D79"/>
<path d="M16.0367 27.4478C15.9073 27.2236 15.6205 27.1469 15.3964 27.2762L15.1152 27.4386C15.2547 27.7197 15.4117 27.9906 15.5851 28.2498L15.865 28.0882C16.0893 27.9587 16.1662 27.672 16.0367 27.4478Z" fill="#7A6D79"/>
<path d="M15.3964 21.1732C15.4702 21.2158 15.5508 21.2361 15.6303 21.2361C15.7923 21.2361 15.9499 21.152 16.0367 21.0016C16.1661 20.7775 16.0893 20.4908 15.8651 20.3613L15.5852 20.1997C15.4117 20.4588 15.2547 20.7298 15.1152 21.011L15.3964 21.1732Z" fill="#7A6D79"/>
<path d="M27.8419 27.2768C27.6176 27.1473 27.3309 27.2241 27.2015 27.4483C27.0721 27.6725 27.1489 27.9592 27.3731 28.0886L27.6531 28.2503C27.8266 27.9911 27.9836 27.7202 28.1231 27.4391L27.8419 27.2768Z" fill="#7A6D79"/>
<path d="M18.3957 29.8071C18.1714 29.6775 17.8847 29.7545 17.7554 29.9787L17.5938 30.2586C17.8529 30.432 18.1238 30.589 18.4049 30.7285L18.5672 30.4474C18.6968 30.2232 18.6199 29.9365 18.3957 29.8071Z" fill="#7A6D79"/>
<path d="M29.1693 24.5247C29.0468 24.5247 28.9257 24.519 28.8053 24.5106C28.6548 28.3449 25.4891 31.418 21.6186 31.418C17.6525 31.418 14.4258 28.1913 14.4258 24.2252C14.4258 20.259 17.6525 17.0323 21.6186 17.0323C22.5516 17.0323 23.4437 17.211 24.2624 17.5357C24.3699 17.2389 24.5043 16.9552 24.6614 16.686C23.721 16.3051 22.694 16.0947 21.6185 16.0947C17.1355 16.0949 13.4883 19.7421 13.4883 24.2252C13.4883 28.7082 17.1355 32.3555 21.6186 32.3555C26.0122 32.3555 29.6025 28.8522 29.7441 24.4924C29.5552 24.5132 29.3636 24.5247 29.1693 24.5247V24.5247Z" fill="#60B7FF"/>
<path d="M21.6176 18.4834C21.3587 18.4834 21.1489 18.6932 21.1489 18.9521V23.9545L17.7598 25.9111C17.5356 26.0405 17.4588 26.3272 17.5883 26.5514C17.6751 26.7018 17.8326 26.7858 17.9946 26.7858C18.0741 26.7858 18.1548 26.7656 18.2286 26.723L21.8518 24.6308C21.9919 24.5497 22.0864 24.3986 22.0864 24.2251V18.9522C22.0864 18.6933 21.8765 18.4834 21.6176 18.4834V18.4834Z" fill="#0593FC"/>
<path d="M29.1684 24.5872C32.0842 24.5872 34.448 22.2234 34.448 19.3075C34.448 16.3916 32.0842 14.0278 29.1684 14.0278C26.2525 14.0278 23.8887 16.3916 23.8887 19.3075C23.8887 22.2234 26.2525 24.5872 29.1684 24.5872Z" fill="#7A6D79"/>
<path d="M25.9676 19.3075C25.9676 16.7475 27.7897 14.6136 30.2077 14.1307C29.8717 14.0636 29.5242 14.0278 29.1684 14.0278C26.2525 14.0278 23.8887 16.3916 23.8887 19.3075C23.8887 22.2234 26.2525 24.5872 29.1684 24.5872C29.5242 24.5872 29.8716 24.5515 30.2077 24.4843C27.7897 24.0015 25.9676 21.8675 25.9676 19.3075V19.3075Z" fill="#685E68"/>
<path d="M31.3873 21.2489C30.066 21.2489 28.9949 20.1778 28.9949 18.8564C28.9949 17.8549 29.6104 16.9975 30.4836 16.641C30.594 16.5959 30.5889 16.4381 30.476 16.3999C30.1226 16.2801 29.7403 16.2229 29.3422 16.2418C27.7619 16.3169 26.4827 17.61 26.424 19.191C26.3592 20.9395 27.7574 22.3774 29.4915 22.3774C30.3476 22.3774 31.1213 22.0266 31.6779 21.4613C31.7628 21.375 31.6956 21.2319 31.575 21.2415C31.5129 21.2464 31.4504 21.2489 31.3873 21.2489Z" fill="#FED402"/>
<path d="M30.1324 21.7496C28.3983 21.7496 27 20.3117 27.0649 18.5632C27.089 17.9143 27.3189 17.3142 27.6905 16.8267C26.9524 17.3655 26.4599 18.2238 26.424 19.1904C26.3592 20.9389 27.7574 22.3768 29.4914 22.3768C30.3475 22.3768 31.1212 22.026 31.6779 21.4607C31.72 21.4179 31.7246 21.3612 31.7039 21.316C31.2442 21.5909 30.7071 21.7496 30.1324 21.7496V21.7496Z" fill="#FAC600"/>
</g>
<defs>
<clipPath id="clip0_8502_113182">
<rect width="32" height="32" fill="white" transform="translate(12 12)"/>
</clipPath>
</defs>
</svg>
