<svg width="20" height="20" viewBox="0 0 20 20" fill="none" xmlns="http://www.w3.org/2000/svg">
<path d="M9.99935 1.66699C5.40751 1.66699 1.66602 5.40849 1.66602 10.0003C1.66602 11.2758 1.92112 12.5513 2.51636 13.6568V16.803C2.51636 17.1432 2.77146 17.4833 3.19663 17.4833H6.34289C7.44833 18.0786 8.72384 18.3337 9.99935 18.3337C14.5912 18.3337 18.3327 14.5922 18.3327 10.0003C18.3327 5.40849 14.5912 1.66699 9.99935 1.66699ZM7.44833 10.8507C7.02316 10.8507 6.59799 10.4255 6.59799 10.0003C6.59799 9.57516 7.02316 9.14999 7.44833 9.14999C7.8735 9.14999 8.29867 9.57516 8.29867 10.0003C8.29867 10.4255 7.8735 10.8507 7.44833 10.8507ZM9.99935 10.8507C9.57418 10.8507 9.14901 10.4255 9.14901 10.0003C9.14901 9.57516 9.57418 9.14999 9.99935 9.14999C10.4245 9.14999 10.8497 9.57516 10.8497 10.0003C10.8497 10.4255 10.4245 10.8507 9.99935 10.8507ZM12.5504 10.8507C12.1252 10.8507 11.7 10.4255 11.7 10.0003C11.7 9.57516 12.1252 9.14999 12.5504 9.14999C12.9755 9.14999 13.4007 9.57516 13.4007 10.0003C13.4007 10.4255 12.9755 10.8507 12.5504 10.8507Z" fill="#7966FF"/>
</svg>
