<svg width="12" height="14" viewBox="0 0 12 14" fill="none" xmlns="http://www.w3.org/2000/svg">
<path fill-rule="evenodd" clip-rule="evenodd" d="M8.94059 0.84591L8.94125 1.34566C10.7777 1.48959 11.9908 2.74096 11.9928 4.66L12 10.2772C12.0026 12.3695 10.6882 13.6568 8.58121 13.6602L3.4346 13.6668C1.3408 13.6695 0.00988434 12.3515 0.00725147 10.2532L1.10606e-05 4.70198C-0.00262181 2.77028 1.16769 1.52224 3.00412 1.35366L3.00346 0.853906C3.0028 0.560719 3.22002 0.340163 3.50963 0.340163C3.79925 0.339497 4.01646 0.559387 4.01712 0.852573L4.01778 1.31901L7.9276 1.31368L7.92694 0.847243C7.92628 0.554056 8.14349 0.334166 8.43311 0.3335C8.71614 0.332834 8.93994 0.552723 8.94059 0.84591ZM1.01432 4.90787L10.9798 4.89455V4.66133C10.9514 3.22872 10.2327 2.47709 8.94257 2.36515L8.94322 2.87822C8.94322 3.16475 8.72009 3.39197 8.43705 3.39197C8.14744 3.39263 7.92957 3.16608 7.92957 2.87956L7.92891 2.33983L4.01909 2.34516L4.01975 2.88422C4.01975 3.17141 3.8032 3.39796 3.51358 3.39796C3.22396 3.39863 3.00609 3.17274 3.00609 2.88555L3.00543 2.37248C1.72191 2.50108 1.01169 3.25537 1.01367 4.70064L1.01432 4.90787ZM8.15994 7.93636V7.94369C8.16653 8.2502 8.41665 8.48275 8.72009 8.47609C9.01629 8.46876 9.25259 8.21489 9.246 7.90837C9.23218 7.61519 8.99457 7.37597 8.69902 7.37664C8.39624 7.3833 8.15929 7.62985 8.15994 7.93636ZM8.70363 10.9282C8.40085 10.9215 8.15665 10.669 8.15599 10.3625C8.14941 10.056 8.39229 9.80209 8.69508 9.79476H8.70166C9.01102 9.79476 9.2618 10.0473 9.2618 10.3605C9.26246 10.6737 9.01234 10.9275 8.70363 10.9282ZM5.44808 7.94702C5.46125 8.25353 5.71203 8.49275 6.01481 8.47942C6.31101 8.46543 6.54731 8.21222 6.53414 7.90571C6.5269 7.60586 6.28336 7.37264 5.98716 7.37331C5.68438 7.38663 5.44743 7.64051 5.44808 7.94702ZM6.01744 10.8982C5.71466 10.9115 5.46454 10.6723 5.45072 10.3658C5.45072 10.0593 5.68702 9.80609 5.9898 9.7921C6.286 9.79143 6.5302 10.0246 6.53678 10.3238C6.5506 10.631 6.31364 10.8842 6.01744 10.8982ZM2.73622 7.97034C2.74939 8.27685 3.00017 8.51673 3.30295 8.50274C3.59915 8.48941 3.83545 8.23554 3.82163 7.92903C3.81504 7.62918 3.5715 7.39596 3.27465 7.39663C2.97187 7.40996 2.73557 7.66383 2.73622 7.97034ZM3.30558 10.9015C3.0028 10.9155 2.75268 10.6757 2.73886 10.3691C2.7382 10.0626 2.97516 9.80875 3.27794 9.79543C3.57414 9.79476 3.81833 10.028 3.82492 10.3278C3.83874 10.6343 3.60244 10.8882 3.30558 10.9015Z" fill="#A2AEBD"/>
</svg>
