<svg width="18" height="18" viewBox="0 0 18 18" fill="none" xmlns="http://www.w3.org/2000/svg">
<path d="M8.3249 0.883213C8.52023 0.742446 8.75652 0.666504 8.99918 0.666504C9.24184 0.666504 9.47813 0.742446 9.67346 0.883213L16.8686 6.07197C17.7201 6.68677 17.3216 7.98155 16.3079 8.07192H1.69044C0.676751 7.98155 0.279001 6.68677 1.12981 6.07197L8.32566 0.883213H8.3249ZM8.99918 5.8505C9.30058 5.8505 9.58964 5.73344 9.80276 5.52507C10.0159 5.3167 10.1356 5.03409 10.1356 4.73941C10.1356 4.44474 10.0159 4.16213 9.80276 3.95376C9.58964 3.74539 9.30058 3.62833 8.99918 3.62833C8.69778 3.62833 8.40873 3.74539 8.19561 3.95376C7.98249 4.16213 7.86276 4.44474 7.86276 4.73941C7.86276 5.03409 7.98249 5.3167 8.19561 5.52507C8.40873 5.73344 8.69778 5.8505 8.99918 5.8505ZM13.1661 8.81339H15.0594V13.2577H13.1653V8.81339H13.1661ZM11.6508 13.2577V8.81339H9.7568V13.2577H11.6508ZM8.24157 13.2585V8.81413H6.34752V13.2585H8.24157ZM4.83304 13.2585V8.81413H2.939V13.2585H4.83304ZM3.1284 13.9992C2.47537 13.9992 1.84909 14.2528 1.38732 14.7043C0.92556 15.1557 0.666144 15.7681 0.666144 16.4065V16.7769C0.666901 17.0843 0.921461 17.3332 1.23436 17.3332H16.7633C16.9139 17.3332 17.0585 17.2746 17.165 17.1705C17.2716 17.0663 17.3315 16.925 17.3315 16.7776V16.4073C17.3315 15.7688 17.072 15.1565 16.6103 14.705C16.1485 14.2536 15.5222 13.9999 14.8692 13.9999H3.12916L3.1284 13.9992Z" fill="#A2AEBD"/>
</svg>
