<svg width="18" height="18" viewBox="0 0 18 18" fill="none" xmlns="http://www.w3.org/2000/svg">
<path fill-rule="evenodd" clip-rule="evenodd" d="M0.666016 9.01284C0.666016 4.62293 4.17435 0.666992 9.01602 0.666992C13.7493 0.666992 17.3327 4.54781 17.3327 8.98781C17.3327 14.1372 13.1327 17.3337 8.99935 17.3337C7.63268 17.3337 6.11602 16.9664 4.89935 16.2487C4.47435 15.99 4.11602 15.798 3.65768 15.9482L1.97435 16.449C1.54935 16.5825 1.16602 16.2487 1.29102 15.798L1.84935 13.9286C1.94102 13.6698 1.92435 13.3944 1.79102 13.1774C1.07435 11.8588 0.666016 10.4149 0.666016 9.01284ZM7.91601 9.01284C7.91601 9.6054 8.39101 10.0811 8.98268 10.0895C9.57435 10.0895 10.0493 9.6054 10.0493 9.02119C10.0493 8.42863 9.57435 7.95292 8.98268 7.95292C8.39935 7.94457 7.91601 8.42863 7.91601 9.01284ZM11.7577 9.02119C11.7577 9.6054 12.2327 10.0895 12.8243 10.0895C13.416 10.0895 13.891 9.6054 13.891 9.02119C13.891 8.42863 13.416 7.95292 12.8243 7.95292C12.2327 7.95292 11.7577 8.42863 11.7577 9.02119ZM5.14102 10.0895C4.55768 10.0895 4.07435 9.6054 4.07435 9.02119C4.07435 8.42863 4.54935 7.95292 5.14102 7.95292C5.73268 7.95292 6.20768 8.42863 6.20768 9.02119C6.20768 9.6054 5.73268 10.0811 5.14102 10.0895Z" fill="#02C5DD"/>
</svg>
