<svg width="18" height="18" viewBox="0 0 18 18" fill="none" xmlns="http://www.w3.org/2000/svg">
<path fill-rule="evenodd" clip-rule="evenodd" d="M9.27133 0.840735C9.40441 0.721284 9.58045 0.658671 9.76063 0.666703C13.5696 0.780728 16.753 3.54585 17.3299 7.24154C17.3336 7.26361 17.3336 7.28611 17.3299 7.30818C17.3424 7.48304 17.2833 7.65555 17.1657 7.78756C17.0482 7.91956 16.8818 8.00017 16.7036 8.01157L10.304 8.4336C10.0924 8.45236 9.88247 8.38272 9.72589 8.24178C9.5693 8.10084 9.48054 7.90167 9.4814 7.69319L9.05124 1.40711V1.30346C9.05907 1.12666 9.13826 0.960185 9.27133 0.840735ZM8.83239 10.0773L14.3792 9.72191L14.4169 9.73672C14.6551 9.74061 14.882 9.8372 15.0476 10.0052C15.2132 10.1732 15.3039 10.3989 15.2999 10.6326C15.0813 13.8177 12.7462 16.4789 9.56832 17.1645C6.3905 17.8502 3.13283 16.3955 1.5725 13.5943C1.1137 12.7874 0.823768 11.8988 0.719727 10.9806C0.679375 10.7085 0.661708 10.4337 0.666901 10.1588C0.677418 6.7719 3.08875 3.84857 6.46274 3.13227C6.87118 3.05582 7.2807 3.25975 7.4589 3.62834C7.50326 3.69523 7.53876 3.76738 7.56455 3.84306C7.6278 4.81935 7.6934 5.7864 7.75873 6.74936C7.81032 7.50991 7.86175 8.26792 7.9117 9.02593C7.90912 9.20448 7.93718 9.3822 7.99471 9.55162C8.13014 9.88497 8.46715 10.0965 8.83239 10.0773Z" fill="#A2AEBD"/>
</svg>
