<svg width="14" height="14" viewBox="0 0 14 14" fill="none" xmlns="http://www.w3.org/2000/svg">
<path fill-rule="evenodd" clip-rule="evenodd" d="M1.17007 1.17007C1.39682 0.943311 1.76447 0.943311 1.99122 1.17007L7 6.17884L12.0088 1.17007C12.2355 0.943311 12.6032 0.943311 12.8299 1.17007C13.0567 1.39682 13.0567 1.76447 12.8299 1.99122L7.82116 7L12.8299 12.0088C13.0567 12.2355 13.0567 12.6032 12.8299 12.8299C12.6032 13.0567 12.2355 13.0567 12.0088 12.8299L7 7.82116L1.99122 12.8299C1.76447 13.0567 1.39682 13.0567 1.17007 12.8299C0.943311 12.6032 0.943311 12.2355 1.17007 12.0088L6.17884 7L1.17007 1.99122C0.943311 1.76447 0.943311 1.39682 1.17007 1.17007Z" fill="#A2AEBD" stroke="#A2AEBD" stroke-width="0.4" stroke-linecap="round" stroke-linejoin="round"/>
</svg>
