<svg width="24" height="25" viewBox="0 0 24 25" fill="none" xmlns="http://www.w3.org/2000/svg">
<rect y="0.148438" width="24" height="24" rx="12" fill="#FF9F43"/>
<path fill-rule="evenodd" clip-rule="evenodd" d="M8.07601 7.14844H11.9374C13.5521 7.14844 14.6794 8.26113 14.6794 9.85571V14.4412C14.6794 16.0357 13.5521 17.1484 11.9374 17.1484H8.07601C6.46133 17.1484 5.33398 16.0357 5.33398 14.4412V9.85571C5.33398 8.26113 6.46133 7.14844 8.07601 7.14844ZM17.306 8.73443C17.5986 8.58553 17.942 8.60109 18.2213 8.77707C18.5006 8.95236 18.6673 9.25693 18.6673 9.58993V14.7074C18.6673 15.041 18.5006 15.3449 18.2213 15.5202C18.0686 15.6156 17.898 15.6644 17.726 15.6644C17.5826 15.6644 17.4393 15.6305 17.3053 15.5622L16.318 15.064C15.9526 14.8786 15.726 14.5063 15.726 14.0928V10.2038C15.726 9.78959 15.9526 9.41734 16.318 9.23324L17.306 8.73443Z" fill="white"/>
</svg>
