<svg width="56" height="56" viewBox="0 0 56 56" fill="none" xmlns="http://www.w3.org/2000/svg">
<circle cx="28" cy="28" r="28" fill="white"/>
<path d="M22 12H42V42H22V12Z" fill="#FFCF77"/>
<path d="M24 14H42V42H24V14Z" fill="#FFB560"/>
<path d="M24 17H40V35H24V17Z" fill="#71DCF4"/>
<path d="M26 19H40V35H26V19Z" fill="#92EAFF"/>
<path d="M26 20H38V22H26V20Z" fill="#4E5775"/>
<path d="M26 24H38V26H26V24Z" fill="#4E5775"/>
<path d="M26 28H38V30H26V28Z" fill="#4E5775"/>
<path d="M21 43C24.3137 43 27 40.3137 27 37C27 33.6863 24.3137 31 21 31C17.6863 31 15 33.6863 15 37C15 40.3137 17.6863 43 21 43Z" fill="white"/>
<path d="M21 44C19.6155 44 18.2622 43.5895 17.111 42.8203C15.9599 42.0511 15.0627 40.9579 14.5328 39.6788C14.003 38.3997 13.8644 36.9922 14.1345 35.6344C14.4046 34.2765 15.0713 33.0292 16.0503 32.0503C17.0292 31.0713 18.2765 30.4046 19.6344 30.1345C20.9922 29.8644 22.3997 30.003 23.6788 30.5328C24.9579 31.0627 26.0511 31.9599 26.8203 33.111C27.5895 34.2622 28 35.6155 28 37C27.9979 38.8559 27.2598 40.6352 25.9475 41.9475C24.6352 43.2598 22.8559 43.9979 21 44ZM21 32C20.0111 32 19.0444 32.2932 18.2222 32.8427C17.3999 33.3921 16.759 34.173 16.3806 35.0866C16.0022 36.0002 15.9032 37.0056 16.0961 37.9755C16.289 38.9454 16.7652 39.8363 17.4645 40.5355C18.1637 41.2348 19.0546 41.711 20.0246 41.9039C20.9945 42.0969 21.9998 41.9978 22.9134 41.6194C23.8271 41.241 24.6079 40.6001 25.1574 39.7779C25.7068 38.9556 26 37.9889 26 37C25.9984 35.6744 25.4712 34.4035 24.5338 33.4662C23.5965 32.5289 22.3256 32.0016 21 32Z" fill="#FF6E69"/>
<path d="M24 38H20V34H22V36H24V38Z" fill="#4E5775"/>
</svg>
