<svg width="56" height="56" viewBox="0 0 56 56" fill="none" xmlns="http://www.w3.org/2000/svg">
<circle cx="28" cy="28" r="28" fill="white"/>
<g clip-path="url(#clip0_8502_113358)">
<path d="M23.0508 41.7735L23.7351 38.2129L28 36.624L32.2648 38.2129L32.9491 41.7735L28 42.8868L23.0508 41.7735Z" fill="#21386B"/>
<path d="M43.4288 35.6958C43.2898 36.8316 42.369 37.7085 41.2275 37.7896C32.4092 38.4187 23.591 38.4187 14.7726 37.7896C13.6311 37.7085 12.7104 36.8316 12.5713 35.6958C11.8096 29.4781 11.8096 23.261 12.5713 17.0433C12.7103 15.9076 13.6311 15.0306 14.7726 14.9489C15.6084 14.8896 16.4435 14.8356 17.2792 14.7873C23.3605 14.4357 29.441 14.3836 35.5223 14.6301C37.4242 14.7068 39.3255 14.8136 41.2275 14.9488C42.369 15.0306 43.2897 15.9075 43.4288 17.0433C44.1905 23.261 44.1905 29.4781 43.4288 35.6958Z" fill="#26457D"/>
<path d="M36.2559 25.6903C36.111 27.4333 34.7132 28.8053 32.9671 28.9109C32.2743 28.9528 31.5809 28.9875 30.8881 29.0164C30.5005 29.0326 30.1329 29.1948 29.8579 29.4691L27.4383 31.8893C26.8962 32.4308 26.0186 32.4308 25.4771 31.8893L23.0569 29.4691C22.7825 29.1948 22.4149 29.0325 22.0267 29.0164C21.3339 28.9874 20.6411 28.9527 19.9477 28.9109C18.2022 28.8053 16.8037 27.4333 16.6595 25.6903C16.4052 22.6301 16.4052 19.5698 16.6595 16.5102C16.7123 15.8721 16.9331 15.2824 17.2782 14.7873C23.3595 14.4357 29.44 14.3836 35.5213 14.6301C35.9321 15.1561 36.1974 15.8026 36.2559 16.5096C36.5096 19.5698 36.5096 22.6301 36.2559 25.6903Z" fill="#21386B"/>
<path d="M15.3407 37.8297C15.1514 37.8168 14.9621 37.8039 14.7728 37.7904C13.6312 37.7087 12.7099 36.8317 12.5708 35.6959C11.8097 29.4782 11.8097 23.2611 12.5708 17.0434C12.7099 15.9077 13.6312 15.0307 14.7728 14.949C14.9621 14.9355 15.1514 14.9225 15.3407 14.9097C14.926 15.305 14.6453 15.84 14.5713 16.4427C13.7607 23.0609 13.7607 29.6784 14.5713 36.2967C14.6453 36.8993 14.926 37.4344 15.3407 37.8297Z" fill="#21386B"/>
<path d="M41.7307 33.4565C41.6772 34.016 41.2246 34.4525 40.6644 34.4892C36.4555 34.7654 32.2009 34.9058 28.001 34.9058C23.8012 34.9058 19.5465 34.7654 15.3377 34.4892C14.7775 34.4525 14.3249 34.016 14.2714 33.4565C13.7602 28.0764 13.8323 22.6442 14.4897 17.2789C14.516 17.0613 14.6931 16.892 14.9107 16.8765C15.4864 16.8353 16.0632 16.7967 16.6414 16.7619C20.4209 16.5281 24.2338 16.4097 28.001 16.4097C30.7412 16.4097 33.5066 16.4721 36.2649 16.5964C37.8777 16.6685 39.4887 16.7619 41.0912 16.8765C41.3089 16.8919 41.4859 17.0613 41.5123 17.2789C42.1697 22.6442 42.2419 28.0764 41.7307 33.4565Z" fill="#F9DA41"/>
<path d="M36.2559 25.6909C36.111 27.4338 34.7132 28.8059 32.9671 28.9114C32.2743 28.9533 31.5808 28.9881 30.8881 29.017C30.5005 29.0331 30.1328 29.1954 29.8579 29.4696L27.4383 31.8899C26.8962 32.4314 26.0186 32.4314 25.4771 31.8899L23.0568 29.4696C22.7825 29.1953 22.4149 29.0331 22.0267 29.017C21.3338 28.988 20.6411 28.9532 19.9477 28.9114C18.2022 28.8059 16.8037 27.4338 16.6595 25.6909C16.4122 22.7143 16.4052 19.7377 16.6395 16.7619C20.419 16.5281 24.2319 16.4097 27.9991 16.4097C30.7393 16.4097 33.5047 16.4721 36.263 16.5964C36.5096 19.6277 36.507 22.6595 36.2559 25.6909Z" fill="#EDC932"/>
<path d="M28.0004 37.1391C27.7338 37.1391 27.5176 36.9229 27.5176 36.6562V36.624C27.5176 36.3573 27.7338 36.1411 28.0004 36.1411C28.2671 36.1411 28.4833 36.3573 28.4833 36.624V36.6562C28.4833 36.9229 28.2671 37.1391 28.0004 37.1391Z" fill="#21386B"/>
<path d="M35.5605 43.9997H20.4415C19.8266 43.9997 19.3281 43.5012 19.3281 42.8863C19.3281 42.2715 19.8266 41.7729 20.4415 41.7729H35.5604C36.1753 41.7729 36.6738 42.2715 36.6738 42.8863C36.6738 43.5013 36.1754 43.9997 35.5605 43.9997Z" fill="#26457D"/>
<path d="M23.4437 43.9994H20.4414C19.8265 43.9994 19.3281 43.5011 19.3281 42.8862C19.3281 42.5791 19.453 42.3003 19.6539 42.0988C19.8554 41.8979 20.1342 41.7729 20.4413 41.7729H23.4436C23.1359 41.7729 22.8577 41.8978 22.6562 42.0988C22.4546 42.3003 22.3304 42.5791 22.3304 42.8862C22.3304 43.5011 22.8288 43.9994 23.4437 43.9994Z" fill="#21386B"/>
<path d="M34.518 12.1983C30.1729 11.9345 25.8279 11.9345 21.4829 12.1983C19.7402 12.3042 18.3465 13.6785 18.2022 15.4185C17.9483 18.4785 17.9482 21.5387 18.2021 24.5987C18.3467 26.3418 19.745 27.7142 21.4908 27.8195C22.1838 27.8613 22.8768 27.8963 23.5698 27.9249C23.9578 27.9408 24.3252 28.1033 24.5997 28.3778L27.02 30.7981C27.5615 31.3396 28.4394 31.3396 28.9809 30.7981L31.4012 28.3778C31.6757 28.1033 32.0432 27.9409 32.431 27.9249C33.124 27.8964 33.817 27.8613 34.51 27.8195C36.2559 27.7142 37.6542 26.3418 37.7988 24.5987C38.0527 21.5387 38.0526 18.4785 37.7987 15.4185C37.6543 13.6785 36.2607 12.3042 34.518 12.1983Z" fill="#9DC6FB"/>
<path d="M28.5946 31.0706C28.0802 31.3153 27.4459 31.2238 27.0204 30.7982L24.6 28.3779C24.3251 28.1036 23.9581 27.9413 23.5699 27.9253C22.877 27.8963 22.1842 27.8615 21.4908 27.8197C19.7453 27.7141 18.3468 26.342 18.2019 24.5991C17.9482 21.5388 17.9482 18.4791 18.2025 15.4188C18.3468 13.679 19.7401 12.3044 21.483 12.1988C21.6221 12.1904 21.7612 12.182 21.9003 12.1743C20.7607 12.6688 19.9365 13.8162 19.8302 15.187C19.5881 18.2924 19.5881 21.3971 19.8302 24.5019C19.9673 26.2706 21.2989 27.6633 22.9607 27.7702C23.62 27.8127 24.28 27.8481 24.9394 27.8771C25.3089 27.8932 25.6585 28.058 25.92 28.3368L28.2237 30.7926C28.3345 30.9103 28.4607 31.0036 28.5946 31.0706Z" fill="#80B4FB"/>
<path d="M34.5604 17.0403C34.5535 17.0403 34.5467 17.0402 34.5397 17.0399C30.2003 16.8564 25.7998 16.8564 21.4603 17.0399C21.1944 17.0506 20.9687 16.8443 20.9575 16.5778C20.9462 16.3114 21.1531 16.0862 21.4195 16.0749C25.786 15.8904 30.214 15.8904 34.5805 16.0749C34.8469 16.0862 35.0539 16.3114 35.0425 16.5778C35.0316 16.8373 34.8177 17.0403 34.5604 17.0403Z" fill="#21386B"/>
<path d="M34.8215 19.9741H21.1782C20.9115 19.9741 20.6953 19.7579 20.6953 19.4912C20.6953 19.2245 20.9115 19.0083 21.1782 19.0083H34.8216C35.0883 19.0083 35.3045 19.2245 35.3045 19.4912C35.3045 19.7579 35.0883 19.9741 34.8215 19.9741Z" fill="#21386B"/>
<path d="M28 23.0447C25.8013 23.0447 23.6028 22.9986 21.4195 22.9063C21.1531 22.895 20.9462 22.6698 20.9575 22.4034C20.9688 22.137 21.1925 21.9306 21.4603 21.9413C25.7997 22.1248 30.2002 22.1248 34.5397 21.9413C34.8069 21.9303 35.0313 22.137 35.0425 22.4034C35.0539 22.6698 34.8469 22.895 34.5805 22.9063C32.3972 22.9986 30.1986 23.0447 28 23.0447Z" fill="#21386B"/>
</g>
<defs>
<clipPath id="clip0_8502_113358">
<rect width="32" height="32" fill="white" transform="translate(12 12)"/>
</clipPath>
</defs>
</svg>
