<svg width="57" height="56" viewBox="0 0 57 56" fill="none" xmlns="http://www.w3.org/2000/svg">
<circle cx="28.5" cy="28" r="28" fill="white"/>
<g clip-path="url(#clip0_3375_33563)">
<path d="M35.7852 19.3867L38.2933 16.8786L39.6188 18.204L37.1106 20.7122L35.7852 19.3867Z" fill="#5F5166"/>
<path d="M36.4473 20.0508L38.9554 17.5426L39.6182 18.2053L37.11 20.7135L36.4473 20.0508Z" fill="#45354D"/>
<path d="M28.5 40.1875C24.5285 40.1875 22.0346 38.2807 21.8469 38.1953L20.9698 35.5302L18.3046 34.6531C18.2153 34.4566 16.3125 32.0259 16.3125 28C16.3125 21.28 21.78 15.8125 28.5 15.8125C35.22 15.8125 40.6875 21.28 40.6875 28C40.6875 34.72 35.22 40.1875 28.5 40.1875Z" fill="#FF7F40"/>
<path d="M21.8478 38.1958C22.0355 38.2812 24.5294 40.188 28.5009 40.188C35.2209 40.188 40.6884 34.7205 40.6884 28.0005C40.6884 24.6405 39.3215 21.5936 37.1146 19.3867L20.9707 35.5307L21.8478 38.1958Z" fill="#F25A3C"/>
<path d="M28.5 36.4375C23.8473 36.4375 20.0625 32.6527 20.0625 28C20.0625 23.3473 23.8473 19.5625 28.5 19.5625C33.1527 19.5625 36.9375 23.3473 36.9375 28C36.9375 32.6527 33.1527 36.4375 28.5 36.4375Z" fill="#F3F5F9"/>
<path d="M28.5006 36.4381C33.1533 36.4381 36.9381 32.6533 36.9381 28.0006C36.9381 25.6742 35.9919 23.5649 34.4641 22.0371L22.5371 33.9641C24.0649 35.4919 26.1742 36.4381 28.5006 36.4381Z" fill="#E1E6F0"/>
<path d="M28.5 32.6875C25.9154 32.6875 23.8125 30.5846 23.8125 28C23.8125 25.4154 25.9154 23.3125 28.5 23.3125C31.0846 23.3125 33.1875 25.4154 33.1875 28C33.1875 30.5846 31.0846 32.6875 28.5 32.6875Z" fill="#FF7F40"/>
<path d="M28.5004 32.6879C31.085 32.6879 33.1879 30.585 33.1879 28.0004C33.1879 26.7082 32.6622 25.5363 31.8134 24.6875L25.1875 31.3134C26.0363 32.1622 27.2082 32.6879 28.5004 32.6879Z" fill="#F25A3C"/>
<path d="M40.4612 21.6764L38.2813 18.2194L34.8242 16.0395L44.5007 12L40.4612 21.6764Z" fill="#CFD7E6"/>
<path d="M40.4611 21.6764L44.5007 12L38.2812 18.2194L40.4611 21.6764Z" fill="#A3B1CC"/>
<path d="M22.7812 35.0313L21.2523 35.2261L21.4688 33.7188L17.4563 32.4062L12.5 37.3188L16.5563 38.6501L18.0836 38.457L17.8688 39.9626L19.1813 44.0001L24.0938 39.0438L22.7812 35.0313Z" fill="#59ABFF"/>
<path d="M18.0839 38.4569L17.8691 39.9625L19.1816 44L24.0941 39.0438L22.7816 35.0312L21.2775 35.2229L18.0375 38.4628L18.0839 38.4569Z" fill="#4D87FF"/>
<path d="M29.1566 28.6562L17.8691 39.9625L17.2035 39.2969L16.5566 38.65L27.8441 27.3438L29.1566 28.6562Z" fill="#5F5166"/>
<path d="M29.1562 28.6562L17.8688 39.9625L17.2031 39.2969L28.5 28L29.1562 28.6562Z" fill="#45354D"/>
</g>
<defs>
<clipPath id="clip0_3375_33563">
<rect width="32" height="32" fill="white" transform="translate(12.5 12)"/>
</clipPath>
</defs>
</svg>
