<svg width="32" height="32" viewBox="0 0 32 32" fill="none" xmlns="http://www.w3.org/2000/svg">
<path d="M16 32C24.8366 32 32 24.8366 32 16C32 7.16344 24.8366 0 16 0C7.16344 0 0 7.16344 0 16C0 24.8366 7.16344 32 16 32Z" fill="#FF9F43"/>
<path fill-rule="evenodd" clip-rule="evenodd" d="M18.0637 9.70174L24.121 20.2143C24.2544 20.5281 24.3127 20.7833 24.3293 21.0484C24.3627 21.6677 24.146 22.2696 23.7211 22.7329C23.2962 23.1945 22.7213 23.467 22.0964 23.5H9.89844C9.64015 23.4843 9.38186 23.4257 9.14023 23.3349C7.9321 22.8477 7.34887 21.4769 7.84045 20.2887L13.9394 9.69431C14.1477 9.3219 14.4643 9.00068 14.8559 8.79424C15.9891 8.16585 17.4305 8.57872 18.0637 9.70174ZM16.7223 16.6298C16.7223 17.0261 16.3973 17.3573 15.9974 17.3573C15.5975 17.3573 15.2642 17.0261 15.2642 16.6298V14.2937C15.2642 13.8965 15.5975 13.5753 15.9974 13.5753C16.3973 13.5753 16.7223 13.8965 16.7223 14.2937V16.6298ZM15.9974 20.1813C15.5975 20.1813 15.2642 19.8502 15.2642 19.4547C15.2642 19.0575 15.5975 18.7272 15.9974 18.7272C16.3973 18.7272 16.7223 19.05 16.7223 19.4456C16.7223 19.8502 16.3973 20.1813 15.9974 20.1813Z" fill="white"/>
</svg>
