<svg width="16" height="18" viewBox="0 0 16 18" fill="none" xmlns="http://www.w3.org/2000/svg">
<path fill-rule="evenodd" clip-rule="evenodd" d="M14.9059 3.36849C15.2301 3.36849 15.5 3.63765 15.5 3.98015V4.29681C15.5 4.63098 15.2301 4.90847 14.9059 4.90847H1.09488C0.769883 4.90847 0.5 4.63098 0.5 4.29681V3.98015C0.5 3.63765 0.769883 3.36849 1.09488 3.36849H3.52464C4.01821 3.36849 4.44775 3.01766 4.55879 2.52266L4.68603 1.95434C4.88378 1.18018 5.53458 0.666016 6.27939 0.666016H9.72061C10.4573 0.666016 11.1154 1.18018 11.3059 1.9135L11.442 2.52183C11.5522 3.01766 11.9818 3.36849 12.4762 3.36849H14.9059ZM13.6715 14.9444C13.9252 12.5802 14.3693 6.96362 14.3693 6.90695C14.3855 6.73529 14.3296 6.57279 14.2186 6.44196C14.0994 6.31946 13.9487 6.24696 13.7826 6.24696H2.22377C2.05681 6.24696 1.89796 6.31946 1.78774 6.44196C1.6759 6.57279 1.62079 6.73529 1.62889 6.90695C1.63038 6.91737 1.64632 7.11521 1.67296 7.44597C1.79132 8.91534 2.12097 13.0078 2.33399 14.9444C2.48474 16.371 3.42082 17.2677 4.77672 17.3002C5.82302 17.3244 6.90093 17.3327 8.00316 17.3327C9.04136 17.3327 10.0958 17.3244 11.1745 17.3002C12.5774 17.276 13.5127 16.3952 13.6715 14.9444Z" fill="#EA5455"/>
</svg>
