<svg width="24" height="25" viewBox="0 0 24 25" fill="none" xmlns="http://www.w3.org/2000/svg">
<rect y="0.148438" width="24" height="24" rx="12" fill="#6984BA"/>
<path fill-rule="evenodd" clip-rule="evenodd" d="M15.6825 9.07976V10.102C16.8307 10.4604 17.6673 11.4998 17.6673 12.7414V16.0326C17.6673 17.5696 16.3931 18.8158 14.8221 18.8158H9.17985C7.60822 18.8158 6.33398 17.5696 6.33398 16.0326V12.7414C6.33398 11.4998 7.17128 10.4604 8.31884 10.102V9.07976C8.32562 7.09228 9.97176 5.48242 11.9905 5.48242C14.0363 5.48242 15.6825 7.09228 15.6825 9.07976ZM12.004 6.64178C13.3792 6.64178 14.497 7.7349 14.497 9.07976V9.95822H9.50434V9.06651C9.51111 7.72827 10.6289 6.64178 12.004 6.64178ZM12.5934 15.119C12.5934 15.4437 12.3292 15.702 11.9973 15.702C11.6721 15.702 11.4079 15.4437 11.4079 15.119V13.6483C11.4079 13.3303 11.6721 13.0719 11.9973 13.0719C12.3292 13.0719 12.5934 13.3303 12.5934 13.6483V15.119Z" fill="white"/>
</svg>
