<svg width="56" height="56" viewBox="0 0 56 56" fill="none" xmlns="http://www.w3.org/2000/svg">
<circle cx="28" cy="28" r="28" fill="white"/>
<path d="M40.0337 39.0347V41.7933C40.0319 42.402 39.5389 42.8949 38.9302 42.8967H16.8613C16.2526 42.8949 15.7596 42.402 15.7578 41.7933V39.0347H40.0337Z" fill="#E4C05C"/>
<path d="M36.7246 23.9229V14.7588H38.9315C39.5402 14.7606 40.0331 15.2536 40.035 15.8622V26.0305L36.7246 23.9229Z" fill="#E4C05C"/>
<path d="M30.3407 40.1379H14.1034C13.4948 40.1361 13.0018 39.6431 13 39.0345V19.7241H19.6207C20.2294 19.7223 20.7223 19.2294 20.7241 18.6207V12H36.1724C36.7811 12.0018 37.274 12.4948 37.2759 13.1034V23.9228L30.3407 40.1379Z" fill="#F9EAB0"/>
<path d="M17.9646 38.4832H15.206C14.9013 38.4832 14.6543 38.2362 14.6543 37.9314V35.1728C14.6543 34.8681 14.9013 34.6211 15.206 34.6211C15.5107 34.6211 15.7577 34.8681 15.7577 35.1728V37.3797H17.9646C18.2693 37.3797 18.5164 37.6267 18.5164 37.9314C18.5164 38.2362 18.2693 38.4832 17.9646 38.4832Z" fill="white"/>
<path d="M35.0682 17.5173C34.7635 17.5173 34.5164 17.2703 34.5164 16.9656V14.7587H32.3095C32.0048 14.7587 31.7578 14.5117 31.7578 14.207C31.7578 13.9023 32.0048 13.6553 32.3095 13.6553H35.0682C35.3729 13.6553 35.6199 13.9023 35.6199 14.207V16.9656C35.6199 17.2703 35.3729 17.5173 35.0682 17.5173Z" fill="white"/>
<path d="M20.7241 12V18.6207C20.7223 19.2294 20.2294 19.7223 19.6207 19.7241H13L20.7241 12Z" fill="#F3D55B"/>
<path d="M40.548 37.0647C40.2775 37.4331 39.9787 37.7799 39.6542 38.1019C39.144 38.6149 38.5712 39.0616 37.9494 39.4315C35.6517 40.8087 32.8531 41.0684 30.3411 40.1378C29.1496 39.6984 28.0687 39.0035 27.1742 38.1019C24.1285 35.0531 23.7294 30.2507 26.23 26.7409C28.7305 23.2311 33.3999 22.0398 37.2763 23.9226C38.1589 24.3512 38.9629 24.9257 39.6542 25.6219C39.7866 25.7543 39.9135 25.8922 40.0349 26.0302C42.7705 29.1337 42.9838 33.7207 40.548 37.0647Z" fill="#24AE5F"/>
<path d="M40.5479 26.6651C36.9017 24.9101 32.5291 25.859 29.9383 28.9674C27.3475 32.0759 27.202 36.5479 29.5852 39.8182C25.1958 37.6944 23.3593 32.4144 25.4831 28.0251C27.6069 23.6358 32.8869 21.7992 37.2762 23.923C38.1588 24.3516 38.9628 24.9261 39.6541 25.6223C39.7866 25.7548 39.9135 25.8927 40.0348 26.0306C40.2169 26.2348 40.3879 26.4499 40.5479 26.6651Z" fill="#4FBA6F"/>
<path d="M30.2371 36.8656L27.2787 33.9072C27.0633 33.6918 27.0633 33.3425 27.2787 33.1271L28.0589 32.347C28.2743 32.1316 28.6236 32.1316 28.839 32.347L30.7149 34.2228L38.0809 27.9061C38.3124 27.7079 38.6606 27.7348 38.8589 27.9663L39.5761 28.8043C39.7745 29.0356 39.7478 29.3839 39.5165 29.5823L30.9869 36.8943C30.7679 37.0823 30.441 37.0698 30.2371 36.8656Z" fill="white"/>
<path d="M25.6898 23.5859H15.7588C15.454 23.5859 15.207 23.3389 15.207 23.0341C15.207 22.7294 15.454 22.4824 15.7588 22.4824H25.6898C25.9945 22.4824 26.2415 22.7294 26.2415 23.0341C26.2415 23.3389 25.9945 23.5859 25.6898 23.5859Z" fill="#A59078"/>
<path d="M24.5808 25.7924H15.7588C15.454 25.7924 15.207 25.5454 15.207 25.2407C15.207 24.936 15.454 24.689 15.7588 24.689H24.5808C24.8855 24.689 25.1325 24.936 25.1325 25.2407C25.1325 25.5454 24.8855 25.7924 24.5808 25.7924Z" fill="#A59078"/>
<path d="M23.2953 27.9994H15.7588C15.454 27.9994 15.207 27.7524 15.207 27.4477C15.207 27.143 15.454 26.896 15.7588 26.896H23.2953C23.6 26.896 23.847 27.143 23.847 27.4477C23.847 27.7524 23.6 27.9994 23.2953 27.9994Z" fill="#A59078"/>
<path d="M22.6001 30.207H15.7588C15.454 30.207 15.207 29.9599 15.207 29.6552C15.207 29.3505 15.454 29.1035 15.7588 29.1035H22.6001C22.9048 29.1035 23.1519 29.3505 23.1519 29.6552C23.1519 29.9599 22.9048 30.207 22.6001 30.207Z" fill="#A59078"/>
<path d="M22.3794 32.4135H15.7588C15.454 32.4135 15.207 32.1665 15.207 31.8618C15.207 31.5571 15.454 31.3101 15.7588 31.3101H22.3794C22.6841 31.3101 22.9312 31.5571 22.9312 31.8618C22.9312 32.1665 22.6841 32.4135 22.3794 32.4135Z" fill="#A59078"/>
<path d="M33.3975 41.2339C32.2886 41.2355 31.1882 41.0397 30.1479 40.6557C28.8807 40.19 27.7317 39.451 26.7823 38.4913C24.3136 36.1429 23.3126 32.6405 24.1674 29.3422C25.0223 26.0439 27.5986 23.4687 30.8973 22.6152C34.1959 21.7617 37.6979 22.7642 40.0452 25.2339C40.1837 25.3729 40.3211 25.5197 40.448 25.6664C43.3423 28.9692 43.568 33.8345 40.992 37.3911L40.9892 37.3939C40.7023 37.786 40.385 38.1549 40.0403 38.4973C39.498 39.0422 38.8892 39.5165 38.2284 39.9092C36.7677 40.7799 35.098 41.2378 33.3975 41.2339ZM33.4179 23.5864C30.072 23.5874 27.0558 25.603 25.7749 28.694C24.4939 31.785 25.2002 35.3432 27.5647 37.7106C28.4019 38.5569 29.4151 39.2086 30.5324 39.6195C32.8885 40.4846 35.509 40.2414 37.6656 38.9575C38.2492 38.6107 38.7868 38.1918 39.2656 37.7106C42.3684 34.6309 42.525 29.6639 39.6226 26.3947C39.5079 26.2634 39.3887 26.1343 39.2656 26.0085C37.7159 24.4559 35.6116 23.5844 33.4179 23.5864Z" fill="#ECF0F1"/>
</svg>
