<svg width="57" height="56" viewBox="0 0 57 56" fill="none" xmlns="http://www.w3.org/2000/svg">
<circle cx="28.5" cy="28" r="28" fill="white"/>
<g clip-path="url(#clip0_3375_33599)">
<path d="M27.8896 38.667H15.6997C14.5215 38.667 13.5664 37.7119 13.5664 36.5338V34.4004H29.9387L27.8896 38.667Z" fill="#D3DCFB"/>
<path d="M41.3018 21.601V30.5633V36.5342H15.6997C14.5215 36.5342 13.5664 35.5791 13.5664 34.4009V21.601L28.5008 16.2676L41.3018 21.601Z" fill="#EBF5FC"/>
<path d="M17.3345 25.8657H16.2012C15.925 25.8657 15.7012 25.6419 15.7012 25.3657V24.2324C15.7012 23.9563 15.925 23.7324 16.2012 23.7324H17.3345C17.6106 23.7324 17.8345 23.9563 17.8345 24.2324V25.3657C17.8345 25.6419 17.6106 25.8657 17.3345 25.8657Z" fill="#3C58A0"/>
<path d="M21.6021 25.8657H20.4688C20.1926 25.8657 19.9688 25.6419 19.9688 25.3657V24.2324C19.9688 23.9563 20.1926 23.7324 20.4688 23.7324H21.6021C21.8782 23.7324 22.1021 23.9563 22.1021 24.2324V25.3657C22.1021 25.6419 21.8782 25.8657 21.6021 25.8657Z" fill="#3C58A0"/>
<path d="M25.8677 25.8657H24.7344C24.4582 25.8657 24.2344 25.6419 24.2344 25.3657V24.2324C24.2344 23.9563 24.4582 23.7324 24.7344 23.7324H25.8677C26.1438 23.7324 26.3677 23.9563 26.3677 24.2324V25.3657C26.3677 25.6419 26.1439 25.8657 25.8677 25.8657Z" fill="#3C58A0"/>
<path d="M30.1353 25.8657H29.002C28.7258 25.8657 28.502 25.6419 28.502 25.3657V24.2324C28.502 23.9563 28.7258 23.7324 29.002 23.7324H30.1353C30.4114 23.7324 30.6353 23.9563 30.6353 24.2324V25.3657C30.6353 25.6419 30.4114 25.8657 30.1353 25.8657Z" fill="#3C58A0"/>
<path d="M34.4009 25.8657H33.2676C32.9915 25.8657 32.7676 25.6419 32.7676 25.3657V24.2324C32.7676 23.9563 32.9915 23.7324 33.2676 23.7324H34.4009C34.677 23.7324 34.9009 23.9563 34.9009 24.2324V25.3657C34.9009 25.6419 34.6771 25.8657 34.4009 25.8657Z" fill="#3C58A0"/>
<path d="M38.6665 25.8657H37.5332C37.2571 25.8657 37.0332 25.6419 37.0332 25.3657V24.2324C37.0332 23.9563 37.2571 23.7324 37.5332 23.7324H38.6665C38.9426 23.7324 39.1665 23.9563 39.1665 24.2324V25.3657C39.1665 25.6419 38.9426 25.8657 38.6665 25.8657Z" fill="#3C58A0"/>
<path d="M17.3345 30.1333H16.2012C15.925 30.1333 15.7012 29.9094 15.7012 29.6333V28.5C15.7012 28.2239 15.925 28 16.2012 28H17.3345C17.6106 28 17.8345 28.2239 17.8345 28.5V29.6333C17.8345 29.9095 17.6106 30.1333 17.3345 30.1333Z" fill="#3C58A0"/>
<path d="M21.6021 30.1333H20.4688C20.1926 30.1333 19.9688 29.9094 19.9688 29.6333V28.5C19.9688 28.2239 20.1926 28 20.4688 28H21.6021C21.8782 28 22.1021 28.2239 22.1021 28.5V29.6333C22.1021 29.9095 21.8782 30.1333 21.6021 30.1333Z" fill="#3C58A0"/>
<path d="M25.8677 30.1333H24.7344C24.4582 30.1333 24.2344 29.9094 24.2344 29.6333V28.5C24.2344 28.2239 24.4582 28 24.7344 28H25.8677C26.1438 28 26.3677 28.2239 26.3677 28.5V29.6333C26.3677 29.9095 26.1439 30.1333 25.8677 30.1333Z" fill="#3C58A0"/>
<path d="M30.6353 30.1333V28.5333C30.6353 28.2387 30.3965 28 30.102 28H29.0353C28.7407 28 28.502 28.2387 28.502 28.5333V29.6C28.502 29.8946 28.7408 30.1333 29.0353 30.1333H30.6353Z" fill="#3C58A0"/>
<path d="M17.3345 34.3989H16.2012C15.925 34.3989 15.7012 34.1751 15.7012 33.8989V32.7656C15.7012 32.4895 15.925 32.2656 16.2012 32.2656H17.3345C17.6106 32.2656 17.8345 32.4895 17.8345 32.7656V33.8989C17.8345 34.1751 17.6106 34.3989 17.3345 34.3989Z" fill="#3C58A0"/>
<path d="M21.6021 34.3989H20.4688C20.1926 34.3989 19.9688 34.1751 19.9688 33.8989V32.7656C19.9688 32.4895 20.1926 32.2656 20.4688 32.2656H21.6021C21.8782 32.2656 22.1021 32.4895 22.1021 32.7656V33.8989C22.1021 34.1751 21.8782 34.3989 21.6021 34.3989Z" fill="#3C58A0"/>
<path d="M25.8677 34.3989H24.7344C24.4582 34.3989 24.2344 34.1751 24.2344 33.8989V32.7656C24.2344 32.4895 24.4582 32.2656 24.7344 32.2656H25.8677C26.1438 32.2656 26.3677 32.4895 26.3677 32.7656V33.8989C26.3677 34.1751 26.1439 34.3989 25.8677 34.3989Z" fill="#3C58A0"/>
<path d="M38.6514 23.7324H37.5483C37.4815 23.7324 37.4179 23.7455 37.3594 23.7686C37.5503 23.844 37.6856 24.0297 37.6856 24.2475V25.3506C37.6856 25.5684 37.5502 25.7541 37.3594 25.8295C37.4179 25.8526 37.4815 25.8657 37.5483 25.8657H38.6514C38.9359 25.8657 39.1665 25.6351 39.1665 25.3507V24.2475C39.1664 23.963 38.9358 23.7324 38.6514 23.7324Z" fill="#2A428C"/>
<path d="M34.3838 23.7324H33.2807C33.2139 23.7324 33.1504 23.7455 33.0918 23.7686C33.2827 23.844 33.418 24.0297 33.418 24.2475V25.3506C33.418 25.5684 33.2827 25.7541 33.0918 25.8295C33.1504 25.8526 33.2139 25.8657 33.2807 25.8657H34.3838C34.6683 25.8657 34.8989 25.6351 34.8989 25.3507V24.2475C34.8989 23.963 34.6683 23.7324 34.3838 23.7324Z" fill="#2A428C"/>
<path d="M30.1182 23.7324H29.015C28.9483 23.7324 28.8847 23.7455 28.8262 23.7686C29.0171 23.844 29.1524 24.0297 29.1524 24.2475V25.3506C29.1524 25.5684 29.0171 25.7541 28.8262 25.8295C28.8847 25.8526 28.9483 25.8657 29.015 25.8657H30.1182C30.4027 25.8657 30.6333 25.6351 30.6333 25.3507V24.2475C30.6332 23.963 30.4026 23.7324 30.1182 23.7324Z" fill="#2A428C"/>
<path d="M25.8525 23.7324H24.7494C24.6827 23.7324 24.6191 23.7455 24.5605 23.7686C24.7515 23.844 24.8868 24.0297 24.8868 24.2475V25.3506C24.8868 25.5684 24.7515 25.7541 24.5605 25.8295C24.6191 25.8526 24.6827 25.8657 24.7494 25.8657H25.8525C26.137 25.8657 26.3677 25.6351 26.3677 25.3507V24.2475C26.3676 23.963 26.137 23.7324 25.8525 23.7324Z" fill="#2A428C"/>
<path d="M21.585 23.7324H20.4818C20.4151 23.7324 20.3515 23.7455 20.293 23.7686C20.4839 23.844 20.6192 24.0297 20.6192 24.2475V25.3506C20.6192 25.5684 20.4838 25.7541 20.293 25.8295C20.3515 25.8526 20.4151 25.8657 20.4818 25.8657H21.585C21.8695 25.8657 22.1001 25.6351 22.1001 25.3507V24.2475C22.1001 23.963 21.8695 23.7324 21.585 23.7324Z" fill="#2A428C"/>
<path d="M17.3193 23.7324H16.2162C16.1495 23.7324 16.0859 23.7455 16.0273 23.7686C16.2183 23.844 16.3536 24.0297 16.3536 24.2475V25.3506C16.3536 25.5684 16.2183 25.7541 16.0273 25.8295C16.0859 25.8526 16.1495 25.8657 16.2162 25.8657H17.3193C17.6038 25.8657 17.8345 25.6351 17.8345 25.3507V24.2475C17.8344 23.963 17.6038 23.7324 17.3193 23.7324Z" fill="#2A428C"/>
<path d="M17.3193 28H16.2162C16.1495 28 16.0859 28.0131 16.0273 28.0362C16.2183 28.1116 16.3536 28.2973 16.3536 28.5151V29.6182C16.3536 29.836 16.2183 30.0217 16.0273 30.0971C16.0859 30.1202 16.1495 30.1334 16.2162 30.1334H17.3193C17.6038 30.1334 17.8345 29.9028 17.8345 29.6183V28.5151C17.8344 28.2306 17.6038 28 17.3193 28Z" fill="#2A428C"/>
<path d="M17.3193 32.2676H16.2162C16.1495 32.2676 16.0859 32.2807 16.0273 32.3038C16.2183 32.3791 16.3536 32.5649 16.3536 32.7826V33.8858C16.3536 34.1036 16.2183 34.2893 16.0273 34.3647C16.0859 34.3878 16.1495 34.401 16.2162 34.401H17.3193C17.6038 34.401 17.8345 34.1703 17.8345 33.8859V32.7827C17.8344 32.4981 17.6038 32.2676 17.3193 32.2676Z" fill="#2A428C"/>
<path d="M21.585 28H20.4818C20.4151 28 20.3515 28.0131 20.293 28.0362C20.4839 28.1116 20.6192 28.2973 20.6192 28.5151V29.6182C20.6192 29.836 20.4838 30.0217 20.293 30.0971C20.3515 30.1202 20.4151 30.1334 20.4818 30.1334H21.585C21.8695 30.1334 22.1001 29.9028 22.1001 29.6183V28.5151C22.1001 28.2306 21.8695 28 21.585 28Z" fill="#2A428C"/>
<path d="M21.585 32.2676H20.4818C20.4151 32.2676 20.3515 32.2807 20.293 32.3038C20.4839 32.3791 20.6192 32.5649 20.6192 32.7826V33.8858C20.6192 34.1036 20.4838 34.2893 20.293 34.3647C20.3515 34.3878 20.4151 34.401 20.4818 34.401H21.585C21.8695 34.401 22.1001 34.1703 22.1001 33.8859V32.7827C22.1001 32.4981 21.8695 32.2676 21.585 32.2676Z" fill="#2A428C"/>
<path d="M25.8525 28H24.7494C24.6827 28 24.6191 28.0131 24.5605 28.0362C24.7515 28.1116 24.8868 28.2973 24.8868 28.5151V29.6182C24.8868 29.836 24.7515 30.0217 24.5605 30.0971C24.6191 30.1202 24.6827 30.1334 24.7494 30.1334H25.8525C26.137 30.1334 26.3677 29.9028 26.3677 29.6183V28.5151C26.3676 28.2306 26.137 28 25.8525 28Z" fill="#2A428C"/>
<path d="M30.6333 30.1333V28.5151C30.6333 28.2306 30.4027 28 30.1182 28H29.015C28.9483 28 28.8847 28.0131 28.8262 28.0362C29.0171 28.1116 29.1524 28.2973 29.1524 28.5151V29.6182C29.1524 29.836 29.0171 30.0217 28.8262 30.0971C28.8847 30.1202 28.9483 30.1334 29.015 30.1334H30.6333V30.1333Z" fill="#2A428C"/>
<path d="M25.8525 32.2676H24.7494C24.6827 32.2676 24.6191 32.2807 24.5605 32.3038C24.7515 32.3791 24.8868 32.5649 24.8868 32.7826V33.8858C24.8868 34.1036 24.7515 34.2893 24.5605 34.3647C24.6191 34.3878 24.6827 34.401 24.7494 34.401H25.8525C26.137 34.401 26.3677 34.1703 26.3677 33.8859V32.7827C26.3676 32.4981 26.137 32.2676 25.8525 32.2676Z" fill="#2A428C"/>
<path d="M39.8203 20.9824V30.5622V36.5332H41.3022V30.5622V21.5999L39.8203 20.9824Z" fill="#D3DCFB"/>
<path d="M41.3018 21.5994V16.2661C41.3018 15.0879 40.3467 14.1328 39.1685 14.1328H15.6997C14.5215 14.1328 13.5664 15.0879 13.5664 16.2661V21.5994H41.3018Z" fill="#FF4155"/>
<path d="M20.2875 16.749H18.8989C18.6321 16.749 18.416 16.5328 18.416 16.2661C18.416 15.9994 18.6322 15.7832 18.8989 15.7832H20.2875C20.5542 15.7832 20.7703 15.9994 20.7703 16.2661C20.7703 16.5328 20.5541 16.749 20.2875 16.749Z" fill="#E80054"/>
<path d="M23.6996 16.749H22.311C22.0442 16.749 21.8281 16.5328 21.8281 16.2661C21.8281 15.9994 22.0443 15.7832 22.311 15.7832H23.6996C23.9663 15.7832 24.1824 15.9994 24.1824 16.2661C24.1824 16.5328 23.9663 16.749 23.6996 16.749Z" fill="#E80054"/>
<path d="M32.5551 16.749H31.1665C30.8997 16.749 30.6836 16.5328 30.6836 16.2661C30.6836 15.9994 30.8998 15.7832 31.1665 15.7832H32.5551C32.8218 15.7832 33.038 15.9994 33.038 16.2661C33.038 16.5328 32.8218 16.749 32.5551 16.749Z" fill="#E80054"/>
<path d="M35.9672 16.749H34.5786C34.3118 16.749 34.0957 16.5328 34.0957 16.2661C34.0957 15.9994 34.3119 15.7832 34.5786 15.7832H35.9672C36.234 15.7832 36.4501 15.9994 36.4501 16.2661C36.4501 16.5328 36.2339 16.749 35.9672 16.749Z" fill="#E80054"/>
<path d="M22.6334 16C22.6334 16.7364 22.0365 17.3333 21.3001 17.3333C20.5637 17.3333 19.9668 16.7364 19.9668 16V13.3333C19.9667 12.5969 20.5637 12 21.3 12C22.0364 12 22.6334 12.5969 22.6334 13.3333V16H22.6334Z" fill="#EBF5FC"/>
<path d="M34.9011 16C34.9011 16.7364 34.3041 17.3333 33.5678 17.3333C32.8314 17.3333 32.2344 16.7364 32.2344 16V13.3333C32.2344 12.5969 32.8313 12 33.5677 12C34.3041 12 34.901 12.5969 34.901 13.3333V16H34.9011Z" fill="#EBF5FC"/>
<path d="M33.5679 12C33.2941 12 33.0399 12.0828 32.8281 12.2243C33.1859 12.4634 33.4217 12.8707 33.4217 13.3334V16C33.4217 16.4626 33.1859 16.87 32.8281 17.1091C33.0398 17.2506 33.2941 17.3334 33.5679 17.3334C34.3042 17.3334 34.9012 16.7364 34.9012 16.0001V13.3333C34.9013 12.5969 34.3043 12 33.5679 12V12Z" fill="#D3DCFB"/>
<path d="M21.3003 12C21.0265 12 20.7723 12.0828 20.5605 12.2243C20.9184 12.4634 21.1542 12.8707 21.1542 13.3334V16C21.1542 16.4626 20.9184 16.87 20.5605 17.1091C20.7722 17.2506 21.0265 17.3334 21.3003 17.3334C22.0367 17.3334 22.6336 16.7364 22.6336 16.0001V13.3333C22.6337 12.5969 22.0367 12 21.3003 12V12Z" fill="#D3DCFB"/>
<path d="M39.1689 14.1328H37.6875C38.8657 14.1328 39.8208 15.0879 39.8208 16.2661V21.5995H41.3021V16.2661C41.3022 15.0879 40.3471 14.1328 39.1689 14.1328Z" fill="#E80054"/>
<path d="M13.5664 18.9844H41.3018V19.9502H13.5664V18.9844Z" fill="#E80054"/>
<path d="M35.4336 44C39.8519 44 43.4336 40.4183 43.4336 36C43.4336 31.5817 39.8519 28 35.4336 28C31.0153 28 27.4336 31.5817 27.4336 36C27.4336 40.4183 31.0153 44 35.4336 44Z" fill="#4FABF7"/>
<path d="M35.435 41.8662C38.6751 41.8662 41.3017 39.2396 41.3017 35.9995C41.3017 32.7594 38.6751 30.1328 35.435 30.1328C32.195 30.1328 29.5684 32.7594 29.5684 35.9995C29.5684 39.2396 32.195 41.8662 35.435 41.8662Z" fill="#EBF5FC"/>
<path d="M35.434 35.4156C35.1673 35.4156 34.9512 35.1995 34.9512 34.9328V32.2661C34.9512 31.9994 35.1674 31.7832 35.434 31.7832C35.7008 31.7832 35.9169 31.9994 35.9169 32.2661V34.9328C35.9169 35.1995 35.7007 35.4156 35.434 35.4156Z" fill="#3C58A0"/>
<path d="M38.1005 36.4833H36.5005C36.2337 36.4833 36.0176 36.2671 36.0176 36.0005C36.0176 35.7338 36.2338 35.5176 36.5005 35.5176H38.1005C38.3673 35.5176 38.5834 35.7338 38.5834 36.0005C38.5834 36.2671 38.3672 36.4833 38.1005 36.4833Z" fill="#3C58A0"/>
<path d="M35.4339 28C35.1842 28 34.9373 28.0121 34.6934 28.0344C38.7645 28.4081 41.9529 31.8314 41.9529 36C41.9529 40.1686 38.7644 43.5919 34.6934 43.9656C34.9372 43.9879 35.1841 44 35.4338 44C39.852 44 43.4338 40.4183 43.4338 36C43.4338 31.5817 39.8521 28 35.4339 28Z" fill="#1886EA"/>
<path d="M35.4333 30.1328C35.1827 30.1328 34.9357 30.1486 34.6934 30.1791C37.5841 30.5429 39.8201 33.0101 39.8201 35.9995C39.8201 38.9889 37.5841 41.4561 34.6934 41.8199C34.9357 41.8504 35.1827 41.8662 35.4333 41.8662C38.6734 41.8662 41.3 39.2396 41.3 35.9995C41.3 32.7594 38.6734 30.1328 35.4333 30.1328Z" fill="#D3DCFB"/>
<path d="M35.4339 37.067C36.023 37.067 36.5006 36.5894 36.5006 36.0003C36.5006 35.4112 36.023 34.9336 35.4339 34.9336C34.8448 34.9336 34.3672 35.4112 34.3672 36.0003C34.3672 36.5894 34.8448 37.067 35.4339 37.067Z" fill="#FFDD40"/>
</g>
<defs>
<clipPath id="clip0_3375_33599">
<rect width="32" height="32" fill="white" transform="translate(12.5 12)"/>
</clipPath>
</defs>
</svg>
