<svg width="18" height="18" viewBox="0 0 18 18" fill="none" xmlns="http://www.w3.org/2000/svg">
<path d="M11.9481 8.5752C13.8284 8.5752 15.3669 7.04458 15.3669 5.17384C15.3669 3.30309 13.8284 1.77248 11.9481 1.77248C11.8626 1.77248 11.7771 1.77248 11.6917 1.77248C12.2045 2.62282 12.5464 3.64322 12.5464 4.66363C12.5464 6.10921 11.9481 7.46975 11.0079 8.49016C11.2643 8.5752 11.6062 8.5752 11.9481 8.5752Z" fill="#A2AEBD"/>
<path d="M13.4011 10.3608H12.5464C13.8285 11.4662 14.6832 13.1669 14.6832 15.0377C14.6832 15.4628 14.5977 15.803 14.5122 16.1431C15.6233 15.973 16.3071 15.7179 16.7344 15.4628C17.1618 15.2077 17.3327 14.7826 17.3327 14.2724C17.3327 12.1465 15.5379 10.3608 13.4011 10.3608Z" fill="#A2AEBD"/>
<path d="M6.81984 8.57516C7.84548 8.57516 8.70018 8.23502 9.46941 7.55475C10.3241 6.87448 10.7515 5.76903 10.7515 4.66359C10.7515 3.81325 10.4951 2.96291 9.98223 2.36767C9.29847 1.34726 8.18736 0.666992 6.81984 0.666992C4.68309 0.666992 2.88822 2.45271 2.88822 4.57856C2.88822 6.78944 4.68309 8.57516 6.81984 8.57516Z" fill="#A2AEBD"/>
<path d="M9.12755 10.6161C8.87114 10.6161 8.7002 10.531 8.44379 10.531H5.19593C2.7173 10.531 0.666016 12.5718 0.666016 15.0378C0.666016 15.6331 0.922426 16.0582 1.34978 16.3984C2.03354 16.8235 3.65747 17.3337 6.81986 17.3337C9.98225 17.3337 11.5207 16.8235 12.2899 16.3984C12.2899 16.3984 12.3754 16.3133 12.4609 16.3133C12.8028 16.0582 13.0592 15.6331 13.0592 15.0378C12.9737 12.8269 11.3498 10.9562 9.12755 10.6161Z" fill="#A2AEBD"/>
</svg>
