<svg width="45" height="49" viewBox="0 0 45 49" fill="none" xmlns="http://www.w3.org/2000/svg">
<path d="M0.666016 42V0H22.8327L33.3327 10.5V42H0.666016Z" fill="#CFD8DC"/>
<path d="M0.666016 42V0H22.8327L33.3327 10.5V42H0.666016Z" fill="#B0BEC5"/>
<path d="M3 39.6663V2.33301H25.1667L31 8.16634V39.6663H3Z" fill="white"/>
<path d="M22.832 10.5V0L33.332 10.5H22.832Z" fill="#B0BEC5"/>
<path d="M22.832 10.5L33.332 14V10.5H22.832Z" fill="#90A4AE"/>
<path d="M26.332 31.5H21.6654V19.8334H26.332V31.5Z" fill="#2196F3"/>
<path d="M19.332 31.5H14.6654V23.3334H19.332V31.5Z" fill="#FF9800"/>
<path d="M12.332 31.5H7.66537V15.1667H12.332V31.5Z" fill="#4CAF50"/>
<path d="M34.5 49C40.299 49 45 44.299 45 38.5C45 32.701 40.299 28 34.5 28C28.701 28 24 32.701 24 38.5C24 44.299 28.701 49 34.5 49Z" fill="#F44336"/>
<path d="M37.2988 33.8252L39.1654 35.6918L31.6999 43.1574L29.8333 41.2908L37.2988 33.8252Z" fill="white"/>
<path d="M39.1738 41.2988L37.3072 43.1654L29.8417 35.6999L31.7083 33.8333L39.1738 41.2988Z" fill="white"/>
</svg>
