<svg width="18" height="18" viewBox="0 0 18 18" fill="none" xmlns="http://www.w3.org/2000/svg">
<g opacity="0.5">
<path fill-rule="evenodd" clip-rule="evenodd" d="M9.2553 0.81056L16.8572 4.57421C17.0957 4.69207 17.2499 4.96303 17.2496 5.2621C17.2494 5.56143 17.0943 5.83187 16.8557 5.94903L9.25379 9.68776C9.17303 9.72763 9.08644 9.74756 9.00004 9.74756C8.91364 9.74756 8.82727 9.72763 8.74606 9.68776L1.14415 5.94907C0.905738 5.83168 0.750663 5.56147 0.750244 5.26214C0.750019 4.9628 0.904223 4.69211 1.14264 4.57421L8.74454 0.81056C8.90761 0.729813 9.09204 0.729813 9.2553 0.81056ZM17.1974 12.4439C17.0564 12.0643 16.6748 11.8885 16.3467 12.0515L9.00006 15.6888L1.65342 12.0515C1.32407 11.888 0.943761 12.0645 0.802737 12.4439C0.661488 12.8232 0.813759 13.2629 1.14266 13.4256L8.74457 17.1896C8.8262 17.2299 8.91325 17.2501 9.00006 17.2501C9.08688 17.2501 9.17393 17.2299 9.25556 17.1896L16.8575 13.4256C17.1862 13.2629 17.3384 12.8232 17.1974 12.4439ZM16.3481 8.31226C16.677 8.15047 17.0575 8.32721 17.1981 8.70681C17.3383 9.08689 17.1852 9.52607 16.8561 9.68782L9.25415 13.4266C9.17317 13.4664 9.08658 13.4864 9.00018 13.4864C8.91378 13.4864 8.82741 13.4664 8.7462 13.4266L1.14429 9.68786C0.815159 9.52611 0.66205 9.08692 0.802429 8.70681C0.942615 8.32721 1.32311 8.15024 1.65247 8.31226L9.00018 11.9261L16.3481 8.31226Z" fill="white"/>
</g>
</svg>
