<svg width="24" height="24" viewBox="0 0 24 24" fill="none" xmlns="http://www.w3.org/2000/svg">
<rect width="24" height="24" rx="12" fill="#5A8DEE"/>
<path fill-rule="evenodd" clip-rule="evenodd" d="M9.20667 5.33301H14.794C16.8533 5.33301 18 6.51967 18 8.55301V15.4397C18 17.5063 16.8533 18.6663 14.794 18.6663H9.20667C7.18 18.6663 6 17.5063 6 15.4397V8.55301C6 6.51967 7.18 5.33301 9.20667 5.33301ZM9.38667 8.43967V8.43301H11.3793C11.6667 8.43301 11.9 8.66634 11.9 8.95234C11.9 9.24634 11.6667 9.47967 11.3793 9.47967H9.38667C9.09933 9.47967 8.86667 9.24634 8.86667 8.95967C8.86667 8.67301 9.09933 8.43967 9.38667 8.43967ZM9.38667 12.493H14.6133C14.9 12.493 15.1333 12.2597 15.1333 11.973C15.1333 11.6863 14.9 11.4523 14.6133 11.4523H9.38667C9.09933 11.4523 8.86667 11.6863 8.86667 11.973C8.86667 12.2597 9.09933 12.493 9.38667 12.493ZM9.38667 15.5397H14.6133C14.8793 15.513 15.08 15.2857 15.08 15.0197C15.08 14.7463 14.8793 14.5197 14.6133 14.493H9.38667C9.18667 14.473 8.99333 14.5663 8.88667 14.7397C8.78 14.9063 8.78 15.1263 8.88667 15.2997C8.99333 15.4663 9.18667 15.5663 9.38667 15.5397Z" fill="white"/>
</svg>
