<svg width="20" height="20" viewBox="0 0 20 20" fill="none" xmlns="http://www.w3.org/2000/svg">
<path fill-rule="evenodd" clip-rule="evenodd" d="M0.931175 0.931297C1.28391 0.578565 1.8558 0.578565 2.20853 0.931297L9.99996 8.72273L17.7914 0.931297C18.1441 0.578565 18.716 0.578565 19.0687 0.931297C19.4215 1.28403 19.4215 1.85592 19.0687 2.20865L11.2773 10.0001L19.0687 17.7915C19.4215 18.1442 19.4215 18.7161 19.0687 19.0689C18.716 19.4216 18.1441 19.4216 17.7914 19.0689L9.99996 11.2774L2.20853 19.0689C1.8558 19.4216 1.28391 19.4216 0.931175 19.0689C0.578443 18.7161 0.578443 18.1442 0.931175 17.7915L8.7226 10.0001L0.931175 2.20865C0.578443 1.85592 0.578443 1.28403 0.931175 0.931297Z" fill="#A2AEBD"/>
</svg>
