<svg width="56" height="56" viewBox="0 0 56 56" fill="none" xmlns="http://www.w3.org/2000/svg">
<path d="M28.0001 56.0001C43.4641 56.0001 56.0001 43.4641 56.0001 28.0001C56.0001 12.5361 43.4641 0 28.0001 0C12.5361 0 0 12.5361 0 28.0001C0 43.4641 12.5361 56.0001 28.0001 56.0001Z" fill="#E24C4B"/>
<path d="M56.0001 27.9999C56.0001 43.4 43.4001 56 28 56C19.0751 56 11.2001 51.975 6.125 45.5C10.85 49.35 16.975 51.6251 23.625 51.6251C39.025 51.6251 51.625 39.0251 51.625 23.625C51.625 16.975 49.35 10.85 45.5 6.125C51.9751 11.1998 56.0001 19.0748 56.0001 27.9999Z" fill="#D1403F"/>
<path d="M40.7749 40.7749C39.725 41.8249 37.9749 41.8249 36.9249 40.7749L27.9999 31.85L19.075 40.7749C18.025 41.8249 16.2749 41.8249 15.225 40.7749C14.175 39.725 14.175 37.9749 15.225 36.9249L24.1499 27.9999L15.225 19.075C14.175 18.025 14.175 16.2749 15.225 15.225C16.2749 14.175 18.025 14.175 19.075 15.225L27.9999 24.1499L36.9249 15.225C37.9749 14.175 39.725 14.175 40.7749 15.225C41.8249 16.2749 41.8249 18.025 40.7749 19.075L31.85 27.9999L40.7749 36.9249C41.8249 37.9749 41.8249 39.7248 40.7749 40.7749Z" fill="white"/>
</svg>
