<svg width="19" height="18" viewBox="0 0 19 18" fill="none" xmlns="http://www.w3.org/2000/svg">
<path d="M17.4981 4.62737H15.5816V1.14139C15.5816 0.808764 15.312 0.539062 14.9793 0.539062H4.75821C4.42559 0.539062 4.15588 0.808729 4.15588 1.14139V4.62737H2.23938C1.46444 4.62737 0.833984 5.25786 0.833984 6.0328V12.0925C0.833984 12.8675 1.46444 13.4979 2.23938 13.4979H4.15596V16.7312C4.15596 17.0638 4.42562 17.3335 4.75829 17.3335H14.9792C15.3118 17.3335 15.5815 17.0638 15.5815 16.7312V13.4979H17.4981C18.2731 13.4979 18.9035 12.8675 18.9035 12.0925V6.0328C18.9035 5.25789 18.2731 4.62737 17.4981 4.62737ZM5.36051 1.74372H14.377V4.62737H5.36051V1.74372ZM14.3769 16.1288H5.36061C5.36061 16.0111 5.36061 11.3467 5.36061 11.2011H14.3769C14.3769 11.3503 14.3769 16.0157 14.3769 16.1288ZM14.9793 8.16416H13.4461C13.1135 8.16416 12.8438 7.89449 12.8438 7.56183C12.8438 7.22917 13.1134 6.9595 13.4461 6.9595H14.9793C15.3119 6.9595 15.5816 7.22917 15.5816 7.56183C15.5816 7.89449 15.312 8.16416 14.9793 8.16416Z" fill="#A2AEBD"/>
</svg>
