<svg width="74" height="74" viewBox="0 0 74 74" fill="none" xmlns="http://www.w3.org/2000/svg">
<g filter="url(#filter0_d_1018_23770)">
<circle cx="37" cy="33" r="27" fill="white"/>
<circle cx="37" cy="33" r="26.5" stroke="#DBDFEF" stroke-opacity="0.5"/>
</g>
<path d="M29.5 27.25V22.75C29.5 22.49 29.53 22.24 29.6 22H26.75C25.79 22 25 22.79 25 23.75V28.25C25 29.21 25.79 30 26.75 30H27.12L28.4 31.7C28.54 31.88 28.75 31.99 28.97 32H29C29.22 32 29.42 31.91 29.56 31.74L31.06 30.03C30.13 29.45 29.5 28.42 29.5 27.25Z" fill="#FF9F43"/>
<path d="M47.2495 22H44.3995C44.4695 22.24 44.4995 22.49 44.4995 22.75V27.25C44.4995 28.42 43.8695 29.45 42.9395 30.03L44.4395 31.74C44.5795 31.91 44.7795 32 44.9995 32H45.0295C45.2495 31.99 45.4595 31.88 45.5995 31.7L46.8695 30H47.2495C48.2095 30 48.9995 29.21 48.9995 28.25V23.75C48.9995 22.79 48.2095 22 47.2495 22Z" fill="#FF9F43"/>
<path d="M37 31C36.991 31 36.981 31 36.972 31C36.746 30.991 36.536 30.881 36.4 30.7L35.125 29H32.75C31.785 29 31 28.215 31 27.25V22.75C31 21.785 31.785 21 32.75 21H41.25C42.215 21 43 21.785 43 22.75V27.25C43 28.215 42.215 29 41.25 29H39.09L37.564 30.744C37.422 30.907 37.216 31 37 31Z" fill="#FF9F43"/>
<path d="M29 38C30.1046 38 31 37.1046 31 36C31 34.8954 30.1046 34 29 34C27.8954 34 27 34.8954 27 36C27 37.1046 27.8954 38 29 38Z" fill="#FF9F43"/>
<path d="M31.67 39.4C30.66 40.16 30 41.38 30 42.75V43H25.75C25.34 43 25 42.66 25 42.25V41.75C25 40.23 26.23 39 27.75 39H30.25C30.77 39 31.26 39.15 31.67 39.4Z" fill="#FF9F43"/>
<path d="M45 38C46.1046 38 47 37.1046 47 36C47 34.8954 46.1046 34 45 34C43.8954 34 43 34.8954 43 36C43 37.1046 43.8954 38 45 38Z" fill="#FF9F43"/>
<path d="M49.0001 41.75V42.25C49.0001 42.66 48.6601 43 48.2501 43H44.0001V42.75C44.0001 41.38 43.3401 40.16 42.3301 39.4C42.7401 39.15 43.2301 39 43.7501 39H46.2501C47.7701 39 49.0001 40.23 49.0001 41.75Z" fill="#FF9F43"/>
<path d="M37 38.5C38.6569 38.5 40 37.1569 40 35.5C40 33.8431 38.6569 32.5 37 32.5C35.3431 32.5 34 33.8431 34 35.5C34 37.1569 35.3431 38.5 37 38.5Z" fill="#FF9F43"/>
<path d="M39.75 40H34.25C32.733 40 31.5 41.233 31.5 42.75V44.25C31.5 44.664 31.836 45 32.25 45H41.75C42.164 45 42.5 44.664 42.5 44.25V42.75C42.5 41.233 41.267 40 39.75 40Z" fill="#FF9F43"/>
<defs>
<filter id="filter0_d_1018_23770" x="0" y="0" width="74" height="74" filterUnits="userSpaceOnUse" color-interpolation-filters="sRGB">
<feFlood flood-opacity="0" result="BackgroundImageFix"/>
<feColorMatrix in="SourceAlpha" type="matrix" values="0 0 0 0 0 0 0 0 0 0 0 0 0 0 0 0 0 0 127 0" result="hardAlpha"/>
<feOffset dy="4"/>
<feGaussianBlur stdDeviation="5"/>
<feColorMatrix type="matrix" values="0 0 0 0 0.396078 0 0 0 0 0.4 0 0 0 0 0.913725 0 0 0 0.05 0"/>
<feBlend mode="normal" in2="BackgroundImageFix" result="effect1_dropShadow_1018_23770"/>
<feBlend mode="normal" in="SourceGraphic" in2="effect1_dropShadow_1018_23770" result="shape"/>
</filter>
</defs>
</svg>
