<svg width="56" height="56" viewBox="0 0 56 56" fill="none" xmlns="http://www.w3.org/2000/svg">
<path d="M0 18C0 8.05888 8.05887 0 18 0H38C47.9411 0 56 8.05887 56 18V38C56 47.9411 47.9411 56 38 56H18C8.05888 56 0 47.9411 0 38V18Z" fill="#28C76F"/>
<path fill-rule="evenodd" clip-rule="evenodd" d="M30.2554 16.9251H35.031C40.771 16.9251 43.571 19.9895 43.5554 26.274V33.8495C43.5554 39.854 39.8532 43.5562 33.8332 43.5562H22.151C16.1621 43.5562 12.4443 39.854 12.4443 33.834V22.1518C12.4443 15.7118 15.3066 12.4451 20.9532 12.4451H23.411C24.8592 12.4295 26.211 13.0984 27.0977 14.234L28.4666 16.054C28.9021 16.5984 29.5554 16.9251 30.2554 16.9251ZM20.7977 33.1184H35.2021C35.8399 33.1184 36.3532 32.5895 36.3532 31.9518C36.3532 31.2984 35.8399 30.7851 35.2021 30.7851H20.7977C20.1443 30.7851 19.631 31.2984 19.631 31.9518C19.631 32.5895 20.1443 33.1184 20.7977 33.1184Z" fill="white"/>
</svg>
