<svg width="16" height="18" viewBox="0 0 16 18" fill="none" xmlns="http://www.w3.org/2000/svg">
<path d="M5.61297 16.3105V13.7624C5.61297 13.1119 6.14413 12.5846 6.79935 12.5846H9.19449C9.50914 12.5846 9.8109 12.7087 10.0334 12.9296C10.2559 13.1504 10.3809 13.45 10.3809 13.7624V16.3105C10.3789 16.5809 10.4857 16.8409 10.6776 17.0328C10.8695 17.2247 11.1307 17.3327 11.4031 17.3327H13.0372C13.8003 17.3346 14.5329 17.0351 15.0733 16.5C15.6136 15.965 15.9173 15.2385 15.9173 14.4809V7.22173C15.9173 6.60973 15.644 6.02922 15.1712 5.63657L9.61234 1.22924C8.64537 0.456484 7.25991 0.481434 6.32181 1.2885L0.889828 5.63657C0.394602 6.01764 0.0986113 6.59988 0.0839844 7.22173V14.4735C0.0839844 16.0526 1.37347 17.3327 2.96413 17.3327H4.56089C5.12667 17.3327 5.58648 16.8795 5.59058 16.3179L5.61297 16.3105Z" fill="#7966FF"/>
</svg>
