<svg width="24" height="24" viewBox="0 0 24 24" fill="none" xmlns="http://www.w3.org/2000/svg">
<rect width="24" height="24" rx="12" fill="#7966FF"/>
<path fill-rule="evenodd" clip-rule="evenodd" d="M14.9406 5.84542L14.9412 6.34517C16.7777 6.4891 17.9908 7.74047 17.9927 9.65951L18 15.2767C18.0026 17.369 16.6882 18.6563 14.5812 18.6597L9.43459 18.6663C7.3408 18.669 6.00988 17.351 6.00724 15.2527L6 9.70149C5.99737 7.76979 7.16768 6.52175 9.00411 6.35317L9.00346 5.85342C9.0028 5.56023 9.22001 5.33967 9.50963 5.33967C9.79924 5.33901 10.0165 5.5589 10.0171 5.85208L10.0178 6.31852L13.9276 6.31319L13.9269 5.84675C13.9263 5.55357 14.1435 5.33368 14.4331 5.33301C14.7161 5.33234 14.9399 5.55223 14.9406 5.84542ZM7.01432 9.90738L16.9797 9.89406V9.66084C16.9514 8.22823 16.2327 7.4766 14.9426 7.36466L14.9432 7.87773C14.9432 8.16426 14.7201 8.39148 14.437 8.39148C14.1474 8.39214 13.9296 8.16559 13.9296 7.87907L13.9289 7.33934L10.0191 7.34467L10.0197 7.88373C10.0197 8.17092 9.80319 8.39747 9.51357 8.39747C9.22396 8.39814 9.00609 8.17225 9.00609 7.88506L9.00543 7.37199C7.7219 7.50059 7.01168 8.25488 7.01366 9.70015L7.01432 9.90738ZM14.1599 12.9359V12.9432C14.1665 13.2497 14.4166 13.4823 14.7201 13.4756C15.0163 13.4683 15.2526 13.2144 15.246 12.9079C15.2322 12.6147 14.9946 12.3755 14.699 12.3761C14.3962 12.3828 14.1593 12.6294 14.1599 12.9359ZM14.7036 15.9277C14.4008 15.921 14.1566 15.6685 14.156 15.362C14.1494 15.0555 14.3923 14.8016 14.6951 14.7943H14.7017C15.011 14.7943 15.2618 15.0468 15.2618 15.36C15.2625 15.6732 15.0123 15.927 14.7036 15.9277ZM11.4481 12.9465C11.4612 13.253 11.712 13.4923 12.0148 13.4789C12.311 13.4649 12.5473 13.2117 12.5341 12.9052C12.5269 12.6054 12.2834 12.3721 11.9872 12.3728C11.6844 12.3861 11.4474 12.64 11.4481 12.9465ZM12.0174 15.8977C11.7147 15.911 11.4645 15.6718 11.4507 15.3653C11.4507 15.0588 11.687 14.8056 11.9898 14.7916C12.286 14.7909 12.5302 15.0242 12.5368 15.3233C12.5506 15.6305 12.3136 15.8837 12.0174 15.8977ZM8.73622 12.9699C8.74938 13.2764 9.00016 13.5162 9.30294 13.5023C9.59914 13.4889 9.83544 13.2351 9.82162 12.9285C9.81504 12.6287 9.5715 12.3955 9.27464 12.3961C8.97186 12.4095 8.73556 12.6633 8.73622 12.9699ZM9.30558 15.901C9.0028 15.915 8.75267 15.6752 8.73885 15.3686C8.73819 15.0621 8.97515 14.8083 9.27793 14.7949C9.57413 14.7943 9.81833 15.0275 9.82491 15.3273C9.83873 15.6338 9.60243 15.8877 9.30558 15.901Z" fill="white"/>
</svg>
