<svg width="16" height="15" viewBox="0 0 16 15" fill="none" xmlns="http://www.w3.org/2000/svg">
<path d="M8 0C3.86735 0 0.5 3.36735 0.5 7.5C0.5 11.6327 3.86735 15 8 15C12.1327 15 15.5 11.6327 15.5 7.5C15.5 3.36735 12.1327 0 8 0ZM8 11.7092C7.61735 11.7092 7.23469 11.3265 7.23469 10.9439C7.23469 10.5612 7.61735 10.1786 8 10.1786C8.38265 10.1786 8.76531 10.5612 8.76531 10.9439C8.76531 11.3265 8.38265 11.7092 8 11.7092ZM9.76021 6.73469C9.60714 6.96429 9.45408 7.19388 9.22449 7.42347C8.84184 7.88265 8.53572 8.26531 8.53572 8.64796C8.53572 8.95408 8.30612 9.26021 7.92347 9.26021C7.54082 9.26021 7.31123 9.03061 7.31123 8.64796C7.31123 7.88265 7.84694 7.19388 8.22959 6.65816C8.38265 6.5051 8.53572 6.27551 8.68878 6.04592C8.76531 5.89286 8.84184 5.7398 8.84184 5.5102C8.84184 4.97449 8.38265 4.59184 7.92347 4.59184C7.46429 4.59184 7.0051 5.05102 7.0051 5.5102C7.0051 5.81633 6.77551 6.12245 6.39286 6.12245C6.0102 6.12245 5.85714 5.89286 5.85714 5.58674C5.85714 4.43878 6.77551 3.44388 8 3.44388C9.22449 3.44388 10.1429 4.36225 10.1429 5.58674C10.1429 5.96939 9.9898 6.35204 9.76021 6.73469Z" fill="#667793"/>
</svg>
