<svg width="24" height="25" viewBox="0 0 24 25" fill="none" xmlns="http://www.w3.org/2000/svg">
<rect y="0.148438" width="24" height="24" rx="12" fill="#EE755A"/>
<path d="M12.0007 5.48242C8.32718 5.48242 5.33398 8.47562 5.33398 12.1491C5.33398 15.8226 8.32718 18.8158 12.0007 18.8158C15.6741 18.8158 18.6673 15.8226 18.6673 12.1491C18.6673 8.47562 15.6741 5.48242 12.0007 5.48242ZM12.0007 15.8906C11.6605 15.8906 11.3204 15.5505 11.3204 15.2103C11.3204 14.8702 11.6605 14.53 12.0007 14.53C12.3408 14.53 12.6809 14.8702 12.6809 15.2103C12.6809 15.5505 12.3408 15.8906 12.0007 15.8906ZM13.5653 11.4688C13.4292 11.6729 13.2932 11.877 13.0891 12.0811C12.749 12.4892 12.4768 12.8294 12.4768 13.1695C12.4768 13.4416 12.2728 13.7137 11.9326 13.7137C11.5925 13.7137 11.3884 13.5096 11.3884 13.1695C11.3884 12.4892 11.8646 11.877 12.2047 11.4008C12.3408 11.2647 12.4768 11.0607 12.6129 10.8566C12.6809 10.7205 12.749 10.5845 12.749 10.3804C12.749 9.90419 12.3408 9.56406 11.9326 9.56406C11.5245 9.56406 11.1163 9.97222 11.1163 10.3804C11.1163 10.6525 10.9122 10.9246 10.5721 10.9246C10.2319 10.9246 10.0959 10.7205 10.0959 10.4484C10.0959 9.428 10.9122 8.54365 12.0007 8.54365C13.0891 8.54365 13.9054 9.35997 13.9054 10.4484C13.9054 10.7885 13.7694 11.1287 13.5653 11.4688Z" fill="white"/>
</svg>
