<svg width="24" height="24" viewBox="0 0 24 24" fill="none" xmlns="http://www.w3.org/2000/svg">
<rect width="24" height="24" rx="12" fill="#7966FF"/>
<path d="M18.301 14.1919V9.80806C18.7674 9.62134 19.0979 9.16509 19.0979 8.63281C19.0979 7.93494 18.5301 7.36719 17.8322 7.36719C17.5368 7.36719 17.2649 7.46922 17.0493 7.63953L13.2525 5.44741C13.2611 5.388 13.2657 5.32734 13.2657 5.26562C13.2657 4.56775 12.698 4 12.0001 4C11.3022 4 10.7345 4.56775 10.7345 5.26562C10.7345 5.32738 10.7392 5.38803 10.7477 5.44741L6.95091 7.63953C6.73531 7.46922 6.46341 7.36719 6.16797 7.36719C5.47009 7.36719 4.90234 7.93494 4.90234 8.63281C4.90234 9.16509 5.23281 9.62138 5.69922 9.80806V14.1919C5.23281 14.3787 4.90234 14.8349 4.90234 15.3672C4.90234 16.0651 5.47009 16.6328 6.16797 16.6328C6.46341 16.6328 6.73531 16.5308 6.95091 16.3605L10.7477 18.5526C10.7392 18.612 10.7345 18.6727 10.7345 18.7344C10.7345 19.4323 11.3022 20 12.0001 20C12.698 20 13.2657 19.4323 13.2657 18.7344C13.2657 18.6726 13.2611 18.612 13.2525 18.5526L17.0493 16.3605C17.2649 16.5308 17.5368 16.6328 17.8323 16.6328C18.5302 16.6328 19.0979 16.0651 19.0979 15.3672C19.0979 14.8349 18.7674 14.3786 18.301 14.1919ZM6.63672 14.1919V9.80806C6.75053 9.76253 6.85616 9.70097 6.95091 9.62609L10.0264 11.4018C9.96887 11.5912 9.93762 11.792 9.93762 12C9.93762 12.208 9.96887 12.4088 10.0264 12.5983L6.95091 14.3739C6.85616 14.299 6.75053 14.2375 6.63672 14.1919ZM11.5314 17.5591C11.4176 17.6047 11.312 17.6662 11.2172 17.7411L7.42034 15.5489C7.42894 15.4895 7.43359 15.4289 7.43359 15.3672C7.43362 15.3054 7.42894 15.2448 7.42037 15.1854L10.4964 13.4094C10.7704 13.7017 11.1283 13.914 11.5314 14.0081V17.5591ZM11.5314 9.99188C11.1283 10.0859 10.7704 10.2983 10.4964 10.5905L7.42037 8.81459C7.42897 8.75519 7.43362 8.69453 7.43362 8.63278C7.43362 8.57103 7.42897 8.51038 7.42037 8.451L11.2172 6.25887C11.312 6.33378 11.4176 6.39534 11.5314 6.44088V9.99188ZM12.4689 6.44088C12.5827 6.39531 12.6883 6.33375 12.7831 6.25891L16.5799 8.451C16.5713 8.51041 16.5667 8.57106 16.5667 8.63281C16.5667 8.69456 16.5713 8.75522 16.5799 8.81462L13.5039 10.5906C13.2298 10.2983 12.8719 10.086 12.4689 9.99191V6.44088ZM16.5799 15.549L12.7831 17.7411C12.6883 17.6662 12.5827 17.6047 12.4689 17.5591V14.0081C12.8719 13.9141 13.2298 13.7017 13.5039 13.4095L16.5799 15.1854C16.5713 15.2448 16.5666 15.3055 16.5666 15.3672C16.5666 15.4289 16.5713 15.4896 16.5799 15.549ZM17.3635 14.192C17.2497 14.2375 17.1441 14.299 17.0493 14.3739L13.9738 12.5983C14.0314 12.4088 14.0626 12.208 14.0626 12C14.0626 11.792 14.0314 11.5912 13.9738 11.4018L17.0493 9.62612C17.1441 9.70097 17.2497 9.76253 17.3635 9.80809V14.192Z" fill="white"/>
</svg>
