<svg width="16" height="18" viewBox="0 0 16 18" fill="none" xmlns="http://www.w3.org/2000/svg">
<path d="M5.61297 16.3114V13.7633C5.61297 13.1129 6.14413 12.5856 6.79935 12.5856H9.19449C9.50914 12.5856 9.8109 12.7097 10.0334 12.9305C10.2559 13.1514 10.3809 13.451 10.3809 13.7633V16.3114C10.3789 16.5819 10.4857 16.8419 10.6776 17.0338C10.8695 17.2257 11.1307 17.3337 11.4031 17.3337H13.0372C13.8003 17.3356 14.5329 17.036 15.0733 16.501C15.6136 15.966 15.9173 15.2395 15.9173 14.4818V7.22271C15.9173 6.61071 15.644 6.03019 15.1712 5.63755L9.61234 1.23022C8.64537 0.45746 7.25991 0.482411 6.32181 1.28947L0.889828 5.63755C0.394602 6.01862 0.0986113 6.60086 0.0839844 7.22271V14.4744C0.0839844 16.0535 1.37347 17.3337 2.96413 17.3337H4.56089C5.12667 17.3337 5.58648 16.8805 5.59058 16.3189L5.61297 16.3114Z" fill="#A2AEBD"/>
</svg>
