<svg width="56" height="54" viewBox="0 0 56 54" fill="none" xmlns="http://www.w3.org/2000/svg">
<path d="M26.7969 0.203125C11.9973 0.203125 0 12.2005 0 27C0 33.1948 2.10306 38.8978 5.63281 43.4363H5.74219V12.2255L6.93744 12.1247L46.6108 12.125L47.8516 12.2258V31.4836C47.1611 31.3389 46.4534 31.2656 45.7461 31.2656C40.0921 31.2656 35.4922 35.8655 35.4922 41.5195C35.4922 43.8296 36.2809 46.0829 37.7175 47.8906H10.1516V48C14.7234 51.6286 20.5066 53.7969 26.7969 53.7969C41.5964 53.7969 53.5938 41.7995 53.5938 27C53.5938 12.2005 41.5964 0.203125 26.7969 0.203125Z" fill="#05E39C"/>
<path d="M35.6016 41.5195C35.6016 35.9258 40.1523 31.375 45.7461 31.375C46.5067 31.375 47.2477 31.4598 47.9609 31.6192V12.125L46.6108 12.0156H6.92825L5.63281 12.125V43.4363C6.95155 45.132 8.46945 46.6649 10.1516 48H37.9474C36.4835 46.2411 35.6016 43.9815 35.6016 41.5195Z" fill="#F2FBFF"/>
<path d="M14.5469 12.125H5.63281V43.4363C6.95155 45.132 8.46945 46.6649 10.1516 48H14.5469V12.125Z" fill="#DFF6FD"/>
<path d="M46.3203 3.26562H7.27344C6.36737 3.26562 5.63281 4.00019 5.63281 4.90625V12.125H47.9609V4.90625C47.9609 4.00019 47.2264 3.26562 46.3203 3.26562Z" fill="#FD4755"/>
<path d="M14.3945 20.875H9.69141C9.38942 20.875 9.14453 20.6301 9.14453 20.3281V15.625C9.14453 15.323 9.38942 15.0781 9.69141 15.0781H14.3945C14.6965 15.0781 14.9414 15.323 14.9414 15.625V20.3281C14.9414 20.6301 14.6965 20.875 14.3945 20.875Z" fill="#99E6FC"/>
<path d="M21.7734 20.875H17.0703C16.7683 20.875 16.5234 20.6301 16.5234 20.3281V15.625C16.5234 15.323 16.7683 15.0781 17.0703 15.0781H21.7734C22.0754 15.0781 22.3203 15.323 22.3203 15.625V20.3281C22.3203 20.6301 22.0755 20.875 21.7734 20.875Z" fill="#99E6FC"/>
<path d="M29.1484 20.875H24.4453C24.1433 20.875 23.8984 20.6301 23.8984 20.3281V15.625C23.8984 15.323 24.1433 15.0781 24.4453 15.0781H29.1484C29.4504 15.0781 29.6953 15.323 29.6953 15.625V20.3281C29.6953 20.6301 29.4504 20.875 29.1484 20.875Z" fill="#99E6FC"/>
<path d="M36.5273 20.875H31.8242C31.5222 20.875 31.2773 20.6301 31.2773 20.3281V15.625C31.2773 15.323 31.5222 15.0781 31.8242 15.0781H36.5273C36.8293 15.0781 37.0742 15.323 37.0742 15.625V20.3281C37.0742 20.6301 36.8293 20.875 36.5273 20.875Z" fill="#99E6FC"/>
<path d="M43.9062 20.875H39.2031C38.9011 20.875 38.6562 20.6301 38.6562 20.3281V15.625C38.6562 15.323 38.9011 15.0781 39.2031 15.0781H43.9062C44.2082 15.0781 44.4531 15.323 44.4531 15.625V20.3281C44.4531 20.6301 44.2083 20.875 43.9062 20.875Z" fill="#FD8087"/>
<path d="M11.8143 20.3281V15.625C11.8143 15.323 12.0592 15.0781 12.3611 15.0781H9.69141C9.38942 15.0781 9.14453 15.323 9.14453 15.625V20.3281C9.14453 20.6301 9.38942 20.875 9.69141 20.875H12.3611C12.0592 20.875 11.8143 20.6301 11.8143 20.3281Z" fill="#62DBFB"/>
<path d="M19.1932 20.3281V15.625C19.1932 15.323 19.4381 15.0781 19.74 15.0781H17.0703C16.7683 15.0781 16.5234 15.323 16.5234 15.625V20.3281C16.5234 20.6301 16.7683 20.875 17.0703 20.875H19.74C19.438 20.875 19.1932 20.6301 19.1932 20.3281Z" fill="#62DBFB"/>
<path d="M26.5682 20.3281V15.625C26.5682 15.323 26.8131 15.0781 27.115 15.0781H24.4453C24.1433 15.0781 23.8984 15.323 23.8984 15.625V20.3281C23.8984 20.6301 24.1433 20.875 24.4453 20.875H27.115C26.8131 20.875 26.5682 20.6301 26.5682 20.3281Z" fill="#62DBFB"/>
<path d="M33.9471 20.3281V15.625C33.9471 15.323 34.192 15.0781 34.494 15.0781H31.8242C31.5222 15.0781 31.2773 15.323 31.2773 15.625V20.3281C31.2773 20.6301 31.5222 20.875 31.8242 20.875H34.494C34.1919 20.875 33.9471 20.6301 33.9471 20.3281Z" fill="#62DBFB"/>
<path d="M41.326 20.3281V15.625C41.326 15.323 41.5709 15.0781 41.8729 15.0781H39.2031C38.9011 15.0781 38.6562 15.323 38.6562 15.625V20.3281C38.6562 20.6301 38.9011 20.875 39.2031 20.875H41.8729C41.5709 20.875 41.326 20.6301 41.326 20.3281Z" fill="#FE646F"/>
<path d="M14.3945 28.3125H9.69141C9.38942 28.3125 9.14453 28.0676 9.14453 27.7656V23.0625C9.14453 22.7605 9.38942 22.5156 9.69141 22.5156H14.3945C14.6965 22.5156 14.9414 22.7605 14.9414 23.0625V27.7656C14.9414 28.0676 14.6965 28.3125 14.3945 28.3125Z" fill="#99E6FC"/>
<path d="M21.7734 28.3125H17.0703C16.7683 28.3125 16.5234 28.0676 16.5234 27.7656V23.0625C16.5234 22.7605 16.7683 22.5156 17.0703 22.5156H21.7734C22.0754 22.5156 22.3203 22.7605 22.3203 23.0625V27.7656C22.3203 28.0676 22.0755 28.3125 21.7734 28.3125Z" fill="#FD8087"/>
<path d="M29.1484 28.3125H24.4453C24.1433 28.3125 23.8984 28.0676 23.8984 27.7656V23.0625C23.8984 22.7605 24.1433 22.5156 24.4453 22.5156H29.1484C29.4504 22.5156 29.6953 22.7605 29.6953 23.0625V27.7656C29.6953 28.0676 29.4504 28.3125 29.1484 28.3125Z" fill="#99E6FC"/>
<path d="M36.5273 28.3125H31.8242C31.5222 28.3125 31.2773 28.0676 31.2773 27.7656V23.0625C31.2773 22.7605 31.5222 22.5156 31.8242 22.5156H36.5273C36.8293 22.5156 37.0742 22.7605 37.0742 23.0625V27.7656C37.0742 28.0676 36.8293 28.3125 36.5273 28.3125Z" fill="#99E6FC"/>
<path d="M43.9023 28.3125H39.1992C38.8972 28.3125 38.6523 28.0676 38.6523 27.7656V23.0625C38.6523 22.7605 38.8972 22.5156 39.1992 22.5156H43.9023C44.2043 22.5156 44.4492 22.7605 44.4492 23.0625V27.7656C44.4492 28.0676 44.2044 28.3125 43.9023 28.3125Z" fill="#99E6FC"/>
<path d="M14.3945 35.75H9.69141C9.38942 35.75 9.14453 35.5051 9.14453 35.2031V30.5C9.14453 30.198 9.38942 29.9531 9.69141 29.9531H14.3945C14.6965 29.9531 14.9414 30.198 14.9414 30.5V35.2031C14.9414 35.5051 14.6965 35.75 14.3945 35.75Z" fill="#99E6FC"/>
<path d="M21.7734 35.75H17.0703C16.7683 35.75 16.5234 35.5051 16.5234 35.2031V30.5C16.5234 30.198 16.7683 29.9531 17.0703 29.9531H21.7734C22.0754 29.9531 22.3203 30.198 22.3203 30.5V35.2031C22.3203 35.5051 22.0755 35.75 21.7734 35.75Z" fill="#99E6FC"/>
<path d="M29.1484 35.75H24.4453C24.1433 35.75 23.8984 35.5051 23.8984 35.2031V30.5C23.8984 30.198 24.1433 29.9531 24.4453 29.9531H29.1484C29.4504 29.9531 29.6953 30.198 29.6953 30.5V35.2031C29.6953 35.5051 29.4504 35.75 29.1484 35.75Z" fill="#99E6FC"/>
<path d="M36.5273 35.75H31.8242C31.5222 35.75 31.2773 35.5051 31.2773 35.2031V30.5C31.2773 30.198 31.5222 29.9531 31.8242 29.9531H36.5273C36.8293 29.9531 37.0742 30.198 37.0742 30.5V35.2031C37.0742 35.5051 36.8293 35.75 36.5273 35.75Z" fill="#99E6FC"/>
<path d="M44.4531 31.4574V30.5C44.4531 30.198 44.2082 29.9531 43.9062 29.9531H39.2031C38.9011 29.9531 38.6562 30.198 38.6562 30.5V34.2735C40.1955 32.7667 42.2108 31.7444 44.4531 31.4574Z" fill="#99E6FC"/>
<path d="M41.326 32.3909V30.5C41.326 30.198 41.5709 29.9531 41.8729 29.9531H39.2031C38.9011 29.9531 38.6562 30.198 38.6562 30.5V34.2735C39.4351 33.5111 40.3356 32.8726 41.326 32.3909Z" fill="#62DBFB"/>
<path d="M14.3945 43.1875H9.69141C9.38942 43.1875 9.14453 42.9426 9.14453 42.6406V37.9375C9.14453 37.6355 9.38942 37.3906 9.69141 37.3906H14.3945C14.6965 37.3906 14.9414 37.6355 14.9414 37.9375V42.6406C14.9414 42.9426 14.6965 43.1875 14.3945 43.1875Z" fill="#99E6FC"/>
<path d="M21.7734 43.1875H17.0703C16.7683 43.1875 16.5234 42.9426 16.5234 42.6406V37.9375C16.5234 37.6355 16.7683 37.3906 17.0703 37.3906H21.7734C22.0754 37.3906 22.3203 37.6355 22.3203 37.9375V42.6406C22.3203 42.9426 22.0755 43.1875 21.7734 43.1875Z" fill="#99E6FC"/>
<path d="M29.1484 43.1875H24.4453C24.1433 43.1875 23.8984 42.9426 23.8984 42.6406V37.9375C23.8984 37.6355 24.1433 37.3906 24.4453 37.3906H29.1484C29.4504 37.3906 29.6953 37.6355 29.6953 37.9375V42.6406C29.6953 42.9426 29.4504 43.1875 29.1484 43.1875Z" fill="#FD8087"/>
<path d="M35.6027 41.5195C35.6027 40.05 35.9171 38.6526 36.4817 37.3906H31.8242C31.5222 37.3906 31.2773 37.6355 31.2773 37.9375V42.6406C31.2773 42.9426 31.5222 43.1875 31.8242 43.1875H35.7405C35.6504 42.6447 35.6027 42.0876 35.6027 41.5195Z" fill="#99E6FC"/>
<path d="M16.1875 3.26562H7.27344C6.36737 3.26562 5.63281 4.00019 5.63281 4.90625V12.125H14.5469V4.90625C14.5469 4.00019 15.2814 3.26562 16.1875 3.26562Z" fill="#FB2B3A"/>
<path d="M10.6211 9.60938C11.4366 9.60938 12.0977 8.9483 12.0977 8.13281C12.0977 7.31733 11.4366 6.65625 10.6211 6.65625C9.80561 6.65625 9.14453 7.31733 9.14453 8.13281C9.14453 8.9483 9.80561 9.60938 10.6211 9.60938Z" fill="#FD8087"/>
<path d="M42.9727 9.60938C43.7881 9.60938 44.4492 8.9483 44.4492 8.13281C44.4492 7.31733 43.7881 6.65625 42.9727 6.65625C42.1572 6.65625 41.4961 7.31733 41.4961 8.13281C41.4961 8.9483 42.1572 9.60938 42.9727 9.60938Z" fill="#FD8087"/>
<path d="M45.7461 51.7734C51.4092 51.7734 56 47.1826 56 41.5195C56 35.8565 51.4092 31.2656 45.7461 31.2656C40.083 31.2656 35.4922 35.8565 35.4922 41.5195C35.4922 47.1826 40.083 51.7734 45.7461 51.7734Z" fill="#FD4755"/>
<path d="M41.0703 41.5195C41.0703 36.8233 44.2275 32.8646 48.5352 31.6497C47.6483 31.3996 46.7129 31.2656 45.7461 31.2656C40.083 31.2656 35.4922 35.8564 35.4922 41.5195C35.4922 47.1826 40.083 51.7734 45.7461 51.7734C46.7129 51.7734 47.6483 51.6395 48.5352 51.3893C44.2275 50.1745 41.0703 46.2158 41.0703 41.5195Z" fill="#FB2B3A"/>
<path d="M47.293 41.5196L50.8359 37.9766C51.0495 37.763 51.0495 37.4168 50.8359 37.2032L50.0625 36.4297C49.8489 36.2161 49.5027 36.2161 49.2892 36.4297L45.7462 39.9727L42.2032 36.4297C41.9896 36.2161 41.6434 36.2161 41.4298 36.4297L40.6563 37.2032C40.4427 37.4168 40.4427 37.763 40.6563 37.9766L44.1993 41.5196L40.6563 45.0626C40.4427 45.2762 40.4427 45.6224 40.6563 45.836L41.4298 46.6095C41.6434 46.8231 41.9896 46.8231 42.2032 46.6095L45.7462 43.0665L49.2892 46.6095C49.5028 46.8231 49.849 46.8231 50.0625 46.6095L50.8359 45.836C51.0495 45.6224 51.0495 45.2762 50.8359 45.0626L47.293 41.5196Z" fill="white"/>
<path d="M11.8143 27.7656V23.0625C11.8143 22.7605 12.0592 22.5156 12.3611 22.5156H9.69141C9.38942 22.5156 9.14453 22.7605 9.14453 23.0625V27.7656C9.14453 28.0676 9.38942 28.3125 9.69141 28.3125H12.3611C12.0592 28.3125 11.8143 28.0676 11.8143 27.7656Z" fill="#62DBFB"/>
<path d="M19.1893 27.7656V23.0625C19.1893 22.7605 19.4342 22.5156 19.7361 22.5156H17.0664C16.7644 22.5156 16.5195 22.7605 16.5195 23.0625V27.7656C16.5195 28.0676 16.7644 28.3125 17.0664 28.3125H19.7361C19.434 28.3125 19.1893 28.0676 19.1893 27.7656Z" fill="#FE646F"/>
<path d="M26.5682 27.7656V23.0625C26.5682 22.7605 26.8131 22.5156 27.115 22.5156H24.4453C24.1433 22.5156 23.8984 22.7605 23.8984 23.0625V27.7656C23.8984 28.0676 24.1433 28.3125 24.4453 28.3125H27.115C26.8131 28.3125 26.5682 28.0676 26.5682 27.7656Z" fill="#62DBFB"/>
<path d="M33.9471 27.7656V23.0625C33.9471 22.7605 34.192 22.5156 34.494 22.5156H31.8242C31.5222 22.5156 31.2773 22.7605 31.2773 23.0625V27.7656C31.2773 28.0676 31.5222 28.3125 31.8242 28.3125H34.494C34.1919 28.3125 33.9471 28.0676 33.9471 27.7656Z" fill="#62DBFB"/>
<path d="M41.326 27.7656V23.0625C41.326 22.7605 41.5709 22.5156 41.8729 22.5156H39.2031C38.9011 22.5156 38.6562 22.7605 38.6562 23.0625V27.7656C38.6562 28.0676 38.9011 28.3125 39.2031 28.3125H41.8729C41.5709 28.3125 41.326 28.0676 41.326 27.7656Z" fill="#62DBFB"/>
<path d="M11.8143 35.2031V30.5C11.8143 30.198 12.0592 29.9531 12.3611 29.9531H9.69141C9.38942 29.9531 9.14453 30.198 9.14453 30.5V35.2031C9.14453 35.5051 9.38942 35.75 9.69141 35.75H12.3611C12.0592 35.75 11.8143 35.5051 11.8143 35.2031Z" fill="#62DBFB"/>
<path d="M19.1932 35.2031V30.5C19.1932 30.198 19.4381 29.9531 19.74 29.9531H17.0703C16.7683 29.9531 16.5234 30.198 16.5234 30.5V35.2031C16.5234 35.5051 16.7683 35.75 17.0703 35.75H19.74C19.438 35.75 19.1932 35.5051 19.1932 35.2031Z" fill="#62DBFB"/>
<path d="M26.5682 35.2031V30.5C26.5682 30.198 26.8131 29.9531 27.115 29.9531H24.4453C24.1433 29.9531 23.8984 30.198 23.8984 30.5V35.2031C23.8984 35.5051 24.1433 35.75 24.4453 35.75H27.115C26.8131 35.75 26.5682 35.5051 26.5682 35.2031Z" fill="#62DBFB"/>
<path d="M33.9471 35.2031V30.5C33.9471 30.198 34.192 29.9531 34.494 29.9531H31.8242C31.5222 29.9531 31.2773 30.198 31.2773 30.5V35.2031C31.2773 35.5051 31.5222 35.75 31.8242 35.75H34.494C34.1919 35.75 33.9471 35.5051 33.9471 35.2031Z" fill="#62DBFB"/>
<path d="M11.8143 42.6406V37.9375C11.8143 37.6355 12.0592 37.3906 12.3611 37.3906H9.69141C9.38942 37.3906 9.14453 37.6355 9.14453 37.9375V42.6406C9.14453 42.9426 9.38942 43.1875 9.69141 43.1875H12.3611C12.0592 43.1875 11.8143 42.9426 11.8143 42.6406Z" fill="#62DBFB"/>
<path d="M19.1932 42.6406V37.9375C19.1932 37.6355 19.4381 37.3906 19.74 37.3906H17.0703C16.7683 37.3906 16.5234 37.6355 16.5234 37.9375V42.6406C16.5234 42.9426 16.7683 43.1875 17.0703 43.1875H19.74C19.438 43.1875 19.1932 42.9426 19.1932 42.6406Z" fill="#62DBFB"/>
<path d="M26.5682 42.6406V37.9375C26.5682 37.6355 26.8131 37.3906 27.115 37.3906H24.4453C24.1433 37.3906 23.8984 37.6355 23.8984 37.9375V42.6406C23.8984 42.9426 24.1433 43.1875 24.4453 43.1875H27.115C26.8131 43.1875 26.5682 42.9426 26.5682 42.6406Z" fill="#FE646F"/>
<path d="M33.9471 42.6406V37.9375C33.9471 37.6355 34.192 37.3906 34.494 37.3906H31.8242C31.5222 37.3906 31.2773 37.6355 31.2773 37.9375V42.6406C31.2773 42.9426 31.5222 43.1875 31.8242 43.1875H34.494C34.1919 43.1875 33.9471 42.9426 33.9471 42.6406Z" fill="#62DBFB"/>
</svg>
