<svg width="57" height="56" viewBox="0 0 57 56" fill="none" xmlns="http://www.w3.org/2000/svg">
<circle cx="28.5" cy="28" r="28" fill="white"/>
<g clip-path="url(#clip0_3375_33544)">
<path d="M22.5234 40.2344V42.1167L24.068 40.2344H22.5234Z" fill="#C1126B"/>
<path d="M38.6588 32.7067L43.8876 23.2949H31.9351L31.3077 27.3734L31.9351 31.7825L27.7349 35.7677L24.068 40.2361L23.0337 41.0978L22.5234 42.1184V42.1185H43.8876L42.8419 40.2361L38.6588 32.7067Z" fill="#FF3D7D"/>
<path d="M22.5234 31.7817V42.1178L31.9352 31.7817L27.2293 31.1543L22.5234 31.7817Z" fill="#C1126B"/>
<path d="M17.8169 19.5298L17.1895 26.6548L17.8169 31.782H22.5227H31.9345V24.4248V19.5298L25.0326 18.9023L17.8169 19.5298Z" fill="#FF6B6B"/>
<path d="M31.9346 19.5288H17.8169L17.1895 18.5877L17.8169 17.6465H31.9346V19.5288Z" fill="#FF3D7D"/>
<path d="M14.0527 16.9277V43.9997H15.9351L16.5625 24.0259L15.9351 17.6468L14.0527 16.9277Z" fill="#613D5C"/>
<path d="M15.9355 17.6468V43.9997H17.8179V16.9277L15.9355 17.6468Z" fill="#4B2746"/>
<path d="M13.1113 14.8235C13.1113 15.6258 13.4544 16.3928 14.0524 16.928C14.5708 17.3917 15.2393 17.6471 15.9349 17.6471L16.5623 14.9333L15.9349 12C14.3779 12 13.1113 13.2666 13.1113 14.8235Z" fill="#FF6B6B"/>
<path d="M15.9355 12V17.6471C16.631 17.6471 17.2995 17.3917 17.818 16.9279C18.416 16.3928 18.7591 15.6258 18.7591 14.8235C18.7591 13.2666 17.4924 12 15.9355 12Z" fill="#FF3D7D"/>
</g>
<defs>
<clipPath id="clip0_3375_33544">
<rect width="32" height="32" fill="white" transform="translate(12.5 12)"/>
</clipPath>
</defs>
</svg>
