<svg width="73" height="80" viewBox="0 0 73 80" fill="none" xmlns="http://www.w3.org/2000/svg">
<path d="M39.1368 4.30469C37.5807 4.30469 36.136 4.77891 34.9395 5.58937C35.3727 6.77891 35.5977 8.14859 35.5977 9.68531V11.8869C42.0626 13.325 46.6095 17.1387 46.6095 24.3741V11.7481C46.6095 7.63719 43.2638 4.30469 39.1368 4.30469Z" fill="#3D5959"/>
<path d="M28.7575 11.2014C31.2409 11.2014 33.6056 11.4288 35.7543 11.9219V9.68547C35.7543 3.54391 32.2223 0 26.0565 0H22.0693C15.9036 0 10.9053 4.97875 10.9053 11.1203V24.3742C10.9053 14.7808 18.8978 11.2014 28.7575 11.2014Z" fill="#537982"/>
<path d="M15.9137 14.3373V11.1203C15.9137 5.13453 20.6623 0.255469 26.6118 0.0117188C26.429 0.0046875 26.2445 0 26.0565 0H22.0693C15.9036 0 10.9053 4.97875 10.9053 11.1203V24.3742C10.9053 19.6878 12.8132 16.4372 15.9137 14.3373Z" fill="#3D5959"/>
<path d="M40.5951 64.8323C40.5951 60.9603 42.0748 57.4261 44.5003 54.7607H36.9623V54.917C36.4292 58.952 32.933 61.9736 28.7575 61.9736C24.582 61.9736 21.0856 58.952 20.5523 54.917V54.7607H8.38703C4.02969 54.7607 0.484375 58.2193 0.484375 62.4701V73.8668C0.484375 74.4323 0.949844 74.8909 1.52406 74.8909H44.4886C42.0701 72.2272 40.5951 68.6981 40.5951 64.8323Z" fill="#0592FB"/>
<path d="M7.22141 73.8668V62.4701C7.22141 58.2193 10.7667 54.7607 15.1241 54.7607H8.38703C4.02969 54.7607 0.484375 58.2193 0.484375 62.4701V73.8668C0.484375 74.4323 0.949844 74.8909 1.52406 74.8909H8.2611C7.68688 74.8909 7.22141 74.4322 7.22141 73.8668Z" fill="#0181FB"/>
<path d="M33.7452 49.4111C32.8025 49.5852 31.8307 49.6774 30.8371 49.6774H26.6775C25.6839 49.6774 24.7122 49.5852 23.7697 49.4111V54.7603H20.376C20.8329 58.9036 24.4102 62.1294 28.7574 62.1294C33.1044 62.1294 36.6819 58.9036 37.1386 54.7603H33.7452V49.4111Z" fill="#FFAF9D"/>
<path d="M26.6775 49.6784C25.6839 49.6784 24.7122 49.5862 23.7697 49.4121V54.7613H20.376C20.5863 56.6687 21.4591 58.3804 22.7625 59.6737H26.3324C27.2213 59.6737 27.9421 58.953 27.9421 58.064V49.6784H26.6775Z" fill="#F69380"/>
<path d="M11.0619 34.427V26.5039H8.47234C6.66078 26.5039 5.19141 27.9239 5.19141 29.6756V33.5153C5.19141 35.267 6.66078 36.687 8.47234 36.687H11.2334C11.1209 35.9492 11.0619 35.1948 11.0619 34.427Z" fill="#FFCDBE"/>
<path d="M49.0428 26.5039H46.453V34.427C46.453 35.1947 46.3939 35.9492 46.2812 36.6869H49.0428C50.855 36.6869 52.3231 35.2669 52.3231 33.5152V29.6755C52.3231 27.9239 50.855 26.5039 49.0428 26.5039Z" fill="#FFAF9D"/>
<path d="M28.7575 11.0352C18.8976 11.0352 10.9053 14.6144 10.9053 24.208V34.4264C10.9053 42.9355 17.9668 49.8338 26.6776 49.8338H30.8371C39.5482 49.8338 46.6098 42.9353 46.6098 34.4264V24.208C46.6098 14.6144 38.6171 11.0352 28.7575 11.0352Z" fill="#FFCDBE"/>
<path d="M28.7575 11.0352C18.8976 11.0352 10.9053 14.6144 10.9053 24.208V34.4264C10.9053 42.9355 17.9668 49.8338 26.6776 49.8338H30.8371C39.5482 49.8338 46.6098 42.9353 46.6098 34.4264V24.208C46.6098 14.6144 38.6171 11.0352 28.7575 11.0352Z" fill="#FFCDBE"/>
<path d="M15.9137 34.4264V24.208C15.9137 15.4417 22.5878 11.6978 31.2617 11.1172C30.4432 11.0625 29.6076 11.0352 28.7575 11.0352C18.8976 11.0352 10.9053 14.6144 10.9053 24.208V34.4264C10.9053 42.9355 17.9668 49.8337 26.6776 49.8337H30.8372C30.9792 49.8337 31.1206 49.8317 31.2617 49.8281C22.7472 49.6083 15.9137 42.7967 15.9137 34.4264Z" fill="#FFAF9D"/>
<path d="M30.3979 35.0704H28.2408C27.0402 35.0704 26.0635 34.1046 26.0635 32.9175V27.9229C26.0635 27.2757 26.5882 26.751 27.2354 26.751C27.8825 26.751 28.4072 27.2757 28.4072 27.9229V32.7266H30.3979C31.045 32.7266 31.5697 33.2513 31.5697 33.8985C31.5697 34.5457 31.0452 35.0704 30.3979 35.0704Z" fill="#AB5E2E"/>
<path d="M19.1943 30.4289C18.5471 30.4289 18.0225 29.9042 18.0225 29.257V25.7109C18.0225 25.0637 18.5471 24.5391 19.1943 24.5391C19.8415 24.5391 20.3662 25.0637 20.3662 25.7109V29.257C20.3662 29.9042 19.8415 30.4289 19.1943 30.4289Z" fill="#AB5E2E"/>
<path d="M38.3213 30.4289C37.6739 30.4289 37.1494 29.9042 37.1494 29.257V25.7109C37.1494 25.0637 37.6739 24.5391 38.3213 24.5391C38.9686 24.5391 39.4932 25.0637 39.4932 25.7109V29.257C39.4932 29.9042 38.9686 30.4289 38.3213 30.4289Z" fill="#AB5E2E"/>
<g clip-path="url(#clip0_2739_61210)">
<path d="M55.5706 79.9997C65.0384 79.9997 72.7135 72.3245 72.7135 62.8568C72.7135 53.389 65.0384 45.7139 55.5706 45.7139C46.1029 45.7139 38.4277 53.389 38.4277 62.8568C38.4277 72.3245 46.1029 79.9997 55.5706 79.9997Z" fill="#E24C4B"/>
<path d="M72.7135 62.8567C72.7135 72.2853 64.9992 79.9996 55.5706 79.9996C50.1063 79.9996 45.2849 77.5353 42.1777 73.571C45.0706 75.9282 48.8206 77.3211 52.892 77.3211C62.3206 77.3211 70.0349 69.6068 70.0349 60.1782C70.0349 56.1068 68.642 52.3567 66.2849 49.4639C70.2492 52.5709 72.7135 57.3923 72.7135 62.8567Z" fill="#D1403F"/>
<path d="M63.3925 70.6787C62.7497 71.3215 61.6782 71.3215 61.0354 70.6787L55.5711 65.2144L50.1069 70.6787C49.464 71.3215 48.3925 71.3215 47.7497 70.6787C47.1069 70.0358 47.1069 68.9643 47.7497 68.3215L53.214 62.8572L47.7497 57.393C47.1069 56.7502 47.1069 55.6787 47.7497 55.0358C48.3925 54.393 49.464 54.393 50.1069 55.0358L55.5711 60.5001L61.0354 55.0358C61.6782 54.393 62.7497 54.393 63.3925 55.0358C64.0354 55.6787 64.0354 56.7502 63.3925 57.393L57.9283 62.8572L63.3925 68.3215C64.0354 68.9643 64.0354 70.0358 63.3925 70.6787Z" fill="white"/>
</g>
<path d="M28.7569 43.8598C25.655 43.8598 22.8195 42.04 21.533 39.2236C21.2641 38.6348 21.5233 37.9396 22.112 37.6706C22.701 37.402 23.396 37.6611 23.6649 38.2496C24.5713 40.2339 26.57 41.5161 28.7569 41.5161C30.9439 41.5161 32.9425 40.234 33.8486 38.2498C34.1175 37.6611 34.8127 37.4018 35.4014 37.6706C35.9902 37.9395 36.2494 38.6346 35.9806 39.2234C34.6944 42.04 31.8589 43.8598 28.7569 43.8598Z" fill="#AB5E2E"/>
<defs>
<clipPath id="clip0_2739_61210">
<rect width="34.2857" height="34.2857" fill="white" transform="translate(38.4277 45.7139)"/>
</clipPath>
</defs>
</svg>
