<svg width="57" height="56" viewBox="0 0 57 56" fill="none" xmlns="http://www.w3.org/2000/svg">
<circle cx="28.5" cy="28" r="28" fill="white"/>
<g clip-path="url(#clip0_3375_33489)">
<path d="M23.4824 43C31.7667 43 38.4824 36.2843 38.4824 28C38.4824 19.7157 31.7667 13 23.4824 13C15.1982 13 8.48242 19.7157 8.48242 28C8.48242 36.2843 15.1982 43 23.4824 43Z" fill="#FAFAFA"/>
<path d="M23.4824 43C15.2124 43 8.48242 36.27 8.48242 28C8.48242 19.73 15.2124 13 23.4824 13C31.7524 13 38.4824 19.73 38.4824 28C38.4824 36.27 31.7541 43 23.4824 43ZM23.4824 15.5C16.5891 15.5 10.9824 21.1067 10.9824 28C10.9824 34.8933 16.5891 40.5 23.4824 40.5C30.3758 40.5 35.9824 34.8933 35.9824 28C35.9824 21.1067 30.3758 15.5 23.4824 15.5Z" fill="#F44336"/>
<path d="M23.4831 37.1653C18.4281 37.1653 14.3164 33.0537 14.3164 27.9987C14.3164 22.9437 18.4281 18.832 23.4831 18.832C28.5381 18.832 32.6497 22.9437 32.6497 27.9987C32.6497 33.0537 28.5381 37.1653 23.4831 37.1653ZM23.4831 21.332C19.8064 21.332 16.8164 24.322 16.8164 27.9987C16.8164 31.6754 19.8064 34.6654 23.4831 34.6654C27.1597 34.6654 30.1497 31.6754 30.1497 27.9987C30.1497 24.322 27.1597 21.332 23.4831 21.332Z" fill="#F44336"/>
<path d="M23.4818 31.3346C21.6434 31.3346 20.1484 29.8396 20.1484 28.0013C20.1484 26.163 21.6434 24.668 23.4818 24.668C25.3201 24.668 26.8151 26.163 26.8151 28.0013C26.8151 29.8396 25.3201 31.3346 23.4818 31.3346ZM23.4818 27.168C23.0218 27.168 22.6484 27.5413 22.6484 28.0013C22.6484 28.4613 23.0218 28.8346 23.4818 28.8346C23.9418 28.8346 24.3151 28.4613 24.3151 28.0013C24.3151 27.5413 23.9418 27.168 23.4818 27.168Z" fill="#F44336"/>
<path d="M23.5015 29.2486C23.1815 29.2486 22.8615 29.127 22.6182 28.882C22.1299 28.3936 22.1299 27.602 22.6182 27.1136L33.4515 16.2803C33.9399 15.792 34.7315 15.792 35.2199 16.2803C35.7082 16.7686 35.7082 17.5603 35.2199 18.0486L24.3865 28.882C24.1415 29.127 23.8215 29.2486 23.5015 29.2486Z" fill="#607D8B"/>
<path d="M38.9167 17.9998H34.75C34.06 17.9998 33.5 17.4398 33.5 16.7498V12.5831C33.5 12.2514 33.6317 11.9331 33.8667 11.6998L37.2 8.36643C37.5583 8.00976 38.0967 7.90143 38.5617 8.09476C39.0283 8.2881 39.3333 8.74476 39.3333 9.24976V12.1664H42.25C42.755 12.1664 43.2117 12.4714 43.405 12.9381C43.5984 13.4048 43.4917 13.9431 43.1334 14.2998L39.8 17.6331C39.5667 17.8681 39.2483 17.9998 38.9167 17.9998Z" fill="#2196F3"/>
<path d="M37.6673 47.9987C31.694 47.9987 26.834 43.1387 26.834 37.1653C26.834 31.192 31.694 26.332 37.6673 26.332C43.6407 26.332 48.5007 31.192 48.5007 37.1653C48.5007 43.1387 43.6407 47.9987 37.6673 47.9987Z" fill="#2196F3"/>
<path d="M36.0002 41.3332C35.7119 41.3332 35.4219 41.2332 35.1869 41.0315L32.2702 38.5315C31.7469 38.0815 31.6852 37.2932 32.1352 36.7682C32.5852 36.2432 33.3719 36.1815 33.8985 36.6332L35.9035 38.3515L40.5002 33.3998C40.9702 32.8932 41.7602 32.8648 42.2669 33.3332C42.7736 33.8032 42.8019 34.5948 42.3336 35.0998L36.9169 40.9332C36.6702 41.1982 36.3352 41.3332 36.0002 41.3332Z" fill="#FAFAFA"/>
</g>
<defs>
<clipPath id="clip0_3375_33489">
<rect width="40" height="40" fill="white" transform="translate(8.5 8)"/>
</clipPath>
</defs>
</svg>
