<svg width="24" height="25" viewBox="0 0 24 25" fill="none" xmlns="http://www.w3.org/2000/svg">
<rect y="0.148438" width="24" height="24" rx="12" fill="#28C76F"/>
<path fill-rule="evenodd" clip-rule="evenodd" d="M12.9673 7.40254H15.014C17.474 7.40254 18.674 8.71587 18.6673 11.4092V14.6559C18.6673 17.2292 17.0807 18.8159 14.5007 18.8159H9.49398C6.92732 18.8159 5.33398 17.2292 5.33398 14.6492V9.64254C5.33398 6.88254 6.56065 5.48254 8.98065 5.48254H10.034C10.6547 5.47587 11.234 5.76254 11.614 6.2492L12.2007 7.0292C12.3873 7.26254 12.6673 7.40254 12.9673 7.40254ZM8.91398 14.3425H15.0873C15.3607 14.3425 15.5807 14.1159 15.5807 13.8425C15.5807 13.5625 15.3607 13.3425 15.0873 13.3425H8.91398C8.63398 13.3425 8.41398 13.5625 8.41398 13.8425C8.41398 14.1159 8.63398 14.3425 8.91398 14.3425Z" fill="white"/>
</svg>
