<svg width="48" height="48" viewBox="0 0 48 48" fill="none" xmlns="http://www.w3.org/2000/svg">
<g clip-path="url(#clip0_2839_54149)">
<path d="M33.9142 7.4656H17.5312V2.79962C17.5312 1.25346 18.7847 0 20.3309 0H31.1146C32.6607 0 33.9142 1.25346 33.9142 2.79962V7.4656Z" fill="url(#paint0_linear_2839_54149)"/>
<path d="M29.7052 7.4656H13.3223V2.79962C13.3223 1.25346 14.5757 0 16.1219 0H26.9056C28.4518 0 29.7052 1.25346 29.7052 2.79962V7.4656Z" fill="url(#paint1_linear_2839_54149)"/>
<path d="M25.2462 5.31407V2.79962C25.2462 1.25346 23.9928 0 22.4466 0H11.6629C10.1167 0 8.86328 1.25346 8.86328 2.79962V33.0287C8.86328 35.2314 10.649 37.0171 12.8517 37.0171H43.4041C45.6068 37.0171 47.3925 35.2314 47.3925 33.0287V10.5208C47.3925 8.31811 45.6068 6.53242 43.4041 6.53242H26.4646C25.7917 6.53242 25.2462 5.98692 25.2462 5.31407V5.31407Z" fill="url(#paint2_linear_2839_54149)"/>
<path d="M35.8721 12.0199H34.9115C34.3607 12.0199 33.9141 11.5733 33.9141 11.0225V10.0619C33.9141 9.51104 34.3607 9.06445 34.9115 9.06445H35.8721C36.423 9.06445 36.8696 9.51104 36.8696 10.0619V11.0225C36.8696 11.5733 36.4231 12.0199 35.8721 12.0199Z" fill="url(#paint3_linear_2839_54149)"/>
<path d="M39.6397 12.0199H38.6791C38.1282 12.0199 37.6816 11.5733 37.6816 11.0225V10.0619C37.6816 9.51104 38.1282 9.06445 38.6791 9.06445H39.6397C40.1905 9.06445 40.6371 9.51104 40.6371 10.0619V11.0225C40.6371 11.5733 40.1905 12.0199 39.6397 12.0199Z" fill="url(#paint4_linear_2839_54149)"/>
<path d="M43.4092 12.0199H42.4486C41.8978 12.0199 41.4512 11.5733 41.4512 11.0225V10.0619C41.4512 9.51104 41.8978 9.06445 42.4486 9.06445H43.4092C43.9601 9.06445 44.4067 9.51104 44.4067 10.0619V11.0225C44.4068 11.5733 43.9602 12.0199 43.4092 12.0199Z" fill="url(#paint5_linear_2839_54149)"/>
<path d="M43.4041 37.018C45.6068 37.018 47.3925 35.2323 47.3925 33.0296V18.5046L42.2764 13.3885C41.5453 12.5531 40.4719 12.0247 39.2747 12.0247H34.5967L29.1631 6.5332H26.4645H8.86328V32.9873C8.86328 35.2133 10.6678 37.0178 12.8938 37.0178H43.4041V37.018Z" fill="url(#paint6_linear_2839_54149)"/>
<path d="M8.86328 28.6191V33.0296C8.86328 35.2323 10.649 37.018 12.8517 37.018H43.4041C45.6068 37.018 47.3925 35.2323 47.3925 33.0296V28.6191H8.86328Z" fill="url(#paint7_linear_2839_54149)"/>
<path d="M29.7852 12.9578H13.4023V8.29181C13.4023 6.74565 14.6558 5.49219 16.202 5.49219H26.9857C28.5318 5.49219 29.7853 6.74565 29.7853 8.29181V12.9578H29.7852Z" fill="url(#paint8_linear_2839_54149)"/>
<path d="M25.5762 12.9578H9.19336V8.29181C9.19336 6.74565 10.4468 5.49219 11.993 5.49219H22.7767C24.3229 5.49219 25.5763 6.74565 25.5763 8.29181V12.9578H25.5762Z" fill="url(#paint9_linear_2839_54149)"/>
<path d="M21.1173 10.8063V8.29181C21.1173 6.74565 19.8639 5.49219 18.3177 5.49219H7.534C5.98783 5.49219 4.73438 6.74565 4.73438 8.29181V38.5209C4.73438 40.7236 6.52007 42.5093 8.7228 42.5093H39.2752C41.4779 42.5093 43.2636 40.7236 43.2636 38.5209V16.013C43.2636 13.8103 41.4779 12.0246 39.2752 12.0246H22.3357C21.6628 12.0246 21.1173 11.4791 21.1173 10.8063V10.8063Z" fill="url(#paint10_linear_2839_54149)"/>
<path d="M31.7432 17.5121H30.7826C30.2317 17.5121 29.7852 17.0655 29.7852 16.5147V15.5541C29.7852 15.0032 30.2317 14.5566 30.7826 14.5566H31.7432C32.2941 14.5566 32.7406 15.0032 32.7406 15.5541V16.5147C32.7407 17.0655 32.2941 17.5121 31.7432 17.5121Z" fill="url(#paint11_linear_2839_54149)"/>
<path d="M35.5108 17.5121H34.5502C33.9993 17.5121 33.5527 17.0655 33.5527 16.5147V15.5541C33.5527 15.0032 33.9993 14.5566 34.5502 14.5566H35.5108C36.0616 14.5566 36.5082 15.0032 36.5082 15.5541V16.5147C36.5082 17.0655 36.0616 17.5121 35.5108 17.5121Z" fill="url(#paint12_linear_2839_54149)"/>
<path d="M39.2803 17.5121H38.3197C37.7689 17.5121 37.3223 17.0655 37.3223 16.5147V15.5541C37.3223 15.0032 37.7689 14.5566 38.3197 14.5566H39.2803C39.8312 14.5566 40.2778 15.0032 40.2778 15.5541V16.5147C40.2779 17.0655 39.8313 17.5121 39.2803 17.5121Z" fill="url(#paint13_linear_2839_54149)"/>
<path d="M39.2751 42.51C41.4778 42.51 43.2635 40.7243 43.2635 38.5216V23.9967L38.1474 18.8805C37.4163 18.0452 36.3429 17.5168 35.1457 17.5168H30.4677L25.0342 12.0254H22.3356H4.73438V38.4795C4.73438 40.7055 6.53889 42.51 8.76487 42.51H39.2751Z" fill="url(#paint14_linear_2839_54149)"/>
<path d="M4.73438 34.1113V38.5218C4.73438 40.7245 6.52007 42.5102 8.7228 42.5102H39.2752C41.4779 42.5102 43.2636 40.7245 43.2636 38.5218V34.1113H4.73438Z" fill="url(#paint15_linear_2839_54149)"/>
<path d="M25.6563 18.448H9.27344V13.782C9.27344 12.2359 10.5269 10.9824 12.0731 10.9824H22.8568C24.4029 10.9824 25.6564 12.2359 25.6564 13.782V18.448H25.6563Z" fill="url(#paint16_linear_2839_54149)"/>
<path d="M21.4473 18.448H5.06445V13.782C5.06445 12.2359 6.31791 10.9824 7.86408 10.9824H18.6478C20.194 10.9824 21.4474 12.2359 21.4474 13.782V18.448H21.4473Z" fill="url(#paint17_linear_2839_54149)"/>
<path d="M16.9883 16.2965V13.782C16.9883 12.2359 15.7349 10.9824 14.1887 10.9824H3.40509C1.85893 10.9824 0.605469 12.2359 0.605469 13.782V44.0111C0.605469 46.2139 2.39107 47.9996 4.59389 47.9996H35.1463C37.349 47.9996 39.1347 46.2139 39.1347 44.0111V21.5033C39.1347 19.3005 37.349 17.5148 35.1463 17.5148H18.2067C17.5338 17.5148 16.9883 16.9694 16.9883 16.2965V16.2965Z" fill="url(#paint18_linear_2839_54149)"/>
<path d="M27.6143 23.0024H26.6537C26.1028 23.0024 25.6562 22.5558 25.6562 22.0049V21.0443C25.6562 20.4935 26.1028 20.0469 26.6537 20.0469H27.6143C28.1652 20.0469 28.6117 20.4935 28.6117 21.0443V22.0048C28.6118 22.5557 28.1652 23.0024 27.6143 23.0024Z" fill="url(#paint19_linear_2839_54149)"/>
<path d="M31.3819 23.0024H30.4213C29.8704 23.0024 29.4238 22.5558 29.4238 22.0049V21.0443C29.4238 20.4935 29.8704 20.0469 30.4213 20.0469H31.3819C31.9327 20.0469 32.3793 20.4935 32.3793 21.0443V22.0048C32.3793 22.5557 31.9327 23.0024 31.3819 23.0024Z" fill="url(#paint20_linear_2839_54149)"/>
<path d="M35.1514 23.0024H34.1908C33.64 23.0024 33.1934 22.5558 33.1934 22.0049V21.0443C33.1934 20.4935 33.64 20.0469 34.1908 20.0469H35.1514C35.7023 20.0469 36.1488 20.4935 36.1488 21.0443V22.0048C36.1489 22.5557 35.7024 23.0024 35.1514 23.0024Z" fill="url(#paint21_linear_2839_54149)"/>
<path d="M0.605469 39.6016V44.012C0.605469 46.2147 2.39107 48.0004 4.59389 48.0004H35.1463C37.349 48.0004 39.1347 46.2147 39.1347 44.012V39.6016H0.605469Z" fill="url(#paint22_linear_2839_54149)"/>
</g>
<defs>
<linearGradient id="paint0_linear_2839_54149" x1="25.7228" y1="1.55539" x2="25.7228" y2="7.46927" gradientUnits="userSpaceOnUse">
<stop stop-color="#66BB00"/>
<stop offset="1" stop-color="#0B799D"/>
</linearGradient>
<linearGradient id="paint1_linear_2839_54149" x1="21.5138" y1="1.55539" x2="21.5138" y2="7.46927" gradientUnits="userSpaceOnUse">
<stop stop-color="#90CC1C"/>
<stop offset="1" stop-color="#66BB00"/>
</linearGradient>
<linearGradient id="paint2_linear_2839_54149" x1="21.753" y1="1.91746" x2="39.0047" y2="55.6548" gradientUnits="userSpaceOnUse">
<stop stop-color="#B9DD39"/>
<stop offset="1" stop-color="#0B799D"/>
</linearGradient>
<linearGradient id="paint3_linear_2839_54149" x1="35.0634" y1="10.292" x2="36.4138" y2="11.3208" gradientUnits="userSpaceOnUse">
<stop stop-color="#FDBF00"/>
<stop offset="1" stop-color="#FF9100"/>
</linearGradient>
<linearGradient id="paint4_linear_2839_54149" x1="38.831" y1="10.292" x2="40.1813" y2="11.3208" gradientUnits="userSpaceOnUse">
<stop stop-color="#FDBF00"/>
<stop offset="1" stop-color="#FF9100"/>
</linearGradient>
<linearGradient id="paint5_linear_2839_54149" x1="42.6005" y1="10.292" x2="43.9509" y2="11.3208" gradientUnits="userSpaceOnUse">
<stop stop-color="#FDBF00"/>
<stop offset="1" stop-color="#FF9100"/>
</linearGradient>
<linearGradient id="paint6_linear_2839_54149" x1="27.4855" y1="21.8134" x2="41.9059" y2="-15.3936" gradientUnits="userSpaceOnUse">
<stop stop-color="#0B799D" stop-opacity="0"/>
<stop offset="0.3645" stop-color="#096380" stop-opacity="0.365"/>
<stop offset="0.76" stop-color="#084F67" stop-opacity="0.76"/>
<stop offset="1" stop-color="#07485E"/>
</linearGradient>
<linearGradient id="paint7_linear_2839_54149" x1="28.1279" y1="32.1446" x2="28.1279" y2="39.9241" gradientUnits="userSpaceOnUse">
<stop stop-color="#0B799D" stop-opacity="0"/>
<stop offset="0.3645" stop-color="#096380" stop-opacity="0.365"/>
<stop offset="0.76" stop-color="#084F67" stop-opacity="0.76"/>
<stop offset="1" stop-color="#07485E"/>
</linearGradient>
<linearGradient id="paint8_linear_2839_54149" x1="21.5938" y1="7.04748" x2="21.5938" y2="12.9615" gradientUnits="userSpaceOnUse">
<stop stop-color="#0095FF"/>
<stop offset="1" stop-color="#0B799D"/>
</linearGradient>
<linearGradient id="paint9_linear_2839_54149" x1="17.3848" y1="7.04748" x2="17.3848" y2="12.9615" gradientUnits="userSpaceOnUse">
<stop stop-color="#48B2E3"/>
<stop offset="1" stop-color="#0095FF"/>
</linearGradient>
<linearGradient id="paint10_linear_2839_54149" x1="7.44054" y1="10.7085" x2="32.1842" y2="35.4521" gradientUnits="userSpaceOnUse">
<stop stop-color="#76E2F8"/>
<stop offset="1" stop-color="#48B2E3"/>
</linearGradient>
<linearGradient id="paint11_linear_2839_54149" x1="30.9345" y1="15.7841" x2="32.2849" y2="16.813" gradientUnits="userSpaceOnUse">
<stop stop-color="#EDF5FF"/>
<stop offset="1" stop-color="#D5E8FE"/>
</linearGradient>
<linearGradient id="paint12_linear_2839_54149" x1="34.7021" y1="15.7841" x2="36.0524" y2="16.813" gradientUnits="userSpaceOnUse">
<stop stop-color="#EDF5FF"/>
<stop offset="1" stop-color="#D5E8FE"/>
</linearGradient>
<linearGradient id="paint13_linear_2839_54149" x1="38.4716" y1="15.7841" x2="39.822" y2="16.813" gradientUnits="userSpaceOnUse">
<stop stop-color="#EDF5FF"/>
<stop offset="1" stop-color="#D5E8FE"/>
</linearGradient>
<linearGradient id="paint14_linear_2839_54149" x1="23.5436" y1="42.8939" x2="24.3511" y2="11.694" gradientUnits="userSpaceOnUse">
<stop stop-color="#B5DBFF" stop-opacity="0"/>
<stop offset="0.1734" stop-color="#8FC5E9" stop-opacity="0.173"/>
<stop offset="0.4541" stop-color="#56A4C8" stop-opacity="0.454"/>
<stop offset="0.6955" stop-color="#2D8DB1" stop-opacity="0.696"/>
<stop offset="0.8853" stop-color="#147EA2" stop-opacity="0.885"/>
<stop offset="1" stop-color="#0B799D"/>
</linearGradient>
<linearGradient id="paint15_linear_2839_54149" x1="23.9989" y1="37.6368" x2="23.9989" y2="45.4162" gradientUnits="userSpaceOnUse">
<stop stop-color="#B5DBFF" stop-opacity="0"/>
<stop offset="0.1734" stop-color="#8FC5E9" stop-opacity="0.173"/>
<stop offset="0.4541" stop-color="#56A4C8" stop-opacity="0.454"/>
<stop offset="0.6955" stop-color="#2D8DB1" stop-opacity="0.696"/>
<stop offset="0.8853" stop-color="#147EA2" stop-opacity="0.885"/>
<stop offset="1" stop-color="#0B799D"/>
</linearGradient>
<linearGradient id="paint16_linear_2839_54149" x1="17.4649" y1="12.5377" x2="17.4649" y2="18.4516" gradientUnits="userSpaceOnUse">
<stop stop-color="#FF9100"/>
<stop offset="1" stop-color="#E63950"/>
</linearGradient>
<linearGradient id="paint17_linear_2839_54149" x1="13.2559" y1="12.5377" x2="13.2559" y2="18.4516" gradientUnits="userSpaceOnUse">
<stop stop-color="#FDBF00"/>
<stop offset="1" stop-color="#FF9100"/>
</linearGradient>
<linearGradient id="paint18_linear_2839_54149" x1="3.31154" y1="16.1987" x2="28.0552" y2="40.9424" gradientUnits="userSpaceOnUse">
<stop stop-color="#FFDA2D"/>
<stop offset="1" stop-color="#FDBF00"/>
</linearGradient>
<linearGradient id="paint19_linear_2839_54149" x1="26.8057" y1="21.2744" x2="28.156" y2="22.3032" gradientUnits="userSpaceOnUse">
<stop stop-color="#FF637B"/>
<stop offset="1" stop-color="#E63950"/>
</linearGradient>
<linearGradient id="paint20_linear_2839_54149" x1="30.5732" y1="21.2744" x2="31.9235" y2="22.3032" gradientUnits="userSpaceOnUse">
<stop stop-color="#FF637B"/>
<stop offset="1" stop-color="#E63950"/>
</linearGradient>
<linearGradient id="paint21_linear_2839_54149" x1="34.3427" y1="21.2744" x2="35.6931" y2="22.3032" gradientUnits="userSpaceOnUse">
<stop stop-color="#FF637B"/>
<stop offset="1" stop-color="#E63950"/>
</linearGradient>
<linearGradient id="paint22_linear_2839_54149" x1="19.87" y1="43.127" x2="19.87" y2="50.9065" gradientUnits="userSpaceOnUse">
<stop stop-color="#FF9100" stop-opacity="0"/>
<stop offset="1" stop-color="#FF9100"/>
</linearGradient>
<clipPath id="clip0_2839_54149">
<rect width="48" height="48" fill="white"/>
</clipPath>
</defs>
</svg>
