<svg width="28" height="28" viewBox="0 0 28 28" fill="none" xmlns="http://www.w3.org/2000/svg">
<path fill-rule="evenodd" clip-rule="evenodd" d="M8.22093 27.3327H19.7764C24.2968 27.3327 27.3327 24.1619 27.3327 19.4437V8.55498C27.3327 3.83683 24.2968 0.666016 19.7778 0.666016H8.22093C3.70188 0.666016 0.666016 3.83683 0.666016 8.55498V19.4437C0.666016 24.1619 3.70188 27.3327 8.22093 27.3327ZM9.33116 12.666C7.49297 12.666 5.99935 11.1704 5.99935 9.33268C5.99935 7.49499 7.49297 5.99935 9.33116 5.99935C11.168 5.99935 12.663 7.49499 12.663 9.33268C12.663 11.1704 11.168 12.666 9.33116 12.666ZM24.4271 17.9113C24.8736 19.0561 24.6416 20.4321 24.1643 21.5659C23.5985 22.9144 22.5152 23.9354 21.1503 24.3812C20.5442 24.5793 19.9087 24.666 19.2745 24.666H8.03754C6.91934 24.666 5.92985 24.3977 5.11869 23.8982C4.61054 23.5845 4.5207 22.8607 4.89746 22.3915C5.52762 21.6072 6.14974 20.8201 6.77722 20.0262C7.97318 18.5071 8.77899 18.0668 9.67462 18.4534C10.038 18.613 10.4027 18.8525 10.7781 19.1056C11.7783 19.7854 13.1687 20.7197 15.0002 19.7056C16.2535 19.0036 16.9804 17.7995 17.6135 16.751L17.624 16.7334C17.6689 16.6599 17.7134 16.5863 17.7577 16.513L17.7577 16.5129C17.9704 16.1609 18.1803 15.8136 18.4178 15.4937C18.7154 15.0933 19.8189 13.8411 21.2481 14.7327C22.1585 15.2942 22.9241 16.0537 23.7433 16.8669C24.0557 17.1779 24.2783 17.5315 24.4271 17.9113Z" fill="#7966FF"/>
</svg>
