<svg width="24" height="25" viewBox="0 0 24 25" fill="none" xmlns="http://www.w3.org/2000/svg">
<rect y="0.148438" width="24" height="24" rx="12" fill="#F85B9F"/>
<g clip-path="url(#clip0_2432_14082)">
<path d="M11.9184 12.9488C13.2416 12.9488 14.4416 13.4872 15.3112 14.356L14.18 15.4872C13.6008 14.908 12.8008 14.5488 11.9184 14.5488C11.036 14.5488 10.236 14.908 9.6568 15.4872L8.5256 14.356C8.97058 13.9096 9.49938 13.5555 10.0816 13.314C10.6639 13.0725 11.2881 12.9484 11.9184 12.9488ZM6.2616 12.092C7.7728 10.5808 9.7816 9.74884 11.9184 9.74884C14.0552 9.74884 16.064 10.5808 17.5752 12.092L16.444 13.2232C15.2352 12.0144 13.628 11.3488 11.9184 11.3488C10.2088 11.3488 8.6016 12.0144 7.3928 13.2232L6.2616 12.092ZM16.2784 7.42964C17.6091 7.99197 18.818 8.80701 19.8384 9.82964L18.7072 10.9608C16.8936 9.14804 14.4832 8.14884 11.9192 8.14884C9.3552 8.14884 6.944 9.14724 5.1312 10.9608L4 9.82964C5.03885 8.78791 6.27335 7.96178 7.63254 7.39874C8.99173 6.83571 10.4488 6.54687 11.92 6.54884C13.432 6.54884 14.8984 6.84484 16.28 7.42964H16.2784ZM11.1184 16.9488C11.1184 16.7367 11.2027 16.5332 11.3527 16.3832C11.5027 16.2331 11.7062 16.1488 11.9184 16.1488C12.1306 16.1488 12.3341 16.2331 12.4841 16.3832C12.6341 16.5332 12.7184 16.7367 12.7184 16.9488C12.7184 17.161 12.6341 17.3645 12.4841 17.5145C12.3341 17.6646 12.1306 17.7488 11.9184 17.7488C11.7062 17.7488 11.5027 17.6646 11.3527 17.5145C11.2027 17.3645 11.1184 17.161 11.1184 16.9488Z" fill="white"/>
</g>
<defs>
<clipPath id="clip0_2432_14082">
<rect width="16" height="16" fill="white" transform="translate(4 4.14844)"/>
</clipPath>
</defs>
</svg>
