<svg width="56" height="56" viewBox="0 0 56 56" fill="none" xmlns="http://www.w3.org/2000/svg">
<path d="M0 18C0 8.05888 8.05887 0 18 0H38C47.9411 0 56 8.05887 56 18V38C56 47.9411 47.9411 56 38 56H18C8.05888 56 0 47.9411 0 38V18Z" fill="#F85B9F"/>
<g clip-path="url(#clip0_2851_16509)">
<path d="M27.8095 29.8669C30.897 29.8669 33.697 31.1232 35.726 33.1504L33.0866 35.7899C31.7351 34.4384 29.8685 33.6003 27.8095 33.6003C25.7506 33.6003 23.8839 34.4384 22.5325 35.7899L19.893 33.1504C20.9313 32.1087 22.1651 31.2824 23.5237 30.7189C24.8823 30.1555 26.3387 29.8659 27.8095 29.8669ZM14.6103 27.8677C18.1365 24.3416 22.8237 22.4003 27.8095 22.4003C32.7954 22.4003 37.4826 24.3416 41.0087 27.8677L38.3692 30.5072C35.5487 27.6867 31.7986 26.1336 27.8095 26.1336C23.8205 26.1336 20.0703 27.6867 17.2498 30.5072L14.6103 27.8677ZM37.9828 16.9888C41.0877 18.3009 43.9087 20.2027 46.2895 22.5888L43.6501 25.2283C39.4183 20.9984 33.7941 18.6669 27.8114 18.6669C21.8287 18.6669 16.2026 20.9965 11.9727 25.2283L9.33325 22.5888C11.7572 20.1581 14.6377 18.2305 17.8092 16.9167C20.9806 15.603 24.3805 14.929 27.8132 14.9336C31.3412 14.9336 34.7628 15.6243 37.9866 16.9888H37.9828ZM25.9429 39.2003C25.9429 38.7052 26.1395 38.2304 26.4896 37.8804C26.8397 37.5303 27.3144 37.3336 27.8095 37.3336C28.3046 37.3336 28.7794 37.5303 29.1294 37.8804C29.4795 38.2304 29.6762 38.7052 29.6762 39.2003C29.6762 39.6954 29.4795 40.1701 29.1294 40.5202C28.7794 40.8703 28.3046 41.0669 27.8095 41.0669C27.3144 41.0669 26.8397 40.8703 26.4896 40.5202C26.1395 40.1701 25.9429 39.6954 25.9429 39.2003Z" fill="white"/>
</g>
<defs>
<clipPath id="clip0_2851_16509">
<rect width="37.3333" height="37.3333" fill="white" transform="translate(9.33337 9.3335)"/>
</clipPath>
</defs>
</svg>
