<svg width="24" height="24" viewBox="0 0 24 24" fill="none" xmlns="http://www.w3.org/2000/svg">
<path d="M0 12C0 5.37258 5.37258 0 12 0V0C18.6274 0 24 5.37258 24 12V12C24 18.6274 18.6274 24 12 24V24C5.37258 24 0 18.6274 0 12V12Z" fill="#7966FF"/>
<path d="M10.2948 5.84607V7.55547C10.2948 7.69148 10.2408 7.82192 10.1446 7.91809C10.0485 8.01427 9.91802 8.0683 9.78201 8.0683C9.646 8.0683 9.51556 8.01427 9.41939 7.91809C9.32322 7.82192 9.26919 7.69148 9.26919 7.55547V5.84607C9.26919 5.71006 9.32322 5.57963 9.41939 5.48345C9.51556 5.38728 9.646 5.33325 9.78201 5.33325C9.91802 5.33325 10.0485 5.38728 10.1446 5.48345C10.2408 5.57963 10.2948 5.71006 10.2948 5.84607Z" fill="white"/>
<path d="M18.2675 7.93154C18.2356 7.49121 18.0458 7.07721 17.7329 6.76566C17.4201 6.45411 17.0054 6.26596 16.5649 6.23582C16.1205 6.20163 15.6145 6.16744 15.0812 6.14009V7.55547C15.0812 7.87283 14.9551 8.17718 14.7307 8.40159C14.5063 8.62599 14.2019 8.75206 13.8846 8.75206C13.5672 8.75206 13.2629 8.62599 13.0385 8.40159C12.8141 8.17718 12.688 7.87283 12.688 7.55547V6.01701H10.9786V7.55547C10.9786 7.87283 10.8525 8.17718 10.6281 8.40159C10.4037 8.62599 10.0994 8.75206 9.78201 8.75206C9.46466 8.75206 9.1603 8.62599 8.9359 8.40159C8.7115 8.17718 8.58543 7.87283 8.58543 7.55547V6.14009C8.0521 6.14009 7.54611 6.20163 7.09483 6.23582C6.65487 6.26735 6.24089 6.45595 5.92836 6.76722C5.61583 7.07849 5.42557 7.49171 5.39227 7.93154C5.2897 9.1965 5.16663 10.988 5.16663 12.3418C5.16663 13.6956 5.2897 15.4939 5.39227 16.7589C5.42576 17.198 5.61626 17.6104 5.92892 17.9205C6.24157 18.2307 6.65546 18.4178 7.09483 18.4478C8.46235 18.5503 10.3906 18.6666 11.8333 18.6666C13.276 18.6666 15.1974 18.5503 16.5649 18.4478C17.0048 18.4192 17.4195 18.2325 17.7324 17.9221C18.0453 17.6117 18.2354 17.1985 18.2675 16.7589C18.3769 15.4939 18.5 13.7025 18.5 12.3418C18.5 10.9811 18.3769 9.1965 18.2675 7.93154ZM9.09825 14.7691C8.91691 14.7691 8.74299 14.6971 8.61476 14.5689C8.48653 14.4407 8.41449 14.2667 8.41449 14.0854C8.41449 13.904 8.48653 13.7301 8.61476 13.6019C8.74299 13.4737 8.91691 13.4016 9.09825 13.4016C9.27959 13.4016 9.45351 13.4737 9.58174 13.6019C9.70997 13.7301 9.78201 13.904 9.78201 14.0854C9.78201 14.2667 9.70997 14.4407 9.58174 14.5689C9.45351 14.6971 9.27959 14.7691 9.09825 14.7691ZM9.09825 12.0341C8.91691 12.0341 8.74299 11.9621 8.61476 11.8338C8.48653 11.7056 8.41449 11.5317 8.41449 11.3503C8.41449 11.169 8.48653 10.9951 8.61476 10.8669C8.74299 10.7386 8.91691 10.6666 9.09825 10.6666C9.27959 10.6666 9.45351 10.7386 9.58174 10.8669C9.70997 10.9951 9.78201 11.169 9.78201 11.3503C9.78201 11.5317 9.70997 11.7056 9.58174 11.8338C9.45351 11.9621 9.27959 12.0341 9.09825 12.0341ZM11.8333 14.7691C11.6519 14.7691 11.478 14.6971 11.3498 14.5689C11.2216 14.4407 11.1495 14.2667 11.1495 14.0854C11.1495 13.904 11.2216 13.7301 11.3498 13.6019C11.478 13.4737 11.6519 13.4016 11.8333 13.4016C12.0146 13.4016 12.1886 13.4737 12.3168 13.6019C12.445 13.7301 12.5171 13.904 12.5171 14.0854C12.5171 14.2667 12.445 14.4407 12.3168 14.5689C12.1886 14.6971 12.0146 14.7691 11.8333 14.7691ZM11.8333 12.0341C11.6519 12.0341 11.478 11.9621 11.3498 11.8338C11.2216 11.7056 11.1495 11.5317 11.1495 11.3503C11.1495 11.169 11.2216 10.9951 11.3498 10.8669C11.478 10.7386 11.6519 10.6666 11.8333 10.6666C12.0146 10.6666 12.1886 10.7386 12.3168 10.8669C12.445 10.9951 12.5171 11.169 12.5171 11.3503C12.5171 11.5317 12.445 11.7056 12.3168 11.8338C12.1886 11.9621 12.0146 12.0341 11.8333 12.0341ZM14.5683 12.0341C14.387 12.0341 14.2131 11.9621 14.0848 11.8338C13.9566 11.7056 13.8846 11.5317 13.8846 11.3503C13.8846 11.169 13.9566 10.9951 14.0848 10.8669C14.2131 10.7386 14.387 10.6666 14.5683 10.6666C14.7497 10.6666 14.9236 10.7386 15.0518 10.8669C15.1801 10.9951 15.2521 11.169 15.2521 11.3503C15.2521 11.5317 15.1801 11.7056 15.0518 11.8338C14.9236 11.9621 14.7497 12.0341 14.5683 12.0341Z" fill="white"/>
<path d="M14.3974 5.84607V7.55547C14.3974 7.69148 14.3434 7.82192 14.2472 7.91809C14.151 8.01427 14.0206 8.0683 13.8846 8.0683C13.7486 8.0683 13.6181 8.01427 13.522 7.91809C13.4258 7.82192 13.3718 7.69148 13.3718 7.55547V5.84607C13.3718 5.71006 13.4258 5.57963 13.522 5.48345C13.6181 5.38728 13.7486 5.33325 13.8846 5.33325C14.0206 5.33325 14.151 5.38728 14.2472 5.48345C14.3434 5.57963 14.3974 5.71006 14.3974 5.84607Z" fill="white"/>
</svg>
