<svg width="56" height="56" viewBox="0 0 56 56" fill="none" xmlns="http://www.w3.org/2000/svg">
<circle cx="28" cy="28" r="28" fill="white"/>
<path d="M11.6875 42.0625C11.6875 43.3051 12.6949 44.3125 13.9375 44.3125H34.1875C35.4301 44.3125 36.4375 43.3051 36.4375 42.0625V28.5625H11.6875V42.0625Z" fill="#D7E3F9"/>
<path d="M34.1875 22.9375H13.9375C12.6949 22.9375 11.6875 23.9449 11.6875 25.1875V28.5625H36.4375V25.1875C36.4375 23.9449 35.4301 22.9375 34.1875 22.9375Z" fill="#ED69AB"/>
<path d="M13.9375 31.9375H17.3125V35.3125H13.9375V31.9375Z" fill="#618BF2"/>
<path d="M19.5625 31.9375H22.9375V35.3125H19.5625V31.9375Z" fill="#618BF2"/>
<path d="M25.1875 31.9375H28.5625V35.3125H25.1875V31.9375Z" fill="#618BF2"/>
<path d="M30.8125 31.9375H34.1875V35.3125H30.8125V31.9375Z" fill="#618BF2"/>
<path d="M13.9375 37.5625H17.3125V40.9375H13.9375V37.5625Z" fill="#618BF2"/>
<path d="M19.5625 37.5625H22.9375V40.9375H19.5625V37.5625Z" fill="#618BF2"/>
<path d="M25.1875 37.5625H28.5625V40.9375H25.1875V37.5625Z" fill="#618BF2"/>
<path d="M30.8125 37.5625H34.1875V40.9375H30.8125V37.5625Z" fill="#618BF2"/>
<path d="M16.1875 25.75C15.5659 25.75 15.0625 25.2466 15.0625 24.625V21.25C15.0625 20.6284 15.5659 20.125 16.1875 20.125C16.8091 20.125 17.3125 20.6284 17.3125 21.25V24.625C17.3125 25.2466 16.8091 25.75 16.1875 25.75Z" fill="#3162A8"/>
<path d="M21.25 25.75C20.6284 25.75 20.125 25.2466 20.125 24.625V21.25C20.125 20.6284 20.6284 20.125 21.25 20.125C21.8716 20.125 22.375 20.6284 22.375 21.25V24.625C22.375 25.2466 21.8716 25.75 21.25 25.75Z" fill="#3162A8"/>
<path d="M26.3125 25.75C25.6909 25.75 25.1875 25.2466 25.1875 24.625V21.25C25.1875 20.6284 25.6909 20.125 26.3125 20.125C26.9341 20.125 27.4375 20.6284 27.4375 21.25V24.625C27.4375 25.2466 26.9341 25.75 26.3125 25.75Z" fill="#3162A8"/>
<path d="M30.8125 21.25L27.4375 33.0625L37.5625 25.1875L30.8125 21.25Z" fill="#3162A8"/>
<path d="M44.3125 19C44.3125 21.1094 43.4181 23.0106 41.9894 24.3381C40.6844 25.5644 38.9294 26.3125 37 26.3125C35.0706 26.3125 33.3156 25.5644 32.0106 24.3381C30.5819 23.0106 29.6875 21.1094 29.6875 19C29.6875 14.9613 32.9613 11.6875 37 11.6875C41.0387 11.6875 44.3125 14.9613 44.3125 19Z" fill="#4577D8"/>
<path d="M37 20.125C38.5533 20.125 39.8125 18.8658 39.8125 17.3125C39.8125 15.7592 38.5533 14.5 37 14.5C35.4467 14.5 34.1875 15.7592 34.1875 17.3125C34.1875 18.8658 35.4467 20.125 37 20.125Z" fill="#FFBB4D"/>
<path d="M41.9885 24.3381C40.6835 25.5644 38.9285 26.3125 36.9991 26.3125C35.0698 26.3125 33.3148 25.5644 32.0098 24.3381C32.4148 21.9475 34.496 20.125 36.9991 20.125C38.3941 20.125 39.6654 20.6931 40.5766 21.61C41.3023 22.33 41.8085 23.2806 41.9885 24.3381Z" fill="#FFBB4D"/>
</svg>
