<svg width="24" height="24" viewBox="0 0 24 24" fill="none" xmlns="http://www.w3.org/2000/svg">
<g clip-path="url(#clip0_260_20590)">
<path d="M16.1372 11.9599H10.0443C9.7268 11.9599 9.44855 11.7475 9.36483 11.4412C9.28112 11.1349 9.41265 10.8105 9.68597 10.6489C12.3406 9.0803 13.7196 7.25049 13.9014 5.05496C13.9649 4.29301 14.6435 3.68438 15.4139 3.69446C16.2 3.70702 16.9365 4.02212 17.488 4.5818C18.04 5.14201 18.3443 5.88385 18.3445 6.6706C18.3445 6.67069 18.3445 6.67079 18.3445 6.67088V6.90755C18.3445 8.82943 17.7753 10.0548 16.725 11.6438C16.5944 11.8412 16.3738 11.9599 16.1372 11.9599Z" fill="#FFC380"/>
<path d="M23.6042 12.758C23.6042 11.541 22.6141 10.5508 21.397 10.5508H10.0443C9.91814 10.5508 9.7943 10.5846 9.68578 10.6488C8.88886 11.12 8.0842 11.5079 7.43766 11.8197C7.21214 11.9284 6.99914 12.0311 6.80541 12.1279C6.56677 12.2473 6.41602 12.4912 6.41602 12.758V21.7749C6.41602 22.0417 6.56677 22.2856 6.80541 22.405C9.6518 23.8279 12.0179 24 14.777 24C15.2042 24 15.6412 23.9959 16.0905 23.9917C16.5875 23.987 17.1013 23.9821 17.64 23.9821H19.867C21.084 23.9821 22.0742 22.992 22.0742 21.7749C22.0742 21.3656 21.9623 20.9821 21.7674 20.6532C22.4016 20.265 22.8256 19.5657 22.8256 18.7692C22.8256 18.36 22.7138 17.9765 22.5188 17.6476C23.153 17.2593 23.577 16.5601 23.577 15.7636C23.577 15.1912 23.358 14.6689 22.9994 14.2764C23.3899 13.8648 23.6042 13.3279 23.6042 12.758Z" fill="#FFCF99"/>
<path d="M22.1389 6.61493H20.6361C20.2471 6.61493 19.9316 6.29951 19.9316 5.91049C19.9316 5.52148 20.2471 5.20605 20.6361 5.20605H22.1389C22.5279 5.20605 22.8433 5.52148 22.8433 5.91049C22.8433 6.29951 22.528 6.61493 22.1389 6.61493Z" fill="#29CCB1"/>
<path d="M11.6194 6.61493H10.1165C9.72753 6.61493 9.41211 6.29951 9.41211 5.91049C9.41211 5.52148 9.72753 5.20605 10.1165 5.20605H11.6194C12.0084 5.20605 12.3238 5.52148 12.3238 5.91049C12.3238 6.29951 12.0085 6.61493 11.6194 6.61493Z" fill="#29CCB1"/>
<path d="M13.8746 2.71054C13.631 2.71054 13.3943 2.58422 13.2639 2.35823L12.5125 1.05675C12.3179 0.719856 12.4334 0.288981 12.7703 0.0944966C13.1072 -0.100035 13.538 0.0154185 13.7325 0.352309L14.4839 1.65379C14.6785 1.99068 14.563 2.42156 14.2261 2.61604C14.1152 2.68012 13.994 2.71054 13.8746 2.71054Z" fill="#29CCB1"/>
<path d="M18.3816 2.71059C18.2621 2.71059 18.1409 2.68016 18.03 2.61609C17.6932 2.42155 17.5777 1.99073 17.7722 1.65384L18.5236 0.352351C18.7181 0.0154602 19.149 -0.100087 19.4859 0.0945383C19.8228 0.28907 19.9382 0.719898 19.7437 1.05679L18.9923 2.35827C18.8619 2.58426 18.6251 2.71059 18.3816 2.71059Z" fill="#29CCB1"/>
<path d="M4.80927 20.2811V23.9912H3.40039V20.2811C3.40039 19.8923 3.716 19.5767 4.10483 19.5767C4.49366 19.5767 4.80927 19.8923 4.80927 20.2811Z" fill="#73C3FF"/>
<path d="M22.1389 6.61493H20.6361C20.2471 6.61493 19.9316 6.29951 19.9316 5.91049C19.9316 5.52148 20.2471 5.20605 20.6361 5.20605H22.1389C22.5279 5.20605 22.8433 5.52148 22.8433 5.91049C22.8433 6.29951 22.528 6.61493 22.1389 6.61493Z" fill="#29CCB1"/>
<path d="M11.6194 6.61493H10.1165C9.72753 6.61493 9.41211 6.29951 9.41211 5.91049C9.41211 5.52148 9.72753 5.20605 10.1165 5.20605H11.6194C12.0084 5.20605 12.3238 5.52148 12.3238 5.91049C12.3238 6.29951 12.0085 6.61493 11.6194 6.61493Z" fill="#29CCB1"/>
<path d="M13.8746 2.71054C13.631 2.71054 13.3943 2.58422 13.2639 2.35823L12.5125 1.05675C12.3179 0.719856 12.4334 0.288981 12.7703 0.0944966C13.1072 -0.100035 13.538 0.0154185 13.7325 0.352309L14.4839 1.65379C14.6785 1.99068 14.563 2.42156 14.2261 2.61604C14.1152 2.68012 13.994 2.71054 13.8746 2.71054Z" fill="#29CCB1"/>
<path d="M18.3816 2.71059C18.2621 2.71059 18.1409 2.68016 18.03 2.61609C17.6932 2.42155 17.5777 1.99073 17.7722 1.65384L18.5236 0.352351C18.7181 0.0154602 19.149 -0.100087 19.4859 0.0945383C19.8228 0.28907 19.9382 0.719898 19.7437 1.05679L18.9923 2.35827C18.8619 2.58426 18.6251 2.71059 18.3816 2.71059Z" fill="#29CCB1"/>
<path d="M4.80927 20.2811V23.9912H3.40039V20.2811C3.40039 19.8923 3.716 19.5767 4.10483 19.5767C4.49366 19.5767 4.80927 19.8923 4.80927 20.2811Z" fill="#73C3FF"/>
<path d="M7.11212 10.5508H1.10092C0.712094 10.5508 0.396484 10.8664 0.396484 11.2552V23.2776C0.396484 23.6669 0.712094 23.9821 1.10092 23.991H5.60931C6.47294 23.9821 7.222 23.4838 7.58411 22.7596C7.73298 22.4633 7.81656 22.1284 7.81656 21.7748V11.2552C7.81656 10.8663 7.50095 10.5508 7.11212 10.5508Z" fill="#F9A504"/>
<path d="M4.80927 20.2337V23.9908H3.40039V20.2337C3.40039 19.8449 3.716 19.5293 4.10483 19.5293C4.49366 19.5293 4.80927 19.8449 4.80927 20.2337Z" fill="#FFC557"/>
</g>
<defs>
<clipPath id="clip0_260_20590">
<rect width="24" height="24" fill="white"/>
</clipPath>
</defs>
</svg>
