<svg width="21" height="20" viewBox="0 0 21 20" fill="none" xmlns="http://www.w3.org/2000/svg">
<g clip-path="url(#clip0_2826_54845)">
<path d="M20.5 19.3473L20.5 15.027C20.5 14.7536 20.2784 14.5319 20.0049 14.5319L18.1238 14.5319L18.1238 12.4077C18.1226 11.3145 17.2367 10.4286 16.1436 10.4275L13.0023 10.4275L13.0023 8.91526C13.0023 8.64182 12.7807 8.42021 12.5073 8.42021L10.995 8.42021L10.995 5.459L12.8762 5.459C13.1497 5.459 13.3713 5.23739 13.3713 4.96395L13.3713 0.643487C13.3713 0.370049 13.1497 0.148437 12.8762 0.148437L8.12376 0.148437C7.85032 0.148437 7.62871 0.370049 7.62871 0.643486L7.62871 4.96395C7.62871 5.23739 7.85032 5.459 8.12376 5.459L10.005 5.459L10.005 8.42021L8.49273 8.42021C8.21929 8.42021 7.99768 8.64182 7.99768 8.91526L7.99768 10.4275L4.85644 10.4275C3.76327 10.4286 2.8774 11.3145 2.87624 12.4077L2.87624 14.5319L0.995048 14.5319C0.72161 14.5319 0.499999 14.7536 0.499999 15.027L0.499999 19.3473C0.499999 19.6207 0.72161 19.8423 0.995048 19.8423L5.74752 19.8423C6.02096 19.8423 6.24257 19.6207 6.24257 19.3473L6.24257 15.027C6.24257 14.7536 6.02096 14.5319 5.74752 14.5319L3.86634 14.5319L3.86634 12.4077C3.86692 11.861 4.30995 11.4182 4.85644 11.4176L7.99768 11.4176L7.99768 12.7136C7.99768 12.987 8.21929 13.2087 8.49273 13.2087L12.5073 13.2087C12.7807 13.2087 13.0023 12.987 13.0023 12.7136L13.0023 11.4176L16.1436 11.4176C16.6901 11.4182 17.1331 11.861 17.1337 12.4077L17.1337 14.5319L15.2525 14.5319C14.979 14.5319 14.7574 14.7536 14.7574 15.027L14.7574 19.3473C14.7574 19.6207 14.979 19.8423 15.2525 19.8423L20.0049 19.8423C20.2784 19.8423 20.5 19.6207 20.5 19.3473Z" fill="#02C5DD"/>
</g>
<defs>
<clipPath id="clip0_2826_54845">
<rect width="20" height="20" fill="white" transform="translate(20.5) rotate(90)"/>
</clipPath>
</defs>
</svg>
