<svg width="56" height="56" viewBox="0 0 56 56" fill="none" xmlns="http://www.w3.org/2000/svg">
<circle cx="28" cy="28" r="28" fill="white"/>
<path d="M14.4981 33.5C14.2215 33.5011 13.9984 33.7264 14 34.0029V40.501C14 41.8774 15.1217 43 16.4981 43H39.5009C40.8773 43 42 41.8774 42 40.501V34.0029C42.0016 33.7264 41.7785 33.5011 41.5019 33.5H14.4981Z" fill="#5299D3"/>
<path d="M14.4981 33.5C14.2215 33.5011 13.9984 33.7264 14 34.0029V39.5C14 40.8763 15.1217 41.999 16.4981 41.999H36C36.1331 41.999 36.2607 41.9459 36.3545 41.8516L42 36.2061V34.0029C42.0016 33.7264 41.7785 33.5011 41.502 33.5H14.4981Z" fill="#3587CB"/>
<path d="M16.4981 15.5C15.1217 15.5 14 16.6217 14 17.998V38.5002C14 39.8765 15.1217 40.9991 16.4981 40.9991H35.4998C35.6328 40.9991 35.7604 40.946 35.8543 40.8517L41.8525 34.8538C41.9469 34.76 42 34.6324 42 34.4993V17.998C42 16.6217 40.8773 15.5 39.5009 15.5C32.427 15.5 23.447 15.5 16.4981 15.5Z" fill="#EEEEEE"/>
<path d="M16.498 15.5C15.1216 15.5 14 16.6217 14 17.998V38.5C14 39.8763 15.1216 40.999 16.498 40.999H17.498C16.1216 40.999 15 39.8763 15 38.5V17.998C15 16.6217 16.1216 15.5 17.498 15.5H16.498Z" fill="#D0D0D0"/>
<path d="M16.4981 15.5C15.1217 15.5 14 16.6217 14 17.998V20.002C14.0011 20.2766 14.2234 20.4989 14.4981 20.5H41.5019C41.7765 20.4989 41.9989 20.2766 42 20.002V17.998C42 16.6217 40.8773 15.5 39.5009 15.5H16.4981Z" fill="#FFCA28"/>
<path d="M20.5 13C19.6777 13 19.002 13.6757 19.002 14.498V16.4989C19.002 17.3212 19.6777 18.0008 20.5 18.0008C21.3224 18.0008 21.9991 17.3212 21.9991 16.4989V14.498C21.9991 13.6757 21.3224 13 20.5 13Z" fill="#5299D3"/>
<path d="M18.001 21.999C17.4556 21.999 17 22.4537 17 22.999V24.9989C17 25.5443 17.4556 25.9999 18.001 25.9999H19.9972C20.5425 25.9999 20.9972 25.5443 20.9972 24.9989V22.999C20.9972 22.4537 20.5425 21.999 19.9972 21.999H18.001Z" fill="#FFCA28"/>
<path d="M23.9981 21.999C23.4527 21.999 22.998 22.4537 22.998 22.999V24.9989C22.998 25.5443 23.4527 25.9999 23.9981 25.9999H25.9991C26.5445 25.9999 26.9992 25.5443 26.9992 24.9989V22.999C26.9992 22.4537 26.5445 21.999 25.9991 21.999H23.9981Z" fill="#FFCA28"/>
<path d="M30 21.999C29.4547 21.999 29 22.4537 29 22.999V24.9989C29 25.5443 29.4547 25.9999 30 25.9999H32.0001C32.5455 25.9999 33.0011 25.5443 33.0011 24.9989V22.999C33.0011 22.4537 32.5455 21.999 32.0001 21.999H30Z" fill="#FFCA28"/>
<path d="M35.9981 21.999C35.4527 21.999 34.998 22.4537 34.998 22.999V24.9989C34.998 25.5443 35.4527 25.9999 35.9981 25.9999H37.9991C38.5445 25.9999 38.9992 25.5443 38.9992 24.9989V22.999C38.9992 22.4537 38.5445 21.999 37.9991 21.999H35.9981Z" fill="#FFCA28"/>
<path d="M18.001 27.999C17.4556 27.999 17 28.4546 17 29V30.9999C17 31.5452 17.4556 31.9999 18.001 31.9999H19.9972C20.5425 31.9999 20.9972 31.5452 20.9972 30.9999V29C20.9972 28.4546 20.5425 27.999 19.9972 27.999H18.001Z" fill="#FFCA28"/>
<path d="M23.9981 27.999C23.4527 27.999 22.998 28.4546 22.998 29V30.9999C22.998 31.5452 23.4527 31.9999 23.9981 31.9999H25.9991C26.5445 31.9999 26.9992 31.5452 26.9992 30.9999V29C26.9992 28.4546 26.5445 27.999 25.9991 27.999H23.9981Z" fill="#FFCA28"/>
<path d="M35.9981 27.999C35.4527 27.999 34.998 28.4546 34.998 29V30.9999C34.998 31.5452 35.4527 31.9999 35.9981 31.9999H37.9991C38.5445 31.9999 38.9992 31.5452 38.9992 30.9999V29C38.9992 28.4546 38.5445 27.999 37.9991 27.999H35.9981Z" fill="#FFCA28"/>
<path d="M18.001 34.001C17.4556 34.001 17 34.4517 17 34.997V36.9979C17 37.5433 17.4556 37.9979 18.001 37.9979H19.9972C20.5425 37.9979 20.9972 37.5433 20.9972 36.9979V34.997C20.9972 34.4517 20.5425 34.001 19.9972 34.001H18.001Z" fill="#FFCA28"/>
<path d="M23.9981 34.001C23.4527 34.001 22.998 34.4517 22.998 34.997V36.9979C22.998 37.5433 23.4527 37.9979 23.9981 37.9979H25.9991C26.5445 37.9979 26.9992 37.5433 26.9992 36.9979V34.997C26.9992 34.4517 26.5445 34.001 25.9991 34.001H23.9981Z" fill="#FFCA28"/>
<path d="M30 34.001C29.4547 34.001 29 34.4517 29 34.997V36.9979C29 37.5433 29.4547 37.9979 30 37.9979H32.0001C32.5455 37.9979 33.0011 37.5433 33.0011 36.9979V34.997C33.0011 34.4517 32.5455 34.001 32.0001 34.001H30Z" fill="#FFCA28"/>
<path d="M30 27.999C29.4547 27.999 29 28.4546 29 29V30.9999C29 31.5452 29.4547 31.9999 30 31.9999H32.0001C32.5455 31.9999 33.0011 31.5452 33.0011 30.9999V29C33.0011 28.4546 32.5455 27.999 32.0001 27.999H30Z" fill="#5299D3"/>
<path d="M37.5011 34.001C36.1247 34.001 34.998 35.1236 34.998 36.4999V40.9988H35.5C35.6331 40.9988 35.7607 40.9457 35.8545 40.8514L41.8528 34.8535C41.9471 34.7597 42.0002 34.6321 42.0002 34.499V34.001L37.5011 34.001Z" fill="#A0C7E7"/>
<path d="M24.5021 17.5C24.3694 17.5 24.2422 17.5527 24.1484 17.6465C24.0546 17.7403 24.002 17.8675 24.002 18.0001C24.002 18.1328 24.0546 18.26 24.1484 18.3538C24.2422 18.4476 24.3694 18.5002 24.5021 18.5002H31.5001C31.6327 18.5002 31.76 18.4476 31.8537 18.3538C31.9475 18.26 32.0002 18.1328 32.0002 18.0001C32.0002 17.8675 31.9475 17.7403 31.8537 17.6465C31.76 17.5527 31.6327 17.5 31.5001 17.5H24.5021Z" fill="#5299D3"/>
<path d="M37.501 34.001C36.1246 34.001 34.998 35.1237 34.998 36.5V40.999H35.5C35.6331 40.999 35.7607 40.9459 35.8545 40.8516L35.998 40.708C35.998 39.4379 35.998 37.8032 35.998 36.5C35.998 35.1237 37.1246 34.001 38.501 34.001L37.501 34.001Z" fill="#74ADDC"/>
<path d="M20.5 13C19.6776 13 19.002 13.6757 19.002 14.498V16.499C19.002 17.3214 19.6776 18.001 20.5 18.001C20.6759 18.001 20.8426 17.9641 21 17.9072C20.422 17.698 20.002 17.1454 20.002 16.499V14.498C20.002 13.8517 20.422 13.301 21 13.0928C20.8426 13.0361 20.6759 13 20.5 13V13Z" fill="#3587CB"/>
<path d="M35.4981 13C34.6757 13 34 13.6757 34 14.498V16.4989C34 17.3212 34.6757 18.0008 35.4981 18.0008C36.3205 18.0008 36.9972 17.3212 36.9972 16.4989V14.498C36.9972 13.6757 36.3205 13 35.4981 13Z" fill="#5299D3"/>
<path d="M35.498 13C34.6757 13 34 13.6757 34 14.498V16.499C34 17.3214 34.6757 18.001 35.498 18.001C35.6739 18.001 35.8407 17.9641 35.998 17.9072C35.42 17.698 35 17.1454 35 16.499V14.498C35 13.8517 35.42 13.301 35.998 13.0928C35.8407 13.0361 35.6739 13 35.498 13V13Z" fill="#3587CB"/>
<path d="M18.001 21.999C17.4556 21.999 17 22.4537 17 22.999V24.999C17 25.5444 17.4556 26 18.001 26H19.001C18.4556 26 18 25.5444 18 24.999V22.999C18 22.4537 18.4556 21.999 19.001 21.999H18.001Z" fill="#ECB200"/>
<path d="M16.498 15.5C15.1216 15.5 14 16.6217 14 17.9981V20.002C14.0011 20.2766 14.2234 20.4989 14.498 20.5H15C15 20 15 18.9833 15 17.9981C15 16.6217 16.1216 15.5 17.498 15.5H16.498Z" fill="#ECB200"/>
<path d="M24.001 21.999C23.4556 21.999 23 22.4537 23 22.999V24.999C23 25.5444 23.4556 26 24.001 26H25.001C24.4556 26 24 25.5444 24 24.999V22.999C24 22.4537 24.4556 21.999 25.001 21.999H24.001Z" fill="#ECB200"/>
<path d="M30.001 21.999C29.4556 21.999 29 22.4537 29 22.999V24.999C29 25.5444 29.4556 26 30.001 26H31.001C30.4556 26 30 25.5444 30 24.999V22.999C30 22.4537 30.4556 21.999 31.001 21.999H30.001Z" fill="#ECB200"/>
<path d="M36.001 21.999C35.4556 21.999 35 22.4537 35 22.999V24.999C35 25.5444 35.4556 26 36.001 26H37.001C36.4556 26 36 25.5444 36 24.999V22.999C36 22.4537 36.4556 21.999 37.001 21.999H36.001Z" fill="#ECB200"/>
<path d="M36.001 28C35.4556 28 35 28.4547 35 29V31C35 31.5453 35.4556 32.001 36.001 32.001H37.001C36.4556 32.001 36 31.5453 36 31V29C36 28.4547 36.4556 28 37.001 28H36.001Z" fill="#ECB200"/>
<path d="M24.001 28C23.4556 28 23 28.4547 23 29V31C23 31.5453 23.4556 32.001 24.001 32.001H25.001C24.4556 32.001 24 31.5453 24 31V29C24 28.4547 24.4556 28 25.001 28H24.001Z" fill="#ECB200"/>
<path d="M18.001 28C17.4556 28 17 28.4547 17 29V31C17 31.5453 17.4556 32.001 18.001 32.001H19.001C18.4556 32.001 18 31.5453 18 31V29C18 28.4547 18.4556 28 19.001 28H18.001Z" fill="#ECB200"/>
<path d="M18.001 34C17.4556 34 17 34.4547 17 35V37C17 37.5453 17.4556 38.001 18.001 38.001H19.001C18.4556 38.001 18 37.5453 18 37V35C18 34.4547 18.4556 34 19.001 34H18.001Z" fill="#ECB200"/>
<path d="M24.001 34C23.4556 34 23 34.4547 23 35V37C23 37.5453 23.4556 38.001 24.001 38.001H25.001C24.4556 38.001 24 37.5453 24 37V35C24 34.4547 24.4556 34 25.001 34H24.001Z" fill="#ECB200"/>
<path d="M30.001 34C29.4556 34 29 34.4547 29 35V37C29 37.5453 29.4556 38.001 30.001 38.001H31.001C30.4556 38.001 30 37.5453 30 37V35C30 34.4547 30.4556 34 31.001 34H30.001Z" fill="#ECB200"/>
<path d="M30.001 28C29.4556 28 29 28.4547 29 29V31C29 31.5453 29.4556 32.001 30.001 32.001H31.001C30.4556 32.001 30 31.5453 30 31V29C30 28.4547 30.4556 28 31.001 28H30.001Z" fill="#3587CB"/>
</svg>
