<svg width="16" height="18" viewBox="0 0 16 18" fill="none" xmlns="http://www.w3.org/2000/svg">
<path fill-rule="evenodd" clip-rule="evenodd" d="M12.6016 5.16269V6.44047C14.0369 6.88848 15.0827 8.1878 15.0827 9.73969V13.8538C15.0827 15.775 13.4899 17.3327 11.5262 17.3327H4.47335C2.50881 17.3327 0.916016 15.775 0.916016 13.8538V9.73969C0.916016 8.1878 1.96264 6.88848 3.39709 6.44047V5.16269C3.40556 2.67834 5.46324 0.666016 7.98665 0.666016C10.5439 0.666016 12.6016 2.67834 12.6016 5.16269ZM8.00358 2.11522C9.72255 2.11522 11.1197 3.48161 11.1197 5.16269V6.26077H4.87896V5.14612C4.88742 3.47333 6.28462 2.11522 8.00358 2.11522ZM8.74028 12.7118C8.74028 13.1176 8.41004 13.4405 7.99511 13.4405C7.58866 13.4405 7.25841 13.1176 7.25841 12.7118V10.8734C7.25841 10.4759 7.58866 10.1529 7.99511 10.1529C8.41004 10.1529 8.74028 10.4759 8.74028 10.8734V12.7118Z" fill="#A2AEBD"/>
</svg>
