<svg width="20" height="20" viewBox="0 0 20 20" fill="none" xmlns="http://www.w3.org/2000/svg">
<path fill-rule="evenodd" clip-rule="evenodd" d="M0.833984 4.21109C0.833984 3.38856 1.49793 2.72461 2.32047 2.72461C3.14301 2.72461 3.80695 3.38856 3.80695 4.21109C3.80695 5.03363 3.14301 5.69758 2.32047 5.69758C1.49793 5.69758 0.833984 5.03363 0.833984 4.21109ZM0.833984 10.1569C0.833984 9.3344 1.49793 8.67045 2.32047 8.67045C3.14301 8.67045 3.80695 9.3344 3.80695 10.1569C3.80695 10.9795 3.14301 11.6434 2.32047 11.6434C1.49793 11.6434 0.833984 10.9795 0.833984 10.1569ZM2.32047 14.6165C1.49301 14.6165 0.833984 15.2854 0.833984 16.103C0.833984 16.9206 1.5029 17.5895 2.32047 17.5895C3.13804 17.5895 3.80695 16.9206 3.80695 16.103C3.80695 15.2854 3.14793 14.6165 2.32047 14.6165ZM5.29342 15.1121H19.1673V17.0941H5.29342V15.1121ZM19.1673 3.22021H5.29342V5.20221H19.1673V3.22021ZM5.29342 9.16606H19.1673V11.1481H5.29342V9.16606Z" fill="#A2AEBD"/>
</svg>
