<svg width="32" height="32" viewBox="0 0 32 32" fill="none" xmlns="http://www.w3.org/2000/svg">
    <path fill-rule="evenodd" clip-rule="evenodd" d="M1.33325 6.73775C1.33325 5.42169 2.39557 4.35938 3.71163 4.35938C5.02769 4.35938 6.09 5.42169 6.09 6.73775C6.09 8.05381 5.02769 9.11612 3.71163 9.11612C2.39557 9.11612 1.33325 8.05381 1.33325 6.73775ZM1.33325 16.2511C1.33325 14.935 2.39557 13.8727 3.71163 13.8727C5.02769 13.8727 6.09 14.935 6.09 16.2511C6.09 17.5672 5.02769 18.6295 3.71163 18.6295C2.39557 18.6295 1.33325 17.5672 1.33325 16.2511ZM3.71163 23.3864C2.38769 23.3864 1.33325 24.4567 1.33325 25.7648C1.33325 27.0729 2.40352 28.1432 3.71163 28.1432C5.01973 28.1432 6.09 27.0729 6.09 25.7648C6.09 24.4567 5.03556 23.3864 3.71163 23.3864ZM8.46834 24.1794H30.6665V27.3506H8.46834V24.1794ZM30.6665 5.15234H8.46834V8.32354H30.6665V5.15234ZM8.46834 14.6657H30.6665V17.8369H8.46834V14.6657Z" fill="#A2AEBD"/>
</svg>
