<svg width="24" height="24" viewBox="0 0 24 24" fill="none" xmlns="http://www.w3.org/2000/svg">
<rect width="24" height="24" rx="12" fill="#5A8DEE"/>
<path d="M12.0007 5.3335C8.32718 5.3335 5.33398 8.32669 5.33398 12.0002C5.33398 13.0206 5.53807 14.041 6.01426 14.9253V17.4423C6.01426 17.7144 6.21834 17.9866 6.55847 17.9866H9.07548C9.95984 18.4627 10.9802 18.6668 12.0007 18.6668C15.6741 18.6668 18.6673 15.6736 18.6673 12.0002C18.6673 8.32669 15.6741 5.3335 12.0007 5.3335ZM9.95984 12.6804C9.6197 12.6804 9.27956 12.3403 9.27956 12.0002C9.27956 11.66 9.6197 11.3199 9.95984 11.3199C10.3 11.3199 10.6401 11.66 10.6401 12.0002C10.6401 12.3403 10.3 12.6804 9.95984 12.6804ZM12.0007 12.6804C11.6605 12.6804 11.3204 12.3403 11.3204 12.0002C11.3204 11.66 11.6605 11.3199 12.0007 11.3199C12.3408 11.3199 12.6809 11.66 12.6809 12.0002C12.6809 12.3403 12.3408 12.6804 12.0007 12.6804ZM14.0415 12.6804C13.7013 12.6804 13.3612 12.3403 13.3612 12.0002C13.3612 11.66 13.7013 11.3199 14.0415 11.3199C14.3816 11.3199 14.7217 11.66 14.7217 12.0002C14.7217 12.3403 14.3816 12.6804 14.0415 12.6804Z" fill="white"/>
</svg>
