<svg width="20" height="20" viewBox="0 0 20 20" fill="none" xmlns="http://www.w3.org/2000/svg">
<path d="M7.3204 1.20944C6.66228 1.02141 5.6281 0.833374 4.87597 0.833374C4.12383 0.833374 3.08965 1.02141 2.43153 1.20944C1.77342 1.30346 1.30333 1.77354 1.20932 2.43166C1.02129 3.08977 0.833252 4.12396 0.833252 4.87609C0.833252 5.62822 1.02129 6.66241 1.1153 7.32052C1.20932 7.97864 1.77342 8.44872 2.33752 8.54274C2.99563 8.63675 4.02982 8.82479 4.78195 8.82479C5.53408 8.82479 6.56827 8.63675 7.22638 8.54274C7.8845 8.44872 8.35458 7.88462 8.4486 7.32052C8.54261 6.66241 8.73065 5.62822 8.73065 4.87609C8.73065 4.12396 8.54261 3.08977 8.4486 2.43166C8.4486 1.77354 7.97852 1.30346 7.3204 1.20944Z" fill="#A2AEBD"/>
<path d="M7.32035 11.5513C6.66224 11.4573 5.62805 11.2693 4.87592 11.2693C4.12379 11.2693 3.08961 11.4573 2.43149 11.5513C1.77337 11.6453 1.30329 12.2094 1.20927 12.7735C1.11526 13.4317 0.927223 14.4658 0.927223 15.218C0.927223 15.9701 1.11526 17.0043 1.20927 17.6624C1.30329 18.3205 1.86739 18.7906 2.43149 18.8846C3.08961 18.9786 4.12379 19.1667 4.87592 19.1667C5.62805 19.1667 6.66224 18.9786 7.32035 18.8846C7.97847 18.7906 8.44855 18.2265 8.54257 17.6624C8.63659 17.0043 8.82462 15.9701 8.82462 15.218C8.82462 14.4658 8.63659 13.4317 8.54257 12.7735C8.44855 12.1154 7.97847 11.6453 7.32035 11.5513Z" fill="#A2AEBD"/>
<path d="M12.7733 8.54291C13.4314 8.63693 14.4656 8.82496 15.2177 8.82496C15.9699 8.82496 17.0041 8.63693 17.6622 8.54291C18.3203 8.4489 18.7904 7.8848 18.8844 7.3207C18.9784 6.66258 19.1664 5.6284 19.1664 4.87627C19.1664 4.12413 18.9784 3.08995 18.8844 2.43183C18.7904 1.77372 18.2263 1.30363 17.6622 1.20962C17.0041 1.1156 15.9699 0.927568 15.2177 0.927568C14.4656 0.927568 13.4314 1.1156 12.7733 1.20962C12.1152 1.30363 11.6451 1.86773 11.5511 2.43183C11.4571 3.08995 11.269 4.12413 11.269 4.87627C11.269 5.6284 11.4571 6.66258 11.5511 7.3207C11.6451 7.97881 12.1152 8.4489 12.7733 8.54291Z" fill="#A2AEBD"/>
<path d="M17.6622 11.5513C17.0041 11.4573 15.9699 11.2693 15.2177 11.2693C14.4656 11.2693 13.4314 11.4573 12.7733 11.5513C12.1152 11.6453 11.6451 12.2094 11.5511 12.7735C11.4571 13.4317 11.269 14.4658 11.269 15.218C11.269 15.9701 11.4571 17.0043 11.5511 17.6624C11.6451 18.3205 12.2092 18.7906 12.7733 18.8846C13.4314 18.9786 14.4656 19.1667 15.2177 19.1667C15.9699 19.1667 17.0041 18.9786 17.6622 18.8846C18.3203 18.7906 18.7904 18.2265 18.8844 17.6624C18.9784 17.0043 19.1664 15.9701 19.1664 15.218C19.1664 14.4658 18.9784 13.4317 18.8844 12.7735C18.7904 12.1154 18.3203 11.6453 17.6622 11.5513Z" fill="#A2AEBD"/>
</svg>
