<svg width="18" height="14" viewBox="0 0 18 14" fill="none" xmlns="http://www.w3.org/2000/svg">
<path fill-rule="evenodd" clip-rule="evenodd" d="M4.09355 0.75H8.92027C10.9386 0.75 12.3478 2.14086 12.3478 4.13409V9.8659C12.3478 11.8591 10.9386 13.25 8.92027 13.25H4.09355C2.0752 13.25 0.666016 11.8591 0.666016 9.8659V4.13409C0.666016 2.14086 2.0752 0.75 4.09355 0.75ZM15.631 2.73249C15.9968 2.54636 16.426 2.56582 16.7752 2.78579C17.1243 3.00491 17.3327 3.38562 17.3327 3.80186V10.1986C17.3327 10.6157 17.1243 10.9956 16.7752 11.2147C16.5843 11.334 16.371 11.3949 16.156 11.3949C15.9768 11.3949 15.7977 11.3526 15.6302 11.2672L14.396 10.6445C13.9393 10.4127 13.656 9.94738 13.656 9.43046V4.5692C13.656 4.05144 13.9393 3.58612 14.396 3.35601L15.631 2.73249Z" fill="#A2AEBD"/>
</svg>
