<svg width="32" height="32" viewBox="0 0 32 32" fill="none" xmlns="http://www.w3.org/2000/svg">
<path d="M16 32C24.8366 32 32 24.8366 32 16C32 7.16344 24.8366 0 16 0C7.16344 0 0 7.16344 0 16C0 24.8366 7.16344 32 16 32Z" fill="#5A8DEE"/>
<path fill-rule="evenodd" clip-rule="evenodd" d="M20.1171 8.5C21.2346 8.5 22.3096 8.94167 23.1005 9.73417C23.8921 10.525 24.3346 11.5917 24.3346 12.7083V19.2917C24.3346 21.6167 22.443 23.5 20.1171 23.5H11.8846C9.5588 23.5 7.66797 21.6167 7.66797 19.2917V12.7083C7.66797 10.3833 9.55047 8.5 11.8846 8.5H20.1171ZM21.443 13.95L21.5096 13.8833C21.7088 13.6417 21.7088 13.2917 21.5005 13.05C21.3846 12.9258 21.2255 12.85 21.0596 12.8333C20.8846 12.8242 20.718 12.8833 20.5921 13L16.8346 16C16.3513 16.4008 15.6588 16.4008 15.168 16L11.418 13C11.1588 12.8083 10.8005 12.8333 10.5846 13.0583C10.3596 13.2833 10.3346 13.6417 10.5255 13.8917L10.6346 14L14.4263 16.9583C14.893 17.325 15.4588 17.525 16.0513 17.525C16.6421 17.525 17.218 17.325 17.6838 16.9583L21.443 13.95Z" fill="white"/>
</svg>
