<svg width="32" height="32" viewBox="0 0 32 32" fill="none" xmlns="http://www.w3.org/2000/svg">
<path d="M4.00007 22.6667H28.0001C28.3399 22.6671 28.6668 22.7973 28.9139 23.0305C29.161 23.2638 29.3097 23.5827 29.3296 23.9219C29.3495 24.2612 29.2392 24.5953 29.0211 24.8559C28.8029 25.1165 28.4935 25.2839 28.1561 25.3241L28.0001 25.3334H4.00007C3.66023 25.333 3.33336 25.2029 3.08624 24.9696C2.83913 24.7363 2.69042 24.4175 2.67051 24.0782C2.65059 23.739 2.76097 23.4049 2.97909 23.1443C3.19721 22.8837 3.50661 22.7162 3.84407 22.6761L4.00007 22.6667H28.0001H4.00007ZM4.00007 14.6667L28.0001 14.6641C28.3399 14.6645 28.6668 14.7946 28.9139 15.0279C29.161 15.2612 29.3097 15.58 29.3296 15.9193C29.3495 16.2585 29.2392 16.5926 29.0211 16.8532C28.8029 17.1138 28.4935 17.2813 28.1561 17.3214L28.0001 17.3307L4.00007 17.3334C3.66023 17.333 3.33336 17.2029 3.08624 16.9696C2.83913 16.7363 2.69042 16.4175 2.67051 16.0782C2.65059 15.739 2.76097 15.4049 2.97909 15.1443C3.19721 14.8837 3.50661 14.7162 3.84407 14.6761L4.00007 14.6667L28.0001 14.6641L4.00007 14.6667ZM4.00007 6.66675H28.0001C28.3399 6.66712 28.6668 6.79725 28.9139 7.03055C29.161 7.26384 29.3097 7.58269 29.3296 7.92194C29.3495 8.2612 29.2392 8.59525 29.0211 8.85586C28.8029 9.11646 28.4935 9.28394 28.1561 9.32408L28.0001 9.33341H4.00007C3.66023 9.33304 3.33336 9.20291 3.08624 8.96962C2.83913 8.73632 2.69042 8.41748 2.67051 8.07822C2.65059 7.73897 2.76097 7.40491 2.97909 7.1443C3.19721 6.8837 3.50661 6.71622 3.84407 6.67608L4.00007 6.66675H28.0001H4.00007Z" fill="#A2AEBD"/>
</svg>
