<svg width="16" height="18" viewBox="0 0 16 18" fill="none" xmlns="http://www.w3.org/2000/svg">
<path d="M15.0891 11.4659V6.53407C15.6138 6.32401 15.9856 5.81073 15.9856 5.21191C15.9856 4.4268 15.3469 3.78809 14.5618 3.78809C14.2294 3.78809 13.9235 3.90287 13.681 4.09447L9.40955 1.62833C9.41922 1.5615 9.42446 1.49326 9.42446 1.42383C9.42446 0.638719 8.78574 0 8.00063 0C7.21552 0 6.5768 0.638719 6.5768 1.42383C6.5768 1.4933 6.58204 1.56154 6.59171 1.62833L2.32026 4.09447C2.07771 3.90287 1.77182 3.78809 1.43945 3.78809C0.654344 3.78809 0.015625 4.4268 0.015625 5.21191C0.015625 5.81073 0.387402 6.32405 0.912109 6.53407V11.4659C0.387402 11.676 0.015625 12.1893 0.015625 12.7881C0.015625 13.5732 0.654344 14.2119 1.43945 14.2119C1.77182 14.2119 2.07771 14.0971 2.32026 13.9055L6.59171 16.3717C6.58204 16.4385 6.5768 16.5067 6.5768 16.5762C6.5768 17.3613 7.21552 18 8.00063 18C8.78574 18 9.42446 17.3613 9.42446 16.5762C9.42446 16.5067 9.41922 16.4385 9.40955 16.3717L13.681 13.9055C13.9235 14.0971 14.2294 14.2119 14.5618 14.2119C15.3469 14.2119 15.9856 13.5732 15.9856 12.7881C15.9856 12.1893 15.6138 11.676 15.0891 11.4659ZM1.9668 11.4659V6.53407C2.09484 6.48285 2.21366 6.41359 2.32026 6.32936L5.7802 8.32697C5.71547 8.54009 5.68032 8.766 5.68032 9C5.68032 9.234 5.71547 9.45991 5.7802 9.67303L2.32026 11.6706C2.21366 11.5864 2.09484 11.5172 1.9668 11.4659ZM7.47329 15.254C7.34528 15.3052 7.22645 15.3745 7.11982 15.4587L2.84837 12.9926C2.85804 12.9257 2.86328 12.8575 2.86328 12.7881C2.86332 12.7186 2.85804 12.6504 2.84841 12.5835L6.30891 10.5856C6.61723 10.9144 7.01984 11.1533 7.47329 11.2591V15.254ZM7.47329 6.74086C7.01984 6.84668 6.61723 7.0856 6.30891 7.41435L2.84841 5.41642C2.85808 5.34959 2.86332 5.28135 2.86332 5.21188C2.86332 5.14241 2.85808 5.07417 2.84841 5.00738L7.11986 2.54123C7.22645 2.6255 7.34528 2.69476 7.47329 2.74598V6.74086ZM8.52797 2.74598C8.65598 2.69473 8.7748 2.62547 8.88143 2.54127L13.1529 5.00738C13.1432 5.07421 13.138 5.14245 13.138 5.21191C13.138 5.28138 13.1432 5.34962 13.1528 5.41645L9.69235 7.41438C9.38403 7.08564 8.98142 6.84671 8.52797 6.74089V2.74598ZM13.1528 12.9926L8.88143 15.4587C8.7748 15.3745 8.65598 15.3052 8.52797 15.254V11.2591C8.98142 11.1533 9.38403 10.9144 9.69235 10.5857L13.1528 12.5836C13.1432 12.6504 13.1379 12.7187 13.1379 12.7881C13.1379 12.8576 13.1432 12.9258 13.1528 12.9926ZM14.0345 11.466C13.9064 11.5172 13.7876 11.5864 13.681 11.6706L10.2211 9.67307C10.2858 9.45991 10.3209 9.234 10.3209 9C10.3209 8.766 10.2858 8.54009 10.2211 8.32697L13.681 6.32939C13.7876 6.41359 13.9064 6.48285 14.0345 6.53411V11.466Z" fill="white"/>
</svg>
