<svg width="18" height="14" viewBox="0 0 18 14" fill="none" xmlns="http://www.w3.org/2000/svg">
<path d="M1.50038 11.167H16.5004C16.7128 11.1672 16.9171 11.2486 17.0715 11.3944C17.226 11.5402 17.3189 11.7395 17.3314 11.9515C17.3438 12.1635 17.2748 12.3723 17.1385 12.5352C17.0022 12.6981 16.8088 12.8027 16.5979 12.8278L16.5004 12.8337H1.50038C1.28798 12.8334 1.08369 12.7521 0.929239 12.6063C0.774792 12.4605 0.68185 12.2612 0.669402 12.0492C0.656955 11.8371 0.725941 11.6283 0.862266 11.4655C0.998591 11.3026 1.19197 11.1979 1.40288 11.1728L1.50038 11.167H16.5004H1.50038ZM1.50038 6.16699L16.5004 6.16533C16.7128 6.16556 16.9171 6.24689 17.0715 6.3927C17.226 6.53851 17.3189 6.73779 17.3314 6.94982C17.3438 7.16186 17.2748 7.37064 17.1385 7.53352C17.0022 7.6964 16.8088 7.80107 16.5979 7.82616L16.5004 7.83199L1.50038 7.83366C1.28798 7.83342 1.08369 7.75209 0.929239 7.60629C0.774792 7.46048 0.68185 7.2612 0.669402 7.04916C0.656955 6.83713 0.725941 6.62834 0.862266 6.46547C0.998591 6.30259 1.19197 6.19791 1.40288 6.17283L1.50038 6.16699L16.5004 6.16533L1.50038 6.16699ZM1.50038 1.16699H16.5004C16.7128 1.16723 16.9171 1.24856 17.0715 1.39437C17.226 1.54017 17.3189 1.73945 17.3314 1.95149C17.3438 2.16352 17.2748 2.37231 17.1385 2.53519C17.0022 2.69806 16.8088 2.80274 16.5979 2.82783L16.5004 2.83366H1.50038C1.28798 2.83342 1.08369 2.75209 0.929239 2.60629C0.774792 2.46048 0.68185 2.2612 0.669402 2.04916C0.656955 1.83713 0.725941 1.62834 0.862266 1.46547C0.998591 1.30259 1.19197 1.19791 1.40288 1.17283L1.50038 1.16699H16.5004H1.50038Z" fill="#7966FF"/>
<path d="M1.50038 11.167H16.5004C16.7128 11.1672 16.9171 11.2486 17.0715 11.3944C17.226 11.5402 17.3189 11.7395 17.3314 11.9515C17.3438 12.1635 17.2748 12.3723 17.1385 12.5352C17.0022 12.6981 16.8088 12.8027 16.5979 12.8278L16.5004 12.8337H1.50038C1.28798 12.8334 1.08369 12.7521 0.929239 12.6063C0.774792 12.4605 0.68185 12.2612 0.669402 12.0492C0.656955 11.8371 0.725941 11.6283 0.862266 11.4655C0.998591 11.3026 1.19197 11.1979 1.40288 11.1728L1.50038 11.167ZM1.50038 11.167H16.5004H1.50038ZM1.50038 6.16699L16.5004 6.16533C16.7128 6.16556 16.9171 6.24689 17.0715 6.3927C17.226 6.53851 17.3189 6.73779 17.3314 6.94982C17.3438 7.16186 17.2748 7.37064 17.1385 7.53352C17.0022 7.6964 16.8088 7.80107 16.5979 7.82616L16.5004 7.83199L1.50038 7.83366C1.28798 7.83342 1.08369 7.75209 0.929239 7.60629C0.774792 7.46048 0.68185 7.2612 0.669402 7.04916C0.656955 6.83713 0.725941 6.62834 0.862266 6.46547C0.998591 6.30259 1.19197 6.19791 1.40288 6.17283L1.50038 6.16699ZM1.50038 6.16699L16.5004 6.16533L1.50038 6.16699ZM1.50038 1.16699H16.5004C16.7128 1.16723 16.9171 1.24856 17.0715 1.39437C17.226 1.54017 17.3189 1.73945 17.3314 1.95149C17.3438 2.16352 17.2748 2.37231 17.1385 2.53519C17.0022 2.69806 16.8088 2.80274 16.5979 2.82783L16.5004 2.83366H1.50038C1.28798 2.83342 1.08369 2.75209 0.929239 2.60629C0.774792 2.46048 0.68185 2.2612 0.669402 2.04916C0.656955 1.83713 0.725941 1.62834 0.862266 1.46547C0.998591 1.30259 1.19197 1.19791 1.40288 1.17283L1.50038 1.16699ZM1.50038 1.16699H16.5004H1.50038Z" stroke="#7966FF" stroke-width="0.6"/>
</svg>
