<svg width="18" height="14" viewBox="0 0 18 14" fill="none" xmlns="http://www.w3.org/2000/svg">
<path d="M1.50038 11.166H16.5004C16.7128 11.1663 16.9171 11.2476 17.0715 11.3934C17.226 11.5392 17.3189 11.7385 17.3314 11.9505C17.3438 12.1625 17.2748 12.3713 17.1385 12.5342C17.0022 12.6971 16.8088 12.8018 16.5979 12.8268L16.5004 12.8327H1.50038C1.28798 12.8324 1.08369 12.7511 0.929239 12.6053C0.774792 12.4595 0.68185 12.2602 0.669402 12.0482C0.656955 11.8362 0.725941 11.6274 0.862266 11.4645C0.998591 11.3016 1.19197 11.1969 1.40288 11.1719L1.50038 11.166H16.5004H1.50038ZM1.50038 6.16602L16.5004 6.16435C16.7128 6.16459 16.9171 6.24592 17.0715 6.39172C17.226 6.53753 17.3189 6.73681 17.3314 6.94885C17.3438 7.16088 17.2748 7.36967 17.1385 7.53254C17.0022 7.69542 16.8088 7.8001 16.5979 7.82518L16.5004 7.83102L1.50038 7.83268C1.28798 7.83245 1.08369 7.75112 0.929239 7.60531C0.774792 7.4595 0.68185 7.26022 0.669402 7.04819C0.656955 6.83615 0.725941 6.62737 0.862266 6.46449C0.998591 6.30161 1.19197 6.19694 1.40288 6.17185L1.50038 6.16602L16.5004 6.16435L1.50038 6.16602ZM1.50038 1.16602H16.5004C16.7128 1.16625 16.9171 1.24758 17.0715 1.39339C17.226 1.5392 17.3189 1.73848 17.3314 1.95051C17.3438 2.16255 17.2748 2.37133 17.1385 2.53421C17.0022 2.69709 16.8088 2.80176 16.5979 2.82685L16.5004 2.83268H1.50038C1.28798 2.83245 1.08369 2.75112 0.929239 2.60531C0.774792 2.4595 0.68185 2.26022 0.669402 2.04819C0.656955 1.83615 0.725941 1.62737 0.862266 1.46449C0.998591 1.30161 1.19197 1.19694 1.40288 1.17185L1.50038 1.16602H16.5004H1.50038Z" fill="#A2AEBD"/>
<path d="M1.50038 11.166H16.5004C16.7128 11.1663 16.9171 11.2476 17.0715 11.3934C17.226 11.5392 17.3189 11.7385 17.3314 11.9505C17.3438 12.1625 17.2748 12.3713 17.1385 12.5342C17.0022 12.6971 16.8088 12.8018 16.5979 12.8269L16.5004 12.8327H1.50038C1.28798 12.8324 1.08369 12.7511 0.929239 12.6053C0.774792 12.4595 0.68185 12.2602 0.669402 12.0482C0.656955 11.8362 0.725941 11.6274 0.862266 11.4645C0.998591 11.3016 1.19197 11.1969 1.40288 11.1719L1.50038 11.166ZM1.50038 11.166H16.5004H1.50038ZM1.50038 6.16602L16.5004 6.16435C16.7128 6.16459 16.9171 6.24592 17.0715 6.39172C17.226 6.53753 17.3189 6.73681 17.3314 6.94885C17.3438 7.16088 17.2748 7.36967 17.1385 7.53254C17.0022 7.69542 16.8088 7.8001 16.5979 7.82518L16.5004 7.83102L1.50038 7.83268C1.28798 7.83245 1.08369 7.75112 0.929239 7.60531C0.774792 7.4595 0.68185 7.26022 0.669402 7.04819C0.656955 6.83615 0.725941 6.62737 0.862266 6.46449C0.998591 6.30161 1.19197 6.19694 1.40288 6.17185L1.50038 6.16602ZM1.50038 6.16602L16.5004 6.16435L1.50038 6.16602ZM1.50038 1.16602H16.5004C16.7128 1.16625 16.9171 1.24758 17.0715 1.39339C17.226 1.5392 17.3189 1.73848 17.3314 1.95051C17.3438 2.16255 17.2748 2.37133 17.1385 2.53421C17.0022 2.69709 16.8088 2.80176 16.5979 2.82685L16.5004 2.83268H1.50038C1.28798 2.83245 1.08369 2.75112 0.929239 2.60531C0.774792 2.4595 0.68185 2.26022 0.669402 2.04819C0.656955 1.83615 0.725941 1.62737 0.862266 1.46449C0.998591 1.30161 1.19197 1.19694 1.40288 1.17185L1.50038 1.16602ZM1.50038 1.16602H16.5004H1.50038Z" stroke="#A2AEBD" stroke-width="0.6"/>
</svg>
