<svg width="18" height="18" viewBox="0 0 18 18" fill="none" xmlns="http://www.w3.org/2000/svg">
<path d="M8.99935 0.666016C4.40751 0.666016 0.666016 4.40751 0.666016 8.99935C0.666016 10.2749 0.921118 11.5504 1.51636 12.6558V15.8021C1.51636 16.1422 1.77146 16.4823 2.19663 16.4823H5.34289C6.44833 17.0776 7.72384 17.3327 8.99935 17.3327C13.5912 17.3327 17.3327 13.5912 17.3327 8.99935C17.3327 4.40751 13.5912 0.666016 8.99935 0.666016ZM6.44833 9.84969C6.02316 9.84969 5.59799 9.42452 5.59799 8.99935C5.59799 8.57418 6.02316 8.14901 6.44833 8.14901C6.8735 8.14901 7.29867 8.57418 7.29867 8.99935C7.29867 9.42452 6.8735 9.84969 6.44833 9.84969ZM8.99935 9.84969C8.57418 9.84969 8.14901 9.42452 8.14901 8.99935C8.14901 8.57418 8.57418 8.14901 8.99935 8.14901C9.42452 8.14901 9.84969 8.57418 9.84969 8.99935C9.84969 9.42452 9.42452 9.84969 8.99935 9.84969ZM11.5504 9.84969C11.1252 9.84969 10.7 9.42452 10.7 8.99935C10.7 8.57418 11.1252 8.14901 11.5504 8.14901C11.9755 8.14901 12.4007 8.57418 12.4007 8.99935C12.4007 9.42452 11.9755 9.84969 11.5504 9.84969Z" fill="#A2AEBD"/>
</svg>
