<svg width="42" height="41" viewBox="0 0 42 41" fill="none" xmlns="http://www.w3.org/2000/svg">
<path d="M0 7C0 3.68629 2.68629 1 6 1H22.5147C24.106 1 25.6321 1.63214 26.7574 2.75736L32 8L38.3692 14.7673C39.4167 15.8803 40 17.3511 40 18.8795V35C40 38.3137 37.3137 41 34 41H6C2.68629 41 0 38.3137 0 35V7Z" fill="#00CFE8"/>
<path d="M9.76562 24.4688V15.5H11.4199V26H9.92285L9.76562 24.4688ZM4.95312 22.3838V22.2402C4.95312 21.6797 5.01921 21.1693 5.15137 20.709C5.28353 20.2441 5.47493 19.8454 5.72559 19.5127C5.97624 19.1755 6.28158 18.918 6.6416 18.7402C7.00163 18.5579 7.40723 18.4668 7.8584 18.4668C8.30501 18.4668 8.69694 18.5534 9.03418 18.7266C9.37142 18.8997 9.65853 19.1481 9.89551 19.4717C10.1325 19.7907 10.3216 20.1735 10.4629 20.6201C10.6042 21.0622 10.7044 21.5544 10.7637 22.0967V22.5547C10.7044 23.0833 10.6042 23.5664 10.4629 24.0039C10.3216 24.4414 10.1325 24.8197 9.89551 25.1387C9.65853 25.4577 9.36914 25.7038 9.02734 25.877C8.6901 26.0501 8.2959 26.1367 7.84473 26.1367C7.39811 26.1367 6.99479 26.0433 6.63477 25.8564C6.2793 25.6696 5.97624 25.4076 5.72559 25.0703C5.47493 24.7331 5.28353 24.3366 5.15137 23.8809C5.01921 23.4206 4.95312 22.9215 4.95312 22.3838ZM6.60059 22.2402V22.3838C6.60059 22.721 6.63021 23.0355 6.68945 23.3271C6.75326 23.6188 6.85124 23.8763 6.9834 24.0996C7.11556 24.3184 7.28646 24.4915 7.49609 24.6191C7.71029 24.7422 7.96549 24.8037 8.26172 24.8037C8.63542 24.8037 8.94303 24.7217 9.18457 24.5576C9.42611 24.3936 9.61523 24.1725 9.75195 23.8945C9.89323 23.612 9.98893 23.2975 10.0391 22.9512V21.7139C10.0117 21.445 9.95475 21.1943 9.86816 20.9619C9.78613 20.7295 9.67448 20.5267 9.5332 20.3535C9.39193 20.1758 9.21647 20.0391 9.00684 19.9434C8.80176 19.8431 8.55794 19.793 8.27539 19.793C7.97461 19.793 7.7194 19.8568 7.50977 19.9844C7.30013 20.112 7.12695 20.2874 6.99023 20.5107C6.85807 20.734 6.76009 20.9938 6.69629 21.29C6.63249 21.5863 6.60059 21.903 6.60059 22.2402ZM12.8281 22.3838V22.2266C12.8281 21.6934 12.9056 21.1989 13.0605 20.7432C13.2155 20.2829 13.4388 19.8841 13.7305 19.5469C14.0267 19.2051 14.3867 18.9408 14.8105 18.7539C15.2389 18.5625 15.722 18.4668 16.2598 18.4668C16.8021 18.4668 17.2852 18.5625 17.709 18.7539C18.1374 18.9408 18.4997 19.2051 18.7959 19.5469C19.0921 19.8841 19.3177 20.2829 19.4727 20.7432C19.6276 21.1989 19.7051 21.6934 19.7051 22.2266V22.3838C19.7051 22.917 19.6276 23.4115 19.4727 23.8672C19.3177 24.3229 19.0921 24.7217 18.7959 25.0635C18.4997 25.4007 18.1396 25.665 17.7158 25.8564C17.292 26.0433 16.8112 26.1367 16.2734 26.1367C15.7311 26.1367 15.2458 26.0433 14.8174 25.8564C14.3936 25.665 14.0335 25.4007 13.7373 25.0635C13.4411 24.7217 13.2155 24.3229 13.0605 23.8672C12.9056 23.4115 12.8281 22.917 12.8281 22.3838ZM14.4756 22.2266V22.3838C14.4756 22.7165 14.5098 23.0309 14.5781 23.3271C14.6465 23.6234 14.7536 23.8831 14.8994 24.1064C15.0452 24.3298 15.2321 24.5052 15.46 24.6328C15.6878 24.7604 15.959 24.8242 16.2734 24.8242C16.5788 24.8242 16.8431 24.7604 17.0664 24.6328C17.2943 24.5052 17.4811 24.3298 17.627 24.1064C17.7728 23.8831 17.8799 23.6234 17.9482 23.3271C18.0212 23.0309 18.0576 22.7165 18.0576 22.3838V22.2266C18.0576 21.8984 18.0212 21.5885 17.9482 21.2969C17.8799 21.0007 17.7705 20.7386 17.6201 20.5107C17.4743 20.2829 17.2874 20.1051 17.0596 19.9775C16.8363 19.8454 16.5697 19.7793 16.2598 19.7793C15.9499 19.7793 15.681 19.8454 15.4531 19.9775C15.2298 20.1051 15.0452 20.2829 14.8994 20.5107C14.7536 20.7386 14.6465 21.0007 14.5781 21.2969C14.5098 21.5885 14.4756 21.8984 14.4756 22.2266ZM24.1074 24.8242C24.3763 24.8242 24.6178 24.7718 24.832 24.667C25.0508 24.5576 25.2262 24.4072 25.3584 24.2158C25.4951 24.0244 25.5703 23.8034 25.584 23.5527H27.1357C27.1266 24.0312 26.9854 24.4665 26.7119 24.8584C26.4385 25.2503 26.0762 25.5625 25.625 25.7949C25.1738 26.0228 24.6748 26.1367 24.1279 26.1367C23.5628 26.1367 23.0706 26.041 22.6514 25.8496C22.2321 25.6536 21.8835 25.3848 21.6055 25.043C21.3275 24.7012 21.1178 24.307 20.9766 23.8604C20.8398 23.4137 20.7715 22.9352 20.7715 22.4248V22.1855C20.7715 21.6751 20.8398 21.1966 20.9766 20.75C21.1178 20.2988 21.3275 19.9023 21.6055 19.5605C21.8835 19.2188 22.2321 18.9521 22.6514 18.7607C23.0706 18.5648 23.5605 18.4668 24.1211 18.4668C24.7135 18.4668 25.2331 18.5853 25.6797 18.8223C26.1263 19.0547 26.4772 19.3805 26.7324 19.7998C26.9922 20.2145 27.1266 20.6976 27.1357 21.249H25.584C25.5703 20.9756 25.502 20.7295 25.3789 20.5107C25.2604 20.2874 25.0918 20.1097 24.873 19.9775C24.6589 19.8454 24.4014 19.7793 24.1006 19.7793C23.7679 19.7793 23.4922 19.8477 23.2734 19.9844C23.0547 20.1165 22.8838 20.2988 22.7607 20.5312C22.6377 20.7591 22.5488 21.0166 22.4941 21.3037C22.444 21.5863 22.4189 21.8802 22.4189 22.1855V22.4248C22.4189 22.7301 22.444 23.0264 22.4941 23.3135C22.5443 23.6006 22.6309 23.8581 22.7539 24.0859C22.8815 24.3092 23.0547 24.4893 23.2734 24.626C23.4922 24.7581 23.7702 24.8242 24.1074 24.8242ZM29.6582 18.6035L31.0664 21.0576L32.502 18.6035H34.3135L32.0713 22.2334L34.4023 26H32.5908L31.0869 23.4434L29.583 26H27.7646L30.0889 22.2334L27.8535 18.6035H29.6582Z" fill="white"/>
<path d="M27.2486 14.4656L26.3729 2.74346L38.9293 15.7833L27.2486 14.4656Z" fill="#00BFD7"/>
</svg>
