<svg width="18" height="18" viewBox="0 0 18 18" fill="none" xmlns="http://www.w3.org/2000/svg">
<path d="M8.99935 0.666992C4.40751 0.666992 0.666016 4.40849 0.666016 9.00033C0.666016 13.5922 4.40751 17.3337 8.99935 17.3337C13.5912 17.3337 17.3327 13.5922 17.3327 9.00033C17.3327 4.40849 13.5912 0.666992 8.99935 0.666992ZM9.84969 9.00033L6.95853 11.9765C6.78847 12.0616 6.70343 12.1466 6.53336 12.1466C6.3633 12.1466 6.19323 12.0616 6.10819 11.9765C5.85309 11.7214 5.85309 11.2962 6.10819 11.0411L8.48915 8.66019V4.74863C8.48915 4.40849 8.74425 4.06835 9.16942 4.06835C9.59459 4.06835 9.84969 4.32346 9.84969 4.74863V9.00033Z" fill="#A2AEBD"/>
</svg>
