<svg width="16" height="18" viewBox="0 0 16 18" fill="none" xmlns="http://www.w3.org/2000/svg">
<path fill-rule="evenodd" clip-rule="evenodd" d="M13.5886 6.3306C13.5886 7.37721 13.8652 7.9941 14.4739 8.70498C14.9353 9.22871 15.0827 9.90099 15.0827 10.6303C15.0827 11.3589 14.8433 12.0504 14.3638 12.6119C13.736 13.2851 12.8506 13.7148 11.9471 13.7895C10.6376 13.9011 9.3274 13.9951 7.99976 13.9951C6.6713 13.9951 5.36189 13.9389 4.05248 13.7895C3.14806 13.7148 2.2627 13.2851 1.63574 12.6119C1.1562 12.0504 0.916016 11.3589 0.916016 10.6303C0.916016 9.90099 1.06427 9.22871 1.52476 8.70498C2.15255 7.9941 2.41095 7.37721 2.41095 6.3306V5.97558C2.41095 4.57394 2.76046 3.65742 3.48018 2.76021C4.55024 1.45174 6.26548 0.666992 7.96249 0.666992H8.03703C9.77049 0.666992 11.5412 1.48951 12.5931 2.85421C13.2755 3.73296 13.5886 4.61087 13.5886 5.97558V6.3306ZM5.56074 15.7177C5.56074 15.298 5.94587 15.1058 6.302 15.0236C6.71859 14.9355 9.25708 14.9355 9.67367 15.0236C10.0298 15.1058 10.4149 15.298 10.4149 15.7177C10.3942 16.1172 10.1598 16.4714 9.83601 16.6963C9.4161 17.0236 8.92331 17.2309 8.40816 17.3056C8.12325 17.3426 7.84331 17.3434 7.56834 17.3056C7.05236 17.2309 6.55958 17.0236 6.1405 16.6955C5.81584 16.4714 5.58145 16.1172 5.56074 15.7177Z" fill="#A2AEBD"/>
</svg>
