<svg width="12" height="16" viewBox="0 0 12 16" fill="none" xmlns="http://www.w3.org/2000/svg">
<path d="M6 7.84694C8.03921 7.84694 9.69231 6.20227 9.69231 4.17347C9.69231 2.14467 8.03921 0.5 6 0.5C3.9608 0.5 2.30769 2.14467 2.30769 4.17347C2.30769 6.20227 3.9608 7.84694 6 7.84694Z" fill="white"/>
<path d="M7.92308 9.37763H4.07692C1.84615 9.37763 0 11.2144 0 13.4337C0 13.9695 0.230769 14.4286 0.692308 14.6582C1.38462 15.0409 2.92308 15.5001 6 15.5001C9.07692 15.5001 10.6154 15.0409 11.3077 14.6582C11.6923 14.4286 12 13.9695 12 13.4337C12 11.1378 10.1538 9.37763 7.92308 9.37763Z" fill="white"/>
</svg>
