<svg width="24" height="24" viewBox="0 0 24 24" fill="none" xmlns="http://www.w3.org/2000/svg">
<path d="M0 12C0 5.37258 5.37258 0 12 0C18.6274 0 24 5.37258 24 12C24 18.6274 18.6274 24 12 24C5.37258 24 0 18.6274 0 12Z" fill="#7966FF"/>
<path d="M12.0001 11.8639C13.8127 11.8639 15.2821 10.4019 15.2821 8.59856C15.2821 6.79518 13.8127 5.33325 12.0001 5.33325C10.1875 5.33325 8.71803 6.79518 8.71803 8.59856C8.71803 10.4019 10.1875 11.8639 12.0001 11.8639Z" fill="white"/>
<path d="M13.7095 13.2245H10.2907C8.30777 13.2245 6.66675 14.8571 6.66675 16.8299C6.66675 17.3061 6.87188 17.7143 7.28213 17.9184C7.89752 18.2585 9.26504 18.6667 12.0001 18.6667C14.7351 18.6667 16.1026 18.2585 16.718 17.9184C17.0599 17.7143 17.3334 17.3061 17.3334 16.8299C17.3334 14.7891 15.6924 13.2245 13.7095 13.2245Z" fill="white"/>
</svg>
