<svg width="20" height="20" viewBox="0 0 20 20" fill="none" xmlns="http://www.w3.org/2000/svg">
<path d="M16.1668 12.3802C15.4951 12.2357 14.9637 12.5475 14.4932 12.8199C14.0114 13.1006 13.0951 13.8438 12.57 13.6536C9.88108 12.5465 7.35213 10.193 6.25739 7.49335C6.06444 6.95695 6.80424 6.03489 7.08283 5.54735C7.35316 5.0754 7.65858 4.53901 7.51928 3.86227C7.3934 3.25415 5.76522 1.18236 5.18947 0.61582C4.80977 0.241589 4.42078 0.0357622 4.02147 0.00249721C2.5202 -0.0619537 0.843516 1.94122 0.549452 2.42044C-0.187255 3.4423 -0.183128 4.80201 0.561834 6.4507C2.35717 10.8791 9.14747 17.5622 13.5925 19.4251C14.4128 19.8087 15.1629 20.001 15.8366 20.001C16.496 20.001 17.0831 19.817 17.5876 19.4521C17.9684 19.2328 20.0536 17.4728 19.9989 15.9312C19.9659 15.5383 19.7606 15.1453 19.3912 14.7649C18.8289 14.1838 16.7704 12.507 16.1668 12.3802Z" fill="#A2AEBD"/>
</svg>
