<svg width="12" height="14" viewBox="0 0 12 14" fill="none" xmlns="http://www.w3.org/2000/svg">
<path d="M5.99935 6.8646C7.81198 6.8646 9.2814 5.40267 9.2814 3.59929C9.2814 1.79591 7.81198 0.333984 5.99935 0.333984C4.18672 0.333984 2.7173 1.79591 2.7173 3.59929C2.7173 5.40267 4.18672 6.8646 5.99935 6.8646Z" fill="#A2AEBD"/>
<path d="M7.70875 8.22521H4.28995C2.30704 8.22521 0.666016 9.85786 0.666016 11.8307C0.666016 12.3068 0.871144 12.715 1.2814 12.9191C1.89678 13.2592 3.26431 13.6674 5.99935 13.6674C8.73439 13.6674 10.1019 13.2592 10.7173 12.9191C11.0592 12.715 11.3327 12.3068 11.3327 11.8307C11.3327 9.78983 9.69166 8.22521 7.70875 8.22521Z" fill="#A2AEBD"/>
</svg>
