<svg width="20" height="20" viewBox="0 0 20 20" fill="none" xmlns="http://www.w3.org/2000/svg">
<path d="M10 0C4.4898 0 0 4.4898 0 10C0 15.5102 4.4898 20 10 20C15.5102 20 20 15.5102 20 10C20 4.4898 15.5102 0 10 0ZM10 15.6122C9.4898 15.6122 8.97959 15.102 8.97959 14.5918C8.97959 14.0816 9.4898 13.5714 10 13.5714C10.5102 13.5714 11.0204 14.0816 11.0204 14.5918C11.0204 15.102 10.5102 15.6122 10 15.6122ZM12.3469 8.97959C12.1429 9.28572 11.9388 9.59184 11.6327 9.89796C11.1225 10.5102 10.7143 11.0204 10.7143 11.5306C10.7143 11.9388 10.4082 12.3469 9.89796 12.3469C9.38776 12.3469 9.08163 12.0408 9.08163 11.5306C9.08163 10.5102 9.79592 9.59184 10.3061 8.87755C10.5102 8.67347 10.7143 8.36735 10.9184 8.06123C11.0204 7.85714 11.1225 7.65306 11.1225 7.34694C11.1225 6.63265 10.5102 6.12245 9.89796 6.12245C9.28572 6.12245 8.67347 6.73469 8.67347 7.34694C8.67347 7.7551 8.36735 8.16327 7.85714 8.16327C7.34694 8.16327 7.14286 7.85714 7.14286 7.44898C7.14286 5.91837 8.36735 4.59184 10 4.59184C11.6327 4.59184 12.8571 5.81633 12.8571 7.44898C12.8571 7.95918 12.6531 8.46939 12.3469 8.97959Z" fill="#FF9F43"/>
</svg>
