<svg width="24" height="25" viewBox="0 0 24 25" fill="none" xmlns="http://www.w3.org/2000/svg">
<rect y="0.148438" width="24" height="24" rx="12" fill="#02C5DD"/>
<path fill-rule="evenodd" clip-rule="evenodd" d="M9.20667 5.48242H14.794C16.8533 5.48242 18 6.66909 18 8.70242V15.5891C18 17.6558 16.8533 18.8158 14.794 18.8158H9.20667C7.18 18.8158 6 17.6558 6 15.5891V8.70242C6 6.66909 7.18 5.48242 9.20667 5.48242ZM9.38667 8.58909V8.58242H11.3793C11.6667 8.58242 11.9 8.81576 11.9 9.10176C11.9 9.39576 11.6667 9.62909 11.3793 9.62909H9.38667C9.09933 9.62909 8.86667 9.39576 8.86667 9.10909C8.86667 8.82242 9.09933 8.58909 9.38667 8.58909ZM9.38667 12.6424H14.6133C14.9 12.6424 15.1333 12.4091 15.1333 12.1224C15.1333 11.8358 14.9 11.6018 14.6133 11.6018H9.38667C9.09933 11.6018 8.86667 11.8358 8.86667 12.1224C8.86667 12.4091 9.09933 12.6424 9.38667 12.6424ZM9.38667 15.6891H14.6133C14.8793 15.6624 15.08 15.4351 15.08 15.1691C15.08 14.8958 14.8793 14.6691 14.6133 14.6424H9.38667C9.18667 14.6224 8.99333 14.7158 8.88667 14.8891C8.78 15.0558 8.78 15.2758 8.88667 15.4491C8.99333 15.6158 9.18667 15.7158 9.38667 15.6891Z" fill="white"/>
</svg>
