<svg width="56" height="56" viewBox="0 0 56 56" fill="none" xmlns="http://www.w3.org/2000/svg">
<path d="M0 18C0 8.05888 8.05887 0 18 0H38C47.9411 0 56 8.05887 56 18V38C56 47.9411 47.9411 56 38 56H18C8.05888 56 0 47.9411 0 38V18Z" fill="#02C5DD"/>
<path fill-rule="evenodd" clip-rule="evenodd" d="M21.4822 12.4448H34.5193C39.3244 12.4448 42 15.2137 42 19.9582V36.027C42 40.8493 39.3244 43.5559 34.5193 43.5559H21.4822C16.7533 43.5559 14 40.8493 14 36.027V19.9582C14 15.2137 16.7533 12.4448 21.4822 12.4448ZM21.9022 19.6937V19.6782H26.5518C27.2222 19.6782 27.7667 20.2226 27.7667 20.8899C27.7667 21.5759 27.2222 22.1204 26.5518 22.1204H21.9022C21.2318 22.1204 20.6889 21.5759 20.6889 20.907C20.6889 20.2382 21.2318 19.6937 21.9022 19.6937ZM21.9022 29.1515H34.0978C34.7667 29.1515 35.3111 28.607 35.3111 27.9382C35.3111 27.2693 34.7667 26.7233 34.0978 26.7233H21.9022C21.2318 26.7233 20.6889 27.2693 20.6889 27.9382C20.6889 28.607 21.2318 29.1515 21.9022 29.1515ZM21.9022 36.2604H34.0978C34.7184 36.1982 35.1867 35.6677 35.1867 35.047C35.1867 34.4093 34.7184 33.8804 34.0978 33.8182H21.9022C21.4356 33.7715 20.9844 33.9893 20.7356 34.3937C20.4867 34.7826 20.4867 35.2959 20.7356 35.7004C20.9844 36.0893 21.4356 36.3226 21.9022 36.2604Z" fill="white"/>
</svg>
