<svg width="18" height="22" viewBox="0 0 18 22" fill="none" xmlns="http://www.w3.org/2000/svg">
<g clip-path="url(#clip0_1795_37805)">
<path d="M12.5796 6.24023H1.74995L3.54391 4.39392C3.74409 4.18788 3.74485 3.85305 3.54563 3.64603C3.3464 3.43899 3.0226 3.43822 2.82243 3.64423L0.150453 6.39423C0.150274 6.39439 0.150146 6.39457 0.149993 6.39473C-0.0496693 6.60077 -0.0503085 6.93669 0.149942 7.14342C0.15012 7.14357 0.150248 7.14376 0.150402 7.14392L2.82238 9.89391C3.02253 10.0999 3.34632 10.0992 3.54558 9.89211C3.7448 9.6851 3.74404 9.35026 3.54386 9.14422L1.74995 7.29792H12.5796C12.862 7.29792 13.0909 7.06115 13.0909 6.76907C13.0909 6.47699 12.862 6.24023 12.5796 6.24023Z" fill="#3D5586"/>
</g>
<g clip-path="url(#clip1_1795_37805)">
<path d="M5.42045 14.7012H16.2501L14.4561 12.8549C14.2559 12.6488 14.2551 12.314 14.4544 12.107C14.6536 11.8999 14.9774 11.8992 15.1776 12.1052L17.8495 14.8552C17.8497 14.8553 17.8499 14.8555 17.85 14.8557C18.0497 15.0617 18.0503 15.3976 17.8501 15.6044C17.8499 15.6045 17.8498 15.6047 17.8496 15.6049L15.1776 18.3548C14.9775 18.5608 14.6537 18.5601 14.4544 18.3531C14.2552 18.146 14.256 17.8112 14.4561 17.6052L16.2501 15.7589H5.42045C5.13802 15.7589 4.90908 15.5221 4.90908 15.23C4.90908 14.9379 5.13802 14.7012 5.42045 14.7012Z" fill="#3D5586"/>
</g>
<defs>
<clipPath id="clip0_1795_37805">
<rect width="13.0909" height="13.5385" fill="white"/>
</clipPath>
<clipPath id="clip1_1795_37805">
<rect width="13.0909" height="13.5385" fill="white" transform="matrix(-1 0 0 1 18 8.46094)"/>
</clipPath>
</defs>
</svg>
