<svg width="21" height="24" viewBox="0 0 21 24" fill="none" xmlns="http://www.w3.org/2000/svg">
<path d="M17.5 16.9784C16.6138 16.9784 15.8144 17.3341 15.2082 17.9067L6.895 12.8994C6.9594 12.6275 7 12.3441 7 12.0549C7 11.7658 6.9594 11.4838 6.895 11.212L15.12 6.25377C15.7639 6.88042 16.6152 7.22953 17.5 7.22979C19.4306 7.22979 21 5.60887 21 3.61489C21 1.62092 19.4306 0 17.5 0C15.5694 0 14 1.62092 14 3.61489C14 3.90408 14.0406 4.18749 14.105 4.45789L5.88 9.41607C5.23566 8.79005 4.38463 8.44104 3.5 8.44005C1.5694 8.44005 0 10.061 0 12.0549C0 14.0489 1.5694 15.6698 3.5 15.6698C4.38476 15.6696 5.23605 15.3205 5.88 14.6938L14.1932 19.7012C14.132 19.9596 14.1005 20.2246 14.0994 20.4907C14.0997 21.1849 14.2992 21.8635 14.6729 22.4406C15.0465 23.0177 15.5774 23.4675 16.1984 23.733C16.8195 23.9986 17.5028 24.068 18.1621 23.9325C18.8213 23.797 19.4269 23.4626 19.9022 22.9717C20.3775 22.4808 20.7012 21.8554 20.8324 21.1745C20.9636 20.4936 20.8964 19.7878 20.6393 19.1464C20.3822 18.5049 19.9467 17.9566 19.388 17.5707C18.8292 17.1848 18.1722 16.9787 17.5 16.9784Z" fill="#7966FF"/>
</svg>
