<svg width="20" height="20" viewBox="0 0 20 20" fill="none" xmlns="http://www.w3.org/2000/svg">
<path fill-rule="evenodd" clip-rule="evenodd" d="M9.77276 18.2607C9.86505 18.3089 9.96824 18.3335 10.0714 18.3326C10.1746 18.3318 10.277 18.3065 10.3701 18.2575L13.3433 16.6681C14.1865 16.2186 14.8467 15.7161 15.3618 15.131C16.4818 13.8562 17.0934 12.2292 17.0825 10.5515L17.0473 5.01767C17.0439 4.38028 16.6253 3.81152 16.0061 3.60478L10.475 1.74899C10.1419 1.63622 9.77696 1.63867 9.44977 1.75471L3.93955 3.67669C3.32376 3.89161 2.91268 4.46444 2.91604 5.10265L2.95127 10.6324C2.96218 12.3125 3.59475 13.9322 4.7332 15.1939C5.25335 15.7708 5.91947 16.266 6.77184 16.7081L9.77276 18.2607ZM8.98566 11.7568C9.10982 11.8761 9.2709 11.9349 9.43198 11.9333C9.59305 11.9325 9.75329 11.872 9.87578 11.7511L13.125 8.54776C13.3692 8.3067 13.3666 7.91936 13.12 7.68156C12.8725 7.44377 12.474 7.4454 12.2299 7.68647L9.42275 10.4534L8.27339 9.34859C8.0259 9.11079 7.62824 9.11325 7.38326 9.35431C7.13913 9.59538 7.14165 9.98271 7.38914 10.2205L8.98566 11.7568Z" fill="#A2AEBD"/>
</svg>
