<svg width="14" height="14" viewBox="0 0 14 14" fill="none" xmlns="http://www.w3.org/2000/svg">
<path d="M7.00065 0.333984C3.32718 0.333984 0.333984 3.32718 0.333984 7.00065C0.333984 10.6741 3.32718 13.6673 7.00065 13.6673C10.6741 13.6673 13.6673 10.6741 13.6673 7.00065C13.6673 3.32718 10.6741 0.333984 7.00065 0.333984ZM7.54487 9.38161C7.54487 9.65371 7.34079 9.92582 7.00065 9.92582C6.66052 9.92582 6.45643 9.72174 6.45643 9.38161V6.66052C6.45643 6.38841 6.66052 6.1163 7.00065 6.1163C7.34079 6.1163 7.54487 6.32038 7.54487 6.66052V9.38161ZM7.00065 5.29997C6.66052 5.29997 6.32038 4.95984 6.32038 4.6197C6.32038 4.27956 6.66052 3.93943 7.00065 3.93943C7.34079 3.93943 7.68092 4.27956 7.68092 4.6197C7.68092 4.95984 7.34079 5.29997 7.00065 5.29997Z" fill="#A2AEBD"/>
</svg>
