<svg width="20" height="20" viewBox="0 0 20 20" fill="none" xmlns="http://www.w3.org/2000/svg">
<path fill-rule="evenodd" clip-rule="evenodd" d="M16.8288 2.70898C17.4861 2.70898 18.0189 2.17668 18.0189 1.52109C18.0189 0.864336 17.4861 0.332031 16.8288 0.332031C16.1714 0.332031 15.6387 0.864336 15.6387 1.52109C15.6387 2.17668 16.1714 2.70898 16.8288 2.70898Z" fill="#FE76A8"/>
<path fill-rule="evenodd" clip-rule="evenodd" d="M5.85898 10.865L4.47511 8.74266C-0.246141 5.04644 -2.157 11.9123 3.3807 11.2556L5.85898 10.865Z" fill="#FE76A8"/>
<path fill-rule="evenodd" clip-rule="evenodd" d="M7.89123 8.74382C11.3612 4.38396 4.51232 2.39759 5.17658 8.35323L6.33096 10.3407L7.89123 8.74382Z" fill="#FE76A8"/>
<path fill-rule="evenodd" clip-rule="evenodd" d="M8.48457 19.6675L9.3391 15.7985L8.48457 12.1345H6.73859L4.60168 11.9502L4.17383 13.5632V18.9094C4.17383 19.3265 4.5152 19.6675 4.93266 19.6675H8.48457Z" fill="#99E6FC"/>
<path fill-rule="evenodd" clip-rule="evenodd" d="M15.6353 18.9096V13.9759V12.5588C15.6353 12.326 15.4438 12.1348 15.2109 12.1348H11.3246L10.3086 15.9024L11.3246 19.6678H14.8764C15.2939 19.6677 15.6353 19.3267 15.6353 18.9096Z" fill="#99E6FC"/>
<path fill-rule="evenodd" clip-rule="evenodd" d="M7.8909 8.74412C10.2723 5.75189 7.79289 3.87728 6.21875 4.92119C7.51609 4.99376 8.63934 6.54693 7.03062 8.77986L7.21977 9.11744L7.8909 8.74412Z" fill="#FE5694"/>
<path fill-rule="evenodd" clip-rule="evenodd" d="M4.47563 8.74264C1.78172 6.63415 0.00347656 7.9626 0 9.37174C0.560469 8.56061 1.8682 8.17463 3.6407 9.31991C3.71219 9.20928 3.81024 9.11365 3.93363 9.04569L4.47563 8.74264Z" fill="#FE5694"/>
<path fill-rule="evenodd" clip-rule="evenodd" d="M8.48438 12.1348H11.3236V19.6677H8.48438V12.1348Z" fill="#FE76A8"/>
<path fill-rule="evenodd" clip-rule="evenodd" d="M15.6346 13.9759V12.5588C15.6346 12.326 15.4431 12.1348 15.2102 12.1348H13.4977C13.7307 12.1348 13.9221 12.326 13.9221 12.5588V13.9759V18.9096C13.9221 19.3267 13.5796 19.6677 13.1621 19.6677H14.8758C15.2932 19.6677 15.6346 19.3266 15.6346 18.9096V13.9759H15.6346Z" fill="#2ED1E2"/>
<path d="M3.51073 10.002C3.47698 10.002 3.44268 9.99618 3.40913 9.98399C2.98147 9.82853 2.64452 9.73649 1.9896 9.66486C1.8264 9.647 1.70855 9.50025 1.7264 9.33709C1.74425 9.17396 1.89097 9.05627 2.05433 9.07404C2.68683 9.14326 3.07999 9.23193 3.61237 9.42544C3.76667 9.48154 3.84628 9.65204 3.79018 9.8063C3.74628 9.927 3.63221 10.002 3.51073 10.002Z" fill="#FE0263"/>
<path d="M6.50278 8.3748C6.49489 8.3748 6.48696 8.37449 6.47895 8.37386C6.31524 8.36089 6.19305 8.21777 6.20602 8.05413C6.24438 7.57042 6.47126 6.89264 6.74551 6.44249C6.8309 6.30233 7.01383 6.2578 7.15407 6.34323C7.29434 6.42858 7.33879 6.61143 7.2534 6.75159C7.02934 7.1194 6.82965 7.71218 6.79883 8.10109C6.78653 8.25667 6.65629 8.3748 6.50278 8.3748Z" fill="#FE0263"/>
<path d="M13.4476 10.7277C13.3756 10.7277 13.3033 10.7017 13.2461 10.649C13.1254 10.5377 13.1178 10.3497 13.2292 10.229C14.5021 8.84986 14.1248 5.21633 14.1208 5.17977C14.1032 5.01661 14.2211 4.87 14.3844 4.85231C14.5478 4.83481 14.6943 4.95262 14.712 5.11575C14.7294 5.2759 15.1204 9.0565 13.6663 10.632C13.6076 10.6955 13.5278 10.7277 13.4476 10.7277Z" fill="#E0D2CE"/>
<path d="M16.4617 6.58681C16.4397 6.58681 16.4174 6.58435 16.3951 6.57927C16.2353 6.54267 16.1352 6.38392 16.1715 6.22411C16.1781 6.19525 16.3379 5.50822 16.8408 4.73845C17.5107 3.71334 18.4766 3.02553 19.6341 2.74939C19.7938 2.71131 19.9542 2.80978 19.9923 2.96943C20.0304 3.12908 19.9318 3.28939 19.7722 3.32748C18.758 3.56943 17.9432 4.14756 17.3504 5.04576C16.8999 5.72837 16.7527 6.35005 16.7513 6.35622C16.7195 6.49361 16.597 6.58681 16.4617 6.58681Z" fill="#E0D2CE"/>
<path fill-rule="evenodd" clip-rule="evenodd" d="M13.2233 2.92096L13.8068 2.21814C13.9267 2.08217 13.9187 2.04186 13.7423 1.99807L12.8358 1.77338C12.7332 1.74803 12.7274 1.72037 12.6767 1.6374L12.2189 0.873496C12.1266 0.717949 12.0701 0.717949 11.9767 0.873496L11.5189 1.6374C11.4693 1.72037 11.4624 1.74803 11.3597 1.77338L10.4533 1.99807C10.2781 2.04186 10.2688 2.08217 10.3888 2.21814L10.9735 2.92096C11.0357 2.99584 11.0449 3.08342 11.0369 3.18943L10.9665 4.05818C10.9469 4.23791 10.985 4.25982 11.1534 4.19186L11.9503 3.86002C12.0333 3.82545 12.1636 3.82545 12.2455 3.86002L13.0435 4.19186C13.2119 4.25982 13.2488 4.23795 13.2292 4.05818L13.16 3.18943C13.1518 3.08342 13.1599 2.99584 13.2233 2.92096Z" fill="#FECE85"/>
<path fill-rule="evenodd" clip-rule="evenodd" d="M12.132 2.19652C12.0132 2.95695 11.7607 3.61945 11.4551 4.06652L11.951 3.86027C12.034 3.8257 12.1643 3.8257 12.2462 3.86027L13.0442 4.19211C13.2126 4.26008 13.2495 4.2382 13.2299 4.05844L13.1607 3.18969C13.1526 3.08367 13.1607 2.99613 13.2241 2.92121L13.8077 2.2184C13.9276 2.08242 13.9195 2.04211 13.7431 1.99832L12.8367 1.77363C12.7341 1.74828 12.7283 1.72062 12.6775 1.63766L12.2197 0.87375C12.2047 0.848398 12.1909 0.827656 12.1782 0.811523C12.2219 1.22523 12.2104 1.69996 12.132 2.19652Z" fill="#FDB440"/>
<path fill-rule="evenodd" clip-rule="evenodd" d="M19.0375 9.75197L19.621 9.04916C19.7421 8.91322 19.7329 8.87287 19.5564 8.82908L18.65 8.60439C18.5486 8.57904 18.5416 8.55139 18.492 8.46846L18.0342 7.70455C17.9408 7.549 17.8843 7.549 17.792 7.70455L17.333 8.46846C17.2835 8.55143 17.2765 8.57908 17.175 8.60439L16.2686 8.82908C16.0922 8.87287 16.083 8.91318 16.2041 9.04916L16.7876 9.75197C16.851 9.82686 16.8591 9.91443 16.851 10.0204L16.7807 10.888C16.7622 11.0689 16.7991 11.0908 16.9675 11.0228L17.7644 10.691C17.8474 10.6564 17.9777 10.6564 18.0607 10.691L18.8576 11.0228C19.026 11.0908 19.0629 11.0689 19.0445 10.888L18.9741 10.0204C18.966 9.91443 18.9741 9.82689 19.0375 9.75197Z" fill="#FECE85"/>
<path fill-rule="evenodd" clip-rule="evenodd" d="M17.9476 9.02766C17.8277 9.78809 17.5763 10.4506 17.2695 10.8977L17.7654 10.6914C17.8485 10.6568 17.9788 10.6568 18.0618 10.6914L18.8587 11.0232C19.027 11.0912 19.064 11.0693 19.0455 10.8884L18.9752 10.0209C18.9671 9.91485 18.9752 9.82731 19.0386 9.75239L19.6221 9.04957C19.7432 8.91364 19.734 8.87328 19.5575 8.82949L18.6511 8.60481C18.5497 8.57946 18.5427 8.5518 18.4931 8.46887L18.0353 7.70496C18.0203 7.67961 18.0065 7.65887 17.9927 7.6416C18.0376 8.05637 18.0249 8.5311 17.9476 9.02766Z" fill="#FDB440"/>
<path fill-rule="evenodd" clip-rule="evenodd" d="M18.0195 1.52109C18.0195 0.864336 17.4868 0.332031 16.8294 0.332031C16.6126 0.332031 16.4096 0.389648 16.2344 0.491016C16.5907 0.696094 16.8294 1.08094 16.8294 1.52105C16.8294 1.96004 16.5907 2.34488 16.2344 2.54996C16.4096 2.65137 16.6126 2.70895 16.8294 2.70895C17.4868 2.70898 18.0195 2.17668 18.0195 1.52109Z" fill="#FE5694"/>
<path fill-rule="evenodd" clip-rule="evenodd" d="M4.0172 10.901L5.95919 10.5323L7.21966 9.11737L6.81489 8.39264C6.7388 8.25553 6.62923 8.14951 6.50235 8.07693C6.25786 7.93752 5.94649 7.92486 5.68356 8.07119L5.17614 8.3535L4.47614 8.74295L3.93415 9.04596C3.68274 9.18537 3.53282 9.43772 3.51091 9.70502C3.49708 9.86288 3.52935 10.0265 3.61239 10.1751L4.0172 10.901Z" fill="#FECE85"/>
<path fill-rule="evenodd" clip-rule="evenodd" d="M8.38925 11.2151L11.7866 9.32324C12.0668 9.16656 12.1683 8.8105 12.0126 8.53054L11.4095 7.44979C11.2526 7.16983 10.8963 7.06842 10.6161 7.2251L7.88992 8.7437L7.21875 9.11702V10.5319L8.38925 11.2151Z" fill="#01D0FB"/>
<path fill-rule="evenodd" clip-rule="evenodd" d="M1.78993 14.8925L5.18728 12.9995L5.28415 11.5846L4.01677 10.9014L3.38134 11.2562L0.618247 12.7944C0.339184 12.95 0.237699 13.306 0.393363 13.586L0.996489 14.6679C1.15223 14.9467 1.50973 15.048 1.78993 14.8925Z" fill="#01D0FB"/>
<path fill-rule="evenodd" clip-rule="evenodd" d="M7.02981 8.77979L6.81415 8.39264C6.73805 8.25553 6.62848 8.14951 6.50161 8.07693C6.25711 7.93752 5.94575 7.92486 5.68282 8.07119L5.17539 8.3535L4.69336 8.62197C4.95629 8.47565 5.26653 8.4883 5.51215 8.62772C5.63899 8.70029 5.74856 8.80744 5.82469 8.94342L6.22946 9.66928L7.21891 9.11741L7.02981 8.77979Z" fill="#FDB440"/>
<path fill-rule="evenodd" clip-rule="evenodd" d="M11.7875 9.32324C12.0677 9.16656 12.1692 8.8105 12.0135 8.53054L11.4104 7.44979C11.2536 7.16983 10.8972 7.06842 10.617 7.2251L9.25391 7.9844C9.53414 7.82772 9.89047 7.92909 10.0462 8.20909L10.6493 9.28984C10.805 9.56984 10.7047 9.92469 10.4267 10.0814L11.7875 9.32324Z" fill="#00B1CD"/>
<path fill-rule="evenodd" clip-rule="evenodd" d="M8.39055 11.2153L7.22004 9.11719L4.01758 10.9008L5.18809 12.9989C6.25711 12.4032 7.32153 11.811 8.39055 11.2153Z" fill="#FE5694"/>
</svg>
