<svg width="18" height="18" viewBox="0 0 18 18" fill="none" xmlns="http://www.w3.org/2000/svg">
<path fill-rule="evenodd" clip-rule="evenodd" d="M0.666016 7.89144C0.666016 3.90122 3.8663 0.666504 7.81405 0.666504C9.70983 0.666504 11.528 1.4277 12.8685 2.78264C14.209 4.13758 14.9621 5.97527 14.9621 7.89144C14.9621 11.8817 11.7618 15.1164 7.81405 15.1164C3.8663 15.1164 0.666016 11.8817 0.666016 7.89144ZM14.8438 13.7117L16.9727 15.4302H17.0097C17.4404 15.8655 17.4404 16.5713 17.0097 17.0067C16.579 17.442 15.8807 17.442 15.45 17.0067L13.6833 14.9819C13.5163 14.8137 13.4224 14.5851 13.4224 14.3468C13.4224 14.1085 13.5163 13.88 13.6833 13.7117C14.0054 13.3918 14.5217 13.3918 14.8438 13.7117Z" fill="#A2AEBD"/>
</svg>
