<svg width="16" height="16" viewBox="0 0 16 16" fill="none" xmlns="http://www.w3.org/2000/svg">
<path fill-rule="evenodd" clip-rule="evenodd" d="M8.59576 0.867359L10.5258 4.74986C10.6224 4.94569 10.8091 5.08236 11.0258 5.11403L15.3466 5.73819C15.5216 5.76153 15.6791 5.85319 15.7866 5.99319C15.9883 6.25569 15.9574 6.62736 15.7158 6.85319L12.5841 9.88153C12.4249 10.0315 12.3541 10.2515 12.3958 10.4657L13.1458 14.739C13.1983 15.0932 12.9566 15.4249 12.6024 15.4824C12.4558 15.5049 12.3058 15.4815 12.1724 15.4157L8.32409 13.3982C8.13076 13.2932 7.89909 13.2932 7.70576 13.3982L3.82909 15.4265C3.50492 15.5915 3.10826 15.469 2.93159 15.1515C2.86409 15.0232 2.84076 14.8774 2.86409 14.7349L3.61409 10.4615C3.65159 10.2482 3.58076 10.029 3.42576 9.87819L0.277425 6.85069C0.0207584 6.59569 0.0190917 6.18069 0.274925 5.92403C0.275758 5.92319 0.276592 5.92153 0.277425 5.92069C0.383258 5.82486 0.513258 5.76069 0.654092 5.73569L4.97576 5.11153C5.19159 5.07736 5.37743 4.94236 5.47576 4.74653L7.40409 0.867359C7.48159 0.709858 7.61909 0.589025 7.78576 0.534025C7.95326 0.478192 8.13659 0.491525 8.29409 0.570692C8.42326 0.634858 8.52909 0.739025 8.59576 0.867359Z" fill="#7966FF"/>
</svg>
