<svg width="56" height="56" viewBox="0 0 56 56" fill="none" xmlns="http://www.w3.org/2000/svg">
<path d="M56 28C56 43.4642 43.4642 56 28 56C12.5358 56 0 43.4642 0 28C0 12.5358 12.5358 0 28 0C43.4642 0 56 12.5358 56 28Z" fill="#60DAA8"/>
<path d="M25.9808 46.9216C28.2914 44.7319 29.3159 41.707 29.3159 41.707L25.592 38.5454C25.592 38.5454 21.0162 29.7548 21.0444 29.777C10.8281 17.8966 18.5408 1.789 18.6279 1.60742C7.77417 5.46289 0 15.8245 0 28.0005C0 42.412 10.8901 54.2809 24.8888 55.8297C23.0649 53.0671 23.4806 49.2915 25.9808 46.9216Z" fill="#00CE8E"/>
<path d="M26.2893 43.0504C25.4168 43.0504 24.5397 42.7714 23.8006 42.201L10.6012 32.0193C8.81789 30.644 8.4872 28.0831 9.86294 26.2998C11.2382 24.5169 13.7992 24.1862 15.5825 25.5615L25.7945 33.4395L39.8842 17.8459C41.3941 16.1749 43.9726 16.0442 45.6439 17.5545C47.3149 19.0639 47.4456 21.6428 45.9353 23.3138L29.3167 41.7063C28.5152 42.5932 27.4061 43.0504 26.2893 43.0504Z" fill="#FFFCDC"/>
</svg>
