<svg width="28" height="28" viewBox="0 0 28 28" fill="none" xmlns="http://www.w3.org/2000/svg">
<path fill-rule="evenodd" clip-rule="evenodd" d="M14.0036 10.8421C12.1915 10.8421 10.7226 12.2559 10.7226 14C10.7226 15.7441 12.1915 17.1579 14.0036 17.1579C15.8156 17.1579 17.2845 15.7441 17.2845 14C17.2845 12.2559 15.8156 10.8421 14.0036 10.8421ZM8.53533 14C8.53533 11.0932 10.9835 8.73684 14.0036 8.73684C17.0236 8.73684 19.4718 11.0932 19.4718 14C19.4718 16.9068 17.0236 19.2632 14.0036 19.2632C10.9835 19.2632 8.53533 16.9068 8.53533 14Z" fill="#A2AEBD"/>
<path fill-rule="evenodd" clip-rule="evenodd" d="M25.2016 14L25.5161 14.1756C27.247 15.1418 27.8451 17.2703 26.8564 18.9446L24.8496 22.3428C23.8486 24.0379 21.6037 24.6224 19.8513 23.6441L19.5813 23.4934V23.8246C19.5813 25.7624 17.9492 27.3333 15.9358 27.3333H11.9563C9.943 27.3333 8.31086 25.7624 8.31086 23.8246V23.5382L8.18118 23.6124C6.42669 24.6157 4.15826 24.0374 3.1498 22.3298L1.14326 18.932C0.161875 17.2701 0.743099 15.158 2.45048 14.1816L2.76803 14L2.45048 13.8184C0.743099 12.842 0.161874 10.7299 1.14326 9.06803L3.1498 5.67024C4.15826 3.96255 6.42669 3.38426 8.18118 4.38759L8.31086 4.46175V4.17543C8.31086 2.23759 9.943 0.666664 11.9563 0.666664H15.9358C17.9492 0.666664 19.5813 2.23759 19.5813 4.17544V4.50661L19.8513 4.35588C21.6037 3.37763 23.8486 3.9621 24.8496 5.65722L26.8564 9.05537C27.8451 10.7297 27.247 12.8582 25.5161 13.8244L25.2016 14ZM23.0168 15.2141C22.048 14.6733 22.048 13.3267 23.0168 12.7859L24.4187 12.0033C25.111 11.6168 25.3503 10.7654 24.9548 10.0957L22.948 6.69754C22.5476 6.01949 21.6497 5.7857 20.9487 6.177L19.5838 6.93895C18.6117 7.48164 17.394 6.80653 17.394 5.72487V4.17544C17.394 3.4003 16.7412 2.77193 15.9358 2.77193H11.9563C11.151 2.77193 10.4981 3.4003 10.4981 4.17543V5.69497C10.4981 6.7832 9.26714 7.45743 8.29512 6.90157L7.06393 6.1975C6.36214 5.79616 5.45476 6.02748 5.05138 6.71056L3.04484 10.1083C2.65228 10.7731 2.88477 11.6179 3.56772 12.0085L4.94025 12.7934C5.8914 13.3373 5.8914 14.6627 4.94025 15.2066L3.56772 15.9915C2.88477 16.3821 2.65228 17.2269 3.04484 17.8917L5.05138 21.2894C5.45477 21.9725 6.36214 22.2038 7.06393 21.8025L8.29512 21.0984C9.26714 20.5426 10.4981 21.2168 10.4981 22.305V23.8246C10.4981 24.5997 11.151 25.2281 11.9563 25.2281H15.9358C16.7412 25.2281 17.394 24.5997 17.394 23.8246V22.2751C17.394 21.1935 18.6117 20.5184 19.5838 21.061L20.9487 21.823C21.6497 22.2143 22.5476 21.9805 22.948 21.3025L24.9548 17.9043C25.3503 17.2346 25.111 16.3832 24.4187 15.9967L23.0168 15.2141Z" fill="#A2AEBD"/>
</svg>
