<svg width="56" height="56" viewBox="0 0 56 56" fill="none" xmlns="http://www.w3.org/2000/svg">
<circle cx="28" cy="28" r="28" fill="white"/>
<path d="M39.7748 12.2495H21.9578C19.6339 12.2495 17.7324 14.1509 17.7324 16.4749V17.9126H33.8494C36.1733 17.9126 38.0747 19.8141 38.0747 22.138V32.6722H39.7748C42.0987 32.6722 44.0002 30.7708 44.0002 28.4468V16.4749C44.0002 14.1509 42.0987 12.2495 39.7748 12.2495Z" fill="#6C7ED6"/>
<path d="M36.779 17.7197H18.962C18.5347 17.7197 18.1219 17.7845 17.7324 17.9039V17.9129H33.8494C36.1733 17.9129 38.0747 19.8144 38.0747 22.1383V32.6725H39.7747C40.202 32.6725 40.6148 32.6077 41.0043 32.4883V21.9451C41.0044 19.6212 39.1029 17.7197 36.779 17.7197Z" fill="#4F67D2"/>
<path d="M34.0424 17.7197H16.2254C13.9014 17.7197 12 19.6212 12 21.9451V33.917C12 36.2409 13.9014 38.1424 16.2254 38.1424H26.9189C27.3773 38.1424 27.7196 38.569 27.6147 39.0152C27.3311 40.2225 26.8972 41.4993 26.2557 42.8081C25.9676 43.3959 26.6229 43.9935 27.1796 43.649C28.789 42.6529 31.0789 40.9859 33.0073 38.6292C33.2608 38.3194 33.6421 38.1423 34.0424 38.1423C36.3663 38.1423 38.2677 36.2409 38.2677 33.9169V21.945C38.2677 19.6212 36.3663 17.7197 34.0424 17.7197Z" fill="#60B8FE"/>
<path d="M30.3512 39.0145C30.456 38.5682 30.1139 38.1416 29.6554 38.1416H26.919C27.3774 38.1416 27.7196 38.5682 27.6148 39.0145C27.3312 40.2218 26.8973 41.4985 26.2558 42.8074C25.9677 43.3952 26.623 43.9927 27.1797 43.6482C27.7972 43.266 28.515 42.7847 29.274 42.204C29.7635 41.1063 30.1114 40.0355 30.3512 39.0145Z" fill="#23A8FE"/>
<path d="M14.7364 33.917V21.9451C14.7364 19.6212 16.6379 17.7197 18.9618 17.7197H16.2254C13.9014 17.7197 12 19.6212 12 21.9451V33.917C12 36.2409 13.9014 38.1424 16.2254 38.1424H18.9618C16.6378 38.1424 14.7364 36.241 14.7364 33.917Z" fill="#23A8FE"/>
<path d="M17.8572 29.6768C18.6316 29.6768 19.2593 29.0491 19.2593 28.2747C19.2593 27.5003 18.6316 26.8726 17.8572 26.8726C17.0828 26.8726 16.4551 27.5003 16.4551 28.2747C16.4551 29.0491 17.0828 29.6768 17.8572 29.6768Z" fill="#DFEBFA"/>
<path d="M22.3865 29.6768C23.1609 29.6768 23.7886 29.0491 23.7886 28.2747C23.7886 27.5003 23.1609 26.8726 22.3865 26.8726C21.6121 26.8726 20.9844 27.5003 20.9844 28.2747C20.9844 29.0491 21.6121 29.6768 22.3865 29.6768Z" fill="#DFEBFA"/>
<path d="M26.9138 29.6768C27.6882 29.6768 28.316 29.0491 28.316 28.2747C28.316 27.5003 27.6882 26.8726 26.9138 26.8726C26.1395 26.8726 25.5117 27.5003 25.5117 28.2747C25.5117 29.0491 26.1395 29.6768 26.9138 29.6768Z" fill="#DFEBFA"/>
<path d="M31.4431 29.6768C32.2175 29.6768 32.8453 29.0491 32.8453 28.2747C32.8453 27.5003 32.2175 26.8726 31.4431 26.8726C30.6688 26.8726 30.041 27.5003 30.041 28.2747C30.041 29.0491 30.6688 29.6768 31.4431 29.6768Z" fill="#DFEBFA"/>
<path d="M17.8572 28.2747C17.8572 27.7558 18.1393 27.3031 18.5583 27.0606C18.352 26.9412 18.1127 26.8726 17.8572 26.8726C17.0828 26.8726 16.4551 27.5003 16.4551 28.2747C16.4551 29.0491 17.0828 29.6768 17.8572 29.6768C18.1127 29.6768 18.352 29.6081 18.5583 29.4888C18.1393 29.2463 17.8572 28.7936 17.8572 28.2747Z" fill="#B1DBFC"/>
<path d="M22.3865 28.2747C22.3865 27.7558 22.6686 27.3031 23.0876 27.0606C22.8813 26.9412 22.642 26.8726 22.3865 26.8726C21.6121 26.8726 20.9844 27.5003 20.9844 28.2747C20.9844 29.0491 21.6121 29.6768 22.3865 29.6768C22.642 29.6768 22.8813 29.6081 23.0876 29.4888C22.6686 29.2463 22.3865 28.7936 22.3865 28.2747Z" fill="#B1DBFC"/>
<path d="M26.9138 28.2747C26.9138 27.7558 27.196 27.3031 27.6149 27.0606C27.4086 26.9412 27.1693 26.8726 26.9138 26.8726C26.1395 26.8726 25.5117 27.5003 25.5117 28.2747C25.5117 29.0491 26.1395 29.6768 26.9138 29.6768C27.1693 29.6768 27.4087 29.6081 27.6149 29.4888C27.196 29.2463 26.9138 28.7936 26.9138 28.2747Z" fill="#B1DBFC"/>
<path d="M31.4431 28.2747C31.4431 27.7558 31.7252 27.3031 32.1442 27.0606C31.9379 26.9412 31.6986 26.8726 31.4431 26.8726C30.6688 26.8726 30.041 27.5003 30.041 28.2747C30.041 29.0491 30.6688 29.6768 31.4431 29.6768C31.6986 29.6768 31.938 29.6081 32.1442 29.4888C31.7252 29.2463 31.4431 28.7936 31.4431 28.2747Z" fill="#B1DBFC"/>
</svg>
