<svg width="14" height="14" viewBox="0 0 14 14" fill="none" xmlns="http://www.w3.org/2000/svg">
<path d="M13.1935 1.68762L12.1783 0.672394C11.9753 0.469348 11.6369 0.333984 11.3661 0.333984H8.65886C8.18509 0.333984 7.71131 0.53703 7.3729 0.87544L0.87544 7.3729C0.53703 7.71131 0.333984 8.18508 0.333984 8.65886C0.333984 9.13263 0.53703 9.6064 0.87544 10.0125L3.98881 13.1259C4.32722 13.4643 4.80099 13.6673 5.34245 13.6673C5.81622 13.6673 6.28999 13.4643 6.6284 13.1259L13.1259 6.6284C13.4643 6.28999 13.6673 5.81622 13.6673 5.34244V2.63517C13.5996 2.22908 13.4643 1.89067 13.1935 1.68762ZM9.67409 4.86867C9.33568 4.86867 8.99727 4.53026 8.99727 4.19185C8.99727 3.85344 9.33568 3.51503 9.67409 3.51503C10.0125 3.51503 10.3509 3.85344 10.3509 4.19185C10.3509 4.53026 10.0125 4.86867 9.67409 4.86867Z" fill="#7966FF"/>
</svg>
