<svg width="28" height="23" viewBox="0 0 28 23" fill="none" xmlns="http://www.w3.org/2000/svg">
<path fill-rule="evenodd" clip-rule="evenodd" d="M0.25 2.31762C0.25 1.08381 1.24592 0.0878906 2.47973 0.0878906C3.71353 0.0878906 4.70945 1.08381 4.70945 2.31762C4.70945 3.55142 3.71353 4.54734 2.47973 4.54734C1.24592 4.54734 0.25 3.55142 0.25 2.31762ZM0.25 11.2364C0.25 10.0026 1.24592 9.00665 2.47973 9.00665C3.71353 9.00665 4.70945 10.0026 4.70945 11.2364C4.70945 12.4702 3.71353 13.4661 2.47973 13.4661C1.24592 13.4661 0.25 12.4702 0.25 11.2364ZM2.47973 17.9257C1.23854 17.9257 0.25 18.9291 0.25 20.1555C0.25 21.3818 1.25338 22.3852 2.47973 22.3852C3.70608 22.3852 4.70945 21.3818 4.70945 20.1555C4.70945 18.9291 3.72092 17.9257 2.47973 17.9257ZM6.93915 18.6691H27.75V21.6421H6.93915V18.6691ZM27.75 0.831299H6.93915V3.80429H27.75V0.831299ZM6.93915 9.75006H27.75V12.7231H6.93915V9.75006Z" fill="#7966FF" fill-opacity="0.9"/>
</svg>
