<svg width="16" height="20" viewBox="0 0 16 20" fill="none" xmlns="http://www.w3.org/2000/svg">
<path d="M15.1227 9.67554C14.4531 8.89359 14.1488 8.21595 14.1488 7.06471V6.67327C14.1488 5.17306 13.8035 4.20646 13.0528 3.23986C11.8958 1.73873 9.948 0.833984 8.04119 0.833984H7.96011C6.09339 0.833984 4.20663 1.69718 3.02956 3.13739C2.23787 4.12337 1.8525 5.13152 1.8525 6.67327V7.06471C1.8525 8.21595 1.56826 8.89359 0.878599 9.67554C0.371149 10.2516 0.208984 10.992 0.208984 11.7934C0.208984 12.5956 0.472275 13.3554 1.00068 13.9731C1.69034 14.7135 2.66424 15.1862 3.65909 15.2683C5.09945 15.4327 6.5398 15.4945 8.00111 15.4945C9.4615 15.4945 10.9019 15.3911 12.3431 15.2683C13.3371 15.1862 14.311 14.7135 15.0006 13.9731C15.5281 13.3554 15.7923 12.5956 15.7923 11.7934C15.7923 10.992 15.6302 10.2516 15.1227 9.67554Z" fill="white"/>
<path opacity="0.4" d="M9.84258 16.6261C9.38433 16.5283 6.59199 16.5283 6.13374 16.6261C5.74199 16.7166 5.31836 16.9271 5.31836 17.3887C5.34114 17.8291 5.59896 18.2177 5.95609 18.4642L5.95518 18.4652C6.41707 18.8252 6.95914 19.0542 7.52672 19.1363C7.82919 19.1779 8.13712 19.176 8.45051 19.1363C9.01718 19.0542 9.55925 18.8252 10.0211 18.4652L10.0202 18.4642C10.3774 18.2177 10.6352 17.8291 10.658 17.3887C10.658 16.9271 10.2343 16.7166 9.84258 16.6261Z" fill="white"/>
</svg>
