<svg width="56" height="56" viewBox="0 0 56 56" fill="none" xmlns="http://www.w3.org/2000/svg">
<circle cx="28" cy="28" r="28" fill="white"/>
<path d="M42.3198 19.9785H12.9448C12.4231 19.9785 12 20.4016 12 20.9233V40.9441C12 42.6289 13.3708 43.9998 15.0557 43.9998H40.209C41.894 43.9998 43.2646 42.6289 43.2646 40.9441V20.9233C43.2646 20.4016 42.8416 19.9785 42.3198 19.9785Z" fill="#E1F1FA"/>
<path d="M42.3201 19.9785H27.6328V43.9998H40.2092C41.8943 43.9998 43.2649 42.6289 43.2649 40.9441V20.9233C43.2649 20.4016 42.8418 19.9785 42.3201 19.9785Z" fill="#CDEBFC"/>
<path d="M27.6335 39.4905C24.0791 39.4905 21.1875 36.5989 21.1875 33.0444C21.1875 29.4902 24.0791 26.5986 27.6335 26.5986C31.1877 26.5986 34.0793 29.4902 34.0793 33.0444C34.0793 36.5989 31.1877 39.4905 27.6335 39.4905Z" fill="#FFEE6E"/>
<path d="M27.6328 26.5986V39.4905C31.1873 39.4905 34.0789 36.5989 34.0789 33.0444C34.0786 29.4902 31.1873 26.5986 27.6328 26.5986Z" fill="#FDBF00"/>
<path d="M27.6318 40.5447C23.4958 40.5447 20.1309 37.1797 20.1309 33.0437C20.1309 28.9077 23.4956 25.543 27.6318 25.543C31.7678 25.543 35.1326 28.9077 35.1326 33.0437C35.1326 37.1797 31.7678 40.5447 27.6318 40.5447ZM27.6318 27.4326C24.5378 27.4326 22.0205 29.9497 22.0205 33.0437C22.0205 36.1377 24.5378 38.655 27.6318 38.655C30.7258 38.655 33.2429 36.1377 33.2429 33.0437C33.2429 29.9497 30.7258 27.4326 27.6318 27.4326Z" fill="#FFB64C"/>
<path d="M27.6328 25.543V27.4326C30.7268 27.4326 33.2439 29.9497 33.2439 33.0437C33.2439 36.1377 30.7268 38.6548 27.6328 38.6548V40.5447C31.7688 40.5447 35.1335 37.1797 35.1335 33.0437C35.1335 28.9077 31.7688 25.543 27.6328 25.543Z" fill="#FF9100"/>
<path d="M26.8973 35.6761C26.6465 35.6761 26.4063 35.5765 26.2291 35.3992L24.3275 33.4976C23.9586 33.1287 23.9586 32.5303 24.3275 32.1614C24.6966 31.7925 25.2947 31.7925 25.6639 32.1614L26.8973 33.3948L29.6024 30.6898C29.9713 30.3209 30.5696 30.3209 30.9385 30.6898C31.3077 31.0587 31.3077 31.657 30.9385 32.0259L27.5652 35.3992C27.3882 35.5765 27.1478 35.6761 26.8973 35.6761Z" fill="#06CCAB"/>
<path d="M29.6021 30.6898L27.6328 32.6592V35.3316L30.9382 32.0262C31.3074 31.657 31.3074 31.0589 30.9382 30.6898C30.5693 30.3209 29.9712 30.3209 29.6021 30.6898Z" fill="#1CADB5"/>
<path d="M40.209 14.0117H15.0557C13.3682 14.0117 12 15.3799 12 17.0676V21.8684H43.2646V17.0676C43.2646 15.3799 41.8965 14.0117 40.209 14.0117Z" fill="#FF5B5B"/>
<path d="M40.2092 14.0117H27.6328V21.8684H43.2649V17.0676C43.2649 15.3799 41.8967 14.0117 40.2092 14.0117Z" fill="#FF193D"/>
<path d="M17.7241 17.9138C17.2024 17.9138 16.7793 17.4907 16.7793 16.969V12.9448C16.7793 12.4231 17.2024 12 17.7241 12C18.2461 12 18.6692 12.4231 18.6692 12.9448V16.969C18.6692 17.4907 18.2461 17.9138 17.7241 17.9138Z" fill="#1B3B6B"/>
<path d="M21.4702 17.9138C20.9485 17.9138 20.5254 17.4907 20.5254 16.969V12.9448C20.5254 12.4231 20.9485 12 21.4702 12C21.9922 12 22.4153 12.4231 22.4153 12.9448V16.969C22.4153 17.4907 21.9922 17.9138 21.4702 17.9138Z" fill="#1B3B6B"/>
<path d="M33.7944 17.9138C33.2727 17.9138 32.8496 17.4907 32.8496 16.969V12.9448C32.8496 12.4231 33.2727 12 33.7944 12C34.3164 12 34.7395 12.4231 34.7395 12.9448V16.969C34.7395 17.4907 34.3164 17.9138 33.7944 17.9138Z" fill="#001035"/>
<path d="M37.5405 17.9138C37.0188 17.9138 36.5957 17.4907 36.5957 16.969V12.9448C36.5957 12.4231 37.0188 12 37.5405 12C38.0623 12 38.4854 12.4231 38.4854 12.9448V16.969C38.4854 17.4907 38.0625 17.9138 37.5405 17.9138Z" fill="#001035"/>
</svg>
