<svg width="24" height="25" viewBox="0 0 24 25" fill="none" xmlns="http://www.w3.org/2000/svg">
<rect y="0.148438" width="24" height="24" rx="12" fill="#FFC22D"/>
<path fill-rule="evenodd" clip-rule="evenodd" d="M7.02732 5.48242H9.28065C10.2207 5.48242 10.974 6.24909 10.974 7.18976V9.46242C10.974 10.4091 10.2207 11.1691 9.28065 11.1691H7.02732C6.09398 11.1691 5.33398 10.4091 5.33398 9.46242V7.18976C5.33398 6.24909 6.09398 5.48242 7.02732 5.48242ZM7.02732 13.1289H9.28065C10.2207 13.1289 10.974 13.8896 10.974 14.8362V17.1089C10.974 18.0489 10.2207 18.8156 9.28065 18.8156H7.02732C6.09398 18.8156 5.33398 18.0489 5.33398 17.1089V14.8362C5.33398 13.8896 6.09398 13.1289 7.02732 13.1289ZM16.9741 5.48242H14.7207C13.7807 5.48242 13.0274 6.24909 13.0274 7.18976V9.46242C13.0274 10.4091 13.7807 11.1691 14.7207 11.1691H16.9741C17.9074 11.1691 18.6674 10.4091 18.6674 9.46242V7.18976C18.6674 6.24909 17.9074 5.48242 16.9741 5.48242ZM14.7207 13.1289H16.9741C17.9074 13.1289 18.6674 13.8896 18.6674 14.8362V17.1089C18.6674 18.0489 17.9074 18.8156 16.9741 18.8156H14.7207C13.7807 18.8156 13.0274 18.0489 13.0274 17.1089V14.8362C13.0274 13.8896 13.7807 13.1289 14.7207 13.1289Z" fill="white"/>
</svg>
