<svg width="74" height="74" viewBox="0 0 74 74" fill="none" xmlns="http://www.w3.org/2000/svg">
<g filter="url(#filter0_d_1018_23756)">
<circle cx="37" cy="33" r="27" fill="white"/>
<circle cx="37" cy="33" r="26.5" stroke="#DBDFEF" stroke-opacity="0.5"/>
</g>
<path d="M24.9373 41.8868L24.9374 41.8866L29.737 36.005C29.7371 36.0049 29.7372 36.0048 29.7374 36.0046C29.8884 35.8186 30.1116 35.7057 30.3509 35.6917C30.5914 35.6773 30.8277 35.7654 30.9986 35.9353C30.9988 35.9355 30.9991 35.9357 30.9993 35.936L32.6301 37.5357L35.6701 32.5674C35.6701 32.5674 35.6701 32.5674 35.6701 32.5674C35.8158 32.3292 36.0706 32.1793 36.3492 32.1635L36.3527 32.1633L36.3527 32.1634C36.6238 32.1518 36.8863 32.2645 37.0624 32.4709L37.0659 32.475L37.0659 32.4751L38.3425 34.04L40.3682 24.5951L40.3682 24.5949C40.4665 24.1387 40.9199 23.8546 41.3744 23.9488L41.3237 24.1934L41.3744 23.9488C41.5348 23.982 41.6826 24.0603 41.7994 24.175M24.9373 41.8868L38.5449 34.2882L40.6126 24.6475C40.6811 24.3297 40.9995 24.1264 41.3237 24.1936C41.4376 24.2172 41.542 24.2727 41.6242 24.3534L44.5548 27.2264L44.7078 27.0263M24.9373 41.8868C24.8167 42.0349 24.7503 42.2195 24.75 42.4105L25 42.4109M24.9373 41.8868L24.75 42.4106M41.7994 24.175L41.6243 24.3534L41.7993 24.1749L41.7994 24.175ZM41.7994 24.175L44.7078 27.0263M44.7078 27.0263L47.7209 23.0841M44.7078 27.0263L44.8877 27.2026L44.2914 28.9663M44.4395 28.7649C44.4171 28.7484 44.3958 28.7303 44.3759 28.7109L41.7707 26.1557L41.7086 26.445M44.4395 28.7649L44.2914 28.9663M44.4395 28.7649L44.2915 28.9663C44.2915 28.9663 44.2914 28.9663 44.2914 28.9663M44.4395 28.7649C44.7046 28.9598 45.0807 28.9072 45.2796 28.6473L48.8796 23.9416M44.2914 28.9663C44.2594 28.9428 44.2293 28.9171 44.2012 28.8896L44.2009 28.8894L41.7086 26.445M41.7086 26.445L41.4974 26.2378L39.3874 36.0661M41.7086 26.445L39.6319 36.1186M39.6319 36.1186L39.3874 36.0661M39.6319 36.1186L39.6318 36.1186L39.3874 36.0661M39.6319 36.1186C39.5339 36.5749 39.0807 36.8592 38.6262 36.7654L38.6262 36.7654C38.4343 36.7258 38.2614 36.6218 38.1378 36.4701M39.3874 36.0661C39.3192 36.384 39.001 36.5874 38.6767 36.5205C38.5404 36.4924 38.4183 36.4187 38.3314 36.312M38.3314 36.312L38.1378 36.4701M38.3314 36.312L38.1376 36.4699M38.3314 36.312L36.6377 34.2372L36.4994 34.4632M38.1378 36.4701C38.1377 36.47 38.1376 36.4699 38.1376 36.4699M38.1378 36.4701L38.1376 36.4699M38.1376 36.4699L29.9312 36.1625L25.1311 42.0447C25.0464 42.1487 25.0002 42.2778 25 42.4109M38.1376 36.4699L36.4994 34.4632M38.1376 36.4699L24.75 42.4106M36.4994 34.4632L36.3319 34.258L33.3141 39.1884C33.145 39.4678 32.7769 39.5599 32.4919 39.3941C32.4496 39.3695 32.4106 39.3399 32.3757 39.306L30.6349 37.5994L30.4759 37.7936M36.4994 34.4632L33.528 39.3178C33.5278 39.318 33.5277 39.3182 33.5276 39.3184C33.2866 39.7158 32.767 39.8434 32.3662 39.6102M30.4759 37.7936L30.2966 37.6179L26.0684 42.7801C25.9542 42.9194 25.7815 43.0004 25.5991 43C25.2678 42.9996 24.9995 42.7358 25 42.4109M30.4759 37.7936L26.2618 42.9385L26.2618 42.9385C26.0993 43.1368 25.855 43.2505 25.5986 43.25M30.4759 37.7936L32.2007 39.4845L32.2014 39.4852C32.251 39.5334 32.3063 39.5754 32.3662 39.6102M25 42.4109L24.75 42.4106M24.75 42.4106C24.7493 42.8781 25.1339 43.2493 25.5986 43.25M25.5986 43.25C25.5987 43.25 25.5987 43.25 25.5988 43.25L25.5991 43L25.5986 43.25ZM32.3662 39.6102C32.3662 39.6102 32.3662 39.6102 32.3663 39.6103L32.4908 39.3961L32.3662 39.6102ZM48.8796 23.9416L49.0733 24.0997L49.0754 24.0971C49.0757 24.0967 49.0762 24.0961 49.0767 24.0955L49.0782 24.0935L48.8796 23.9416ZM48.8796 23.9416L48.8804 23.9407L49.0791 24.0924C49.0795 24.0918 49.0799 24.0912 49.0804 24.0907C49.3631 23.7184 49.2838 23.1919 48.9074 22.9157C48.5333 22.6413 48.0029 22.7147 47.7209 23.0841M47.7209 23.0841L47.721 23.084L47.9196 23.2358L47.7209 23.0841Z" fill="#05CB9E" stroke="#39CEAD" stroke-width="0.5"/>
<defs>
<filter id="filter0_d_1018_23756" x="0" y="0" width="74" height="74" filterUnits="userSpaceOnUse" color-interpolation-filters="sRGB">
<feFlood flood-opacity="0" result="BackgroundImageFix"/>
<feColorMatrix in="SourceAlpha" type="matrix" values="0 0 0 0 0 0 0 0 0 0 0 0 0 0 0 0 0 0 127 0" result="hardAlpha"/>
<feOffset dy="4"/>
<feGaussianBlur stdDeviation="5"/>
<feColorMatrix type="matrix" values="0 0 0 0 0.396078 0 0 0 0 0.4 0 0 0 0 0.913725 0 0 0 0.05 0"/>
<feBlend mode="normal" in2="BackgroundImageFix" result="effect1_dropShadow_1018_23756"/>
<feBlend mode="normal" in="SourceGraphic" in2="effect1_dropShadow_1018_23756" result="shape"/>
</filter>
</defs>
</svg>
