<svg width="24" height="24" viewBox="0 0 24 24" fill="none" xmlns="http://www.w3.org/2000/svg">
<path d="M0 12C0 5.37258 5.37258 0 12 0V0C18.6274 0 24 5.37258 24 12V12C24 18.6274 18.6274 24 12 24V24C5.37258 24 0 18.6274 0 12V12Z" fill="#7966FF"/>
<path fill-rule="evenodd" clip-rule="evenodd" d="M9.91853 8.25237C9.91853 9.49682 8.89261 10.5055 7.62595 10.5055C6.36003 10.5055 5.33337 9.49682 5.33337 8.25237C5.33337 7.00866 6.36003 6 7.62595 6C8.89261 6 9.91853 7.00866 9.91853 8.25237ZM17.6623 7.26555C18.2163 7.26555 18.6667 7.70802 18.6667 8.25237C18.6667 8.79746 18.2163 9.23993 17.6623 9.23993H13.2786C12.7238 9.23993 12.2734 8.79746 12.2734 8.25237C12.2734 7.70802 12.7238 7.26555 13.2786 7.26555H17.6623ZM6.33855 14.6386H10.7222C11.277 14.6386 11.7274 15.0811 11.7274 15.6262C11.7274 16.1705 11.277 16.6137 10.7222 16.6137H6.33855C5.78374 16.6137 5.33337 16.1705 5.33337 15.6262C5.33337 15.0811 5.78374 14.6386 6.33855 14.6386ZM16.3741 17.8519C17.6408 17.8519 18.6667 16.8432 18.6667 15.5995C18.6667 14.355 17.6408 13.3464 16.3741 13.3464C15.1082 13.3464 14.0815 14.355 14.0815 15.5995C14.0815 16.8432 15.1082 17.8519 16.3741 17.8519Z" fill="white"/>
</svg>
