<svg width="56" height="56" viewBox="0 0 56 56" fill="none" xmlns="http://www.w3.org/2000/svg">
<circle cx="28" cy="28" r="28" fill="white"/>
<path d="M39.3675 22L41.5 36.5H16V22H39.3675Z" fill="#5B83FE"/>
<path d="M39.3675 22L41.5 36.5H16V22V19.5H39L39.3675 22Z" fill="#5B83FE"/>
<path d="M39 19.5L39.3675 22H16V19.5H39Z" fill="#85A2FF"/>
<path d="M39.5001 35H20.2651L19.8607 32.25L19.787 31.75L19.4932 29.75L19.4195 29.25L19.1251 27.25L19.052 26.75L18.7207 24.5H37.9557L38.287 26.75L38.3601 27.25L38.6545 29.25L38.7282 29.75L39.022 31.75L39.0476 31.9237L39.0957 32.25L39.5001 35Z" fill="#85A2FF"/>
<path d="M37.735 23L37.9556 24.5H18.7206L18.5 23H37.735Z" fill="#3A69FF"/>
<path d="M39.0965 32.25L39.0484 31.9237L39.0227 31.75H36.511L36.2168 29.75H38.729L38.6552 29.25H36.1432L35.8491 27.25H38.3609L38.2877 26.75H35.7759L35.4446 24.5H34.9396L35.2704 26.75H33.0399L32.7087 24.5H32.2037L32.5349 26.75H30.3049L29.9737 24.5H29.4687L29.7995 26.75H27.5401L27.2093 24.5H26.7037L27.0346 26.75H24.8046L24.4734 24.5H23.9684L24.2993 26.75H22.0399L21.709 24.5H21.2034L21.5343 26.75H19.0527L19.1259 27.25H21.6085L21.9026 29.25H19.4202L19.494 29.75H21.9759L22.27 31.75H19.7877L19.8615 32.25H22.3439L22.7484 35H23.254L22.8495 32.25H25.1089L25.5134 35H26.0184L25.6139 32.25H27.8439L28.2484 35H28.7534L28.349 32.25H30.6084L31.0127 35H31.5184L31.1139 32.25H33.3439L33.7484 35H34.2534L33.8489 32.25H36.079L36.4834 35H36.989L36.5845 32.25H39.0965ZM35.3439 27.25L35.638 29.25H33.4076L33.1134 27.25H35.3439ZM32.6085 27.25L32.9026 29.25H30.6726L30.3785 27.25H32.6085ZM29.8733 27.25L30.167 29.25H27.9077L27.6136 27.25H29.8733ZM27.1085 27.25L27.4026 29.25H25.1726L24.8785 27.25H27.1085ZM22.1141 27.25H24.3735L24.6676 29.25H22.4082L22.1141 27.25ZM22.776 31.75L22.4821 29.75H24.7415L25.0357 31.75H22.776ZM25.5404 31.75L25.2462 29.75H27.4762L27.7704 31.75H25.5404ZM28.2755 31.75L27.9818 29.75H30.2412L30.5352 31.75H28.2755ZM31.0404 31.75L30.7462 29.75H32.9762L33.2704 31.75H31.0404ZM33.7754 31.75L33.4812 29.75H35.7115L36.0052 31.75H33.7754Z" fill="#3A69FF"/>
<path d="M16 19.5L13.5 36.5H18.5L16 19.5Z" fill="#3A69FF"/>
<path d="M28.2165 31.8066L26.8829 30.7167L27.8722 29.6721C27.917 29.6239 27.941 29.5598 27.9389 29.494C27.9368 29.4281 27.9088 29.3657 27.8609 29.3204C27.8131 29.2751 27.7493 29.2505 27.6834 29.252C27.6175 29.2535 27.5549 29.281 27.5091 29.3284L26.4947 30.3995L25.1577 29.3066C25.1062 29.2657 25.0407 29.2467 24.9753 29.2537C24.91 29.2607 24.85 29.2931 24.8084 29.344C24.7668 29.3949 24.7469 29.4602 24.7531 29.5257C24.7592 29.5911 24.7909 29.6515 24.8413 29.6938L26.15 30.7633L25.1415 31.8283C25.0966 31.8765 25.0726 31.9406 25.0747 32.0064C25.0768 32.0723 25.1049 32.1347 25.1527 32.18C25.2006 32.2253 25.2644 32.2499 25.3303 32.2484C25.3962 32.2469 25.4588 32.2195 25.5045 32.172L26.5382 31.0805L27.9001 32.1936C27.9255 32.2145 27.9548 32.2302 27.9863 32.2397C28.0177 32.2493 28.0508 32.2525 28.0835 32.2493C28.1162 32.246 28.148 32.2363 28.1769 32.2208C28.2059 32.2053 28.2316 32.1842 28.2524 32.1587C28.2732 32.1332 28.2888 32.1039 28.2982 32.0724C28.3077 32.0409 28.3108 32.0079 28.3075 31.9752C28.3042 31.9425 28.2944 31.9107 28.2788 31.8818C28.2632 31.8528 28.2421 31.8273 28.2165 31.8065V31.8066Z" fill="#00D498"/>
<path d="M30.9787 31.8044L29.6265 30.7252L30.6356 29.6728C30.6583 29.6491 30.6761 29.6212 30.6881 29.5906C30.7 29.56 30.7058 29.5273 30.7051 29.4945C30.7044 29.4617 30.6973 29.4293 30.6841 29.3993C30.6709 29.3692 30.6519 29.342 30.6282 29.3193C30.6045 29.2966 30.5766 29.2787 30.546 29.2668C30.5154 29.2549 30.4827 29.2491 30.4499 29.2498C30.4171 29.2505 30.3847 29.2576 30.3547 29.2708C30.3246 29.284 30.2974 29.303 30.2747 29.3267L29.2341 30.4122L27.8466 29.3046C27.821 29.2839 27.7915 29.2684 27.7599 29.2592C27.7283 29.2499 27.6951 29.2469 27.6624 29.2505C27.6296 29.2541 27.5979 29.2641 27.569 29.28C27.5401 29.2959 27.5146 29.3173 27.4941 29.3431C27.4735 29.3688 27.4582 29.3984 27.4492 29.4301C27.4401 29.4617 27.4373 29.4949 27.4411 29.5277C27.4449 29.5604 27.4551 29.5921 27.4711 29.6208C27.4872 29.6496 27.5088 29.675 27.5347 29.6954L28.8868 30.7744L27.8777 31.8267C27.8318 31.8745 27.8068 31.9387 27.8082 32.005C27.8096 32.0713 27.8372 32.1343 27.8851 32.1802C27.933 32.2261 27.9971 32.2511 28.0634 32.2497C28.1297 32.2483 28.1927 32.2207 28.2386 32.1728L29.2791 31.0872L30.6666 32.1948C30.6922 32.2158 30.7217 32.2315 30.7534 32.241C30.7851 32.2506 30.8184 32.2537 30.8514 32.2502C30.8843 32.2467 30.9162 32.2368 30.9453 32.2209C30.9744 32.2049 31 32.1834 31.0206 32.1575C31.0413 32.1316 31.0566 32.1019 31.0657 32.0701C31.0747 32.0382 31.0774 32.0049 31.0735 31.972C31.0695 31.9391 31.0591 31.9073 31.0428 31.8785C31.0265 31.8496 31.0046 31.8243 30.9784 31.804L30.9787 31.8044Z" fill="#00D498"/>
<path d="M33.0137 26.8391L31.6876 25.7703L32.7132 24.7071C32.7365 24.6835 32.7549 24.6556 32.7673 24.6249C32.7797 24.5943 32.7859 24.5614 32.7855 24.5283C32.7851 24.4952 32.7781 24.4626 32.765 24.4322C32.7519 24.4018 32.7329 24.3743 32.7091 24.3513C32.6853 24.3284 32.6571 24.3103 32.6263 24.2983C32.5955 24.2863 32.5625 24.2805 32.5295 24.2813C32.4964 24.2821 32.4638 24.2895 32.4336 24.303C32.4033 24.3165 32.3761 24.3358 32.3534 24.3599L31.2966 25.4553L29.9108 24.3391C29.8852 24.3185 29.8559 24.3031 29.8244 24.2939C29.7929 24.2846 29.7598 24.2816 29.7272 24.2852C29.6945 24.2887 29.6629 24.2986 29.6341 24.3143C29.6053 24.3301 29.5798 24.3513 29.5592 24.3769C29.5386 24.4024 29.5233 24.4318 29.514 24.4633C29.5048 24.4948 29.5018 24.5278 29.5053 24.5605C29.5089 24.5931 29.5188 24.6248 29.5345 24.6536C29.5502 24.6824 29.5715 24.7078 29.5971 24.7284L30.9481 25.8169L29.9418 26.8602C29.9185 26.8837 29.9002 26.9116 29.8878 26.9423C29.8754 26.973 29.8692 27.0058 29.8696 27.0389C29.8699 27.072 29.8769 27.1047 29.89 27.1351C29.9031 27.1655 29.9221 27.1929 29.946 27.2159C29.9698 27.2389 29.9979 27.2569 30.0288 27.2689C30.0596 27.281 30.0925 27.2867 30.1256 27.2859C30.1587 27.2851 30.1913 27.2778 30.2215 27.2643C30.2517 27.2508 30.2789 27.2314 30.3016 27.2073L31.3391 26.1319L32.7001 27.2284C32.7257 27.249 32.7551 27.2644 32.7866 27.2736C32.8181 27.2829 32.8511 27.2858 32.8837 27.2823C32.9164 27.2788 32.948 27.2689 32.9768 27.2532C33.0056 27.2374 33.0311 27.2162 33.0517 27.1906C33.0723 27.1651 33.0876 27.1357 33.0969 27.1042C33.1061 27.0727 33.1091 27.0397 33.1056 27.007C33.1021 26.9744 33.0922 26.9427 33.0764 26.9139C33.0607 26.8851 33.0394 26.8597 33.0139 26.8391H33.0137Z" fill="#FFA54F"/>
<path d="M43.25 26H42.25H37.25L37 24.5H43L43.25 26Z" fill="#00D498"/>
<path d="M20.25 28H13.75L13 23H19.5L20.25 28Z" fill="#FFA54F"/>
<path d="M43.5 32H38L37.375 28H42.875L43.5 32Z" fill="#FFA54F"/>
<path d="M19.125 34H13.625L13 30H18.5L19.125 34Z" fill="#00D498"/>
<path d="M39.75 29.25H38.5C38.4337 29.25 38.3701 29.2237 38.3232 29.1768C38.2763 29.1299 38.25 29.0663 38.25 29C38.25 28.9337 38.2763 28.8701 38.3232 28.8232C38.3701 28.7763 38.4337 28.75 38.5 28.75H39.75C39.8163 28.75 39.8799 28.7763 39.9268 28.8232C39.9737 28.8701 40 28.9337 40 29C40 29.0663 39.9737 29.1299 39.9268 29.1768C39.8799 29.2237 39.8163 29.25 39.75 29.25Z" fill="#F07F35"/>
<path d="M41.75 30.25H38.75C38.6837 30.25 38.6201 30.2237 38.5732 30.1768C38.5263 30.1299 38.5 30.0663 38.5 30C38.5 29.9337 38.5263 29.8701 38.5732 29.8232C38.6201 29.7763 38.6837 29.75 38.75 29.75H41.75C41.8163 29.75 41.8799 29.7763 41.9268 29.8232C41.9737 29.8701 42 29.9337 42 30C42 30.0663 41.9737 30.1299 41.9268 30.1768C41.8799 30.2237 41.8163 30.25 41.75 30.25Z" fill="#F07F35"/>
<path d="M42.3187 31.2432H38.9922C38.9259 31.2432 38.8623 31.2168 38.8154 31.1699C38.7685 31.1231 38.7422 31.0595 38.7422 30.9932C38.7422 30.9269 38.7685 30.8633 38.8154 30.8164C38.8623 30.7695 38.9259 30.7432 38.9922 30.7432H42.3187C42.3851 30.7432 42.4486 30.7695 42.4955 30.8164C42.5424 30.8633 42.5687 30.9269 42.5687 30.9932C42.5687 31.0595 42.5424 31.1231 42.4955 31.1699C42.4486 31.2168 42.3851 31.2432 42.3187 31.2432Z" fill="#F07F35"/>
<path d="M15.375 31.25H14.125C14.0587 31.25 13.9951 31.2237 13.9482 31.1768C13.9013 31.1299 13.875 31.0663 13.875 31C13.875 30.9337 13.9013 30.8701 13.9482 30.8232C13.9951 30.7763 14.0587 30.75 14.125 30.75H15.375C15.4413 30.75 15.5049 30.7763 15.5518 30.8232C15.5987 30.8701 15.625 30.9337 15.625 31C15.625 31.0663 15.5987 31.1299 15.5518 31.1768C15.5049 31.2237 15.4413 31.25 15.375 31.25Z" fill="#00B377"/>
<path d="M17.375 32.25H14.375C14.3087 32.25 14.2451 32.2237 14.1982 32.1768C14.1513 32.1299 14.125 32.0663 14.125 32C14.125 31.9337 14.1513 31.8701 14.1982 31.8232C14.2451 31.7763 14.3087 31.75 14.375 31.75H17.375C17.4413 31.75 17.5049 31.7763 17.5518 31.8232C17.5987 31.8701 17.625 31.9337 17.625 32C17.625 32.0663 17.5987 32.1299 17.5518 32.1768C17.5049 32.2237 17.4413 32.25 17.375 32.25Z" fill="#00B377"/>
<path d="M17.9437 33.2432H14.6172C14.5509 33.2432 14.4873 33.2168 14.4404 33.1699C14.3935 33.1231 14.3672 33.0595 14.3672 32.9932C14.3672 32.9269 14.3935 32.8633 14.4404 32.8164C14.4873 32.7695 14.5509 32.7432 14.6172 32.7432H17.9437C18.0101 32.7432 18.0736 32.7695 18.1205 32.8164C18.1674 32.8633 18.1937 32.9269 18.1937 32.9932C18.1937 33.0595 18.1674 33.1231 18.1205 33.1699C18.0736 33.2168 18.0101 33.2432 17.9437 33.2432Z" fill="#00B377"/>
<path d="M15.375 24.25H14.125C14.0587 24.25 13.9951 24.2237 13.9482 24.1768C13.9013 24.1299 13.875 24.0663 13.875 24C13.875 23.9337 13.9013 23.8701 13.9482 23.8232C13.9951 23.7763 14.0587 23.75 14.125 23.75H15.375C15.4413 23.75 15.5049 23.7763 15.5518 23.8232C15.5987 23.8701 15.625 23.9337 15.625 24C15.625 24.0663 15.5987 24.1299 15.5518 24.1768C15.5049 24.2237 15.4413 24.25 15.375 24.25Z" fill="#F07F35"/>
<path d="M17.5 24.25H16.25C16.1837 24.25 16.1201 24.2237 16.0732 24.1768C16.0263 24.1299 16 24.0663 16 24C16 23.9337 16.0263 23.8701 16.0732 23.8232C16.1201 23.7763 16.1837 23.75 16.25 23.75H17.5C17.5663 23.75 17.6299 23.7763 17.6768 23.8232C17.7237 23.8701 17.75 23.9337 17.75 24C17.75 24.0663 17.7237 24.1299 17.6768 24.1768C17.6299 24.2237 17.5663 24.25 17.5 24.25Z" fill="#F07F35"/>
<path d="M17.75 25.25H14.375C14.3087 25.25 14.2451 25.2237 14.1982 25.1768C14.1513 25.1299 14.125 25.0663 14.125 25C14.125 24.9337 14.1513 24.8701 14.1982 24.8232C14.2451 24.7763 14.3087 24.75 14.375 24.75H17.75C17.8163 24.75 17.8799 24.7763 17.9268 24.8232C17.9737 24.8701 18 24.9337 18 25C18 25.0663 17.9737 25.1299 17.9268 25.1768C17.8799 25.2237 17.8163 25.25 17.75 25.25Z" fill="#F07F35"/>
<path d="M17.9437 26.2432H14.6172C14.5509 26.2432 14.4873 26.2168 14.4404 26.1699C14.3935 26.1231 14.3672 26.0595 14.3672 25.9932C14.3672 25.9269 14.3935 25.8633 14.4404 25.8164C14.4873 25.7695 14.5509 25.7432 14.6172 25.7432H17.9437C18.0101 25.7432 18.0736 25.7695 18.1205 25.8164C18.1674 25.8633 18.1937 25.9269 18.1937 25.9932C18.1937 26.0595 18.1674 26.1231 18.1205 26.1699C18.0736 26.2168 18.0101 26.2432 17.9437 26.2432Z" fill="#F07F35"/>
<path d="M16.9994 27.25H14.8672C14.8009 27.25 14.7373 27.2237 14.6904 27.1768C14.6435 27.1299 14.6172 27.0663 14.6172 27C14.6172 26.9337 14.6435 26.8701 14.6904 26.8232C14.7373 26.7763 14.8009 26.75 14.8672 26.75H16.9994C17.0657 26.75 17.1293 26.7763 17.1761 26.8232C17.223 26.8701 17.2494 26.9337 17.2494 27C17.2494 27.0663 17.223 27.1299 17.1761 27.1768C17.1293 27.2237 17.0657 27.25 16.9994 27.25Z" fill="#F07F35"/>
<path d="M18 20.4678C18.0001 20.4123 18.0186 20.3585 18.0526 20.3147C18.0866 20.271 18.1342 20.2398 18.1879 20.226C18.3237 20.1909 18.4469 20.1183 18.5436 20.0167C18.6402 19.915 18.7064 19.7883 18.7346 19.651C18.7629 19.5136 18.752 19.371 18.7033 19.2395C18.6546 19.108 18.57 18.9927 18.4591 18.9069C18.3482 18.821 18.2155 18.768 18.0759 18.7538C17.9364 18.7396 17.7957 18.7648 17.6698 18.8265C17.5438 18.8883 17.4377 18.9841 17.3635 19.1032C17.2893 19.2222 17.25 19.3596 17.25 19.4999H16.75C16.75 19.2662 16.8156 19.0371 16.9392 18.8388C17.0628 18.6405 17.2396 18.4807 17.4494 18.3778C17.6592 18.2749 17.8937 18.2328 18.1262 18.2564C18.3587 18.28 18.58 18.3683 18.7648 18.5113C18.9497 18.6543 19.0908 18.8463 19.172 19.0654C19.2533 19.2845 19.2715 19.522 19.2245 19.751C19.1776 19.98 19.0674 20.1912 18.9065 20.3607C18.7456 20.5301 18.5404 20.6511 18.3142 20.7099C18.2771 20.7196 18.2384 20.7207 18.2008 20.713C18.1633 20.7054 18.128 20.6893 18.0977 20.6659C18.0673 20.6426 18.0428 20.6125 18.0258 20.5782C18.0089 20.5438 18.0001 20.5061 18 20.4678V20.4678Z" fill="#FFA54F"/>
<path d="M21 20.4678C21.0001 20.4123 21.0186 20.3585 21.0526 20.3147C21.0866 20.271 21.1342 20.2398 21.1879 20.226C21.3237 20.1909 21.4469 20.1183 21.5436 20.0167C21.6402 19.915 21.7064 19.7883 21.7346 19.651C21.7629 19.5136 21.752 19.371 21.7033 19.2395C21.6546 19.108 21.57 18.9927 21.4591 18.9069C21.3482 18.821 21.2155 18.768 21.0759 18.7538C20.9364 18.7396 20.7957 18.7648 20.6698 18.8265C20.5438 18.8883 20.4377 18.9841 20.3635 19.1032C20.2893 19.2222 20.25 19.3596 20.25 19.4999H19.75C19.75 19.2662 19.8156 19.0371 19.9392 18.8388C20.0628 18.6405 20.2396 18.4807 20.4494 18.3778C20.6592 18.2749 20.8937 18.2328 21.1262 18.2564C21.3587 18.28 21.58 18.3683 21.7648 18.5113C21.9497 18.6543 22.0908 18.8463 22.172 19.0654C22.2533 19.2845 22.2715 19.522 22.2245 19.751C22.1776 19.98 22.0674 20.1912 21.9065 20.3607C21.7456 20.5301 21.5404 20.6511 21.3142 20.7099C21.2771 20.7196 21.2384 20.7207 21.2008 20.713C21.1633 20.7054 21.128 20.6893 21.0977 20.6659C21.0673 20.6426 21.0428 20.6125 21.0258 20.5782C21.0089 20.5438 21.0001 20.5061 21 20.4678V20.4678Z" fill="#FFA54F"/>
<path d="M24 20.4678C24.0001 20.4123 24.0186 20.3585 24.0526 20.3147C24.0866 20.271 24.1342 20.2398 24.1879 20.226C24.3237 20.1909 24.4469 20.1183 24.5436 20.0167C24.6402 19.915 24.7064 19.7883 24.7346 19.651C24.7629 19.5136 24.752 19.371 24.7033 19.2395C24.6546 19.108 24.57 18.9927 24.4591 18.9069C24.3482 18.821 24.2155 18.768 24.0759 18.7538C23.9364 18.7396 23.7957 18.7648 23.6698 18.8265C23.5438 18.8883 23.4377 18.9841 23.3635 19.1032C23.2893 19.2222 23.25 19.3596 23.25 19.4999H22.75C22.75 19.2662 22.8156 19.0371 22.9392 18.8388C23.0628 18.6405 23.2396 18.4807 23.4494 18.3778C23.6592 18.2749 23.8937 18.2328 24.1262 18.2564C24.3587 18.28 24.58 18.3683 24.7648 18.5113C24.9497 18.6543 25.0908 18.8463 25.172 19.0654C25.2533 19.2845 25.2715 19.522 25.2245 19.751C25.1776 19.98 25.0674 20.1912 24.9065 20.3607C24.7456 20.5301 24.5404 20.6511 24.3142 20.7099C24.2771 20.7196 24.2384 20.7207 24.2008 20.713C24.1633 20.7054 24.128 20.6893 24.0977 20.6659C24.0673 20.6426 24.0428 20.6125 24.0258 20.5782C24.0089 20.5438 24.0001 20.5061 24 20.4678V20.4678Z" fill="#FFA54F"/>
<path d="M31 20.4678C31.0001 20.4123 31.0186 20.3585 31.0526 20.3147C31.0866 20.271 31.1342 20.2398 31.1879 20.226C31.3237 20.1909 31.4469 20.1183 31.5436 20.0167C31.6402 19.915 31.7064 19.7883 31.7346 19.651C31.7629 19.5136 31.752 19.371 31.7033 19.2395C31.6546 19.108 31.57 18.9927 31.4591 18.9069C31.3482 18.821 31.2155 18.768 31.0759 18.7538C30.9364 18.7396 30.7957 18.7648 30.6697 18.8265C30.5438 18.8883 30.4377 18.9841 30.3635 19.1032C30.2893 19.2222 30.25 19.3596 30.25 19.4999H29.75C29.75 19.2662 29.8156 19.0371 29.9392 18.8388C30.0628 18.6405 30.2396 18.4807 30.4494 18.3778C30.6592 18.2749 30.8937 18.2328 31.1262 18.2564C31.3587 18.28 31.58 18.3683 31.7648 18.5113C31.9497 18.6543 32.0907 18.8463 32.172 19.0654C32.2533 19.2845 32.2715 19.522 32.2245 19.751C32.1776 19.98 32.0674 20.1912 31.9065 20.3607C31.7456 20.5301 31.5404 20.6511 31.3142 20.7099C31.2771 20.7196 31.2384 20.7207 31.2008 20.713C31.1633 20.7054 31.128 20.6893 31.0977 20.6659C31.0673 20.6426 31.0427 20.6125 31.0258 20.5782C31.0089 20.5438 31.0001 20.5061 31 20.4678V20.4678Z" fill="#FFA54F"/>
<path d="M34 20.4678C34.0001 20.4123 34.0186 20.3585 34.0526 20.3147C34.0866 20.271 34.1342 20.2398 34.1879 20.226C34.3237 20.1909 34.4469 20.1183 34.5436 20.0167C34.6402 19.915 34.7064 19.7883 34.7346 19.651C34.7629 19.5136 34.752 19.371 34.7033 19.2395C34.6546 19.108 34.57 18.9927 34.4591 18.9069C34.3482 18.821 34.2155 18.768 34.0759 18.7538C33.9364 18.7396 33.7957 18.7648 33.6697 18.8265C33.5438 18.8883 33.4377 18.9841 33.3635 19.1032C33.2893 19.2222 33.25 19.3596 33.25 19.4999H32.75C32.75 19.2662 32.8156 19.0371 32.9392 18.8388C33.0628 18.6405 33.2396 18.4807 33.4494 18.3778C33.6592 18.2749 33.8937 18.2328 34.1262 18.2564C34.3587 18.28 34.58 18.3683 34.7648 18.5113C34.9497 18.6543 35.0907 18.8463 35.172 19.0654C35.2533 19.2845 35.2715 19.522 35.2245 19.751C35.1776 19.98 35.0674 20.1912 34.9065 20.3607C34.7456 20.5301 34.5404 20.6511 34.3142 20.7099C34.2771 20.7196 34.2384 20.7207 34.2008 20.713C34.1633 20.7054 34.128 20.6893 34.0977 20.6659C34.0673 20.6426 34.0427 20.6125 34.0258 20.5782C34.0089 20.5438 34.0001 20.5061 34 20.4678V20.4678Z" fill="#FFA54F"/>
<path d="M37 20.4678C37.0001 20.4123 37.0186 20.3585 37.0526 20.3147C37.0866 20.271 37.1342 20.2398 37.1879 20.226C37.3237 20.1909 37.4469 20.1183 37.5436 20.0167C37.6402 19.915 37.7064 19.7883 37.7346 19.651C37.7629 19.5136 37.752 19.371 37.7033 19.2395C37.6546 19.108 37.57 18.9927 37.4591 18.9069C37.3482 18.821 37.2155 18.768 37.0759 18.7538C36.9364 18.7396 36.7957 18.7648 36.6697 18.8265C36.5438 18.8883 36.4377 18.9841 36.3635 19.1032C36.2893 19.2222 36.25 19.3596 36.25 19.4999H35.75C35.75 19.2662 35.8156 19.0371 35.9392 18.8388C36.0628 18.6405 36.2396 18.4807 36.4494 18.3778C36.6592 18.2749 36.8937 18.2328 37.1262 18.2564C37.3587 18.28 37.58 18.3683 37.7648 18.5113C37.9497 18.6543 38.0907 18.8463 38.172 19.0654C38.2533 19.2845 38.2715 19.522 38.2245 19.751C38.1776 19.98 38.0674 20.1912 37.9065 20.3607C37.7456 20.5301 37.5404 20.6511 37.3142 20.7099C37.2771 20.7196 37.2384 20.7207 37.2008 20.713C37.1633 20.7054 37.128 20.6893 37.0977 20.6659C37.0673 20.6426 37.0427 20.6125 37.0258 20.5782C37.0089 20.5438 37.0001 20.5061 37 20.4678V20.4678Z" fill="#FFA54F"/>
</svg>
