<svg width="57" height="56" viewBox="0 0 57 56" fill="none" xmlns="http://www.w3.org/2000/svg">
<circle cx="28.5" cy="28" r="28" fill="white"/>
<g clip-path="url(#clip0_2797_54011)">
<path d="M39.8137 16.6863C36.7917 13.6643 32.7738 12 28.5 12C24.2262 12 20.2083 13.6643 17.1863 16.6863C14.1643 19.7083 12.5 23.7262 12.5 28C12.5 32.2738 14.1643 36.2917 17.1863 39.3137C20.2082 42.3357 24.2262 44 28.4999 44C32.7737 44 36.7917 42.3357 39.8136 39.3137C42.8356 36.2917 44.4999 32.2738 44.4999 28C44.4999 23.7262 42.8357 19.7083 39.8137 16.6863Z" fill="#FF415B"/>
<path d="M39.8137 16.6863C36.7917 13.6643 32.7738 12 28.5 12V44C32.7738 44 36.7917 42.3357 39.8137 39.3137C42.8357 36.2917 44.4999 32.2738 44.4999 28C44.4999 23.7262 42.8357 19.7083 39.8137 16.6863Z" fill="#DB0F19"/>
<path d="M28.4994 38.1511C34.106 38.1511 38.6511 33.606 38.6511 27.9994C38.6511 22.3927 34.106 17.8477 28.4994 17.8477C22.8927 17.8477 18.3477 22.3927 18.3477 27.9994C18.3477 33.606 22.8927 38.1511 28.4994 38.1511Z" fill="white"/>
<path d="M28.5 17.8477V38.1511C34.0977 38.1511 38.6517 33.5971 38.6517 27.9994C38.6517 22.4017 34.0977 17.8477 28.5 17.8477Z" fill="#E6F6FF"/>
<path d="M28.5002 32.4829C30.9759 32.4829 32.9829 30.4759 32.9829 28.0002C32.9829 25.5245 30.9759 23.5176 28.5002 23.5176C26.0245 23.5176 24.0176 25.5245 24.0176 28.0002C24.0176 30.4759 26.0245 32.4829 28.5002 32.4829Z" fill="#FF415B"/>
<path d="M28.5 23.5176V32.4828C30.9717 32.4828 32.9827 30.472 32.9827 28.0002C32.9826 25.5285 30.9717 23.5176 28.5 23.5176Z" fill="#DB0F19"/>
<path d="M40.1218 16.3797L39.4014 12.7773L34.4766 17.7021L35.197 21.3045L38.7993 22.025L43.7241 17.1001L40.1218 16.3797Z" fill="#FFD321"/>
<path d="M40.1218 16.3797L39.4014 12.7773L34.4766 17.7021L35.197 21.3045L38.7993 22.025L43.7241 17.1001L40.1218 16.3797Z" fill="#FFAF00"/>
<path d="M28.5059 26.668L34.9718 20.2021L36.2973 21.5276L29.8314 27.9935L28.5059 26.668Z" fill="#3E5959"/>
<path d="M28.5059 26.668L34.9718 20.2021L36.2973 21.5276L29.8314 27.9935L28.5059 26.668Z" fill="#293939"/>
</g>
<defs>
<clipPath id="clip0_2797_54011">
<rect width="32" height="32" fill="white" transform="translate(12.5 12)"/>
</clipPath>
</defs>
</svg>
