<svg width="16" height="12" viewBox="0 0 16 12" fill="none" xmlns="http://www.w3.org/2000/svg">
<path fill-rule="evenodd" clip-rule="evenodd" d="M10.7716 3.48889C10.7716 5.05535 9.52277 6.31139 7.96537 6.31139C6.40796 6.31139 5.15918 5.05535 5.15918 3.48889C5.15918 1.92184 6.40796 0.666992 7.96537 0.666992C9.52277 0.666992 10.7716 1.92184 10.7716 3.48889ZM7.96537 11.3337C5.67791 11.3337 3.72474 10.971 3.72474 9.52044C3.72474 8.06926 5.66538 7.69341 7.96537 7.69341C10.2528 7.69341 12.206 8.05605 12.206 9.50723C12.206 10.9578 10.2654 11.3337 7.96537 11.3337ZM11.9707 3.53981C11.9707 4.33835 11.7326 5.08225 11.3147 5.70066C11.2717 5.76431 11.3099 5.85016 11.3857 5.86337C11.4902 5.88138 11.5983 5.89159 11.7081 5.89459C12.8035 5.92341 13.7866 5.21433 14.0582 4.14682C14.4606 2.56115 13.2792 1.13759 11.7749 1.13759C11.6114 1.13759 11.455 1.155 11.3028 1.18622C11.2819 1.19103 11.2598 1.20063 11.2479 1.21924C11.2335 1.24206 11.2443 1.27268 11.2586 1.29249C11.7105 1.92952 11.9707 2.70645 11.9707 3.53981ZM13.7848 7.00871C14.5209 7.1534 15.005 7.4488 15.2055 7.87809C15.3751 8.23053 15.3751 8.6394 15.2055 8.99124C14.8987 9.65709 13.9096 9.87083 13.5252 9.92607C13.4458 9.93808 13.3819 9.86903 13.3903 9.78918C13.5866 7.94413 12.0245 7.06935 11.6203 6.86821C11.603 6.8592 11.5995 6.8454 11.6012 6.83699C11.6024 6.83099 11.6096 6.82138 11.6227 6.81958C12.4972 6.80337 13.4374 6.92345 13.7848 7.00871ZM4.29075 5.89453C4.40059 5.89153 4.50804 5.88193 4.6131 5.86331C4.68891 5.8501 4.72711 5.76425 4.68413 5.7006C4.26628 5.08219 4.0281 4.33829 4.0281 3.53975C4.0281 2.70639 4.28837 1.92946 4.74025 1.29243C4.75457 1.27262 4.76472 1.242 4.75099 1.21918C4.73905 1.20117 4.71637 1.19096 4.69607 1.18616C4.54326 1.15494 4.38686 1.13753 4.2233 1.13753C2.71902 1.13753 1.53769 2.56109 1.94062 4.14676C2.21223 5.21428 3.19538 5.92335 4.29075 5.89453ZM4.39731 6.83663C4.3991 6.84564 4.39552 6.85884 4.3788 6.86845C3.97408 7.06959 2.4119 7.94438 2.60829 9.78882C2.61665 9.86927 2.55338 9.93772 2.47398 9.92631C2.08956 9.87107 1.10044 9.65733 0.793611 8.99148C0.623484 8.63904 0.623484 8.23077 0.793611 7.87833C0.994181 7.44904 1.4777 7.15364 2.21372 7.00835C2.56173 6.92369 3.50131 6.80361 4.37642 6.81982C4.38955 6.82162 4.39611 6.83123 4.39731 6.83663Z" fill="#A2AEBD"/>
</svg>
