<svg width="56" height="56" viewBox="0 0 56 56" fill="none" xmlns="http://www.w3.org/2000/svg">
<path d="M0 18C0 8.05888 8.05887 0 18 0H38C47.9411 0 56 8.05887 56 18V38C56 47.9411 47.9411 56 38 56H18C8.05888 56 0 47.9411 0 38V18Z" fill="#FFC22D"/>
<path fill-rule="evenodd" clip-rule="evenodd" d="M16.3954 12.4448H21.6532C23.8466 12.4448 25.6043 14.2337 25.6043 16.4286V21.7315C25.6043 23.9404 23.8466 25.7137 21.6532 25.7137H16.3954C14.2177 25.7137 12.4443 23.9404 12.4443 21.7315V16.4286C12.4443 14.2337 14.2177 12.4448 16.3954 12.4448ZM16.3954 30.2866H21.6532C23.8466 30.2866 25.6043 32.0615 25.6043 34.2704V39.5732C25.6043 41.7666 23.8466 43.5555 21.6532 43.5555H16.3954C14.2177 43.5555 12.4443 41.7666 12.4443 39.5732V34.2704C12.4443 32.0615 14.2177 30.2866 16.3954 30.2866ZM39.6045 12.4448H34.3467C32.1534 12.4448 30.3956 14.2337 30.3956 16.4286V21.7315C30.3956 23.9404 32.1534 25.7137 34.3467 25.7137H39.6045C41.7823 25.7137 43.5556 23.9404 43.5556 21.7315V16.4286C43.5556 14.2337 41.7823 12.4448 39.6045 12.4448ZM34.3467 30.2866H39.6045C41.7823 30.2866 43.5556 32.0615 43.5556 34.2704V39.5732C43.5556 41.7666 41.7823 43.5555 39.6045 43.5555H34.3467C32.1534 43.5555 30.3956 41.7666 30.3956 39.5732V34.2704C30.3956 32.0615 32.1534 30.2866 34.3467 30.2866Z" fill="white"/>
</svg>
