<svg width="32" height="32" viewBox="0 0 32 32" fill="none" xmlns="http://www.w3.org/2000/svg">
<path d="M12.5897 3.69239V7.11119C12.5897 7.38321 12.4817 7.64409 12.2893 7.83643C12.097 8.02878 11.8361 8.13683 11.5641 8.13683C11.2921 8.13683 11.0312 8.02878 10.8388 7.83643C10.6465 7.64409 10.5384 7.38321 10.5384 7.11119V3.69239C10.5384 3.42037 10.6465 3.1595 10.8388 2.96715C11.0312 2.77481 11.2921 2.66675 11.5641 2.66675C11.8361 2.66675 12.097 2.77481 12.2893 2.96715C12.4817 3.1595 12.5897 3.42037 12.5897 3.69239Z" fill="white"/>
<path d="M28.535 7.86333C28.4712 6.98267 28.0916 6.15465 27.466 5.53156C26.8403 4.90846 26.0108 4.53217 25.1299 4.47188C24.241 4.4035 23.229 4.33512 22.1624 4.28042V7.11119C22.1624 7.7459 21.9102 8.35461 21.4614 8.80341C21.0126 9.25222 20.4039 9.50436 19.7692 9.50436C19.1345 9.50436 18.5258 9.25222 18.077 8.80341C17.6282 8.35461 17.376 7.7459 17.376 7.11119V4.03427H13.9572V7.11119C13.9572 7.7459 13.7051 8.35461 13.2563 8.80341C12.8075 9.25222 12.1988 9.50436 11.5641 9.50436C10.9294 9.50436 10.3207 9.25222 9.87186 8.80341C9.42306 8.35461 9.17092 7.7459 9.17092 7.11119V4.28042C8.10425 4.28042 7.09229 4.4035 6.18972 4.47188C5.30979 4.53495 4.48183 4.91214 3.85678 5.53468C3.23172 6.15722 2.85121 6.98366 2.7846 7.86333C2.57947 10.3932 2.33331 13.9762 2.33331 16.6838C2.33331 19.3915 2.57947 22.9881 2.7846 25.518C2.85157 26.3963 3.23259 27.221 3.8579 27.8413C4.4832 28.4616 5.31098 28.8359 6.18972 28.8958C8.92477 29.1009 12.7812 29.3334 15.6666 29.3334C18.5521 29.3334 22.3949 29.1009 25.1299 28.8958C26.0096 28.8387 26.839 28.4653 27.4648 27.8444C28.0907 27.2236 28.4708 26.3973 28.535 25.518C28.7538 22.9881 29 19.4052 29 16.6838C29 13.9625 28.7538 10.3932 28.535 7.86333ZM10.1966 21.5385C9.83387 21.5385 9.48604 21.3945 9.22958 21.138C8.97312 20.8815 8.82904 20.5337 8.82904 20.171C8.82904 19.8083 8.97312 19.4605 9.22958 19.204C9.48604 18.9476 9.83387 18.8035 10.1966 18.8035C10.5592 18.8035 10.9071 18.9476 11.1635 19.204C11.42 19.4605 11.5641 19.8083 11.5641 20.171C11.5641 20.5337 11.42 20.8815 11.1635 21.138C10.9071 21.3945 10.5592 21.5385 10.1966 21.5385ZM10.1966 16.0685C9.83387 16.0685 9.48604 15.9244 9.22958 15.6679C8.97312 15.4115 8.82904 15.0636 8.82904 14.7009C8.82904 14.3382 8.97312 13.9904 9.22958 13.734C9.48604 13.4775 9.83387 13.3334 10.1966 13.3334C10.5592 13.3334 10.9071 13.4775 11.1635 13.734C11.42 13.9904 11.5641 14.3382 11.5641 14.7009C11.5641 15.0636 11.42 15.4115 11.1635 15.6679C10.9071 15.9244 10.5592 16.0685 10.1966 16.0685ZM15.6666 21.5385C15.304 21.5385 14.9561 21.3945 14.6997 21.138C14.4432 20.8815 14.2991 20.5337 14.2991 20.171C14.2991 19.8083 14.4432 19.4605 14.6997 19.204C14.9561 18.9476 15.304 18.8035 15.6666 18.8035C16.0293 18.8035 16.3772 18.9476 16.6336 19.204C16.8901 19.4605 17.0342 19.8083 17.0342 20.171C17.0342 20.5337 16.8901 20.8815 16.6336 21.138C16.3772 21.3945 16.0293 21.5385 15.6666 21.5385ZM15.6666 16.0685C15.304 16.0685 14.9561 15.9244 14.6997 15.6679C14.4432 15.4115 14.2991 15.0636 14.2991 14.7009C14.2991 14.3382 14.4432 13.9904 14.6997 13.734C14.9561 13.4775 15.304 13.3334 15.6666 13.3334C16.0293 13.3334 16.3772 13.4775 16.6336 13.734C16.8901 13.9904 17.0342 14.3382 17.0342 14.7009C17.0342 15.0636 16.8901 15.4115 16.6336 15.6679C16.3772 15.9244 16.0293 16.0685 15.6666 16.0685ZM21.1367 16.0685C20.774 16.0685 20.4262 15.9244 20.1697 15.6679C19.9133 15.4115 19.7692 15.0636 19.7692 14.7009C19.7692 14.3382 19.9133 13.9904 20.1697 13.734C20.4262 13.4775 20.774 13.3334 21.1367 13.3334C21.4994 13.3334 21.8473 13.4775 22.1037 13.734C22.3602 13.9904 22.5043 14.3382 22.5043 14.7009C22.5043 15.0636 22.3602 15.4115 22.1037 15.6679C21.8473 15.9244 21.4994 16.0685 21.1367 16.0685Z" fill="white"/>
<path d="M20.7949 3.69239V7.11119C20.7949 7.38321 20.6868 7.64409 20.4944 7.83643C20.3021 8.02878 20.0412 8.13683 19.7692 8.13683C19.4972 8.13683 19.2363 8.02878 19.044 7.83643C18.8516 7.64409 18.7436 7.38321 18.7436 7.11119V3.69239C18.7436 3.42037 18.8516 3.1595 19.044 2.96715C19.2363 2.77481 19.4972 2.66675 19.7692 2.66675C20.0412 2.66675 20.3021 2.77481 20.4944 2.96715C20.6868 3.1595 20.7949 3.42037 20.7949 3.69239Z" fill="white"/>
</svg>
