<svg width="18" height="14" viewBox="0 0 18 14" fill="none" xmlns="http://www.w3.org/2000/svg">
<path fill-rule="evenodd" clip-rule="evenodd" d="M0.75 1.79096C0.75 1.05068 1.34755 0.453125 2.08784 0.453125C2.82812 0.453125 3.42567 1.05068 3.42567 1.79096C3.42567 2.53124 2.82812 3.1288 2.08784 3.1288C1.34755 3.1288 0.75 2.53124 0.75 1.79096ZM0.75 7.14222C0.75 6.40194 1.34755 5.80438 2.08784 5.80438C2.82812 5.80438 3.42567 6.40194 3.42567 7.14222C3.42567 7.88251 2.82812 8.48006 2.08784 8.48006C1.34755 8.48006 0.75 7.88251 0.75 7.14222ZM2.08784 11.1558C1.34312 11.1558 0.75 11.7578 0.75 12.4937C0.75 13.2295 1.35203 13.8315 2.08784 13.8315C2.82365 13.8315 3.42567 13.2295 3.42567 12.4937C3.42567 11.7578 2.83255 11.1558 2.08784 11.1558ZM4.76349 11.6019H17.25V13.3857H4.76349V11.6019ZM17.25 0.89917H4.76349V2.68297H17.25V0.89917ZM4.76349 6.25043H17.25V8.03422H4.76349V6.25043Z" fill="white"/>
</svg>
