<svg width="20" height="16" viewBox="0 0 20 16" fill="none" xmlns="http://www.w3.org/2000/svg">
<path d="M6.93878 4.78981C7.14286 4.78981 7.34694 4.6879 7.44898 4.58599L9.18367 2.8535V9.07006C9.18367 9.47771 9.4898 9.88535 10 9.88535C10.5102 9.88535 10.8163 9.57962 10.8163 9.07006V2.75159L12.551 4.48408C12.7551 4.58599 12.8571 4.6879 13.0612 4.6879C13.2653 4.6879 13.4694 4.58599 13.5714 4.48408C13.8776 4.17834 13.8776 3.66879 13.5714 3.36306L10.5102 0.305733C10.4082 0.203822 10.3061 0.203822 10.3061 0.101911C10.2041 0.101911 10.102 0 10 0C9.89796 0 9.79592 -9.87083e-08 9.69388 0.101911C9.59184 0.101911 9.4898 0.203822 9.4898 0.305733L6.42857 3.36306C6.12245 3.66879 6.12245 4.17834 6.42857 4.48408C6.53061 4.6879 6.73469 4.78981 6.93878 4.78981Z" fill="#7966FF"/>
<path d="M19.1837 8.25478H13.9796L11.6327 10.5987C11.4286 10.8025 11.1224 11.0064 10.9184 11.1083C10.6122 11.2102 10.3061 11.3121 10 11.3121C9.69388 11.3121 9.38776 11.2102 9.08163 11.1083C8.77551 11.0064 8.57143 10.8025 8.36735 10.5987L6.02041 8.25478H0.816327C0.408163 8.25478 0 8.56051 0 9.07006V12.8408C0 14.2675 1.12245 15.4904 2.55102 15.5924C4.69388 15.7962 7.65306 16 10 16C12.3469 16 15.3061 15.7962 17.449 15.5924C18.8776 15.4904 20 14.2675 20 12.8408V9.07006C20 8.76433 19.5918 8.25478 19.1837 8.25478Z" fill="#7966FF"/>
</svg>
