<svg width="30" height="20" viewBox="0 0 30 20" fill="none" xmlns="http://www.w3.org/2000/svg">
<path fill-rule="evenodd" clip-rule="evenodd" d="M1.58683 0.666664H23.0802C23.7724 0.666664 24.3335 1.2278 24.3335 1.92V2.08C24.3335 2.77219 23.7724 3.33333 23.0802 3.33333H1.58683C0.894633 3.33333 0.333496 2.77219 0.333496 2.08V1.92C0.333496 1.2278 0.894633 0.666664 1.58683 0.666664ZM28.3276 8.6667C27.9777 8.66428 27.6404 8.7862 27.387 9.00674H27.3888C27.376 9.01818 27.364 9.03026 27.3528 9.04292L21.1042 16.3196L17.3367 12.8777C17.2132 12.7566 17.0642 12.6594 16.8987 12.592C16.7332 12.5246 16.5545 12.4883 16.3733 12.4854C16.1921 12.4825 16.0122 12.5129 15.8441 12.575C15.6761 12.637 15.5235 12.7293 15.3953 12.8464C15.2672 12.9636 15.1662 13.1031 15.0983 13.2566C15.0305 13.4102 14.9971 13.5747 15.0003 13.7403C15.0035 13.9059 15.0432 14.0692 15.1169 14.2205C15.1907 14.3718 15.297 14.5079 15.4296 14.6209L20.1902 18.972C20.3185 19.0893 20.4713 19.1817 20.6396 19.2438C20.8078 19.3058 20.9881 19.3362 21.1694 19.3331C21.3508 19.3301 21.5297 19.2936 21.6953 19.2259C21.8609 19.1582 22.0099 19.0607 22.1334 18.9392L29.3121 10.7334C29.5486 10.4976 29.6756 10.1871 29.6663 9.8674C29.6571 9.54767 29.5123 9.24373 29.2625 9.01971C29.0128 8.79569 28.6775 8.66912 28.3276 8.6667ZM11.0802 8.66666H1.58683C0.894633 8.66666 0.333496 9.2278 0.333496 9.92V10.08C0.333496 10.7722 0.894633 11.3333 1.58683 11.3333H11.0802C11.7724 11.3333 12.3335 10.7722 12.3335 10.08V9.92C12.3335 9.2278 11.7724 8.66666 11.0802 8.66666ZM1.58683 16.6667H11.0802C11.7724 16.6667 12.3335 17.2278 12.3335 17.92V18.08C12.3335 18.7722 11.7724 19.3333 11.0802 19.3333H1.58683C0.894633 19.3333 0.333496 18.7722 0.333496 18.08V17.92C0.333496 17.2278 0.894633 16.6667 1.58683 16.6667Z" fill="#A2AEBD"/>
</svg>
