<svg width="100" height="100" viewBox="0 0 100 100" fill="none" xmlns="http://www.w3.org/2000/svg">
<circle opacity="0.1" cx="50" cy="50" r="50" fill="#7966FF"/>
<path fill-rule="evenodd" clip-rule="evenodd" d="M50.4071 57.5055H49.5911C43.9832 57.5055 39.4377 53.0168 39.4377 47.4812V36.6935C39.4377 31.1557 43.9832 26.667 49.5911 26.667H50.4071C55.0611 26.667 58.9828 29.7562 60.1831 33.9726C60.3481 34.5507 59.9118 35.1244 59.3061 35.1244H56.6637C55.8658 35.1244 55.2171 35.7627 55.2171 36.5507V36.5529C55.2171 37.3431 55.8658 37.9814 56.6637 37.9814H59.1004C59.9073 37.9814 60.5628 38.6265 60.5628 39.4234C60.5628 40.2202 59.9073 40.8653 59.1004 40.8653H56.6637C55.8658 40.8653 55.2171 41.5059 55.2171 42.2961C55.2171 43.084 55.8658 43.7246 56.6637 43.7246H59.1004C59.9073 43.7246 60.5628 44.3697 60.5628 45.1688C60.5628 45.9634 59.9073 46.6084 59.1004 46.6084H56.6637C55.8658 46.6084 55.2171 47.2491 55.2171 48.0392C55.2171 48.8271 55.8658 49.4655 56.6637 49.4655H59.1772C59.7966 49.4655 60.2396 50.0637 60.0452 50.6441C58.7048 54.6306 54.8984 57.5055 50.4071 57.5055ZM65.312 47.1602C65.312 45.9259 66.3246 44.9281 67.5724 44.9281C68.8201 44.9281 69.8327 45.9259 69.8327 47.1602C69.8327 57.2024 62.134 65.4946 52.2608 66.6084V71.1016C52.2608 72.3337 51.2482 73.3337 50.0005 73.3337C48.7505 73.3337 47.7401 72.3337 47.7401 71.1016V66.6084C37.8647 65.4946 30.166 57.2024 30.166 47.1602C30.166 45.9259 31.1786 44.9281 32.4264 44.9281C33.6741 44.9281 34.6867 45.9259 34.6867 47.1602C34.6867 55.4971 41.5559 62.2804 50.0005 62.2804C58.4428 62.2804 65.312 55.4971 65.312 47.1602Z" fill="#7966FF"/>
</svg>
