<svg width="20" height="20" viewBox="0 0 20 20" fill="none" xmlns="http://www.w3.org/2000/svg">
<path d="M9.796 0.0139999L10 0C10.3625 1.52858e-05 10.7127 0.131285 10.9859 0.369534C11.259 0.607783 11.4367 0.936893 11.486 1.296L11.5 1.5V8.5H18.5C18.8625 8.50002 19.2127 8.63129 19.4859 8.86953C19.759 9.10778 19.9367 9.43689 19.986 9.796L20 10C20 10.3625 19.8687 10.7127 19.6305 10.9859C19.3922 11.259 19.0631 11.4367 18.704 11.486L18.5 11.5H11.5V18.5C11.5 18.8625 11.3687 19.2127 11.1305 19.4859C10.8922 19.759 10.5631 19.9367 10.204 19.986L10 20C9.63752 20 9.28732 19.8687 9.01414 19.6305C8.74096 19.3922 8.5633 19.0631 8.514 18.704L8.5 18.5V11.5H1.5C1.13752 11.5 0.787316 11.3687 0.514139 11.1305C0.240961 10.8922 0.0632966 10.5631 0.0139999 10.204L0 10C1.52858e-05 9.63752 0.131285 9.28732 0.369534 9.01414C0.607783 8.74096 0.936893 8.5633 1.296 8.514L1.5 8.5H8.5V1.5C8.50002 1.13752 8.63129 0.787316 8.86953 0.514139C9.10778 0.240961 9.43689 0.0632966 9.796 0.0139999L10 0L9.796 0.0139999Z" fill="white"/>
</svg>
