<svg width="32" height="32" viewBox="0 0 32 32" fill="none" xmlns="http://www.w3.org/2000/svg">
<path d="M16 32C24.8366 32 32 24.8366 32 16C32 7.16344 24.8366 0 16 0C7.16344 0 0 7.16344 0 16C0 24.8366 7.16344 32 16 32Z" fill="#02C5DD"/>
<path fill-rule="evenodd" clip-rule="evenodd" d="M11.0935 9.75H15.9203C17.9386 9.75 19.3478 11.1409 19.3478 13.1341V18.8659C19.3478 20.8591 17.9386 22.25 15.9203 22.25H11.0935C9.0752 22.25 7.66602 20.8591 7.66602 18.8659V13.1341C7.66602 11.1409 9.0752 9.75 11.0935 9.75ZM22.631 11.7325C22.9968 11.5464 23.426 11.5658 23.7752 11.7858C24.1243 12.0049 24.3327 12.3856 24.3327 12.8019V19.1986C24.3327 19.6157 24.1243 19.9956 23.7752 20.2147C23.5843 20.334 23.371 20.3949 23.156 20.3949C22.9768 20.3949 22.7977 20.3526 22.6302 20.2672L21.396 19.6445C20.9393 19.4127 20.656 18.9474 20.656 18.4305V13.5692C20.656 13.0514 20.9393 12.5861 21.396 12.356L22.631 11.7325Z" fill="white"/>
</svg>
