<svg width="16" height="18" viewBox="0 0 16 18" fill="none" xmlns="http://www.w3.org/2000/svg">
<path d="M13.8395 3.18435C12.3796 1.62185 10.2328 0.666992 8 0.666992C5.76725 0.666992 3.62037 1.53505 2.16049 3.18435C0.958241 4.57324 0.357115 6.30935 0.528865 8.04546C0.528865 8.39269 0.61474 8.73991 0.700615 9.00033C1.47349 12.6462 5.42375 15.858 7.14125 17.0732C7.39887 17.2469 7.6565 17.3337 8 17.3337C8.3435 17.3337 8.60113 17.2469 8.85875 17.0732C10.4904 15.858 14.5265 12.6462 15.2994 9.00033C15.3853 8.73991 15.3853 8.39269 15.4711 8.04546C15.6429 6.30935 15.0418 4.57324 13.8395 3.18435ZM8 10.6496C6.71187 10.6496 5.5955 9.60796 5.5955 8.21908C5.5955 6.83019 6.626 5.78852 8 5.78852C9.374 5.78852 10.4045 6.83019 10.4045 8.21908C10.4045 9.60796 9.28813 10.6496 8 10.6496Z" fill="#A2AEBD"/>
</svg>
