<svg width="24" height="24" viewBox="0 0 24 24" fill="none" xmlns="http://www.w3.org/2000/svg">
<g clip-path="url(#clip0_1795_37834)">
<path d="M12.0014 23.9999C18.6285 23.9999 24.0009 18.6276 24.0009 12.0004C24.0009 5.37332 18.6285 0.000976562 12.0014 0.000976562C5.3743 0.000976562 0.00195312 5.37332 0.00195312 12.0004C0.00195312 18.6276 5.3743 23.9999 12.0014 23.9999Z" fill="white"/>
<path d="M23.3144 7.99848C23.3131 7.99468 23.3119 7.99149 23.3106 7.98804C21.7748 3.65774 17.8244 0.471746 13.0781 0.0488281C14.9147 1.05568 15.4511 4.24568 15.921 7.99853C16.242 10.5619 16.2441 13.3864 15.9271 15.953C15.4611 19.7262 14.9225 22.9387 13.0782 23.9497C17.8332 23.526 21.7892 20.3291 23.319 15.9871C23.323 15.9755 23.3264 15.9642 23.3305 15.953C23.7625 14.7148 24.0003 13.3851 24.0003 11.9997C24.0001 10.596 23.757 9.25001 23.3144 7.99848Z" fill="#E12A28"/>
<path d="M16.5383 7.999C16.0686 4.2461 14.9143 1.05615 13.0776 0.049299C12.7223 0.0178348 12.3631 0 11.9997 0C6.77955 0 2.34021 3.33404 0.689477 7.98857C0.688159 7.99196 0.686994 7.9952 0.685677 7.999C0.2431 9.25053 0 10.5965 0 12.0001C0 13.3857 0.23778 14.7152 0.669767 15.9534C0.67377 15.9646 0.677367 15.976 0.681319 15.9875C2.32557 20.6541 6.77099 23.9997 11.9997 23.9997C12.3631 23.9997 12.7223 23.9819 13.0776 23.9501C14.9219 22.9391 16.0784 19.7265 16.5443 15.9534C16.8614 13.3867 16.8593 10.5624 16.5383 7.999Z" fill="#ED3432"/>
<path d="M11.8924 5.84961L13.3178 10.237H17.9313L14.1989 12.9481L15.6244 17.336L11.8924 14.6242L8.16018 17.336L9.5858 12.9481L5.85352 10.237H10.4668L11.8924 5.84961Z" fill="#FDCE0C"/>
</g>
<defs>
<clipPath id="clip0_1795_37834">
<rect width="24" height="24" fill="white"/>
</clipPath>
</defs>
</svg>
