<svg width="14" height="14" viewBox="0 0 14 14" fill="none" xmlns="http://www.w3.org/2000/svg">
<path d="M12.075 4.49167L5.65833 10.9083C5.54167 11.025 5.425 11.0833 5.25 11.0833C5.075 11.0833 4.95833 11.025 4.84167 10.9083L1.925 7.99167C1.69167 7.75833 1.69167 7.40833 1.925 7.175C2.15833 6.94167 2.50833 6.94167 2.74167 7.175L5.25 9.68333L11.2583 3.675C11.4917 3.44167 11.8417 3.44167 12.075 3.675C12.3083 3.90833 12.3083 4.25833 12.075 4.49167Z" fill="black"/>
<mask id="mask0" maskUnits="userSpaceOnUse" x="1" y="3" width="12" height="9">
<path d="M12.075 4.49167L5.65833 10.9083C5.54167 11.025 5.425 11.0833 5.25 11.0833C5.075 11.0833 4.95833 11.025 4.84167 10.9083L1.925 7.99167C1.69167 7.75833 1.69167 7.40833 1.925 7.175C2.15833 6.94167 2.50833 6.94167 2.74167 7.175L5.25 9.68333L11.2583 3.675C11.4917 3.44167 11.8417 3.44167 12.075 3.675C12.3083 3.90833 12.3083 4.25833 12.075 4.49167Z" fill="white"/>
</mask>
<g mask="url(#mask0)">
<rect width="14" height="14" fill="white"/>
</g>
</svg>
