<svg width="54" height="51" viewBox="0 0 54 51" fill="none" xmlns="http://www.w3.org/2000/svg">
<g clip-path="url(#clip0_2023_36367)">
<path d="M41.4796 4.26852V43.7343C41.4796 46.0809 39.5597 48.0009 37.1597 48.0009H9.10701C6.7604 48.0009 4.84044 46.0809 4.78711 43.7343V41.281H6.7604C7.24039 41.281 7.72038 41.0677 8.0937 40.7477C8.84035 40.001 8.84035 38.8277 8.0937 38.0811C7.72038 37.7078 7.24039 37.5478 6.7604 37.5478H4.78711V30.9879H6.7604C7.24039 30.9879 7.72038 30.7746 8.0937 30.4546C8.84035 29.7079 8.84035 28.5346 8.0937 27.788C7.72038 27.4147 7.24039 27.2547 6.7604 27.2547H4.78711V20.7481H6.7604C7.82704 20.7481 8.62702 19.8948 8.62702 18.8282C8.62702 17.8149 7.77371 17.0149 6.7604 16.9616H4.78711V10.5084H6.7604C7.24039 10.5084 7.72038 10.2951 8.0937 9.97506C8.84035 9.22841 8.84035 8.0551 8.0937 7.30845C7.72038 6.93513 7.24039 6.77513 6.7604 6.77513H4.78711V4.26852C4.78711 1.92191 6.70707 0.00195312 9.10701 0.00195312H37.1597C39.5597 0.00195312 41.4796 1.92191 41.4796 4.26852Z" fill="#FCBC40"/>
<path d="M8.6816 8.64062C8.6816 9.12059 8.46828 9.60057 8.1483 9.97389C7.77498 10.3472 7.295 10.5072 6.81502 10.5072H2.92187C1.85525 10.5072 1.00195 9.70723 1.00195 8.64062C1.00195 7.574 1.80192 6.7207 2.86854 6.7207H2.92187H6.81502C7.82831 6.7207 8.6816 7.574 8.6816 8.64062Z" fill="#D9176C"/>
<path d="M8.68101 18.8769C8.68101 19.8902 7.82771 20.7435 6.81443 20.7435H2.92127C1.85465 20.7435 1.05469 19.8902 1.05469 18.8236C1.05469 17.8103 1.90798 17.0104 2.92127 16.957H6.81443C7.82771 17.0104 8.68101 17.8103 8.68101 18.8769Z" fill="#D9176C"/>
<path d="M8.6816 29.1211C8.6816 29.6011 8.46828 30.081 8.1483 30.4544C7.77498 30.8277 7.295 30.9877 6.81502 30.9877H2.92187C1.85525 30.9877 1.00195 30.1877 1.00195 29.1211C1.00195 28.0545 1.80192 27.2012 2.86854 27.2012H2.92187H6.81502C7.82831 27.2545 8.6816 28.1078 8.6816 29.1211Z" fill="#D9176C"/>
<path d="M8.6816 39.3594C8.6816 39.8394 8.46828 40.3193 8.1483 40.6926C7.77498 41.066 7.295 41.226 6.81502 41.226H2.92187C1.85525 41.226 1.00195 40.426 1.00195 39.3594C1.00195 38.2928 1.80192 37.4395 2.86854 37.4395H2.92187H6.81502C7.82831 37.4928 8.6816 38.3461 8.6816 39.3594Z" fill="#D9176C"/>
<path d="M49.0021 17.0136H41.4824V8.64062H49.0021L46.3355 12.8004L49.0021 17.0136Z" fill="#35B0CB"/>
<path d="M24.2006 23.9481C28.0296 23.9481 31.1336 20.844 31.1336 17.015C31.1336 13.186 28.0296 10.082 24.2006 10.082C20.3716 10.082 17.2676 13.186 17.2676 17.015C17.2676 20.844 20.3716 23.9481 24.2006 23.9481Z" fill="white"/>
<path d="M24.2021 15.6836C23.6688 15.6836 23.2422 16.1102 23.2422 16.6435V20.27C23.2422 20.8034 23.6688 21.23 24.2021 21.23C24.7355 21.23 25.1621 20.8034 25.1621 20.27V16.5902C25.1088 16.1102 24.6821 15.6836 24.2021 15.6836Z" fill="#133440"/>
<path d="M24.2021 12.748C23.6688 12.748 23.2422 13.1747 23.2422 13.708V14.028C23.2422 14.5613 23.6688 14.9879 24.2021 14.9879C24.7355 14.9879 25.1621 14.5613 25.1621 14.028V13.708C25.1088 13.1747 24.6821 12.748 24.2021 12.748Z" fill="#133440"/>
</g>
<path d="M42.5 48C48.0229 48 52.5 43.5229 52.5 38C52.5 32.4772 48.0229 28 42.5 28C36.9772 28 32.5 32.4772 32.5 38C32.5 43.5229 36.9772 48 42.5 48Z" fill="#E63946"/>
<path d="M43.9099 38.0002L46.2099 35.7102C46.3982 35.5219 46.504 35.2665 46.504 35.0002C46.504 34.7339 46.3982 34.4785 46.2099 34.2902C46.0216 34.1019 45.7662 33.9961 45.4999 33.9961C45.2336 33.9961 44.9782 34.1019 44.7899 34.2902L42.4999 36.5902L40.2099 34.2902C40.0216 34.1019 39.7662 33.9961 39.4999 33.9961C39.2336 33.9961 38.9782 34.1019 38.7899 34.2902C38.6016 34.4785 38.4958 34.7339 38.4958 35.0002C38.4958 35.2665 38.6016 35.5219 38.7899 35.7102L41.0899 38.0002L38.7899 40.2902C38.6962 40.3831 38.6218 40.4938 38.571 40.6156C38.5203 40.7375 38.4941 40.8682 38.4941 41.0002C38.4941 41.1322 38.5203 41.2629 38.571 41.3848C38.6218 41.5066 38.6962 41.6172 38.7899 41.7102C38.8829 41.8039 38.9935 41.8783 39.1154 41.9291C39.2372 41.9798 39.3679 42.006 39.4999 42.006C39.632 42.006 39.7627 41.9798 39.8845 41.9291C40.0064 41.8783 40.117 41.8039 40.2099 41.7102L42.4999 39.4102L44.7899 41.7102C44.8829 41.8039 44.9935 41.8783 45.1154 41.9291C45.2372 41.9798 45.3679 42.006 45.4999 42.006C45.632 42.006 45.7627 41.9798 45.8845 41.9291C46.0064 41.8783 46.117 41.8039 46.2099 41.7102C46.3037 41.6172 46.3781 41.5066 46.4288 41.3848C46.4796 41.2629 46.5057 41.1322 46.5057 41.0002C46.5057 40.8682 46.4796 40.7375 46.4288 40.6156C46.3781 40.4938 46.3037 40.3831 46.2099 40.2902L43.9099 38.0002Z" fill="#EDEBEA"/>
<defs>
<clipPath id="clip0_2023_36367">
<rect width="48" height="48" fill="white" transform="translate(1)"/>
</clipPath>
</defs>
</svg>
