<svg width="106" height="24" viewBox="0 0 106 24" fill="none" xmlns="http://www.w3.org/2000/svg">
<path d="M3.50781 5.625L5.92188 9.77344L8.33594 5.625H10.5938L7.15625 11.2578L10.6797 17H8.39844L5.92188 12.7734L3.44531 17H1.15625L4.6875 11.2578L1.24219 5.625H3.50781ZM15.4609 17.1562C14.8359 17.1562 14.2708 17.0547 13.7656 16.8516C13.2656 16.6432 12.8385 16.3542 12.4844 15.9844C12.1354 15.6146 11.8672 15.1797 11.6797 14.6797C11.4922 14.1797 11.3984 13.6406 11.3984 13.0625V12.75C11.3984 12.0885 11.4948 11.4896 11.6875 10.9531C11.8802 10.4167 12.1484 9.95833 12.4922 9.57812C12.8359 9.19271 13.2422 8.89844 13.7109 8.69531C14.1797 8.49219 14.6875 8.39062 15.2344 8.39062C15.8385 8.39062 16.3672 8.49219 16.8203 8.69531C17.2734 8.89844 17.6484 9.1849 17.9453 9.55469C18.2474 9.91927 18.4714 10.3542 18.6172 10.8594C18.7682 11.3646 18.8438 11.9219 18.8438 12.5312V13.3359H12.3125V11.9844H16.9844V11.8359C16.974 11.4974 16.9062 11.1797 16.7812 10.8828C16.6615 10.5859 16.4766 10.3464 16.2266 10.1641C15.9766 9.98177 15.6432 9.89062 15.2266 9.89062C14.9141 9.89062 14.6354 9.95833 14.3906 10.0938C14.151 10.224 13.9505 10.4141 13.7891 10.6641C13.6276 10.9141 13.5026 11.2161 13.4141 11.5703C13.3307 11.9193 13.2891 12.3125 13.2891 12.75V13.0625C13.2891 13.4323 13.3385 13.776 13.4375 14.0938C13.5417 14.4062 13.6927 14.6797 13.8906 14.9141C14.0885 15.1484 14.3281 15.3333 14.6094 15.4688C14.8906 15.599 15.2109 15.6641 15.5703 15.6641C16.0234 15.6641 16.4271 15.5729 16.7812 15.3906C17.1354 15.2083 17.4427 14.9505 17.7031 14.6172L18.6953 15.5781C18.513 15.8438 18.276 16.099 17.9844 16.3438C17.6927 16.5833 17.3359 16.7786 16.9141 16.9297C16.4974 17.0807 16.013 17.1562 15.4609 17.1562ZM22.1953 10.2656V17H20.3125V8.54688H22.0859L22.1953 10.2656ZM21.8906 12.4609L21.25 12.4531C21.25 11.8698 21.3229 11.3307 21.4688 10.8359C21.6146 10.3411 21.8281 9.91146 22.1094 9.54688C22.3906 9.17708 22.7396 8.89323 23.1562 8.69531C23.5781 8.49219 24.0651 8.39062 24.6172 8.39062C25.0026 8.39062 25.3542 8.44792 25.6719 8.5625C25.9948 8.67188 26.2734 8.84635 26.5078 9.08594C26.7474 9.32552 26.9297 9.63281 27.0547 10.0078C27.1849 10.3828 27.25 10.8359 27.25 11.3672V17H25.3672V11.5312C25.3672 11.1198 25.3047 10.7969 25.1797 10.5625C25.0599 10.3281 24.8854 10.1615 24.6562 10.0625C24.4323 9.95833 24.1641 9.90625 23.8516 9.90625C23.4974 9.90625 23.1953 9.97396 22.9453 10.1094C22.7005 10.2448 22.5 10.4297 22.3438 10.6641C22.1875 10.8984 22.0729 11.1693 22 11.4766C21.9271 11.7839 21.8906 12.112 21.8906 12.4609ZM27.1328 11.9609L26.25 12.1562C26.25 11.6458 26.3203 11.1641 26.4609 10.7109C26.6068 10.2526 26.8177 9.85156 27.0938 9.50781C27.375 9.15885 27.7214 8.88542 28.1328 8.6875C28.5443 8.48958 29.0156 8.39062 29.5469 8.39062C29.9792 8.39062 30.3646 8.45052 30.7031 8.57031C31.0469 8.6849 31.3385 8.86719 31.5781 9.11719C31.8177 9.36719 32 9.69271 32.125 10.0938C32.25 10.4896 32.3125 10.9688 32.3125 11.5312V17H30.4219V11.5234C30.4219 11.0964 30.3594 10.7656 30.2344 10.5312C30.1146 10.2969 29.9427 10.1354 29.7188 10.0469C29.4948 9.95312 29.2266 9.90625 28.9141 9.90625C28.6224 9.90625 28.3646 9.96094 28.1406 10.0703C27.9219 10.1745 27.737 10.3229 27.5859 10.5156C27.4349 10.7031 27.3203 10.9193 27.2422 11.1641C27.1693 11.4089 27.1328 11.6745 27.1328 11.9609ZM42.1094 8.54688V9.92188H37.3438V8.54688H42.1094ZM38.7188 6.47656H40.6016V14.6641C40.6016 14.9245 40.638 15.125 40.7109 15.2656C40.7891 15.401 40.8958 15.4922 41.0312 15.5391C41.1667 15.5859 41.3255 15.6094 41.5078 15.6094C41.638 15.6094 41.763 15.6016 41.8828 15.5859C42.0026 15.5703 42.099 15.5547 42.1719 15.5391L42.1797 16.9766C42.0234 17.0234 41.8411 17.0651 41.6328 17.1016C41.4297 17.138 41.1953 17.1562 40.9297 17.1562C40.4974 17.1562 40.1146 17.0807 39.7812 16.9297C39.4479 16.7734 39.1875 16.5208 39 16.1719C38.8125 15.8229 38.7188 15.3594 38.7188 14.7812V6.47656ZM45.4219 5V17H43.5469V5H45.4219ZM45.0938 12.4609L44.4844 12.4531C44.4896 11.8698 44.5703 11.3307 44.7266 10.8359C44.888 10.3411 45.112 9.91146 45.3984 9.54688C45.6901 9.17708 46.0391 8.89323 46.4453 8.69531C46.8516 8.49219 47.3021 8.39062 47.7969 8.39062C48.2135 8.39062 48.5885 8.44792 48.9219 8.5625C49.2604 8.67708 49.5521 8.86198 49.7969 9.11719C50.0417 9.36719 50.2266 9.69531 50.3516 10.1016C50.4818 10.5026 50.5469 10.9922 50.5469 11.5703V17H48.6562V11.5547C48.6562 11.1484 48.5964 10.8255 48.4766 10.5859C48.362 10.3464 48.1927 10.1745 47.9688 10.0703C47.7448 9.96094 47.4714 9.90625 47.1484 9.90625C46.8099 9.90625 46.5104 9.97396 46.25 10.1094C45.9948 10.2448 45.7812 10.4297 45.6094 10.6641C45.4375 10.8984 45.3073 11.1693 45.2188 11.4766C45.1354 11.7839 45.0938 12.112 45.0938 12.4609ZM56.1797 17.1562C55.5547 17.1562 54.9896 17.0547 54.4844 16.8516C53.9844 16.6432 53.5573 16.3542 53.2031 15.9844C52.8542 15.6146 52.5859 15.1797 52.3984 14.6797C52.2109 14.1797 52.1172 13.6406 52.1172 13.0625V12.75C52.1172 12.0885 52.2135 11.4896 52.4062 10.9531C52.599 10.4167 52.8672 9.95833 53.2109 9.57812C53.5547 9.19271 53.9609 8.89844 54.4297 8.69531C54.8984 8.49219 55.4062 8.39062 55.9531 8.39062C56.5573 8.39062 57.0859 8.49219 57.5391 8.69531C57.9922 8.89844 58.3672 9.1849 58.6641 9.55469C58.9661 9.91927 59.1901 10.3542 59.3359 10.8594C59.487 11.3646 59.5625 11.9219 59.5625 12.5312V13.3359H53.0312V11.9844H57.7031V11.8359C57.6927 11.4974 57.625 11.1797 57.5 10.8828C57.3802 10.5859 57.1953 10.3464 56.9453 10.1641C56.6953 9.98177 56.362 9.89062 55.9453 9.89062C55.6328 9.89062 55.3542 9.95833 55.1094 10.0938C54.8698 10.224 54.6693 10.4141 54.5078 10.6641C54.3464 10.9141 54.2214 11.2161 54.1328 11.5703C54.0495 11.9193 54.0078 12.3125 54.0078 12.75V13.0625C54.0078 13.4323 54.0573 13.776 54.1562 14.0938C54.2604 14.4062 54.4115 14.6797 54.6094 14.9141C54.8073 15.1484 55.0469 15.3333 55.3281 15.4688C55.6094 15.599 55.9297 15.6641 56.2891 15.6641C56.7422 15.6641 57.1458 15.5729 57.5 15.3906C57.8542 15.2083 58.1615 14.9505 58.4219 14.6172L59.4141 15.5781C59.2318 15.8438 58.9948 16.099 58.7031 16.3438C58.4115 16.5833 58.0547 16.7786 57.6328 16.9297C57.2161 17.0807 56.7318 17.1562 56.1797 17.1562ZM56.3672 5L58.5312 7.15625V7.24219H57.0078L55.8125 6.01562L54.6172 7.24219H53.125V7.14062L55.2578 5H56.3672ZM62.9141 10.2656V17H61.0312V8.54688H62.8047L62.9141 10.2656ZM62.6094 12.4609L61.9688 12.4531C61.9688 11.8698 62.0417 11.3307 62.1875 10.8359C62.3333 10.3411 62.5469 9.91146 62.8281 9.54688C63.1094 9.17708 63.4583 8.89323 63.875 8.69531C64.2969 8.49219 64.7839 8.39062 65.3359 8.39062C65.7214 8.39062 66.0729 8.44792 66.3906 8.5625C66.7135 8.67188 66.9922 8.84635 67.2266 9.08594C67.4661 9.32552 67.6484 9.63281 67.7734 10.0078C67.9036 10.3828 67.9688 10.8359 67.9688 11.3672V17H66.0859V11.5312C66.0859 11.1198 66.0234 10.7969 65.8984 10.5625C65.7786 10.3281 65.6042 10.1615 65.375 10.0625C65.151 9.95833 64.8828 9.90625 64.5703 9.90625C64.2161 9.90625 63.9141 9.97396 63.6641 10.1094C63.4193 10.2448 63.2188 10.4297 63.0625 10.6641C62.9062 10.8984 62.7917 11.1693 62.7188 11.4766C62.6458 11.7839 62.6094 12.112 62.6094 12.4609ZM67.8516 11.9609L66.9688 12.1562C66.9688 11.6458 67.0391 11.1641 67.1797 10.7109C67.3255 10.2526 67.5365 9.85156 67.8125 9.50781C68.0938 9.15885 68.4401 8.88542 68.8516 8.6875C69.263 8.48958 69.7344 8.39062 70.2656 8.39062C70.6979 8.39062 71.0833 8.45052 71.4219 8.57031C71.7656 8.6849 72.0573 8.86719 72.2969 9.11719C72.5365 9.36719 72.7188 9.69271 72.8438 10.0938C72.9688 10.4896 73.0312 10.9688 73.0312 11.5312V17H71.1406V11.5234C71.1406 11.0964 71.0781 10.7656 70.9531 10.5312C70.8333 10.2969 70.6615 10.1354 70.4375 10.0469C70.2135 9.95312 69.9453 9.90625 69.6328 9.90625C69.3411 9.90625 69.0833 9.96094 68.8594 10.0703C68.6406 10.1745 68.4557 10.3229 68.3047 10.5156C68.1536 10.7031 68.0391 10.9193 67.9609 11.1641C67.888 11.4089 67.8516 11.6745 67.8516 11.9609Z" fill="#7966FF"/>
<path d="M90.5898 16.34L95.1698 11.75L90.5898 7.16L91.9998 5.75L97.9998 11.75L91.9998 17.75L90.5898 16.34Z" fill="#7966FF"/>
</svg>
