<svg width="14" height="14" viewBox="0 0 14 14" fill="none" xmlns="http://www.w3.org/2000/svg">
<path d="M10.9087 10.0915C11.142 10.3248 11.142 10.6748 10.9087 10.9082C10.792 11.0248 10.6753 11.0832 10.5003 11.0832C10.3253 11.0832 10.2087 11.0248 10.092 10.9082L7.00033 7.8165L3.90866 10.9082C3.79199 11.0248 3.67533 11.0832 3.50033 11.0832C3.32533 11.0832 3.20866 11.0248 3.09199 10.9082C2.85866 10.6748 2.85866 10.3248 3.09199 10.0915L6.18366 6.99984L3.09199 3.90817C2.85866 3.67484 2.85866 3.32484 3.09199 3.0915C3.32533 2.85817 3.67533 2.85817 3.90866 3.0915L7.00033 6.18317L10.092 3.0915C10.3253 2.85817 10.6753 2.85817 10.9087 3.0915C11.142 3.32484 11.142 3.67484 10.9087 3.90817L7.81699 6.99984L10.9087 10.0915Z" fill="black"/>
<mask id="mask0" maskUnits="userSpaceOnUse" x="2" y="2" width="10" height="10">
<path d="M10.9087 10.0915C11.142 10.3248 11.142 10.6748 10.9087 10.9082C10.792 11.0248 10.6753 11.0832 10.5003 11.0832C10.3253 11.0832 10.2087 11.0248 10.092 10.9082L7.00033 7.8165L3.90866 10.9082C3.79199 11.0248 3.67533 11.0832 3.50033 11.0832C3.32533 11.0832 3.20866 11.0248 3.09199 10.9082C2.85866 10.6748 2.85866 10.3248 3.09199 10.0915L6.18366 6.99984L3.09199 3.90817C2.85866 3.67484 2.85866 3.32484 3.09199 3.0915C3.32533 2.85817 3.67533 2.85817 3.90866 3.0915L7.00033 6.18317L10.092 3.0915C10.3253 2.85817 10.6753 2.85817 10.9087 3.0915C11.142 3.32484 11.142 3.67484 10.9087 3.90817L7.81699 6.99984L10.9087 10.0915Z" fill="white"/>
</mask>
<g mask="url(#mask0)">
<rect width="14" height="14" fill="#586B8B"/>
</g>
</svg>
