<svg width="56" height="56" viewBox="0 0 56 56" fill="none" xmlns="http://www.w3.org/2000/svg">
<path d="M0 18C0 8.05888 8.05887 0 18 0H38C47.9411 0 56 8.05887 56 18V38C56 47.9411 47.9411 56 38 56H18C8.05888 56 0 47.9411 0 38V18Z" fill="#5A8DEE"/>
<path d="M28 12.4448C19.4286 12.4448 12.4445 19.429 12.4445 28.0004C12.4445 30.3813 12.9206 32.7623 14.0318 34.8258V40.6988C14.0318 41.3337 14.508 41.9686 15.3016 41.9686H21.1746C23.2381 43.0797 25.6191 43.5559 28 43.5559C36.5714 43.5559 43.5556 36.5718 43.5556 28.0004C43.5556 19.429 36.5714 12.4448 28 12.4448ZM23.2381 29.5877C22.4445 29.5877 21.6508 28.794 21.6508 28.0004C21.6508 27.2067 22.4445 26.4131 23.2381 26.4131C24.0318 26.4131 24.8254 27.2067 24.8254 28.0004C24.8254 28.794 24.0318 29.5877 23.2381 29.5877ZM28 29.5877C27.2064 29.5877 26.4127 28.794 26.4127 28.0004C26.4127 27.2067 27.2064 26.4131 28 26.4131C28.7937 26.4131 29.5873 27.2067 29.5873 28.0004C29.5873 28.794 28.7937 29.5877 28 29.5877ZM32.7619 29.5877C31.9683 29.5877 31.1746 28.794 31.1746 28.0004C31.1746 27.2067 31.9683 26.4131 32.7619 26.4131C33.5556 26.4131 34.3492 27.2067 34.3492 28.0004C34.3492 28.794 33.5556 29.5877 32.7619 29.5877Z" fill="white"/>
</svg>
