<svg width="24" height="25" viewBox="0 0 24 25" fill="none" xmlns="http://www.w3.org/2000/svg">
<rect y="0.148438" width="24" height="24" rx="12" fill="#5A8DEE"/>
<path d="M12.0007 5.48242C8.32718 5.48242 5.33398 8.47562 5.33398 12.1491C5.33398 13.1695 5.53807 14.1899 6.01426 15.0743V17.5913C6.01426 17.8634 6.21834 18.1355 6.55847 18.1355H9.07548C9.95984 18.6117 10.9802 18.8158 12.0007 18.8158C15.6741 18.8158 18.6673 15.8226 18.6673 12.1491C18.6673 8.47562 15.6741 5.48242 12.0007 5.48242ZM9.95984 12.8294C9.6197 12.8294 9.27956 12.4892 9.27956 12.1491C9.27956 11.809 9.6197 11.4688 9.95984 11.4688C10.3 11.4688 10.6401 11.809 10.6401 12.1491C10.6401 12.4892 10.3 12.8294 9.95984 12.8294ZM12.0007 12.8294C11.6605 12.8294 11.3204 12.4892 11.3204 12.1491C11.3204 11.809 11.6605 11.4688 12.0007 11.4688C12.3408 11.4688 12.6809 11.809 12.6809 12.1491C12.6809 12.4892 12.3408 12.8294 12.0007 12.8294ZM14.0415 12.8294C13.7013 12.8294 13.3612 12.4892 13.3612 12.1491C13.3612 11.809 13.7013 11.4688 14.0415 11.4688C14.3816 11.4688 14.7217 11.809 14.7217 12.1491C14.7217 12.4892 14.3816 12.8294 14.0415 12.8294Z" fill="white"/>
</svg>
