<svg width="20" height="18" viewBox="0 0 20 18" fill="none" xmlns="http://www.w3.org/2000/svg">
<path d="M19.5 9.47222C19.5 9.29195 19.4284 9.11802 19.2998 8.99119L10.4674 0.198686C10.202 -0.0649265 9.77354 -0.0649265 9.50812 0.198686L0.675765 8.99119C0.548035 9.11802 0.476471 9.29195 0.476471 9.47222C0.476471 9.65249 0.548035 9.82642 0.676671 9.95324L6.1482 15.4003H1.15588C0.654929 15.4003 0.25 15.8053 0.25 16.3062C0.25 16.8072 0.654929 17.2121 1.15588 17.2121H17.9374C18.4383 17.2121 18.8432 16.8072 18.8432 16.3062C18.8432 15.8053 18.4383 15.4003 17.9374 15.4003H13.8283L19.2998 9.95324C19.4284 9.82642 19.5 9.65249 19.5 9.47222Z" fill="#7966FF"/>
</svg>
