<svg width="18" height="16" viewBox="0 0 18 16" fill="none" xmlns="http://www.w3.org/2000/svg">
<path fill-rule="evenodd" clip-rule="evenodd" d="M13.1171 0.5C14.2346 0.5 15.3096 0.941667 16.1005 1.73417C16.8921 2.525 17.3346 3.59167 17.3346 4.70833V11.2917C17.3346 13.6167 15.443 15.5 13.1171 15.5H4.88464C2.5588 15.5 0.667969 13.6167 0.667969 11.2917V4.70833C0.667969 2.38333 2.55047 0.5 4.88464 0.5H13.1171ZM14.443 5.95L14.5096 5.88333C14.7088 5.64167 14.7088 5.29167 14.5005 5.05C14.3846 4.92583 14.2255 4.85 14.0596 4.83333C13.8846 4.82417 13.718 4.88333 13.5921 5L9.83464 8C9.3513 8.40083 8.6588 8.40083 8.16797 8L4.41797 5C4.1588 4.80833 3.80047 4.83333 3.58464 5.05833C3.35964 5.28333 3.33464 5.64167 3.52547 5.89167L3.63464 6L7.4263 8.95833C7.89297 9.325 8.4588 9.525 9.0513 9.525C9.64214 9.525 10.218 9.325 10.6838 8.95833L14.443 5.95Z" fill="#F2C94C"/>
</svg>
