<svg width="24" height="24" viewBox="0 0 24 24" fill="none" xmlns="http://www.w3.org/2000/svg">
<path d="M0 12C0 5.37258 5.37258 0 12 0C18.6274 0 24 5.37258 24 12C24 18.6274 18.6274 24 12 24C5.37258 24 0 18.6274 0 12Z" fill="#7966FF"/>
<path d="M12 11.8636C13.8126 11.8636 15.2821 10.4017 15.2821 8.59831C15.2821 6.79494 13.8126 5.33301 12 5.33301C10.1874 5.33301 8.71797 6.79494 8.71797 8.59831C8.71797 10.4017 10.1874 11.8636 12 11.8636Z" fill="white"/>
<path d="M13.7094 13.2242H10.2906C8.30771 13.2242 6.66669 14.8569 6.66669 16.8297C6.66669 17.3059 6.87182 17.714 7.28207 17.9181C7.89746 18.2582 9.26498 18.6664 12 18.6664C14.7351 18.6664 16.1026 18.2582 16.718 17.9181C17.0598 17.714 17.3334 17.3059 17.3334 16.8297C17.3334 14.7889 15.6923 13.2242 13.7094 13.2242Z" fill="white"/>
</svg>
