<svg width="18" height="18" viewBox="0 0 18 18" fill="none" xmlns="http://www.w3.org/2000/svg">
<path fill-rule="evenodd" clip-rule="evenodd" d="M5.10768 0.666992H12.8827C15.716 0.666992 17.3327 2.26699 17.3327 5.10866V12.892C17.3327 15.717 15.7243 17.3337 12.891 17.3337H5.10768C2.26602 17.3337 0.666016 15.717 0.666016 12.892V5.10866C0.666016 2.26699 2.26602 0.666992 5.10768 0.666992ZM9.68268 9.69199H12.0493C12.4327 9.68366 12.741 9.37533 12.741 8.99199C12.741 8.60866 12.4327 8.30033 12.0493 8.30033H9.68268V5.95033C9.68268 5.56699 9.37435 5.25866 8.99102 5.25866C8.60768 5.25866 8.29935 5.56699 8.29935 5.95033V8.30033H5.94102C5.75768 8.30033 5.58268 8.37533 5.44935 8.50033C5.32435 8.63366 5.24935 8.80783 5.24935 8.99199C5.24935 9.37533 5.55768 9.68366 5.94102 9.69199H8.29935V12.0503C8.29935 12.4337 8.60768 12.742 8.99102 12.742C9.37435 12.742 9.68268 12.4337 9.68268 12.0503V9.69199Z" fill="#56CCF2"/>
</svg>
