<svg width="56" height="56" viewBox="0 0 56 56" fill="none" xmlns="http://www.w3.org/2000/svg">
<path d="M8.20312 0C3.67517 0 0 3.67517 0 8.20312V42.6562H20.486L28 56L35.514 42.6562H47.7969C52.3248 42.6562 56 38.9811 56 34.4531V0H8.20312Z" fill="#FF641A"/>
<path d="M56 0V34.4531C56 38.9811 52.3248 42.6562 47.7969 42.6562H35.514L28 56V0H56Z" fill="#F03800"/>
<path d="M28 6.5625C19.8627 6.5625 13.2344 13.1904 13.2344 21.3281C13.2344 29.4655 19.8627 36.0938 28 36.0938C36.1373 36.0938 42.7656 29.4655 42.7656 21.3281C42.7656 13.1904 36.1373 6.5625 28 6.5625Z" fill="#FFF5F5"/>
<path d="M42.7656 21.3281C42.7656 29.4655 36.1373 36.0938 28 36.0938V6.5625C36.1373 6.5625 42.7656 13.1904 42.7656 21.3281Z" fill="#EFE2DD"/>
<path d="M30.3292 21.3285L34.9558 25.9551L32.626 28.2849L27.9994 23.6583L23.3727 28.2849L21.043 25.9551L25.6696 21.3285L21.0759 16.7018L23.3727 14.405L27.9994 18.9987L32.626 14.3721L34.9558 16.7018L30.3292 21.3285Z" fill="#FF641A"/>
<path d="M30.3298 21.3285L34.9564 25.9551L32.6266 28.2849L28 23.6583V18.9987L32.6266 14.3721L34.9564 16.7018L30.3298 21.3285Z" fill="#F03800"/>
</svg>
