<svg width="100" height="148" viewBox="0 0 450 498" fill="none" xmlns="http://www.w3.org/2000/svg">
<path d="M403.28 250.393L418.082 250.083L425.372 249.961C427.799 249.905 430.203 249.917 432.629 249.905L432.131 250.404L432.075 238.009L432.629 238.563L417.96 238.496C413.074 238.485 408.177 238.374 403.291 238.319L403.59 238.02C403.568 240.047 403.491 242.085 403.446 244.157L403.28 250.393ZM403.28 250.393L403.125 244.256C403.07 242.185 403.003 240.091 402.981 237.998V237.699H403.291C408.177 237.643 413.074 237.521 417.96 237.521L432.629 237.455H433.183V238.009L433.128 250.404V250.902H432.64C430.17 250.88 427.688 250.891 425.228 250.836L417.849 250.714L403.28 250.393Z" fill="#EBEBEB"/>
<path d="M419.645 266.026L434.447 265.716L441.738 265.594C444.164 265.538 446.568 265.55 448.995 265.538L448.496 266.037L448.441 253.642L448.995 254.196L434.314 254.107C429.428 254.096 424.531 253.985 419.645 253.93L419.944 253.631C419.922 255.658 419.845 257.696 419.8 259.767L419.645 266.026ZM419.645 266.026L419.49 259.889C419.435 257.818 419.368 255.724 419.346 253.631V253.332H419.656C424.542 253.276 429.44 253.154 434.326 253.154L448.995 253.088H449.549V253.642L449.493 266.037V266.535H449.006C446.535 266.513 444.053 266.524 441.594 266.469L434.215 266.347L419.645 266.026Z" fill="#EBEBEB"/>
<path d="M386.855 266.019H416.193V253.624H386.855V266.019Z" fill="#EBEBEB"/>
<path d="M1.02302 351.582L15.8251 351.272L23.1153 351.15C25.5417 351.095 27.9459 351.106 30.3723 351.095L29.8737 351.593L29.8183 339.198L30.3723 339.752L15.7032 339.685C10.8172 339.685 5.9201 339.564 1.0341 339.508L1.33324 339.209C1.31108 341.236 1.23353 343.274 1.18921 345.346L1.02302 351.582ZM1.02302 351.582L0.867909 345.445C0.812512 343.374 0.746036 341.28 0.723877 339.187V338.888H1.0341C5.9201 338.832 10.8172 338.711 15.7032 338.711L30.3723 338.644H30.9263V339.198L30.8709 351.593V352.092H30.3834C27.9127 352.069 25.4309 352.08 22.9713 352.036L15.5924 351.914L1.02302 351.582Z" fill="#EBEBEB"/>
<path d="M17.3942 367.204H46.7324V354.809H17.3942V367.204Z" fill="#EBEBEB"/>
<path d="M77.0367 120.085L91.8387 119.775L99.129 119.653C101.555 119.598 103.96 119.609 106.386 119.587L105.887 120.085L105.832 107.69L106.386 108.244L91.7169 108.177C86.8309 108.177 81.9338 108.056 77.0478 108L77.3469 107.701C77.3248 109.728 77.2472 111.766 77.2029 113.838L77.0367 120.085ZM77.0367 120.085L76.8816 113.948C76.8262 111.877 76.7597 109.795 76.7375 107.69V107.391H77.0478C81.9338 107.336 86.8309 107.214 91.7169 107.214L106.386 107.147H106.94V107.701L106.885 120.096V120.595H106.397C103.926 120.572 101.445 120.584 98.9849 120.528L91.6061 120.406L77.0367 120.085Z" fill="#EBEBEB"/>
<path d="M17.2438 12.9547L46.582 12.9547V0.55962L17.2438 0.55962V12.9547Z" fill="#EBEBEB"/>
<path d="M0.877268 28.5802L15.6793 28.27L22.9695 28.1482C25.3959 28.0928 27.8002 28.1039 30.2265 28.0817L29.728 28.5802L29.6726 16.1851L30.2265 16.739L15.5574 16.6725C10.6714 16.6614 5.77435 16.5506 0.888348 16.4953L1.18749 16.1962C1.16533 18.2233 1.08778 20.2614 1.04346 22.3328L0.877268 28.5802ZM0.877268 28.5802L0.722157 22.4436C0.66676 20.3722 0.600284 18.2897 0.578125 16.1851V15.886H0.888348C5.77435 15.8306 10.6714 15.7088 15.5574 15.7088L30.2265 15.6423H30.7805V16.1962L30.714 28.5802V29.0787H30.2265C27.7558 29.0565 25.2741 29.0676 22.8144 29.0122L15.4356 28.8904L0.877268 28.5802Z" fill="#EBEBEB"/>
<path d="M403.28 12.9489L418.082 12.6388L425.372 12.5169C427.799 12.4616 430.203 12.4726 432.629 12.4505L432.131 12.9489L432.064 0.553847L432.618 1.10769L417.949 1.04123C413.063 1.04123 408.166 0.919386 403.28 0.864001L403.579 0.564924C403.557 2.592 403.48 4.63016 403.435 6.70155L403.28 12.9489ZM403.28 12.9489L403.125 6.81232C403.07 4.74093 403.003 2.64739 402.981 0.553847V0.25477H403.291C408.177 0.199385 413.074 0.0775386 417.96 0.0775386L432.618 0H433.172V0.553847L433.117 12.9489V13.4474H432.629C430.159 13.4252 427.677 13.4363 425.217 13.392L417.838 13.2702L403.28 12.9489Z" fill="#EBEBEB"/>
<path d="M356.901 167.95H386.239V155.555H356.901V167.95Z" fill="#EBEBEB"/>
<path d="M44.6622 77.4827C45.7812 76.7849 47.1883 76.8292 48.3184 77.5049C48.6286 77.6932 48.9388 77.8704 49.2601 78.0366C49.5814 78.2138 49.9027 78.3689 50.2351 78.524C51.4317 79.0889 52.2294 80.2298 52.2737 81.548L52.4177 86.0452L67.0757 85.5911L66.9317 81.0938C66.8874 79.7757 67.6186 78.5683 68.7709 77.9369C69.4135 77.5935 70.0339 77.2058 70.6322 76.7849C71.718 76.0317 73.114 75.932 74.2773 76.5523L78.2327 78.6791L85.1684 65.7523L81.213 63.6255C80.0497 63.0052 79.3628 61.7756 79.396 60.4686C79.4071 59.7375 79.3849 59.0064 79.3295 58.2864C79.2187 56.9683 79.8281 55.6944 80.9471 55.0076L84.7695 52.6372L77.0361 40.1756L73.1916 42.5572C72.0725 43.255 70.6765 43.2107 69.5464 42.535C69.2362 42.3467 68.926 42.1695 68.6047 42.0033C68.2834 41.8372 67.9621 41.671 67.6408 41.5159C66.4442 40.951 65.6354 39.799 65.5911 38.4808L65.4582 33.9725L50.8001 34.4267L50.9442 38.9128C50.9885 40.231 50.2683 41.4384 49.105 42.0809C48.4624 42.4353 47.8419 42.8119 47.2437 43.2329C46.1579 43.9861 44.7619 44.0858 43.5985 43.4655L39.6432 41.3387L32.7075 54.2655L36.6629 56.3923C37.8262 57.0126 38.5131 58.2421 38.4799 59.5603C38.4688 60.2913 38.491 61.0224 38.5464 61.7535C38.6571 63.0716 38.0478 64.3344 36.9288 65.0323L33.1064 67.3917L40.8398 79.8532L44.6622 77.4827ZM48.3294 54.3319C51.4649 48.4833 58.7551 46.279 64.605 49.4249C70.455 52.5596 72.6487 59.8483 69.5132 65.6969C66.3777 71.5455 59.0986 73.7387 53.2487 70.604C47.3988 67.4581 45.194 60.1806 48.3294 54.3319Z" fill="#EBEBEB"/>
<path d="M428.873 228.286C429.338 227.488 430.214 227.045 431.144 227.09C431.399 227.101 431.643 227.112 431.898 227.112C432.153 227.112 432.407 227.101 432.662 227.09C433.582 227.045 434.457 227.477 434.922 228.286L436.496 231.022L445.393 225.882L443.819 223.146C443.354 222.349 443.398 221.363 443.908 220.588C444.185 220.167 444.44 219.724 444.672 219.258C445.093 218.439 445.924 217.907 446.844 217.907H449.99V207.628H446.844C445.924 207.628 445.093 207.096 444.672 206.276C444.44 205.822 444.185 205.379 443.908 204.947C443.398 204.172 443.354 203.186 443.819 202.388L445.393 199.652L436.496 194.512L434.911 197.26C434.446 198.057 433.571 198.5 432.651 198.445C432.396 198.434 432.153 198.423 431.898 198.423C431.643 198.423 431.388 198.434 431.144 198.445C430.225 198.489 429.338 198.046 428.873 197.248L427.3 194.512L418.403 199.652L419.976 202.377C420.442 203.175 420.397 204.16 419.888 204.936C419.611 205.368 419.356 205.811 419.123 206.265C418.702 207.085 417.871 207.616 416.952 207.616H413.805V217.896H416.952C417.871 217.896 418.702 218.428 419.123 219.247C419.356 219.701 419.611 220.144 419.888 220.576C420.397 221.352 420.442 222.338 419.976 223.135L418.403 225.86L427.3 231L428.873 228.286ZM423.477 212.778C423.477 208.126 427.256 204.36 431.898 204.36C436.551 204.36 440.307 208.137 440.307 212.778C440.307 217.431 436.54 221.186 431.898 221.186C427.256 221.186 423.477 217.42 423.477 212.778Z" fill="#EBEBEB"/>
<path d="M2.72553 97.7216C3.52324 98.1868 3.96642 99.0619 3.9221 99.9924C3.91102 100.247 3.89994 100.491 3.89994 100.746C3.89994 101 3.91102 101.255 3.9221 101.51C3.96642 102.429 3.53432 103.304 2.72553 103.77L0 105.343L5.14083 114.237L7.87744 112.664C8.67515 112.199 9.66122 112.243 10.4368 112.753C10.8578 113.03 11.301 113.285 11.7663 113.517C12.5862 113.938 13.118 114.769 13.118 115.688V118.834H23.3996V115.688C23.3996 114.769 23.9315 113.938 24.7513 113.517C25.2056 113.285 25.6488 113.03 26.0809 112.753C26.8564 112.243 27.8425 112.199 28.6402 112.664L31.3768 114.237L36.5176 105.343L33.7699 103.759C32.9722 103.293 32.5291 102.418 32.5844 101.499C32.5955 101.244 32.6066 101 32.6066 100.746C32.6066 100.491 32.5955 100.236 32.5844 99.9924C32.5401 99.073 32.9833 98.1868 33.781 97.7216L36.5176 96.1487L31.3768 87.2539L28.6513 88.8268C27.8536 89.2921 26.8675 89.2478 26.0919 88.7382C25.6598 88.4613 25.2167 88.2065 24.7624 87.9739C23.9425 87.553 23.4107 86.7222 23.4107 85.8028V82.657H13.1291V85.8028C13.1291 86.7222 12.5973 87.553 11.7774 87.9739C11.3231 88.2065 10.8799 88.4613 10.4479 88.7382C9.6723 89.2478 8.68623 89.2921 7.88852 88.8268L5.16299 87.2539L0 96.1487L2.72553 97.7216ZM18.2367 92.3271C22.89 92.3271 26.657 96.1044 26.657 100.746C26.657 105.387 22.8789 109.153 18.2367 109.153C13.5833 109.153 9.82741 105.387 9.82741 100.746C9.82741 96.1044 13.5944 92.3271 18.2367 92.3271Z" fill="#EBEBEB"/>
<path d="M94.2168 469.129C138.641 469.129 174.653 463.976 174.653 457.62C174.653 451.264 138.641 446.111 94.2168 446.111C49.7931 446.111 13.7805 451.264 13.7805 457.62C13.7805 463.976 49.7931 469.129 94.2168 469.129Z" fill="#EBEBEB"/>
<path d="M386.934 334.279C378.736 317.431 364.388 308.769 348.212 313.555C332.036 318.34 329.532 340.881 341.609 346.575C353.685 352.268 365.751 335.642 372.132 332.23C378.514 328.819 386.934 334.279 386.934 334.279Z" fill="#7966FF"/>
<path d="M394.876 379.141C394.832 377.113 394.754 375.075 394.688 373.048C394.544 368.994 394.411 364.94 394.255 360.875C393.979 353.453 393.181 346.176 390.112 339.33C387.353 333.193 382.888 327.821 377.105 324.343C374.955 323.047 372.651 322.05 370.269 321.396C368.274 319.159 365.139 317.708 362.291 317.01C358.547 316.102 354.702 316.301 350.913 316.722C350.78 316.733 350.78 316.955 350.913 316.932C354.503 316.489 358.181 316.711 361.671 317.697C363.167 318.118 364.629 318.66 366.003 319.38C366.901 319.846 367.709 320.399 368.507 320.975C365.272 320.322 361.926 320.3 358.624 321.075C357.45 321.352 356.309 321.751 355.19 322.205C354.325 321.984 353.35 321.961 352.497 321.972C351.323 321.995 350.137 322.183 348.996 322.471C346.636 323.058 344.443 324.177 342.338 325.373C342.216 325.44 342.326 325.617 342.448 325.55C344.487 324.432 346.67 323.623 348.941 323.102C350.038 322.848 351.146 322.692 352.276 322.615C352.896 322.571 353.517 322.604 354.137 322.626C349.583 324.775 345.761 328.419 343.678 333.049C343.623 333.171 343.811 333.282 343.866 333.149C346.293 327.666 351.467 323.922 357.195 322.471C357.55 322.382 357.915 322.327 358.281 322.26C358.159 322.781 358.181 323.379 358.103 323.889C357.993 324.708 357.86 325.528 357.694 326.337C357.35 327.998 356.918 329.66 356.375 331.266C355.821 332.905 355.179 334.5 354.414 336.051C353.639 337.624 352.819 339.308 351.677 340.67C351.578 340.792 351.766 340.925 351.844 340.792C352.819 339.275 353.949 337.868 354.835 336.284C355.677 334.777 356.419 333.204 357.029 331.576C357.638 329.926 358.137 328.253 358.469 326.525C358.646 325.617 358.79 324.697 358.89 323.789C358.957 323.257 359.078 322.659 358.99 322.116C360.884 321.817 362.823 321.795 364.729 321.995C364.009 326.016 363.244 330.203 360.984 333.692C360.907 333.803 361.106 333.913 361.172 333.792C362.181 331.897 363.211 330.059 363.953 328.043C364.662 326.137 365.205 324.088 365.338 322.05C368.673 322.482 371.931 323.601 374.833 325.229C380.428 328.375 384.683 333.315 387.475 339.053C390.511 345.289 391.729 352.002 392.161 358.87C392.704 367.488 392.815 376.15 393.668 384.734C393.724 385.299 394.61 385.488 394.721 384.856C395.075 383.006 394.909 381.057 394.876 379.141Z" fill="#263238"/>
<path d="M375.921 323.001C375.467 322.326 374.68 321.794 374.06 321.284C373.384 320.731 372.697 320.188 371.977 319.701C370.536 318.726 368.996 317.995 367.312 317.541C367.179 317.507 367.124 317.718 367.257 317.751C368.941 318.117 370.47 319.003 371.855 320.011C372.542 320.509 373.195 321.052 373.838 321.606C374.436 322.126 375.024 322.824 375.722 323.201C375.855 323.267 376.01 323.123 375.921 323.001Z" fill="#263238"/>
<path d="M349.749 329.106C348.431 330.712 347.09 332.33 345.994 334.08C344.886 335.841 343.922 337.669 343.191 339.629C343.168 339.685 343.257 339.718 343.29 339.674C345.273 336.096 347.279 332.418 349.905 329.261C349.993 329.15 349.838 329.006 349.749 329.106Z" fill="#263238"/>
<path d="M367.388 327.447C367.211 328.5 366.912 329.53 366.457 330.493C366.025 331.435 365.471 332.332 364.895 333.196C364.862 333.252 364.94 333.318 364.995 333.263C366.457 331.712 367.266 329.574 367.599 327.492C367.621 327.359 367.41 327.303 367.388 327.447Z" fill="#263238"/>
<path d="M393.74 334.697C393.74 334.697 405.352 320.109 427.765 325.282C449.071 330.2 458.898 369.246 437.371 373.92C415.844 378.595 419.644 342.451 411.8 336.325C406.039 331.817 397.762 332.781 393.74 334.697Z" fill="#7966FF"/>
<path d="M445.069 346.607C443.595 345.344 442.078 344.126 440.449 343.074C438.931 342.088 437.269 341.157 435.53 340.614C434.654 339.296 433.69 338.022 432.605 336.859C430.599 334.699 428.317 332.894 425.835 331.465C426.057 331.454 426.278 331.432 426.5 331.421C427.697 331.376 428.871 331.376 430.068 331.454C432.472 331.62 434.787 332.174 436.981 333.171C437.103 333.226 437.203 333.027 437.07 332.982C434.865 332.041 432.527 331.31 430.167 330.9C429.015 330.701 427.829 330.59 426.666 330.601C426.035 330.612 425.403 330.645 424.783 330.712C424.661 330.723 424.55 330.734 424.428 330.745C422.378 329.704 420.207 328.917 417.969 328.374C418.179 328.319 418.379 328.253 418.589 328.208C419.686 327.953 420.794 327.798 421.913 327.666C424.162 327.4 426.378 327.455 428.616 327.765C428.749 327.787 428.793 327.577 428.649 327.555C426.411 327.278 424.118 327.189 421.869 327.278C420.018 327.344 418.069 327.555 416.229 328.009C414.889 327.765 413.526 327.599 412.141 327.544C404.33 327.211 395.81 330.136 391.002 336.549C386.171 342.985 385.251 351.547 384.398 359.301C383.213 370.09 382.67 381.034 383.545 391.867C383.601 392.51 384.498 392.388 384.52 391.779C384.819 382.574 385.141 373.358 386.016 364.186C386.426 359.933 386.88 355.668 387.589 351.459C388.199 347.859 389.052 344.27 390.68 340.98C392.375 337.546 394.946 334.788 398.248 332.85C401.505 330.933 405.216 329.881 408.961 329.549C412.363 329.25 415.764 329.604 419.01 330.49C418.866 331.133 418.899 331.808 418.955 332.473C419.021 333.304 419.188 334.123 419.442 334.921C419.686 335.674 420.007 336.405 420.384 337.092C420.794 337.856 421.326 338.543 421.78 339.285C421.858 339.407 422.046 339.274 421.957 339.163C420.993 337.945 420.495 336.25 420.218 334.744C420.074 333.99 419.985 333.226 419.952 332.462C419.919 331.886 419.974 331.299 419.941 330.734C423.475 331.819 426.799 333.57 429.724 335.896C430.267 336.328 430.799 336.793 431.308 337.269C430.544 337.901 429.923 338.842 429.414 339.606C428.649 340.736 427.973 341.91 427.42 343.151C426.323 345.61 425.747 348.291 425.348 350.949C425.326 351.082 425.536 351.126 425.558 350.982C425.924 348.357 426.888 345.931 428.106 343.594C428.694 342.464 429.358 341.357 430.09 340.315C430.466 339.773 430.854 339.241 431.264 338.731C431.486 338.454 431.718 338.166 431.929 337.867C434.555 340.437 436.726 343.483 438.288 346.818C438.277 346.829 438.255 346.829 438.244 346.84C437.136 347.87 436.349 349.299 435.618 350.617C434.809 352.057 434.111 353.563 433.524 355.103C432.372 358.072 431.619 361.162 430.854 364.242C430.821 364.374 431.042 364.419 431.065 364.275C431.685 361.129 432.871 358.16 434.244 355.28C434.909 353.874 435.618 352.489 436.361 351.126C437.059 349.842 437.923 348.568 438.466 347.205C439.939 350.484 440.848 354.006 441.025 357.584C441.036 357.717 441.247 357.706 441.235 357.562C440.792 351.979 439.13 346.419 436.205 341.634C437.579 342.221 438.953 342.786 440.272 343.494C441.956 344.403 443.529 345.477 444.936 346.762C445.025 346.862 445.169 346.696 445.069 346.607Z" fill="#263238"/>
<path d="M428.626 347.423C427.95 349.638 427.108 351.787 426.499 354.013C425.912 356.162 425.513 358.367 425.513 360.604C425.513 360.66 425.612 360.671 425.623 360.604C426.277 356.173 427.252 351.676 428.837 347.478C428.881 347.345 428.67 347.279 428.626 347.423Z" fill="#263238"/>
<path d="M442.831 341.942C441.933 341.1 440.958 340.369 439.861 339.826C438.764 339.283 437.59 338.962 436.427 338.608C436.294 338.563 436.249 338.785 436.393 338.818C437.557 339.084 438.643 339.616 439.695 340.181C440.748 340.734 441.778 341.344 442.742 342.053C442.808 342.097 442.886 342.008 442.831 341.942Z" fill="#263238"/>
<path d="M404.771 315.206C404.771 315.206 406.91 288.998 426.41 280.502C442.685 273.413 452.003 291.689 440.491 302.888C431.185 311.938 416.25 307.851 404.771 315.206Z" fill="#7966FF"/>
<path d="M436.879 285.575C433.932 286.837 431.007 288.078 428.215 289.673C425.877 291.013 423.639 292.52 421.489 294.137C421.811 293.472 422.099 292.786 422.42 292.132C422.93 291.124 423.473 290.127 424.071 289.175C425.312 287.203 426.675 285.353 428.359 283.747C428.458 283.647 428.303 283.503 428.204 283.603C426.597 285.253 425.013 286.97 423.683 288.864C423.018 289.817 422.387 290.803 421.833 291.833C421.323 292.763 420.747 293.805 420.526 294.857C420.459 294.912 420.382 294.957 420.315 295.012C416.892 297.704 413.812 300.794 411.008 304.117C411.064 303.863 411.119 303.608 411.186 303.364C411.551 302.09 411.95 300.816 412.371 299.554C413.258 296.895 414.343 294.248 415.894 291.911C415.972 291.8 415.784 291.689 415.706 291.811C414.233 294.237 412.759 296.652 411.629 299.266C411.086 300.517 410.632 301.824 410.277 303.143C410.067 303.929 409.723 304.882 409.646 305.779C408.793 306.853 407.962 307.939 407.175 309.058C398.81 320.965 394.611 335.376 393.603 349.788C393.304 354.085 393.237 358.394 393.381 362.703C393.525 367.012 393.68 371.421 394.522 375.663C394.578 375.929 394.999 375.852 394.999 375.586C394.899 371.797 394.511 368.031 394.434 364.232C394.356 360.432 394.489 356.633 394.799 352.856C395.409 345.324 396.838 337.78 399.054 330.547C401.314 323.159 404.649 316.036 408.97 309.578C409.79 309.412 410.61 309.191 411.407 308.98C412.382 308.725 413.357 308.482 414.321 308.205C416.182 307.684 418.033 307.097 419.761 306.211C419.883 306.144 419.772 305.956 419.65 306.034C417.944 307.031 416.061 307.551 414.144 307.939C412.615 308.238 411.031 308.437 409.502 308.792C410.92 306.731 412.416 304.738 414.033 302.832C417.734 303.198 421.512 302.866 425.124 302.002C427.051 301.548 428.957 300.949 430.796 300.229C432.746 299.476 434.596 298.512 436.524 297.704C436.668 297.648 436.569 297.427 436.436 297.515C433.134 299.52 428.979 300.551 425.19 301.193C421.7 301.78 418.199 302.002 414.676 302.057C416.061 300.473 417.49 298.922 419.019 297.471C424.137 292.597 430.22 288.111 436.956 285.785C437.078 285.741 437.012 285.53 436.879 285.575Z" fill="#263238"/>
<path d="M421.023 285.662C420.148 286.77 419.339 287.933 418.63 289.152C417.888 290.448 417.345 291.788 416.913 293.217C416.902 293.261 416.968 293.294 416.99 293.25C417.644 291.965 418.187 290.636 418.852 289.351C419.505 288.088 420.27 286.903 421.178 285.806C421.267 285.696 421.101 285.552 421.023 285.662Z" fill="#263238"/>
<path d="M439.151 294.381C437.888 295.112 436.536 295.599 435.151 296.053C433.811 296.485 432.459 296.873 431.085 297.15C431.019 297.161 431.041 297.272 431.107 297.261C432.548 297.094 433.955 296.818 435.317 296.341C436.68 295.865 437.976 295.211 439.262 294.569C439.384 294.514 439.273 294.314 439.151 294.381Z" fill="#263238"/>
<path d="M389.617 310.496C389.496 311.626 386.67 300.981 370.184 291.521C355.216 282.936 337.356 260.605 352.025 246.493C363.88 235.106 395.08 259.93 389.617 310.496Z" fill="#7966FF"/>
<path d="M400.963 371.542C400.72 360.465 399.855 349.388 398.349 338.411C396.964 328.309 394.792 318.373 391.391 308.758C390.161 305.291 388.765 301.879 387.247 298.523C387.402 297.249 387.236 295.842 387.181 294.602C387.103 292.929 386.948 291.246 386.793 289.573C386.638 287.9 386.472 286.228 386.272 284.555C386.073 282.905 385.718 281.221 385.652 279.559C385.641 279.404 385.408 279.437 385.441 279.593C385.84 281.298 385.895 283.148 386.028 284.898C386.15 286.516 386.25 288.133 386.294 289.75C386.339 291.367 386.339 292.996 386.339 294.613C386.339 295.2 386.305 295.82 386.283 296.441C384.732 293.162 383.07 289.938 381.275 286.804C382.394 279.969 380.943 272.836 379.547 266.156C379.514 266.023 379.314 266.079 379.348 266.223C380.079 269.701 380.356 273.257 380.433 276.812C380.5 279.615 380.367 282.428 380.356 285.231C379.957 284.555 379.569 283.89 379.159 283.226C377.021 279.737 374.739 276.314 372.312 273.002C372.578 271.407 372.39 269.712 372.157 268.139C371.891 266.345 371.481 264.55 370.96 262.822C370.44 261.072 369.83 259.366 369.132 257.682C368.423 255.954 367.47 254.315 366.784 252.576C366.728 252.432 366.507 252.532 366.595 252.665C367.526 254.226 368.102 256.109 368.656 257.837C369.199 259.51 369.653 261.238 370.008 262.966C370.351 264.705 370.639 266.444 370.883 268.194C371.049 269.357 371.149 270.554 371.348 271.728C367.803 266.998 363.969 262.479 359.804 258.303C359.704 258.203 359.571 258.358 359.66 258.458C365.919 265.569 371.581 273.101 376.412 281.243C376.589 281.542 376.766 281.852 376.943 282.162C376.035 281.597 374.993 281.143 374.14 280.667C372.545 279.781 370.938 278.895 369.332 278.031C367.77 277.189 366.219 276.336 364.667 275.472C363.87 275.029 363.083 274.564 362.263 274.154C361.344 273.677 360.302 273.234 359.471 272.603C359.349 272.503 359.216 272.703 359.349 272.769C360.934 273.644 362.341 274.94 363.87 275.915C365.41 276.901 366.972 277.842 368.578 278.74C371.503 280.379 374.694 281.553 377.575 283.237C379.58 286.737 381.419 290.326 383.126 293.993C381.375 292.874 379.591 291.81 377.774 290.791C376.611 290.138 375.437 289.495 374.251 288.875C373.11 288.277 371.924 287.712 370.927 286.87C370.828 286.781 370.684 286.925 370.783 287.025C372.645 288.853 374.871 290.127 377.11 291.434C379.226 292.674 381.364 293.86 383.569 294.945C385.33 298.8 386.926 302.743 388.344 306.731C395.28 326.37 397.828 347.217 399.047 367.92C399.412 374.09 399.601 380.26 399.678 386.441C399.756 392.611 399.434 398.78 399.446 404.95C399.446 405.127 399.745 405.172 399.767 404.983C400.509 399.511 400.642 393.94 400.875 388.435C401.085 382.796 401.085 377.158 400.963 371.542Z" fill="#263238"/>
<path d="M371.015 282.639C367.99 281.398 365.099 279.715 362.262 278.108C359.404 276.491 356.623 274.741 353.942 272.836C353.897 272.803 353.842 272.88 353.886 272.913C356.424 274.94 359.083 276.835 361.875 278.496C364.777 280.213 367.835 281.487 370.915 282.827C371.037 282.883 371.148 282.694 371.015 282.639Z" fill="#263238"/>
<path d="M375.79 260.438C375.546 259.474 375.247 258.544 374.925 257.602C374.959 257.58 374.992 257.547 374.97 257.491C374.759 256.96 374.538 256.439 374.327 255.907C374.305 255.841 374.272 255.763 374.25 255.719C374.205 255.619 374.172 255.52 374.128 255.42C374.117 255.387 374.061 255.398 374.072 255.431C374.128 255.608 374.172 255.796 374.238 255.974C374.272 256.073 374.283 256.173 374.327 256.273C375.446 259.928 376.188 263.683 376.765 267.461C376.787 267.582 376.964 267.582 376.953 267.461C376.809 265.09 376.377 262.753 375.79 260.438Z" fill="#263238"/>
<path d="M418.377 375.525L417.203 389.46L413.602 431.962H375.034L371.434 389.46L370.259 375.525H418.377Z" fill="#37474F"/>
<path d="M418.377 375.525L417.203 389.46H371.434L370.259 375.525H418.377Z" fill="#263238"/>
<path d="M422.156 369.934H366.471V383.303H422.156V369.934Z" fill="#37474F"/>
<path d="M0.578125 431.967L56.6841 431.69L112.79 431.601L225.002 431.413L337.214 431.601L393.32 431.69L449.426 431.967L393.32 432.233L337.214 432.332L225.002 432.521L112.79 432.332L56.6841 432.233L0.578125 431.967Z" fill="#263238"/>
<path d="M318.63 7.88464H131.333C120.874 7.88464 112.387 16.5136 112.387 27.1807V412.669C112.387 423.314 120.874 431.965 131.333 431.965H318.63C329.1 431.965 337.598 423.314 337.598 412.669V27.1807C337.598 16.5136 329.1 7.88464 318.63 7.88464ZM325.754 400.75C325.754 410.897 318.153 419.105 308.78 419.105H141.216C131.82 419.105 124.22 410.897 124.22 400.75V41.7911C124.22 21.1216 131.82 20.1136 141.216 20.1136H174.775C176.725 20.1136 178.321 22.329 178.321 25.076V26.2613C178.321 32.697 181.844 32.7191 186.176 32.7191H263.798C268.163 32.7191 271.653 32.697 271.653 26.2613V25.076C271.653 22.329 273.227 20.1136 275.21 20.1136H308.78C318.153 20.1136 325.754 22.8607 325.754 41.7911V400.75Z" fill="#263238"/>
<path d="M235.58 24.6752H214.407C213.687 24.6752 213.1 24.0881 213.1 23.3681C213.1 22.6481 213.687 22.061 214.407 22.061H235.58C236.3 22.061 236.887 22.6481 236.887 23.3681C236.887 24.0881 236.3 24.6752 235.58 24.6752Z" fill="white"/>
<path d="M325.765 41.7933V400.753C325.765 410.899 318.165 419.107 308.791 419.107H141.227C131.832 419.107 124.231 410.899 124.231 400.753V41.7933C124.231 21.1237 131.832 20.1157 141.227 20.1157H174.786C176.736 20.1157 178.332 22.3311 178.332 25.0782V26.2634C178.332 32.6991 181.855 32.7213 186.187 32.7213H263.809C268.174 32.7213 271.664 32.6991 271.664 26.2634V25.0782C271.664 22.3311 273.238 20.1157 275.221 20.1157H308.791C318.165 20.1157 325.765 22.8628 325.765 41.7933Z" fill="white"/>
<path d="M144.63 55.4974L138.67 49.9257L144.63 44.3429L145.55 45.3287L140.642 49.9257L145.55 54.5226L144.63 55.4974Z" fill="#C7C7C7"/>
<path d="M310.159 46.4475C310.159 47.0899 309.638 47.6216 308.984 47.6216C308.331 47.6216 307.81 47.101 307.81 46.4475C307.81 45.7939 308.331 45.2733 308.984 45.2733C309.638 45.2733 310.159 45.805 310.159 46.4475Z" fill="#C7C7C7"/>
<path d="M310.159 50.6107C310.159 51.2531 309.638 51.7848 308.984 51.7848C308.331 51.7848 307.81 51.2642 307.81 50.6107C307.81 49.9682 308.331 49.4365 308.984 49.4365C309.638 49.4365 310.159 49.9682 310.159 50.6107Z" fill="#C7C7C7"/>
<path d="M310.159 54.7785C310.159 55.421 309.638 55.9527 308.984 55.9527C308.331 55.9527 307.81 55.4321 307.81 54.7785C307.81 54.1361 308.331 53.6044 308.984 53.6044C309.638 53.6044 310.159 54.1361 310.159 54.7785Z" fill="#C7C7C7"/>
<path d="M168.991 28.1787C168.881 28.2894 168.77 28.3891 168.67 28.4999C168.604 28.5664 168.548 28.6218 168.482 28.6882C167.607 27.8464 166.576 27.3922 165.357 27.3922C164.139 27.3922 163.108 27.8464 162.233 28.6882C162.178 28.6328 162.122 28.5664 162.056 28.511C161.945 28.4002 161.845 28.3005 161.734 28.1898H161.723C161.723 28.1898 161.723 28.1898 161.723 28.1787C161.734 28.1676 161.734 28.1676 161.746 28.1565C161.879 28.0347 162.011 27.9128 162.155 27.791C162.444 27.5473 162.765 27.3479 163.108 27.1818C163.507 26.9824 163.928 26.8384 164.36 26.7608C164.571 26.7276 164.781 26.7054 164.992 26.6722C165.058 26.6611 165.524 26.6611 165.546 26.6611C165.69 26.6722 165.834 26.6833 165.978 26.6944C166.377 26.7387 166.753 26.8384 167.13 26.9713C167.396 27.071 167.662 27.1928 167.906 27.3368C168.172 27.4919 168.415 27.6581 168.648 27.8574C168.77 27.9571 168.881 28.0679 168.991 28.1787C168.991 28.1676 168.991 28.1676 168.991 28.1787Z" fill="#C7C7C7"/>
<path d="M163.262 29.6983C163.096 29.5322 162.919 29.366 162.753 29.1888C163.34 28.6128 164.027 28.2472 164.836 28.1476C166.043 27.9814 167.085 28.3469 167.971 29.1888C167.794 29.366 167.628 29.5322 167.461 29.6983C166.885 29.1334 166.187 28.8343 165.367 28.8343C164.536 28.8343 163.838 29.1334 163.262 29.6983Z" fill="#C7C7C7"/>
<path d="M166.941 30.2158C166.775 30.3819 166.598 30.5591 166.432 30.7253C166.133 30.4373 165.778 30.2822 165.357 30.2822C164.936 30.2822 164.581 30.4373 164.282 30.7253C164.116 30.5591 163.939 30.3819 163.773 30.2158C164.581 29.3628 166.044 29.2964 166.941 30.2158Z" fill="#C7C7C7"/>
<path d="M165.822 31.1814C165.822 31.4362 165.611 31.6467 165.356 31.6467C165.102 31.6467 164.891 31.4362 164.891 31.1814C164.891 30.9266 165.102 30.7162 165.356 30.7162C165.611 30.7273 165.822 30.9266 165.822 31.1814Z" fill="#C7C7C7"/>
<path d="M137.373 29.1527C137.373 28.4105 137.971 27.8124 138.713 27.8124C139.455 27.8124 140.054 28.4105 140.054 29.1527C140.054 29.8948 139.455 30.493 138.713 30.493C137.971 30.493 137.373 29.8948 137.373 29.1527Z" fill="#C7C7C7"/>
<path d="M141.57 29.1527C141.57 28.4105 142.168 27.8124 142.91 27.8124C143.653 27.8124 144.251 28.4105 144.251 29.1527C144.251 29.8948 143.653 30.493 142.91 30.493C142.168 30.493 141.57 29.8948 141.57 29.1527Z" fill="#C7C7C7"/>
<path d="M145.781 29.1527C145.781 28.4105 146.379 27.8124 147.122 27.8124C147.864 27.8124 148.462 28.4105 148.462 29.1527C148.462 29.8948 147.864 30.493 147.122 30.493C146.379 30.493 145.781 29.8948 145.781 29.1527Z" fill="#C7C7C7"/>
<path d="M149.992 29.1527C149.992 28.4105 150.59 27.8124 151.333 27.8124C152.075 27.8124 152.673 28.4105 152.673 29.1527C152.673 29.8948 152.075 30.493 151.333 30.493C150.59 30.493 149.992 29.8948 149.992 29.1527Z" fill="#C7C7C7"/>
<path d="M154.189 29.1527C154.189 28.4105 154.788 27.8124 155.53 27.8124C156.272 27.8124 156.87 28.4105 156.87 29.1527C156.87 29.8948 156.272 30.493 155.53 30.493C154.788 30.493 154.189 29.8948 154.189 29.1527Z" fill="#C7C7C7"/>
<path d="M310.655 32.0787H299.763V27.0276H310.655V32.0787ZM300.328 31.5138H310.078V27.6036H300.328V31.5138Z" fill="#C7C7C7"/>
<path d="M307.684 27.8922H300.67V31.2153H307.684V27.8922Z" fill="#C7C7C7"/>
<path d="M311.617 28.2023H310.653V30.894H311.617V28.2023Z" fill="#C7C7C7"/>
<path d="M154.856 397.164H153.316V404.198H150.458V400.609H145.384V404.198H142.525V397.164H140.996L147.921 389.998L154.856 397.164Z" fill="#EBEBEB"/>
<path d="M309.017 389.998H292.309V392.379H309.017V389.998Z" fill="#EBEBEB"/>
<path d="M309.017 395.899H292.309V398.281H309.017V395.899Z" fill="#EBEBEB"/>
<path d="M309.017 401.806H292.309V404.187H309.017V401.806Z" fill="#EBEBEB"/>
<path d="M229.754 396.155L225.001 401.217L220.248 396.155L221.09 395.368L225.001 399.533L228.912 395.368L229.754 396.155Z" fill="#EBEBEB"/>
<path d="M225.001 406.457C220.248 406.457 216.371 402.591 216.371 397.828C216.371 393.076 220.237 389.199 225.001 389.199C229.754 389.199 233.632 393.065 233.632 397.828C233.632 402.58 229.754 406.457 225.001 406.457ZM225.001 390.34C220.869 390.34 217.512 393.696 217.512 397.828C217.512 401.96 220.869 405.316 225.001 405.316C229.134 405.316 232.491 401.96 232.491 397.828C232.491 393.696 229.134 390.34 225.001 390.34Z" fill="#EBEBEB"/>
<path d="M212.112 366.828C212.112 368.423 210.815 369.708 209.231 369.708C207.647 369.708 206.35 368.412 206.35 366.828C206.35 365.232 207.647 363.948 209.231 363.948C210.815 363.948 212.112 365.232 212.112 366.828Z" fill="#DBDBDB"/>
<path d="M229.674 366.827C229.674 369.231 227.724 371.191 225.309 371.191C222.905 371.191 220.944 369.242 220.944 366.827C220.944 364.423 222.894 362.463 225.309 362.463C227.713 362.463 229.674 364.412 229.674 366.827Z" fill="#7966FF"/>
<path d="M244.264 366.828C244.264 368.423 242.968 369.708 241.384 369.708C239.788 369.708 238.503 368.412 238.503 366.828C238.503 365.232 239.799 363.948 241.384 363.948C242.979 363.948 244.264 365.232 244.264 366.828Z" fill="#DBDBDB"/>
<path d="M263.256 286.586H185.501V311.31H263.256V286.586Z" fill="#7966FF"/>
<path d="M207.215 302.417V295.716C207.215 295.372 207.492 295.095 207.836 295.095C208.19 295.095 208.467 295.383 208.467 295.716V301.775H211.547C211.879 301.775 212.168 302.063 212.168 302.406C212.168 302.75 211.868 303.027 211.547 303.027H207.869C207.847 303.027 207.847 303.027 207.847 303.027C207.836 303.027 207.836 303.027 207.836 303.027C207.481 303.038 207.215 302.75 207.215 302.417Z" fill="white"/>
<path d="M219.413 296.079C220.122 296.832 220.554 297.829 220.554 298.948C220.554 300.067 220.111 301.086 219.413 301.817C218.748 302.559 217.74 303.035 216.699 303.035C215.613 303.035 214.605 302.559 213.918 301.817C213.209 301.075 212.799 300.067 212.799 298.948C212.799 297.829 213.22 296.821 213.918 296.079C214.605 295.326 215.613 294.861 216.699 294.861C217.751 294.861 218.748 295.326 219.413 296.079ZM219.269 298.948C219.269 298.173 218.959 297.464 218.494 296.965C218.017 296.456 217.386 296.157 216.699 296.157C215.968 296.157 215.336 296.456 214.86 296.965C214.383 297.464 214.084 298.184 214.084 298.948C214.084 299.723 214.383 300.432 214.86 300.92C215.336 301.429 215.968 301.739 216.699 301.739C217.386 301.739 218.017 301.429 218.494 300.92C218.959 300.432 219.269 299.723 219.269 298.948Z" fill="white"/>
<path d="M222.448 298.959C222.448 296.677 224.331 294.861 226.636 294.861C227.6 294.861 228.519 295.193 229.229 295.747C229.528 295.957 229.572 296.378 229.35 296.666C229.129 296.943 228.719 296.998 228.431 296.766C227.943 296.389 227.323 296.157 226.636 296.157C225.816 296.157 225.107 296.467 224.597 296.987C224.066 297.497 223.744 298.195 223.744 298.959C223.744 299.712 224.066 300.399 224.597 300.909C225.107 301.429 225.827 301.739 226.636 301.739C227.201 301.739 227.733 301.573 228.187 301.307V299.757H226.558C226.204 299.757 225.916 299.458 225.916 299.114C225.916 298.749 226.215 298.483 226.558 298.483H228.796C228.808 298.483 228.808 298.483 228.808 298.483C228.819 298.483 228.819 298.483 228.819 298.483C229.184 298.483 229.472 298.76 229.472 299.114V301.618C229.472 301.695 229.45 301.739 229.439 301.806C229.428 301.828 229.428 301.839 229.417 301.861V301.872C229.384 301.972 229.317 302.061 229.206 302.149C228.486 302.703 227.589 303.035 226.625 303.035C224.343 303.035 222.448 301.23 222.448 298.959Z" fill="white"/>
<path d="M232.135 295.716C232.135 295.361 232.412 295.095 232.755 295.095C233.099 295.095 233.387 295.372 233.387 295.716V302.417C233.387 302.772 233.088 303.038 232.755 303.038C232.401 303.038 232.135 302.761 232.135 302.417V295.716Z" fill="white"/>
<path d="M236.763 302.414C236.763 302.757 236.475 303.034 236.154 303.034C235.8 303.034 235.534 302.746 235.534 302.414V295.823C235.534 295.823 235.534 295.823 235.534 295.812C235.523 295.612 235.611 295.413 235.788 295.291C236.077 295.103 236.453 295.158 236.653 295.424L240.32 300.497V295.823C240.32 295.491 240.597 295.214 240.929 295.214C241.273 295.214 241.55 295.502 241.55 295.823V302.414C241.55 302.757 241.262 303.034 240.929 303.034C240.752 303.034 240.575 302.945 240.464 302.801C240.442 302.779 240.42 302.757 240.409 302.735L236.775 297.695V302.414H236.763Z" fill="white"/>
<path d="M243.79 95.1973V103.295H238.062V95.1973C238.062 87.4877 232.201 81.2182 225 81.2182C217.798 81.2182 211.937 87.4877 211.937 95.1973V115.468H206.209V95.1973C206.209 84.1536 214.641 75.1813 225 75.1813C235.359 75.1813 243.79 84.1647 243.79 95.1973Z" fill="#C7C7C7"/>
<path d="M206.209 103.318L211.937 103.55V115.469H206.209V103.318Z" fill="#A6A6A6"/>
<path d="M251.136 108.679H198.863V156.089H251.136V108.679Z" fill="#7966FF"/>
<path opacity="0.1" d="M251.136 108.679H225V156.089H251.136V108.679Z" fill="black"/>
<path d="M227.204 134.12L229.387 144.499H220.103L222.285 134.12C220.978 133.289 220.103 131.849 220.103 130.199C220.103 127.607 222.185 125.557 224.745 125.557C227.304 125.557 229.387 127.607 229.387 130.199C229.398 131.849 228.512 133.289 227.204 134.12Z" fill="#263238"/>
<path d="M292.316 208.402H157.691V231.442H292.316V208.402Z" fill="white"/>
<path d="M292.859 231.996H157.136V207.848H292.87V231.996H292.859ZM158.244 230.888H291.762V208.955H158.244V230.888Z" fill="#EBEBEB"/>
<path d="M171.663 214.76H170.555V224.607H171.663V214.76Z" fill="#37474F"/>
<path d="M176.038 219.125H166.188V220.233H176.038V219.125Z" fill="#37474F"/>
<path d="M174.218 215.805L167.251 222.767L168.034 223.55L175.002 216.589L174.218 215.805Z" fill="#37474F"/>
<path d="M168.015 215.809L167.232 216.592L174.197 223.555L174.98 222.772L168.015 215.809Z" fill="#37474F"/>
<path d="M188.371 214.76H187.263V224.607H188.371V214.76Z" fill="#37474F"/>
<path d="M192.747 219.125H182.897V220.233H192.747V219.125Z" fill="#37474F"/>
<path d="M190.927 215.805L183.959 222.767L184.742 223.55L191.71 216.589L190.927 215.805Z" fill="#37474F"/>
<path d="M184.724 215.8L183.94 216.583L190.905 223.546L191.688 222.763L184.724 215.8Z" fill="#37474F"/>
<path d="M205.08 214.76H203.972V224.607H205.08V214.76Z" fill="#37474F"/>
<path d="M209.455 219.125H199.606V220.233H209.455V219.125Z" fill="#37474F"/>
<path d="M207.616 215.805L200.649 222.767L201.432 223.55L208.399 216.589L207.616 215.805Z" fill="#37474F"/>
<path d="M201.433 215.8L200.649 216.583L207.614 223.546L208.397 222.763L201.433 215.8Z" fill="#37474F"/>
<path d="M221.793 214.76H220.685V224.607H221.793V214.76Z" fill="#37474F"/>
<path d="M226.159 219.125H216.31V220.233H226.159V219.125Z" fill="#37474F"/>
<path d="M224.344 215.805L217.376 222.767L218.16 223.55L225.127 216.589L224.344 215.805Z" fill="#37474F"/>
<path d="M218.146 215.804L217.362 216.588L224.327 223.551L225.11 222.767L218.146 215.804Z" fill="#37474F"/>
<path d="M238.502 214.76H237.394V224.607H238.502V214.76Z" fill="#37474F"/>
<path d="M242.868 219.125H233.018V220.233H242.868V219.125Z" fill="#37474F"/>
<path d="M241.053 215.81L234.085 222.771L234.868 223.555L241.836 216.594L241.053 215.81Z" fill="#37474F"/>
<path d="M234.206 216.523L233.423 217.307L240.387 224.27L241.171 223.486L234.206 216.523Z" fill="#37474F"/>
<path d="M255.211 214.76H254.103V224.607H255.211V214.76Z" fill="#37474F"/>
<path d="M259.586 219.125H249.736V220.233H259.586V219.125Z" fill="#37474F"/>
<path d="M257.737 215.81L250.77 222.771L251.553 223.555L258.52 216.594L257.737 215.81Z" fill="#37474F"/>
<path d="M251.559 215.795L250.775 216.578L257.74 223.541L258.523 222.758L251.559 215.795Z" fill="#37474F"/>
<path d="M280.818 223.481C277.106 223.481 274.791 220.324 274.691 220.191L274.458 219.87L274.691 219.549C274.791 219.416 277.106 216.259 280.818 216.259C284.53 216.259 286.845 219.416 286.934 219.549L287.167 219.87L286.934 220.191C286.834 220.335 284.53 223.481 280.818 223.481ZM275.854 219.87C276.508 220.612 278.336 222.373 280.818 222.373C283.3 222.373 285.117 220.612 285.771 219.87C285.117 219.128 283.3 217.366 280.818 217.366C278.325 217.366 276.508 219.128 275.854 219.87Z" fill="#EBEBEB"/>
<path d="M280.805 222.362C282.182 222.362 283.298 221.246 283.298 219.869C283.298 218.493 282.182 217.377 280.805 217.377C279.429 217.377 278.312 218.493 278.312 219.869C278.312 221.246 279.429 222.362 280.805 222.362Z" fill="#EBEBEB"/>
<path d="M284.937 214.864L276.085 223.716L276.868 224.499L285.721 215.647L284.937 214.864Z" fill="#EBEBEB"/>
<path d="M188.802 184.412H187.04V187.524C187.04 187.956 186.685 188.311 186.231 188.311C185.799 188.311 185.445 187.956 185.445 187.524V179.051C185.445 178.607 185.799 178.264 186.231 178.264H186.242H188.802C190.508 178.264 191.893 179.638 191.893 181.355C191.893 183.027 190.508 184.412 188.802 184.412ZM187.029 182.817H188.791C189.621 182.817 190.275 182.152 190.286 181.355C190.275 180.524 189.621 179.859 188.791 179.859H187.029V182.817Z" fill="#FFC727"/>
<path d="M197.943 185.94H194.453L193.755 187.812C193.622 188.134 193.323 188.311 193.013 188.311C192.913 188.311 192.824 188.3 192.736 188.267C192.315 188.111 192.115 187.646 192.259 187.236L195.439 178.774C195.572 178.452 195.882 178.253 196.203 178.275C196.536 178.264 196.835 178.463 196.968 178.774L200.148 187.236C200.292 187.657 200.092 188.111 199.671 188.267C199.605 188.3 199.494 188.311 199.394 188.311C199.073 188.311 198.774 188.123 198.663 187.812L197.943 185.94ZM197.356 184.367L196.192 181.277L195.029 184.367H197.356Z" fill="#FFC727"/>
<path d="M201.534 185.818C201.789 185.497 202.265 185.464 202.587 185.719C203.218 186.239 204.315 186.837 205.334 186.826C206.054 186.826 206.697 186.616 207.129 186.295C207.561 185.973 207.75 185.619 207.75 185.264C207.75 185.076 207.705 184.943 207.617 184.81C207.528 184.666 207.406 184.522 207.185 184.378C206.764 184.101 206.066 183.858 205.212 183.703H205.179C204.503 183.57 203.872 183.403 203.329 183.138C202.786 182.883 202.31 182.517 201.988 182.019C201.778 181.675 201.656 181.277 201.656 180.845C201.656 179.981 202.143 179.239 202.808 178.751C203.484 178.264 204.359 177.987 205.29 177.987C206.664 177.987 207.694 178.663 208.425 179.139C208.758 179.371 208.858 179.826 208.625 180.158C208.414 180.501 207.949 180.601 207.606 180.368C206.874 179.881 206.165 179.449 205.29 179.449C204.647 179.449 204.071 179.648 203.683 179.936C203.296 180.224 203.141 180.535 203.141 180.845C203.141 181.022 203.174 181.133 203.24 181.243C203.307 181.354 203.44 181.487 203.628 181.62C204.005 181.875 204.647 182.107 205.423 182.251H205.456C206.187 182.395 206.863 182.584 207.439 182.85C208.027 183.138 208.547 183.514 208.88 184.046C209.09 184.389 209.223 184.821 209.223 185.264C209.223 186.184 208.702 186.97 207.982 187.491C207.284 188.011 206.343 188.311 205.323 188.311C203.772 188.299 202.465 187.524 201.645 186.871C201.335 186.605 201.29 186.128 201.534 185.818Z" fill="#FFC727"/>
<path d="M210.985 185.818C211.239 185.497 211.716 185.464 212.037 185.719C212.669 186.239 213.766 186.837 214.785 186.826C215.505 186.826 216.148 186.616 216.58 186.295C217.012 185.973 217.2 185.619 217.2 185.264C217.2 185.076 217.156 184.943 217.067 184.81C216.979 184.666 216.857 184.522 216.635 184.378C216.214 184.101 215.516 183.858 214.663 183.703H214.63C213.954 183.57 213.322 183.403 212.78 183.138C212.237 182.883 211.76 182.517 211.439 182.019C211.228 181.675 211.107 181.277 211.107 180.845C211.107 179.981 211.594 179.239 212.259 178.751C212.935 178.264 213.81 177.987 214.741 177.987C216.114 177.987 217.145 178.663 217.876 179.139C218.208 179.371 218.308 179.826 218.075 180.158C217.865 180.501 217.4 180.601 217.056 180.368C216.325 179.881 215.616 179.449 214.741 179.449C214.098 179.449 213.522 179.648 213.134 179.936C212.746 180.224 212.591 180.535 212.591 180.845C212.591 181.022 212.624 181.133 212.691 181.243C212.757 181.354 212.89 181.487 213.079 181.62C213.455 181.875 214.098 182.107 214.874 182.251H214.907C215.638 182.395 216.314 182.584 216.89 182.85C217.477 183.138 217.998 183.514 218.33 184.046C218.541 184.389 218.674 184.821 218.674 185.264C218.674 186.184 218.153 186.97 217.433 187.491C216.735 188.011 215.793 188.311 214.774 188.311C213.223 188.299 211.915 187.524 211.095 186.871C210.774 186.605 210.741 186.128 210.985 185.818Z" fill="#FFC727"/>
<path d="M233.774 179.449L230.251 187.823C230.24 187.867 230.207 187.922 230.173 187.956L230.162 187.967C230.151 188 230.118 188.022 230.096 188.055C230.096 188.089 230.085 188.089 230.085 188.1C230.052 188.111 230.018 188.144 229.985 188.166H229.974C229.93 188.199 229.908 188.244 229.841 188.255H229.83C229.83 188.255 229.819 188.255 229.819 188.266C229.786 188.266 229.752 188.277 229.708 188.299C229.697 188.299 229.675 188.299 229.675 188.299C229.631 188.31 229.586 188.31 229.531 188.31C229.486 188.31 229.442 188.31 229.398 188.299C229.365 188.299 229.354 188.299 229.354 188.299C229.309 188.288 229.287 188.266 229.254 188.266C229.243 188.255 229.243 188.255 229.221 188.255C229.165 188.244 229.121 188.199 229.088 188.166C229.077 188.166 229.077 188.166 229.077 188.166C229.032 188.133 228.999 188.111 228.977 188.1C228.966 188.089 228.966 188.089 228.944 188.055C228.933 188.022 228.899 188 228.888 187.967C228.855 187.967 228.855 187.956 228.855 187.956C228.822 187.922 228.811 187.867 228.8 187.823L226.916 183.37L225.033 187.823C225.022 187.867 224.988 187.922 224.977 187.956C224.966 187.956 224.966 187.967 224.966 187.967C224.933 188 224.911 188.022 224.877 188.055C224.877 188.089 224.866 188.089 224.866 188.1C224.833 188.111 224.811 188.144 224.778 188.166C224.745 188.166 224.745 188.166 224.745 188.166C224.7 188.199 224.656 188.244 224.634 188.255C224.623 188.255 224.623 188.255 224.623 188.255C224.623 188.255 224.612 188.255 224.612 188.266C224.556 188.266 224.523 188.277 224.501 188.299C224.49 188.299 224.468 188.299 224.456 188.299C224.412 188.31 224.368 188.31 224.324 188.31C224.279 188.31 224.224 188.31 224.179 188.299C224.168 188.299 224.146 188.299 224.135 188.299C224.091 188.288 224.058 188.266 224.035 188.266C224.024 188.255 224.024 188.255 224.002 188.255C223.958 188.244 223.902 188.199 223.869 188.166C223.858 188.166 223.858 188.166 223.858 188.166C223.814 188.133 223.803 188.111 223.758 188.1C223.747 188.089 223.747 188.089 223.725 188.055C223.692 188.022 223.681 188 223.659 187.967V187.956C223.626 187.922 223.614 187.867 223.581 187.823L220.047 179.449C219.892 179.061 220.058 178.585 220.479 178.429C220.867 178.252 221.343 178.441 221.498 178.85L224.312 185.497L226.163 181.088C226.296 180.767 226.595 180.601 226.905 180.601C227.204 180.601 227.503 180.778 227.647 181.088L229.498 185.497L232.301 178.85C232.478 178.452 232.932 178.263 233.353 178.429C233.752 178.585 233.94 179.061 233.774 179.449Z" fill="#FFC727"/>
<path d="M243.787 179.503C244.673 180.456 245.238 181.718 245.238 183.136C245.238 184.554 244.673 185.839 243.787 186.77C242.934 187.7 241.671 188.309 240.352 188.309C238.978 188.309 237.704 187.711 236.829 186.77C235.942 185.839 235.411 184.554 235.411 183.136C235.411 181.718 235.942 180.456 236.829 179.503C237.704 178.55 238.967 177.963 240.352 177.963C241.671 177.974 242.945 178.562 243.787 179.503ZM243.598 183.136C243.598 182.162 243.211 181.253 242.623 180.622C242.025 179.979 241.216 179.603 240.352 179.603C239.432 179.603 238.624 179.979 238.025 180.622C237.427 181.253 237.05 182.162 237.05 183.136C237.05 184.111 237.427 185.019 238.025 185.64C238.624 186.282 239.432 186.67 240.352 186.67C241.216 186.67 242.014 186.282 242.623 185.64C243.211 185.019 243.598 184.122 243.598 183.136Z" fill="#FFC727"/>
<path d="M254.724 187.126C254.868 187.547 254.635 187.99 254.225 188.134C254.17 188.145 254.048 188.178 253.904 188.178C253.904 188.178 253.904 188.178 253.893 188.178C253.749 188.178 253.538 188.145 253.328 188.023C253.14 187.912 252.984 187.724 252.874 187.524C252.674 187.103 252.574 186.594 252.574 185.796C252.563 185.519 252.508 185.342 252.397 185.176C252.309 185.021 252.142 184.877 251.965 184.755C251.666 184.556 251.289 184.434 251.156 184.412H249.461V187.524C249.461 187.956 249.107 188.311 248.652 188.311C248.209 188.311 247.866 187.956 247.866 187.524V179.051C247.866 178.607 248.209 178.264 248.652 178.264C248.652 178.264 248.652 178.264 248.663 178.264H251.223C252.929 178.264 254.292 179.638 254.292 181.355C254.292 182.307 253.86 183.138 253.173 183.714C253.361 183.858 253.527 184.035 253.671 184.246C253.959 184.667 254.148 185.198 254.148 185.796C254.137 186.228 254.181 186.505 254.203 186.638C254.458 186.705 254.646 186.882 254.724 187.126ZM252.719 181.343C252.719 180.513 252.054 179.848 251.234 179.848H249.472V182.806H251.234C252.054 182.817 252.719 182.152 252.719 181.343Z" fill="#FFC727"/>
<path d="M257.064 187.524V179.051C257.064 178.607 257.407 178.264 257.85 178.264H259.545C262.315 178.264 264.564 180.524 264.564 183.282C264.564 186.073 262.326 188.322 259.545 188.322H257.85C257.407 188.311 257.064 187.956 257.064 187.524ZM258.659 186.716H259.545C261.44 186.705 262.969 185.176 262.969 183.271C262.969 181.388 261.451 179.848 259.545 179.848H258.659V186.716Z" fill="#FFC727"/>
<path d="M428.928 56.3066C428.928 56.3066 420.474 123.942 406.592 139.162C389.917 157.417 377.818 154.747 371.093 164.163C371.082 164.163 371.082 164.174 371.082 164.174C364.346 154.747 352.247 157.428 335.573 139.162C321.69 123.942 313.248 56.3066 313.248 56.3066C349.843 38.5503 371.082 18.645 371.082 18.645C371.082 18.645 371.082 18.645 371.093 18.6561C371.736 19.2653 392.897 38.8272 428.928 56.3066Z" fill="#37474F"/>
<path d="M371.084 18.6541V164.161C371.073 164.161 371.073 164.172 371.073 164.172C364.337 154.745 352.238 157.426 335.563 139.16C321.681 123.94 313.239 56.3046 313.239 56.3046C349.834 38.5483 371.073 18.643 371.073 18.643C371.073 18.643 371.073 18.632 371.084 18.6541Z" fill="#455A64"/>
<path d="M419.945 61.7556C419.945 61.7556 412.81 118.89 401.077 131.751C386.984 147.192 376.758 144.932 371.063 152.886C365.38 144.932 355.153 147.203 341.049 131.751C329.316 118.89 322.192 61.7556 322.192 61.7556C353.104 46.7463 371.052 29.9315 371.052 29.9315C371.052 29.9315 389.034 46.7463 419.945 61.7556Z" fill="#455A64"/>
<path d="M322.225 61.7539C322.225 61.7539 329.36 118.878 341.093 131.749C355.175 147.179 365.39 144.931 371.085 152.862V29.9409C370.542 30.4615 352.66 46.9772 322.225 61.7539Z" fill="#37474F"/>
<path d="M387.105 107.424C395.953 98.5775 395.953 84.235 387.105 75.3888C378.257 66.5426 363.911 66.5426 355.063 75.3888C346.215 84.235 346.215 98.5775 355.063 107.424C363.911 116.27 378.257 116.27 387.105 107.424Z" fill="#7966FF"/>
<path d="M368.504 106.126L358.411 95.6251L362.155 92.0251L367.717 97.8073L379.705 79.4196L384.059 82.2553L368.504 106.126Z" fill="white"/>
<path d="M37.0605 218.918H114.793V202.823H37.0605V218.918Z" fill="#C7C7C7"/>
<path d="M93.9302 218.782L96.1017 239.352L122.98 431.913H130.658L109.452 239.352L107.724 218.782H93.9302Z" fill="#C7C7C7"/>
<path d="M21.1736 431.913H28.8627L55.7412 239.352L57.9128 218.782H44.1079L42.3906 239.352L21.1736 431.913Z" fill="#C7C7C7"/>
<path d="M34.1451 369.003H119.888V364.174H34.1451V369.003Z" fill="#C7C7C7"/>
<path d="M109.452 238.632H96.1017L93.9302 218.782H107.724L109.452 238.632Z" fill="#A6A6A6"/>
<path d="M42.3896 238.632H55.7403L57.9118 218.782H44.107L42.3896 238.632Z" fill="#A6A6A6"/>
<path d="M47.4308 125.468C50.6992 127.174 51.3307 133.056 61.6789 132.735C63.1524 132.69 64.3601 132.103 65.7118 132.602C67.6839 133.333 69.2572 134.906 71.0188 136.058C72.4702 137.01 74.0434 137.642 75.7275 137.874C78.9294 138.329 82.2311 137.442 84.9899 135.737C86.685 134.695 88.1143 133.244 89.7429 132.126C91.294 131.062 101.277 128.603 102.95 123.042C104.002 119.509 103.847 115.488 99.6479 110.326C98.8058 109.296 97.8752 108.31 97.7533 106.892C97.6425 105.696 98.13 104.655 98.5178 103.569C98.961 102.351 99.4484 101.088 99.1271 99.7587C98.8058 98.4184 97.7533 97.5101 96.9334 96.5132C95.3823 94.6412 95.6704 91.9384 96.9445 88.6153C98.0303 85.7797 97.5096 82.5784 95.9474 80.0529C94.9945 78.5132 93.665 77.3944 92.3798 76.1759C90.4852 74.3815 90.1418 72.7199 89.3108 70.1833C87.7043 65.2984 85.2004 63.1162 82.2311 61.6208C79.561 60.2695 79.6496 60.7901 76.7911 61.2221C73.9326 59.4387 70.4205 58.7076 67.1188 59.1285C63.9945 59.5273 61.413 61.6208 59.0531 63.6258C56.948 65.4202 55.0202 67.3476 54.9094 70.3716C54.8429 72.1107 55.2639 73.8498 55.1863 75.5889C55.0866 77.8043 53.8457 79.211 52.3722 80.6067C50.3225 82.5563 48.5498 84.8935 48.0623 87.84C47.6856 90.1994 50.0012 93.8658 47.2868 97.3551C44.8825 100.434 40.6724 103.979 39.5534 107.867C36.0966 119.897 44.2953 123.829 47.4308 125.468Z" fill="#263238"/>
<path d="M87.5047 131.96C92.2577 131.24 99.5701 132.137 102.085 126.842C103.969 125.225 105.21 122.976 105.054 120.041C104.91 117.238 103.271 114.801 101.465 112.83C100.423 111.689 99.1712 110.559 98.4511 109.141C98.1741 108.089 97.9858 107.003 97.8639 105.918C97.9968 104.533 98.5176 103.171 99.0051 101.886C99.0161 101.852 98.9607 101.83 98.9497 101.863C97.9193 104.046 96.9554 106.483 97.9193 108.908C98.0633 109.263 98.2295 109.595 98.4178 109.916C98.7613 111.19 99.2266 112.42 99.836 113.627C101.398 116.729 102.827 119.531 102.617 123.153C102.539 124.56 102.229 125.701 101.764 126.643C99.7806 128.526 97.1216 129.445 94.4182 129.822C94.3517 129.833 94.3517 129.944 94.4182 129.932C96.7559 129.678 99.282 128.858 101.287 127.44C98.5286 131.395 92.1137 130.852 87.4714 131.771C87.3606 131.827 87.4049 131.971 87.5047 131.96ZM102.451 125.945C102.462 125.911 102.473 125.878 102.484 125.845C103.381 123.031 102.994 119.731 101.886 117.028C101.121 115.178 100.002 113.516 99.2599 111.655C99.138 111.334 99.0161 111.013 98.9053 110.681C99.969 112.132 101.398 113.339 102.44 114.746C104.7 117.825 105.365 121.492 103.26 124.837C103.016 125.236 102.739 125.601 102.451 125.945Z" fill="#263238"/>
<path d="M37.1921 119.71C37.2585 119.809 37.4026 119.721 37.3472 119.621C35.3418 116.143 35.9069 112.554 37.5134 109.353C36.7378 114.138 37.6796 119.488 42.0448 122.047C42.1224 122.091 42.1778 121.969 42.1113 121.925C37.5909 119.222 36.9151 113.041 38.1338 108.212C39.131 106.528 40.3718 104.977 41.6349 103.626C43.7178 101.388 46.2882 99.1841 47.8283 96.437C47.5624 97.9435 46.7536 99.2617 45.2689 100.458C45.1914 100.513 45.2689 100.657 45.3465 100.591C46.7314 99.5829 47.8504 98.2204 48.2271 96.4592C48.3047 96.1047 48.3379 95.7503 48.3379 95.3958C48.7146 94.5207 48.9916 93.5903 49.1024 92.5823C49.1024 92.549 49.047 92.538 49.047 92.5712C48.9251 93.4574 48.6814 94.2881 48.3379 95.0857C48.2825 93.5903 47.7064 92.1281 47.3186 90.6881C46.1996 86.5453 48.2936 84.0973 50.864 81.8709C51.0745 81.738 51.285 81.605 51.4955 81.4832C52.8583 80.6524 54.1657 79.7109 54.9191 78.3263C55.0963 78.1379 55.2736 77.9496 55.4398 77.7613C55.4509 77.7503 55.4398 77.7392 55.4287 77.7503C55.2958 77.8943 55.1517 78.0272 55.0077 78.1601C55.185 77.7946 55.329 77.3958 55.4287 76.9638C55.4287 76.9527 55.4066 76.9306 55.4066 76.9527C55.1185 77.6949 54.7196 78.3041 54.2432 78.8469C53.2239 79.6998 52.0938 80.4863 51.008 81.317C48.9916 82.5466 46.953 83.7207 46.1664 86.1909C45.424 88.5281 46.0002 91.0647 46.1885 93.4463C46.4766 97.146 45.136 100.225 41.8011 101.699C41.7457 101.721 41.7346 101.776 41.8011 101.754C42.0448 101.665 42.3218 101.599 42.5545 101.488C40.5824 103.094 38.8872 104.844 38.0119 107.459C35.6742 111.114 34.6881 115.8 37.1921 119.71ZM45.8007 98.9294C45.424 99.2284 45.0473 99.5164 44.6706 99.8044C45.1914 99.1841 45.6235 98.4752 45.9005 97.6777C46.8311 95.0635 46.0556 92.2167 46.0002 89.525C45.9337 86.6783 46.9308 84.9503 48.5263 83.5546C47.7839 84.4075 47.1857 85.3823 46.8311 86.5453C46.2439 88.5281 46.8533 90.378 47.4294 92.2943C47.8283 93.6457 47.9945 94.8863 47.8726 96.0161C47.3186 97.0463 46.5985 98.01 45.8007 98.9294ZM38.854 106.196C39.9287 103.98 41.7235 102.363 43.5959 100.824C43.7289 100.724 43.8619 100.613 43.9837 100.502C44.5155 100.07 45.0473 99.6383 45.5681 99.1952C43.4076 101.621 40.7042 103.781 38.854 106.196Z" fill="#263238"/>
<path d="M43.9383 122.757C43.9608 122.757 43.9608 122.802 43.9383 122.802C43.9158 122.802 43.9045 122.757 43.9383 122.757Z" fill="#263238"/>
<path d="M91.7154 75.458C93.4548 76.9977 95.2054 78.6371 96.7786 80.354C97.8644 81.5392 98.5624 82.8796 98.651 84.5522C98.7397 86.2469 98.1303 87.6205 97.2218 88.9719C96.8673 89.5036 96.5016 90.0574 96.1803 90.6113C96.1249 91.6193 96.2247 92.6273 96.6568 93.6353C97.4212 95.4629 99.1496 96.5817 99.9473 98.4316C101.233 101.422 99.8033 103.881 98.5402 106.551C98.5292 106.573 98.507 106.551 98.5181 106.54C99.4266 104.347 100.701 102.187 100.003 99.7165C99.4266 97.6783 97.942 96.5928 96.8229 94.9423C96.1139 93.9011 95.8036 92.6826 95.7372 91.4309C94.74 93.4359 94.3855 95.5626 96.1471 97.6894C96.2247 97.7891 96.1028 97.922 96.0142 97.8334C93.7872 95.5737 94.3744 92.8377 95.7372 90.4562C95.8147 89.0383 96.1803 87.6094 96.6678 86.3688C96.7232 86.2248 96.9227 86.3356 96.8894 86.4685C96.69 87.5097 96.4352 88.5509 96.2801 89.5811C96.3576 89.4593 96.4352 89.3485 96.5127 89.2377C98.2854 86.7011 98.9834 83.7546 96.9448 81.0408C95.4159 79.0137 93.3329 77.4186 91.6267 75.5466C91.6046 75.4912 91.671 75.4248 91.7154 75.458Z" fill="#263238"/>
<path d="M105.04 284.608C105.04 284.608 85.1967 328.672 85.1746 328.705C81.33 337.112 78.117 344.556 76.8096 348.555C76.7986 348.577 76.7875 348.599 76.7875 348.621C76.2889 350.128 76.0784 351.136 76.2224 351.501C76.2335 351.534 76.2335 351.557 76.2446 351.579C77.973 354.414 144.272 387.058 146.975 387.413C149.679 387.789 150.909 380.124 149.346 376.801C147.762 373.467 127.974 349.629 127.974 349.629L147.396 305.399L105.04 284.608Z" fill="#EB9481"/>
<path d="M89.2507 319.656C89.2507 319.656 85.1957 328.673 85.1735 328.706C81.329 337.113 78.116 344.557 76.8086 348.556C76.7975 348.578 76.7864 348.6 76.7864 348.622C76.3876 350.151 76.1771 351.192 76.2214 351.502C76.2325 351.536 76.2325 351.558 76.2436 351.58C77.9719 354.416 144.271 387.059 146.974 387.414C149.678 387.79 150.907 380.125 149.345 376.802C147.761 373.468 127.973 349.63 127.973 349.63L132.239 340.503L89.2507 319.656Z" fill="#EBEBEB"/>
<path d="M146.962 387.313C144.259 386.959 77.9267 354.382 76.1983 351.546C75.5225 350.472 79.6994 340.536 85.1062 328.672C85.1616 328.55 85.217 328.428 85.2834 328.307L128.316 348.843L127.939 349.563C127.939 349.563 147.749 373.379 149.333 376.713C150.884 380.014 149.666 387.679 146.962 387.313Z" fill="#263238"/>
<path d="M149.146 385.429C150.11 386.471 147.894 390.325 146.875 390.226C145.856 390.126 73.6955 354.292 72.5987 353.417C71.5018 352.542 74.1276 348.355 75.6566 348.82C77.2077 349.308 149.146 385.429 149.146 385.429Z" fill="#7966FF"/>
<path d="M131.463 351.446C127.463 348.466 121.757 346.494 116.849 347.979C116.661 348.034 116.738 348.3 116.904 348.333C121.912 349.098 126.399 350.205 131.164 352C131.507 352.122 131.751 351.656 131.463 351.446Z" fill="white"/>
<path d="M133.7 354.923C129.7 351.943 123.995 349.972 119.086 351.456C118.898 351.511 118.976 351.788 119.142 351.81C124.161 352.575 128.637 353.682 133.401 355.477C133.744 355.588 133.988 355.133 133.7 354.923Z" fill="white"/>
<path d="M135.937 358.391C131.937 355.411 126.232 353.439 121.323 354.924C121.135 354.979 121.213 355.245 121.379 355.278C126.387 356.042 130.874 357.15 135.638 358.944C135.981 359.066 136.225 358.612 135.937 358.391Z" fill="white"/>
<path d="M92.5843 341.1C88.9613 336.337 81.5382 341.964 85.1722 346.738C88.7951 351.512 96.2183 345.874 92.5843 341.1Z" fill="white"/>
<path d="M116.74 246.306C116.297 259.122 91.5897 314.484 91.5897 314.484L134.932 334.423C134.932 334.423 169.91 272.879 166.663 244.522C163.894 220.463 103.356 175.967 93.6283 163.428C92.188 161.567 92.6754 154.079 92.6754 154.079H53.3547V163.428C68.3784 195.285 113.283 233.501 116.607 244.722C116.729 245.12 116.773 245.652 116.74 246.295V246.306Z" fill="#37474F"/>
<path d="M134.679 325.162C127.544 321.739 129.649 322.625 122.47 319.291C118.957 317.663 101.341 309.411 97.7958 308.48C97.7183 308.458 97.6629 308.591 97.7294 308.635C100.765 310.696 118.57 318.527 122.115 320.078C129.35 323.268 127.311 322.271 134.579 325.372C134.712 325.439 134.812 325.228 134.679 325.162Z" fill="#263238"/>
<path d="M63.2838 170.142C75.2163 188.186 88.3453 205.378 102.959 221.351C106.516 225.239 110.183 229.027 113.861 232.804C116.963 236.005 120.132 239.561 120.897 244.114C121.761 249.176 119.766 254.238 118.193 258.957C116.454 264.163 114.714 269.369 112.864 274.531C110.87 280.103 102.715 300.218 101.364 302.932C100.688 304.284 112.155 275.295 114.016 269.879C115.855 264.54 117.772 259.189 119.345 253.762C120.154 250.992 120.786 248.068 120.487 245.177C120.187 242.33 118.947 239.783 117.251 237.512C114.072 233.258 109.917 229.647 106.294 225.77C98.7821 217.728 91.6137 209.365 84.811 200.714C77.0998 190.911 69.8095 180.743 63.1397 170.197C63.0954 170.131 63.2284 170.053 63.2838 170.142Z" fill="#263238"/>
<path d="M39.9371 380.68C39.9371 380.68 38.0093 428.986 38.0093 429.02C38.2309 438.258 38.5854 446.355 39.1615 450.531C39.1615 450.553 39.1615 450.575 39.1726 450.597C39.3831 452.17 39.6379 453.178 39.926 453.433C39.9482 453.455 39.9592 453.477 39.9814 453.489C42.7734 455.283 116.684 455.704 119.265 454.851C121.858 454.009 119.62 446.576 116.761 444.272C113.881 441.968 85.6728 429.152 85.6728 429.152L87.1463 380.879L39.9371 380.68Z" fill="#EB9481"/>
<path d="M38.386 419.462C38.386 419.462 38.0093 428.988 38.0093 429.021C38.2309 438.259 38.5854 446.356 39.1615 450.532C39.1615 450.555 39.1615 450.577 39.1726 450.599C39.4828 452.15 39.7487 453.18 39.926 453.435C39.9482 453.457 39.9592 453.479 39.9814 453.49C42.7734 455.284 116.684 455.705 119.265 454.852C121.858 454.011 119.62 446.578 116.761 444.274C113.881 441.97 85.6728 429.154 85.6728 429.154L85.9719 419.384L38.386 419.462Z" fill="#EBEBEB"/>
<path d="M119.189 454.772C116.607 455.625 42.708 455.292 39.9049 453.487C38.8302 452.822 38.2541 442.055 37.9217 429.018C37.9217 428.885 37.9217 428.741 37.9106 428.608L85.5852 428.298L85.5631 429.106C85.5631 429.106 113.793 441.889 116.663 444.193C119.532 446.486 121.782 453.919 119.189 454.772Z" fill="#263238"/>
<path d="M120.331 452.126C121.649 452.646 121.35 457.077 120.386 457.431C119.434 457.786 38.8533 457.055 37.4905 456.745C36.1167 456.434 36.6485 451.516 38.2439 451.273C39.8394 451.029 120.331 452.126 120.331 452.126Z" fill="#7966FF"/>
<path d="M89.5855 429.271C84.6884 428.329 78.6944 429.061 74.9275 432.528C74.7834 432.661 74.9718 432.871 75.138 432.816C79.9797 431.309 84.5 430.357 89.5633 429.88C89.9179 429.858 89.9289 429.337 89.5855 429.271Z" fill="white"/>
<path d="M93.1106 431.418C88.2135 430.477 82.2196 431.208 78.4526 434.675C78.3086 434.808 78.4969 435.018 78.6631 434.963C83.5048 433.457 88.0252 432.504 93.0885 432.028C93.443 432.005 93.4652 431.485 93.1106 431.418Z" fill="white"/>
<path d="M96.6451 433.57C91.748 432.629 85.7429 433.36 81.987 436.827C81.843 436.96 82.0314 437.17 82.1975 437.115C87.0392 435.609 91.5596 434.656 96.6229 434.18C96.9774 434.158 96.9885 433.637 96.6451 433.57Z" fill="white"/>
<path d="M50.086 436.937C44.7458 434.235 40.5356 442.531 45.8869 445.245C51.2272 447.948 55.4374 439.651 50.086 436.937Z" fill="white"/>
<path d="M86.9492 413.623L38.6542 414.022C38.6542 414.022 46.6979 216.775 41.3133 210.339C28.5055 195.019 30.5441 174.594 39.1749 154.079H83.2044C83.2044 154.079 81.0993 185.227 81.2988 186.136C94.8156 245.165 86.9492 413.623 86.9492 413.623Z" fill="#37474F"/>
<path d="M84.291 403.729C73.7545 402.909 46.0117 403.807 42.4996 404.349C42.422 404.361 42.422 404.505 42.4996 404.516C45.9674 405.225 77.7985 404.217 84.2799 403.973C84.4239 403.962 84.435 403.74 84.291 403.729Z" fill="#263238"/>
<path d="M84.224 166.173C83.7809 171.745 84.0025 181.26 80.7784 181.415C77.654 181.559 78.1193 169.917 78.0307 167.247C77.9531 164.822 77.1111 165.154 77.0224 168.012C76.7787 175.777 76.9781 182.622 81.0997 182.301C85.3098 181.98 85.1879 169.95 85.0882 167.203C85.0328 165.785 84.357 164.412 84.224 166.173Z" fill="#263238"/>
<path d="M80.9871 181.768C80.7987 182.854 80.832 186.83 81.1089 187.639C81.1643 187.794 81.7848 187.672 81.8513 187.55C82.239 186.742 81.9288 182.931 82.0396 181.901C82.1061 181.225 81.1089 181.104 80.9871 181.768Z" fill="#263238"/>
<path d="M82.3521 188.637C83.7259 193.511 85.133 202.838 84.8006 205.297C84.7674 205.518 84.435 205.596 84.4017 205.363C83.9586 202.749 82.0086 190.177 81.8092 188.858C81.5987 187.452 81.9643 187.274 82.3521 188.637Z" fill="#263238"/>
<path d="M73.8742 192.481C74.4725 191.816 75.2259 191.296 75.935 190.742C76.6552 190.177 77.3753 189.623 78.1287 189.091C79.6577 188.017 81.2309 187.031 82.8375 186.067C84.4107 185.137 86.0172 184.284 87.6459 183.453C89.3521 182.589 91.1691 181.936 92.8864 181.083C92.9862 181.038 93.0748 181.171 92.9751 181.227C91.3464 182.124 89.8507 183.243 88.2774 184.229C86.6931 185.214 85.1309 186.234 83.5465 187.219C81.9954 188.183 80.4665 189.169 78.9154 190.122C78.1066 190.62 77.2756 191.107 76.4557 191.584C75.6913 192.027 74.949 192.536 74.1291 192.88C73.8853 192.99 73.7302 192.647 73.8742 192.481Z" fill="#263238"/>
<path d="M45.9214 310.991C46.6305 295.184 47.7717 277.572 47.9933 261.743C48.1041 253.834 48.1706 245.914 48.1595 238.005C48.1595 230.152 48.2149 219.662 47.8049 211.819C47.5944 207.832 40.5701 204.752 39.1409 193.144C38.2434 185.888 38.6534 179.763 40.6809 173.416C41.1795 171.865 41.7667 170.347 42.4425 168.863C42.4868 168.763 42.6309 168.852 42.5866 168.952C39.7724 175.454 38.6091 182.598 39.1852 189.666C39.4732 193.21 40.0161 196.744 41.3567 200.089C43.2402 204.763 47.8825 208.574 48.1262 211.055C48.4919 214.777 48.5473 217.989 48.5916 221.711C48.6359 225.588 48.6802 229.465 48.6913 233.353C48.7356 241.262 48.7135 249.182 48.6248 257.091C48.4586 272.842 48.0487 288.583 47.3839 304.323C46.7192 320.063 42.6419 398.865 42.376 400.659C42.3428 400.858 42.0215 400.814 42.0326 400.615C42.5866 392.717 45.2124 326.798 45.9214 310.991Z" fill="#263238"/>
<path d="M72.0142 117.717C82.4953 139.339 95.8016 162.756 108.255 166.433C120.099 169.934 143.088 140.824 150.29 133.169C152.894 130.411 131.821 114.571 128.552 116.975C122.392 121.505 111.324 133.845 109.463 133.413C107.524 132.948 92.1122 118.249 78.1079 105.854C69.6322 98.3214 64.7572 102.73 72.0142 117.717Z" fill="#EB9481"/>
<path d="M168.579 119.502C171.459 118.295 193.64 117.586 193.629 112.778C193.618 107.971 165.399 109.311 165.399 109.311L168.579 119.502Z" fill="#EB9481"/>
<path d="M126.036 120.066C129.914 115.247 133.326 110.052 136.694 109.1C139.032 108.446 164.138 109.52 168.071 109.288C171.993 109.044 185.998 109.41 186.319 112.855C186.773 117.717 170.21 117.673 168.437 120.154C162.332 128.739 139.121 141.422 139.121 141.422L126.036 120.066Z" fill="#EB9481"/>
<path d="M186.684 112.919C186.495 112.022 185.808 111.268 185.077 110.759C183.36 109.551 181.1 109.452 179.083 109.286C176.036 109.042 172.934 108.942 169.876 109.208C169.81 109.219 169.81 109.308 169.876 109.319C172.17 109.352 174.463 109.374 176.757 109.574C178.817 109.751 181 109.884 182.972 110.526C183.87 110.814 184.756 111.235 185.365 111.966C185.786 112.465 186.052 113.14 185.842 113.816C185.177 115.932 181 116.563 179.061 116.995C176.535 117.56 173.92 118.058 171.394 118.568C171.283 118.59 171.339 118.756 171.45 118.734C174.075 118.214 176.856 118.014 179.493 117.538C181.631 117.15 183.925 116.718 185.653 115.3C186.385 114.702 186.883 113.871 186.684 112.919Z" fill="#263238"/>
<path d="M193.201 108.999L193.056 109.763C192.901 110.583 192.104 111.114 191.284 110.959L147.642 102.441L148.373 98.7081L192.015 107.226C192.824 107.392 193.356 108.179 193.201 108.999Z" fill="#7966FF"/>
<path opacity="0.1" d="M148.358 98.7038L147.628 102.444L152.891 103.471L153.621 99.731L148.358 98.7038Z" fill="black"/>
<path d="M131.676 93.9571L130.38 100.581C129.925 102.918 130.457 105.222 131.687 107.061C132.917 108.889 134.856 110.251 137.193 110.716C141.88 111.636 146.412 108.579 147.331 103.893L148.627 97.2691C149.082 94.9319 148.55 92.6279 147.32 90.7891C146.09 88.9614 144.151 87.5989 141.802 87.1337C137.127 86.2143 132.596 89.2715 131.676 93.9571ZM145.924 95.6186C145.536 97.5903 143.819 99.0082 141.692 99.3516C143.531 100.47 144.594 102.431 144.218 104.403C143.708 107.039 140.794 108.689 137.725 108.091C134.656 107.493 132.584 104.868 133.105 102.232C133.493 100.26 135.21 98.842 137.338 98.4986C135.498 97.3799 134.435 95.4192 134.811 93.4476C135.332 90.8112 138.235 89.1608 141.304 89.7589C144.373 90.3571 146.445 92.9712 145.924 95.6186Z" fill="#7966FF"/>
<path d="M150.409 97.3591L149.024 104.482C148.947 104.858 148.581 105.102 148.204 105.035L147.85 104.969C147.473 104.891 147.229 104.526 147.296 104.149L148.681 97.0268C148.758 96.6502 149.124 96.4065 149.501 96.4729L149.855 96.5394C150.232 96.6059 150.487 96.9714 150.409 97.3591Z" fill="#7966FF"/>
<path d="M152.129 97.6898L150.744 104.812C150.667 105.189 150.301 105.433 149.925 105.366L149.57 105.289C149.193 105.211 148.95 104.845 149.016 104.469L150.401 97.3464C150.479 96.9698 150.844 96.7261 151.221 96.7925L151.575 96.859C151.963 96.9476 152.207 97.3131 152.129 97.6898Z" fill="#7966FF"/>
<path d="M181.564 103.594L182.861 103.849L183.603 100.083L184.711 100.293L184.323 102.265L185.619 102.52L186.007 100.548L186.982 100.737L186.384 103.849L187.68 104.104L188.29 100.991L189.686 101.268L188.877 105.422L190.173 105.677L190.982 101.523L192.3 101.778L191.27 107.084L179.659 104.824L180.689 99.507L182.296 99.8282L181.564 103.594Z" fill="#7966FF"/>
<path d="M32.8391 160.739L94.6842 161.758L89.8425 143.249C89.8425 143.249 95.1717 136.459 92.6234 127.11C91.1388 121.66 84.1034 113.496 79.7824 108.312C69.2681 95.6844 60.1387 101.389 57.2248 104.646C46.1122 117.03 32.8391 160.739 32.8391 160.739Z" fill="#7966FF"/>
<path d="M63.2847 111.79L63.329 108.256L65.6668 110.87L68.1929 110.084L66.952 112.333L68.1375 113.584L66.2983 113.773L66.2651 116.154L64.2376 114.47L62.5978 115.833L62.7862 113.817L60.393 112.709L63.2847 111.79ZM89.6426 151.368L87.6926 153.151L85.9088 152.198L86.5293 154.248L84.2026 155.466L86.3852 156.419L85.8423 158.18L87.4488 157.571L89.0443 159.576L89.2991 156.939L92.6229 155.798L89.3877 154.392L89.6426 151.368ZM67.0296 138.219L68.9241 141.985L70.7965 138.385L74.3752 139.006L72.4695 135.217L75.1286 132.692L71.3727 132.825L70.6193 129.147L68.6361 132.958L63.6393 132.581L66.5864 135.627L63.8609 137.71L67.0296 138.219ZM81.7762 116.453L82.6847 114.925L80.9785 115.08L80.3913 113.673L79.4717 115.201L77.976 114.836L78.8734 116.132L77.7433 117.229L79.5493 117.062L80.5464 118.923L80.9563 117.184L82.3191 117.683L81.7762 116.453ZM52.7704 156.751L53.6789 155.222L51.9727 155.378L51.3855 153.971L50.477 155.499L48.9812 155.134L49.8787 156.43L48.7486 157.526L50.5545 157.36L51.5517 159.221L51.9616 157.482L53.3244 157.981L52.7704 156.751ZM62.9413 129.291L63.8498 127.763L62.1435 127.918L61.5563 126.511L60.6478 128.04L59.1521 127.674L60.0495 128.97L58.9195 130.067L60.7254 129.901L61.7225 131.761L62.1325 130.022L63.4952 130.521L62.9413 129.291ZM51.9284 133.412L51.6181 132.415L51.0199 133.224L50.1667 132.925L50.488 133.933L49.7346 134.442L50.6653 134.553L50.7096 135.483L51.3412 134.63L52.5488 134.918L51.9505 134.054L52.7039 133.645L51.9284 133.412ZM80.635 157.172L80.3248 156.175L79.7265 156.984L78.8734 156.696L79.1947 157.704L78.4413 158.213L79.372 158.324L79.4163 159.254L80.0478 158.402L81.2555 158.69L80.6572 157.826L81.4106 157.416L80.635 157.172ZM89.2215 128.217L89.9971 127.519L89.011 127.309L88.9224 126.411L88.1358 127.109L87.3602 126.633L87.6372 127.519L86.8062 127.94L87.8477 128.173L88.0804 129.391L88.6343 128.494L89.3102 129.014L89.2215 128.217ZM73.6993 146.926L74.4749 146.228L73.4888 146.018L73.4002 145.12L72.6136 145.818L71.838 145.342L72.115 146.228L71.284 146.649L72.3255 146.882L72.5582 148.1L73.1011 147.192L73.7769 147.712L73.6993 146.926ZM41.7686 152.797L42.5441 152.099L41.5581 151.888L41.4694 150.991L40.6828 151.689L39.9072 151.213L40.1842 152.099L39.3533 152.52L40.3947 152.752L40.6274 153.971L41.1703 153.062L41.8461 153.583L41.7686 152.797Z" fill="white"/>
<path d="M73.2896 142.15C75.9265 141.95 78.5967 141.829 81.2446 142.017C82.5631 142.106 83.8594 142.261 85.1667 142.449C85.8204 142.538 86.4741 142.604 87.1278 142.67C87.8036 142.737 88.5127 142.781 89.1886 142.682C89.244 142.67 89.2661 142.759 89.1996 142.77C88.557 142.903 87.9366 143.036 87.2718 143.08C86.6403 143.125 86.0088 143.102 85.3773 143.069C84.0366 142.992 82.7071 142.848 81.3776 142.748C78.6853 142.549 75.993 142.36 73.2896 142.36C73.1678 142.371 73.1678 142.161 73.2896 142.15Z" fill="#263238"/>
<path d="M67.2833 145.615C69.3773 145.006 71.5267 144.496 73.6761 144.131C74.7619 143.942 75.8366 143.832 76.9334 143.743C77.4542 143.699 77.9749 143.665 78.4956 143.632C79.0717 143.599 79.6479 143.643 80.224 143.61C80.2794 143.61 80.3016 143.699 80.2351 143.699C79.6922 143.754 79.1604 143.898 78.6286 143.976C78.0857 144.064 77.5539 144.142 77.011 144.23C75.9363 144.397 74.8505 144.585 73.7758 144.74C71.6153 145.061 69.4548 145.393 67.3054 145.792C67.1947 145.814 67.1725 145.648 67.2833 145.615Z" fill="#263238"/>
<path d="M63.286 103.893C63.5409 105.001 68.8257 112.145 73.8668 111.902C75.5066 111.824 75.4623 102.841 75.4623 102.841L75.6063 102.176L77.6671 92.8824L66.7428 85.8929L65.1695 84.9735C65.1695 84.9735 64.7707 87.5544 64.3053 90.7668C64.2832 90.9108 64.261 91.0658 64.2389 91.2209C64.2056 91.3981 64.1724 91.5754 64.1502 91.7415C64.0727 92.2178 63.9951 92.7163 63.9397 93.2037C63.8843 93.5803 63.84 93.9348 63.7957 94.3335C63.7514 94.7323 63.7071 95.1089 63.6627 95.5077C63.275 99.3957 63.1863 103.417 63.286 103.893Z" fill="#EB9481"/>
<path d="M64.3059 90.7668C66.976 98.1551 72.8924 101.157 75.6069 102.176L77.6676 92.8824L66.7434 85.8929L65.1701 84.9735C65.1701 84.9735 64.7712 87.5544 64.3059 90.7668Z" fill="#263238"/>
<path d="M90.7498 77.7162C93.985 94.1101 84.5343 97.8984 81 98.5852C77.787 99.2166 66.7852 100.956 61.8659 84.9827C56.9467 69.0098 63.55 62.3304 70.818 60.5027C78.0861 58.6861 87.5147 61.3335 90.7498 77.7162Z" fill="#EB9481"/>
<path d="M85.9681 75.2127C85.5914 75.3124 85.2147 75.3456 84.827 75.401C84.3838 75.4674 84.0514 75.5671 83.6304 75.3677C83.4088 75.2681 83.2869 74.9136 83.3645 74.6921C83.5528 74.1604 84.0736 73.9499 84.5943 73.8391C85.1593 73.7284 85.6247 73.7837 86.1343 74.0607C86.6329 74.3376 86.4667 75.0797 85.9681 75.2127Z" fill="#263238"/>
<path d="M74.321 78.5671C74.7088 78.5228 75.0634 78.4231 75.4511 78.3345C75.8832 78.2459 76.2378 78.2126 76.5591 77.8803C76.7363 77.7031 76.7253 77.3375 76.5591 77.1492C76.1935 76.7172 75.6395 76.7062 75.1077 76.7948C74.5426 76.8945 74.1216 77.116 73.7449 77.548C73.3793 77.98 73.8003 78.6225 74.321 78.5671Z" fill="#263238"/>
<path d="M76.7802 80.6749C76.7692 80.6306 76.7027 80.7414 76.7138 80.7857C76.9132 81.9045 76.9575 83.2226 76.0047 83.7432C75.9714 83.7543 75.9825 83.8208 76.0268 83.8097C77.2345 83.4442 77.1569 81.694 76.7802 80.6749Z" fill="#263238"/>
<path d="M75.6062 79.6429C73.7781 79.7758 74.1769 83.4312 75.8721 83.2983C77.5451 83.1764 77.1351 79.5321 75.6062 79.6429Z" fill="#263238"/>
<path d="M74.9097 79.9186C74.6106 80.1623 74.3447 80.561 73.9569 80.6386C73.5137 80.7272 73.137 80.3838 72.8046 80.0515C72.7714 80.0183 72.7382 80.0515 72.7492 80.0958C72.8157 80.7936 73.1592 81.4804 73.9237 81.5026C74.6217 81.5247 75.0427 80.849 75.1424 80.129C75.1645 79.9961 75.0316 79.8189 74.9097 79.9186Z" fill="#263238"/>
<path d="M83.7266 79.6102C83.7266 79.5659 83.8152 79.6545 83.8263 79.6988C83.9039 80.8287 84.1919 82.1247 85.2555 82.3905C85.2888 82.4016 85.2888 82.457 85.2555 82.457C83.9703 82.4127 83.6158 80.6958 83.7266 79.6102Z" fill="#263238"/>
<path d="M84.6137 78.326C86.4196 78.0048 86.9403 81.638 85.2674 81.9371C83.6165 82.2362 83.0958 78.6029 84.6137 78.326Z" fill="#263238"/>
<path d="M85.4017 78.4599C85.7119 78.6149 86.0554 78.9251 86.3989 78.8918C86.7977 78.8586 87.0415 78.4266 87.2409 78.0168C87.2631 77.9725 87.2963 78.0057 87.3074 78.05C87.4292 78.7368 87.2963 79.5011 86.6537 79.7226C86.0665 79.9331 85.5347 79.4014 85.2688 78.7257C85.2134 78.6038 85.2799 78.3934 85.4017 78.4599Z" fill="#263238"/>
<path d="M78.8431 90.221C79.1312 90.4647 79.4303 90.8192 79.8403 90.8303C80.2391 90.8414 80.6934 90.6309 81.0479 90.4647C81.0812 90.4537 81.1255 90.4869 81.1033 90.5201C80.8374 90.9743 80.2391 91.2844 79.6962 91.229C79.1755 91.1737 78.8985 90.7417 78.7434 90.2875C78.7212 90.221 78.7988 90.1878 78.8431 90.221Z" fill="#263238"/>
<path d="M83.0645 85.5717C83.0645 85.5717 83.5076 87.2333 83.5963 88.0308C83.6074 88.1084 83.419 88.1637 83.1531 88.208C83.142 88.2191 83.1309 88.2191 83.1199 88.208C81.746 88.5957 80.2725 88.2856 79.2753 87.2444C79.2089 87.1779 79.2975 87.0782 79.375 87.1225C80.5162 87.765 81.7017 87.8204 82.9537 87.6874C82.9869 87.4548 82.1116 84.8739 82.2335 84.8517C82.6656 84.7631 83.552 84.9514 84.0949 85.04C83.2861 81.5619 81.9122 78.2388 81.1588 74.7607C81.1367 74.6388 81.3139 74.5724 81.3582 74.6831C83.0312 78.0616 84.0616 82.0493 84.9923 85.6161C85.1142 86.0591 83.4079 85.6604 83.0645 85.5717Z" fill="#263238"/>
<path d="M83.0427 87.9194C83.0427 87.9194 82.4666 89.0936 81.4805 89.6585C81.1149 89.869 80.716 90.0019 80.2507 89.9576C79.3089 89.8911 79.1428 89.0714 79.176 88.3293C79.1981 87.7311 79.3754 87.1772 79.3754 87.1772C79.3754 87.1772 80.9154 88.1742 83.0427 87.9194Z" fill="#263238"/>
<path d="M81.4805 89.6591C81.1149 89.8696 80.716 90.0025 80.2507 89.9582C79.3089 89.8917 79.1428 89.072 79.176 88.3299C80.1621 88.2634 81.2257 88.7397 81.4805 89.6591Z" fill="#FF9ABB"/>
<path d="M63.6964 86.4425C66.8319 86.3982 66.6214 79.2314 66.6214 79.2314C66.6214 79.2314 79.4292 75.1551 79.0192 64.3219C79.0192 64.3219 82.2322 70.8019 89.5335 72.9176C89.5335 72.9176 87.4174 61.2757 77.8116 60.3231C77.8116 60.3231 65.7018 57.7643 60.5167 67.8222C55.3426 77.8579 61.5914 86.4647 63.6964 86.4425Z" fill="#263238"/>
<path d="M78.9625 63.5233C79.3724 65.1295 79.3724 66.8353 79.0622 68.4747C78.7631 70.1252 78.1426 71.7313 77.2009 73.1381C76.9904 73.5036 76.6912 73.8138 76.4364 74.1461L76.0375 74.6446C75.8935 74.7996 75.7384 74.9436 75.5944 75.0876C75.2841 75.3756 74.9961 75.6747 74.6748 75.9516C74.3424 76.2064 73.9989 76.4501 73.6666 76.6938C73.5004 76.8156 73.3342 76.9375 73.1569 77.0593L72.614 77.3695L71.5282 77.9787C70.7638 78.311 69.9882 78.6101 69.2126 78.887C69.9217 78.455 70.653 78.1006 71.3399 77.6575L72.3481 76.9707L72.8467 76.6273C73.0018 76.5055 73.1569 76.3615 73.312 76.2396C73.6222 75.9738 73.9214 75.719 74.2316 75.4643C74.5197 75.1873 74.7856 74.8883 75.0736 74.6003L75.4946 74.1683L75.8603 73.6919C76.0929 73.3707 76.3699 73.0716 76.5693 72.7283C77.4889 71.4101 78.0761 69.9036 78.4972 68.3529C78.7077 67.5775 78.8295 66.7799 78.9071 65.9713C79.0068 65.1627 79.0068 64.343 78.9625 63.5233Z" fill="#263238"/>
<path d="M58.821 76.5861L58.0454 78.159L63.2306 81.9584L64.9035 78.4138L58.821 76.5861ZM62.8649 80.3301L59.2752 78.015L59.4414 77.6494L63.4632 79.1005L62.8649 80.3301Z" fill="#7966FF"/>
<path d="M59.032 73.8058L58.9102 75.556L65.1368 77.1178L65.3473 73.2076L59.032 73.8058ZM64.195 75.7443L59.9959 74.9467L60.0181 74.5369L64.2947 74.3596L64.195 75.7443Z" fill="#7966FF"/>
<path d="M66.0978 85.0284C66.0978 85.0284 61.9098 80.2431 59.6939 81.7828C57.478 83.3336 61.0234 90.5447 63.9041 91.2758C66.7736 92.0068 67.5049 89.3594 67.5049 89.3594L66.0978 85.0284Z" fill="#EB9481"/>
<path d="M60.7591 83.8321C60.7148 83.8321 60.7148 83.8986 60.7481 83.9097C62.7756 84.4857 63.9832 86.1693 64.9028 87.9527C64.2491 87.2992 63.4182 86.989 62.5318 87.7866C62.4875 87.8309 62.5429 87.8973 62.5983 87.8863C63.3739 87.6315 63.9611 87.709 64.5704 88.285C65.0025 88.6949 65.3238 89.2377 65.6451 89.725C65.7559 89.8912 66.0551 89.7583 65.9664 89.57C65.9554 89.5589 65.9554 89.5367 65.9443 89.5257C65.7338 87.0333 63.4403 83.7878 60.7591 83.8321Z" fill="#263238"/>
<path d="M53.5475 108.277C39.4545 132.58 18.3926 188.363 14.5813 196.339C11.9998 201.755 40.3187 216.033 41.5153 212.09C43.0553 207.05 62.7101 142.073 63.9842 113.084C64.5936 99.6591 58.0568 100.501 53.5475 108.277Z" fill="#EB9481"/>
<path d="M30.0033 224.495C31.4879 223.188 32.1859 223.963 31.5323 227.419C30.8786 230.919 25.3832 244.001 30.1252 245.53C34.8782 247.081 42.3679 228.427 42.9994 222.59C43.6531 216.752 42.6338 207.082 42.6338 207.082C40.4512 210.427 34.3797 218.004 30.0033 224.495Z" fill="#EB9481"/>
<path d="M38.3114 244.808L2.79091 238.428C1.72729 238.328 1.00713 237.597 1.19548 236.789L4.44173 222.3C4.619 221.491 5.63831 220.915 6.70193 221.004L42.2224 227.384C43.286 227.484 44.0062 228.215 43.8178 229.024L40.5716 243.512C40.3943 244.321 39.3861 244.908 38.3114 244.808Z" fill="#A6A6A6"/>
<path d="M38.7234 243.103L3.214 236.722C2.15038 236.623 1.43022 235.892 1.61857 235.083L4.86483 220.594C5.0421 219.786 6.0614 219.21 7.12502 219.298L42.6344 225.679C43.6981 225.778 44.4182 226.509 44.2299 227.318L40.9836 241.807C40.7953 242.615 39.787 243.191 38.7234 243.103Z" fill="#C7C7C7"/>
<path d="M38.0575 238.508C37.2376 238.197 36.451 238.496 36.318 239.194C36.1851 239.881 36.739 240.69 37.57 241C38.3899 241.31 39.1765 241.011 39.3095 240.313C39.4424 239.615 38.8884 238.829 38.0575 238.508Z" fill="#263238"/>
<path d="M16.4624 193.789C9.22753 203.537 2.82365 215.023 2.67962 227.695C2.64638 230.177 3.87619 231.628 3.87619 231.628C3.71 237.31 6.33581 239.094 6.33581 239.094C7.79829 244.433 10.7454 245.884 10.7454 245.884C10.7454 245.884 11.1664 250.458 14.3905 250.392C17.5149 250.326 19.3873 242.838 22.2015 237.354C28.6608 224.793 40.4049 210.537 42.6318 207.092L16.4624 193.789Z" fill="#EB9481"/>
<path d="M18.7809 221.216C16.9528 224.949 15.0582 228.571 13.7508 232.526C12.3105 236.868 11.6568 241.299 10.8813 245.785C10.8591 245.929 10.6597 245.907 10.6597 245.763C10.7815 237.422 13.9724 228.039 18.6147 221.127C18.7255 220.961 18.8806 221.028 18.7809 221.216Z" fill="#263238"/>
<path d="M11.7633 216.222C10.19 219.955 7.46449 226.523 6.47843 239.107C6.47843 239.151 6.40087 239.151 6.40087 239.107C5.9577 230.854 7.77472 223.399 11.586 216.144C11.7079 215.923 11.8741 215.978 11.7633 216.222Z" fill="#263238"/>
<path d="M7.95493 213.605C5.51747 220.052 4.79731 224.427 3.92204 231.605C3.92204 231.65 3.84448 231.65 3.84448 231.605C3.97743 223.342 4.9635 220.362 7.74442 213.494C7.83306 213.251 8.04357 213.35 7.95493 213.605Z" fill="#263238"/>
</svg>
