<svg width="73" height="72" viewBox="0 0 73 72" fill="none" xmlns="http://www.w3.org/2000/svg">
<g clip-path="url(#clip0_2023_40701)">
<path d="M49.4709 17.9125H49.3821V13.8895C49.3821 6.89363 43.6582 0.947866 36.6771 1.06619C29.8883 1.18451 24.3862 6.74573 24.3862 13.5641V13.9487C24.3862 14.5255 24.8595 14.9988 25.4363 14.9988H28.7938C29.3706 14.9988 29.8439 14.5255 29.8439 13.9487V13.8304C29.8439 10.0736 32.6689 6.77531 36.4257 6.53866C40.5078 6.28723 43.9096 9.52634 43.9096 13.5493V17.8977H33.5563V17.9125H23.9869C22.212 17.9717 20.7773 19.4064 20.7773 21.196V39.3883C20.7773 41.2075 22.2564 42.6866 24.0756 42.6866H49.4561C51.2753 42.6866 52.7543 41.2075 52.7543 39.3883V21.2108C52.7691 19.3916 51.2901 17.9125 49.4709 17.9125ZM38.733 31.1204C38.4815 31.2979 38.4076 31.4902 38.4076 31.786C38.4224 33.1171 38.4224 34.4483 38.4076 35.7942C38.4372 36.3563 38.1562 36.8887 37.6533 37.1401C36.4848 37.7318 35.3164 36.9035 35.3164 35.7942C35.3164 35.7942 35.3164 35.7942 35.3164 35.7794C35.3164 34.4483 35.3164 33.1023 35.3164 31.7712C35.3164 31.505 35.2572 31.3127 35.0206 31.1352C33.8078 30.2478 33.4084 28.7244 34.0148 27.3784C34.6064 26.0769 36.0411 25.3078 37.387 25.5888C38.8957 25.8846 39.9458 27.1122 39.9606 28.606C40.005 29.6562 39.576 30.514 38.733 31.1204Z" fill="#27AE60"/>
<path fill-rule="evenodd" clip-rule="evenodd" d="M23.1883 60.9669C22.7002 61.248 22.0642 61.0853 21.7832 60.5972C21.5022 60.1091 21.6649 59.4731 22.153 59.1921L24.7413 57.6982L22.153 56.1896C21.6649 55.9086 21.5022 55.2726 21.7832 54.7845C22.0642 54.2964 22.7002 54.1338 23.1883 54.4148L25.7619 55.8938V52.9209C25.7619 52.3589 26.2204 51.9004 26.7824 51.9004C27.3444 51.9004 27.8029 52.3589 27.8029 52.9209V55.8938L30.3765 54.4C30.8646 54.119 31.5006 54.2817 31.7816 54.7697C32.0626 55.2578 31.8999 55.8938 31.4118 56.1748L28.8235 57.6835L31.4118 59.1921C31.8999 59.4731 32.0626 60.1091 31.7816 60.5972C31.5006 61.0853 30.8646 61.248 30.3765 60.9669L27.8029 59.4731V62.446C27.8029 63.008 27.3444 63.4665 26.7824 63.4665C26.2204 63.4665 25.7619 63.008 25.7619 62.446V59.4731L23.1883 60.9669ZM10.9271 54.4149C11.4151 54.1339 12.0511 54.2966 12.3321 54.7847C12.628 55.2728 12.4505 55.894 11.9624 56.1898L9.37405 57.6984L11.9624 59.2071C12.4505 59.4881 12.6132 60.1241 12.3321 60.6121C12.0511 61.1002 11.4151 61.2629 10.9271 60.9819L8.35351 59.4881V62.461C8.35351 63.023 7.89501 63.4815 7.33297 63.4815C6.77093 63.4815 6.31243 63.023 6.31243 62.461V59.4881L3.73889 60.9819C3.2508 61.2629 2.61481 61.1002 2.33379 60.6121C2.05277 60.1241 2.21547 59.4881 2.70355 59.2071L5.29188 57.6984L2.70355 56.1898C2.21547 55.9088 2.05277 55.2728 2.33379 54.7847C2.61481 54.2966 3.2508 54.1339 3.73889 54.4149L6.31243 55.9088V52.9359C6.31243 52.3739 6.77093 51.9154 7.33297 51.9154C7.89501 51.9154 8.35351 52.3739 8.35351 52.9359V55.9088L10.9271 54.4149ZM20 68.7839V70.5883C20 71.0173 20.355 71.3722 20.7839 71.3722H32.8973C33.3262 71.3722 33.6812 71.0173 33.6812 70.5883V68.7839C33.6812 68.355 33.3262 68 32.8973 68H20.7839C20.3402 68 20 68.355 20 68.7839ZM39.3836 70.1522V68.3478C39.3836 67.9189 39.7386 67.5639 40.1675 67.5639H52.2809C52.7098 67.5639 53.0648 67.9189 53.0648 68.3478V70.1522C53.0648 70.5812 52.7098 70.9361 52.2809 70.9361H40.1675C39.7386 70.9361 39.3836 70.5812 39.3836 70.1522ZM41.2184 60.5972C41.4994 61.0853 42.1354 61.248 42.6235 60.9669L45.197 59.4731V62.446C45.197 63.008 45.6555 63.4665 46.2176 63.4665C46.7796 63.4665 47.2381 63.008 47.2381 62.446V59.4731L49.8116 60.9669C50.2997 61.248 50.9357 61.0853 51.2167 60.5972C51.4978 60.1091 51.3351 59.4731 50.847 59.1921L48.2586 57.6835L50.847 56.1748C51.3351 55.8938 51.4978 55.2578 51.2167 54.7697C50.9357 54.2817 50.2997 54.119 49.8116 54.4L47.2381 55.8938V52.9209C47.2381 52.3589 46.7796 51.9004 46.2176 51.9004C45.6555 51.9004 45.197 52.3589 45.197 52.9209V55.8938L42.6235 54.4C42.1354 54.119 41.4994 54.2817 41.2184 54.7697C40.9374 55.2578 41.1001 55.8938 41.5882 56.1748L44.1765 57.6835L41.5882 59.1921C41.1001 59.4731 40.9374 60.1091 41.2184 60.5972ZM59.6029 67.5639H71.7163C72.1452 67.5639 72.5002 67.9189 72.5002 68.3478V70.1522C72.5002 70.5812 72.1452 70.9361 71.7163 70.9361H59.6029C59.174 70.9361 58.819 70.5812 58.819 70.1522V68.3478C58.819 67.9189 59.174 67.5639 59.6029 67.5639ZM1.28389 70.9361H13.3973C13.8262 70.9361 14.1812 70.5812 14.1812 70.1522V68.3478C14.1812 67.9189 13.8262 67.5639 13.3973 67.5639H1.28389C0.854971 67.5639 0.5 67.9189 0.5 68.3478V70.1522C0.5 70.5812 0.854971 70.9361 1.28389 70.9361ZM62.0722 60.9669C61.5841 61.248 60.9482 61.0853 60.6671 60.5972C60.3713 60.1091 60.5488 59.4731 61.0369 59.1921L63.6252 57.6835L61.0369 56.1748C60.5488 55.8938 60.3861 55.2578 60.6671 54.7697C60.9482 54.2817 61.5841 54.119 62.0722 54.4L64.6458 55.8938V52.9209C64.6458 52.3589 65.1043 51.9004 65.6663 51.9004C66.2284 51.9004 66.6869 52.3589 66.6869 52.9209V55.8938L69.2604 54.4C69.7485 54.119 70.3845 54.2817 70.6655 54.7697C70.9465 55.2578 70.7838 55.8938 70.2957 56.1748L67.7074 57.6835L70.2957 59.1921C70.7838 59.4731 70.9465 60.1091 70.6655 60.5972C70.3845 61.0853 69.7485 61.248 69.2604 60.9669L66.6869 59.4731V62.446C66.6869 63.008 66.2284 63.4665 65.6663 63.4665C65.1043 63.4665 64.6458 63.008 64.6458 62.446V59.4731L62.0722 60.9669Z" fill="#27AE60"/>
</g>
<defs>
<clipPath id="clip0_2023_40701">
<rect width="72" height="72" fill="white" transform="translate(0.5)"/>
</clipPath>
</defs>
</svg>
