<svg width="47" height="97" viewBox="0 0 187 207" fill="none" xmlns="http://www.w3.org/2000/svg">
<path d="M167.585 104.079L173.736 103.95L176.766 103.899C177.774 103.876 178.773 103.881 179.781 103.876L179.574 104.084L179.551 98.9314L179.781 99.1616L173.686 99.134C171.655 99.1294 169.62 99.0833 167.59 99.0603L167.714 98.936C167.705 99.7786 167.673 100.626 167.654 101.487L167.585 104.079ZM167.585 104.079L167.521 101.528C167.498 100.667 167.47 99.797 167.461 98.9268V98.8025H167.59C169.62 98.7794 171.655 98.7288 173.686 98.7288L179.781 98.7012H180.012V98.9314L179.989 104.084V104.291H179.786C178.759 104.282 177.728 104.286 176.706 104.263L173.64 104.212L167.585 104.079Z" fill="#EBEBEB"/>
<path d="M174.386 110.577L180.537 110.448L183.567 110.397C184.575 110.374 185.574 110.379 186.582 110.374L186.375 110.582L186.352 105.429L186.582 105.66L180.482 105.623C178.451 105.618 176.416 105.572 174.386 105.549L174.51 105.425C174.501 106.267 174.469 107.115 174.45 107.976L174.386 110.577ZM174.386 110.577L174.322 108.026C174.299 107.165 174.271 106.295 174.262 105.425V105.301H174.391C176.421 105.277 178.456 105.227 180.486 105.227L186.582 105.199H186.813V105.429L186.79 110.582V110.789H186.587C185.56 110.78 184.529 110.784 183.507 110.761L180.44 110.711L174.386 110.577Z" fill="#EBEBEB"/>
<path d="M160.76 110.574H172.951V105.422H160.76V110.574Z" fill="#EBEBEB"/>
<path d="M0.425092 146.14L6.57617 146.011L9.60566 145.96C10.614 145.937 11.613 145.942 12.6213 145.937L12.4142 146.144L12.3911 140.992L12.6213 141.222L6.52552 141.195C4.49511 141.195 2.4601 141.144 0.429696 141.121L0.554007 140.997C0.544798 141.839 0.51257 142.686 0.494153 143.547L0.425092 146.14ZM0.425092 146.14L0.360635 143.589C0.337614 142.728 0.309989 141.858 0.300781 140.987V140.863H0.429696C2.4601 140.84 4.49511 140.789 6.52552 140.789L12.6213 140.762H12.8515V140.992L12.8285 146.144V146.351H12.6259C11.5992 146.342 10.5679 146.347 9.54581 146.328L6.47948 146.278L0.425092 146.14Z" fill="#EBEBEB"/>
<path d="M7.22827 152.633H19.4199V147.481H7.22827V152.633Z" fill="#EBEBEB"/>
<path d="M32.013 49.9149L38.1641 49.786L41.1936 49.7353C42.2018 49.7123 43.2009 49.7169 44.2092 49.7077L44.0021 49.9149L43.979 44.7627L44.2092 44.9929L38.1134 44.9653C36.083 44.9653 34.048 44.9147 32.0176 44.8916L32.1419 44.7673C32.1327 45.6099 32.1005 46.4571 32.082 47.3181L32.013 49.9149ZM32.013 49.9149L31.9485 47.3641C31.9255 46.5031 31.8979 45.6375 31.8887 44.7627V44.6384H32.0176C34.048 44.6154 36.083 44.5647 38.1134 44.5647L44.2092 44.5371H44.4394V44.7673L44.4164 49.9195V50.1267H44.2138C43.1871 50.1175 42.1558 50.1221 41.1337 50.0991L38.0674 50.0484L32.013 49.9149Z" fill="#EBEBEB"/>
<path d="M7.16578 5.38477L19.3574 5.38477V0.232589L7.16578 0.232589V5.38477Z" fill="#EBEBEB"/>
<path d="M0.364545 11.8797L6.51562 11.7508L9.54511 11.7002C10.5534 11.6772 11.5525 11.6818 12.5608 11.6725L12.3536 11.8797L12.3306 6.72756L12.5608 6.95778L6.46497 6.93015C4.43457 6.92555 2.39956 6.8795 0.369149 6.85648L0.49346 6.73217C0.484252 7.57475 0.452023 8.42193 0.433606 9.28293L0.364545 11.8797ZM0.364545 11.8797L0.300088 9.32897C0.277067 8.46798 0.249443 7.60237 0.240234 6.72756V6.60325H0.369149C2.39956 6.58023 4.43457 6.52958 6.46497 6.52958L12.5608 6.50195H12.791V6.73217L12.7634 11.8797V12.0869H12.5608C11.5341 12.0777 10.5028 12.0823 9.48066 12.0593L6.41433 12.0087L0.364545 11.8797Z" fill="#EBEBEB"/>
<path d="M167.585 5.38239L173.736 5.25347L176.766 5.20282C177.774 5.1798 178.773 5.18441 179.781 5.1752L179.574 5.38239L179.547 0.230213L179.777 0.460427L173.681 0.432801C171.651 0.432801 169.616 0.382154 167.585 0.359133L167.71 0.234818C167.7 1.0774 167.668 1.92458 167.65 2.78558L167.585 5.38239ZM167.585 5.38239L167.521 2.83163C167.498 1.97063 167.47 1.10042 167.461 0.230213V0.105898H167.59C169.62 0.0828768 171.655 0.0322299 173.686 0.0322299L179.777 0H180.007V0.230213L179.984 5.38239V5.58958H179.781C178.755 5.58037 177.723 5.58498 176.701 5.56656L173.635 5.51591L167.585 5.38239Z" fill="#EBEBEB"/>
<path d="M148.312 69.8105H160.504V64.6584H148.312V69.8105Z" fill="#EBEBEB"/>
<path d="M18.5596 32.2067C19.0246 31.9166 19.6094 31.935 20.079 32.2159C20.2079 32.2941 20.3368 32.3678 20.4703 32.4369C20.6038 32.5105 20.7374 32.575 20.8755 32.6395C21.3727 32.8743 21.7042 33.3485 21.7226 33.8964L21.7825 35.7658L27.8737 35.577L27.8139 33.7077C27.7954 33.1597 28.0993 32.6579 28.5781 32.3954C28.8452 32.2527 29.103 32.0916 29.3516 31.9166C29.8028 31.6035 30.3829 31.5621 30.8664 31.8199L32.51 32.7039L35.3922 27.3307L33.7485 26.4467C33.2651 26.1889 32.9797 25.6778 32.9935 25.1345C32.9981 24.8306 32.9889 24.5267 32.9658 24.2275C32.9198 23.6796 33.173 23.1501 33.638 22.8646L35.2264 21.8793L32.0128 16.6995L30.4152 17.6894C29.9502 17.9795 29.37 17.9611 28.9004 17.6802C28.7715 17.6019 28.6426 17.5283 28.5091 17.4592C28.3756 17.3901 28.242 17.3211 28.1085 17.2566C27.6113 17.0218 27.2752 16.5429 27.2568 15.995L27.2015 14.1211L21.1103 14.3099L21.1701 16.1746C21.1886 16.7225 20.8893 17.2244 20.4059 17.4914C20.1388 17.6388 19.881 17.7953 19.6324 17.9703C19.1812 18.2834 18.6011 18.3248 18.1176 18.067L16.474 17.1829L13.5918 22.5561L15.2355 23.4401C15.7189 23.698 16.0043 24.209 15.9905 24.757C15.9859 25.0608 15.9951 25.3647 16.0182 25.6686C16.0642 26.2165 15.811 26.7414 15.346 27.0315L13.7575 28.0122L16.9712 33.192L18.5596 32.2067ZM20.0836 22.5837C21.3865 20.1527 24.416 19.2364 26.847 20.544C29.278 21.8471 30.1896 24.8767 28.8866 27.3077C27.5836 29.7388 24.5588 30.6504 22.1278 29.3474C19.6968 28.0398 18.7806 25.0148 20.0836 22.5837Z" fill="#EBEBEB"/>
<path d="M178.221 94.89C178.414 94.5585 178.778 94.3743 179.164 94.3927C179.27 94.3973 179.372 94.4019 179.477 94.4019C179.583 94.4019 179.689 94.3973 179.795 94.3927C180.177 94.3743 180.541 94.5539 180.734 94.89L181.388 96.0272L185.085 93.8909L184.431 92.7536C184.238 92.4221 184.257 92.0123 184.468 91.69C184.583 91.5151 184.689 91.3309 184.786 91.1375C184.961 90.7968 185.306 90.5758 185.688 90.5758H186.996V86.303H185.688C185.306 86.303 184.961 86.082 184.786 85.7413C184.689 85.5525 184.583 85.3684 184.468 85.1888C184.257 84.8665 184.238 84.4567 184.431 84.1252L185.085 82.9879L181.388 80.8516L180.73 81.9934C180.536 82.3249 180.173 82.5091 179.791 82.4861C179.685 82.4815 179.583 82.4769 179.477 82.4769C179.372 82.4769 179.266 82.4815 179.164 82.4861C178.782 82.5045 178.414 82.3203 178.221 81.9888L177.567 80.8516L173.87 82.9879L174.523 84.1206C174.717 84.4521 174.698 84.8619 174.487 85.1842C174.372 85.3637 174.266 85.5479 174.169 85.7367C173.994 86.0774 173.649 86.2984 173.267 86.2984H171.959V90.5712H173.267C173.649 90.5712 173.994 90.7922 174.169 91.1329C174.266 91.3217 174.372 91.5058 174.487 91.6854C174.698 92.0077 174.717 92.4175 174.523 92.749L173.87 93.8816L177.567 96.018L178.221 94.89ZM175.978 88.444C175.978 86.5102 177.548 84.9448 179.477 84.9448C181.411 84.9448 182.972 86.5148 182.972 88.444C182.972 90.3778 181.407 91.9386 179.477 91.9386C177.548 91.9386 175.978 90.3732 175.978 88.444Z" fill="#EBEBEB"/>
<path d="M1.13261 40.6192C1.4641 40.8126 1.64827 41.1763 1.62985 41.5631C1.62525 41.669 1.62064 41.7703 1.62064 41.8762C1.62064 41.9821 1.62525 42.088 1.62985 42.1939C1.64827 42.576 1.46871 42.9398 1.13261 43.1332L0 43.787L2.1363 47.4842L3.27351 46.8304C3.60501 46.637 4.01477 46.6554 4.33706 46.8672C4.51201 46.9823 4.69618 47.0882 4.88955 47.1849C5.23025 47.3599 5.45125 47.7052 5.45125 48.0874V49.395H9.72385V48.0874C9.72385 47.7052 9.94485 47.3599 10.2856 47.1849C10.4743 47.0882 10.6585 46.9823 10.838 46.8672C11.1603 46.6554 11.5701 46.637 11.9016 46.8304L13.0388 47.4842L15.1751 43.787L14.0333 43.1286C13.7018 42.9352 13.5176 42.5714 13.5406 42.1893C13.5453 42.0834 13.5499 41.9821 13.5499 41.8762C13.5499 41.7703 13.5453 41.6644 13.5406 41.5631C13.5222 41.1809 13.7064 40.8126 14.0379 40.6192L15.1751 39.9654L13.0388 36.2682L11.9062 36.922C11.5747 37.1154 11.1649 37.097 10.8426 36.8852C10.6631 36.7701 10.4789 36.6642 10.2902 36.5675C9.94945 36.3925 9.72846 36.0472 9.72846 35.665V34.3574H5.45585V35.665C5.45585 36.0472 5.23486 36.3925 4.89416 36.5675C4.70539 36.6642 4.52122 36.7701 4.34166 36.8852C4.01938 37.097 3.60961 37.1154 3.27812 36.922L2.14551 36.2682L0 39.9654L1.13261 40.6192ZM7.57834 38.3769C9.51206 38.3769 11.0775 39.947 11.0775 41.8762C11.0775 43.8054 9.50746 45.3708 7.57834 45.3708C5.64462 45.3708 4.08383 43.8054 4.08383 41.8762C4.08383 39.947 5.64923 38.3769 7.57834 38.3769Z" fill="#EBEBEB"/>
<path d="M39.1523 194.999C57.6128 194.999 72.578 192.858 72.578 190.215C72.578 187.573 57.6128 185.432 39.1523 185.432C20.6918 185.432 5.72656 187.573 5.72656 190.215C5.72656 192.858 20.6918 194.999 39.1523 194.999Z" fill="#EBEBEB"/>
<path d="M160.793 138.948C157.386 131.944 151.423 128.344 144.701 130.333C137.979 132.322 136.939 141.692 141.957 144.058C146.976 146.425 151.99 139.514 154.642 138.096C157.294 136.678 160.793 138.948 160.793 138.948Z" fill="#7966FF"/>
<path d="M164.093 157.595C164.074 156.752 164.042 155.905 164.015 155.062C163.955 153.377 163.9 151.692 163.835 150.002C163.72 146.917 163.388 143.892 162.113 141.047C160.967 138.496 159.111 136.263 156.708 134.817C155.815 134.279 154.857 133.864 153.867 133.593C153.038 132.662 151.735 132.059 150.552 131.769C148.996 131.392 147.398 131.475 145.824 131.65C145.769 131.654 145.769 131.746 145.824 131.737C147.316 131.553 148.844 131.645 150.294 132.055C150.916 132.23 151.524 132.455 152.095 132.755C152.468 132.948 152.804 133.178 153.135 133.418C151.791 133.146 150.4 133.137 149.028 133.459C148.54 133.574 148.066 133.74 147.601 133.929C147.242 133.837 146.837 133.827 146.482 133.832C145.994 133.841 145.502 133.919 145.027 134.039C144.047 134.283 143.135 134.748 142.26 135.245C142.21 135.273 142.256 135.347 142.306 135.319C143.153 134.854 144.06 134.518 145.004 134.302C145.46 134.196 145.921 134.131 146.39 134.099C146.648 134.081 146.906 134.094 147.164 134.104C145.271 134.997 143.683 136.512 142.817 138.436C142.794 138.487 142.873 138.533 142.896 138.478C143.904 136.199 146.054 134.642 148.434 134.039C148.582 134.002 148.734 133.979 148.886 133.952C148.835 134.168 148.844 134.417 148.812 134.628C148.766 134.969 148.711 135.31 148.642 135.646C148.499 136.337 148.319 137.027 148.094 137.695C147.863 138.376 147.596 139.039 147.279 139.684C146.956 140.338 146.616 141.038 146.142 141.604C146.1 141.655 146.178 141.71 146.211 141.655C146.616 141.024 147.085 140.439 147.454 139.781C147.804 139.154 148.112 138.501 148.365 137.824C148.619 137.138 148.826 136.443 148.964 135.724C149.037 135.347 149.097 134.965 149.139 134.587C149.166 134.366 149.217 134.117 149.18 133.892C149.968 133.767 150.773 133.758 151.565 133.841C151.266 135.513 150.948 137.253 150.009 138.703C149.977 138.749 150.06 138.795 150.087 138.745C150.506 137.957 150.934 137.193 151.243 136.355C151.538 135.563 151.763 134.711 151.818 133.864C153.204 134.044 154.558 134.509 155.764 135.186C158.089 136.493 159.857 138.547 161.017 140.932C162.279 143.524 162.785 146.314 162.965 149.169C163.19 152.751 163.237 156.351 163.591 159.92C163.614 160.155 163.982 160.233 164.028 159.97C164.176 159.201 164.107 158.391 164.093 157.595Z" fill="#263238"/>
<path d="M156.216 134.26C156.027 133.979 155.7 133.758 155.443 133.546C155.162 133.316 154.876 133.09 154.577 132.888C153.978 132.482 153.339 132.179 152.639 131.99C152.583 131.976 152.56 132.063 152.616 132.077C153.315 132.229 153.951 132.598 154.526 133.016C154.812 133.224 155.083 133.449 155.351 133.68C155.599 133.896 155.843 134.186 156.133 134.343C156.188 134.37 156.253 134.31 156.216 134.26Z" fill="#263238"/>
<path d="M145.34 136.797C144.792 137.465 144.235 138.137 143.78 138.864C143.319 139.597 142.919 140.356 142.615 141.171C142.606 141.194 142.642 141.208 142.656 141.19C143.48 139.702 144.314 138.174 145.405 136.862C145.442 136.816 145.377 136.756 145.34 136.797Z" fill="#263238"/>
<path d="M152.67 136.108C152.596 136.545 152.472 136.973 152.283 137.374C152.104 137.765 151.874 138.138 151.634 138.497C151.62 138.52 151.653 138.548 151.676 138.525C152.283 137.88 152.619 136.992 152.758 136.126C152.767 136.071 152.679 136.048 152.67 136.108Z" fill="#263238"/>
<path d="M163.621 139.121C163.621 139.121 168.446 133.057 177.76 135.207C186.614 137.252 190.698 153.482 181.752 155.425C172.806 157.368 174.385 142.344 171.126 139.798C168.732 137.924 165.292 138.325 163.621 139.121Z" fill="#7966FF"/>
<path d="M184.951 144.072C184.339 143.547 183.708 143.04 183.031 142.603C182.4 142.193 181.71 141.806 180.987 141.581C180.623 141.033 180.222 140.503 179.771 140.02C178.938 139.122 177.99 138.372 176.958 137.778C177.05 137.773 177.142 137.764 177.234 137.759C177.732 137.741 178.22 137.741 178.717 137.773C179.716 137.842 180.678 138.072 181.59 138.487C181.641 138.51 181.682 138.427 181.627 138.408C180.711 138.017 179.739 137.713 178.758 137.543C178.28 137.46 177.787 137.414 177.304 137.418C177.041 137.423 176.779 137.437 176.521 137.465C176.47 137.469 176.424 137.474 176.373 137.478C175.522 137.046 174.619 136.719 173.689 136.493C173.777 136.47 173.86 136.442 173.947 136.424C174.403 136.318 174.863 136.254 175.328 136.198C176.263 136.088 177.184 136.111 178.114 136.24C178.169 136.249 178.187 136.161 178.128 136.152C177.198 136.037 176.245 136 175.31 136.037C174.541 136.065 173.731 136.152 172.966 136.341C172.409 136.24 171.843 136.171 171.268 136.148C168.022 136.01 164.481 137.225 162.483 139.891C160.476 142.566 160.093 146.125 159.739 149.348C159.246 153.833 159.021 158.382 159.384 162.885C159.407 163.152 159.78 163.101 159.79 162.848C159.914 159.022 160.047 155.191 160.411 151.379C160.581 149.611 160.77 147.838 161.065 146.088C161.318 144.592 161.673 143.1 162.349 141.733C163.054 140.305 164.122 139.159 165.494 138.353C166.848 137.557 168.39 137.119 169.946 136.981C171.36 136.857 172.773 137.004 174.122 137.372C174.062 137.639 174.076 137.92 174.099 138.197C174.127 138.542 174.196 138.883 174.302 139.214C174.403 139.527 174.536 139.831 174.693 140.117C174.863 140.434 175.084 140.72 175.273 141.028C175.305 141.079 175.384 141.024 175.347 140.978C174.946 140.471 174.739 139.767 174.624 139.14C174.564 138.827 174.527 138.51 174.513 138.192C174.5 137.953 174.523 137.709 174.509 137.474C175.978 137.925 177.359 138.652 178.574 139.619C178.8 139.799 179.021 139.992 179.233 140.19C178.915 140.453 178.657 140.844 178.445 141.162C178.128 141.631 177.847 142.119 177.617 142.635C177.161 143.657 176.921 144.771 176.756 145.876C176.746 145.932 176.834 145.95 176.843 145.89C176.995 144.799 177.396 143.791 177.902 142.819C178.146 142.35 178.422 141.889 178.726 141.456C178.883 141.231 179.044 141.01 179.214 140.798C179.306 140.683 179.403 140.563 179.49 140.439C180.582 141.507 181.484 142.773 182.133 144.159C182.129 144.164 182.119 144.164 182.115 144.168C181.654 144.597 181.327 145.19 181.024 145.738C180.688 146.337 180.397 146.963 180.153 147.603C179.675 148.837 179.362 150.122 179.044 151.402C179.03 151.457 179.122 151.475 179.131 151.415C179.389 150.108 179.882 148.874 180.453 147.677C180.729 147.092 181.024 146.516 181.332 145.95C181.622 145.416 181.981 144.887 182.207 144.32C182.819 145.683 183.197 147.147 183.27 148.634C183.275 148.69 183.362 148.685 183.358 148.625C183.174 146.305 182.483 143.993 181.268 142.004C181.839 142.248 182.409 142.483 182.957 142.778C183.657 143.155 184.311 143.602 184.896 144.136C184.932 144.178 184.992 144.108 184.951 144.072Z" fill="#263238"/>
<path d="M178.118 144.411C177.837 145.331 177.487 146.225 177.234 147.15C176.99 148.043 176.824 148.96 176.824 149.89C176.824 149.913 176.866 149.917 176.87 149.89C177.142 148.048 177.547 146.179 178.205 144.434C178.224 144.378 178.136 144.351 178.118 144.411Z" fill="#263238"/>
<path d="M184.021 142.132C183.648 141.783 183.243 141.479 182.787 141.253C182.331 141.027 181.843 140.894 181.359 140.747C181.304 140.728 181.286 140.82 181.346 140.834C181.829 140.945 182.28 141.166 182.718 141.4C183.155 141.631 183.583 141.884 183.984 142.178C184.011 142.197 184.044 142.16 184.021 142.132Z" fill="#263238"/>
<path d="M168.205 131.019C168.205 131.019 169.094 120.126 177.197 116.594C183.96 113.647 187.832 121.244 183.049 125.899C179.181 129.661 172.975 127.962 168.205 131.019Z" fill="#7966FF"/>
<path d="M181.547 118.703C180.323 119.228 179.107 119.743 177.947 120.406C176.976 120.963 176.046 121.59 175.152 122.262C175.286 121.986 175.406 121.7 175.539 121.428C175.751 121.009 175.976 120.595 176.225 120.199C176.741 119.38 177.307 118.611 178.007 117.943C178.048 117.902 177.984 117.842 177.942 117.883C177.275 118.569 176.616 119.283 176.064 120.07C175.788 120.466 175.525 120.876 175.295 121.304C175.083 121.691 174.844 122.124 174.752 122.561C174.724 122.584 174.692 122.602 174.664 122.626C173.242 123.744 171.962 125.029 170.797 126.41C170.82 126.304 170.843 126.198 170.871 126.097C171.022 125.568 171.188 125.038 171.363 124.513C171.732 123.408 172.183 122.308 172.827 121.336C172.86 121.29 172.781 121.244 172.749 121.295C172.137 122.303 171.524 123.307 171.055 124.394C170.829 124.914 170.64 125.457 170.493 126.005C170.406 126.332 170.263 126.728 170.231 127.101C169.876 127.547 169.531 127.999 169.204 128.464C165.728 133.413 163.983 139.403 163.564 145.394C163.44 147.18 163.412 148.971 163.472 150.762C163.532 152.553 163.596 154.386 163.946 156.149C163.969 156.26 164.144 156.227 164.144 156.117C164.103 154.542 163.941 152.977 163.909 151.398C163.877 149.818 163.932 148.239 164.061 146.669C164.314 143.538 164.908 140.403 165.829 137.396C166.768 134.325 168.154 131.364 169.95 128.68C170.29 128.611 170.631 128.519 170.963 128.432C171.368 128.326 171.773 128.224 172.173 128.109C172.947 127.893 173.716 127.649 174.434 127.28C174.485 127.253 174.439 127.175 174.388 127.207C173.679 127.621 172.896 127.838 172.1 127.999C171.464 128.123 170.806 128.206 170.171 128.353C170.76 127.497 171.382 126.668 172.054 125.876C173.592 126.028 175.162 125.89 176.662 125.531C177.464 125.342 178.256 125.093 179.02 124.794C179.83 124.481 180.599 124.08 181.4 123.744C181.46 123.721 181.419 123.629 181.363 123.666C179.991 124.499 178.265 124.928 176.69 125.195C175.24 125.439 173.785 125.531 172.321 125.554C172.896 124.895 173.49 124.251 174.126 123.648C176.253 121.622 178.78 119.757 181.58 118.79C181.63 118.772 181.603 118.684 181.547 118.703Z" fill="#263238"/>
<path d="M174.959 118.739C174.595 119.2 174.259 119.683 173.964 120.19C173.656 120.728 173.43 121.285 173.251 121.879C173.246 121.898 173.274 121.912 173.283 121.893C173.554 121.359 173.78 120.807 174.056 120.272C174.328 119.748 174.646 119.255 175.023 118.799C175.06 118.753 174.991 118.693 174.959 118.739Z" fill="#263238"/>
<path d="M182.492 122.363C181.967 122.667 181.405 122.869 180.829 123.058C180.272 123.238 179.711 123.399 179.14 123.514C179.112 123.519 179.121 123.565 179.149 123.56C179.747 123.491 180.332 123.376 180.898 123.178C181.465 122.98 182.003 122.708 182.538 122.441C182.588 122.418 182.542 122.335 182.492 122.363Z" fill="#263238"/>
<path d="M161.908 129.062C161.857 129.531 160.683 125.106 153.832 121.174C147.612 117.606 140.19 108.324 146.286 102.458C151.212 97.7249 164.178 108.043 161.908 129.062Z" fill="#7966FF"/>
<path d="M166.623 154.436C166.521 149.832 166.162 145.228 165.536 140.665C164.961 136.466 164.058 132.336 162.645 128.339C162.134 126.898 161.554 125.48 160.923 124.085C160.987 123.555 160.918 122.971 160.895 122.455C160.863 121.76 160.798 121.06 160.734 120.365C160.67 119.669 160.6 118.974 160.518 118.279C160.435 117.593 160.287 116.893 160.26 116.202C160.255 116.138 160.158 116.152 160.172 116.216C160.338 116.925 160.361 117.694 160.416 118.422C160.467 119.094 160.508 119.766 160.527 120.438C160.545 121.111 160.545 121.787 160.545 122.46C160.545 122.704 160.531 122.961 160.522 123.219C159.878 121.856 159.187 120.517 158.441 119.214C158.906 116.373 158.303 113.408 157.723 110.631C157.709 110.576 157.626 110.599 157.64 110.659C157.944 112.105 158.059 113.583 158.091 115.061C158.119 116.225 158.064 117.395 158.059 118.56C157.893 118.279 157.732 118.003 157.562 117.726C156.673 116.276 155.725 114.853 154.716 113.477C154.827 112.814 154.749 112.109 154.652 111.455C154.541 110.71 154.371 109.964 154.155 109.245C153.938 108.518 153.685 107.809 153.395 107.109C153.1 106.391 152.704 105.709 152.419 104.986C152.396 104.927 152.304 104.968 152.341 105.023C152.727 105.672 152.967 106.455 153.197 107.173C153.423 107.869 153.611 108.587 153.759 109.305C153.902 110.028 154.021 110.751 154.123 111.478C154.192 111.962 154.233 112.459 154.316 112.947C152.843 110.981 151.25 109.103 149.518 107.367C149.477 107.325 149.422 107.39 149.459 107.431C152.06 110.387 154.413 113.518 156.42 116.902C156.494 117.027 156.567 117.155 156.641 117.284C156.263 117.05 155.831 116.861 155.476 116.663C154.813 116.294 154.146 115.926 153.478 115.567C152.829 115.217 152.184 114.863 151.54 114.503C151.208 114.319 150.881 114.126 150.541 113.956C150.158 113.758 149.726 113.573 149.38 113.311C149.33 113.269 149.274 113.352 149.33 113.38C149.988 113.744 150.573 114.282 151.208 114.688C151.848 115.097 152.497 115.489 153.165 115.862C154.38 116.543 155.706 117.031 156.903 117.731C157.737 119.186 158.501 120.678 159.21 122.202C158.483 121.737 157.741 121.295 156.986 120.871C156.503 120.599 156.015 120.332 155.522 120.075C155.048 119.826 154.555 119.591 154.141 119.241C154.099 119.204 154.04 119.264 154.081 119.306C154.855 120.065 155.78 120.595 156.71 121.138C157.589 121.654 158.478 122.147 159.394 122.598C160.126 124.2 160.789 125.839 161.379 127.497C164.261 135.66 165.32 144.325 165.826 152.931C165.978 155.495 166.056 158.06 166.089 160.629C166.121 163.194 165.987 165.758 165.992 168.323C165.992 168.396 166.116 168.415 166.125 168.337C166.434 166.062 166.489 163.746 166.586 161.458C166.673 159.114 166.673 156.771 166.623 154.436Z" fill="#263238"/>
<path d="M154.177 117.482C152.921 116.967 151.719 116.267 150.54 115.599C149.352 114.927 148.197 114.2 147.083 113.408C147.064 113.394 147.041 113.426 147.06 113.44C148.114 114.282 149.219 115.07 150.379 115.76C151.585 116.474 152.856 117.004 154.136 117.561C154.187 117.584 154.233 117.505 154.177 117.482Z" fill="#263238"/>
<path d="M156.161 108.254C156.06 107.854 155.936 107.467 155.802 107.076C155.816 107.066 155.83 107.053 155.821 107.029C155.733 106.808 155.641 106.592 155.554 106.371C155.545 106.343 155.531 106.311 155.522 106.293C155.503 106.251 155.489 106.21 155.471 106.168C155.466 106.155 155.443 106.159 155.448 106.173C155.471 106.247 155.489 106.325 155.517 106.399C155.531 106.44 155.535 106.482 155.554 106.523C156.019 108.042 156.327 109.603 156.567 111.173C156.576 111.224 156.65 111.224 156.645 111.173C156.585 110.188 156.406 109.217 156.161 108.254Z" fill="#263238"/>
<path d="M173.859 156.092L173.371 161.884L171.875 179.551H155.848L154.351 161.884L153.863 156.092H173.859Z" fill="#37474F"/>
<path d="M173.859 156.092L173.371 161.884H154.351L153.863 156.092H173.859Z" fill="#263238"/>
<path d="M175.429 153.768H152.289V159.325H175.429V153.768Z" fill="#37474F"/>
<path d="M0.240234 179.552L23.5554 179.437L46.8705 179.401L93.5008 179.322L140.131 179.401L163.446 179.437L186.761 179.552L163.446 179.663L140.131 179.704L93.5008 179.783L46.8705 179.704L23.5554 179.663L0.240234 179.552Z" fill="#263238"/>
<path d="M132.408 3.27734H54.5761C50.2299 3.27734 46.7031 6.86407 46.7031 11.298V171.531C46.7031 175.956 50.2299 179.552 54.5761 179.552H132.408C136.759 179.552 140.291 175.956 140.291 171.531V11.298C140.291 6.86407 136.759 3.27734 132.408 3.27734ZM135.369 166.577C135.369 170.794 132.21 174.206 128.315 174.206H58.683C54.7787 174.206 51.6203 170.794 51.6203 166.577V17.371C51.6203 8.77945 54.7787 8.36046 58.683 8.36046H72.6288C73.4391 8.36046 74.1021 9.28131 74.1021 10.4232V10.9158C74.1021 13.5909 75.5662 13.6001 77.3664 13.6001H109.623C111.437 13.6001 112.887 13.5909 112.887 10.9158V10.4232C112.887 9.28131 113.541 8.36046 114.365 8.36046H128.315C132.21 8.36046 135.369 9.50232 135.369 17.371V166.577Z" fill="#263238"/>
<path d="M97.8964 10.2565H89.098C88.7987 10.2565 88.5547 10.0125 88.5547 9.71323C88.5547 9.41395 88.7987 9.16992 89.098 9.16992H97.8964C98.1957 9.16992 98.4397 9.41395 98.4397 9.71323C98.4397 10.0125 98.1957 10.2565 97.8964 10.2565Z" fill="white"/>
<path d="M135.374 17.3719V166.578C135.374 170.795 132.215 174.207 128.32 174.207H58.6877C54.7834 174.207 51.625 170.795 51.625 166.578V17.3719C51.625 8.78032 54.7834 8.36133 58.6877 8.36133H72.6335C73.4438 8.36133 74.1068 9.28218 74.1068 10.424V10.9167C74.1068 13.5918 75.5709 13.601 77.3711 13.601H109.627C111.441 13.601 112.892 13.5918 112.892 10.9167V10.424C112.892 9.28218 113.545 8.36133 114.37 8.36133H128.32C132.215 8.36133 135.374 9.50319 135.374 17.3719Z" fill="white"/>
<path d="M60.102 23.0681L57.625 20.7522L60.102 18.4316L60.4841 18.8414L58.4445 20.7522L60.4841 22.663L60.102 23.0681Z" fill="#C7C7C7"/>
<path d="M128.888 19.3064C128.888 19.5735 128.672 19.7945 128.4 19.7945C128.128 19.7945 127.912 19.5781 127.912 19.3064C127.912 19.0348 128.128 18.8184 128.4 18.8184C128.672 18.8184 128.888 19.0394 128.888 19.3064Z" fill="#C7C7C7"/>
<path d="M128.888 21.0369C128.888 21.3039 128.672 21.5249 128.4 21.5249C128.128 21.5249 127.912 21.3085 127.912 21.0369C127.912 20.7698 128.128 20.5488 128.4 20.5488C128.672 20.5488 128.888 20.7698 128.888 21.0369Z" fill="#C7C7C7"/>
<path d="M128.888 22.7693C128.888 23.0363 128.672 23.2574 128.4 23.2574C128.128 23.2574 127.912 23.041 127.912 22.7693C127.912 22.5023 128.128 22.2812 128.4 22.2812C128.672 22.2812 128.888 22.5023 128.888 22.7693Z" fill="#C7C7C7"/>
<path d="M70.2254 11.7128C70.1793 11.7589 70.1333 11.8003 70.0918 11.8463C70.0642 11.874 70.0412 11.897 70.0136 11.9246C69.6499 11.5747 69.2217 11.3859 68.7152 11.3859C68.2088 11.3859 67.7806 11.5747 67.4169 11.9246C67.3938 11.9016 67.3708 11.874 67.3432 11.8509C67.2972 11.8049 67.2557 11.7635 67.2097 11.7174H67.2051C67.2051 11.7174 67.2051 11.7174 67.2051 11.7128C67.2097 11.7082 67.2097 11.7082 67.2143 11.7036C67.2695 11.653 67.3248 11.6023 67.3846 11.5517C67.5043 11.4504 67.6379 11.3675 67.7806 11.2984C67.9463 11.2156 68.1213 11.1557 68.3009 11.1235C68.3883 11.1097 68.4758 11.1004 68.5633 11.0866C68.5909 11.082 68.7843 11.082 68.7935 11.082C68.8533 11.0866 68.9132 11.0912 68.973 11.0958C69.1388 11.1143 69.2953 11.1557 69.4519 11.211C69.5624 11.2524 69.6729 11.303 69.7742 11.3629C69.8847 11.4274 69.986 11.4964 70.0826 11.5793C70.1333 11.6207 70.1793 11.6668 70.2254 11.7128C70.2254 11.7082 70.2254 11.7082 70.2254 11.7128Z" fill="#C7C7C7"/>
<path d="M67.8446 12.3445C67.7755 12.2754 67.7019 12.2063 67.6328 12.1327C67.8768 11.8932 68.1623 11.7413 68.4984 11.6999C69.0002 11.6308 69.433 11.7827 69.8013 12.1327C69.7277 12.2063 69.6586 12.2754 69.5895 12.3445C69.3501 12.1096 69.0601 11.9853 68.7194 11.9853C68.3741 11.9853 68.084 12.1096 67.8446 12.3445Z" fill="#C7C7C7"/>
<path d="M69.3734 12.5596C69.3043 12.6286 69.2307 12.7023 69.1616 12.7714C69.0373 12.6516 68.89 12.5872 68.715 12.5872C68.5401 12.5872 68.3927 12.6516 68.2684 12.7714C68.1994 12.7023 68.1257 12.6286 68.0566 12.5596C68.3927 12.205 69.0005 12.1774 69.3734 12.5596Z" fill="#C7C7C7"/>
<path d="M68.9082 12.961C68.9082 13.0669 68.8207 13.1543 68.7149 13.1543C68.609 13.1543 68.5215 13.0669 68.5215 12.961C68.5215 12.8551 68.609 12.7676 68.7149 12.7676C68.8207 12.7722 68.9082 12.8551 68.9082 12.961Z" fill="#C7C7C7"/>
<path d="M57.0859 12.1177C57.0859 11.8092 57.3346 11.5605 57.643 11.5605C57.9515 11.5605 58.2001 11.8092 58.2001 12.1177C58.2001 12.4261 57.9515 12.6748 57.643 12.6748C57.3346 12.6748 57.0859 12.4261 57.0859 12.1177Z" fill="#C7C7C7"/>
<path d="M58.8301 12.1177C58.8301 11.8092 59.0787 11.5605 59.3872 11.5605C59.6957 11.5605 59.9443 11.8092 59.9443 12.1177C59.9443 12.4261 59.6957 12.6748 59.3872 12.6748C59.0787 12.6748 58.8301 12.4261 58.8301 12.1177Z" fill="#C7C7C7"/>
<path d="M60.5801 12.1177C60.5801 11.8092 60.8287 11.5605 61.1372 11.5605C61.4456 11.5605 61.6943 11.8092 61.6943 12.1177C61.6943 12.4261 61.4456 12.6748 61.1372 12.6748C60.8287 12.6748 60.5801 12.4261 60.5801 12.1177Z" fill="#C7C7C7"/>
<path d="M62.3301 12.1177C62.3301 11.8092 62.5787 11.5605 62.8872 11.5605C63.1956 11.5605 63.4443 11.8092 63.4443 12.1177C63.4443 12.4261 63.1956 12.6748 62.8872 12.6748C62.5787 12.6748 62.3301 12.4261 62.3301 12.1177Z" fill="#C7C7C7"/>
<path d="M64.0742 12.1177C64.0742 11.8092 64.3228 11.5605 64.6313 11.5605C64.9398 11.5605 65.1884 11.8092 65.1884 12.1177C65.1884 12.4261 64.9398 12.6748 64.6313 12.6748C64.3228 12.6748 64.0742 12.4261 64.0742 12.1177Z" fill="#C7C7C7"/>
<path d="M129.094 13.3339H124.568V11.2344H129.094V13.3339ZM124.803 13.0991H128.855V11.4738H124.803V13.0991Z" fill="#C7C7C7"/>
<path d="M127.86 11.5938H124.945V12.975H127.86V11.5938Z" fill="#C7C7C7"/>
<path d="M129.494 11.7227H129.094V12.8415H129.494V11.7227Z" fill="#C7C7C7"/>
<path d="M64.3515 165.086H63.7116V168.01H62.5237V166.518H60.415V168.01H59.2272V165.086H58.5918L61.4694 162.107L64.3515 165.086Z" fill="#EBEBEB"/>
<path d="M128.414 162.107H121.471V163.097H128.414V162.107Z" fill="#EBEBEB"/>
<path d="M128.414 164.561H121.471V165.55H128.414V164.561Z" fill="#EBEBEB"/>
<path d="M128.414 167.016H121.471V168.006H128.414V167.016Z" fill="#EBEBEB"/>
<path d="M95.4757 164.667L93.5006 166.771L91.5254 164.667L91.8753 164.34L93.5006 166.071L95.1258 164.34L95.4757 164.667Z" fill="#EBEBEB"/>
<path d="M93.5007 168.949C91.5255 168.949 89.9141 167.342 89.9141 165.362C89.9141 163.387 91.5209 161.775 93.5007 161.775C95.4758 161.775 97.0872 163.382 97.0872 165.362C97.0872 167.337 95.4758 168.949 93.5007 168.949ZM93.5007 162.25C91.7833 162.25 90.3883 163.645 90.3883 165.362C90.3883 167.08 91.7833 168.475 93.5007 168.475C95.218 168.475 96.613 167.08 96.613 165.362C96.613 163.645 95.218 162.25 93.5007 162.25Z" fill="#EBEBEB"/>
<path d="M88.1441 152.476C88.1441 153.139 87.6055 153.674 86.9471 153.674C86.2887 153.674 85.75 153.135 85.75 152.476C85.75 151.813 86.2887 151.279 86.9471 151.279C87.6055 151.279 88.1441 151.813 88.1441 152.476Z" fill="#DBDBDB"/>
<path d="M95.4425 152.476C95.4425 153.475 94.6322 154.29 93.6285 154.29C92.6294 154.29 91.8145 153.48 91.8145 152.476C91.8145 151.477 92.6248 150.662 93.6285 150.662C94.6276 150.662 95.4425 151.472 95.4425 152.476Z" fill="#7966FF"/>
<path d="M101.505 152.476C101.505 153.139 100.967 153.674 100.308 153.674C99.6454 153.674 99.1113 153.135 99.1113 152.476C99.1113 151.813 99.65 151.279 100.308 151.279C100.971 151.279 101.505 151.813 101.505 152.476Z" fill="#DBDBDB"/>
<path d="M109.397 119.123H77.0859V129.4H109.397V119.123Z" fill="#7966FF"/>
<path d="M86.1094 125.704V122.918C86.1094 122.775 86.2245 122.66 86.3672 122.66C86.5145 122.66 86.6296 122.78 86.6296 122.918V125.437H87.9096C88.0477 125.437 88.1674 125.556 88.1674 125.699C88.1674 125.842 88.0431 125.957 87.9096 125.957H86.381C86.3718 125.957 86.3718 125.957 86.3718 125.957C86.3672 125.957 86.3672 125.957 86.3672 125.957C86.2199 125.961 86.1094 125.842 86.1094 125.704Z" fill="white"/>
<path d="M91.1783 123.069C91.473 123.382 91.6526 123.796 91.6526 124.261C91.6526 124.727 91.4684 125.15 91.1783 125.454C90.9021 125.762 90.4831 125.96 90.0503 125.96C89.5991 125.96 89.1802 125.762 88.8947 125.454C88.6 125.145 88.4297 124.727 88.4297 124.261C88.4297 123.796 88.6046 123.377 88.8947 123.069C89.1802 122.756 89.5991 122.562 90.0503 122.562C90.4877 122.562 90.9021 122.756 91.1783 123.069ZM91.1185 124.261C91.1185 123.939 90.9896 123.645 90.7962 123.437C90.5982 123.226 90.3358 123.101 90.0503 123.101C89.7465 123.101 89.484 123.226 89.286 123.437C89.0881 123.645 88.9638 123.944 88.9638 124.261C88.9638 124.584 89.0881 124.878 89.286 125.081C89.484 125.293 89.7465 125.422 90.0503 125.422C90.3358 125.422 90.5982 125.293 90.7962 125.081C90.9896 124.878 91.1185 124.584 91.1185 124.261Z" fill="white"/>
<path d="M92.4395 124.266C92.4395 123.318 93.2221 122.562 94.1798 122.562C94.5803 122.562 94.9625 122.701 95.2571 122.931C95.3815 123.018 95.3999 123.193 95.3078 123.313C95.2157 123.428 95.0454 123.451 94.9256 123.354C94.7231 123.198 94.4652 123.101 94.1798 123.101C93.8391 123.101 93.5444 123.23 93.3326 123.447C93.1116 123.658 92.9781 123.948 92.9781 124.266C92.9781 124.579 93.1116 124.865 93.3326 125.076C93.5444 125.293 93.8437 125.422 94.1798 125.422C94.4146 125.422 94.6356 125.353 94.8244 125.242V124.598H94.1476C94.0002 124.598 93.8805 124.473 93.8805 124.331C93.8805 124.179 94.0048 124.068 94.1476 124.068H95.0776C95.0822 124.068 95.0822 124.068 95.0822 124.068C95.0868 124.068 95.0868 124.068 95.0868 124.068C95.2387 124.068 95.3584 124.183 95.3584 124.331V125.371C95.3584 125.403 95.3492 125.422 95.3446 125.449C95.34 125.459 95.34 125.463 95.3354 125.472V125.477C95.3216 125.518 95.294 125.555 95.2479 125.592C94.9487 125.822 94.5757 125.96 94.1752 125.96C93.2268 125.96 92.4395 125.21 92.4395 124.266Z" fill="white"/>
<path d="M96.4648 122.918C96.4648 122.771 96.5799 122.66 96.7227 122.66C96.8654 122.66 96.9851 122.775 96.9851 122.918V125.704C96.9851 125.851 96.8608 125.961 96.7227 125.961C96.5753 125.961 96.4648 125.846 96.4648 125.704V122.918Z" fill="white"/>
<path d="M98.3884 125.702C98.3884 125.845 98.2687 125.96 98.1352 125.96C97.9878 125.96 97.8773 125.84 97.8773 125.702V122.963C97.8773 122.963 97.8773 122.963 97.8773 122.958C97.8727 122.875 97.9096 122.792 97.9832 122.742C98.1029 122.663 98.2595 122.686 98.3424 122.797L99.8663 124.906V122.963C99.8663 122.824 99.9814 122.709 100.12 122.709C100.262 122.709 100.377 122.829 100.377 122.963V125.702C100.377 125.845 100.258 125.96 100.12 125.96C100.046 125.96 99.9722 125.923 99.9262 125.863C99.917 125.854 99.9078 125.845 99.9032 125.836L98.393 123.741V125.702H98.3884Z" fill="white"/>
<path d="M101.309 39.5699V42.9356H98.9282V39.5699C98.9282 36.3653 96.4926 33.7593 93.5 33.7593C90.5073 33.7593 88.0717 36.3653 88.0717 39.5699V47.9957H85.6914V39.5699C85.6914 34.9795 89.1951 31.25 93.5 31.25C97.8048 31.25 101.309 34.9841 101.309 39.5699Z" fill="#C7C7C7"/>
<path d="M85.6914 42.9453L88.0717 43.042V47.9962H85.6914V42.9453Z" fill="#A6A6A6"/>
<path d="M104.361 45.1738H82.6387V64.8801H104.361V45.1738Z" fill="#7966FF"/>
<path opacity="0.1" d="M104.361 45.1738H93.5V64.8801H104.361V45.1738Z" fill="black"/>
<path d="M94.4161 55.7486L95.3231 60.0628H91.4648L92.3719 55.7486C91.8286 55.4032 91.4648 54.8047 91.4648 54.1186C91.4648 53.0412 92.3304 52.1895 93.394 52.1895C94.4575 52.1895 95.3231 53.0412 95.3231 54.1186C95.3277 54.8047 94.9594 55.4032 94.4161 55.7486Z" fill="#263238"/>
<path d="M121.474 86.625H65.5293V96.2019H121.474V86.625Z" fill="white"/>
<path d="M121.699 96.4318H65.2988V86.3945H121.704V96.4318H121.699ZM65.7592 95.9714H121.243V86.855H65.7592V95.9714Z" fill="#EBEBEB"/>
<path d="M71.3354 89.2676H70.875V93.3608H71.3354V89.2676Z" fill="#37474F"/>
<path d="M73.1536 91.082H69.0605V91.5425H73.1536V91.082Z" fill="#37474F"/>
<path d="M72.3974 89.7022L69.502 92.5957L69.8274 92.9214L72.7228 90.0279L72.3974 89.7022Z" fill="#37474F"/>
<path d="M69.8197 89.7037L69.4941 90.0293L72.3883 92.9236L72.7139 92.598L69.8197 89.7037Z" fill="#37474F"/>
<path d="M78.2788 89.2676H77.8184V93.3608H78.2788V89.2676Z" fill="#37474F"/>
<path d="M80.0969 91.082H76.0039V91.5425H80.0969V91.082Z" fill="#37474F"/>
<path d="M79.3407 89.7022L76.4453 92.5957L76.7708 92.9214L79.6662 90.0279L79.3407 89.7022Z" fill="#37474F"/>
<path d="M76.7631 89.6998L76.4375 90.0254L79.3317 92.9197L79.6572 92.5941L76.7631 89.6998Z" fill="#37474F"/>
<path d="M85.2221 89.2676H84.7617V93.3608H85.2221V89.2676Z" fill="#37474F"/>
<path d="M87.0403 91.082H82.9473V91.5425H87.0403V91.082Z" fill="#37474F"/>
<path d="M86.2759 89.7022L83.3809 92.5957L83.7063 92.9214L86.6013 90.0279L86.2759 89.7022Z" fill="#37474F"/>
<path d="M83.7064 89.6998L83.3809 90.0254L86.2751 92.9197L86.6006 92.5941L83.7064 89.6998Z" fill="#37474F"/>
<path d="M92.1674 89.2676H91.707V93.3608H92.1674V89.2676Z" fill="#37474F"/>
<path d="M93.9817 91.082H89.8887V91.5425H93.9817V91.082Z" fill="#37474F"/>
<path d="M93.2275 89.7022L90.332 92.5957L90.6575 92.9214L93.5529 90.0279L93.2275 89.7022Z" fill="#37474F"/>
<path d="M90.6517 89.7018L90.3262 90.0273L93.2204 92.9216L93.5459 92.5961L90.6517 89.7018Z" fill="#37474F"/>
<path d="M99.1108 89.2676H98.6504V93.3608H99.1108V89.2676Z" fill="#37474F"/>
<path d="M100.925 91.082H96.832V91.5425H100.925V91.082Z" fill="#37474F"/>
<path d="M100.171 89.7042L97.2754 92.5977L97.6009 92.9234L100.496 90.0299L100.171 89.7042Z" fill="#37474F"/>
<path d="M97.3256 90.0006L97 90.3262L99.8942 93.2205L100.22 92.8949L97.3256 90.0006Z" fill="#37474F"/>
<path d="M106.054 89.2676H105.594V93.3608H106.054V89.2676Z" fill="#37474F"/>
<path d="M107.872 91.082H103.779V91.5425H107.872V91.082Z" fill="#37474F"/>
<path d="M107.104 89.7042L104.209 92.5977L104.534 92.9233L107.429 90.0298L107.104 89.7042Z" fill="#37474F"/>
<path d="M104.536 89.6979L104.211 90.0234L107.105 92.9177L107.431 92.5922L104.536 89.6979Z" fill="#37474F"/>
<path d="M116.695 92.8926C115.153 92.8926 114.191 91.5804 114.149 91.5251L114.053 91.3916L114.149 91.2581C114.191 91.2028 115.153 89.8906 116.695 89.8906C118.238 89.8906 119.2 91.2028 119.237 91.2581L119.334 91.3916L119.237 91.5251C119.196 91.585 118.238 92.8926 116.695 92.8926ZM114.633 91.3916C114.904 91.7001 115.664 92.4322 116.695 92.4322C117.727 92.4322 118.482 91.7001 118.754 91.3916C118.482 91.0831 117.727 90.3511 116.695 90.3511C115.66 90.3511 114.904 91.0831 114.633 91.3916Z" fill="#EBEBEB"/>
<path d="M116.69 92.4274C117.262 92.4274 117.726 91.9636 117.726 91.3914C117.726 90.8193 117.262 90.3555 116.69 90.3555C116.118 90.3555 115.654 90.8193 115.654 91.3914C115.654 91.9636 116.118 92.4274 116.69 92.4274Z" fill="#EBEBEB"/>
<path d="M118.407 89.3108L114.729 92.9902L115.054 93.3158L118.733 89.6364L118.407 89.3108Z" fill="#EBEBEB"/>
<path d="M78.4575 76.653H77.7255V77.9468C77.7255 78.1264 77.5782 78.2737 77.3894 78.2737C77.2098 78.2737 77.0625 78.1264 77.0625 77.9468V74.4246C77.0625 74.2404 77.2098 74.0977 77.3894 74.0977H77.394H78.4575C79.1666 74.0977 79.7421 74.6686 79.7421 75.3822C79.7421 76.0775 79.1666 76.653 78.4575 76.653ZM77.7209 75.99H78.4529C78.7982 75.99 79.0699 75.7138 79.0745 75.3822C79.0699 75.0369 78.7982 74.7607 78.4529 74.7607H77.7209V75.99Z" fill="#FFC727"/>
<path d="M82.2562 77.2884H80.8059L80.5159 78.0665C80.4606 78.2001 80.3363 78.2737 80.2074 78.2737C80.166 78.2737 80.1291 78.2691 80.0923 78.2553C79.9173 78.1909 79.8345 77.9975 79.8943 77.8271L81.2157 74.3094C81.2709 74.1759 81.3999 74.093 81.5334 74.1023C81.6715 74.0977 81.7958 74.1805 81.8511 74.3094L83.1724 77.8271C83.2323 78.0021 83.1494 78.1909 82.9745 78.2553C82.9468 78.2691 82.9008 78.2737 82.8594 78.2737C82.7258 78.2737 82.6015 78.1955 82.5555 78.0665L82.2562 77.2884ZM82.0122 76.6346L81.5288 75.35L81.0453 76.6346H82.0122Z" fill="#FFC727"/>
<path d="M83.7486 77.2376C83.8545 77.1041 84.0525 77.0903 84.186 77.1962C84.4484 77.4126 84.9042 77.6612 85.3278 77.6566C85.6271 77.6566 85.8941 77.5691 86.0737 77.4356C86.2532 77.3021 86.3315 77.1548 86.3315 77.0074C86.3315 76.9292 86.3131 76.8739 86.2762 76.8187C86.2394 76.7588 86.1888 76.6989 86.0967 76.6391C85.9217 76.524 85.6317 76.4227 85.2772 76.3582H85.2633C84.9825 76.303 84.7201 76.2339 84.4945 76.1234C84.2689 76.0175 84.0709 75.8656 83.9374 75.6584C83.8499 75.5157 83.7992 75.3499 83.7992 75.1703C83.7992 74.8112 84.0018 74.5027 84.2781 74.3001C84.5589 74.0975 84.9226 73.9824 85.3094 73.9824C85.8803 73.9824 86.3085 74.2633 86.6123 74.4613C86.7505 74.558 86.7919 74.7467 86.6952 74.8849C86.6077 75.0276 86.4144 75.069 86.2716 74.9723C85.9678 74.7698 85.6731 74.5902 85.3094 74.5902C85.0423 74.5902 84.8029 74.6731 84.6418 74.7928C84.4806 74.9125 84.4162 75.0414 84.4162 75.1703C84.4162 75.244 84.43 75.29 84.4576 75.3361C84.4852 75.3821 84.5405 75.4374 84.6188 75.4926C84.7753 75.5985 85.0423 75.6952 85.3646 75.7551H85.3784C85.6823 75.8149 85.9632 75.8932 86.2026 76.0037C86.4466 76.1234 86.663 76.28 86.8011 76.501C86.8886 76.6437 86.9438 76.8233 86.9438 77.0074C86.9438 77.3896 86.7274 77.7165 86.4282 77.9329C86.1381 78.1493 85.7468 78.2736 85.3232 78.2736C84.6786 78.269 84.1353 77.9467 83.7946 77.675C83.6657 77.5645 83.6473 77.3666 83.7486 77.2376Z" fill="#FFC727"/>
<path d="M87.6758 77.2376C87.7817 77.1041 87.9797 77.0903 88.1132 77.1962C88.3757 77.4126 88.8315 77.6612 89.255 77.6566C89.5543 77.6566 89.8213 77.5691 90.0009 77.4356C90.1805 77.3021 90.2587 77.1548 90.2587 77.0074C90.2587 76.9292 90.2403 76.8739 90.2035 76.8187C90.1667 76.7588 90.116 76.6989 90.0239 76.6391C89.849 76.524 89.5589 76.4227 89.2044 76.3582H89.1906C88.9097 76.303 88.6473 76.2339 88.4217 76.1234C88.1961 76.0175 87.9981 75.8656 87.8646 75.6584C87.7771 75.5157 87.7265 75.3499 87.7265 75.1703C87.7265 74.8112 87.9291 74.5027 88.2053 74.3001C88.4862 74.0975 88.8499 73.9824 89.2366 73.9824C89.8075 73.9824 90.2357 74.2633 90.5396 74.4613C90.6777 74.558 90.7191 74.7467 90.6225 74.8849C90.535 75.0276 90.3416 75.069 90.1989 74.9723C89.895 74.7698 89.6004 74.5902 89.2366 74.5902C88.9696 74.5902 88.7302 74.6731 88.569 74.7928C88.4079 74.9125 88.3434 75.0414 88.3434 75.1703C88.3434 75.244 88.3572 75.29 88.3849 75.3361C88.4125 75.3821 88.4677 75.4374 88.546 75.4926C88.7026 75.5985 88.9696 75.6952 89.2919 75.7551H89.3057C89.6096 75.8149 89.8904 75.8932 90.1298 76.0037C90.3738 76.1234 90.5902 76.28 90.7284 76.501C90.8158 76.6437 90.8711 76.8233 90.8711 77.0074C90.8711 77.3896 90.6547 77.7165 90.3554 77.9329C90.0654 78.1493 89.674 78.2736 89.2504 78.2736C88.6059 78.269 88.0626 77.9467 87.7219 77.675C87.5884 77.5645 87.5745 77.3666 87.6758 77.2376Z" fill="#FFC727"/>
<path d="M97.1462 74.59L95.6821 78.0708C95.6775 78.0892 95.6637 78.1122 95.6499 78.126L95.6453 78.1307C95.6406 78.1445 95.6268 78.1537 95.6176 78.1675C95.6176 78.1813 95.613 78.1813 95.613 78.1859C95.5992 78.1905 95.5854 78.2043 95.5716 78.2135H95.567C95.5486 78.2273 95.5394 78.2458 95.5117 78.2504H95.5071C95.5071 78.2504 95.5025 78.2504 95.5025 78.255C95.4887 78.255 95.4749 78.2596 95.4565 78.2688C95.4519 78.2688 95.4427 78.2688 95.4427 78.2688C95.4243 78.2734 95.4058 78.2734 95.3828 78.2734C95.3644 78.2734 95.346 78.2734 95.3276 78.2688C95.3138 78.2688 95.3091 78.2688 95.3091 78.2688C95.2907 78.2642 95.2815 78.255 95.2677 78.255C95.2631 78.2504 95.2631 78.2504 95.2539 78.2504C95.2309 78.2458 95.2125 78.2273 95.1987 78.2135C95.1941 78.2135 95.194 78.2135 95.194 78.2135C95.1756 78.1997 95.1618 78.1905 95.1526 78.1859C95.148 78.1813 95.148 78.1813 95.1388 78.1675C95.1342 78.1537 95.1204 78.1445 95.1158 78.1307C95.102 78.1307 95.102 78.126 95.102 78.126C95.0882 78.1122 95.0835 78.0892 95.0789 78.0708L94.2962 76.2199L93.5136 78.0708C93.5089 78.0892 93.4951 78.1122 93.4905 78.126C93.4859 78.126 93.4859 78.1307 93.4859 78.1307C93.4721 78.1445 93.4629 78.1537 93.4491 78.1675C93.4491 78.1813 93.4445 78.1813 93.4445 78.1859C93.4307 78.1905 93.4215 78.2043 93.4077 78.2135C93.3938 78.2135 93.3938 78.2135 93.3938 78.2135C93.3754 78.2273 93.357 78.2458 93.3478 78.2504C93.3432 78.2504 93.3432 78.2504 93.3432 78.2504C93.3432 78.2504 93.3386 78.2504 93.3386 78.255C93.3156 78.255 93.3018 78.2596 93.2926 78.2688C93.288 78.2688 93.2787 78.2688 93.2741 78.2688C93.2557 78.2734 93.2373 78.2734 93.2189 78.2734C93.2005 78.2734 93.1775 78.2734 93.159 78.2688C93.1544 78.2688 93.1452 78.2688 93.1406 78.2688C93.1222 78.2642 93.1084 78.255 93.0992 78.255C93.0946 78.2504 93.0946 78.2504 93.0854 78.2504C93.067 78.2458 93.0439 78.2273 93.0301 78.2135C93.0255 78.2135 93.0255 78.2135 93.0255 78.2135C93.0071 78.1997 93.0025 78.1905 92.9841 78.1859C92.9795 78.1813 92.9795 78.1813 92.9703 78.1675C92.9565 78.1537 92.9519 78.1445 92.9426 78.1307V78.126C92.9288 78.1122 92.9242 78.0892 92.9104 78.0708L91.4417 74.59C91.3773 74.4288 91.4463 74.2308 91.6213 74.1664C91.7824 74.0927 91.9804 74.171 92.0448 74.3413L93.2143 77.1039L93.9832 75.2714C94.0384 75.1379 94.1627 75.0688 94.2916 75.0688C94.416 75.0688 94.5403 75.1425 94.6001 75.2714L95.369 77.1039L96.5338 74.3413C96.6075 74.1756 96.7963 74.0973 96.9712 74.1664C97.137 74.2308 97.2152 74.4288 97.1462 74.59Z" fill="#FFC727"/>
<path d="M101.307 74.6126C101.675 75.0086 101.91 75.5335 101.91 76.1228C101.91 76.7122 101.675 77.2463 101.307 77.633C100.952 78.0198 100.427 78.273 99.8796 78.273C99.3087 78.273 98.7792 78.0244 98.4155 77.633C98.0472 77.2463 97.8262 76.7122 97.8262 76.1228C97.8262 75.5335 98.0472 75.0086 98.4155 74.6126C98.7792 74.2167 99.3041 73.9727 99.8796 73.9727C100.427 73.9773 100.957 74.2213 101.307 74.6126ZM101.229 76.1228C101.229 75.7177 101.067 75.3401 100.823 75.0777C100.575 74.8106 100.239 74.6541 99.8796 74.6541C99.4975 74.6541 99.1614 74.8106 98.9127 75.0777C98.6641 75.3401 98.5076 75.7177 98.5076 76.1228C98.5076 76.528 98.6641 76.9056 98.9127 77.1634C99.1614 77.4305 99.4975 77.5916 99.8796 77.5916C100.239 77.5916 100.57 77.4305 100.823 77.1634C101.067 76.9056 101.229 76.5326 101.229 76.1228Z" fill="#FFC727"/>
<path d="M105.852 77.7811C105.912 77.956 105.815 78.1402 105.645 78.2001C105.622 78.2047 105.571 78.2185 105.511 78.2185C105.511 78.2185 105.511 78.2185 105.507 78.2185C105.447 78.2185 105.359 78.2047 105.272 78.154C105.194 78.108 105.129 78.0297 105.083 77.9468C105 77.7719 104.959 77.5601 104.959 77.2286C104.954 77.1135 104.931 77.0398 104.885 76.9707C104.848 76.9063 104.779 76.8464 104.705 76.7958C104.581 76.7129 104.425 76.6622 104.369 76.653H103.665V77.9468C103.665 78.1264 103.518 78.2737 103.329 78.2737C103.145 78.2737 103.002 78.1264 103.002 77.9468V74.4246C103.002 74.2404 103.145 74.0977 103.329 74.0977C103.329 74.0977 103.329 74.0977 103.333 74.0977H104.397C105.106 74.0977 105.672 74.6686 105.672 75.3822C105.672 75.7782 105.493 76.1235 105.207 76.363C105.286 76.4228 105.355 76.4965 105.415 76.584C105.534 76.7589 105.612 76.9799 105.612 77.2286C105.608 77.4081 105.626 77.5232 105.636 77.5785C105.741 77.6061 105.82 77.6798 105.852 77.7811ZM105.019 75.3776C105.019 75.0323 104.742 74.7561 104.402 74.7561H103.67V75.9854H104.402C104.742 75.99 105.019 75.7138 105.019 75.3776Z" fill="#FFC727"/>
<path d="M106.824 77.9468V74.4246C106.824 74.2404 106.967 74.0977 107.151 74.0977H107.856C109.007 74.0977 109.941 75.0369 109.941 76.1834C109.941 77.3437 109.011 78.2783 107.856 78.2783H107.151C106.967 78.2737 106.824 78.1264 106.824 77.9468ZM107.487 77.6107H107.856C108.643 77.6061 109.278 76.9707 109.278 76.1788C109.278 75.3961 108.647 74.7561 107.856 74.7561H107.487V77.6107Z" fill="#FFC727"/>
<path d="M178.243 23.4045C178.243 23.4045 174.73 51.5182 168.961 57.8444C162.032 65.4323 157.005 64.3227 154.21 68.2363C154.205 68.2363 154.205 68.2409 154.205 68.2409C151.406 64.3227 146.378 65.4369 139.449 57.8444C133.68 51.5182 130.172 23.4045 130.172 23.4045C145.379 16.0239 154.205 7.75 154.205 7.75C154.205 7.75 154.205 7.75 154.21 7.7546C154.477 8.00784 163.271 16.139 178.243 23.4045Z" fill="#37474F"/>
<path d="M154.206 7.7538V68.2355C154.201 68.2355 154.201 68.2401 154.201 68.2401C151.402 64.3219 146.374 65.4361 139.445 57.8436C133.676 51.5174 130.168 23.4037 130.168 23.4037C145.375 16.0231 154.201 7.7492 154.201 7.7492C154.201 7.7492 154.201 7.74459 154.206 7.7538Z" fill="#455A64"/>
<path d="M174.511 25.6695C174.511 25.6695 171.546 49.4183 166.67 54.7638C160.813 61.1822 156.564 60.2429 154.197 63.5488C151.835 60.2429 147.586 61.1868 141.725 54.7638C136.849 49.4183 133.889 25.6695 133.889 25.6695C146.734 19.4307 154.193 12.4414 154.193 12.4414C154.193 12.4414 161.665 19.4307 174.511 25.6695Z" fill="#455A64"/>
<path d="M133.902 25.6688C133.902 25.6688 136.867 49.413 141.743 54.7631C147.595 61.1769 151.84 60.2422 154.206 63.5389V12.4453C153.981 12.6617 146.55 19.5267 133.902 25.6688Z" fill="#37474F"/>
<path d="M160.863 44.652C164.54 40.975 164.54 35.0133 160.863 31.3363C157.187 27.6592 151.225 27.6592 147.548 31.3363C143.871 35.0133 143.871 40.975 147.548 44.652C151.225 48.329 157.187 48.329 160.863 44.652Z" fill="#7966FF"/>
<path d="M153.134 44.1126L148.939 39.7478L150.496 38.2514L152.807 40.6548L157.789 33.0117L159.598 34.1904L153.134 44.1126Z" fill="white"/>
<path d="M15.4008 90.9961H47.7031V84.3061H15.4008V90.9961Z" fill="#C7C7C7"/>
<path d="M39.0332 90.9395L39.9356 99.4896L51.1051 179.53H54.2958L45.4835 99.4896L44.7653 90.9395H39.0332Z" fill="#C7C7C7"/>
<path d="M8.79883 179.53H11.9941L23.1636 99.4896L24.066 90.9395H18.3293L17.6157 99.4896L8.79883 179.53Z" fill="#C7C7C7"/>
<path d="M14.1892 153.381H49.8203V151.373H14.1892V153.381Z" fill="#C7C7C7"/>
<path d="M45.4835 99.1903H39.9356L39.0332 90.9395H44.7653L45.4835 99.1903Z" fill="#A6A6A6"/>
<path d="M17.6152 99.1903H23.1632L24.0656 90.9395H18.3289L17.6152 99.1903Z" fill="#A6A6A6"/>
<path d="M19.7102 52.1525C21.0684 52.8615 21.3308 55.3064 25.631 55.1729C26.2434 55.1545 26.7452 54.9104 27.3069 55.1176C28.1265 55.4215 28.7803 56.0753 29.5123 56.5542C30.1154 56.9501 30.7692 57.2126 31.469 57.3093C32.7996 57.498 34.1716 57.1297 35.3181 56.4206C36.0225 55.9878 36.6164 55.3847 37.2932 54.9196C37.9378 54.4776 42.0861 53.4555 42.7813 51.1441C43.2187 49.6754 43.1542 48.004 41.4093 45.8584C41.0594 45.4302 40.6726 45.0205 40.622 44.4311C40.5759 43.9339 40.7785 43.501 40.9397 43.0498C41.1238 42.5434 41.3264 42.0185 41.1929 41.466C41.0594 40.9088 40.622 40.5313 40.2813 40.1169C39.6367 39.3388 39.7564 38.2153 40.2859 36.8341C40.7371 35.6554 40.5207 34.3247 39.8715 33.275C39.4756 32.635 38.9231 32.1699 38.389 31.6635C37.6017 30.9176 37.459 30.2269 37.1137 29.1726C36.4461 27.1421 35.4055 26.235 34.1716 25.6135C33.0621 25.0517 33.0989 25.2681 31.911 25.4477C30.7232 24.7064 29.2637 24.4025 27.8917 24.5775C26.5933 24.7433 25.5206 25.6135 24.5399 26.4468C23.6651 27.1927 22.864 27.9939 22.8179 29.2508C22.7903 29.9737 22.9653 30.6966 22.933 31.4194C22.8916 32.3403 22.376 32.925 21.7636 33.5052C20.9118 34.3155 20.1752 35.287 19.9726 36.5118C19.8161 37.4925 20.7783 39.0165 19.6503 40.4668C18.6512 41.7468 16.9017 43.2202 16.4367 44.8363C15.0002 49.8365 18.4072 51.471 19.7102 52.1525Z" fill="#263238"/>
<path d="M36.3631 54.8506C38.3382 54.5513 41.3769 54.9243 42.422 52.7234C43.2047 52.0512 43.7204 51.1166 43.6559 49.8964C43.5961 48.7315 42.9147 47.7186 42.1642 46.899C41.7314 46.4248 41.2112 45.9552 40.9119 45.3658C40.7968 44.9284 40.7185 44.4772 40.6679 44.026C40.7231 43.4504 40.9395 42.8841 41.1421 42.35C41.1467 42.3362 41.1237 42.327 41.1191 42.3408C40.6909 43.2479 40.2904 44.2608 40.6909 45.2691C40.7508 45.4165 40.8198 45.5546 40.8981 45.6881C41.0408 46.2176 41.2342 46.7287 41.4874 47.2305C42.1366 48.5197 42.7305 49.6846 42.643 51.1902C42.6108 51.775 42.4819 52.2492 42.2885 52.6406C41.4644 53.4233 40.3594 53.8054 39.236 53.962C39.2084 53.9666 39.2084 54.0126 39.236 54.008C40.2075 53.9021 41.2572 53.5614 42.0906 52.9721C40.9441 54.6158 38.2784 54.3902 36.3492 54.7723C36.3032 54.7954 36.3216 54.8552 36.3631 54.8506ZM42.574 52.3505C42.5786 52.3367 42.5832 52.3229 42.5878 52.3091C42.9607 51.1396 42.7996 49.7675 42.3392 48.6441C42.0215 47.8751 41.5565 47.1845 41.248 46.411C41.1974 46.2775 41.1467 46.1439 41.1007 46.0058C41.5427 46.609 42.1366 47.1108 42.5694 47.6956C43.5086 48.9756 43.7849 50.4996 42.9101 51.8901C42.8088 52.0558 42.6937 52.2078 42.574 52.3505Z" fill="#263238"/>
<path d="M15.4554 49.7588C15.483 49.8003 15.5429 49.7634 15.5199 49.722C14.6865 48.2763 14.9213 46.7845 15.5889 45.4538C15.2666 47.4429 15.658 49.6668 17.472 50.7303C17.5042 50.7488 17.5273 50.6981 17.4996 50.6797C15.6212 49.5563 15.3403 46.9871 15.8468 44.9796C16.2611 44.2798 16.7768 43.6352 17.3017 43.0734C18.1672 42.1434 19.2354 41.2271 19.8753 40.0853C19.7648 40.7114 19.4287 41.2594 18.8118 41.7566C18.7796 41.7796 18.8118 41.8395 18.844 41.8119C19.4195 41.3929 19.8846 40.8266 20.0411 40.0945C20.0733 39.9471 20.0871 39.7998 20.0871 39.6525C20.2437 39.2887 20.3588 38.902 20.4048 38.483C20.4048 38.4692 20.3818 38.4646 20.3818 38.4784C20.3312 38.8467 20.2299 39.192 20.0871 39.5235C20.0641 38.902 19.8247 38.2942 19.6636 37.6957C19.1985 35.9737 20.0687 34.9561 21.1369 34.0307C21.2243 33.9754 21.3118 33.9202 21.3993 33.8695C21.9656 33.5242 22.5089 33.1328 22.822 32.5573C22.8956 32.479 22.9693 32.4007 23.0384 32.3225C23.043 32.3179 23.0384 32.3133 23.0338 32.3179C22.9785 32.3777 22.9187 32.433 22.8588 32.4882C22.9325 32.3363 22.9923 32.1705 23.0338 31.991C23.0338 31.9864 23.0245 31.9772 23.0245 31.9864C22.9048 32.2948 22.7391 32.5481 22.5411 32.7737C22.1175 33.1282 21.6479 33.4551 21.1967 33.8004C20.3588 34.3115 19.5116 34.7996 19.1847 35.8263C18.8763 36.7978 19.1157 37.8522 19.1939 38.8421C19.3136 40.3799 18.7565 41.6599 17.3707 42.2723C17.3477 42.2815 17.3431 42.3045 17.3707 42.2953C17.472 42.2585 17.5871 42.2309 17.6838 42.1848C16.8643 42.8524 16.1598 43.5799 15.7961 44.6665C14.8247 46.1859 14.4149 48.1335 15.4554 49.7588ZM19.0328 41.1212C18.8763 41.2455 18.7197 41.3653 18.5632 41.485C18.7796 41.2271 18.9591 40.9325 19.0742 40.6009C19.461 39.5143 19.1387 38.331 19.1157 37.2122C19.088 36.0289 19.5024 35.3106 20.1654 34.7305C19.8569 35.085 19.6083 35.4902 19.461 35.9737C19.217 36.7978 19.4702 37.5667 19.7096 38.3633C19.8753 38.925 19.9444 39.4407 19.8938 39.9103C19.6636 40.3385 19.3643 40.7391 19.0328 41.1212ZM16.146 44.1416C16.5926 43.2208 17.3385 42.5486 18.1166 41.9086C18.1718 41.8671 18.2271 41.8211 18.2777 41.775C18.4987 41.5955 18.7197 41.4159 18.9361 41.2317C18.0383 42.2401 16.9149 43.1379 16.146 44.1416Z" fill="#263238"/>
<path d="M18.2589 51.0254C18.2682 51.0254 18.2682 51.0441 18.2589 51.0441C18.2495 51.0441 18.2448 51.0254 18.2589 51.0254Z" fill="#263238"/>
<path d="M38.1129 31.365C38.8357 32.005 39.5632 32.6865 40.217 33.4001C40.6682 33.8928 40.9582 34.4499 40.995 35.1451C41.0319 35.8496 40.7787 36.4205 40.4011 36.9822C40.2538 37.2032 40.1018 37.4335 39.9683 37.6637C39.9453 38.0827 39.9867 38.5016 40.1663 38.9206C40.484 39.6803 41.2022 40.1454 41.5337 40.9143C42.0678 42.1574 41.4739 43.1796 40.949 44.2892C40.9444 44.2984 40.9352 44.2892 40.9398 44.2846C41.3173 43.373 41.8468 42.4751 41.5567 41.4484C41.3173 40.6012 40.7004 40.15 40.2354 39.4639C39.9407 39.0311 39.8118 38.5247 39.7842 38.0044C39.3698 38.8378 39.2225 39.7218 39.9545 40.6058C39.9867 40.6472 39.9361 40.7025 39.8993 40.6657C38.9738 39.7264 39.2179 38.5891 39.7842 37.5992C39.8164 37.0099 39.9683 36.4159 40.1709 35.9002C40.1939 35.8404 40.2768 35.8864 40.263 35.9417C40.1801 36.3745 40.0742 36.8073 40.0098 37.2355C40.042 37.1848 40.0742 37.1388 40.1065 37.0927C40.8431 36.0384 41.1332 34.8136 40.286 33.6856C39.6506 32.843 38.7851 32.18 38.076 31.4019C38.0668 31.3788 38.0945 31.3512 38.1129 31.365Z" fill="#263238"/>
<path d="M43.65 118.301C43.65 118.301 35.404 136.617 35.3948 136.63C33.7972 140.125 32.462 143.219 31.9187 144.881C31.9141 144.89 31.9095 144.9 31.9095 144.909C31.7023 145.535 31.6149 145.954 31.6747 146.106C31.6793 146.12 31.6793 146.129 31.6839 146.138C32.4022 147.317 59.9531 160.886 61.0765 161.033C62.1999 161.19 62.7109 158.003 62.0618 156.622C61.4034 155.236 53.1805 145.328 53.1805 145.328L61.2514 126.943L43.65 118.301Z" fill="#EB9481"/>
<path d="M37.0887 132.869C37.0887 132.869 35.4036 136.617 35.3944 136.631C33.7968 140.125 32.4616 143.22 31.9183 144.882C31.9137 144.891 31.9091 144.9 31.9091 144.909C31.7434 145.545 31.6559 145.977 31.6743 146.106C31.6789 146.12 31.6789 146.129 31.6835 146.139C32.4017 147.317 59.9527 160.886 61.0761 161.033C62.1995 161.19 62.7105 158.004 62.0613 156.623C61.4029 155.237 53.18 145.328 53.18 145.328L54.9526 141.534L37.0887 132.869Z" fill="#EBEBEB"/>
<path d="M61.071 160.992C59.9476 160.844 32.3829 147.303 31.6646 146.125C31.3838 145.678 33.1195 141.548 35.3663 136.617C35.3893 136.566 35.4124 136.515 35.44 136.465L53.3223 145.001L53.1658 145.3C53.1658 145.3 61.3979 155.2 62.0563 156.585C62.7008 157.958 62.1944 161.144 61.071 160.992Z" fill="#263238"/>
<path d="M61.9785 160.209C62.3791 160.641 61.4583 162.244 61.0347 162.202C60.6111 162.161 30.6246 147.266 30.1688 146.902C29.713 146.539 30.8042 144.798 31.4396 144.992C32.0841 145.194 61.9785 160.209 61.9785 160.209Z" fill="#7966FF"/>
<path d="M54.6302 146.083C52.9681 144.844 50.597 144.025 48.5573 144.642C48.4791 144.665 48.5113 144.775 48.5804 144.789C50.6614 145.107 52.5261 145.567 54.5058 146.313C54.6486 146.364 54.7499 146.17 54.6302 146.083Z" fill="white"/>
<path d="M55.5598 147.528C53.8978 146.29 51.5266 145.47 49.487 146.087C49.4088 146.11 49.441 146.225 49.5101 146.234C51.5957 146.552 53.4558 147.013 55.4355 147.758C55.5782 147.805 55.6795 147.616 55.5598 147.528Z" fill="white"/>
<path d="M56.4895 148.97C54.8274 147.731 52.4563 146.912 50.4167 147.529C50.3384 147.552 50.3707 147.662 50.4397 147.676C52.5208 147.994 54.3854 148.454 56.3652 149.2C56.5079 149.251 56.6092 149.062 56.4895 148.97Z" fill="white"/>
<path d="M38.474 141.782C36.9684 139.803 33.8837 142.142 35.3938 144.126C36.8994 146.11 39.9841 143.767 38.474 141.782Z" fill="white"/>
<path d="M48.5119 102.38C48.3278 107.707 38.0606 130.719 38.0606 130.719L56.0718 139.007C56.0718 139.007 70.607 113.426 69.258 101.639C68.1069 91.6383 42.9502 73.143 38.9078 67.9309C38.3092 67.1574 38.5118 64.0449 38.5118 64.0449H22.1719V67.9309C28.415 81.1728 47.0754 97.0575 48.4567 101.722C48.5073 101.887 48.5257 102.108 48.5119 102.375V102.38Z" fill="#37474F"/>
<path d="M55.9666 135.158C53.0016 133.735 53.8763 134.103 50.8929 132.717C49.4334 132.041 42.1129 128.61 40.6396 128.224C40.6073 128.214 40.5843 128.27 40.6119 128.288C41.8735 129.145 49.2722 132.4 50.7456 133.044C53.752 134.37 52.9049 133.956 55.9252 135.245C55.9804 135.273 56.0219 135.185 55.9666 135.158Z" fill="#263238"/>
<path d="M26.2979 70.7216C31.2565 78.222 36.7124 85.3678 42.7852 92.0072C44.2631 93.6233 45.7871 95.1979 47.3156 96.768C48.6048 98.0986 49.9215 99.5766 50.2392 101.469C50.5983 103.573 49.7696 105.677 49.1158 107.639C48.393 109.803 47.6701 111.967 46.9013 114.112C46.0725 116.428 42.6839 124.79 42.1222 125.918C41.8413 126.479 46.6066 114.43 47.3801 112.178C48.1444 109.959 48.9409 107.735 49.5947 105.479C49.9307 104.328 50.1932 103.113 50.0689 101.911C49.9446 100.728 49.4289 99.6687 48.7245 98.7248C47.4031 96.9568 45.6766 95.4558 44.171 93.8443C41.0494 90.5016 38.0706 87.0254 35.2437 83.4294C32.0392 79.3546 29.0097 75.1279 26.2381 70.7447C26.2197 70.717 26.2749 70.6848 26.2979 70.7216Z" fill="#263238"/>
<path d="M16.596 158.234C16.596 158.234 15.7949 178.314 15.7949 178.327C15.887 182.167 16.0343 185.533 16.2737 187.269C16.2737 187.278 16.2737 187.287 16.2784 187.297C16.3658 187.95 16.4717 188.369 16.5914 188.475C16.6006 188.484 16.6052 188.494 16.6145 188.498C17.7747 189.244 48.4886 189.419 49.5614 189.065C50.6387 188.715 49.7087 185.625 48.5208 184.667C47.3238 183.71 35.6017 178.383 35.6017 178.383L36.2141 158.317L16.596 158.234Z" fill="#EB9481"/>
<path d="M15.9515 174.354C15.9515 174.354 15.7949 178.314 15.7949 178.328C15.887 182.168 16.0343 185.534 16.2737 187.269C16.2737 187.279 16.2737 187.288 16.2784 187.297C16.4073 187.942 16.5178 188.37 16.5914 188.476C16.6006 188.485 16.6052 188.494 16.6145 188.499C17.7747 189.245 48.4886 189.42 49.5614 189.065C50.6387 188.715 49.7087 185.626 48.5208 184.668C47.3238 183.71 35.6017 178.383 35.6017 178.383L35.7261 174.322L15.9515 174.354Z" fill="#EBEBEB"/>
<path d="M49.5296 189.032C48.4568 189.386 17.7475 189.248 16.5826 188.497C16.136 188.221 15.8966 183.746 15.7585 178.327C15.7585 178.271 15.7585 178.212 15.7539 178.156L35.5653 178.027L35.5561 178.363C35.5561 178.363 47.2874 183.677 48.4798 184.634C49.6723 185.588 50.6069 188.677 49.5296 189.032Z" fill="#263238"/>
<path d="M50.0042 187.932C50.5521 188.148 50.4278 189.99 50.0272 190.137C49.6313 190.284 16.1457 189.981 15.5794 189.852C15.0085 189.723 15.2295 187.678 15.8925 187.577C16.5554 187.476 50.0042 187.932 50.0042 187.932Z" fill="#7966FF"/>
<path d="M37.2277 178.432C35.1927 178.041 32.7019 178.344 31.1365 179.786C31.0767 179.841 31.1549 179.928 31.224 179.905C33.236 179.279 35.1145 178.883 37.2185 178.685C37.3659 178.676 37.3705 178.46 37.2277 178.432Z" fill="white"/>
<path d="M38.6926 179.324C36.6576 178.933 34.1668 179.237 32.6014 180.678C32.5415 180.733 32.6198 180.821 32.6889 180.798C34.7008 180.172 36.5793 179.776 38.6834 179.578C38.8307 179.568 38.8399 179.352 38.6926 179.324Z" fill="white"/>
<path d="M40.1613 180.219C38.1263 179.828 35.6309 180.132 34.0701 181.573C34.0103 181.628 34.0885 181.715 34.1576 181.692C36.1696 181.066 38.0481 180.67 40.1521 180.472C40.2995 180.463 40.3041 180.247 40.1613 180.219Z" fill="white"/>
<path d="M20.8135 181.619C18.5943 180.495 16.8447 183.944 19.0685 185.072C21.2877 186.195 23.0372 182.747 20.8135 181.619Z" fill="white"/>
<path d="M36.1323 171.928L16.063 172.093C16.063 172.093 19.4056 90.1051 17.168 87.43C11.8456 81.0623 12.6928 72.572 16.2794 64.0449H34.5761C34.5761 64.0449 33.7013 76.9921 33.7842 77.3697C39.4012 101.906 36.1323 171.928 36.1323 171.928Z" fill="#37474F"/>
<path d="M35.0275 167.815C30.649 167.474 19.1204 167.847 17.6609 168.073C17.6287 168.078 17.6287 168.137 17.6609 168.142C19.102 168.437 32.3295 168.018 35.0229 167.916C35.0828 167.912 35.0874 167.82 35.0275 167.815Z" fill="#263238"/>
<path d="M34.9998 69.0719C34.8156 71.3879 34.9077 75.3429 33.5679 75.4074C32.2696 75.4672 32.4629 70.6282 32.4261 69.5185C32.3939 68.5102 32.044 68.6483 32.0071 69.8362C31.9058 73.0638 31.9887 75.9092 33.7014 75.7757C35.451 75.6422 35.4003 70.642 35.3589 69.5001C35.3359 68.9108 35.055 68.3398 34.9998 69.0719Z" fill="#263238"/>
<path d="M33.6547 75.5543C33.5764 76.0055 33.5902 77.6584 33.7053 77.9945C33.7283 78.059 33.9862 78.0083 34.0138 77.9577C34.1749 77.6216 34.046 76.0377 34.0921 75.6095C34.1197 75.3287 33.7053 75.278 33.6547 75.5543Z" fill="#263238"/>
<path d="M34.2219 78.4093C34.7928 80.4352 35.3775 84.312 35.2394 85.3341C35.2256 85.4262 35.0875 85.4585 35.0737 85.3618C34.8895 84.2752 34.0792 79.0493 33.9963 78.5014C33.9088 77.9167 34.0608 77.843 34.2219 78.4093Z" fill="#263238"/>
<path d="M30.6988 80.0071C30.9474 79.7309 31.2605 79.5145 31.5552 79.2842C31.8544 79.0494 32.1537 78.8192 32.4668 78.5982C33.1021 78.1516 33.7559 77.7418 34.4235 77.3412C35.0773 76.9545 35.7449 76.6 36.4217 76.2546C37.1307 75.8955 37.8858 75.6238 38.5994 75.2693C38.6409 75.2509 38.6777 75.3062 38.6363 75.3292C37.9595 75.7021 37.3379 76.1672 36.6841 76.5769C36.0257 76.9867 35.3766 77.4103 34.7182 77.8201C34.0736 78.2207 33.4382 78.6304 32.7937 79.0264C32.4576 79.2336 32.1123 79.4362 31.7716 79.6342C31.4539 79.8183 31.1454 80.0301 30.8047 80.1729C30.7034 80.2189 30.6389 80.0762 30.6988 80.0071Z" fill="#263238"/>
<path d="M19.0829 129.267C19.3776 122.697 19.8518 115.376 19.9439 108.797C19.9899 105.509 20.0175 102.217 20.0129 98.9299C20.0129 95.6655 20.036 91.3052 19.8656 88.0454C19.7781 86.3879 16.8591 85.1079 16.2652 80.2826C15.8923 77.2668 16.0626 74.7206 16.9052 72.0824C17.1124 71.4378 17.3564 70.807 17.6372 70.19C17.6556 70.1486 17.7155 70.1854 17.6971 70.2269C16.5276 72.9296 16.0442 75.8993 16.2836 78.8369C16.4033 80.3102 16.6289 81.779 17.186 83.1695C17.9687 85.1125 19.8978 86.6963 19.9991 87.7277C20.1511 89.2747 20.1741 90.61 20.1925 92.157C20.2109 93.7685 20.2293 95.38 20.2339 96.9961C20.2524 100.284 20.2431 103.576 20.2063 106.863C20.1373 113.41 19.9669 119.953 19.6907 126.496C19.4144 133.038 17.7201 165.793 17.6096 166.539C17.5958 166.622 17.4623 166.603 17.4669 166.521C17.6971 163.238 18.7883 135.838 19.0829 129.267Z" fill="#263238"/>
<path d="M29.9259 48.9307C34.2814 57.9182 39.8109 67.6516 44.9859 69.1802C49.9077 70.6352 59.4612 58.5352 62.4539 55.3536C63.5358 54.2072 54.7788 47.6231 53.4206 48.6222C50.8608 50.5053 46.2613 55.6345 45.4878 55.4549C44.6821 55.2615 38.2778 49.1517 32.4582 43.9995C28.9361 40.8686 26.9103 42.7011 29.9259 48.9307Z" fill="#EB9481"/>
<path d="M70.0538 49.6726C71.2509 49.1707 80.4683 48.876 80.4637 46.8778C80.4591 44.8795 68.7324 45.4366 68.7324 45.4366L70.0538 49.6726Z" fill="#EB9481"/>
<path d="M52.375 49.9069C53.9864 47.904 55.4045 45.7446 56.8041 45.3487C57.7756 45.077 68.2085 45.5236 69.8429 45.427C71.4728 45.3257 77.2924 45.4776 77.4259 46.9095C77.6147 48.9308 70.7315 48.9124 69.9949 49.9437C67.458 53.512 57.8124 58.7839 57.8124 58.7839L52.375 49.9069Z" fill="#EB9481"/>
<path d="M77.5774 46.9362C77.4991 46.5633 77.2137 46.2502 76.9098 46.0384C76.1962 45.5365 75.2569 45.4951 74.419 45.426C73.1529 45.3247 71.8637 45.2833 70.593 45.3938C70.5654 45.3984 70.5654 45.4352 70.593 45.4398C71.546 45.4536 72.4991 45.4628 73.4521 45.5457C74.3085 45.6194 75.2155 45.6746 76.035 45.9417C76.4079 46.0614 76.7763 46.2364 77.0295 46.5402C77.2045 46.7474 77.315 47.0283 77.2275 47.3092C76.9512 48.1886 75.2155 48.451 74.4098 48.6306C73.36 48.8654 72.2735 49.0726 71.2237 49.2844C71.1777 49.2936 71.2007 49.3627 71.2468 49.3535C72.3379 49.1371 73.4936 49.0542 74.5893 48.8562C75.4779 48.695 76.431 48.5155 77.1492 47.9261C77.4531 47.6775 77.6603 47.3322 77.5774 46.9362Z" fill="#263238"/>
<path d="M80.2856 45.3067L80.2257 45.6244C80.1613 45.9651 79.8298 46.1861 79.4891 46.1216L61.3535 42.5809L61.6574 41.0293L79.7929 44.57C80.129 44.639 80.35 44.9659 80.2856 45.3067Z" fill="#7966FF"/>
<path opacity="0.1" d="M61.6511 41.0275L61.3477 42.582L63.5348 43.009L63.8383 41.4544L61.6511 41.0275Z" fill="black"/>
<path d="M54.7187 39.0545L54.18 41.8078C53.9913 42.7793 54.2123 43.737 54.7233 44.5013C55.2344 45.261 56.0401 45.8273 57.0116 46.0207C58.9591 46.4029 60.8422 45.1321 61.2243 43.1845L61.763 40.4311C61.9518 39.4596 61.7308 38.502 61.2197 37.7377C60.7087 36.9779 59.9029 36.4116 58.9269 36.2182C56.9839 35.8361 55.1009 37.1069 54.7187 39.0545ZM60.6396 39.7451C60.4785 40.5647 59.7648 41.154 58.8808 41.2968C59.6451 41.7618 60.0871 42.5767 59.9306 43.3963C59.7188 44.4921 58.5079 45.1782 57.2326 44.9295C55.9572 44.6809 55.0963 43.5897 55.3127 42.4939C55.4738 41.6743 56.1874 41.085 57.0714 40.9422C56.3071 40.4772 55.8651 39.6622 56.0217 38.8427C56.2381 37.7469 57.4444 37.0608 58.7197 37.3095C59.995 37.5581 60.856 38.6447 60.6396 39.7451Z" fill="#7966FF"/>
<path d="M62.5034 40.4686L61.9278 43.4291C61.8956 43.5857 61.7437 43.687 61.5871 43.6593L61.4398 43.6317C61.2833 43.5995 61.182 43.4475 61.2096 43.291L61.7851 40.3305C61.8173 40.1739 61.9693 40.0726 62.1258 40.1002L62.2731 40.1279C62.4297 40.1555 62.5356 40.3074 62.5034 40.4686Z" fill="#7966FF"/>
<path d="M63.2182 40.606L62.6427 43.5665C62.6105 43.7231 62.4585 43.8244 62.302 43.7968L62.1547 43.7645C61.9981 43.7323 61.8968 43.5804 61.9245 43.4238L62.5 40.4633C62.5322 40.3067 62.6841 40.2054 62.8407 40.2331L62.988 40.2607C63.1492 40.2975 63.2504 40.4495 63.2182 40.606Z" fill="#7966FF"/>
<path d="M75.4501 43.0603L75.9888 43.1662L76.2973 41.6007L76.7577 41.6882L76.5965 42.5078L77.1352 42.6137L77.2963 41.7941L77.7015 41.8724L77.4529 43.1662L77.9916 43.2721L78.2448 41.9783L78.8249 42.0934L78.4888 43.82L79.0275 43.9259L79.3636 42.1993L79.9115 42.3052L79.4833 44.5107L74.6582 43.5714L75.0864 41.3613L75.754 41.4949L75.4501 43.0603Z" fill="#7966FF"/>
<path d="M13.6465 66.8133L39.3466 67.2369L37.3346 59.5432C37.3346 59.5432 39.5491 56.7208 38.4902 52.8348C37.8732 50.5695 34.9496 47.1761 33.154 45.0213C28.7848 39.7724 24.991 42.1436 23.7801 43.4973C19.1622 48.6449 13.6465 66.8133 13.6465 66.8133Z" fill="#7966FF"/>
<path d="M26.2984 46.4668L26.3168 44.998L27.2882 46.0847L28.338 45.7577L27.8223 46.6924L28.315 47.2127L27.5507 47.291L27.5369 48.2809L26.6943 47.581L26.0129 48.1474L26.0912 47.3094L25.0967 46.849L26.2984 46.4668ZM37.2515 62.9179L36.4412 63.6591L35.6999 63.2632L35.9578 64.115L34.9909 64.6214L35.8979 65.0174L35.6723 65.7495L36.3399 65.4963L37.0029 66.3296L37.1088 65.2338L38.49 64.7596L37.1456 64.1748L37.2515 62.9179ZM27.8545 57.4526L28.6418 59.018L29.4199 57.5217L30.9071 57.7795L30.1152 56.2048L31.2201 55.1551L29.6594 55.2103L29.3463 53.6817L28.5221 55.2656L26.4457 55.109L27.6704 56.3752L26.5378 57.2408L27.8545 57.4526ZM33.9826 48.4052L34.3601 47.7698L33.6511 47.8343L33.4071 47.2495L33.025 47.8849L32.4034 47.733L32.7763 48.2717L32.3067 48.7275L33.0572 48.6584L33.4715 49.432L33.6419 48.7091L34.2082 48.9163L33.9826 48.4052ZM21.9291 65.1555L22.3066 64.5201L21.5976 64.5846L21.3536 63.9999L20.976 64.6353L20.3545 64.4833L20.7274 65.022L20.2578 65.4778L21.0083 65.4088L21.4226 66.1823L21.593 65.4594L22.1593 65.6666L21.9291 65.1555ZM26.1556 53.7416L26.5332 53.1062L25.8241 53.1706L25.5801 52.5859L25.2026 53.2213L24.581 53.0693L24.954 53.608L24.4844 54.0639L25.2348 53.9948L25.6492 54.7683L25.8195 54.0454L26.3858 54.2526L26.1556 53.7416ZM21.5792 55.4543L21.4503 55.04L21.2016 55.3761L20.8471 55.2518L20.9806 55.6707L20.6676 55.8825L21.0543 55.9286L21.0727 56.3153L21.3351 55.9608L21.837 56.0805L21.5884 55.7214L21.9015 55.551L21.5792 55.4543ZM33.5084 65.3305L33.3795 64.9161L33.1308 65.2522L32.7763 65.1325L32.9098 65.5515L32.5968 65.7633L32.9835 65.8093L33.0019 66.1961L33.2644 65.8416L33.7662 65.9613L33.5176 65.6021L33.8307 65.4318L33.5084 65.3305ZM37.0766 53.2949L37.3988 53.0049L36.9891 52.9174L36.9522 52.5444L36.6254 52.8345L36.3031 52.6365L36.4182 53.0049L36.0729 53.1798L36.5056 53.2765L36.6023 53.783L36.8325 53.41L37.1134 53.6264L37.0766 53.2949ZM30.6262 61.0715L30.9485 60.7815L30.5387 60.694L30.5019 60.3211L30.175 60.6111L29.8527 60.4131L29.9678 60.7815L29.6225 60.9564L30.0553 61.0531L30.152 61.5596L30.3776 61.1821L30.6584 61.3985L30.6262 61.0715ZM17.3572 63.5118L17.6795 63.2217L17.2697 63.1343L17.2329 62.7613L16.906 63.0514L16.5837 62.8534L16.6988 63.2217L16.3535 63.3967L16.7863 63.4934L16.883 63.9999L17.1086 63.6223L17.3894 63.8387L17.3572 63.5118Z" fill="white"/>
<path d="M30.456 59.0864C31.5517 59.0035 32.6613 58.9529 33.7617 59.0311C34.3096 59.068 34.8483 59.1324 35.3915 59.2107C35.6632 59.2475 35.9348 59.2752 36.2065 59.3028C36.4873 59.3304 36.782 59.3488 37.0628 59.3074C37.0859 59.3028 37.0951 59.3396 37.0674 59.3442C36.8004 59.3995 36.5426 59.4547 36.2663 59.4731C36.0039 59.4916 35.7415 59.4824 35.479 59.4685C34.9219 59.4363 34.3694 59.3765 33.8169 59.335C32.6981 59.2521 31.5794 59.1739 30.456 59.1739C30.4053 59.1785 30.4053 59.091 30.456 59.0864Z" fill="#263238"/>
<path d="M27.96 60.5267C28.8301 60.2735 29.7233 60.0617 30.6165 59.9098C31.0677 59.8315 31.5143 59.7854 31.9701 59.7486C32.1865 59.7302 32.4029 59.7164 32.6193 59.7026C32.8587 59.6888 33.0981 59.7072 33.3375 59.6934C33.3606 59.6934 33.3698 59.7302 33.3421 59.7302C33.1165 59.7532 32.8956 59.8131 32.6746 59.8453C32.449 59.8821 32.228 59.9144 32.0024 59.9512C31.5558 60.0203 31.1046 60.0985 30.658 60.163C29.7602 60.2965 28.8624 60.4346 27.9692 60.6004C27.9231 60.6096 27.9139 60.5405 27.96 60.5267Z" fill="#263238"/>
<path d="M26.2989 43.1844C26.4048 43.6448 28.6009 46.6146 30.6958 46.5133C31.3772 46.4811 31.3588 42.747 31.3588 42.747L31.4186 42.4707L32.275 38.6078L27.7354 35.7025L27.0816 35.3203C27.0816 35.3203 26.9158 36.3931 26.7225 37.7283C26.7133 37.7882 26.704 37.8527 26.6948 37.9171C26.681 37.9908 26.6672 38.0645 26.658 38.1335C26.6258 38.3315 26.5936 38.5387 26.5705 38.7413C26.5475 38.8978 26.5291 39.0452 26.5107 39.2109C26.4923 39.3767 26.4738 39.5332 26.4554 39.699C26.2943 41.3151 26.2575 42.9864 26.2989 43.1844Z" fill="#EB9481"/>
<path d="M26.7227 37.7283C27.8322 40.7994 30.2908 42.0471 31.4188 42.4707L32.2752 38.6078L27.7356 35.7025L27.0818 35.3203C27.0818 35.3203 26.916 36.3931 26.7227 37.7283Z" fill="#263238"/>
<path d="M37.7116 32.3037C39.056 39.1181 35.1287 40.6927 33.66 40.9782C32.3248 41.2406 27.753 41.9635 25.7088 35.3241C23.6645 28.6848 26.4086 25.9084 29.4289 25.1487C32.4492 24.3936 36.3672 25.494 37.7116 32.3037Z" fill="#EB9481"/>
<path d="M35.7245 31.2631C35.568 31.3045 35.4114 31.3183 35.2503 31.3414C35.0661 31.369 34.928 31.4104 34.753 31.3275C34.661 31.2861 34.6103 31.1388 34.6425 31.0467C34.7208 30.8257 34.9372 30.7382 35.1536 30.6922C35.3884 30.6461 35.5818 30.6691 35.7936 30.7842C36.0008 30.8993 35.9317 31.2078 35.7245 31.2631Z" fill="#263238"/>
<path d="M30.8845 32.6574C31.0457 32.639 31.193 32.5975 31.3542 32.5607C31.5337 32.5239 31.681 32.51 31.8146 32.3719C31.8882 32.2983 31.8836 32.1463 31.8146 32.068C31.6626 31.8885 31.4324 31.8839 31.2114 31.9207C30.9766 31.9621 30.8017 32.0542 30.6451 32.2338C30.4932 32.4134 30.6682 32.6804 30.8845 32.6574Z" fill="#263238"/>
<path d="M31.9065 33.5336C31.9019 33.5151 31.8743 33.5612 31.8789 33.5796C31.9617 34.0446 31.9802 34.5925 31.5842 34.8089C31.5704 34.8135 31.575 34.8412 31.5934 34.8366C32.0953 34.6846 32.063 33.9572 31.9065 33.5336Z" fill="#263238"/>
<path d="M31.4186 33.1045C30.6589 33.1598 30.8246 34.6792 31.5291 34.624C32.2243 34.5733 32.0539 33.0585 31.4186 33.1045Z" fill="#263238"/>
<path d="M31.1292 33.2192C31.0049 33.3204 30.8944 33.4862 30.7332 33.5184C30.5491 33.5553 30.3925 33.4125 30.2544 33.2744C30.2406 33.2606 30.2268 33.2744 30.2314 33.2928C30.259 33.5829 30.4017 33.8684 30.7194 33.8776C31.0095 33.8868 31.1844 33.6059 31.2259 33.3066C31.2351 33.2514 31.1798 33.1777 31.1292 33.2192Z" fill="#263238"/>
<path d="M34.7931 33.091C34.7931 33.0725 34.8299 33.1094 34.8345 33.1278C34.8667 33.5974 34.9864 34.1361 35.4284 34.2466C35.4423 34.2512 35.4423 34.2743 35.4284 34.2743C34.8944 34.2558 34.747 33.5422 34.7931 33.091Z" fill="#263238"/>
<path d="M35.1617 32.5572C35.9122 32.4237 36.1286 33.9339 35.4334 34.0582C34.7474 34.1825 34.531 32.6723 35.1617 32.5572Z" fill="#263238"/>
<path d="M35.4892 32.6128C35.6182 32.6772 35.7609 32.8062 35.9036 32.7924C36.0694 32.7785 36.1706 32.599 36.2535 32.4286C36.2627 32.4102 36.2765 32.424 36.2811 32.4424C36.3318 32.7279 36.2765 33.0456 36.0095 33.1377C35.7655 33.2252 35.5445 33.0042 35.434 32.7233C35.411 32.6726 35.4386 32.5852 35.4892 32.6128Z" fill="#263238"/>
<path d="M32.7638 37.5015C32.8835 37.6028 33.0078 37.7501 33.1781 37.7547C33.3439 37.7594 33.5326 37.6719 33.68 37.6028C33.6938 37.5982 33.7122 37.612 33.703 37.6258C33.5925 37.8146 33.3439 37.9435 33.1183 37.9205C32.9019 37.8975 32.7868 37.7179 32.7223 37.5291C32.7131 37.5015 32.7453 37.4877 32.7638 37.5015Z" fill="#263238"/>
<path d="M34.5179 35.569C34.5179 35.569 34.7021 36.2596 34.7389 36.5911C34.7435 36.6234 34.6652 36.6464 34.5547 36.6648C34.5501 36.6694 34.5455 36.6694 34.5409 36.6648C33.97 36.8259 33.3577 36.697 32.9433 36.2642C32.9157 36.2366 32.9525 36.1952 32.9847 36.2136C33.459 36.4806 33.9516 36.5036 34.4719 36.4484C34.4857 36.3517 34.122 35.2789 34.1726 35.2697C34.3522 35.2329 34.7205 35.3111 34.9461 35.348C34.61 33.9022 34.0391 32.5209 33.726 31.0752C33.7168 31.0246 33.7905 30.9969 33.8089 31.043C34.5041 32.4473 34.9323 34.1048 35.319 35.5874C35.3697 35.7716 34.6606 35.6058 34.5179 35.569Z" fill="#263238"/>
<path d="M34.5088 36.5448C34.5088 36.5448 34.2694 37.0329 33.8597 37.2677C33.7077 37.3552 33.542 37.4104 33.3486 37.392C32.9572 37.3644 32.8882 37.0237 32.902 36.7152C32.9112 36.4665 32.9849 36.2363 32.9849 36.2363C32.9849 36.2363 33.6248 36.6507 34.5088 36.5448Z" fill="#263238"/>
<path d="M33.8597 37.268C33.7077 37.3554 33.542 37.4107 33.3486 37.3923C32.9572 37.3646 32.8882 37.0239 32.902 36.7154C33.3118 36.6878 33.7538 36.8858 33.8597 37.268Z" fill="#FF9ABB"/>
<path d="M26.4694 35.9309C27.7724 35.9125 27.6849 32.9336 27.6849 32.9336C27.6849 32.9336 33.0072 31.2392 32.8369 26.7362C32.8369 26.7362 34.1721 29.4297 37.2062 30.3091C37.2062 30.3091 36.3268 25.47 32.335 25.0741C32.335 25.0741 27.3028 24.0105 25.1481 28.1912C22.9979 32.3626 25.5946 35.9402 26.4694 35.9309Z" fill="#263238"/>
<path d="M32.8133 26.4043C32.9837 27.0719 32.9837 27.781 32.8548 28.4624C32.7304 29.1484 32.4726 29.8161 32.0813 30.4008C31.9938 30.5527 31.8695 30.6817 31.7636 30.8198L31.5978 31.027C31.538 31.0914 31.4735 31.1513 31.4137 31.2112C31.2848 31.3309 31.1651 31.4552 31.0315 31.5703C30.8934 31.6762 30.7507 31.7775 30.6126 31.8788C30.5435 31.9294 30.4744 31.9801 30.4008 32.0307L30.1752 32.1596L29.724 32.4129C29.4063 32.551 29.084 32.6753 28.7617 32.7904C29.0564 32.6109 29.3603 32.4635 29.6457 32.2793L30.0647 31.9939L30.2719 31.8512C30.3363 31.8005 30.4008 31.7406 30.4652 31.69C30.5941 31.5795 30.7185 31.4736 30.8474 31.3677C30.9671 31.2526 31.0776 31.1283 31.1973 31.0086L31.3722 30.829L31.5242 30.631C31.6209 30.4975 31.736 30.3732 31.8188 30.2304C32.201 29.6825 32.445 29.0564 32.6199 28.4118C32.7074 28.0895 32.7581 27.758 32.7903 27.4218C32.8317 27.0857 32.8317 26.745 32.8133 26.4043Z" fill="#263238"/>
<path d="M24.4434 31.834L24.1211 32.4878L26.2758 34.0671L26.971 32.5937L24.4434 31.834ZM26.1239 33.3902L24.6321 32.4279L24.7012 32.276L26.3725 32.8792L26.1239 33.3902Z" fill="#7966FF"/>
<path d="M24.5311 30.6783L24.4805 31.4058L27.068 32.055L27.1554 30.4297L24.5311 30.6783ZM26.6766 31.4841L24.9317 31.1526L24.9409 30.9822L26.7181 30.9085L26.6766 31.4841Z" fill="#7966FF"/>
<path d="M27.4673 35.3431C27.4673 35.3431 25.7269 33.3541 24.8061 33.9941C23.8853 34.6387 25.3586 37.6361 26.5557 37.9399C27.7481 38.2438 28.052 37.1434 28.052 37.1434L27.4673 35.3431Z" fill="#EB9481"/>
<path d="M25.2488 34.8459C25.2304 34.8459 25.2304 34.8735 25.2442 34.8781C26.0868 35.1175 26.5886 35.8174 26.9708 36.5587C26.6991 36.287 26.3538 36.1581 25.9855 36.4896C25.9671 36.508 25.9901 36.5357 26.0131 36.5311C26.3354 36.4252 26.5794 36.4574 26.8326 36.6968C27.0122 36.8672 27.1457 37.0928 27.2792 37.2954C27.3253 37.3644 27.4496 37.3092 27.4128 37.2309C27.4081 37.2263 27.4081 37.2171 27.4035 37.2125C27.3161 36.1765 26.363 34.8275 25.2488 34.8459Z" fill="#263238"/>
<path d="M22.2519 45.0067C16.3955 55.1085 7.64313 78.2955 6.05932 81.6106C4.98656 83.8621 16.7546 89.797 17.2519 88.1579C17.8918 86.063 26.0595 59.0543 26.589 47.0049C26.8422 41.4246 24.1258 41.7745 22.2519 45.0067Z" fill="#EB9481"/>
<path d="M12.4681 93.3141C13.0851 92.7708 13.3751 93.0931 13.1035 94.5296C12.8318 95.9846 10.5482 101.422 12.5188 102.058C14.4939 102.702 17.6063 94.9486 17.8687 92.5222C18.1404 90.0957 17.7168 86.0762 17.7168 86.0762C16.8098 87.4667 14.2867 90.616 12.4681 93.3141Z" fill="#EB9481"/>
<path d="M15.9205 101.758L1.15981 99.1056C0.717817 99.0642 0.41855 98.7603 0.49682 98.4242L1.84582 92.4018C1.91949 92.0657 2.34306 91.8263 2.78506 91.8631L17.5458 94.5152C17.9878 94.5566 18.287 94.8605 18.2088 95.1966L16.8598 101.219C16.7861 101.555 16.3671 101.799 15.9205 101.758Z" fill="#A6A6A6"/>
<path d="M16.0917 101.049L1.33559 98.3966C0.893598 98.3552 0.594332 98.0513 0.672601 97.7152L2.0216 91.6928C2.09527 91.3567 2.51884 91.1173 2.96084 91.1541L17.717 93.8062C18.159 93.8476 18.4582 94.1515 18.38 94.4876L17.031 100.51C16.9527 100.846 16.5337 101.086 16.0917 101.049Z" fill="#C7C7C7"/>
<path d="M15.815 99.1387C15.4743 99.0097 15.1474 99.1341 15.0922 99.4241C15.0369 99.7096 15.2671 100.046 15.6124 100.175C15.9531 100.304 16.28 100.179 16.3353 99.8892C16.3905 99.5991 16.1603 99.2722 15.815 99.1387Z" fill="#263238"/>
<path d="M6.84105 80.5508C3.83458 84.6025 1.17341 89.3772 1.11356 94.6445C1.09974 95.6758 1.6108 96.279 1.6108 96.279C1.54174 98.641 2.63291 99.3822 2.63291 99.3822C3.24065 101.602 4.46534 102.205 4.46534 102.205C4.46534 102.205 4.64029 104.106 5.98009 104.079C7.27844 104.051 8.05653 100.938 9.22598 98.6594C11.9102 93.4381 16.7905 87.5124 17.7159 86.0805L6.84105 80.5508Z" fill="#EB9481"/>
<path d="M7.80449 91.9513C7.04481 93.5029 6.25751 95.0085 5.71423 96.6522C5.1157 98.4571 4.84406 100.299 4.52177 102.164C4.51256 102.223 4.42969 102.214 4.42969 102.154C4.48033 98.6873 5.80631 94.7875 7.73543 91.9144C7.78147 91.8454 7.84593 91.873 7.80449 91.9513Z" fill="#263238"/>
<path d="M4.88838 89.8753C4.2346 91.4269 3.10199 94.1572 2.69223 99.3877C2.69223 99.4061 2.66 99.4061 2.66 99.3877C2.47584 95.9575 3.23091 92.8588 4.81472 89.843C4.86536 89.7509 4.93442 89.774 4.88838 89.8753Z" fill="#263238"/>
<path d="M3.30578 88.7877C2.29287 91.4674 1.99361 93.2861 1.62988 96.2696C1.62988 96.288 1.59766 96.288 1.59766 96.2696C1.65291 92.8348 2.06267 91.5963 3.2183 88.7416C3.25513 88.6404 3.34261 88.6818 3.30578 88.7877Z" fill="#263238"/>
</svg>
