<svg width="184" height="181" viewBox="0 0 184 181" fill="none" xmlns="http://www.w3.org/2000/svg">
<path d="M125.149 43.7752H124.922V33.4942C124.922 15.6158 110.295 0.421048 92.454 0.723431C75.1048 1.02581 61.044 15.2378 61.044 32.6626V33.6454C61.044 35.1195 62.2535 36.329 63.7276 36.329H72.3077C73.7819 36.329 74.9914 35.1195 74.9914 33.6454V33.343C74.9914 23.7423 82.2108 15.3134 91.8114 14.7086C102.244 14.0661 110.937 22.3438 110.937 32.6248V43.7374H84.4787V43.7752H60.0234C55.4877 43.9264 51.8213 47.5928 51.8213 52.1663V98.6577C51.8213 103.307 55.6011 107.087 60.2502 107.087H125.111C129.761 107.087 133.54 103.307 133.54 98.6577V52.2041C133.578 47.555 129.798 43.7752 125.149 43.7752ZM97.7079 77.5287C97.0654 77.9823 96.8764 78.4736 96.8764 79.2296C96.9142 82.6314 96.9142 86.0332 96.8764 89.4728C96.952 90.9091 96.2338 92.2699 94.9487 92.9124C91.9626 94.4243 88.9766 92.3076 88.9766 89.4728C88.9766 89.4728 88.9766 89.4728 88.9766 89.435C88.9766 86.0332 88.9766 82.5936 88.9766 79.1918C88.9766 78.5114 88.8254 78.0201 88.2206 77.5665C85.1212 75.2986 84.1007 71.4054 85.6504 67.9658C87.1623 64.6396 90.8287 62.6741 94.2683 63.3923C98.1237 64.1482 100.807 67.2855 100.845 71.1031C100.959 73.7867 99.8624 75.979 97.7079 77.5287Z" fill="#27AE60"/>
<path fill-rule="evenodd" clip-rule="evenodd" d="M57.9812 153.804C56.7339 154.522 55.1086 154.106 54.3904 152.859C53.6723 151.612 54.0881 149.987 55.3354 149.268L61.95 145.451L55.3354 141.595C54.0881 140.877 53.6723 139.252 54.3904 138.005C55.1086 136.757 56.7339 136.342 57.9812 137.06L64.5581 140.839V133.242C64.5581 131.806 65.7298 130.634 67.1661 130.634C68.6024 130.634 69.7742 131.806 69.7742 133.242V140.839L76.351 137.022C77.5983 136.304 79.2236 136.719 79.9418 137.967C80.66 139.214 80.2442 140.839 78.9968 141.558L72.3822 145.413L78.9968 149.268C80.2442 149.987 80.66 151.612 79.9418 152.859C79.2236 154.106 77.5983 154.522 76.351 153.804L69.7742 149.987V157.584C69.7742 159.02 68.6024 160.192 67.1661 160.192C65.7298 160.192 64.5581 159.02 64.5581 157.584V149.987L57.9812 153.804ZM26.6469 137.06C27.8942 136.342 29.5196 136.758 30.2377 138.005C30.9937 139.252 30.5401 140.84 29.2928 141.596L22.6781 145.451L29.2928 149.307C30.5401 150.025 30.9559 151.65 30.2377 152.897C29.5196 154.145 27.8942 154.561 26.6469 153.842L20.0701 150.025V157.622C20.0701 159.058 18.8984 160.23 17.462 160.23C16.0257 160.23 14.854 159.058 14.854 157.622V150.025L8.27715 153.842C7.02982 154.561 5.40451 154.145 4.68635 152.897C3.96819 151.65 4.38397 150.025 5.6313 149.307L12.2459 145.451L5.6313 141.596C4.38397 140.878 3.96819 139.252 4.68635 138.005C5.40451 136.758 7.02982 136.342 8.27715 137.06L14.854 140.878V133.28C14.854 131.844 16.0257 130.672 17.462 130.672C18.8984 130.672 20.0701 131.844 20.0701 133.28V140.878L26.6469 137.06ZM49.8333 173.781V178.392C49.8333 179.488 50.7405 180.395 51.8366 180.395H82.7931C83.8892 180.395 84.7964 179.488 84.7964 178.392V173.781C84.7964 172.685 83.8892 171.777 82.7931 171.777H51.8366C50.7027 171.777 49.8333 172.685 49.8333 173.781ZM99.3692 177.278V172.666C99.3692 171.57 100.276 170.663 101.372 170.663H132.329C133.425 170.663 134.332 171.57 134.332 172.666V177.278C134.332 178.374 133.425 179.281 132.329 179.281H101.372C100.276 179.281 99.3692 178.374 99.3692 177.278ZM104.058 152.859C104.776 154.106 106.402 154.522 107.649 153.804L114.226 149.987V157.584C114.226 159.02 115.397 160.192 116.834 160.192C118.27 160.192 119.442 159.02 119.442 157.584V149.987L126.019 153.804C127.266 154.522 128.891 154.106 129.609 152.859C130.328 151.612 129.912 149.987 128.664 149.268L122.05 145.413L128.664 141.558C129.912 140.839 130.328 139.214 129.609 137.967C128.891 136.719 127.266 136.304 126.019 137.022L119.442 140.839V133.242C119.442 131.806 118.27 130.634 116.834 130.634C115.397 130.634 114.226 131.806 114.226 133.242V140.839L107.649 137.022C106.402 136.304 104.776 136.719 104.058 137.967C103.34 139.214 103.756 140.839 105.003 141.558L111.618 145.413L105.003 149.268C103.756 149.987 103.34 151.612 104.058 152.859ZM151.041 170.663H181.997C183.093 170.663 184 171.57 184 172.666V177.278C184 178.374 183.093 179.281 181.997 179.281H151.041C149.945 179.281 149.037 178.374 149.037 177.278V172.666C149.037 171.57 149.945 170.663 151.041 170.663ZM2.00329 179.281H32.9597C34.0559 179.281 34.963 178.374 34.963 177.278V172.666C34.963 171.57 34.0559 170.663 32.9597 170.663H2.00329C0.907149 170.663 0 171.57 0 172.666V177.278C0 178.374 0.907149 179.281 2.00329 179.281ZM157.351 153.804C156.104 154.522 154.479 154.106 153.76 152.859C153.005 151.612 153.458 149.987 154.705 149.268L161.32 145.413L154.705 141.558C153.458 140.839 153.042 139.214 153.76 137.967C154.479 136.719 156.104 136.304 157.351 137.022L163.928 140.839V133.242C163.928 131.806 165.1 130.634 166.536 130.634C167.972 130.634 169.144 131.806 169.144 133.242V140.839L175.721 137.022C176.968 136.304 178.594 136.719 179.312 137.967C180.03 139.214 179.614 140.839 178.367 141.558L171.752 145.413L178.367 149.268C179.614 149.987 180.03 151.612 179.312 152.859C178.594 154.106 176.968 154.522 175.721 153.804L169.144 149.987V157.584C169.144 159.02 167.972 160.192 166.536 160.192C165.1 160.192 163.928 159.02 163.928 157.584V149.987L157.351 153.804Z" fill="#27AE60"/>
</svg>
