<svg width="28" height="28" viewBox="0 0 28 28" fill="none" xmlns="http://www.w3.org/2000/svg">
<path fill-rule="evenodd" clip-rule="evenodd" d="M13.3163 2.71827C7.46193 2.71827 2.71803 7.4584 2.71803 13.3031C2.71803 19.1479 7.46193 23.888 13.3163 23.888C16.237 23.888 18.88 22.7094 20.7979 20.8003C22.7244 18.8826 23.9146 16.2325 23.9146 13.3031C23.9146 7.4584 19.1707 2.71827 13.3163 2.71827ZM0.666748 13.3031C0.666748 6.32328 6.33127 0.666992 13.3163 0.666992C20.3014 0.666992 25.9659 6.32328 25.9659 13.3031C25.9659 16.4303 24.8277 19.2933 22.9445 21.499L27.0326 25.5824C27.4334 25.9827 27.4337 26.6321 27.0334 27.0328C26.6331 27.4336 25.9837 27.434 25.583 27.0337L21.491 22.9465C19.2868 24.8127 16.4324 25.9393 13.3163 25.9393C6.33127 25.9393 0.666748 20.283 0.666748 13.3031Z" fill="#A2AEBD"/>
</svg>
