<svg width="32" height="32" viewBox="0 0 32 32" fill="none" xmlns="http://www.w3.org/2000/svg">
<path d="M7.25 8.2235C7.25 8.91094 6.53407 9.36287 5.91256 9.06919C5.38331 8.81912 4.90163 8.42206 4.51131 7.90163C3.85913 7.03219 3.5 5.89069 3.5 4.6875C3.5 3.48431 3.85913 2.34281 4.51131 1.47337C5.2135 0.537 6.21175 0 7.25 0C8.28825 0 9.28651 0.537 9.98869 1.47337C10.6349 2.33488 10.9934 3.46344 10.9999 4.65444C11.0027 5.16619 10.6071 5.60675 10.0957 5.62444C9.56282 5.64281 9.12501 5.21631 9.12501 4.6875C9.12501 3.16294 8.26638 1.875 7.25 1.875C6.23363 1.875 5.375 3.16294 5.375 4.6875C5.375 5.93612 5.951 7.02606 6.71788 7.37969C7.04513 7.53056 7.25 7.86313 7.25 8.2235Z" fill="#F0F0FF"/>
<path d="M24.75 8.2235C24.75 8.91094 24.0341 9.36287 23.4126 9.06919C22.8833 8.81912 22.4016 8.42206 22.0113 7.90163C21.3591 7.03219 21 5.89069 21 4.6875C21 3.48431 21.3591 2.34281 22.0113 1.47337C22.7135 0.537 23.7117 0 24.75 0C25.7882 0 26.7865 0.537 27.4887 1.47337C28.1349 2.33488 28.4934 3.46344 28.4999 4.65444C28.5027 5.16619 28.1071 5.60675 27.5957 5.62444C27.0628 5.64281 26.625 5.21631 26.625 4.6875C26.625 3.16294 25.7664 1.875 24.75 1.875C23.7336 1.875 22.875 3.16294 22.875 4.6875C22.875 5.93612 23.451 7.02606 24.2179 7.37969C24.5451 7.53056 24.75 7.86313 24.75 8.2235Z" fill="#D7D7EB"/>
<path d="M16 8.2235C16 8.91094 15.2841 9.36287 14.6626 9.06919C14.1333 8.81912 13.6516 8.42206 13.2613 7.90163C12.6091 7.03219 12.25 5.89069 12.25 4.6875C12.25 3.48431 12.6091 2.34281 13.2613 1.47337C13.9635 0.537 14.9617 0 16 0C17.0382 0 18.0365 0.537 18.7387 1.47337C19.3849 2.33488 19.7434 3.46344 19.7499 4.65444C19.7527 5.16619 19.3571 5.60675 18.8457 5.62444C18.3128 5.64281 17.875 5.21631 17.875 4.6875C17.875 3.16294 17.0164 1.875 16 1.875C14.9836 1.875 14.125 3.16294 14.125 4.6875C14.125 5.93612 14.701 7.02606 15.4679 7.37969C15.7951 7.53056 16 7.86313 16 8.2235Z" fill="#D7D7EB"/>
<path d="M28.5625 32H3.4375C1.54206 32 0 30.4579 0 28.5625V12.1875C0 11.6697 0.41975 11.25 0.9375 11.25H31.0625C31.5802 11.25 32 11.6697 32 12.1875V28.5625C32 30.4579 30.4579 32 28.5625 32Z" fill="#F0F0FF"/>
<path d="M31.0625 11.25H16V32H28.5625C30.4579 32 32 30.4579 32 28.5625V12.1875C32 11.6697 31.5802 11.25 31.0625 11.25Z" fill="#D7D7EB"/>
<path d="M0 12.1875V7.1875C0 5.29206 1.54206 3.75 3.4375 3.75H28.5625C30.4579 3.75 32 5.29206 32 7.1875V12.1875H0Z" fill="#52C3FF"/>
<path d="M28.5625 3.75H16V12.1875H32V7.1875C32 5.29206 30.4579 3.75 28.5625 3.75Z" fill="#2DA8FA"/>
<path d="M7.25 8.2235C7.25 8.91094 6.53406 9.36287 5.91256 9.06919C5.38331 8.81912 4.90162 8.42206 4.51131 7.90163C3.85912 7.03219 3.5 5.89069 3.5 4.6875C3.5 3.48431 3.85912 2.34281 4.51131 1.47337C5.2135 0.537 6.21175 0 7.25 0V1.875C6.23362 1.875 5.375 3.16294 5.375 4.6875C5.375 5.93612 5.951 7.02606 6.71788 7.37969C7.04513 7.53056 7.25 7.86313 7.25 8.2235Z" fill="#F0F0FF"/>
<path d="M16 1.875C14.9836 1.875 14.125 3.16294 14.125 4.6875C14.125 5.93612 14.701 7.02606 15.4679 7.37969C15.7951 7.53056 16 7.86313 16 8.2235C16 8.91094 15.2841 9.36287 14.6626 9.06919C14.1333 8.81912 13.6516 8.42206 13.2613 7.90163C12.6091 7.03219 12.25 5.89069 12.25 4.6875C12.25 3.48431 12.6091 2.34281 13.2613 1.47337C13.9635 0.537 14.9618 0 16 0V1.875Z" fill="#F0F0FF"/>
<path d="M24.75 1.875C23.7336 1.875 22.875 3.16294 22.875 4.6875C22.875 5.93612 23.451 7.02606 24.2179 7.37969C24.5451 7.53056 24.75 7.86313 24.75 8.2235C24.75 8.91094 24.0341 9.36287 23.4126 9.06919C22.8833 8.81912 22.4016 8.42206 22.0113 7.90163C21.3591 7.03219 21 5.89069 21 4.6875C21 3.48431 21.3591 2.34281 22.0113 1.47337C22.7135 0.537 23.7118 0 24.75 0V1.875Z" fill="#D7D7EB"/>
<path d="M20.375 28.1875H11.625C11.1072 28.1875 10.6875 27.7677 10.6875 27.25V26C10.6875 23.0707 13.0707 20.6875 16 20.6875C18.9293 20.6875 21.3125 23.0707 21.3125 26V27.25C21.3125 27.7677 20.8927 28.1875 20.375 28.1875Z" fill="#FF6E4D"/>
<path d="M20.375 28.1875C20.8927 28.1875 21.3125 27.7677 21.3125 27.25V26C21.3125 23.0707 18.9293 20.6875 16 20.6875V28.1875H20.375Z" fill="#FC4722"/>
<path d="M16 22.5625C13.9323 22.5625 12.25 20.8802 12.25 18.8125C12.25 16.7448 13.9323 15.0625 16 15.0625C18.0677 15.0625 19.75 16.7448 19.75 18.8125C19.75 20.8802 18.0677 22.5625 16 22.5625Z" fill="#FFD3AA"/>
<path d="M19.75 18.8125C19.75 16.7448 18.0677 15.0625 16 15.0625V22.5625C18.0677 22.5625 19.75 20.8802 19.75 18.8125Z" fill="#FAB87D"/>
</svg>
