<svg width="32" height="32" viewBox="0 0 32 32" fill="none" xmlns="http://www.w3.org/2000/svg">
<path d="M27.2454 19.739H5.721C5.38037 19.739 5.09644 19.4763 5.07006 19.137L3.58594 0.209961H4.29744L8.76069 16.3696C8.83925 16.653 9.09681 16.8493 9.39038 16.8493H27.7251L27.8963 19.0346C27.9259 19.4145 27.6259 19.739 27.2454 19.739Z" fill="#31A7FB"/>
<path d="M27.8751 18.7642H8.84694C7.96806 18.7642 7.19156 18.1725 6.95781 17.3258L4.12356 7.06196L3.58594 0.209961H4.29744L8.76069 16.3703C8.83925 16.6536 9.09681 16.85 9.39038 16.85H27.7251L27.8751 18.7642Z" fill="#1C96F9"/>
<path d="M3.88693 3.55352L2.92568 18.1982L2.42412 17.904L0.571059 17.6696C0.191809 17.6213 -0.0656909 17.2588 0.0147466 16.8847L3.58562 0.209961L3.88693 3.55352Z" fill="#1785F8"/>
<path d="M3.58558 0.210938L5.33445 19.6129L2.42383 17.9055L3.58558 0.210938Z" fill="#1576F7"/>
<path d="M31.3479 17.4575H8.84805C8.5538 17.4575 8.29623 17.2611 8.21836 16.9785L4.67773 4.15918H28.5329L31.9775 16.6302C32.0922 17.0461 31.7792 17.4575 31.3479 17.4575Z" fill="#EAF6FF"/>
<path d="M31.9764 16.6303L27.5736 0.689273C27.4954 0.406086 27.2378 0.209961 26.944 0.209961H3.58594L8.21712 16.9781C8.29531 17.2613 8.553 17.4574 8.84675 17.4574H31.3468C31.7783 17.4574 32.0913 17.0463 31.9764 16.6303Z" fill="#EAF6FF"/>
<path d="M31.3468 17.4575H28.9536C29.385 17.4575 29.6979 17.046 29.5833 16.6301L26.1387 4.15918H28.5319L31.9766 16.6302C32.0911 17.0461 31.7782 17.4575 31.3468 17.4575Z" fill="#D9ECFD"/>
<path d="M28.6209 4.48121L27.5736 0.689273C27.4954 0.406086 27.2378 0.209961 26.944 0.209961H3.58594L4.76563 4.48121H28.6209Z" fill="#FC5A95"/>
<path d="M25.1804 0.689399L26.2277 4.48141H28.6211L27.5738 0.689399C27.4954 0.406586 27.238 0.209961 26.9441 0.209961H24.5508C24.8447 0.209961 25.102 0.406586 25.1804 0.689399Z" fill="#FB3A82"/>
</svg>
