<svg width="32" height="32" viewBox="0 0 32 32" fill="none" xmlns="http://www.w3.org/2000/svg">
<path d="M30.6667 10.7197H1.33325C0.597412 10.7197 0 11.3171 0 12.053V27.9998C0 30.2051 1.79468 31.9998 4 31.9998H28C30.2053 31.9998 32 30.2051 32 27.9998V12.053C32 11.3171 31.4026 10.7197 30.6667 10.7197Z" fill="#ECEFF1"/>
<path d="M28 4H4C1.79077 4 0 5.79077 0 8V12.0532H32V8C32 5.79077 30.2092 4 28 4Z" fill="#2196F3"/>
<path d="M8.00073 0H6.66748C5.9314 0 5.33398 0.597412 5.33398 1.33325V6.66675C5.33398 7.40259 5.9314 8 6.66748 8H8.00073C8.73682 8 9.33398 7.40259 9.33398 6.66675V1.33325C9.33398 0.597412 8.73682 0 8.00073 0Z" fill="#1976D2"/>
<path d="M25.3325 0H23.9993C23.2632 0 22.666 0.597412 22.666 1.33325V6.66675C22.666 7.40259 23.2632 8 23.9993 8H25.3325C26.0686 8 26.666 7.40259 26.666 6.66675V1.33325C26.666 0.597412 26.0686 0 25.3325 0Z" fill="#1976D2"/>
<path d="M8.33325 14.667H5C4.448 14.667 4 15.115 4 15.667V19.0002C4 19.5522 4.448 20.0002 5 20.0002H8.33325C8.88525 20.0002 9.33325 19.5522 9.33325 19.0002V15.667C9.33325 15.115 8.88525 14.667 8.33325 14.667Z" fill="#2196F3"/>
<path d="M8.33325 22.667H5C4.448 22.667 4 23.115 4 23.667V27.0002C4 27.5522 4.448 28.0002 5 28.0002H8.33325C8.88525 28.0002 9.33325 27.5522 9.33325 27.0002V23.667C9.33325 23.115 8.88525 22.667 8.33325 22.667Z" fill="#2196F3"/>
<path d="M17.6675 14.667H14.334C13.782 14.667 13.334 15.115 13.334 15.667V19.0002C13.334 19.5522 13.782 20.0002 14.334 20.0002H17.6675C18.2195 20.0002 18.6675 19.5522 18.6675 19.0002V15.667C18.6675 15.115 18.2195 14.667 17.6675 14.667Z" fill="#2196F3"/>
<path d="M17.6675 22.667H14.334C13.782 22.667 13.334 23.115 13.334 23.667V27.0002C13.334 27.5522 13.782 28.0002 14.334 28.0002H17.6675C18.2195 28.0002 18.6675 27.5522 18.6675 27.0002V23.667C18.6675 23.115 18.2195 22.667 17.6675 22.667Z" fill="#90CAF9"/>
<path d="M26.9993 14.667H23.666C23.114 14.667 22.666 15.115 22.666 15.667V19.0002C22.666 19.5522 23.114 20.0002 23.666 20.0002H26.9993C27.5513 20.0002 27.9993 19.5522 27.9993 19.0002V15.667C27.9993 15.115 27.5513 14.667 26.9993 14.667Z" fill="#2196F3"/>
</svg>
