<svg width="38" height="38" viewBox="0 0 38 38" fill="none" xmlns="http://www.w3.org/2000/svg">
    <g clip-path="url(#clip0_4478_36613)">
        <path d="M31.8516 31.2734H7.25233C6.86304 31.2734 6.53854 30.9732 6.5084 30.5854L4.81226 8.95459H5.6254L10.7263 27.4228C10.816 27.7466 11.1104 27.971 11.4459 27.971H32.3998L32.5955 30.4684C32.6294 30.9026 32.2865 31.2734 31.8516 31.2734Z" fill="#31A7FB"/>
        <path d="M32.5713 30.159H10.8248C9.8204 30.159 8.93297 29.4827 8.66583 28.5151L5.42668 16.785L4.81226 8.9541H5.6254L10.7263 27.423C10.816 27.7468 11.1104 27.9712 11.4459 27.9712H32.3998L32.5713 30.159Z" fill="#1C96F9"/>
        <path d="M5.15657 12.7758L4.05799 29.5126L3.48478 29.1763L1.36699 28.9084C0.933566 28.8532 0.63928 28.439 0.731209 28.0114L4.81221 8.95459L5.15657 12.7758Z" fill="#1785F8"/>
        <path d="M4.81209 8.95459L6.8108 31.1283L3.48438 29.1769L4.81209 8.95459Z" fill="#1576F7"/>
        <path d="M36.539 28.6663H10.8249C10.4886 28.6663 10.1943 28.4419 10.1053 28.1189L6.05884 13.4683H33.3218L37.2586 27.7208C37.3896 28.1962 37.032 28.6663 36.539 28.6663Z" fill="#EAF6FF"/>
        <path d="M37.2583 27.7211L32.2266 9.50286C32.1373 9.17922 31.8428 8.95508 31.5071 8.95508H4.81213L10.1049 28.1186C10.1943 28.4423 10.4888 28.6664 10.8245 28.6664H36.5388C37.032 28.6664 37.3897 28.1966 37.2583 27.7211Z" fill="#EAF6FF"/>
        <path d="M36.5389 28.6663H33.8037C34.2967 28.6663 34.6544 28.1961 34.5234 27.7207L30.5867 13.4683H33.3218L37.2586 27.7208C37.3895 28.1962 37.0319 28.6663 36.5389 28.6663Z" fill="#D9ECFD"/>
        <path d="M33.4236 13.8365L32.2266 9.50286C32.1373 9.17922 31.8428 8.95508 31.5071 8.95508H4.81213L6.16035 13.8365H33.4236Z" fill="#FC5A95"/>
        <path d="M29.4915 9.50252L30.6885 13.8362H33.4238L32.2268 9.50252C32.1373 9.1793 31.8431 8.95459 31.5072 8.95459H28.772C29.1078 8.95459 29.402 9.1793 29.4915 9.50252Z" fill="#FB3A82"/>
        <path d="M30.966 6.72607C30.2982 6.72607 29.6985 7.02179 29.2898 7.48879C28.881 7.02186 28.2813 6.72607 27.6135 6.72607C26.9456 6.72607 26.3459 7.02179 25.9372 7.48879C25.5285 7.02186 24.9288 6.72607 24.2609 6.72607C23.593 6.72607 22.9933 7.02179 22.5846 7.48879C22.1759 7.02186 21.5762 6.72607 20.9083 6.72607C20.2405 6.72607 19.6408 7.02179 19.232 7.48879C18.8233 7.02186 18.2236 6.72607 17.5558 6.72607C16.8879 6.72607 16.2882 7.02179 15.8795 7.48879C15.4708 7.02186 14.871 6.72607 14.2032 6.72607C13.5353 6.72607 12.9356 7.02179 12.5269 7.48879C12.1182 7.02186 11.5185 6.72607 10.8506 6.72607C10.1828 6.72607 9.58304 7.02179 9.17433 7.48879C8.76561 7.02186 8.1659 6.72607 7.49804 6.72607C6.2694 6.72607 5.2699 7.72565 5.2699 8.95422C5.2699 9.25908 5.51697 9.50608 5.82175 9.50608C6.12654 9.50608 6.37361 9.25901 6.37361 8.95422C6.37361 8.33422 6.87797 7.82986 7.49797 7.82986C8.11797 7.82986 8.62233 8.33422 8.62233 8.95422C8.62233 9.57422 8.11797 10.0786 7.49797 10.0786C7.19318 10.0786 6.94611 10.3257 6.94611 10.6304C6.94611 10.9353 7.19318 11.1823 7.49797 11.1823C8.72661 11.1823 9.72611 10.1827 9.72611 8.95415C9.72611 8.33415 10.2305 7.82979 10.8505 7.82979C11.4705 7.82979 11.9748 8.33415 11.9748 8.95415C11.9748 9.57415 11.4705 10.0785 10.8505 10.0785C10.5457 10.0785 10.2986 10.3256 10.2986 10.6304C10.2986 10.9352 10.5457 11.1822 10.8505 11.1822C12.0791 11.1822 13.0786 10.1827 13.0786 8.95408C13.0786 8.33408 13.583 7.82972 14.203 7.82972C14.823 7.82972 15.3273 8.33408 15.3273 8.95408C15.3273 9.57408 14.823 10.0784 14.203 10.0784C13.8982 10.0784 13.6511 10.3255 13.6511 10.6303C13.6511 10.9352 13.8982 11.1822 14.203 11.1822C15.4316 11.1822 16.4311 10.1826 16.4311 8.95401C16.4311 8.33401 16.9355 7.82965 17.5555 7.82965C18.1755 7.82965 18.6798 8.33401 18.6798 8.95401C18.6798 9.57401 18.1755 10.0784 17.5555 10.0784C17.2507 10.0784 17.0036 10.3254 17.0036 10.6302C17.0036 10.9351 17.2507 11.1821 17.5555 11.1821C18.7841 11.1821 19.7836 10.1825 19.7836 8.95394C19.7836 8.33393 20.288 7.82958 20.908 7.82958C21.528 7.82958 22.0323 8.33393 22.0323 8.95394C22.0323 9.57394 21.528 10.0783 20.908 10.0783C20.6032 10.0783 20.3561 10.3254 20.3561 10.6302C20.3561 10.935 20.6032 11.182 20.908 11.182C22.1366 11.182 23.1361 10.1824 23.1361 8.95386C23.1361 8.33386 23.6405 7.8295 24.2605 7.8295C24.8805 7.8295 25.3848 8.33386 25.3848 8.95386C25.3848 9.57387 24.8805 10.0782 24.2605 10.0782C23.9557 10.0782 23.7086 10.3253 23.7086 10.6301C23.7086 10.9349 23.9557 11.1819 24.2605 11.1819C25.4891 11.1819 26.4886 10.1824 26.4886 8.95379C26.4886 8.33379 26.993 7.82943 27.613 7.82943C28.233 7.82943 28.7373 8.33379 28.7373 8.95379C28.7373 9.57379 28.233 10.0782 27.613 10.0782C27.3082 10.0782 27.0611 10.3252 27.0611 10.63C27.0611 10.9349 27.3082 11.1819 27.613 11.1819C28.8416 11.1819 29.8411 10.1823 29.8411 8.95372C29.8411 8.33372 30.3455 7.82936 30.9655 7.82936C31.5855 7.82936 32.0898 8.33372 32.0898 8.95372C32.0898 9.57372 31.5855 10.0781 30.9655 10.0781C30.6607 10.0781 30.4136 10.3252 30.4136 10.6299C30.4136 10.9348 30.6607 11.1818 30.9655 11.1818C32.1941 11.1818 33.1936 10.1822 33.1936 8.95365C33.1936 7.72508 32.1947 6.72607 30.966 6.72607Z" fill="#D9ECFD"/>
        <path d="M6.60021 8.95459C6.54278 9.33359 6.21607 9.62345 5.82171 9.62345C5.42728 9.62345 5.10057 9.33352 5.04321 8.95459H6.60021Z" fill="#FC5A95"/>
        <path d="M14.8067 19.9239L13.8564 16.9609C13.7573 16.652 13.47 16.4424 13.1455 16.4424H10.9577C10.4518 16.4424 10.0924 16.9351 10.2469 17.4169L11.1973 20.3799C11.2964 20.6888 11.5837 20.8984 11.9082 20.8984H14.096C14.6019 20.8985 14.9613 20.4057 14.8067 19.9239Z" fill="#31A7FB"/>
        <path d="M17.6786 17.218H16.6598C16.355 17.218 16.1079 16.9709 16.1079 16.6661C16.1079 16.3613 16.355 16.1143 16.6598 16.1143H17.6786C17.9833 16.1143 18.2304 16.3613 18.2304 16.6661C18.2305 16.9709 17.9833 17.218 17.6786 17.218Z" fill="#FC5A95"/>
        <path d="M21.1239 17.218H20.1051C19.8003 17.218 19.5532 16.9709 19.5532 16.6661C19.5532 16.3613 19.8003 16.1143 20.1051 16.1143H21.1239C21.4287 16.1143 21.6757 16.3613 21.6757 16.6661C21.6757 16.9709 21.4287 17.218 21.1239 17.218Z" fill="#31A7FB"/>
        <path d="M24.5688 17.218H23.55C23.2452 17.218 22.9982 16.9709 22.9982 16.6661C22.9982 16.3613 23.2452 16.1143 23.55 16.1143H24.5688C24.8736 16.1143 25.1207 16.3613 25.1207 16.6661C25.1207 16.9709 24.8736 17.218 24.5688 17.218Z" fill="#31A7FB"/>
        <path d="M28.014 17.218H26.9952C26.6904 17.218 26.4434 16.9709 26.4434 16.6661C26.4434 16.3613 26.6904 16.1143 26.9952 16.1143H28.014C28.3188 16.1143 28.5659 16.3613 28.5659 16.6661C28.5659 16.9709 28.3188 17.218 28.014 17.218Z" fill="#31A7FB"/>
        <path d="M31.4592 17.218H30.4404C30.1356 17.218 29.8885 16.9709 29.8885 16.6661C29.8885 16.3613 30.1356 16.1143 30.4404 16.1143H31.4592C31.764 16.1143 32.011 16.3613 32.011 16.6661C32.011 16.9709 31.764 17.218 31.4592 17.218Z" fill="#31A7FB"/>
        <path d="M18.412 20.2268H17.3932C17.0884 20.2268 16.8413 19.9797 16.8413 19.6749C16.8413 19.3701 17.0884 19.123 17.3932 19.123H18.412C18.7167 19.123 18.9638 19.3701 18.9638 19.6749C18.9638 19.9797 18.7167 20.2268 18.412 20.2268Z" fill="#FC5A95"/>
        <path d="M21.857 20.2268H20.8382C20.5334 20.2268 20.2864 19.9797 20.2864 19.6749C20.2864 19.3701 20.5334 19.123 20.8382 19.123H21.857C22.1618 19.123 22.4089 19.3701 22.4089 19.6749C22.4089 19.9797 22.1619 20.2268 21.857 20.2268Z" fill="#31A7FB"/>
        <path d="M25.3023 20.2268H24.2835C23.9788 20.2268 23.7317 19.9797 23.7317 19.6749C23.7317 19.3701 23.9788 19.123 24.2835 19.123H25.3023C25.6071 19.123 25.8542 19.3701 25.8542 19.6749C25.8542 19.9797 25.6071 20.2268 25.3023 20.2268Z" fill="#31A7FB"/>
        <path d="M28.7473 20.2268H27.7285C27.4237 20.2268 27.1766 19.9797 27.1766 19.6749C27.1766 19.3701 27.4237 19.123 27.7285 19.123H28.7473C29.0521 19.123 29.2991 19.3701 29.2991 19.6749C29.2991 19.9797 29.0521 20.2268 28.7473 20.2268Z" fill="#31A7FB"/>
        <path d="M32.1926 20.2268H31.1738C30.869 20.2268 30.6219 19.9797 30.6219 19.6749C30.6219 19.3701 30.869 19.123 31.1738 19.123H32.1926C32.4974 19.123 32.7444 19.3701 32.7444 19.6749C32.7444 19.9797 32.4974 20.2268 32.1926 20.2268Z" fill="#31A7FB"/>
        <path d="M19.1453 23.2355H18.1266C17.8218 23.2355 17.5747 22.9885 17.5747 22.6837C17.5747 22.3789 17.8218 22.1318 18.1266 22.1318H19.1453C19.4501 22.1318 19.6972 22.3789 19.6972 22.6837C19.6972 22.9885 19.4501 23.2355 19.1453 23.2355Z" fill="#FC5A95"/>
        <path d="M22.5905 23.2355H21.5718C21.267 23.2355 21.0199 22.9885 21.0199 22.6837C21.0199 22.3789 21.267 22.1318 21.5718 22.1318H22.5905C22.8953 22.1318 23.1424 22.3789 23.1424 22.6837C23.1424 22.9885 22.8953 23.2355 22.5905 23.2355Z" fill="#31A7FB"/>
        <path d="M26.0355 23.2355H25.0167C24.7119 23.2355 24.4648 22.9885 24.4648 22.6837C24.4648 22.3789 24.7119 22.1318 25.0167 22.1318H26.0355C26.3403 22.1318 26.5873 22.3789 26.5873 22.6837C26.5873 22.9885 26.3403 23.2355 26.0355 23.2355Z" fill="#31A7FB"/>
        <path d="M29.4807 23.2355H28.4619C28.1571 23.2355 27.91 22.9885 27.91 22.6837C27.91 22.3789 28.1571 22.1318 28.4619 22.1318H29.4807C29.7855 22.1318 30.0325 22.3789 30.0325 22.6837C30.0325 22.9885 29.7855 23.2355 29.4807 23.2355Z" fill="#31A7FB"/>
        <path d="M32.9259 23.2355H31.9072C31.6024 23.2355 31.3553 22.9885 31.3553 22.6837C31.3553 22.3789 31.6024 22.1318 31.9072 22.1318H32.926C33.2308 22.1318 33.4778 22.3789 33.4778 22.6837C33.4778 22.9885 33.2307 23.2355 32.9259 23.2355Z" fill="#31A7FB"/>
        <path d="M19.6546 26.2439H18.6358C18.3311 26.2439 18.084 25.9968 18.084 25.692C18.084 25.3872 18.3311 25.1401 18.6358 25.1401H19.6546C19.9594 25.1401 20.2065 25.3872 20.2065 25.692C20.2065 25.9968 19.9594 26.2439 19.6546 26.2439Z" fill="#FC5A95"/>
        <path d="M23.0998 26.2439H22.081C21.7762 26.2439 21.5292 25.9968 21.5292 25.692C21.5292 25.3872 21.7762 25.1401 22.081 25.1401H23.0998C23.4046 25.1401 23.6517 25.3872 23.6517 25.692C23.6517 25.9968 23.4046 26.2439 23.0998 26.2439Z" fill="#31A7FB"/>
        <path d="M26.5449 26.2439H25.5261C25.2213 26.2439 24.9742 25.9968 24.9742 25.692C24.9742 25.3872 25.2213 25.1401 25.5261 25.1401H26.5449C26.8497 25.1401 27.0967 25.3872 27.0967 25.692C27.0967 25.9968 26.8497 26.2439 26.5449 26.2439Z" fill="#31A7FB"/>
        <path d="M29.9901 26.2439H28.9713C28.6665 26.2439 28.4194 25.9968 28.4194 25.692C28.4194 25.3872 28.6665 25.1401 28.9713 25.1401H29.9901C30.2949 25.1401 30.5419 25.3872 30.5419 25.692C30.5419 25.9968 30.2949 26.2439 29.9901 26.2439Z" fill="#31A7FB"/>
        <path d="M33.4354 26.2439H32.4166C32.1118 26.2439 31.8647 25.9968 31.8647 25.692C31.8647 25.3872 32.1118 25.1401 32.4166 25.1401H33.4354C33.7402 25.1401 33.9872 25.3872 33.9872 25.692C33.9872 25.9968 33.7402 26.2439 33.4354 26.2439Z" fill="#31A7FB"/>
        <path d="M13.4418 26.2923C13.1998 26.2923 12.9777 26.1318 12.9101 25.8872L12.2293 23.4221C12.1481 23.1283 12.3206 22.8243 12.6144 22.7432C12.908 22.6621 13.2121 22.8344 13.2933 23.1282L13.9741 25.5933C14.0553 25.8871 13.8829 26.1911 13.5891 26.2722C13.5399 26.2858 13.4905 26.2923 13.4418 26.2923Z" fill="#31A7FB"/>
        <path d="M15.3199 26.2918C15.0779 26.2918 14.8558 26.1314 14.7882 25.8867L14.4478 24.6542C14.3666 24.3603 14.5391 24.0564 14.8329 23.9752C15.1264 23.8938 15.4306 24.0665 15.5118 24.3602L15.8522 25.5928C15.9334 25.8867 15.7609 26.1906 15.4671 26.2717C15.4179 26.2853 15.3685 26.2918 15.3199 26.2918Z" fill="#31A7FB"/>
    </g>
    <defs>
        <clipPath id="clip0_4478_36613">
            <rect width="36.5714" height="36.5714" fill="white" transform="translate(0.714233 0.714355)"/>
        </clipPath>
    </defs>
</svg>
