<svg width="30" height="32" viewBox="0 0 30 32" fill="none" xmlns="http://www.w3.org/2000/svg">
<path d="M14.3896 26.667H2.19966C1.02147 26.667 0.0664062 25.7119 0.0664062 24.5338V22.4004H16.4387L14.3896 26.667Z" fill="#D3DCFB"/>
<path d="M27.8018 9.59998V18.5624V24.5332H2.19966C1.02147 24.5332 0.0664062 23.5781 0.0664062 22.3999V9.59998L15.0008 4.2666L27.8018 9.59998Z" fill="#EBF5FC"/>
<path d="M3.83449 13.8667H2.70117C2.42505 13.8667 2.20117 13.6428 2.20117 13.3667V12.2334C2.20117 11.9573 2.42505 11.7334 2.70117 11.7334H3.83449C4.11061 11.7334 4.33449 11.9573 4.33449 12.2334V13.3667C4.33449 13.6428 4.11061 13.8667 3.83449 13.8667Z" fill="#3C58A0"/>
<path d="M8.10206 13.8667H6.96875C6.69262 13.8667 6.46875 13.6428 6.46875 13.3667V12.2334C6.46875 11.9573 6.69262 11.7334 6.96875 11.7334H8.10206C8.37819 11.7334 8.60206 11.9573 8.60206 12.2334V13.3667C8.60206 13.6428 8.37819 13.8667 8.10206 13.8667Z" fill="#3C58A0"/>
<path d="M12.3677 13.8667H11.2344C10.9582 13.8667 10.7344 13.6428 10.7344 13.3667V12.2334C10.7344 11.9573 10.9582 11.7334 11.2344 11.7334H12.3677C12.6438 11.7334 12.8677 11.9573 12.8677 12.2334V13.3667C12.8677 13.6428 12.6439 13.8667 12.3677 13.8667Z" fill="#3C58A0"/>
<path d="M16.6353 13.8667H15.502C15.2258 13.8667 15.002 13.6428 15.002 13.3667V12.2334C15.002 11.9573 15.2258 11.7334 15.502 11.7334H16.6353C16.9114 11.7334 17.1353 11.9573 17.1353 12.2334V13.3667C17.1353 13.6428 16.9114 13.8667 16.6353 13.8667Z" fill="#3C58A0"/>
<path d="M20.9009 13.8667H19.7676C19.4915 13.8667 19.2676 13.6428 19.2676 13.3667V12.2334C19.2676 11.9573 19.4915 11.7334 19.7676 11.7334H20.9009C21.177 11.7334 21.4009 11.9573 21.4009 12.2334V13.3667C21.4009 13.6428 21.1771 13.8667 20.9009 13.8667Z" fill="#3C58A0"/>
<path d="M25.1665 13.8667H24.0332C23.7571 13.8667 23.5332 13.6428 23.5332 13.3667V12.2334C23.5332 11.9573 23.7571 11.7334 24.0332 11.7334H25.1665C25.4426 11.7334 25.6665 11.9573 25.6665 12.2334V13.3667C25.6665 13.6428 25.4426 13.8667 25.1665 13.8667Z" fill="#3C58A0"/>
<path d="M3.83449 18.1333H2.70117C2.42505 18.1333 2.20117 17.9094 2.20117 17.6333V16.5C2.20117 16.2239 2.42505 16 2.70117 16H3.83449C4.11061 16 4.33449 16.2239 4.33449 16.5V17.6333C4.33449 17.9095 4.11061 18.1333 3.83449 18.1333Z" fill="#3C58A0"/>
<path d="M8.10206 18.1333H6.96875C6.69262 18.1333 6.46875 17.9094 6.46875 17.6333V16.5C6.46875 16.2239 6.69262 16 6.96875 16H8.10206C8.37819 16 8.60206 16.2239 8.60206 16.5V17.6333C8.60206 17.9095 8.37819 18.1333 8.10206 18.1333Z" fill="#3C58A0"/>
<path d="M12.3677 18.1333H11.2344C10.9582 18.1333 10.7344 17.9094 10.7344 17.6333V16.5C10.7344 16.2239 10.9582 16 11.2344 16H12.3677C12.6438 16 12.8677 16.2239 12.8677 16.5V17.6333C12.8677 17.9095 12.6439 18.1333 12.3677 18.1333Z" fill="#3C58A0"/>
<path d="M17.1353 18.1333V16.5333C17.1353 16.2387 16.8965 16 16.602 16H15.5353C15.2407 16 15.002 16.2387 15.002 16.5333V17.6C15.002 17.8946 15.2408 18.1333 15.5353 18.1333H17.1353Z" fill="#3C58A0"/>
<path d="M3.83449 22.3999H2.70117C2.42505 22.3999 2.20117 22.176 2.20117 21.8999V20.7666C2.20117 20.4905 2.42505 20.2666 2.70117 20.2666H3.83449C4.11061 20.2666 4.33449 20.4905 4.33449 20.7666V21.8999C4.33449 22.176 4.11061 22.3999 3.83449 22.3999Z" fill="#3C58A0"/>
<path d="M8.10206 22.3999H6.96875C6.69262 22.3999 6.46875 22.176 6.46875 21.8999V20.7666C6.46875 20.4905 6.69262 20.2666 6.96875 20.2666H8.10206C8.37819 20.2666 8.60206 20.4905 8.60206 20.7666V21.8999C8.60206 22.176 8.37819 22.3999 8.10206 22.3999Z" fill="#3C58A0"/>
<path d="M12.3677 22.3999H11.2344C10.9582 22.3999 10.7344 22.176 10.7344 21.8999V20.7666C10.7344 20.4905 10.9582 20.2666 11.2344 20.2666H12.3677C12.6438 20.2666 12.8677 20.4905 12.8677 20.7666V21.8999C12.8677 22.176 12.6439 22.3999 12.3677 22.3999Z" fill="#3C58A0"/>
<path d="M25.1514 11.7334H24.0483C23.9815 11.7334 23.9179 11.7465 23.8594 11.7696C24.0503 11.845 24.1856 12.0307 24.1856 12.2485V13.3516C24.1856 13.5693 24.0502 13.7551 23.8594 13.8305C23.9179 13.8536 23.9815 13.8667 24.0483 13.8667H25.1514C25.4359 13.8667 25.6665 13.6361 25.6665 13.3516V12.2485C25.6664 11.964 25.4358 11.7334 25.1514 11.7334Z" fill="#2A428C"/>
<path d="M20.8838 11.7334H19.7807C19.7139 11.7334 19.6504 11.7465 19.5918 11.7696C19.7827 11.845 19.918 12.0307 19.918 12.2485V13.3516C19.918 13.5693 19.7827 13.7551 19.5918 13.8305C19.6504 13.8536 19.7139 13.8667 19.7807 13.8667H20.8838C21.1683 13.8667 21.3989 13.6361 21.3989 13.3516V12.2485C21.3989 11.964 21.1683 11.7334 20.8838 11.7334Z" fill="#2A428C"/>
<path d="M16.6182 11.7334H15.515C15.4483 11.7334 15.3847 11.7465 15.3262 11.7696C15.5171 11.845 15.6524 12.0307 15.6524 12.2485V13.3516C15.6524 13.5693 15.5171 13.7551 15.3262 13.8305C15.3847 13.8536 15.4483 13.8667 15.515 13.8667H16.6182C16.9027 13.8667 17.1333 13.6361 17.1333 13.3516V12.2485C17.1332 11.964 16.9026 11.7334 16.6182 11.7334Z" fill="#2A428C"/>
<path d="M12.3525 11.7334H11.2494C11.1827 11.7334 11.1191 11.7465 11.0605 11.7696C11.2515 11.845 11.3868 12.0307 11.3868 12.2485V13.3516C11.3868 13.5693 11.2515 13.7551 11.0605 13.8305C11.1191 13.8536 11.1827 13.8667 11.2494 13.8667H12.3525C12.637 13.8667 12.8677 13.6361 12.8677 13.3516V12.2485C12.8676 11.964 12.637 11.7334 12.3525 11.7334Z" fill="#2A428C"/>
<path d="M8.08496 11.7334H6.98184C6.91509 11.7334 6.85153 11.7465 6.79297 11.7696C6.98391 11.845 7.11916 12.0307 7.11916 12.2485V13.3516C7.11916 13.5693 6.98384 13.7551 6.79297 13.8305C6.85153 13.8536 6.91509 13.8667 6.98184 13.8667H8.08496C8.36946 13.8667 8.60009 13.6361 8.60009 13.3516V12.2485C8.60009 11.964 8.36946 11.7334 8.08496 11.7334Z" fill="#2A428C"/>
<path d="M3.81934 11.7334H2.71622C2.64947 11.7334 2.58591 11.7465 2.52734 11.7696C2.71828 11.845 2.85359 12.0307 2.85359 12.2485V13.3516C2.85359 13.5693 2.71828 13.7551 2.52734 13.8305C2.58591 13.8536 2.64947 13.8667 2.71622 13.8667H3.81934C4.10384 13.8667 4.33447 13.6361 4.33447 13.3516V12.2485C4.3344 11.964 4.10378 11.7334 3.81934 11.7334Z" fill="#2A428C"/>
<path d="M3.81934 16H2.71622C2.64947 16 2.58591 16.0131 2.52734 16.0362C2.71828 16.1116 2.85359 16.2973 2.85359 16.5151V17.6182C2.85359 17.836 2.71828 18.0217 2.52734 18.0971C2.58591 18.1202 2.64947 18.1334 2.71622 18.1334H3.81934C4.10384 18.1334 4.33447 17.9028 4.33447 17.6183V16.5151C4.3344 16.2306 4.10378 16 3.81934 16Z" fill="#2A428C"/>
<path d="M3.81934 20.2666H2.71622C2.64947 20.2666 2.58591 20.2797 2.52734 20.3028C2.71828 20.3782 2.85359 20.5639 2.85359 20.7817V21.8849C2.85359 22.1026 2.71828 22.2884 2.52734 22.3637C2.58591 22.3869 2.64947 22.4 2.71622 22.4H3.81934C4.10384 22.4 4.33447 22.1694 4.33447 21.8849V20.7817C4.3344 20.4972 4.10378 20.2666 3.81934 20.2666Z" fill="#2A428C"/>
<path d="M8.08496 16H6.98184C6.91509 16 6.85153 16.0131 6.79297 16.0362C6.98391 16.1116 7.11916 16.2973 7.11916 16.5151V17.6182C7.11916 17.836 6.98384 18.0217 6.79297 18.0971C6.85153 18.1202 6.91509 18.1334 6.98184 18.1334H8.08496C8.36946 18.1334 8.60009 17.9028 8.60009 17.6183V16.5151C8.60009 16.2306 8.36946 16 8.08496 16Z" fill="#2A428C"/>
<path d="M8.08496 20.2666H6.98184C6.91509 20.2666 6.85153 20.2797 6.79297 20.3028C6.98391 20.3782 7.11916 20.5639 7.11916 20.7817V21.8849C7.11916 22.1026 6.98384 22.2884 6.79297 22.3637C6.85153 22.3869 6.91509 22.4 6.98184 22.4H8.08496C8.36946 22.4 8.60009 22.1694 8.60009 21.8849V20.7817C8.60009 20.4972 8.36946 20.2666 8.08496 20.2666Z" fill="#2A428C"/>
<path d="M12.3525 16H11.2494C11.1827 16 11.1191 16.0131 11.0605 16.0362C11.2515 16.1116 11.3868 16.2973 11.3868 16.5151V17.6182C11.3868 17.836 11.2515 18.0217 11.0605 18.0971C11.1191 18.1202 11.1827 18.1334 11.2494 18.1334H12.3525C12.637 18.1334 12.8677 17.9028 12.8677 17.6183V16.5151C12.8676 16.2306 12.637 16 12.3525 16Z" fill="#2A428C"/>
<path d="M17.1333 18.1333V16.5151C17.1333 16.2306 16.9027 16 16.6182 16H15.515C15.4483 16 15.3847 16.0131 15.3262 16.0362C15.5171 16.1116 15.6524 16.2973 15.6524 16.5151V17.6182C15.6524 17.836 15.5171 18.0217 15.3262 18.0971C15.3847 18.1202 15.4483 18.1334 15.515 18.1334H17.1333V18.1333Z" fill="#2A428C"/>
<path d="M12.3525 20.2666H11.2494C11.1827 20.2666 11.1191 20.2797 11.0605 20.3028C11.2515 20.3782 11.3868 20.5639 11.3868 20.7817V21.8849C11.3868 22.1026 11.2515 22.2884 11.0605 22.3637C11.1191 22.3869 11.1827 22.4 11.2494 22.4H12.3525C12.637 22.4 12.8677 22.1694 12.8677 21.8849V20.7817C12.8676 20.4972 12.637 20.2666 12.3525 20.2666Z" fill="#2A428C"/>
<path d="M26.3203 8.98242V18.5622V24.5332H27.8022V18.5622V9.59986L26.3203 8.98242Z" fill="#D3DCFB"/>
<path d="M27.8018 9.60041V4.26704C27.8018 3.08885 26.8467 2.13379 25.6685 2.13379H2.19966C1.02147 2.13379 0.0664062 3.08885 0.0664062 4.26704V9.60041H27.8018Z" fill="#FF4155"/>
<path d="M6.78941 4.74993H5.40084C5.13409 4.74993 4.91797 4.53374 4.91797 4.26705C4.91797 4.00037 5.13416 3.78418 5.40084 3.78418H6.78941C7.05616 3.78418 7.27228 4.00037 7.27228 4.26705C7.27228 4.53374 7.05609 4.74993 6.78941 4.74993Z" fill="#E80054"/>
<path d="M10.2015 4.74993H8.81295C8.5462 4.74993 8.33008 4.53374 8.33008 4.26705C8.33008 4.00037 8.54627 3.78418 8.81295 3.78418H10.2015C10.4683 3.78418 10.6844 4.00037 10.6844 4.26705C10.6844 4.53374 10.4683 4.74993 10.2015 4.74993Z" fill="#E80054"/>
<path d="M19.057 4.74993H17.6684C17.4017 4.74993 17.1855 4.53374 17.1855 4.26705C17.1855 4.00037 17.4017 3.78418 17.6684 3.78418H19.057C19.3238 3.78418 19.5399 4.00037 19.5399 4.26705C19.5399 4.53374 19.3238 4.74993 19.057 4.74993Z" fill="#E80054"/>
<path d="M22.4692 4.74993H21.0805C20.8138 4.74993 20.5977 4.53374 20.5977 4.26705C20.5977 4.00037 20.8138 3.78418 21.0805 3.78418H22.4692C22.7359 3.78418 22.952 4.00037 22.952 4.26705C22.952 4.53374 22.7358 4.74993 22.4692 4.74993Z" fill="#E80054"/>
<path d="M9.13342 4C9.13342 4.73637 8.53648 5.33331 7.80011 5.33331C7.06373 5.33331 6.4668 4.73637 6.4668 4V1.33331C6.46673 0.596938 7.06367 0 7.80005 0C8.53642 0 9.13336 0.596938 9.13336 1.33331V4H9.13342Z" fill="#EBF5FC"/>
<path d="M21.4011 4C21.4011 4.73637 20.8041 5.33331 20.0678 5.33331C19.3314 5.33331 18.7344 4.73637 18.7344 4V1.33331C18.7344 0.596938 19.3313 0 20.0677 0C20.8041 0 21.401 0.596938 21.401 1.33331V4H21.4011Z" fill="#EBF5FC"/>
<path d="M20.0679 0C19.7941 0 19.5399 0.08275 19.3281 0.22425C19.6859 0.463375 19.9217 0.870687 19.9217 1.33337V4C19.9217 4.46263 19.6859 4.87 19.3281 5.10913C19.5398 5.25056 19.7941 5.33337 20.0679 5.33337C20.8042 5.33337 21.4012 4.73644 21.4012 4.00006V1.33331C21.4013 0.596938 20.8043 0 20.0679 0V0Z" fill="#D3DCFB"/>
<path d="M7.8003 0C7.52655 0 7.2723 0.08275 7.06055 0.22425C7.41836 0.463375 7.65417 0.870687 7.65417 1.33337V4C7.65417 4.46263 7.41836 4.87 7.06055 5.10913C7.27223 5.25056 7.52655 5.33337 7.8003 5.33337C8.53667 5.33337 9.13361 4.73644 9.13361 4.00006V1.33331C9.13367 0.596938 8.53673 0 7.8003 0V0Z" fill="#D3DCFB"/>
<path d="M25.6689 2.13379H24.1875C25.3657 2.13379 26.3208 3.08885 26.3208 4.26704V9.60048H27.8021V4.2671C27.8022 3.08891 26.8471 2.13379 25.6689 2.13379Z" fill="#E80054"/>
<path d="M0.0664062 6.9834H27.8018V7.94921H0.0664062V6.9834Z" fill="#E80054"/>
<path d="M21.9336 32C26.3519 32 29.9336 28.4183 29.9336 24C29.9336 19.5817 26.3519 16 21.9336 16C17.5153 16 13.9336 19.5817 13.9336 24C13.9336 28.4183 17.5153 32 21.9336 32Z" fill="#4FABF7"/>
<path d="M21.935 29.8672C25.1751 29.8672 27.8017 27.2406 27.8017 24.0005C27.8017 20.7604 25.1751 18.1338 21.935 18.1338C18.695 18.1338 16.0684 20.7604 16.0684 24.0005C16.0684 27.2406 18.695 29.8672 21.935 29.8672Z" fill="#EBF5FC"/>
<path d="M21.934 23.4166C21.6673 23.4166 21.4512 23.2004 21.4512 22.9337V20.2671C21.4512 20.0004 21.6674 19.7842 21.934 19.7842C22.2008 19.7842 22.4169 20.0004 22.4169 20.2671V22.9337C22.4169 23.2004 22.2007 23.4166 21.934 23.4166Z" fill="#3C58A0"/>
<path d="M24.6005 24.4833H23.0005C22.7337 24.4833 22.5176 24.2671 22.5176 24.0005C22.5176 23.7338 22.7338 23.5176 23.0005 23.5176H24.6005C24.8673 23.5176 25.0834 23.7338 25.0834 24.0005C25.0834 24.2671 24.8672 24.4833 24.6005 24.4833Z" fill="#3C58A0"/>
<path d="M21.9339 16C21.6842 16 21.4373 16.0121 21.1934 16.0344C25.2645 16.4081 28.4529 19.8314 28.4529 24C28.4529 28.1686 25.2644 31.5919 21.1934 31.9656C21.4372 31.9879 21.6841 32 21.9338 32C26.352 32 29.9338 28.4183 29.9338 24C29.9338 19.5817 26.3521 16 21.9339 16Z" fill="#1886EA"/>
<path d="M21.9333 18.1338C21.6827 18.1338 21.4357 18.1496 21.1934 18.1801C24.0841 18.5439 26.3201 21.011 26.3201 24.0005C26.3201 26.9899 24.0841 29.457 21.1934 29.8209C21.4357 29.8514 21.6827 29.8672 21.9333 29.8672C25.1734 29.8672 27.8 27.2405 27.8 24.0005C27.8 20.7604 25.1734 18.1338 21.9333 18.1338Z" fill="#D3DCFB"/>
<path d="M21.9339 25.067C22.523 25.067 23.0006 24.5894 23.0006 24.0003C23.0006 23.4112 22.523 22.9336 21.9339 22.9336C21.3448 22.9336 20.8672 23.4112 20.8672 24.0003C20.8672 24.5894 21.3448 25.067 21.9339 25.067Z" fill="#FFDD40"/>
</svg>
