<svg width="32" height="32" viewBox="0 0 32 32" fill="none" xmlns="http://www.w3.org/2000/svg">
<path d="M29.1504 9.5H2.90039C2.3822 9.5 1.96289 9.08069 1.96289 8.5625V2.8125C1.96289 1.26163 3.22452 0 4.77539 0H27.2754C28.8263 0 30.0879 1.26163 30.0879 2.8125V8.5625C30.0879 9.08069 29.6686 9.5 29.1504 9.5Z" fill="#E3E7EA"/>
<path d="M27.2754 0H16.0254V9.5H29.1504C29.6686 9.5 30.0879 9.08069 30.0879 8.5625V2.8125C30.0879 1.26163 28.8263 0 27.2754 0Z" fill="#BABAC0"/>
<path d="M1.9267 19.8124C1.92702 19.811 1.92714 19.8103 1.92714 19.8103L0.0620166 10.925C-0.0692334 10.0813 0.155767 9.23744 0.680829 8.61869C1.22452 7.98125 2.01195 7.625 2.83695 7.625H29.162C29.987 7.625 30.7745 7.98125 31.3182 8.61869C31.8433 9.2375 32.0683 10.0812 31.937 10.8875L30.0719 19.8148L31.937 28.7C32.0683 29.5438 31.8433 30.3876 31.3182 31.0062C30.7745 31.6437 29.9871 32 29.1621 32H2.83695C2.01195 32 1.22445 31.6437 0.680767 31.0062C0.155767 30.3875 -0.0692334 29.5437 0.0620166 28.7375C0.0620166 28.7375 1.89433 19.9672 1.9267 19.8124Z" fill="#4086F4"/>
<path d="M1.92714 19.8103C1.92714 19.8103 1.92702 19.811 1.9267 19.8124H30.0724L31.937 10.8875C32.0683 10.0812 31.8433 9.2375 31.3182 8.61869C30.7745 7.98125 29.9871 7.625 29.1621 7.625H2.83695C2.01195 7.625 1.22445 7.98125 0.680767 8.61869C0.155767 9.2375 -0.0692334 10.0813 0.0620166 10.925L1.92714 19.8103Z" fill="#4175DF"/>
<path d="M6.625 5.625C7.14277 5.625 7.5625 5.20527 7.5625 4.6875C7.5625 4.16973 7.14277 3.75 6.625 3.75C6.10723 3.75 5.6875 4.16973 5.6875 4.6875C5.6875 5.20527 6.10723 5.625 6.625 5.625Z" fill="#FFF5F5"/>
<path d="M25.375 5.625C25.8928 5.625 26.3125 5.20527 26.3125 4.6875C26.3125 4.16973 25.8928 3.75 25.375 3.75C24.8572 3.75 24.4375 4.16973 24.4375 4.6875C24.4375 5.20527 24.8572 5.625 25.375 5.625Z" fill="#E3E7EA"/>
<path d="M12.2501 26.375C10.6644 26.375 9.24259 25.3707 8.71434 23.8747C8.54127 23.3867 8.79671 22.8511 9.28565 22.679C9.77178 22.5051 10.3092 22.7623 10.4813 23.2503C10.7459 23.9974 11.4572 24.5 12.2501 24.5C13.2837 24.5 14.1251 23.6586 14.1251 22.625C14.1251 21.5914 13.2837 20.75 12.2501 20.75H11.0846C10.5674 20.75 10.1471 20.3307 10.1471 19.8125C10.1471 19.2943 10.5674 18.875 11.0846 18.875H12.2501C13.2837 18.875 14.1251 18.0336 14.1251 17C14.1251 15.9664 13.2837 15.125 12.2501 15.125C11.4572 15.125 10.7459 15.6276 10.4813 16.3747C10.3092 16.8636 9.77084 17.1199 9.28559 16.946C8.79671 16.7739 8.54128 16.2383 8.71428 15.7503C9.24259 14.2543 10.6644 13.25 12.2501 13.25C14.3183 13.25 16.0001 14.9318 16.0001 17C16.0001 18.1188 15.5075 19.1249 14.7275 19.8125C15.5075 20.5001 16.0001 21.5063 16.0001 22.625C16.0001 24.6932 14.3183 26.375 12.2501 26.375Z" fill="#FFF5F5"/>
<path d="M9.28556 16.946C9.77081 17.1199 10.3091 16.8636 10.4812 16.3747C10.7459 15.6276 11.4572 15.125 12.2501 15.125C13.2837 15.125 14.1251 15.9664 14.1251 17C14.1251 18.0336 13.2837 18.875 12.2501 18.875H11.0846C10.5674 18.875 10.1472 19.2942 10.1471 19.8124H14.7276C15.5076 19.1248 16.0001 18.1187 16.0001 17C16.0001 14.9318 14.3183 13.25 12.2501 13.25C10.6644 13.25 9.24256 14.2543 8.71431 15.7503C8.54124 16.2383 8.79668 16.7739 9.28556 16.946Z" fill="#E3E7EA"/>
<path d="M21.6254 26.3749C21.1072 26.3749 20.6879 25.9556 20.6879 25.4374V15.9388L19.3329 16.8424C18.9007 17.128 18.3194 17.0127 18.0328 16.5824C17.7453 16.1512 17.8616 15.5698 18.2928 15.2823L21.1053 13.4073C21.3928 13.216 21.7635 13.1977 22.0675 13.3606C22.3724 13.5236 22.5629 13.8413 22.5629 14.1874V25.4374C22.5629 25.9556 22.1435 26.3749 21.6254 26.3749Z" fill="#FFF5F5"/>
<path d="M19.3329 16.8424L20.6879 15.9387V19.8122H22.5629V14.1874C22.5629 13.8413 22.3724 13.5236 22.0675 13.3606C21.7636 13.1977 21.3928 13.216 21.1053 13.4073L18.2928 15.2823C17.8616 15.5698 17.7453 16.1511 18.0328 16.5824C18.3194 17.0127 18.9007 17.1281 19.3329 16.8424Z" fill="#E3E7EA"/>
</svg>
