<svg width="64" height="64" viewBox="0 0 64 64" fill="none" xmlns="http://www.w3.org/2000/svg">
<circle cx="32" cy="32" r="32" fill="#F1F7FF"/>
<g clip-path="url(#clip0_5323_36326)">
<path d="M38.6694 37.4072L23.0695 46.9732H17.0541C16.7093 46.9732 16.4435 47.2869 16.511 47.6249C16.8137 49.1416 18.1525 50.2845 19.7582 50.2845H41.9807L38.6694 37.4072Z" fill="#7D8FE5"/>
<path d="M38.6694 37.4072V46.9732C38.6694 48.802 40.1519 50.2845 41.9807 50.2845H44.1883V37.4072H38.6694Z" fill="#666DDC"/>
<path d="M38.6694 26.5911L23.0695 17.0252H17.0541C16.7093 17.0252 16.4435 16.7115 16.511 16.3734C16.8137 14.8568 18.1525 13.7139 19.7582 13.7139H41.9807L38.6694 26.5911Z" fill="#7D8FE5"/>
<path d="M38.6694 26.5911V17.0252C38.6694 15.1964 40.1519 13.7139 41.9807 13.7139H44.1883V26.5911H38.6694Z" fill="#666DDC"/>
<path d="M44.1882 13.7139C43.8011 13.7139 43.4298 13.781 43.0845 13.9031V50.0961C43.4298 50.2182 43.8011 50.2853 44.1882 50.2853C46.017 50.2853 47.4995 48.8028 47.4995 46.974V17.0252C47.4995 15.1964 46.017 13.7139 44.1882 13.7139V13.7139Z" fill="#95B0ED"/>
<path d="M43.0845 13.9033C41.7986 14.358 40.877 15.5838 40.877 17.0254H23.0696V46.9743H40.877C40.877 48.4159 41.7986 49.6417 43.0845 50.0964C44.3705 49.6417 45.2921 48.4159 45.2921 46.9743V17.0254C45.2921 15.5838 44.3705 14.358 43.0845 13.9033Z" fill="#ACD2F6"/>
<path d="M35.2844 20.9619V36.4146C39.5516 36.4146 43.0108 32.9554 43.0108 28.6883C43.0108 24.4211 39.5516 20.9619 35.2844 20.9619Z" fill="#C4F3FF"/>
<path d="M40.8033 28.6883C40.8033 24.4211 38.3324 20.9619 35.2845 20.9619C31.0173 20.9619 27.5581 24.4211 27.5581 28.6883C27.5581 32.9554 31.0173 36.4146 35.2845 36.4146C38.3324 36.4146 40.8033 32.9554 40.8033 28.6883Z" fill="white"/>
<path d="M35.2845 34.76C35.5893 34.76 35.8364 34.5129 35.8364 34.2081C35.8364 33.9033 35.5893 33.6562 35.2845 33.6562C34.9797 33.6562 34.7327 33.9033 34.7327 34.2081C34.7327 34.5129 34.9797 34.76 35.2845 34.76Z" fill="#4E4CD3"/>
<path d="M38.0441 34.0207C38.3489 34.0207 38.5959 33.7737 38.5959 33.4689C38.5959 33.1641 38.3489 32.917 38.0441 32.917C37.7393 32.917 37.4922 33.1641 37.4922 33.4689C37.4922 33.7737 37.7393 34.0207 38.0441 34.0207Z" fill="#4E4CD3"/>
<path d="M32.525 24.4612C32.8298 24.4612 33.0769 24.2141 33.0769 23.9093C33.0769 23.6045 32.8298 23.3574 32.525 23.3574C32.2202 23.3574 31.9731 23.6045 31.9731 23.9093C31.9731 24.2141 32.2202 24.4612 32.525 24.4612Z" fill="#4E4CD3"/>
<path d="M40.0641 32.0003C40.3689 32.0003 40.616 31.7532 40.616 31.4484C40.616 31.1436 40.3689 30.8965 40.0641 30.8965C39.7593 30.8965 39.5122 31.1436 39.5122 31.4484C39.5122 31.7532 39.7593 32.0003 40.0641 32.0003Z" fill="#4E4CD3"/>
<path d="M30.505 26.4817C30.8098 26.4817 31.0569 26.2346 31.0569 25.9298C31.0569 25.625 30.8098 25.3779 30.505 25.3779C30.2002 25.3779 29.9531 25.625 29.9531 25.9298C29.9531 26.2346 30.2002 26.4817 30.505 26.4817Z" fill="#4E4CD3"/>
<path d="M29.7658 29.2405C30.0705 29.2405 30.3176 28.9934 30.3176 28.6886C30.3176 28.3838 30.0705 28.1367 29.7658 28.1367C29.461 28.1367 29.2139 28.3838 29.2139 28.6886C29.2139 28.9934 29.461 29.2405 29.7658 29.2405Z" fill="#4E4CD3"/>
<path d="M40.0641 26.4817C40.3689 26.4817 40.616 26.2346 40.616 25.9298C40.616 25.625 40.3689 25.3779 40.0641 25.3779C39.7593 25.3779 39.5122 25.625 39.5122 25.9298C39.5122 26.2346 39.7593 26.4817 40.0641 26.4817Z" fill="#4E4CD3"/>
<path d="M30.505 32.0003C30.8098 32.0003 31.0569 31.7532 31.0569 31.4484C31.0569 31.1436 30.8098 30.8965 30.505 30.8965C30.2002 30.8965 29.9531 31.1436 29.9531 31.4484C29.9531 31.7532 30.2002 32.0003 30.505 32.0003Z" fill="#4E4CD3"/>
<path d="M38.0441 24.4612C38.3489 24.4612 38.5959 24.2141 38.5959 23.9093C38.5959 23.6045 38.3489 23.3574 38.0441 23.3574C37.7393 23.3574 37.4922 23.6045 37.4922 23.9093C37.4922 24.2141 37.7393 24.4612 38.0441 24.4612Z" fill="#4E4CD3"/>
<path d="M32.525 34.0207C32.8298 34.0207 33.0769 33.7737 33.0769 33.4689C33.0769 33.1641 32.8298 32.917 32.525 32.917C32.2202 32.917 31.9731 33.1641 31.9731 33.4689C31.9731 33.7737 32.2202 34.0207 32.525 34.0207Z" fill="#4E4CD3"/>
<path d="M27.5582 39.1741C27.863 39.1741 28.1101 38.927 28.1101 38.6222C28.1101 38.3174 27.863 38.0703 27.5582 38.0703C27.2534 38.0703 27.0063 38.3174 27.0063 38.6222C27.0063 38.927 27.2534 39.1741 27.5582 39.1741Z" fill="#4A36B5"/>
<path d="M27.5582 41.3811C27.863 41.3811 28.1101 41.134 28.1101 40.8292C28.1101 40.5244 27.863 40.2773 27.5582 40.2773C27.2534 40.2773 27.0063 40.5244 27.0063 40.8292C27.0063 41.134 27.2534 41.3811 27.5582 41.3811Z" fill="#4A36B5"/>
<path d="M27.5582 43.5891C27.863 43.5891 28.1101 43.342 28.1101 43.0372C28.1101 42.7324 27.863 42.4854 27.5582 42.4854C27.2534 42.4854 27.0063 42.7324 27.0063 43.0372C27.0063 43.342 27.2534 43.5891 27.5582 43.5891Z" fill="#4A36B5"/>
<path d="M40.8034 29.2398H35.2845C34.9797 29.2398 34.7327 28.9927 34.7327 28.6879V23.1691C34.7327 22.8643 34.9797 22.6172 35.2845 22.6172C35.5894 22.6172 35.8364 22.8643 35.8364 23.1691V28.136H40.8034C41.1082 28.136 41.3552 28.3831 41.3552 28.6879C41.3552 28.9927 41.1081 29.2398 40.8034 29.2398Z" fill="#4A36B5"/>
<path d="M43.0109 39.1741H29.7657C29.4609 39.1741 29.2139 38.927 29.2139 38.6222C29.2139 38.3174 29.4609 38.0703 29.7657 38.0703H43.0109C43.3158 38.0703 43.5628 38.3174 43.5628 38.6222C43.5628 38.927 43.3157 39.1741 43.0109 39.1741Z" fill="#4E4CD3"/>
<path d="M43.0109 41.3811H29.7657C29.4609 41.3811 29.2139 41.134 29.2139 40.8292C29.2139 40.5244 29.4609 40.2773 29.7657 40.2773H43.0109C43.3158 40.2773 43.5628 40.5244 43.5628 40.8292C43.5628 41.134 43.3157 41.3811 43.0109 41.3811Z" fill="#4E4CD3"/>
<path d="M43.0109 43.5891H29.7657C29.4609 43.5891 29.2139 43.342 29.2139 43.0372C29.2139 42.7324 29.4609 42.4854 29.7657 42.4854H43.0109C43.3158 42.4854 43.5628 42.7324 43.5628 43.0372C43.5628 43.342 43.3157 43.5891 43.0109 43.5891Z" fill="#4E4CD3"/>
</g>
<defs>
<clipPath id="clip0_5323_36326">
<rect width="36.5714" height="36.5714" fill="white" transform="translate(13.7144 13.7139)"/>
</clipPath>
</defs>
</svg>
