<svg width="22" height="22" viewBox="0 0 22 22" fill="none" xmlns="http://www.w3.org/2000/svg">
<path d="M15.6366 13.7851H14.661L14.3152 13.4517C15.5673 11.9993 16.2555 10.1452 16.2541 8.22764C16.2541 6.63996 15.7833 5.08794 14.9012 3.76783C14.0192 2.44773 12.7655 1.41883 11.2986 0.811252C9.83181 0.203673 8.21776 0.0447033 6.66059 0.354444C5.10342 0.664185 3.67306 1.42872 2.55041 2.55138C1.42775 3.67404 0.663208 5.10439 0.353467 6.66156C0.0437268 8.21874 0.202697 9.83279 0.810275 11.2996C1.41785 12.7664 2.44675 14.0201 3.76686 14.9022C5.08696 15.7843 6.63899 16.2551 8.22666 16.2551C10.215 16.2551 12.0428 15.5264 13.4507 14.3161L13.7841 14.6619V15.6376L19.9591 21.8002L21.7992 19.9601L15.6366 13.7851V13.7851ZM8.22666 13.7851C5.15154 13.7851 2.6692 11.3028 2.6692 8.22764C2.6692 5.15251 5.15154 2.67018 8.22666 2.67018C11.3018 2.67018 13.7841 5.15251 13.7841 8.22764C13.7841 11.3028 11.3018 13.7851 8.22666 13.7851Z" fill="#7966FF"/>
</svg>
