<svg width="24" height="6" viewBox="0 0 24 6" fill="none" xmlns="http://www.w3.org/2000/svg">
<path fill-rule="evenodd" clip-rule="evenodd" d="M0 3.00016C0 1.5335 1.2 0.333496 2.66667 0.333496C4.13333 0.333496 5.33333 1.5335 5.33333 3.00016C5.33333 4.46683 4.13333 5.66683 2.66667 5.66683C1.2 5.66683 0 4.46683 0 3.00016ZM14.6667 3.00016C14.6667 4.46683 13.4667 5.66683 12 5.66683C10.5333 5.66683 9.33333 4.46683 9.33333 3.00016C9.33333 1.5335 10.5333 0.333496 12 0.333496C13.4667 0.333496 14.6667 1.5335 14.6667 3.00016ZM21.3333 0.333496C19.8667 0.333496 18.6667 1.5335 18.6667 3.00016C18.6667 4.46683 19.8667 5.66683 21.3333 5.66683C22.8 5.66683 24 4.46683 24 3.00016C24 1.5335 22.8 0.333496 21.3333 0.333496Z" fill="#A2AEBD"/>
</svg>
