<svg width="36" height="36" viewBox="0 0 36 36" fill="none" xmlns="http://www.w3.org/2000/svg">
<path d="M1.6875 32.0625C1.6875 33.3051 2.69494 34.3125 3.9375 34.3125H24.1875C25.4301 34.3125 26.4375 33.3051 26.4375 32.0625V18.5625H1.6875V32.0625Z" fill="#D7E3F9"/>
<path d="M24.1875 12.9375H3.9375C2.69494 12.9375 1.6875 13.9449 1.6875 15.1875V18.5625H26.4375V15.1875C26.4375 13.9449 25.4301 12.9375 24.1875 12.9375Z" fill="#ED69AB"/>
<path d="M3.9375 21.9375H7.3125V25.3125H3.9375V21.9375Z" fill="#618BF2"/>
<path d="M9.5625 21.9375H12.9375V25.3125H9.5625V21.9375Z" fill="#618BF2"/>
<path d="M15.1875 21.9375H18.5625V25.3125H15.1875V21.9375Z" fill="#618BF2"/>
<path d="M20.8125 21.9375H24.1875V25.3125H20.8125V21.9375Z" fill="#618BF2"/>
<path d="M3.9375 27.5625H7.3125V30.9375H3.9375V27.5625Z" fill="#618BF2"/>
<path d="M9.5625 27.5625H12.9375V30.9375H9.5625V27.5625Z" fill="#618BF2"/>
<path d="M15.1875 27.5625H18.5625V30.9375H15.1875V27.5625Z" fill="#618BF2"/>
<path d="M20.8125 27.5625H24.1875V30.9375H20.8125V27.5625Z" fill="#618BF2"/>
<path d="M6.1875 15.75C5.56594 15.75 5.0625 15.2466 5.0625 14.625V11.25C5.0625 10.6284 5.56594 10.125 6.1875 10.125C6.80906 10.125 7.3125 10.6284 7.3125 11.25V14.625C7.3125 15.2466 6.80906 15.75 6.1875 15.75Z" fill="#3162A8"/>
<path d="M11.25 15.75C10.6284 15.75 10.125 15.2466 10.125 14.625V11.25C10.125 10.6284 10.6284 10.125 11.25 10.125C11.8716 10.125 12.375 10.6284 12.375 11.25V14.625C12.375 15.2466 11.8716 15.75 11.25 15.75Z" fill="#3162A8"/>
<path d="M16.3125 15.75C15.6909 15.75 15.1875 15.2466 15.1875 14.625V11.25C15.1875 10.6284 15.6909 10.125 16.3125 10.125C16.9341 10.125 17.4375 10.6284 17.4375 11.25V14.625C17.4375 15.2466 16.9341 15.75 16.3125 15.75Z" fill="#3162A8"/>
<path d="M20.8125 11.25L17.4375 23.0625L27.5625 15.1875L20.8125 11.25Z" fill="#3162A8"/>
<path d="M34.3125 9C34.3125 11.1094 33.4181 13.0106 31.9894 14.3381C30.6844 15.5644 28.9294 16.3125 27 16.3125C25.0706 16.3125 23.3156 15.5644 22.0106 14.3381C20.5819 13.0106 19.6875 11.1094 19.6875 9C19.6875 4.96125 22.9613 1.6875 27 1.6875C31.0387 1.6875 34.3125 4.96125 34.3125 9Z" fill="#4577D8"/>
<path d="M27 10.125C28.5533 10.125 29.8125 8.8658 29.8125 7.3125C29.8125 5.7592 28.5533 4.5 27 4.5C25.4467 4.5 24.1875 5.7592 24.1875 7.3125C24.1875 8.8658 25.4467 10.125 27 10.125Z" fill="#FFBB4D"/>
<path d="M31.9885 14.3381C30.6835 15.5644 28.9285 16.3125 26.9991 16.3125C25.0698 16.3125 23.3148 15.5644 22.0098 14.3381C22.4148 11.9475 24.496 10.125 26.9991 10.125C28.3941 10.125 29.6654 10.6931 30.5766 11.61C31.3023 12.33 31.8085 13.2806 31.9885 14.3381Z" fill="#FFBB4D"/>
</svg>
