<svg width="32" height="32" viewBox="0 0 32 32" fill="none" xmlns="http://www.w3.org/2000/svg">
<path d="M2.49807 21.5C2.22155 21.5011 1.99841 21.7264 2.00001 22.0029V28.501C2.00001 29.8774 3.12174 31 4.49814 31H27.5009C28.8773 31 30 29.8774 30 28.501V22.0029C30.0016 21.7264 29.7785 21.5011 29.5019 21.5H2.49807Z" fill="#5299D3"/>
<path d="M2.49806 21.5C2.22153 21.5011 1.9984 21.7264 2.00001 22.0029V27.5C2.00001 28.8763 3.12166 29.999 4.49806 29.999H24C24.1331 29.999 24.2607 29.9459 24.3545 29.8516L30 24.2061V22.0029C30.0016 21.7264 29.7785 21.5011 29.502 21.5H2.49806Z" fill="#3587CB"/>
<path d="M4.49813 3.5C3.12173 3.5 2 4.62166 2 5.99797V26.5002C2 27.8765 3.12173 28.9991 4.49813 28.9991H23.4998C23.6328 28.9991 23.7604 28.946 23.8543 28.8517L29.8525 22.8538C29.9469 22.76 30 22.6324 30 22.4993V5.99797C30 4.62166 28.8773 3.5 27.5009 3.5C20.427 3.5 11.447 3.5 4.49813 3.5Z" fill="#EEEEEE"/>
<path d="M4.49805 3.5C3.12165 3.5 2 4.62174 2 5.99805V26.5C2 27.8763 3.12165 28.999 4.49805 28.999H5.49805C4.12165 28.999 3 27.8763 3 26.5V5.99805C3 4.62174 4.12165 3.5 5.49805 3.5H4.49805Z" fill="#D0D0D0"/>
<path d="M4.49813 3.5C3.12174 3.5 2 4.62166 2 5.99797V8.00197C2.0011 8.27657 2.22345 8.49891 2.49806 8.50001H29.5019C29.7765 8.49891 29.9989 8.27657 30 8.00197V5.99797C30 4.62166 28.8773 3.5 27.5009 3.5H4.49813Z" fill="#FFCA28"/>
<path d="M8.50005 1C7.67767 1 7.00195 1.67567 7.00195 2.498V4.49892C7.00195 5.32124 7.67767 6.00082 8.50005 6.00082C9.32243 6.00082 9.99912 5.32124 9.99912 4.49892V2.498C9.99912 1.67567 9.32243 1 8.50005 1Z" fill="#5299D3"/>
<path d="M6.00101 9.99902C5.45564 9.99902 5 10.4537 5 10.999V12.9989C5 13.5443 5.45564 13.9999 6.00101 13.9999H7.99717C8.54254 13.9999 8.9972 13.5443 8.9972 12.9989V10.999C8.9972 10.4537 8.54254 9.99902 7.99717 9.99902H6.00101Z" fill="#FFCA28"/>
<path d="M11.9981 9.99902C11.4527 9.99902 10.998 10.4537 10.998 10.999V12.9989C10.998 13.5443 11.4527 13.9999 11.9981 13.9999H13.9991C14.5445 13.9999 14.9992 13.5443 14.9992 12.9989V10.999C14.9992 10.4537 14.5445 9.99902 13.9991 9.99902H11.9981Z" fill="#FFCA28"/>
<path d="M18 9.99902C17.4547 9.99902 17 10.4537 17 10.999V12.9989C17 13.5443 17.4547 13.9999 18 13.9999H20.0001C20.5455 13.9999 21.0011 13.5443 21.0011 12.9989V10.999C21.0011 10.4537 20.5455 9.99902 20.0001 9.99902H18Z" fill="#FFCA28"/>
<path d="M23.9981 9.99902C23.4527 9.99902 22.998 10.4537 22.998 10.999V12.9989C22.998 13.5443 23.4527 13.9999 23.9981 13.9999H25.9991C26.5445 13.9999 26.9992 13.5443 26.9992 12.9989V10.999C26.9992 10.4537 26.5445 9.99902 25.9991 9.99902H23.9981Z" fill="#FFCA28"/>
<path d="M6.00101 15.999C5.45564 15.999 5 16.4546 5 17V18.9999C5 19.5452 5.45564 19.9999 6.00101 19.9999H7.99717C8.54254 19.9999 8.9972 19.5452 8.9972 18.9999V17C8.9972 16.4546 8.54254 15.999 7.99717 15.999H6.00101Z" fill="#FFCA28"/>
<path d="M11.9981 15.999C11.4527 15.999 10.998 16.4546 10.998 17V18.9999C10.998 19.5452 11.4527 19.9999 11.9981 19.9999H13.9991C14.5445 19.9999 14.9992 19.5452 14.9992 18.9999V17C14.9992 16.4546 14.5445 15.999 13.9991 15.999H11.9981Z" fill="#FFCA28"/>
<path d="M23.9981 15.999C23.4527 15.999 22.998 16.4546 22.998 17V18.9999C22.998 19.5452 23.4527 19.9999 23.9981 19.9999H25.9991C26.5445 19.9999 26.9992 19.5452 26.9992 18.9999V17C26.9992 16.4546 26.5445 15.999 25.9991 15.999H23.9981Z" fill="#FFCA28"/>
<path d="M6.00101 22.001C5.45564 22.001 5 22.4517 5 22.997V24.9979C5 25.5433 5.45564 25.9979 6.00101 25.9979H7.99717C8.54254 25.9979 8.9972 25.5433 8.9972 24.9979V22.997C8.9972 22.4517 8.54254 22.001 7.99717 22.001H6.00101Z" fill="#FFCA28"/>
<path d="M11.9981 22.001C11.4527 22.001 10.998 22.4517 10.998 22.997V24.9979C10.998 25.5433 11.4527 25.9979 11.9981 25.9979H13.9991C14.5445 25.9979 14.9992 25.5433 14.9992 24.9979V22.997C14.9992 22.4517 14.5445 22.001 13.9991 22.001H11.9981Z" fill="#FFCA28"/>
<path d="M18 22.001C17.4547 22.001 17 22.4517 17 22.997V24.9979C17 25.5433 17.4547 25.9979 18 25.9979H20.0001C20.5455 25.9979 21.0011 25.5433 21.0011 24.9979V22.997C21.0011 22.4517 20.5455 22.001 20.0001 22.001H18Z" fill="#FFCA28"/>
<path d="M18 15.999C17.4547 15.999 17 16.4546 17 17V18.9999C17 19.5452 17.4547 19.9999 18 19.9999H20.0001C20.5455 19.9999 21.0011 19.5452 21.0011 18.9999V17C21.0011 16.4546 20.5455 15.999 20.0001 15.999H18Z" fill="#5299D3"/>
<path d="M25.5011 22.001C24.1247 22.001 22.998 23.1236 22.998 24.4999V28.9988H23.5C23.6331 28.9988 23.7607 28.9457 23.8545 28.8514L29.8528 22.8535C29.9471 22.7597 30.0002 22.6321 30.0002 22.499V22.001L25.5011 22.001Z" fill="#A0C7E7"/>
<path d="M12.5021 5.5C12.3694 5.5 12.2422 5.55269 12.1484 5.64648C12.0546 5.74027 12.002 5.86748 12.002 6.00012C12.002 6.13276 12.0546 6.25997 12.1484 6.35376C12.2422 6.44755 12.3694 6.50025 12.5021 6.50025H19.5001C19.6327 6.50025 19.76 6.44755 19.8537 6.35376C19.9475 6.25997 20.0002 6.13276 20.0002 6.00012C20.0002 5.86748 19.9475 5.74027 19.8537 5.64648C19.76 5.55269 19.6327 5.5 19.5001 5.5H12.5021Z" fill="#5299D3"/>
<path d="M25.501 22.001C24.1246 22.001 22.998 23.1237 22.998 24.5V28.999H23.5C23.6331 28.999 23.7607 28.9459 23.8545 28.8516L23.998 28.708C23.998 27.4379 23.998 25.8032 23.998 24.5C23.998 23.1237 25.1246 22.001 26.501 22.001L25.501 22.001Z" fill="#74ADDC"/>
<path d="M8.5 1C7.67762 1 7.00195 1.67572 7.00195 2.49805V4.49902C7.00195 5.32135 7.67762 6.00098 8.5 6.00098C8.67586 6.00098 8.84265 5.96414 9 5.90723C8.42195 5.69795 8.00195 5.1454 8.00195 4.49902V2.49805C8.00195 1.85167 8.42195 1.30101 9 1.09277C8.84264 1.03615 8.67586 1 8.5 1V1Z" fill="#3587CB"/>
<path d="M23.4981 1C22.6757 1 22 1.67567 22 2.498V4.49892C22 5.32124 22.6757 6.00082 23.4981 6.00082C24.3205 6.00082 24.9972 5.32124 24.9972 4.49892V2.498C24.9972 1.67567 24.3205 1 23.4981 1Z" fill="#5299D3"/>
<path d="M23.498 1C22.6757 1 22 1.67572 22 2.49805V4.49902C22 5.32135 22.6757 6.00098 23.498 6.00098C23.6739 6.00098 23.8407 5.96414 23.998 5.90723C23.42 5.69796 23 5.1454 23 4.49902V2.49805C23 1.85167 23.42 1.30101 23.998 1.09277C23.8407 1.03615 23.6739 1 23.498 1V1Z" fill="#3587CB"/>
<path d="M6.00098 9.99902C5.45561 9.99902 5 10.4537 5 10.999V12.999C5 13.5444 5.45561 14 6.00098 14H7.00098C6.45561 14 6 13.5444 6 12.999V10.999C6 10.4537 6.45561 9.99902 7.00098 9.99902H6.00098Z" fill="#ECB200"/>
<path d="M4.49805 3.5C3.12165 3.5 2 4.62174 2 5.99805V8.00196C2.0011 8.27656 2.22343 8.49891 2.49805 8.50001H3C3 8.00001 3 6.98326 3 5.99805C3 4.62174 4.12165 3.5 5.49805 3.5H4.49805Z" fill="#ECB200"/>
<path d="M12.001 9.99902C11.4556 9.99902 11 10.4537 11 10.999V12.999C11 13.5444 11.4556 14 12.001 14H13.001C12.4556 14 12 13.5444 12 12.999V10.999C12 10.4537 12.4556 9.99902 13.001 9.99902H12.001Z" fill="#ECB200"/>
<path d="M18.001 9.99902C17.4556 9.99902 17 10.4537 17 10.999V12.999C17 13.5444 17.4556 14 18.001 14H19.001C18.4556 14 18 13.5444 18 12.999V10.999C18 10.4537 18.4556 9.99902 19.001 9.99902H18.001Z" fill="#ECB200"/>
<path d="M24.001 9.99902C23.4556 9.99902 23 10.4537 23 10.999V12.999C23 13.5444 23.4556 14 24.001 14H25.001C24.4556 14 24 13.5444 24 12.999V10.999C24 10.4537 24.4556 9.99902 25.001 9.99902H24.001Z" fill="#ECB200"/>
<path d="M24.001 16C23.4556 16 23 16.4547 23 17V19C23 19.5453 23.4556 20.001 24.001 20.001H25.001C24.4556 20.001 24 19.5453 24 19V17C24 16.4547 24.4556 16 25.001 16H24.001Z" fill="#ECB200"/>
<path d="M12.001 16C11.4556 16 11 16.4547 11 17V19C11 19.5453 11.4556 20.001 12.001 20.001H13.001C12.4556 20.001 12 19.5453 12 19V17C12 16.4547 12.4556 16 13.001 16H12.001Z" fill="#ECB200"/>
<path d="M6.00098 16C5.45561 16 5 16.4547 5 17V19C5 19.5453 5.45561 20.001 6.00098 20.001H7.00098C6.45561 20.001 6 19.5453 6 19V17C6 16.4547 6.45561 16 7.00098 16H6.00098Z" fill="#ECB200"/>
<path d="M6.00098 22C5.45561 22 5 22.4547 5 23V25C5 25.5453 5.45561 26.001 6.00098 26.001H7.00098C6.45561 26.001 6 25.5453 6 25V23C6 22.4547 6.45561 22 7.00098 22H6.00098Z" fill="#ECB200"/>
<path d="M12.001 22C11.4556 22 11 22.4547 11 23V25C11 25.5453 11.4556 26.001 12.001 26.001H13.001C12.4556 26.001 12 25.5453 12 25V23C12 22.4547 12.4556 22 13.001 22H12.001Z" fill="#ECB200"/>
<path d="M18.001 22C17.4556 22 17 22.4547 17 23V25C17 25.5453 17.4556 26.001 18.001 26.001H19.001C18.4556 26.001 18 25.5453 18 25V23C18 22.4547 18.4556 22 19.001 22H18.001Z" fill="#ECB200"/>
<path d="M18.001 16C17.4556 16 17 16.4547 17 17V19C17 19.5453 17.4556 20.001 18.001 20.001H19.001C18.4556 20.001 18 19.5453 18 19V17C18 16.4547 18.4556 16 19.001 16H18.001Z" fill="#3587CB"/>
</svg>
