<svg width="18" height="16" viewBox="0 0 18 16" fill="none" xmlns="http://www.w3.org/2000/svg">
<path fill-rule="evenodd" clip-rule="evenodd" d="M5.28783 0.731609C5.42632 0.831577 5.64965 1.06121 5.64965 1.06121C6.51667 1.87382 7.82256 3.89495 8.24193 4.92036C8.2507 4.92036 8.4994 5.53007 8.50915 5.82007V5.85868C8.50915 6.30309 8.26046 6.7188 7.8606 6.9316C7.69576 7.01933 7.29482 7.10093 7.10138 7.14029C7.03731 7.15333 6.99601 7.16173 6.99358 7.1642C6.42207 7.2513 5.5453 7.30871 4.58271 7.30871C3.57233 7.30871 2.65752 7.2513 2.09479 7.1444C2.08504 7.1444 1.57107 7.0385 1.39942 6.9702C1.1517 6.86429 0.942018 6.6703 0.808405 6.42879C0.712829 6.23578 0.666016 6.03189 0.666016 5.82007C0.674793 5.59737 0.818158 5.18167 0.884477 5.01736C1.30384 3.93355 2.67605 1.86392 3.51478 1.0711C3.60191 0.982681 3.70106 0.89005 3.77006 0.825594C3.80687 0.791204 3.83509 0.764834 3.84833 0.751404C4.05801 0.587101 4.31548 0.5 4.59246 0.5C4.8392 0.5 5.08692 0.577203 5.28783 0.731609ZM14.1899 6.46815C14.1899 6.90465 13.8417 7.25801 13.4116 7.25801C12.9815 7.25801 12.6333 6.90465 12.6333 6.46815L12.4188 2.65246C12.4188 2.09619 12.8635 1.64583 13.4116 1.64583C13.9597 1.64583 14.4035 2.09619 14.4035 2.65246L14.1899 6.46815ZM16.5993 9.02966C16.847 9.13656 17.0567 9.32957 17.1903 9.57108C17.2859 9.76409 17.3327 9.96799 17.3327 10.1808C17.3239 10.4025 17.1805 10.8192 17.1132 10.9835C16.6949 12.0664 15.3217 14.1361 14.4839 14.9299C14.3983 15.0162 14.301 15.1069 14.2322 15.1711L14.2321 15.1712L14.2321 15.1712C14.1936 15.2071 14.164 15.2347 14.1504 15.2486C13.9397 15.4129 13.6832 15.5 13.4072 15.5C13.1585 15.5 12.9108 15.4228 12.7109 15.2674C12.5724 15.1684 12.349 14.9388 12.349 14.9388C11.4811 14.1271 10.1761 12.105 9.75677 11.0795C9.74702 11.0795 9.4993 10.4708 9.48954 10.1808V10.1422C9.48954 9.69679 9.73726 9.28107 10.1381 9.06826C10.3026 8.98144 10.7023 8.89963 10.8962 8.85994L10.8962 8.85994C10.9609 8.84669 11.0027 8.83814 11.0051 8.83566C11.5766 8.74856 12.4534 8.69115 13.416 8.69115C14.4264 8.69115 15.3412 8.74856 15.9039 8.85546C15.9127 8.85546 16.4276 8.96136 16.5993 9.02966ZM4.58729 8.74211C4.1572 8.74211 3.80902 9.09546 3.80902 9.53195L3.59446 13.3476C3.59446 13.9038 4.03919 14.3542 4.58729 14.3542C5.13539 14.3542 5.57914 13.9038 5.57914 13.3476L5.36556 9.53195C5.36556 9.09546 5.01739 8.74211 4.58729 8.74211Z" fill="#7966FF"/>
</svg>
