<svg width="78" height="78" viewBox="0 0 78 78" fill="none" xmlns="http://www.w3.org/2000/svg">
<path d="M60.25 7.75V15.25H0.25V7.75C0.251978 7.08757 0.516006 6.45283 0.984419 5.98442C1.45283 5.51601 2.08757 5.25198 2.75 5.25H7.75V7.75C7.75 8.41304 8.01339 9.04893 8.48223 9.51777C8.95107 9.98661 9.58696 10.25 10.25 10.25C10.913 10.25 11.5489 9.98661 12.0178 9.51777C12.4866 9.04893 12.75 8.41304 12.75 7.75V5.25H27.75V7.75C27.75 8.41304 28.0134 9.04893 28.4822 9.51777C28.9511 9.98661 29.587 10.25 30.25 10.25C30.913 10.25 31.5489 9.98661 32.0178 9.51777C32.4866 9.04893 32.75 8.41304 32.75 7.75V5.25H47.75V7.75C47.75 8.41304 48.0134 9.04893 48.4822 9.51777C48.9511 9.98661 49.587 10.25 50.25 10.25C50.913 10.25 51.5489 9.98661 52.0178 9.51777C52.4866 9.04893 52.75 8.41304 52.75 7.75V5.25H57.75C58.4124 5.25198 59.0472 5.51601 59.5156 5.98442C59.984 6.45283 60.248 7.08757 60.25 7.75Z" fill="#FF7D81"/>
<path d="M60.25 15.25V57.75C60.248 58.4124 59.984 59.0472 59.5156 59.5156C59.0472 59.984 58.4124 60.248 57.75 60.25H10.25V52.75C10.248 52.0876 9.98399 51.4528 9.51558 50.9844C9.04717 50.516 8.41243 50.252 7.75 50.25H0.25V15.25H60.25Z" fill="#E3FBFF"/>
<path d="M0.25 15.25V50.25H7.75C8.41243 50.252 9.04717 50.516 9.51558 50.9844C9.98399 51.4528 10.248 52.0876 10.25 52.75V60.25H57.75C57.924 60.2498 58.0975 60.2309 58.2675 60.1938C10.0088 59.0075 0.25 15.25 0.25 15.25Z" fill="#B5EFFF"/>
<path d="M12.75 5.25003V7.75003C12.75 8.41308 12.4866 9.04896 12.0178 9.5178C11.5489 9.98664 10.913 10.25 10.25 10.25C9.58696 10.25 8.95107 9.98664 8.48223 9.5178C8.01339 9.04896 7.75 8.41308 7.75 7.75003V2.75003C7.75198 2.0876 8.01601 1.45287 8.48442 0.984453C8.95283 0.51604 9.58757 0.252013 10.25 0.250035C10.5783 0.248288 10.9035 0.312692 11.2063 0.439402C11.5091 0.566113 11.7833 0.752532 12.0125 0.987535C12.2475 1.21672 12.4339 1.49091 12.5606 1.79372C12.6873 2.09654 12.7517 2.42178 12.75 2.75003V5.25003Z" fill="#E4E4E4"/>
<path d="M12.0125 0.987063C11.6274 0.592655 11.1205 0.339714 10.5738 0.269165C10.0271 0.198617 9.4726 0.314587 9 0.598313C9.37913 0.815298 9.69432 1.12844 9.91379 1.50613C10.1333 1.88383 10.2492 2.31273 10.25 2.74956V7.74956C10.2476 8.18606 10.1309 8.61432 9.91162 8.99173C9.69232 9.36915 9.37803 9.68257 9 9.90081C9.37811 10.1265 9.80969 10.2469 10.25 10.2496C10.9124 10.2476 11.5472 9.98355 12.0156 9.51514C12.484 9.04673 12.748 8.41199 12.75 7.74956V2.74956C12.7517 2.42131 12.6873 2.09607 12.5606 1.79325C12.4339 1.49044 12.2475 1.21625 12.0125 0.987063Z" fill="#C1C1C1"/>
<path d="M32.75 5.25003V7.75003C32.75 8.41308 32.4866 9.04896 32.0178 9.5178C31.5489 9.98664 30.913 10.25 30.25 10.25C29.587 10.25 28.9511 9.98664 28.4822 9.5178C28.0134 9.04896 27.75 8.41308 27.75 7.75003V2.75003C27.752 2.0876 28.016 1.45287 28.4844 0.984453C28.9528 0.51604 29.5876 0.252013 30.25 0.250035C30.5783 0.248288 30.9035 0.312692 31.2063 0.439402C31.5091 0.566113 31.7833 0.752532 32.0125 0.987535C32.2475 1.21672 32.4339 1.49091 32.5606 1.79372C32.6873 2.09654 32.7518 2.42178 32.75 2.75003V5.25003Z" fill="#E4E4E4"/>
<path d="M52.75 5.25003V7.75003C52.75 8.41308 52.4866 9.04896 52.0178 9.5178C51.5489 9.98664 50.913 10.25 50.25 10.25C49.587 10.25 48.9511 9.98664 48.4822 9.5178C48.0134 9.04896 47.75 8.41308 47.75 7.75003V2.75003C47.752 2.0876 48.016 1.45287 48.4844 0.984453C48.9528 0.51604 49.5876 0.252013 50.25 0.250035C50.5783 0.248288 50.9035 0.312692 51.2063 0.439402C51.5091 0.566113 51.7833 0.752532 52.0125 0.987535C52.2475 1.21672 52.4339 1.49091 52.5606 1.79372C52.6874 2.09654 52.7518 2.42178 52.75 2.75003V5.25003Z" fill="#E4E4E4"/>
<path d="M60.25 7.75V15.25H0.25V7.75C0.251978 7.08757 0.516006 6.45283 0.984419 5.98442C1.45283 5.51601 2.08757 5.25198 2.75 5.25H7.75V7.75C7.75 8.41304 8.01339 9.04893 8.48223 9.51777C8.95107 9.98661 9.58696 10.25 10.25 10.25C10.913 10.25 11.5489 9.98661 12.0178 9.51777C12.4866 9.04893 12.75 8.41304 12.75 7.75V5.25H27.75V7.75C27.75 8.41304 28.0134 9.04893 28.4822 9.51777C28.9511 9.98661 29.587 10.25 30.25 10.25C30.913 10.25 31.5489 9.98661 32.0178 9.51777C32.4866 9.04893 32.75 8.41304 32.75 7.75V5.25H47.75V7.75C47.75 8.41304 48.0134 9.04893 48.4822 9.51777C48.9511 9.98661 49.587 10.25 50.25 10.25C50.913 10.25 51.5489 9.98661 52.0178 9.51777C52.4866 9.04893 52.75 8.41304 52.75 7.75V5.25H57.75C58.4124 5.25198 59.0472 5.51601 59.5156 5.98442C59.984 6.45283 60.248 7.08757 60.25 7.75Z" fill="#FF7D81"/>
<path d="M60.25 62.75C60.248 63.4124 59.984 64.0472 59.5156 64.5156C59.0472 64.984 58.4124 65.248 57.75 65.25H2.75C2.08757 65.248 1.45283 64.984 0.984419 64.5156C0.516006 64.0472 0.251978 63.4124 0.25 62.75V50.25L10.25 60.25H57.75C58.4124 60.248 59.0472 59.984 59.5156 59.5156C59.984 59.0472 60.248 58.4124 60.25 57.75V62.75Z" fill="#80DBFF"/>
<path d="M57.75 60.25H10.25L0.25 50.25V52.75L10.25 62.75H57.75C58.4124 62.748 59.0472 62.484 59.5156 62.0156C59.984 61.5472 60.248 60.9124 60.25 60.25V57.75C60.248 58.4124 59.984 59.0472 59.5156 59.5156C59.0472 59.984 58.4124 60.248 57.75 60.25Z" fill="#4AB8F7"/>
<path d="M0.25 15.25H2.75V50.25H0.25V15.25Z" fill="#B5EFFF"/>
<path d="M57.75 15.25V57.75C57.748 58.4124 57.484 59.0472 57.0156 59.5156C56.5472 59.984 55.9124 60.248 55.25 60.25H57.75C58.4124 60.248 59.0472 59.984 59.5156 59.5156C59.984 59.0472 60.248 58.4124 60.25 57.75V15.25H57.75Z" fill="#B5EFFF"/>
<path d="M32.0125 0.987063C31.6274 0.592655 31.1205 0.339714 30.5738 0.269165C30.0271 0.198617 29.4726 0.314587 29 0.598313C29.3791 0.815298 29.6943 1.12844 29.9138 1.50613C30.1333 1.88383 30.2492 2.31273 30.25 2.74956V7.74956C30.2476 8.18606 30.1309 8.61432 29.9116 8.99173C29.6923 9.36915 29.378 9.68257 29 9.90081C29.3781 10.1265 29.8097 10.2469 30.25 10.2496C30.9124 10.2476 31.5472 9.98355 32.0156 9.51514C32.484 9.04673 32.748 8.41199 32.75 7.74956V2.74956C32.7518 2.42131 32.6873 2.09607 32.5606 1.79325C32.4339 1.49044 32.2475 1.21625 32.0125 0.987063Z" fill="#C1C1C1"/>
<path d="M52.0125 0.987063C51.6274 0.592655 51.1205 0.339714 50.5738 0.269165C50.0271 0.198617 49.4726 0.314587 49 0.598313C49.3791 0.815298 49.6943 1.12844 49.9138 1.50613C50.1333 1.88383 50.2492 2.31273 50.25 2.74956V7.74956C50.2476 8.18606 50.1309 8.61432 49.9116 8.99173C49.6923 9.36915 49.378 9.68257 49 9.90081C49.3781 10.1265 49.8097 10.2469 50.25 10.2496C50.9124 10.2476 51.5472 9.98355 52.0156 9.51514C52.484 9.04673 52.748 8.41199 52.75 7.74956V2.74956C52.7518 2.42131 52.6874 2.09607 52.5606 1.79325C52.4339 1.49044 52.2475 1.21625 52.0125 0.987063Z" fill="#C1C1C1"/>
<path d="M12.75 5.25H27.75V7.75H12.75V5.25Z" fill="#FF475A"/>
<path d="M2.75 5.25C2.08757 5.25198 1.45283 5.51601 0.984419 5.98442C0.516006 6.45283 0.251978 7.08757 0.25 7.75V10.25C0.251978 9.58757 0.516006 8.95283 0.984419 8.48442C1.45283 8.01601 2.08757 7.75198 2.75 7.75H7.75V5.25H2.75Z" fill="#FF475A"/>
<path d="M30.25 10.25C29.5876 10.248 28.9528 9.98399 28.4844 9.51558C28.016 9.04717 27.752 8.41243 27.75 7.75V10.25C27.75 10.913 28.0134 11.5489 28.4822 12.0178C28.9511 12.4866 29.587 12.75 30.25 12.75C30.913 12.75 31.5489 12.4866 32.0178 12.0178C32.4866 11.5489 32.75 10.913 32.75 10.25V7.75C32.748 8.41243 32.484 9.04717 32.0156 9.51558C31.5472 9.98399 30.9124 10.248 30.25 10.25Z" fill="#FF475A"/>
<path d="M10.25 10.25C9.58757 10.248 8.95283 9.98399 8.48442 9.51558C8.01601 9.04717 7.75198 8.41243 7.75 7.75V10.25C7.75 10.913 8.01339 11.5489 8.48223 12.0178C8.95107 12.4866 9.58696 12.75 10.25 12.75C10.913 12.75 11.5489 12.4866 12.0178 12.0178C12.4866 11.5489 12.75 10.913 12.75 10.25V7.75C12.748 8.41243 12.484 9.04717 12.0156 9.51558C11.5472 9.98399 10.9124 10.248 10.25 10.25Z" fill="#FF475A"/>
<path d="M57.75 5.25H52.75V7.75H57.75C58.4124 7.75198 59.0472 8.01601 59.5156 8.48442C59.984 8.95283 60.248 9.58757 60.25 10.25V7.75C60.248 7.08757 59.984 6.45283 59.5156 5.98442C59.0472 5.51601 58.4124 5.25198 57.75 5.25Z" fill="#FF475A"/>
<path d="M50.25 10.25C49.5876 10.248 48.9528 9.98399 48.4844 9.51558C48.016 9.04717 47.752 8.41243 47.75 7.75V10.25C47.75 10.913 48.0134 11.5489 48.4822 12.0178C48.9511 12.4866 49.587 12.75 50.25 12.75C50.913 12.75 51.5489 12.4866 52.0178 12.0178C52.4866 11.5489 52.75 10.913 52.75 10.25V7.75C52.748 8.41243 52.484 9.04717 52.0156 9.51558C51.5472 9.98399 50.9124 10.248 50.25 10.25Z" fill="#FF475A"/>
<path d="M32.75 5.25H47.75V7.75H32.75V5.25Z" fill="#FF475A"/>
<path d="M5.25 5.25H2.75C2.08757 5.25198 1.45283 5.51601 0.984419 5.98442C0.516006 6.45283 0.251978 7.08757 0.25 7.75V15.25H2.75V7.75C2.75198 7.08757 3.01601 6.45283 3.48442 5.98442C3.95283 5.51601 4.58757 5.25198 5.25 5.25Z" fill="#FF636E"/>
<path d="M57.75 5.25H55.25C55.9124 5.25198 56.5472 5.51601 57.0156 5.98442C57.484 6.45283 57.748 7.08757 57.75 7.75V15.25H60.25V7.75C60.248 7.08757 59.984 6.45283 59.5156 5.98442C59.0472 5.51601 58.4124 5.25198 57.75 5.25Z" fill="#FF636E"/>
<path d="M9 21.5H16.5V29H9V21.5Z" fill="#1EA1E3"/>
<path d="M11.5 21.5H9V29H16.5V26.5C15.1739 26.5 13.9021 25.9732 12.9645 25.0355C12.0268 24.0979 11.5 22.8261 11.5 21.5Z" fill="#368DCF"/>
<path d="M26.5 21.5H34V29H26.5V21.5Z" fill="#1EA1E3"/>
<path d="M44 21.5H51.5V29H44V21.5Z" fill="#1EA1E3"/>
<path d="M9 34H16.5V41.5H9V34Z" fill="#1EA1E3"/>
<path d="M26.5 34H34V41.5H26.5V34Z" fill="#1EA1E3"/>
<path d="M44 34H51.5V41.5H44V34Z" fill="#1EA1E3"/>
<path d="M9 46.5H16.5V54H9V46.5Z" fill="#1EA1E3"/>
<path d="M26.5 46.5H34V54H26.5V46.5Z" fill="#1EA1E3"/>
<path d="M44 46.5H51.5V54H44V46.5Z" fill="#1EA1E3"/>
<path d="M29 21.5H26.5V29H34V26.5C32.6739 26.5 31.4021 25.9732 30.4645 25.0355C29.5268 24.0979 29 22.8261 29 21.5Z" fill="#368DCF"/>
<path d="M46.5 21.5H44V29H51.5V26.5C50.1739 26.5 48.9021 25.9732 47.9645 25.0355C47.0268 24.0979 46.5 22.8261 46.5 21.5Z" fill="#368DCF"/>
<path d="M11.5 34H9V41.5H16.5V39C15.1739 39 13.9021 38.4732 12.9645 37.5355C12.0268 36.5979 11.5 35.3261 11.5 34Z" fill="#368DCF"/>
<path d="M29 34H26.5V41.5H34V39C32.6739 39 31.4021 38.4732 30.4645 37.5355C29.5268 36.5979 29 35.3261 29 34Z" fill="#368DCF"/>
<path d="M46.5 34H44V41.5H51.5V39C50.1739 39 48.9021 38.4732 47.9645 37.5355C47.0268 36.5979 46.5 35.3261 46.5 34Z" fill="#368DCF"/>
<path d="M11.5 46.5H9V54H16.5V51.5C15.1739 51.5 13.9021 50.9732 12.9645 50.0355C12.0268 49.0979 11.5 47.8261 11.5 46.5Z" fill="#368DCF"/>
<path d="M29 46.5H26.5V54H34V51.5C32.6739 51.5 31.4021 50.9732 30.4645 50.0355C29.5268 49.0979 29 47.8261 29 46.5Z" fill="#368DCF"/>
<path d="M46.5 46.5H44V54H51.5V51.5C50.1739 51.5 48.9021 50.9732 47.9645 50.0355C47.0268 49.0979 46.5 47.8261 46.5 46.5Z" fill="#368DCF"/>
<path d="M10.25 52.75V60.25L0.25 50.25H7.75C8.41243 50.252 9.04717 50.516 9.51558 50.9844C9.98399 51.4528 10.248 52.0876 10.25 52.75Z" fill="#19CFFC"/>
<path d="M60.25 77.75C69.915 77.75 77.75 69.915 77.75 60.25C77.75 50.585 69.915 42.75 60.25 42.75C50.585 42.75 42.75 50.585 42.75 60.25C42.75 69.915 50.585 77.75 60.25 77.75Z" fill="#64E1DC"/>
<path d="M65.2507 72.7498C62.0921 72.7515 58.9919 71.8977 56.2793 70.2793C53.5668 68.6608 51.3431 66.3381 49.8444 63.5576C48.3457 60.7771 47.6279 57.6426 47.7672 54.487C47.9066 51.3314 48.8978 48.2724 50.6357 45.6348C48.4609 47.0606 46.6312 48.9532 45.2796 51.1749C43.9281 53.3966 43.0886 55.8917 42.8224 58.4785C42.5562 61.0654 42.8699 63.6791 43.7406 66.1295C44.6113 68.58 46.0172 70.8056 47.8561 72.6444C49.695 74.4833 51.9205 75.8892 54.371 76.7599C56.8214 77.6307 59.4351 77.9443 62.022 77.6781C64.6089 77.4119 67.1039 76.5725 69.3256 75.2209C71.5474 73.8693 73.4399 72.0396 74.8657 69.8648C72.0133 71.7492 68.6694 72.7526 65.2507 72.7498Z" fill="#00C8C8"/>
<path d="M49 64L55.25 70.25L71.5 54L67.75 50.25L55.25 62.75L52.75 60.25L49 64Z" fill="#EDFAFA"/>
</svg>
