<svg width="32" height="32" viewBox="0 0 32 32" fill="none" xmlns="http://www.w3.org/2000/svg">
<path d="M27.3675 10L29.5 24.5H4V10H27.3675Z" fill="#5B83FE"/>
<path d="M27.3675 10L29.5 24.5H4V10V7.5H27L27.3675 10Z" fill="#5B83FE"/>
<path d="M27 7.5L27.3675 10H4V7.5H27Z" fill="#85A2FF"/>
<path d="M27.5001 23H8.26508L7.8607 20.25L7.78695 19.75L7.4932 17.75L7.41945 17.25L7.12508 15.25L7.05195 14.75L6.7207 12.5H25.9557L26.287 14.75L26.3601 15.25L26.6545 17.25L26.7282 17.75L27.022 19.75L27.0476 19.9237L27.0957 20.25L27.5001 23Z" fill="#85A2FF"/>
<path d="M25.735 11L25.9556 12.5H6.72062L6.5 11H25.735Z" fill="#3A69FF"/>
<path d="M27.0965 20.25L27.0484 19.9237L27.0227 19.75H24.511L24.2168 17.75H26.729L26.6552 17.25H24.1432L23.8491 15.25H26.3609L26.2877 14.75H23.7759L23.4446 12.5H22.9396L23.2704 14.75H21.0399L20.7087 12.5H20.2037L20.5349 14.75H18.3049L17.9737 12.5H17.4687L17.7995 14.75H15.5401L15.2093 12.5H14.7037L15.0346 14.75H12.8046L12.4734 12.5H11.9684L12.2993 14.75H10.0399L9.70898 12.5H9.20336L9.5343 14.75H7.05273L7.12586 15.25H9.60848L9.90261 17.25H7.42023L7.49398 17.75H9.97586L10.27 19.75H7.78773L7.86148 20.25H10.3439L10.7484 23H11.254L10.8495 20.25H13.1089L13.5134 23H14.0184L13.6139 20.25H15.8439L16.2484 23H16.7534L16.349 20.25H18.6084L19.0127 23H19.5184L19.1139 20.25H21.3439L21.7484 23H22.2534L21.8489 20.25H24.079L24.4834 23H24.989L24.5845 20.25H27.0965ZM23.3439 15.25L23.638 17.25H21.4076L21.1134 15.25H23.3439ZM20.6085 15.25L20.9026 17.25H18.6726L18.3785 15.25H20.6085ZM17.8733 15.25L18.167 17.25H15.9077L15.6136 15.25H17.8733ZM15.1085 15.25L15.4026 17.25H13.1726L12.8785 15.25H15.1085ZM10.1141 15.25H12.3735L12.6676 17.25H10.4082L10.1141 15.25ZM10.776 19.75L10.4821 17.75H12.7415L13.0357 19.75H10.776ZM13.5404 19.75L13.2462 17.75H15.4762L15.7704 19.75H13.5404ZM16.2755 19.75L15.9818 17.75H18.2412L18.5352 19.75H16.2755ZM19.0404 19.75L18.7462 17.75H20.9762L21.2704 19.75H19.0404ZM21.7754 19.75L21.4812 17.75H23.7115L24.0052 19.75H21.7754Z" fill="#3A69FF"/>
<path d="M4 7.5L1.5 24.5H6.5L4 7.5Z" fill="#3A69FF"/>
<path d="M16.2165 19.8066L14.8829 18.7167L15.8722 17.6721C15.917 17.6239 15.941 17.5598 15.9389 17.494C15.9368 17.4281 15.9088 17.3657 15.8609 17.3204C15.8131 17.2751 15.7493 17.2505 15.6834 17.252C15.6175 17.2535 15.5549 17.281 15.5091 17.3284L14.4947 18.3995L13.1577 17.3066C13.1062 17.2657 13.0407 17.2467 12.9753 17.2537C12.91 17.2607 12.85 17.2931 12.8084 17.344C12.7668 17.3949 12.7469 17.4602 12.7531 17.5257C12.7592 17.5911 12.7909 17.6515 12.8413 17.6938L14.15 18.7633L13.1415 19.8283C13.0966 19.8765 13.0726 19.9406 13.0747 20.0064C13.0768 20.0723 13.1049 20.1347 13.1527 20.18C13.2006 20.2253 13.2644 20.2499 13.3303 20.2484C13.3962 20.2469 13.4588 20.2195 13.5045 20.172L14.5382 19.0805L15.9001 20.1936C15.9255 20.2145 15.9548 20.2302 15.9863 20.2397C16.0177 20.2493 16.0508 20.2525 16.0835 20.2493C16.1162 20.246 16.148 20.2363 16.1769 20.2208C16.2059 20.2053 16.2316 20.1842 16.2524 20.1587C16.2732 20.1332 16.2888 20.1039 16.2982 20.0724C16.3077 20.0409 16.3108 20.0079 16.3075 19.9752C16.3042 19.9425 16.2944 19.9107 16.2788 19.8818C16.2632 19.8528 16.2421 19.8273 16.2165 19.8065V19.8066Z" fill="#00D498"/>
<path d="M18.9787 19.8044L17.6265 18.7252L18.6356 17.6728C18.6583 17.6491 18.6761 17.6212 18.6881 17.5906C18.7 17.56 18.7058 17.5273 18.7051 17.4945C18.7044 17.4617 18.6973 17.4293 18.6841 17.3993C18.6709 17.3692 18.6519 17.342 18.6282 17.3193C18.6045 17.2966 18.5766 17.2787 18.546 17.2668C18.5154 17.2549 18.4827 17.2491 18.4499 17.2498C18.4171 17.2505 18.3847 17.2576 18.3547 17.2708C18.3246 17.284 18.2974 17.303 18.2747 17.3267L17.2341 18.4122L15.8466 17.3046C15.821 17.2839 15.7915 17.2684 15.7599 17.2592C15.7283 17.2499 15.6951 17.2469 15.6624 17.2505C15.6296 17.2541 15.5979 17.2641 15.569 17.28C15.5401 17.2959 15.5146 17.3173 15.4941 17.3431C15.4735 17.3688 15.4582 17.3984 15.4492 17.4301C15.4401 17.4617 15.4373 17.4949 15.4411 17.5277C15.4449 17.5604 15.4551 17.5921 15.4711 17.6208C15.4872 17.6496 15.5088 17.675 15.5347 17.6954L16.8868 18.7744L15.8777 19.8267C15.8318 19.8745 15.8068 19.9387 15.8082 20.005C15.8096 20.0713 15.8372 20.1343 15.8851 20.1802C15.933 20.2261 15.9971 20.2511 16.0634 20.2497C16.1297 20.2483 16.1927 20.2207 16.2386 20.1728L17.2791 19.0872L18.6666 20.1948C18.6922 20.2158 18.7217 20.2315 18.7534 20.241C18.7851 20.2506 18.8184 20.2537 18.8514 20.2502C18.8843 20.2467 18.9162 20.2368 18.9453 20.2209C18.9744 20.2049 19 20.1834 19.0206 20.1575C19.0413 20.1316 19.0566 20.1019 19.0657 20.0701C19.0747 20.0382 19.0774 20.0049 19.0735 19.972C19.0695 19.9391 19.0591 19.9073 19.0428 19.8785C19.0265 19.8496 19.0046 19.8243 18.9784 19.804L18.9787 19.8044Z" fill="#00D498"/>
<path d="M21.0137 14.8391L19.6876 13.7703L20.7132 12.7071C20.7365 12.6835 20.7549 12.6556 20.7673 12.6249C20.7797 12.5943 20.7859 12.5614 20.7855 12.5283C20.7851 12.4952 20.7781 12.4626 20.765 12.4322C20.7519 12.4018 20.7329 12.3743 20.7091 12.3513C20.6853 12.3284 20.6571 12.3103 20.6263 12.2983C20.5955 12.2863 20.5625 12.2805 20.5295 12.2813C20.4964 12.2821 20.4638 12.2895 20.4336 12.303C20.4033 12.3165 20.3761 12.3358 20.3534 12.3599L19.2966 13.4553L17.9108 12.3391C17.8852 12.3185 17.8559 12.3031 17.8244 12.2939C17.7929 12.2846 17.7598 12.2816 17.7272 12.2852C17.6945 12.2887 17.6629 12.2986 17.6341 12.3143C17.6053 12.3301 17.5798 12.3513 17.5592 12.3769C17.5386 12.4024 17.5233 12.4318 17.514 12.4633C17.5048 12.4948 17.5018 12.5278 17.5053 12.5605C17.5089 12.5931 17.5188 12.6248 17.5345 12.6536C17.5502 12.6824 17.5715 12.7078 17.5971 12.7284L18.9481 13.8169L17.9418 14.8602C17.9185 14.8837 17.9002 14.9116 17.8878 14.9423C17.8754 14.973 17.8692 15.0058 17.8696 15.0389C17.8699 15.072 17.8769 15.1047 17.89 15.1351C17.9031 15.1655 17.9221 15.1929 17.946 15.2159C17.9698 15.2389 17.9979 15.2569 18.0288 15.2689C18.0596 15.281 18.0925 15.2867 18.1256 15.2859C18.1587 15.2851 18.1913 15.2778 18.2215 15.2643C18.2517 15.2508 18.2789 15.2314 18.3016 15.2073L19.3391 14.1319L20.7001 15.2284C20.7257 15.249 20.7551 15.2644 20.7866 15.2736C20.8181 15.2829 20.8511 15.2858 20.8837 15.2823C20.9164 15.2788 20.948 15.2689 20.9768 15.2532C21.0056 15.2374 21.0311 15.2162 21.0517 15.1906C21.0723 15.1651 21.0876 15.1357 21.0969 15.1042C21.1061 15.0727 21.1091 15.0397 21.1056 15.007C21.1021 14.9744 21.0922 14.9427 21.0764 14.9139C21.0607 14.8851 21.0394 14.8597 21.0139 14.8391H21.0137Z" fill="#FFA54F"/>
<path d="M31.25 14H30.25H25.25L25 12.5H31L31.25 14Z" fill="#00D498"/>
<path d="M8.25 16H1.75L1 11H7.5L8.25 16Z" fill="#FFA54F"/>
<path d="M31.5 20H26L25.375 16H30.875L31.5 20Z" fill="#FFA54F"/>
<path d="M7.125 22H1.625L1 18H6.5L7.125 22Z" fill="#00D498"/>
<path d="M27.75 17.25H26.5C26.4337 17.25 26.3701 17.2237 26.3232 17.1768C26.2763 17.1299 26.25 17.0663 26.25 17C26.25 16.9337 26.2763 16.8701 26.3232 16.8232C26.3701 16.7763 26.4337 16.75 26.5 16.75H27.75C27.8163 16.75 27.8799 16.7763 27.9268 16.8232C27.9737 16.8701 28 16.9337 28 17C28 17.0663 27.9737 17.1299 27.9268 17.1768C27.8799 17.2237 27.8163 17.25 27.75 17.25Z" fill="#F07F35"/>
<path d="M29.75 18.25H26.75C26.6837 18.25 26.6201 18.2237 26.5732 18.1768C26.5263 18.1299 26.5 18.0663 26.5 18C26.5 17.9337 26.5263 17.8701 26.5732 17.8232C26.6201 17.7763 26.6837 17.75 26.75 17.75H29.75C29.8163 17.75 29.8799 17.7763 29.9268 17.8232C29.9737 17.8701 30 17.9337 30 18C30 18.0663 29.9737 18.1299 29.9268 18.1768C29.8799 18.2237 29.8163 18.25 29.75 18.25Z" fill="#F07F35"/>
<path d="M30.3187 19.2432H26.9922C26.9259 19.2432 26.8623 19.2168 26.8154 19.1699C26.7685 19.1231 26.7422 19.0595 26.7422 18.9932C26.7422 18.9269 26.7685 18.8633 26.8154 18.8164C26.8623 18.7695 26.9259 18.7432 26.9922 18.7432H30.3187C30.3851 18.7432 30.4486 18.7695 30.4955 18.8164C30.5424 18.8633 30.5687 18.9269 30.5687 18.9932C30.5687 19.0595 30.5424 19.1231 30.4955 19.1699C30.4486 19.2168 30.3851 19.2432 30.3187 19.2432Z" fill="#F07F35"/>
<path d="M3.375 19.25H2.125C2.0587 19.25 1.99511 19.2237 1.94822 19.1768C1.90134 19.1299 1.875 19.0663 1.875 19C1.875 18.9337 1.90134 18.8701 1.94822 18.8232C1.99511 18.7763 2.0587 18.75 2.125 18.75H3.375C3.4413 18.75 3.50489 18.7763 3.55178 18.8232C3.59866 18.8701 3.625 18.9337 3.625 19C3.625 19.0663 3.59866 19.1299 3.55178 19.1768C3.50489 19.2237 3.4413 19.25 3.375 19.25Z" fill="#00B377"/>
<path d="M5.375 20.25H2.375C2.3087 20.25 2.24511 20.2237 2.19822 20.1768C2.15134 20.1299 2.125 20.0663 2.125 20C2.125 19.9337 2.15134 19.8701 2.19822 19.8232C2.24511 19.7763 2.3087 19.75 2.375 19.75H5.375C5.4413 19.75 5.50489 19.7763 5.55178 19.8232C5.59866 19.8701 5.625 19.9337 5.625 20C5.625 20.0663 5.59866 20.1299 5.55178 20.1768C5.50489 20.2237 5.4413 20.25 5.375 20.25Z" fill="#00B377"/>
<path d="M5.94375 21.2432H2.61719C2.55088 21.2432 2.48729 21.2168 2.44041 21.1699C2.39353 21.1231 2.36719 21.0595 2.36719 20.9932C2.36719 20.9269 2.39353 20.8633 2.44041 20.8164C2.48729 20.7695 2.55088 20.7432 2.61719 20.7432H5.94375C6.01005 20.7432 6.07364 20.7695 6.12052 20.8164C6.16741 20.8633 6.19375 20.9269 6.19375 20.9932C6.19375 21.0595 6.16741 21.1231 6.12052 21.1699C6.07364 21.2168 6.01005 21.2432 5.94375 21.2432Z" fill="#00B377"/>
<path d="M3.375 12.25H2.125C2.0587 12.25 1.99511 12.2237 1.94822 12.1768C1.90134 12.1299 1.875 12.0663 1.875 12C1.875 11.9337 1.90134 11.8701 1.94822 11.8232C1.99511 11.7763 2.0587 11.75 2.125 11.75H3.375C3.4413 11.75 3.50489 11.7763 3.55178 11.8232C3.59866 11.8701 3.625 11.9337 3.625 12C3.625 12.0663 3.59866 12.1299 3.55178 12.1768C3.50489 12.2237 3.4413 12.25 3.375 12.25Z" fill="#F07F35"/>
<path d="M5.5 12.25H4.25C4.1837 12.25 4.12011 12.2237 4.07322 12.1768C4.02634 12.1299 4 12.0663 4 12C4 11.9337 4.02634 11.8701 4.07322 11.8232C4.12011 11.7763 4.1837 11.75 4.25 11.75H5.5C5.5663 11.75 5.62989 11.7763 5.67678 11.8232C5.72366 11.8701 5.75 11.9337 5.75 12C5.75 12.0663 5.72366 12.1299 5.67678 12.1768C5.62989 12.2237 5.5663 12.25 5.5 12.25Z" fill="#F07F35"/>
<path d="M5.75 13.25H2.375C2.3087 13.25 2.24511 13.2237 2.19822 13.1768C2.15134 13.1299 2.125 13.0663 2.125 13C2.125 12.9337 2.15134 12.8701 2.19822 12.8232C2.24511 12.7763 2.3087 12.75 2.375 12.75H5.75C5.8163 12.75 5.87989 12.7763 5.92678 12.8232C5.97366 12.8701 6 12.9337 6 13C6 13.0663 5.97366 13.1299 5.92678 13.1768C5.87989 13.2237 5.8163 13.25 5.75 13.25Z" fill="#F07F35"/>
<path d="M5.94375 14.2432H2.61719C2.55088 14.2432 2.48729 14.2168 2.44041 14.1699C2.39353 14.1231 2.36719 14.0595 2.36719 13.9932C2.36719 13.9269 2.39353 13.8633 2.44041 13.8164C2.48729 13.7695 2.55088 13.7432 2.61719 13.7432H5.94375C6.01005 13.7432 6.07364 13.7695 6.12052 13.8164C6.16741 13.8633 6.19375 13.9269 6.19375 13.9932C6.19375 14.0595 6.16741 14.1231 6.12052 14.1699C6.07364 14.2168 6.01005 14.2432 5.94375 14.2432Z" fill="#F07F35"/>
<path d="M4.99937 15.25H2.86719C2.80088 15.25 2.73729 15.2237 2.69041 15.1768C2.64353 15.1299 2.61719 15.0663 2.61719 15C2.61719 14.9337 2.64353 14.8701 2.69041 14.8232C2.73729 14.7763 2.80088 14.75 2.86719 14.75H4.99937C5.06568 14.75 5.12926 14.7763 5.17615 14.8232C5.22303 14.8701 5.24937 14.9337 5.24937 15C5.24937 15.0663 5.22303 15.1299 5.17615 15.1768C5.12926 15.2237 5.06568 15.25 4.99937 15.25Z" fill="#F07F35"/>
<path d="M6 8.46775C6.0001 8.41232 6.01861 8.3585 6.05263 8.31474C6.08665 8.27098 6.13425 8.23976 6.18794 8.226C6.32372 8.19086 6.44692 8.11834 6.54356 8.01669C6.6402 7.91505 6.7064 7.78834 6.73464 7.65096C6.76288 7.51357 6.75204 7.37103 6.70334 7.2395C6.65463 7.10797 6.57003 6.99274 6.45912 6.90688C6.34822 6.82102 6.21546 6.76798 6.07593 6.75378C5.9364 6.73958 5.79568 6.76479 5.66975 6.82655C5.54383 6.88831 5.43774 6.98414 5.36355 7.10316C5.28935 7.22218 5.25001 7.35962 5.25 7.49987H4.75C4.75002 7.26616 4.81557 7.03714 4.9392 6.8388C5.06282 6.64046 5.23958 6.48075 5.44939 6.3778C5.65921 6.27485 5.89369 6.23279 6.12621 6.25639C6.35873 6.27998 6.57997 6.3683 6.76483 6.5113C6.94969 6.6543 7.09075 6.84626 7.17201 7.06539C7.25327 7.28452 7.27147 7.52205 7.22455 7.751C7.17762 7.97995 7.06744 8.19116 6.90653 8.36066C6.74561 8.53015 6.5404 8.65113 6.31419 8.70988C6.27714 8.71958 6.23836 8.72066 6.20083 8.71304C6.16329 8.70543 6.128 8.68931 6.09767 8.66593C6.06733 8.64255 6.04275 8.61254 6.02582 8.57818C6.00889 8.54383 6.00006 8.50605 6 8.46775Z" fill="#FFA54F"/>
<path d="M9 8.46775C9.0001 8.41232 9.01861 8.3585 9.05263 8.31474C9.08665 8.27098 9.13425 8.23976 9.18794 8.226C9.32372 8.19086 9.44692 8.11834 9.54356 8.01669C9.6402 7.91505 9.7064 7.78834 9.73464 7.65096C9.76288 7.51357 9.75204 7.37103 9.70334 7.2395C9.65463 7.10797 9.57003 6.99274 9.45912 6.90688C9.34822 6.82102 9.21546 6.76798 9.07593 6.75378C8.9364 6.73958 8.79568 6.76479 8.66975 6.82655C8.54383 6.88831 8.43774 6.98414 8.36355 7.10316C8.28935 7.22218 8.25001 7.35962 8.25 7.49987H7.75C7.75002 7.26616 7.81557 7.03714 7.9392 6.8388C8.06282 6.64046 8.23958 6.48075 8.44939 6.3778C8.65921 6.27485 8.89369 6.23279 9.12621 6.25639C9.35873 6.27998 9.57997 6.3683 9.76483 6.5113C9.94969 6.6543 10.0908 6.84626 10.172 7.06539C10.2533 7.28452 10.2715 7.52205 10.2245 7.751C10.1776 7.97995 10.0674 8.19116 9.90653 8.36066C9.74561 8.53015 9.5404 8.65113 9.31419 8.70988C9.27714 8.71958 9.23836 8.72066 9.20083 8.71304C9.16329 8.70543 9.128 8.68931 9.09767 8.66593C9.06733 8.64255 9.04275 8.61254 9.02582 8.57818C9.00889 8.54383 9.00006 8.50605 9 8.46775Z" fill="#FFA54F"/>
<path d="M12 8.46775C12.0001 8.41232 12.0186 8.3585 12.0526 8.31474C12.0866 8.27098 12.1342 8.23976 12.1879 8.226C12.3237 8.19086 12.4469 8.11834 12.5436 8.01669C12.6402 7.91505 12.7064 7.78834 12.7346 7.65096C12.7629 7.51357 12.752 7.37103 12.7033 7.2395C12.6546 7.10797 12.57 6.99274 12.4591 6.90688C12.3482 6.82102 12.2155 6.76798 12.0759 6.75378C11.9364 6.73958 11.7957 6.76479 11.6698 6.82655C11.5438 6.88831 11.4377 6.98414 11.3635 7.10316C11.2893 7.22218 11.25 7.35962 11.25 7.49987H10.75C10.75 7.26616 10.8156 7.03714 10.9392 6.8388C11.0628 6.64046 11.2396 6.48075 11.4494 6.3778C11.6592 6.27485 11.8937 6.23279 12.1262 6.25639C12.3587 6.27998 12.58 6.3683 12.7648 6.5113C12.9497 6.6543 13.0908 6.84626 13.172 7.06539C13.2533 7.28452 13.2715 7.52205 13.2245 7.751C13.1776 7.97995 13.0674 8.19116 12.9065 8.36066C12.7456 8.53015 12.5404 8.65113 12.3142 8.70988C12.2771 8.71958 12.2384 8.72066 12.2008 8.71304C12.1633 8.70543 12.128 8.68931 12.0977 8.66593C12.0673 8.64255 12.0428 8.61254 12.0258 8.57818C12.0089 8.54383 12.0001 8.50605 12 8.46775Z" fill="#FFA54F"/>
<path d="M19 8.46775C19.0001 8.41232 19.0186 8.3585 19.0526 8.31474C19.0866 8.27098 19.1342 8.23976 19.1879 8.226C19.3237 8.19086 19.4469 8.11834 19.5436 8.01669C19.6402 7.91505 19.7064 7.78834 19.7346 7.65096C19.7629 7.51357 19.752 7.37103 19.7033 7.2395C19.6546 7.10797 19.57 6.99274 19.4591 6.90688C19.3482 6.82102 19.2155 6.76798 19.0759 6.75378C18.9364 6.73958 18.7957 6.76479 18.6697 6.82655C18.5438 6.88831 18.4377 6.98414 18.3635 7.10316C18.2893 7.22218 18.25 7.35962 18.25 7.49987H17.75C17.75 7.26616 17.8156 7.03714 17.9392 6.8388C18.0628 6.64046 18.2396 6.48075 18.4494 6.3778C18.6592 6.27485 18.8937 6.23279 19.1262 6.25639C19.3587 6.27998 19.58 6.3683 19.7648 6.5113C19.9497 6.6543 20.0907 6.84626 20.172 7.06539C20.2533 7.28452 20.2715 7.52205 20.2245 7.751C20.1776 7.97995 20.0674 8.19116 19.9065 8.36066C19.7456 8.53015 19.5404 8.65113 19.3142 8.70988C19.2771 8.71958 19.2384 8.72066 19.2008 8.71304C19.1633 8.70543 19.128 8.68931 19.0977 8.66593C19.0673 8.64255 19.0427 8.61254 19.0258 8.57818C19.0089 8.54383 19.0001 8.50605 19 8.46775Z" fill="#FFA54F"/>
<path d="M22 8.46775C22.0001 8.41232 22.0186 8.3585 22.0526 8.31474C22.0866 8.27098 22.1342 8.23976 22.1879 8.226C22.3237 8.19086 22.4469 8.11834 22.5436 8.01669C22.6402 7.91505 22.7064 7.78834 22.7346 7.65096C22.7629 7.51357 22.752 7.37103 22.7033 7.2395C22.6546 7.10797 22.57 6.99274 22.4591 6.90688C22.3482 6.82102 22.2155 6.76798 22.0759 6.75378C21.9364 6.73958 21.7957 6.76479 21.6697 6.82655C21.5438 6.88831 21.4377 6.98414 21.3635 7.10316C21.2893 7.22218 21.25 7.35962 21.25 7.49987H20.75C20.75 7.26616 20.8156 7.03714 20.9392 6.8388C21.0628 6.64046 21.2396 6.48075 21.4494 6.3778C21.6592 6.27485 21.8937 6.23279 22.1262 6.25639C22.3587 6.27998 22.58 6.3683 22.7648 6.5113C22.9497 6.6543 23.0907 6.84626 23.172 7.06539C23.2533 7.28452 23.2715 7.52205 23.2245 7.751C23.1776 7.97995 23.0674 8.19116 22.9065 8.36066C22.7456 8.53015 22.5404 8.65113 22.3142 8.70988C22.2771 8.71958 22.2384 8.72066 22.2008 8.71304C22.1633 8.70543 22.128 8.68931 22.0977 8.66593C22.0673 8.64255 22.0427 8.61254 22.0258 8.57818C22.0089 8.54383 22.0001 8.50605 22 8.46775Z" fill="#FFA54F"/>
<path d="M25 8.46775C25.0001 8.41232 25.0186 8.3585 25.0526 8.31474C25.0866 8.27098 25.1342 8.23976 25.1879 8.226C25.3237 8.19086 25.4469 8.11834 25.5436 8.01669C25.6402 7.91505 25.7064 7.78834 25.7346 7.65096C25.7629 7.51357 25.752 7.37103 25.7033 7.2395C25.6546 7.10797 25.57 6.99274 25.4591 6.90688C25.3482 6.82102 25.2155 6.76798 25.0759 6.75378C24.9364 6.73958 24.7957 6.76479 24.6697 6.82655C24.5438 6.88831 24.4377 6.98414 24.3635 7.10316C24.2893 7.22218 24.25 7.35962 24.25 7.49987H23.75C23.75 7.26616 23.8156 7.03714 23.9392 6.8388C24.0628 6.64046 24.2396 6.48075 24.4494 6.3778C24.6592 6.27485 24.8937 6.23279 25.1262 6.25639C25.3587 6.27998 25.58 6.3683 25.7648 6.5113C25.9497 6.6543 26.0907 6.84626 26.172 7.06539C26.2533 7.28452 26.2715 7.52205 26.2245 7.751C26.1776 7.97995 26.0674 8.19116 25.9065 8.36066C25.7456 8.53015 25.5404 8.65113 25.3142 8.70988C25.2771 8.71958 25.2384 8.72066 25.2008 8.71304C25.1633 8.70543 25.128 8.68931 25.0977 8.66593C25.0673 8.64255 25.0427 8.61254 25.0258 8.57818C25.0089 8.54383 25.0001 8.50605 25 8.46775Z" fill="#FFA54F"/>
</svg>
