<svg width="32" height="32" viewBox="0 0 32 32" fill="none" xmlns="http://www.w3.org/2000/svg">
<path d="M30.3198 7.97852H0.944824C0.423096 7.97852 0 8.40161 0 8.92334V28.9441C0 30.6289 1.37085 31.9998 3.05566 31.9998H28.209C29.894 31.9998 31.2646 30.6289 31.2646 28.9441V8.92334C31.2646 8.40161 30.8416 7.97852 30.3198 7.97852Z" fill="#E1F1FA"/>
<path d="M30.3201 7.97852H15.6328V31.9998H28.2092C29.8943 31.9998 31.2649 30.6289 31.2649 28.9441V8.92334C31.2649 8.40161 30.8418 7.97852 30.3201 7.97852Z" fill="#CDEBFC"/>
<path d="M15.6335 27.4905C12.0791 27.4905 9.1875 24.5989 9.1875 21.0444C9.1875 17.4902 12.0791 14.5986 15.6335 14.5986C19.1877 14.5986 22.0793 17.4902 22.0793 21.0444C22.0793 24.5989 19.1877 27.4905 15.6335 27.4905Z" fill="#FFEE6E"/>
<path d="M15.6328 14.5986V27.4905C19.1873 27.4905 22.0789 24.5989 22.0789 21.0444C22.0786 17.4902 19.1873 14.5986 15.6328 14.5986Z" fill="#FDBF00"/>
<path d="M15.6318 28.5447C11.4958 28.5447 8.13086 25.1797 8.13086 21.0437C8.13086 16.9077 11.4956 13.543 15.6318 13.543C19.7678 13.543 23.1326 16.9077 23.1326 21.0437C23.1326 25.1797 19.7678 28.5447 15.6318 28.5447ZM15.6318 15.4326C12.5378 15.4326 10.0205 17.9497 10.0205 21.0437C10.0205 24.1377 12.5378 26.655 15.6318 26.655C18.7258 26.655 21.2429 24.1377 21.2429 21.0437C21.2429 17.9497 18.7258 15.4326 15.6318 15.4326Z" fill="#FFB64C"/>
<path d="M15.6328 13.543V15.4326C18.7268 15.4326 21.2439 17.9497 21.2439 21.0437C21.2439 24.1377 18.7268 26.6548 15.6328 26.6548V28.5447C19.7688 28.5447 23.1335 25.1797 23.1335 21.0437C23.1335 16.9077 19.7688 13.543 15.6328 13.543Z" fill="#FF9100"/>
<path d="M14.8973 23.6761C14.6465 23.6761 14.4063 23.5765 14.2291 23.3992L12.3275 21.4976C11.9586 21.1287 11.9586 20.5303 12.3275 20.1614C12.6966 19.7925 13.2947 19.7925 13.6639 20.1614L14.8973 21.3948L17.6024 18.6898C17.9713 18.3209 18.5696 18.3209 18.9385 18.6898C19.3077 19.0587 19.3077 19.657 18.9385 20.0259L15.5652 23.3992C15.3882 23.5765 15.1478 23.6761 14.8973 23.6761Z" fill="#06CCAB"/>
<path d="M17.6021 18.6898L15.6328 20.6592V23.3316L18.9382 20.0262C19.3074 19.657 19.3074 19.0589 18.9382 18.6898C18.5693 18.3209 17.9712 18.3209 17.6021 18.6898Z" fill="#1CADB5"/>
<path d="M28.209 2.01172H3.05566C1.36816 2.01172 0 3.37988 0 5.06763V9.86841H31.2646V5.06763C31.2646 3.37988 29.8965 2.01172 28.209 2.01172Z" fill="#FF5B5B"/>
<path d="M28.2092 2.01172H15.6328V9.86841H31.2649V5.06763C31.2649 3.37988 29.8967 2.01172 28.2092 2.01172Z" fill="#FF193D"/>
<path d="M5.72412 5.91382C5.20239 5.91382 4.7793 5.49072 4.7793 4.96899V0.944824C4.7793 0.423096 5.20239 0 5.72412 0C6.24609 0 6.66919 0.423096 6.66919 0.944824V4.96899C6.66919 5.49072 6.24609 5.91382 5.72412 5.91382Z" fill="#1B3B6B"/>
<path d="M9.47021 5.91382C8.94849 5.91382 8.52539 5.49072 8.52539 4.96899V0.944824C8.52539 0.423096 8.94849 0 9.47021 0C9.99219 0 10.4153 0.423096 10.4153 0.944824V4.96899C10.4153 5.49072 9.99219 5.91382 9.47021 5.91382Z" fill="#1B3B6B"/>
<path d="M21.7944 5.91382C21.2727 5.91382 20.8496 5.49072 20.8496 4.96899V0.944824C20.8496 0.423096 21.2727 0 21.7944 0C22.3164 0 22.7395 0.423096 22.7395 0.944824V4.96899C22.7395 5.49072 22.3164 5.91382 21.7944 5.91382Z" fill="#001035"/>
<path d="M25.5405 5.91382C25.0188 5.91382 24.5957 5.49072 24.5957 4.96899V0.944824C24.5957 0.423096 25.0188 0 25.5405 0C26.0623 0 26.4854 0.423096 26.4854 0.944824V4.96899C26.4854 5.49072 26.0625 5.91382 25.5405 5.91382Z" fill="#001035"/>
</svg>
