<svg width="20" height="16" viewBox="0 0 20 16" fill="none" xmlns="http://www.w3.org/2000/svg">
<path d="M15.5897 2.8718C15.5897 2.15385 15.2821 1.64103 14.7692 1.12821C14.2564 0.615385 13.7436 0.410257 13.0256 0.307693C11.4872 0.205128 9.4359 0 7.79487 0C6.15385 0 4.20513 0.205128 2.66667 0.307693C1.33333 0.512821 0.307692 1.53846 0.205128 2.8718C0.102564 4.30769 0 6.35898 0 8C0 9.64103 0.102564 11.5897 0.205128 13.1282C0.307692 14.4615 1.33333 15.5897 2.66667 15.6923C4.20513 15.7949 6.25641 16 7.89744 16C9.53846 16 11.5897 15.7949 13.1282 15.6923C14.4615 15.5897 15.4872 14.4615 15.5897 13.1282C15.5897 12.6154 15.6923 11.8974 15.6923 11.2821C15.7949 10.1538 15.7949 9.02564 15.7949 8C15.7949 6.97436 15.7949 5.84615 15.6923 4.71795C15.6923 4.10256 15.5897 3.48718 15.5897 2.8718Z" fill="#28C76F"/>
<path d="M19.5898 3.28205C19.3846 3.17949 19.0769 3.17949 18.8718 3.28205L16.718 4.30769C16.718 4.82051 16.8205 5.4359 16.8205 5.94872C16.8205 6.66667 16.9231 7.38462 16.9231 8C16.9231 8.61539 16.9231 9.33333 16.8205 10.0513C16.8205 10.5641 16.8205 11.1795 16.718 11.6923L18.8718 12.7179C18.9744 12.7179 19.0769 12.8205 19.1795 12.8205C19.2821 12.8205 19.4872 12.8205 19.5898 12.7179C19.7949 12.6154 20 12.3077 20 12.1026V3.89744C20 3.58974 19.7949 3.38462 19.5898 3.28205Z" fill="#28C76F"/>
</svg>
