<svg width="39" height="56" viewBox="0 0 39 56" fill="none" xmlns="http://www.w3.org/2000/svg">
<path d="M32.6866 55.9707H6.32846C4.85213 55.9707 3.63892 54.806 3.57837 53.331L2.03516 15.6582H36.9799L35.4367 53.331C35.3762 54.806 34.1629 55.9707 32.6866 55.9707Z" fill="#E6E7E8"/>
<path d="M5.03331 49.3062C4.73606 49.3062 4.49689 49.075 4.48285 48.7805C4.47735 48.6319 4.52964 48.4915 4.62872 48.3842C4.72781 48.2768 4.86542 48.2135 5.01129 48.208C5.31432 48.1943 5.57276 48.431 5.58377 48.7337C5.58955 48.8823 5.54001 49.0227 5.43817 49.13C5.33909 49.2374 5.20395 49.3007 5.05533 49.3062C5.04734 49.3062 5.04184 49.3062 5.03331 49.3062ZM4.94551 47.1071C4.64827 47.1071 4.40606 46.8759 4.39506 46.5787L3.23084 18.208C3.21983 17.9053 3.45652 17.6493 3.75928 17.6356C4.07028 17.619 4.32074 17.8613 4.33175 18.164L5.49322 46.5346C5.50725 46.8374 5.27028 47.0933 4.9678 47.1071C4.95927 47.1071 4.95102 47.1071 4.94551 47.1071Z" fill="white"/>
<path d="M34.1111 15.6582L32.6808 50.5787C32.6202 52.0537 31.407 53.2185 29.9307 53.2185H3.57251C3.57169 53.2185 3.57086 53.2185 3.57031 53.2185L3.57499 53.331C3.63527 54.806 4.84875 55.9707 6.32508 55.9707H32.6832C34.1596 55.9707 35.3728 54.806 35.4333 53.331L36.9765 15.6582H34.1111Z" fill="#D1D3D4"/>
<path d="M28.3483 7.15871H26.0879V3.95614C26.0879 3.02119 25.3274 2.26073 24.3925 2.26073H14.5965C13.6615 2.26073 12.9011 3.02119 12.9011 3.95614V7.15871H10.6406V3.95614C10.6406 1.77468 12.4153 0 14.5965 0H24.3925C26.5736 0 28.3486 1.77468 28.3486 3.95614V7.15871H28.3483Z" fill="#939598"/>
<path d="M26.421 0.556641C26.7747 1.14893 26.9783 1.84086 26.9783 2.5793V5.78187H26.0938V7.15801H28.3545V3.95545C28.3542 2.51269 27.5778 1.24774 26.421 0.556641Z" fill="#808285"/>
<path d="M38.435 15.6217H0.565045C0.252935 15.6217 0 15.3687 0 15.0566V9.98496C0 8.42441 1.26523 7.15918 2.82578 7.15918H36.1742C37.7348 7.15918 39 8.42441 39 9.98496V15.0563C39 15.3684 38.7471 15.6217 38.435 15.6217Z" fill="#808285"/>
<path d="M36.2469 7.15918C36.2474 7.1834 36.2477 7.20734 36.2477 7.23157V12.3029C36.2477 12.615 35.9948 12.868 35.6827 12.868H0V15.0552C0 15.3673 0.252935 15.6203 0.565045 15.6203H38.4347C38.7468 15.6203 38.9997 15.3673 38.9997 15.0552V9.98386C39 8.44753 37.7738 7.19771 36.2469 7.15918Z" fill="#58595B"/>
<path d="M37.3624 7.41797C37.53 7.77934 37.6238 8.18173 37.6238 8.60613V13.6775C37.6238 13.9896 37.3709 14.2426 37.0588 14.2426H0V15.0537C0 15.3658 0.252935 15.6187 0.565045 15.6187H38.4347C38.7468 15.6187 38.9997 15.3658 38.9997 15.0537V9.98228C39 8.84613 38.3293 7.86687 37.3624 7.41797Z" fill="#414042"/>
<path d="M19.4911 46.3114C26.5861 46.3114 32.3377 40.5597 32.3377 33.4648C32.3377 26.3698 26.5861 20.6182 19.4911 20.6182C12.3961 20.6182 6.64453 26.3698 6.64453 33.4648C6.64453 40.5597 12.3961 46.3114 19.4911 46.3114Z" fill="#E63950"/>
<path d="M27.8724 23.7285C29.8047 25.9769 30.9756 28.8987 30.9756 32.0958C30.9756 39.1906 25.2241 44.9424 18.129 44.9424C14.9319 44.9424 12.0098 43.7718 9.76172 41.8391C12.1177 44.5802 15.6073 46.3185 19.5051 46.3185C26.6 46.3185 32.3517 40.567 32.3517 33.4719C32.3517 29.5741 30.6134 26.0845 27.8724 23.7285Z" fill="#D10028"/>
<path d="M25.154 35.983L22.6183 33.4474L25.1061 30.9596C25.9753 30.0904 25.9753 28.6812 25.1061 27.812C24.2369 26.9429 22.8278 26.9429 21.9586 27.812L19.4708 30.2998L17.0312 27.8599C16.162 26.9908 14.7528 26.9908 13.8836 27.8599C13.0145 28.7291 13.0145 30.1383 13.8836 31.0074L16.3233 33.4471L13.8355 35.9349C12.9663 36.8041 12.9663 38.2132 13.8355 39.0824C14.7046 39.9516 16.1138 39.9516 16.983 39.0824L19.4708 36.5946L22.0065 39.1303C22.8757 39.9995 24.2848 39.9995 25.154 39.1303C26.0232 38.2611 26.0232 36.8522 25.154 35.983Z" fill="#FFA91A"/>
<path d="M25.1475 35.9814L22.6118 33.4457L25.0996 30.9579C25.9688 30.0887 25.9688 28.6796 25.0996 27.8104C24.8524 27.5632 24.561 27.389 24.2513 27.2822C24.5197 28.0617 24.3455 28.9597 23.7234 29.5818L21.2356 32.0696L23.7713 34.6052C24.6405 35.4744 24.6405 36.8836 23.7713 37.7528C22.9022 38.6219 21.493 38.6219 20.6238 37.7528L18.0881 35.2171L15.6003 37.7049C14.9783 38.3269 14.0802 38.5011 13.3008 38.2328C13.4073 38.5424 13.5818 38.8339 13.8287 39.081C14.6978 39.9502 16.107 39.9502 16.9762 39.081L19.464 36.5932L21.9997 39.1289C22.8689 39.9981 24.278 39.9981 25.1472 39.1289C26.0164 38.2597 26.0167 36.8506 25.1475 35.9814Z" fill="#F79219"/>
</svg>
