<svg width="24" height="24" viewBox="0 0 24 24" fill="none" xmlns="http://www.w3.org/2000/svg">
<path d="M18.8 4H5.2C4.88174 4 4.57652 4.12643 4.35147 4.35147C4.12643 4.57652 4 4.88174 4 5.2V18.8C4 19.1183 4.12643 19.4235 4.35147 19.6485C4.57652 19.8736 4.88174 20 5.2 20H18.8C19.1183 20 19.4235 19.8736 19.6485 19.6485C19.8736 19.4235 20 19.1183 20 18.8V5.2C20 4.88174 19.8736 4.57652 19.6485 4.35147C19.4235 4.12643 19.1183 4 18.8 4V4Z" stroke="#812F33" stroke-width="2" stroke-linejoin="round"/>
<path d="M7.2002 10.0216C8.5302 8.42161 10.1302 7.62161 12.0002 7.62161C13.8702 7.62161 15.4702 8.42161 16.8002 10.0216" stroke="#812F33" stroke-width="2" stroke-linecap="round"/>
<path d="M11.9998 14.8C12.3181 14.8 12.6233 14.6736 12.8483 14.4486C13.0734 14.2235 13.1998 13.9183 13.1998 13.6C13.1998 13.2818 13.0734 12.9765 12.8483 12.7515C12.6233 12.5265 12.3181 12.4 11.9998 12.4C11.6815 12.4 11.3763 12.5265 11.1513 12.7515C10.9262 12.9765 10.7998 13.2818 10.7998 13.6C10.7998 13.9183 10.9262 14.2235 11.1513 14.4486C11.3763 14.6736 11.6815 14.8 11.9998 14.8Z" fill="#812F33"/>
<path d="M10 10.8L12.0032 13.6" stroke="#812F33" stroke-width="2" stroke-linecap="round"/>
</svg>
