<svg width="8" height="14" viewBox="0 0 8 14" fill="none" xmlns="http://www.w3.org/2000/svg">
<path d="M6.99995 2.15101V1.13021C6.99995 1.02604 6.93794 0.932086 6.8432 0.893447C6.81294 0.880981 6.78121 0.875 6.74996 0.875C6.68307 0.875 6.61763 0.902419 6.56931 0.953763L1.06921 6.82346C0.976931 6.92215 0.976931 7.07767 1.06921 7.17636L6.56931 13.0461C6.64011 13.1213 6.74851 13.1458 6.84325 13.1064C6.93798 13.0677 7 12.9738 7 12.8696V11.8488C7 11.7835 6.97558 11.7207 6.93163 11.6733L2.59412 6.99991L6.93161 2.32648C6.97555 2.27914 6.99995 2.21633 6.99995 2.15101Z" fill="#808FA8" stroke="#808FA8" stroke-width="0.8"/>
</svg>
