<svg width="14" height="18" viewBox="0 0 14 18" fill="none" xmlns="http://www.w3.org/2000/svg">
<path d="M7.00065 8.83026C9.26643 8.83026 11.1032 7.00285 11.1032 4.74862C11.1032 2.4944 9.26643 0.666992 7.00065 0.666992C4.73487 0.666992 2.89809 2.4944 2.89809 4.74862C2.89809 7.00285 4.73487 8.83026 7.00065 8.83026Z" fill="#A2AEBD"/>
<path d="M9.1374 10.531H4.8639C2.38527 10.531 0.333984 12.5718 0.333984 15.0378C0.333984 15.6331 0.590395 16.1433 1.10322 16.3984C1.87245 16.8235 3.58185 17.3337 7.00065 17.3337C10.4195 17.3337 12.1289 16.8235 12.8981 16.3984C13.3254 16.1433 13.6673 15.6331 13.6673 15.0378C13.6673 12.4868 11.616 10.531 9.1374 10.531Z" fill="#A2AEBD"/>
</svg>
