<svg width="56" height="56" viewBox="0 0 56 56" fill="none" xmlns="http://www.w3.org/2000/svg">
<path d="M0 18C0 8.05888 8.05887 0 18 0H38C47.9411 0 56 8.05887 56 18V38C56 47.9411 47.9411 56 38 56H18C8.05888 56 0 47.9411 0 38V18Z" fill="#EA5455"/>
<g clip-path="url(#clip0_2851_16651)">
<path d="M24.1747 20.9786V16.94H30.492C31.2379 16.94 31.8449 16.3328 31.8449 15.5868V10.7592C31.8449 10.0132 31.2379 9.40625 30.492 9.40625H23.3396C22.5936 9.40625 21.9866 10.0132 21.9866 10.7592V20.9815L9.71443 37.9198C9.26981 38.5399 9.20886 39.3818 9.55948 40.0643C9.89929 40.7259 10.5638 41.1372 11.2932 41.1372H38.9973L31.5091 30.9984L24.1747 20.9786Z" fill="white"/>
<path d="M46.309 38.1107L37.8609 26.3278C37.5068 25.8339 36.9597 25.5508 36.3593 25.5508C35.7591 25.5508 35.2117 25.8342 34.8579 26.3278L32.8165 29.2012L41.6218 41.1373H44.8071C45.5018 41.1373 46.133 40.7479 46.4548 40.1213C46.7835 39.4819 46.7263 38.6926 46.309 38.1107Z" fill="white"/>
</g>
<defs>
<clipPath id="clip0_2851_16651">
<rect width="37.3333" height="37.3333" fill="white" transform="translate(9.33337 9.3335)"/>
</clipPath>
</defs>
</svg>
