<svg width="24" height="25" viewBox="0 0 24 25" fill="none" xmlns="http://www.w3.org/2000/svg">
<rect y="0.148438" width="24" height="24" rx="12" fill="#EA5455"/>
<g clip-path="url(#clip0_2432_14162)">
<path d="M10.3606 9.13928V7.40845H13.068C13.3877 7.40845 13.6479 7.14819 13.6479 6.82849V4.75952C13.6479 4.43982 13.3877 4.17969 13.068 4.17969H10.0027C9.68301 4.17969 9.42288 4.43982 9.42288 4.75952V9.1405L4.16336 16.3998C3.97281 16.6655 3.94669 17.0264 4.09696 17.3188C4.24259 17.6024 4.52738 17.7787 4.84 17.7787H16.7132L13.5039 13.4335L10.3606 9.13928Z" fill="white"/>
<path d="M19.8469 16.4824L16.2263 11.4326C16.0746 11.2209 15.8401 11.0996 15.5828 11.0996C15.3256 11.0996 15.0909 11.2211 14.9393 11.4326L14.0645 12.6641L17.8381 17.7795H19.2033C19.501 17.7795 19.7715 17.6127 19.9094 17.3441C20.0503 17.0701 20.0258 16.7318 19.8469 16.4824Z" fill="white"/>
</g>
<defs>
<clipPath id="clip0_2432_14162">
<rect width="16" height="16" fill="white" transform="translate(4 4.14844)"/>
</clipPath>
</defs>
</svg>
