<svg width="24" height="24" viewBox="0 0 24 24" fill="none" xmlns="http://www.w3.org/2000/svg">
<path d="M0 12C0 5.37258 5.37258 0 12 0V0C18.6274 0 24 5.37258 24 12V12C24 18.6274 18.6274 24 12 24V24C5.37258 24 0 18.6274 0 12V12Z" fill="#7966FF"/>
<path fill-rule="evenodd" clip-rule="evenodd" d="M12.9673 7.2541H15.014C17.474 7.2541 18.674 8.56743 18.6673 11.2608V14.5074C18.6673 17.0808 17.0807 18.6674 14.5007 18.6674H9.49398C6.92732 18.6674 5.33398 17.0808 5.33398 14.5008V9.4941C5.33398 6.7341 6.56065 5.3341 8.98065 5.3341H10.034C10.6547 5.32743 11.234 5.6141 11.614 6.10076L12.2007 6.88076C12.3873 7.1141 12.6673 7.2541 12.9673 7.2541ZM8.91398 14.1941H15.0873C15.3607 14.1941 15.5807 13.9674 15.5807 13.6941C15.5807 13.4141 15.3607 13.1941 15.0873 13.1941H8.91398C8.63398 13.1941 8.41398 13.4141 8.41398 13.6941C8.41398 13.9674 8.63398 14.1941 8.91398 14.1941Z" fill="white"/>
</svg>
