<svg width="24" height="24" viewBox="0 0 24 24" fill="none" xmlns="http://www.w3.org/2000/svg">
<path d="M0 12C0 5.37258 5.37258 0 12 0C18.6274 0 24 5.37258 24 12C24 18.6274 18.6274 24 12 24C5.37258 24 0 18.6274 0 12Z" fill="#7966FF"/>
<path fill-rule="evenodd" clip-rule="evenodd" d="M11.1369 6.34664C10.69 6.34664 10.3098 6.65718 10.2031 7.07575H13.7915C13.6848 6.65718 13.3046 6.34664 12.8577 6.34664H11.1369ZM14.8054 7.07575H16.126C17.5267 7.07575 18.6673 8.23017 18.6673 9.64789C18.6673 9.64789 18.6273 10.2481 18.614 11.0838C18.6126 11.15 18.5806 11.2148 18.5279 11.254C18.2071 11.4909 17.9136 11.6867 17.8869 11.7002C16.7797 12.4428 15.4931 12.9653 14.1224 13.2253C14.033 13.2428 13.945 13.1962 13.8996 13.1166C13.5154 12.4509 12.7977 12.0175 11.9973 12.0175C11.2023 12.0175 10.4779 12.4462 10.0824 13.1125C10.0363 13.1908 9.94963 13.2361 9.86091 13.2192C8.50157 12.9586 7.21492 12.4367 6.11437 11.7069L5.47405 11.2614C5.42069 11.2276 5.38734 11.1669 5.38734 11.0994C5.36733 10.7551 5.33398 9.64789 5.33398 9.64789C5.33398 8.23017 6.47455 7.07575 7.87526 7.07575H9.18925C9.31598 6.09685 10.1364 5.33398 11.1369 5.33398H12.8577C13.8582 5.33398 14.6787 6.09685 14.8054 7.07575ZM18.4405 12.5441L18.4139 12.5576C17.0665 13.4623 15.4457 14.0631 13.7449 14.3129C13.5047 14.3467 13.2646 14.1914 13.1979 13.9484C13.0512 13.3948 12.5776 13.0302 12.0107 13.0302H12.004H11.9906C11.4237 13.0302 10.9501 13.3948 10.8034 13.9484C10.7367 14.1914 10.4966 14.3467 10.2564 14.3129C8.5556 14.0631 6.93478 13.4623 5.58744 12.5576C5.58077 12.5509 5.51407 12.5104 5.46071 12.5441C5.40068 12.5779 5.40068 12.6589 5.40068 12.6589L5.44737 16.1019C5.44737 17.5196 6.58127 18.6673 7.98198 18.6673H16.0127C17.4134 18.6673 18.5473 17.5196 18.5473 16.1019L18.6006 12.6589C18.6006 12.6589 18.6006 12.5779 18.5406 12.5441C18.5072 12.5239 18.4672 12.5306 18.4405 12.5441ZM12.4976 15.3728C12.4976 15.6564 12.2775 15.8791 11.9973 15.8791C11.7238 15.8791 11.4971 15.6564 11.4971 15.3728V14.5019C11.4971 14.2251 11.7238 13.9956 11.9973 13.9956C12.2775 13.9956 12.4976 14.2251 12.4976 14.5019V15.3728Z" fill="white"/>
</svg>
