<svg width="24" height="24" viewBox="0 0 24 24" fill="none" xmlns="http://www.w3.org/2000/svg">
<path d="M0 12C0 5.37258 5.37258 0 12 0C18.6274 0 24 5.37258 24 12C24 18.6274 18.6274 24 12 24C5.37258 24 0 18.6274 0 12Z" fill="#7966FF"/>
<path fill-rule="evenodd" clip-rule="evenodd" d="M17.5247 7.49596C17.7841 7.49596 18 7.71129 18 7.98529V8.23862C18 8.50595 17.7841 8.72795 17.5247 8.72795H6.4759C6.21591 8.72795 6 8.50595 6 8.23862V7.98529C6 7.71129 6.21591 7.49596 6.4759 7.49596H8.41971C8.81457 7.49596 9.1582 7.2153 9.24703 6.8193L9.34882 6.36464C9.50702 5.74531 10.0277 5.33398 10.6235 5.33398H13.3765C13.9659 5.33398 14.4923 5.74531 14.6447 6.33197L14.7536 6.81864C14.8418 7.2153 15.1854 7.49596 15.5809 7.49596H17.5247ZM16.5372 16.7567C16.7402 14.8654 17.0955 10.3721 17.0955 10.3267C17.1084 10.1894 17.0637 10.0594 16.9749 9.95474C16.8796 9.85674 16.759 9.79874 16.626 9.79874H7.37901C7.24545 9.79874 7.11837 9.85674 7.03019 9.95474C6.94072 10.0594 6.89663 10.1894 6.90311 10.3267C6.9043 10.3351 6.91705 10.4933 6.93837 10.758C7.03306 11.9335 7.29678 15.2074 7.46719 16.7567C7.58779 17.898 8.33665 18.6153 9.42137 18.6413C10.2584 18.6607 11.1207 18.6673 12.0025 18.6673C12.8331 18.6673 13.6766 18.6607 14.5396 18.6413C15.6619 18.622 16.4101 17.9173 16.5372 16.7567Z" fill="white"/>
</svg>
