<svg width="24" height="24" viewBox="0 0 24 24" fill="none" xmlns="http://www.w3.org/2000/svg">
<path d="M0 12C0 5.37258 5.37258 0 12 0C18.6274 0 24 5.37258 24 12C24 18.6274 18.6274 24 12 24C5.37258 24 0 18.6274 0 12Z" fill="#7966FF"/>
<path d="M11.9993 11.8646C13.812 11.8646 15.2814 10.4027 15.2814 8.59929C15.2814 6.79591 13.812 5.33398 11.9993 5.33398C10.1867 5.33398 8.7173 6.79591 8.7173 8.59929C8.7173 10.4027 10.1867 11.8646 11.9993 11.8646Z" fill="white"/>
<path d="M13.7088 13.2252H10.2899C8.30704 13.2252 6.66602 14.8579 6.66602 16.8306C6.66602 17.3068 6.87114 17.715 7.2814 17.9191C7.89679 18.2592 9.26431 18.6674 11.9993 18.6674C14.7344 18.6674 16.1019 18.2592 16.7173 17.9191C17.0592 17.715 17.3327 17.3068 17.3327 16.8306C17.3327 14.7898 15.6917 13.2252 13.7088 13.2252Z" fill="white"/>
</svg>
