<svg width="24" height="24" viewBox="0 0 24 24" fill="none" xmlns="http://www.w3.org/2000/svg">
<path d="M0 12C0 5.37258 5.37258 0 12 0C18.6274 0 24 5.37258 24 12C24 18.6274 18.6274 24 12 24C5.37258 24 0 18.6274 0 12Z" fill="#7966FF"/>
<path d="M15.9466 13.546C15.7739 13.7133 15.6946 13.9553 15.7339 14.1927L16.3266 17.4727C16.3766 17.7507 16.2592 18.032 16.0266 18.1927C15.7986 18.3593 15.4952 18.3793 15.2466 18.246L12.2939 16.706C12.1912 16.6513 12.0772 16.622 11.9606 16.6187H11.7799C11.7172 16.628 11.6559 16.648 11.5999 16.6787L8.64657 18.226C8.50057 18.2993 8.33524 18.3253 8.17323 18.2993C7.77857 18.2247 7.51523 17.8487 7.5799 17.452L8.17323 14.172C8.21257 13.9327 8.13323 13.6893 7.96057 13.5193L5.55323 11.186C5.3519 10.9907 5.2819 10.6973 5.3739 10.4327C5.46323 10.1687 5.69123 9.97602 5.96657 9.93268L9.2799 9.45202C9.5319 9.42602 9.75323 9.27268 9.86657 9.04602L11.3266 6.05268C11.3612 5.98602 11.4059 5.92468 11.4599 5.87268L11.5199 5.82602C11.5512 5.79135 11.5872 5.76268 11.6272 5.73935L11.6999 5.71268L11.8132 5.66602H12.0939C12.3446 5.69202 12.5652 5.84202 12.6806 6.06602L14.1599 9.04602C14.2666 9.26402 14.4739 9.41535 14.7132 9.45202L18.0266 9.93268C18.3066 9.97268 18.5406 10.166 18.6332 10.4327C18.7206 10.7 18.6452 10.9933 18.4399 11.186L15.9466 13.546Z" fill="white"/>
</svg>
