<svg width="24" height="24" viewBox="0 0 24 24" fill="none" xmlns="http://www.w3.org/2000/svg">
<path d="M0 12C0 5.37258 5.37258 0 12 0C18.6274 0 24 5.37258 24 12C24 18.6274 18.6274 24 12 24C5.37258 24 0 18.6274 0 12Z" fill="#7966FF"/>
<path d="M18.4611 7.25838C18.3924 6.36491 17.7051 5.6089 16.7429 5.54017C15.3683 5.40271 13.4439 5.33398 12.0007 5.33398C10.5574 5.33398 8.63295 5.40271 7.25838 5.54017C6.77728 5.54017 6.36491 5.74636 6.09 6.09C5.81508 6.43364 5.6089 6.77728 5.54017 7.25838C5.40271 8.63295 5.33398 10.5574 5.33398 12.0007C5.33398 13.4439 5.47144 15.3683 5.54017 16.7429C5.6089 17.6364 6.29618 18.3924 7.25838 18.4611C8.63295 18.5986 10.5574 18.6673 12.0007 18.6673C13.4439 18.6673 15.3683 18.5299 16.7429 18.4611C17.6364 18.3924 18.3924 17.7051 18.4611 16.7429C18.5986 15.3683 18.6673 13.4439 18.6673 12.0007C18.6673 10.5574 18.5986 8.63295 18.4611 7.25838ZM14.4061 10.9697L11.657 13.7189C11.5196 13.7876 11.4508 13.8563 11.3134 13.8563C11.1759 13.8563 11.0385 13.7876 10.9697 13.7189L9.59515 12.3443C9.38897 12.1381 9.38897 11.7945 9.59515 11.5883C9.80134 11.3821 10.145 11.3821 10.3512 11.5883L11.3821 12.6192L13.7876 10.2137C13.9938 10.0075 14.3374 10.0075 14.5436 10.2137C14.6123 10.4886 14.6123 10.7635 14.4061 10.9697Z" fill="white"/>
</svg>
