<svg width="20" height="16" viewBox="0 0 20 16" fill="none" xmlns="http://www.w3.org/2000/svg">
<path d="M17.0666 2H13.0562V1.8125C13.0562 1.08875 12.4566 0.5 11.7194 0.5H11.5284H8.47287H8.2819C7.54475 0.5 6.9451 1.08875 6.9451 1.8125V2H2.93468C1.77586 2 0.833984 2.92475 0.833984 4.0625V13.4375C0.833984 14.5752 1.77586 15.5 2.93468 15.5H17.0666C18.2254 15.5 19.1673 14.5752 19.1673 13.4375V4.0625C19.1673 2.92475 18.2254 2 17.0666 2ZM11.5292 3.5H8.47287V2H11.5284L11.5292 3.5ZM6.56315 5.75C7.61579 5.75 8.47287 6.5915 8.47287 7.625C8.47287 8.6585 7.61579 9.5 6.56315 9.5C5.51051 9.5 4.65343 8.6585 4.65343 7.625C4.65343 6.5915 5.51051 5.75 6.56315 5.75ZM10.0007 12.6875C10.0007 12.998 9.74398 13.25 9.42773 13.25H3.69857C3.38232 13.25 3.12565 12.998 3.12565 12.6875V12.3125C3.12565 11.1748 4.06753 10.25 5.22635 10.25H7.89996C9.05878 10.25 10.0007 11.1748 10.0007 12.3125V12.6875ZM16.3027 13.25H12.1013C11.7851 13.25 11.5284 12.998 11.5284 12.6875C11.5284 12.377 11.7851 12.125 12.1013 12.125H16.3027C16.619 12.125 16.8757 12.377 16.8757 12.6875C16.8757 12.998 16.619 13.25 16.3027 13.25ZM16.3027 10.25H12.1013C11.7851 10.25 11.5284 9.998 11.5284 9.6875C11.5284 9.377 11.7851 9.125 12.1013 9.125H16.3027C16.619 9.125 16.8757 9.377 16.8757 9.6875C16.8757 9.998 16.619 10.25 16.3027 10.25ZM16.3027 7.25H12.1013C11.7851 7.25 11.5284 6.998 11.5284 6.6875C11.5284 6.377 11.7851 6.125 12.1013 6.125H16.3027C16.619 6.125 16.8757 6.377 16.8757 6.6875C16.8757 6.998 16.619 7.25 16.3027 7.25Z" fill="#A2AEBD"/>
</svg>
