<svg width="12" height="14" viewBox="0 0 12 14" fill="none" xmlns="http://www.w3.org/2000/svg">
<path fill-rule="evenodd" clip-rule="evenodd" d="M11.5247 2.49596C11.7841 2.49596 12 2.71129 12 2.98529V3.23862C12 3.50595 11.7841 3.72795 11.5247 3.72795H0.475902C0.215907 3.72795 0 3.50595 0 3.23862V2.98529C0 2.71129 0.215907 2.49596 0.475902 2.49596H2.41971C2.81457 2.49596 3.1582 2.2153 3.24703 1.8193L3.34882 1.36464C3.50702 0.745314 4.02766 0.333984 4.62351 0.333984H7.37649C7.96585 0.333984 8.49233 0.745314 8.64469 1.33197L8.75362 1.81864C8.8418 2.2153 9.18543 2.49596 9.58094 2.49596H11.5247ZM10.5372 11.7567C10.7402 9.86536 11.0955 5.37207 11.0955 5.32673C11.1084 5.1894 11.0637 5.0594 10.9749 4.95474C10.8796 4.85674 10.759 4.79874 10.626 4.79874H1.37901C1.24545 4.79874 1.11837 4.85674 1.03019 4.95474C0.940717 5.0594 0.896628 5.1894 0.903112 5.32673C0.904303 5.33506 0.917053 5.49334 0.938368 5.75795C1.03306 6.93345 1.29678 10.2074 1.46719 11.7567C1.58779 12.898 2.33665 13.6153 3.42137 13.6413C4.25842 13.6607 5.12075 13.6673 6.00253 13.6673C6.83309 13.6673 7.67662 13.6607 8.53959 13.6413C9.66192 13.622 10.4101 12.9173 10.5372 11.7567Z" fill="white"/>
</svg>
