<svg width="32" height="32" viewBox="0 0 32 32" fill="none" xmlns="http://www.w3.org/2000/svg">
<g clip-path="url(#clip0_1795_32793)">
<path d="M16 29.5C15.4822 29.5 15.0625 29.0802 15.0625 28.5625V24.0625C15.0625 23.5447 15.4822 23.125 16 23.125C16.5178 23.125 16.9375 23.5447 16.9375 24.0625V28.5625C16.9375 29.0802 16.5178 29.5 16 29.5Z" fill="#0052BE"/>
<path d="M16 23.125V29.5C16.5178 29.5 16.9375 29.0802 16.9375 28.5625V24.0625C16.9375 23.5447 16.5178 23.125 16 23.125Z" fill="#00337A"/>
<path d="M16 24.375C10.3137 24.375 5.6875 19.7488 5.6875 14.0625C5.6875 13.5447 6.10725 13.125 6.625 13.125H25.375C25.8927 13.125 26.3125 13.5447 26.3125 14.0625C26.3125 19.7488 21.6864 24.375 16 24.375ZM7.61425 15C8.08219 19.2128 11.6645 22.5 16 22.5C20.3356 22.5 23.9179 19.2128 24.3857 15H7.61425Z" fill="#2681FF"/>
<path d="M25.375 13.125H16V15H24.3857C23.9179 19.2128 20.3356 22.5 16 22.5V24.375C21.6863 24.375 26.3125 19.7488 26.3125 14.0625C26.3125 13.5447 25.8927 13.125 25.375 13.125Z" fill="#0052BE"/>
<path d="M22.5625 7.5L21.625 6.5625L22.4953 5.625C22.178 3.417 20.7578 1.56063 18.8125 0.634063L17.875 1.5L16.9375 0.06725C16.6312 0.02325 16.3183 0 16 0C15.6817 0 15.3688 0.02325 15.0625 0.06725L14.125 1.5L13.1875 0.634063C11.2422 1.56063 9.822 3.417 9.50475 5.625L10.0625 6.5625L9.4375 7.5V9.375L10.0625 10.3125L9.4375 11.25V14.0625H22.5625V11.25L21.625 10.3125L22.5625 9.375V7.5Z" fill="#BCEAF9"/>
<path d="M22.5625 7.5L21.625 6.5625L22.4953 5.625C22.178 3.417 20.7578 1.56063 18.8125 0.634063L17.875 1.5L16.9375 0.06725C16.6312 0.02325 16.3183 0 16 0V14.0625H22.5625V11.25L21.625 10.3125L22.5625 9.375V7.5Z" fill="#8BB9FF"/>
<path d="M19.125 10.3125C19.125 10.8303 19.5447 11.25 20.0625 11.25H22.5625V9.375H20.0625C19.5447 9.375 19.125 9.79475 19.125 10.3125Z" fill="#4793FF"/>
<path d="M19.125 6.5625C19.125 7.08025 19.5447 7.5 20.0625 7.5H22.5625V6.5625C22.5625 6.24419 22.5393 5.93131 22.4953 5.625H20.0625C19.5447 5.625 19.125 6.04475 19.125 6.5625Z" fill="#4793FF"/>
<path d="M13.1875 10.3125C13.1875 9.79475 12.7678 9.375 12.25 9.375H9.4375V11.25H12.25C12.7678 11.25 13.1875 10.8303 13.1875 10.3125Z" fill="#8BB9FF"/>
<path d="M13.1875 6.5625C13.1875 6.04475 12.7678 5.625 12.25 5.625H9.50475C9.46075 5.93131 9.4375 6.24419 9.4375 6.5625V7.5H12.25C12.7678 7.5 13.1875 7.08025 13.1875 6.5625Z" fill="#8BB9FF"/>
<path d="M17.875 3.43763C18.3928 3.43763 18.8125 3.01788 18.8125 2.50013V0.634195C18.2294 0.356445 17.5993 0.162508 16.9375 0.0673828V2.50013C16.9375 3.01788 17.3572 3.43763 17.875 3.43763Z" fill="#4793FF"/>
<path d="M14.125 3.43763C14.6428 3.43763 15.0625 3.01788 15.0625 2.50013V0.0673828C14.4007 0.162445 13.7706 0.356445 13.1875 0.634195V2.50013C13.1875 3.01788 13.6072 3.43763 14.125 3.43763Z" fill="#8BB9FF"/>
<path d="M21.625 32H10.375C9.85725 32 9.4375 31.5803 9.4375 31.0625C9.4375 29.5092 10.6967 28.25 12.25 28.25H19.75C21.3033 28.25 22.5625 29.5092 22.5625 31.0625C22.5625 31.5803 22.1427 32 21.625 32Z" fill="#BCEAF9"/>
<path d="M9.4375 14.0625C9.4375 17.6811 12.3814 20.625 16 20.625C19.6186 20.625 22.5625 17.6811 22.5625 14.0625H9.4375Z" fill="#8BB9FF"/>
<path d="M16 14.0625V20.625C19.6186 20.625 22.5625 17.6811 22.5625 14.0625H16Z" fill="#4793FF"/>
<path d="M28.1054 11.4774C27.8655 11.4774 27.6256 11.3859 27.4426 11.2028C27.0764 10.8367 27.0764 10.2431 27.4426 9.87699C29.2702 8.0493 29.2702 5.07549 27.4426 3.24787C27.0764 2.88174 27.0764 2.28818 27.4426 1.92205C27.8086 1.55593 28.4022 1.55593 28.7684 1.92205C31.3271 4.48074 31.3271 8.64412 28.7684 11.2028C28.5853 11.3859 28.3454 11.4774 28.1054 11.4774Z" fill="#E2DFF4"/>
<path d="M25.4531 8.82555C25.2132 8.82555 24.9732 8.73405 24.7902 8.55093C24.4241 8.1848 24.4241 7.59124 24.7902 7.22511C24.9673 7.04805 25.0648 6.81261 25.0648 6.56218C25.0648 6.31174 24.9673 6.07636 24.7902 5.89924C24.4241 5.53311 24.4241 4.93955 24.7902 4.57342C25.1563 4.2073 25.7499 4.2073 26.116 4.57342C27.2126 5.66999 27.2126 7.4543 26.116 8.55093C25.933 8.73405 25.693 8.82555 25.4531 8.82555Z" fill="#E2DFF4"/>
<path d="M3.895 11.4774C3.65506 11.4774 3.41512 11.3859 3.23212 11.2028C1.99419 9.96499 1.3125 8.31699 1.3125 6.56243C1.3125 4.80787 1.99419 3.15987 3.23206 1.92205C3.59819 1.55593 4.19175 1.55593 4.55787 1.92205C4.924 2.28818 4.924 2.88174 4.55787 3.24787C3.67419 4.13155 3.1875 5.30868 3.1875 6.56243C3.1875 7.81618 3.67419 8.9933 4.55787 9.87699C4.924 10.2431 4.924 10.8367 4.55787 11.2028C4.37487 11.3859 4.13493 11.4774 3.895 11.4774Z" fill="#F9F9F9"/>
<path d="M6.54589 8.82555C6.30595 8.82555 6.06602 8.73405 5.88302 8.55093C4.78639 7.45436 4.78639 5.67005 5.88302 4.57342C6.24908 4.2073 6.8427 4.2073 7.20883 4.57342C7.57495 4.93955 7.57495 5.53311 7.20883 5.89924C7.03177 6.0763 6.9342 6.31174 6.9342 6.56218C6.9342 6.81261 7.03177 7.04799 7.20883 7.22511C7.57495 7.59124 7.57495 8.1848 7.20883 8.55093C7.02577 8.73405 6.78583 8.82555 6.54589 8.82555Z" fill="#F9F9F9"/>
<path d="M28.1054 11.4774C27.8655 11.4774 27.6256 11.3859 27.4426 11.2028C27.0764 10.8367 27.0764 10.2431 27.4426 9.87699C29.2702 8.0493 29.2702 5.07549 27.4426 3.24787C27.0764 2.88174 27.0764 2.28818 27.4426 1.92205C27.8086 1.55593 28.4022 1.55593 28.7684 1.92205C31.3271 4.48074 31.3271 8.64412 28.7684 11.2028C28.5853 11.3859 28.3454 11.4774 28.1054 11.4774Z" fill="#E2DFF4"/>
<path d="M25.4531 8.82555C25.2132 8.82555 24.9732 8.73405 24.7902 8.55093C24.4241 8.1848 24.4241 7.59124 24.7902 7.22511C24.9673 7.04805 25.0648 6.81261 25.0648 6.56218C25.0648 6.31174 24.9673 6.07636 24.7902 5.89924C24.4241 5.53311 24.4241 4.93955 24.7902 4.57342C25.1563 4.2073 25.7499 4.2073 26.116 4.57342C27.2126 5.66999 27.2126 7.4543 26.116 8.55093C25.933 8.73405 25.693 8.82555 25.4531 8.82555Z" fill="#E2DFF4"/>
<path d="M3.895 11.4774C3.65506 11.4774 3.41512 11.3859 3.23212 11.2028C1.99419 9.96499 1.3125 8.31699 1.3125 6.56243C1.3125 4.80787 1.99419 3.15987 3.23206 1.92205C3.59819 1.55593 4.19175 1.55593 4.55787 1.92205C4.924 2.28818 4.924 2.88174 4.55787 3.24787C3.67419 4.13155 3.1875 5.30868 3.1875 6.56243C3.1875 7.81618 3.67419 8.9933 4.55787 9.87699C4.924 10.2431 4.924 10.8367 4.55787 11.2028C4.37487 11.3859 4.13493 11.4774 3.895 11.4774Z" fill="#F9F9F9"/>
<path d="M6.54589 8.82555C6.30595 8.82555 6.06602 8.73405 5.88302 8.55093C4.78639 7.45436 4.78639 5.67005 5.88302 4.57342C6.24908 4.2073 6.8427 4.2073 7.20883 4.57342C7.57495 4.93955 7.57495 5.53311 7.20883 5.89924C7.03177 6.0763 6.9342 6.31174 6.9342 6.56218C6.9342 6.81261 7.03177 7.04799 7.20883 7.22511C7.57495 7.59124 7.57495 8.1848 7.20883 8.55093C7.02577 8.73405 6.78583 8.82555 6.54589 8.82555Z" fill="#F9F9F9"/>
<path d="M19.75 28.25H16V32H21.625C22.1427 32 22.5625 31.5803 22.5625 31.0625C22.5625 29.5092 21.3033 28.25 19.75 28.25Z" fill="#8BB9FF"/>
</g>
<defs>
<clipPath id="clip0_1795_32793">
<rect width="32" height="32" fill="white"/>
</clipPath>
</defs>
</svg>
