<svg width="56" height="56" viewBox="0 0 56 56" fill="none" xmlns="http://www.w3.org/2000/svg">
<path d="M0 18C0 8.05888 8.05887 0 18 0H38C47.9411 0 56 8.05887 56 18V38C56 47.9411 47.9411 56 38 56H18C8.05888 56 0 47.9411 0 38V18Z" fill="#BB6BD9"/>
<path d="M42 13.418H14C13.0717 13.418 12.1815 13.7867 11.5251 14.4431C10.8687 15.0995 10.5 15.9897 10.5 16.918V21.0013C10.5 21.9296 10.8687 22.8198 11.5251 23.4762C12.1815 24.1326 13.0717 24.5013 14 24.5013H14.2217C13.6372 26.6229 13.5505 28.8508 13.9684 31.0114C14.3864 33.172 15.2976 35.2069 16.6311 36.9575C17.9647 38.7081 19.6844 40.1271 21.6564 41.1039C23.6284 42.0807 25.7993 42.5889 28 42.5889C30.2006 42.5889 32.3716 42.0807 34.3436 41.1039C36.3156 40.1271 38.0353 38.7081 39.3689 36.9575C40.7024 35.2069 41.6136 33.172 42.0316 31.0114C42.4495 28.8508 42.3628 26.6229 41.7783 24.5013H42C42.9282 24.5013 43.8185 24.1326 44.4749 23.4762C45.1312 22.8198 45.5 21.9296 45.5 21.0013V16.918C45.5 15.9897 45.1312 15.0995 44.4749 14.4431C43.8185 13.7867 42.9282 13.418 42 13.418ZM28 37.918C26.9616 37.918 25.9466 37.6101 25.0833 37.0332C24.2199 36.4563 23.547 35.6364 23.1496 34.6771C22.7523 33.7177 22.6483 32.6621 22.8509 31.6437C23.0534 30.6253 23.5535 29.6899 24.2877 28.9557C25.0219 28.2214 25.9574 27.7214 26.9758 27.5188C27.9942 27.3163 29.0498 27.4202 30.0091 27.8176C30.9684 28.215 31.7883 28.8879 32.3652 29.7512C32.9421 30.6146 33.25 31.6296 33.25 32.668C33.25 34.0604 32.6969 35.3957 31.7123 36.3803C30.7277 37.3648 29.3924 37.918 28 37.918ZM43.1667 21.0013C43.1667 21.3107 43.0437 21.6075 42.825 21.8263C42.6062 22.0451 42.3094 22.168 42 22.168H14C13.6906 22.168 13.3938 22.0451 13.175 21.8263C12.9562 21.6075 12.8333 21.3107 12.8333 21.0013V16.918C12.8333 16.6085 12.9562 16.3118 13.175 16.093C13.3938 15.8742 13.6906 15.7513 14 15.7513H42C42.3094 15.7513 42.6062 15.8742 42.825 16.093C43.0437 16.3118 43.1667 16.6085 43.1667 16.918V21.0013ZM30.9167 32.668C30.9167 33.2448 30.7456 33.8087 30.4251 34.2884C30.1046 34.768 29.6491 35.1419 29.1162 35.3626C28.5832 35.5834 27.9968 35.6411 27.431 35.5286C26.8652 35.416 26.3455 35.1383 25.9376 34.7304C25.5297 34.3225 25.2519 33.8028 25.1394 33.237C25.0268 32.6712 25.0846 32.0848 25.3053 31.5518C25.5261 31.0189 25.8999 30.5633 26.3796 30.2428C26.8592 29.9224 27.4231 29.7513 28 29.7513C28.7735 29.7513 29.5154 30.0586 30.0624 30.6056C30.6094 31.1526 30.9167 31.8944 30.9167 32.668Z" fill="white"/>
</svg>
