<svg width="40" height="40" viewBox="0 0 40 40" fill="none" xmlns="http://www.w3.org/2000/svg">
<rect width="40" height="40" rx="18" fill="#02C5DD"/>
<path opacity="0.4" d="M22.6859 12.7678C22.1569 12.6701 21.6712 13.0076 21.5705 13.524C21.4698 14.0403 21.8084 14.5444 22.3229 14.6454C23.8721 14.9474 25.0683 16.1466 25.3715 17.7011V17.7022C25.4578 18.1497 25.8517 18.475 26.3054 18.475C26.3663 18.475 26.4271 18.4694 26.4891 18.4583C27.0037 18.3551 27.3423 17.8521 27.2416 17.3347C26.789 15.0129 25.0019 13.2197 22.6859 12.7678Z" fill="white"/>
<path opacity="0.4" d="M22.618 8.89846C22.3702 8.86293 22.1212 8.93621 21.9231 9.09388C21.7195 9.25377 21.5923 9.48472 21.5646 9.74343C21.506 10.2664 21.8833 10.7394 22.4056 10.7983C26.0074 11.2002 28.807 14.0061 29.212 17.6191C29.2662 18.1032 29.6723 18.4686 30.157 18.4686C30.1935 18.4686 30.2289 18.4663 30.2655 18.4619C30.5189 18.4341 30.7446 18.3087 30.9039 18.1088C31.0622 17.9089 31.1341 17.6602 31.1053 17.4059C30.6007 12.8979 27.1118 9.39923 22.618 8.89846Z" fill="white"/>
<path d="M26.2272 22.9705C25.5068 22.8173 24.937 23.1504 24.4324 23.4413C23.9156 23.7411 22.9319 24.535 22.3697 24.3307C19.4861 23.1493 16.7739 20.6344 15.5998 17.7519C15.3929 17.1778 16.1863 16.193 16.484 15.6733C16.775 15.1692 17.1025 14.5952 16.9531 13.8735C16.8181 13.2239 15.072 11.011 14.4545 10.4058C14.0462 10.0061 13.6302 9.78626 13.2019 9.74962C11.5919 9.68189 9.79372 11.8215 9.47835 12.3334C8.68716 13.4249 8.69269 14.8772 9.49163 16.6382C11.417 21.3683 18.6993 28.5067 23.4663 30.4965C24.3449 30.9062 25.1505 31.1116 25.8731 31.1116C26.5802 31.1116 27.2098 30.9151 27.7509 30.5253C28.1581 30.2911 30.3956 28.4112 30.3358 26.7646C30.3015 26.3449 30.0813 25.9252 29.6852 25.5188C29.081 24.8981 26.8745 23.1071 26.2272 22.9705Z" fill="white"/>
</svg>
