<svg width="16" height="18" viewBox="0 0 16 18" fill="none" xmlns="http://www.w3.org/2000/svg">
<path fill-rule="evenodd" clip-rule="evenodd" d="M11.6757 1.30751L11.6766 1.93219C13.9721 2.1121 15.4885 3.67632 15.4909 6.07512L15.5 13.0966C15.5033 15.712 13.8602 17.3212 11.2265 17.3253L4.79324 17.3336C2.17599 17.337 0.512347 15.6895 0.509056 13.0666L0.500006 6.12759C0.496714 3.71297 1.95961 2.15292 4.25514 1.94219L4.25432 1.3175C4.2535 0.951018 4.52501 0.675323 4.88703 0.675323C5.24905 0.67449 5.52057 0.949353 5.52139 1.31584L5.52221 1.89888L10.4095 1.89221L10.4087 1.30917C10.4078 0.942689 10.6794 0.667827 11.0414 0.666994C11.3952 0.666161 11.6749 0.941023 11.6757 1.30751ZM1.7679 6.38496L14.2247 6.3683V6.07678C14.1893 4.28601 13.2908 3.34648 11.6782 3.20656L11.679 3.8479C11.679 4.20605 11.4001 4.49008 11.0463 4.49008C10.6843 4.49091 10.412 4.20772 10.412 3.84957L10.4111 3.1749L5.52386 3.18157L5.52468 3.8554C5.52468 4.21438 5.25399 4.49757 4.89197 4.49757C4.52995 4.49841 4.25761 4.21605 4.25761 3.85706L4.25679 3.21572C2.65238 3.37647 1.76461 4.31933 1.76708 6.12593L1.7679 6.38496ZM10.6999 10.1706V10.1797C10.7082 10.5629 11.0208 10.8536 11.4001 10.8452C11.7704 10.8361 12.0657 10.5187 12.0575 10.1356C12.0402 9.7691 11.7432 9.47009 11.3738 9.47092C10.9953 9.47925 10.6991 9.78743 10.6999 10.1706ZM11.3795 13.9104C11.0011 13.902 10.6958 13.5864 10.695 13.2032C10.6868 12.8201 10.9904 12.5027 11.3688 12.4936H11.3771C11.7638 12.4936 12.0772 12.8092 12.0772 13.2007C12.0781 13.5922 11.7654 13.9095 11.3795 13.9104ZM7.3101 10.1839C7.32655 10.567 7.64003 10.8661 8.01851 10.8494C8.38875 10.8319 8.68413 10.5154 8.66767 10.1323C8.65862 9.75744 8.3542 9.46592 7.98395 9.46675C7.60547 9.48341 7.30928 9.80075 7.3101 10.1839ZM8.0218 13.8729C7.64332 13.8895 7.33067 13.5905 7.31339 13.2074C7.31339 12.8242 7.60877 12.5077 7.98724 12.4902C8.35749 12.4894 8.66274 12.7809 8.67097 13.1549C8.68824 13.5389 8.39205 13.8554 8.0218 13.8729ZM3.92027 10.213C3.93673 10.5962 4.2502 10.896 4.62868 10.8785C4.99893 10.8619 5.2943 10.5445 5.27703 10.1614C5.2688 9.78659 4.96437 9.49507 4.5933 9.49591C4.21483 9.51256 3.91945 9.82991 3.92027 10.213ZM4.63197 13.877C4.2535 13.8945 3.94084 13.5947 3.92356 13.2115C3.92274 12.8284 4.21894 12.5111 4.59741 12.4944C4.96766 12.4936 5.27291 12.7851 5.28114 13.1599C5.29842 13.543 5.00304 13.8604 4.63197 13.877Z" fill="#A2AEBD"/>
</svg>
