<svg width="32" height="32" viewBox="0 0 32 32" fill="none" xmlns="http://www.w3.org/2000/svg">
<path d="M5.40625 2.23438H26.5938V4.10938H5.40625V2.23438Z" fill="#8FFAFF"/>
<path d="M5.40625 27.8906H26.5938V29.7656H5.40625V27.8906Z" fill="#8FFAFF"/>
<path d="M16 2.23438H26.5938V4.10938H16V2.23438Z" fill="#3BE2E2"/>
<path d="M16 27.8906H26.5938V29.7656H16V27.8906Z" fill="#3BE2E2"/>
<path d="M23.5601 8.875V12.3206H21.6851V10.75H16.9383V21.4281H18.5633V23.3031H13.4383V21.4281H15.0633V10.75H10.3164V12.3206H8.44141V8.875H23.5601Z" fill="#455DA0"/>
<path d="M2.23438 5.40625H4.10938V26.3125H2.23438V5.40625Z" fill="#8FFAFF"/>
<path d="M27.8906 5.40625H29.7656V26.3125H27.8906V5.40625Z" fill="#3BE2E2"/>
<path d="M3.60419 7.20831C5.5915 7.20831 7.20831 5.5915 7.20831 3.60413C7.20831 1.61681 5.5915 0 3.60419 0C1.61681 0 0 1.61681 0 3.60419C0 5.5915 1.61681 7.20831 3.60419 7.20831Z" fill="#50C5FF"/>
<path d="M3.60419 24.791C1.61681 24.791 0 26.4078 0 28.3951C0 30.3825 1.61681 31.9993 3.60419 31.9993C5.5915 31.9993 7.20831 30.3825 7.20831 28.3951C7.20831 26.4078 5.5915 24.791 3.60419 24.791Z" fill="#50C5FF"/>
<path d="M28.3951 7.20831C30.3825 7.20831 31.9993 5.5915 31.9993 3.60413C31.9993 1.61681 30.3825 0 28.3951 0C26.4078 0 24.791 1.61681 24.791 3.60419C24.791 5.5915 26.4078 7.20831 28.3951 7.20831Z" fill="#488AFF"/>
<path d="M28.3951 24.791C26.4078 24.791 24.791 26.4078 24.791 28.3952C24.791 30.3825 26.4078 31.9994 28.3951 31.9994C30.3825 31.9993 31.9993 30.3825 31.9993 28.3951C31.9993 26.4078 30.3825 24.791 28.3951 24.791Z" fill="#488AFF"/>
<path d="M18.5625 23.3031H16V8.875H23.5594V12.3206H21.6844V10.75H16.9375V21.4281H18.5625V23.3031Z" fill="#1F4271"/>
</svg>
