<svg width="20" height="20" viewBox="0 0 20 20" fill="none" xmlns="http://www.w3.org/2000/svg">
<path fill-rule="evenodd" clip-rule="evenodd" d="M0.930564 0.930564C1.2833 0.577833 1.85519 0.577833 2.20792 0.930564L9.99935 8.72199L17.7908 0.930564C18.1435 0.577833 18.7154 0.577833 19.0681 0.930564C19.4209 1.2833 19.4209 1.85519 19.0681 2.20792L11.2767 9.99935L19.0681 17.7908C19.4209 18.1435 19.4209 18.7154 19.0681 19.0681C18.7154 19.4209 18.1435 19.4209 17.7908 19.0681L9.99935 11.2767L2.20792 19.0681C1.85519 19.4209 1.2833 19.4209 0.930564 19.0681C0.577833 18.7154 0.577833 18.1435 0.930564 17.7908L8.72199 9.99935L0.930564 2.20792C0.577833 1.85519 0.577833 1.2833 0.930564 0.930564Z" fill="#A2AEBD"/>
</svg>
