<svg width="49" height="48" viewBox="0 0 49 48" fill="none" xmlns="http://www.w3.org/2000/svg">
<rect x="0.5" width="48" height="48" rx="18" fill="#BB6BD9"/>
<path d="M37.6142 28.1835C37.203 30.3686 36.1068 32.4171 34.4623 33.9194C32.8179 35.5582 30.8993 36.5142 28.7068 37.0605C28.0216 37.1971 27.1993 37.3337 26.5142 37.3337C25.0068 37.3337 23.6364 37.0605 22.266 36.5142C20.2105 35.6948 18.429 34.1925 17.1956 32.4171C16.2364 31.0514 15.5512 29.4126 15.4142 27.6372C15.2771 26.9543 15.5512 26.4081 15.9623 25.8618C16.2364 25.3155 16.9216 25.0424 17.6068 25.0424H24.1845C24.8697 25.0424 25.4179 24.4961 25.4179 23.8132V17.1213C25.4179 16.4385 25.6919 15.7556 26.2401 15.3459C26.6512 14.9362 27.3364 14.663 28.0216 14.7996C29.666 15.0728 31.3105 15.7556 32.8179 16.575C34.7364 17.8042 36.1068 19.5796 36.929 21.6281C37.8882 23.6767 38.0253 25.9984 37.6142 28.1835Z" fill="white"/>
<path d="M22.8142 13.0242V20.6721C22.8142 21.4915 22.129 22.1744 21.3068 22.1744H13.4956C12.8105 22.1744 12.1253 21.9013 11.7142 21.355C11.3031 20.9453 11.166 20.2624 11.166 19.7161C11.4401 17.3944 12.5364 15.3459 14.1808 13.7071C15.8253 12.0682 17.8808 10.9757 20.2105 10.7025C20.7586 10.5659 21.4438 10.8391 21.9919 11.2488C22.403 11.6585 22.8142 12.3414 22.8142 13.0242Z" fill="white"/>
</svg>
