<svg width="18" height="18" viewBox="0 0 18 18" fill="none" xmlns="http://www.w3.org/2000/svg">
<path d="M14.1384 10.983C13.5786 10.8626 13.1358 11.1225 12.7437 11.3494C12.3422 11.5833 11.5786 12.2027 11.141 12.0442C8.90025 11.1216 6.79279 9.16035 5.88051 6.91064C5.71972 6.46364 6.33622 5.69525 6.56837 5.28897C6.79365 4.89568 7.04816 4.44868 6.93209 3.88474C6.82718 3.37797 5.47036 1.65148 4.99058 1.17936C4.67416 0.867503 4.35 0.69598 4.01724 0.668259C2.76618 0.61455 1.36895 2.28386 1.12389 2.68322C0.50997 3.53476 0.513409 4.66785 1.13421 6.04176C2.63033 9.73209 8.28891 15.3014 11.9931 16.8537C12.6767 17.1734 13.3018 17.3337 13.8632 17.3337C14.4127 17.3337 14.9019 17.1803 15.3224 16.8763C15.6396 16.6935 17.3774 15.2269 17.3318 13.9422C17.3043 13.6147 17.1332 13.2873 16.8254 12.9702C16.3567 12.486 14.6414 11.0887 14.1384 10.983Z" fill="#A2AEBD"/>
</svg>
