<svg width="32" height="32" viewBox="0 0 32 32" fill="none" xmlns="http://www.w3.org/2000/svg">
<path d="M28.1875 16H26.3125L24.4375 17.875V23.5H30.0625V17.875L28.1875 16Z" fill="#DFE7F4"/>
<path d="M28.1875 10.375H26.3125L24.4375 12.25V17.875H30.0625V12.25L28.1875 10.375Z" fill="#C7CFE1"/>
<path d="M24.4375 6.5625H30.0625V12.25H24.4375V6.5625Z" fill="#DFE7F4"/>
<path d="M1.9375 0V32H5.6875L7.5625 30.125V1.875L5.6875 0H1.9375Z" fill="#61729B"/>
<path d="M21.625 0H16H5.6875V32H16H21.625C24.2096 32 26.3125 29.8971 26.3125 27.3125V4.6875C26.3125 2.10294 24.2096 0 21.625 0Z" fill="#FF7B4A"/>
<path d="M26.3125 27.3125V4.6875C26.3125 2.10294 24.2096 0 21.625 0H16V32H21.625C24.2096 32 26.3125 29.8971 26.3125 27.3125Z" fill="#FF435B"/>
<path d="M16 13.1875C17.5533 13.1875 18.8125 11.9283 18.8125 10.375C18.8125 8.8217 17.5533 7.5625 16 7.5625C14.4467 7.5625 13.1875 8.8217 13.1875 10.375C13.1875 11.9283 14.4467 13.1875 16 13.1875Z" fill="#F0F7FF"/>
<path d="M18.8125 10.375C18.8125 8.82413 17.5509 7.5625 16 7.5625V13.1875C17.5509 13.1875 18.8125 11.9259 18.8125 10.375Z" fill="#DFE7F4"/>
<path d="M16 13.1875C13.4154 13.1875 11.3125 15.2904 11.3125 17.875V18.8125H16H20.6875V17.875C20.6875 15.2904 18.5846 13.1875 16 13.1875Z" fill="#F0F7FF"/>
<path d="M20.6875 17.875C20.6875 15.2904 18.5846 13.1875 16 13.1875V18.8125H20.6875V17.875Z" fill="#DFE7F4"/>
<path d="M11.3125 20.6875H20.6875V22.5625H11.3125V20.6875Z" fill="#FF435B"/>
<path d="M16 20.6875H20.6875V22.5625H16V20.6875Z" fill="#D0004F"/>
</svg>
