<svg width="32" height="32" viewBox="0 0 32 32" fill="none" xmlns="http://www.w3.org/2000/svg">
<path d="M27.3783 2.69988C26.847 2.16794 26.1403 1.875 25.3885 1.875H6.63846C5.08939 1.875 3.8277 3.13531 3.82595 4.68437L3.79883 29.1844C3.79796 29.9362 4.09014 30.6432 4.62146 31.1751C5.15283 31.7071 5.85952 32 6.61133 32H25.3613C26.9104 32 28.1721 30.7397 28.1738 29.1906L28.201 4.69063C28.2018 3.93881 27.9096 3.23181 27.3783 2.69988Z" fill="#E4F4FE"/>
<path d="M27.3784 2.69988C26.8471 2.16794 26.1404 1.875 25.3886 1.875H16V32H25.3614C26.9105 32 28.1722 30.7397 28.1739 29.1906L28.2011 4.69063C28.2019 3.93881 27.9097 3.23181 27.3784 2.69988Z" fill="#C1DBFC"/>
<path d="M21.625 3.75H10.375C10.0298 3.75 9.75 3.47019 9.75 3.125V0.625C9.75 0.279813 10.0298 0 10.375 0H21.625C21.9702 0 22.25 0.279813 22.25 0.625V3.125C22.25 3.47019 21.9702 3.75 21.625 3.75Z" fill="#7B87E1"/>
<path d="M21.625 0H16V3.75H21.625C21.9702 3.75 22.25 3.47019 22.25 3.125V0.625C22.25 0.279813 21.9702 0 21.625 0Z" fill="#6E79DE"/>
<path d="M23.5982 13.125H16.9375C16.4197 13.125 16 12.7053 16 12.1875C16 11.6697 16.4197 11.25 16.9375 11.25H23.5982C24.1159 11.25 24.5357 11.6697 24.5357 12.1875C24.5357 12.7053 24.1159 13.125 23.5982 13.125Z" fill="#50B1BA"/>
<path d="M23.5982 19.375H16.9375C16.4197 19.375 16 18.9553 16 18.4375C16 17.9197 16.4197 17.5 16.9375 17.5H23.5982C24.1159 17.5 24.5357 17.9197 24.5357 18.4375C24.5357 18.9553 24.1159 19.375 23.5982 19.375Z" fill="#50B1BA"/>
<path d="M23.625 25.625H16.9375C16.4197 25.625 16 25.2053 16 24.6875C16 24.1697 16.4197 23.75 16.9375 23.75H23.625C24.1427 23.75 24.5625 24.1697 24.5625 24.6875C24.5625 25.2053 24.1427 25.625 23.625 25.625Z" fill="#50B1BA"/>
<path d="M10.1668 14.0603C9.91813 14.0603 9.67969 13.9614 9.50388 13.7856L8.33119 12.6129C7.96512 12.2468 7.96512 11.6532 8.33119 11.2871C8.69731 10.921 9.29088 10.921 9.657 11.2871L10.1668 11.7969L12.3288 9.63494C12.6949 9.26882 13.2884 9.26882 13.6546 9.63494C14.0207 10.0011 14.0207 10.5946 13.6546 10.9608L10.8296 13.7856C10.6539 13.9615 10.4154 14.0603 10.1668 14.0603Z" fill="#60D2DB"/>
<path d="M10.1668 20.7879C9.91813 20.7879 9.67975 20.6891 9.50388 20.5132L8.33119 19.3405C7.96512 18.9744 7.96512 18.3808 8.33119 18.0147C8.69731 17.6486 9.29088 17.6486 9.657 18.0147L10.1668 18.5244L12.3288 16.3624C12.6948 15.9964 13.2884 15.9964 13.6546 16.3624C14.0207 16.7285 14.0207 17.3221 13.6546 17.6882L10.8296 20.5132C10.6539 20.6891 10.4154 20.7879 10.1668 20.7879Z" fill="#60D2DB"/>
<path d="M10.1668 27.0379C9.91813 27.0379 9.67975 26.9391 9.50388 26.7632L8.33119 25.5905C7.96512 25.2244 7.96512 24.6308 8.33119 24.2647C8.69731 23.8986 9.29088 23.8986 9.657 24.2647L10.1668 24.7744L12.3288 22.6124C12.6948 22.2464 13.2884 22.2464 13.6546 22.6124C14.0207 22.9785 14.0207 23.5721 13.6546 23.9382L10.8296 26.7632C10.6539 26.9391 10.4154 27.0379 10.1668 27.0379Z" fill="#60D2DB"/>
</svg>
