<svg width="56" height="56" viewBox="0 0 56 56" fill="none" xmlns="http://www.w3.org/2000/svg">
<rect width="56" height="56" rx="18" fill="#28C76F"/>
<path d="M39.5327 17.2857C39.3768 15.2959 37.8184 13.6122 35.7924 13.4592C33.6106 13.3061 30.3378 13 28.0001 13C25.6624 13 22.3897 13.3061 20.2078 13.6122C18.1818 13.7653 16.6234 15.2959 16.4675 17.2857C16.3117 19.7347 16 24.4796 16 28C16 31.3673 16.3117 36.1122 16.4675 38.7143C16.6234 40.7041 18.1818 42.3878 20.2078 42.5408C22.3897 42.6939 25.6624 43 28.0001 43C30.3378 43 33.6106 42.6939 35.7924 42.5408C37.8184 42.3878 39.3768 40.7041 39.5327 38.7143C39.6885 36.2653 40.0002 31.5204 40.0002 28C40.0002 24.4796 39.6885 19.8878 39.5327 17.2857ZM28.0001 18.8163C28.7793 18.8163 29.5586 19.5816 29.5586 20.3469C29.5586 21.1122 28.7793 21.8776 28.0001 21.8776C27.2209 21.8776 26.4417 21.1122 26.4417 20.3469C26.4417 19.5816 27.2209 18.8163 28.0001 18.8163ZM29.5586 36.8776H26.4417C25.8183 36.8776 25.1949 36.4184 25.1949 35.6531C25.1949 34.8878 25.6624 34.4286 26.4417 34.4286H29.5586C30.1819 34.4286 30.8053 34.8878 30.8053 35.6531C30.8053 36.4184 30.1819 36.8776 29.5586 36.8776Z" fill="white"/>
</svg>
