<svg width="49" height="48" viewBox="0 0 49 48" fill="none" xmlns="http://www.w3.org/2000/svg">
<rect x="0.5" width="48" height="48" rx="18" fill="#6FCF97"/>
<path fill-rule="evenodd" clip-rule="evenodd" d="M27.6405 10.6776C27.343 10.6349 27.0443 10.7229 26.8066 10.9121C26.5622 11.1039 26.4095 11.3811 26.3763 11.6915C26.306 12.3191 26.7588 12.8867 27.3855 12.9573C31.7077 13.4397 35.0672 16.8067 35.5532 21.1424C35.6183 21.7233 36.1056 22.1617 36.6872 22.1617C36.7311 22.1617 36.7736 22.159 36.8174 22.1537C37.1215 22.1204 37.3923 21.9698 37.5836 21.73C37.7734 21.4901 37.8598 21.1917 37.8252 20.8866C37.2197 15.4769 33.0329 11.2785 27.6405 10.6776ZM27.7235 15.3202C27.0887 15.203 26.5058 15.608 26.385 16.2276C26.2641 16.8472 26.6705 17.4521 27.2879 17.5734C29.1469 17.9358 30.5824 19.3748 30.9462 21.2402V21.2415C31.0498 21.7785 31.5225 22.1689 32.0669 22.1689C32.14 22.1689 32.213 22.1622 32.2874 22.1489C32.9048 22.025 33.3111 21.4214 33.1903 20.8005C32.6472 18.0144 30.5027 15.8625 27.7235 15.3202ZM29.8328 28.121C30.4347 27.774 31.1146 27.3819 31.9722 27.5644C32.7491 27.7283 35.3968 29.8774 36.1218 30.6223C36.5972 31.1099 36.8615 31.6136 36.9026 32.1172C36.9743 34.0932 34.2894 36.349 33.8007 36.6301C33.1514 37.0978 32.3958 37.3337 31.5473 37.3337C30.6802 37.3337 29.7135 37.0872 28.6592 36.5955C22.9388 34.2078 14.2001 25.6417 11.8896 19.9656C10.9308 17.8524 10.9242 16.1096 11.8736 14.7998C12.2521 14.1856 14.4099 11.618 16.3419 11.6993C16.8558 11.7432 17.3551 12.0071 17.8451 12.4867C18.586 13.2129 20.6814 15.8684 20.8434 16.6479C21.0226 17.5139 20.6296 18.2028 20.2804 18.8077C20.2059 18.9378 20.1055 19.0921 19.9956 19.2611C19.5783 19.9028 19.0229 20.7568 19.2194 21.302C20.6283 24.761 23.8829 27.7789 27.3433 29.1966C27.8784 29.3911 28.732 28.8317 29.3716 28.4125C29.5382 28.3033 29.6903 28.2037 29.8184 28.1293L29.8328 28.121Z" fill="white"/>
</svg>
