<svg width="49" height="48" viewBox="0 0 49 48" fill="none" xmlns="http://www.w3.org/2000/svg">
<rect x="0.5" width="48" height="48" rx="18" fill="#FF9F43"/>
<path fill-rule="evenodd" clip-rule="evenodd" d="M16.6501 14H24.3728C27.6022 14 29.8569 16.2254 29.8569 19.4146V28.5854C29.8569 31.7746 27.6022 34 24.3728 34H16.6501C13.4207 34 11.166 31.7746 11.166 28.5854V19.4146C11.166 16.2254 13.4207 14 16.6501 14ZM35.11 17.172C35.6953 16.8742 36.382 16.9053 36.9407 17.2573C37.4993 17.6079 37.8327 18.217 37.8327 18.883V29.1178C37.8327 29.7852 37.4993 30.393 36.9407 30.7435C36.6353 30.9344 36.294 31.0319 35.95 31.0319C35.6633 31.0319 35.3767 30.9642 35.1086 30.8275L33.134 29.8312C32.4033 29.4603 31.95 28.7158 31.95 27.8887V20.1107C31.95 19.2823 32.4033 18.5378 33.134 18.1696L35.11 17.172Z" fill="white"/>
</svg>
