<svg width="49" height="48" viewBox="0 0 49 48" fill="none" xmlns="http://www.w3.org/2000/svg">
<rect x="0.5" width="48" height="48" rx="18" fill="#28C76F"/>
<path fill-rule="evenodd" clip-rule="evenodd" d="M26.4327 14.5072H30.526C35.446 14.5072 37.846 17.1339 37.8327 22.5205V29.0139C37.8327 34.1605 34.6593 37.3339 29.4993 37.3339H19.486C14.3527 37.3339 11.166 34.1605 11.166 29.0005V18.9872C11.166 13.4672 13.6193 10.6672 18.4593 10.6672H20.566C21.8073 10.6539 22.966 11.2272 23.726 12.2006L24.8993 13.7606C25.2727 14.2272 25.8327 14.5072 26.4327 14.5072ZM18.326 28.3872H30.6727C31.2193 28.3872 31.6593 27.9339 31.6593 27.3872C31.6593 26.8272 31.2193 26.3872 30.6727 26.3872H18.326C17.766 26.3872 17.326 26.8272 17.326 27.3872C17.326 27.9339 17.766 28.3872 18.326 28.3872Z" fill="white"/>
</svg>
