<svg width="32" height="32" viewBox="0 0 32 32" fill="none" xmlns="http://www.w3.org/2000/svg">
<path d="M6.625 29.1875H4.75V2.8125C4.75 1.25919 6.00919 0 7.5625 0H29.125V26.375C29.125 27.4106 28.2856 28.25 27.25 28.25H7.5625C7.04612 28.25 6.625 28.6702 6.625 29.1875Z" fill="#4D4D99"/>
<path d="M17.875 28.25H27.25C28.2854 28.25 29.125 27.4104 29.125 26.375V0H17.875V28.25Z" fill="#333366"/>
<path d="M29.125 32H7.5625C6.01163 32 4.75 30.7384 4.75 29.1875C4.75 27.6366 6.01163 26.375 7.5625 26.375H29.125V32Z" fill="#ECF2FF"/>
<path d="M2.875 3.875H8.5V5.75H2.875V3.875Z" fill="#ECF2FF"/>
<path d="M2.875 9.5H8.5V11.375H2.875V9.5Z" fill="#ECF2FF"/>
<path d="M2.875 15.125H8.5V17H2.875V15.125Z" fill="#ECF2FF"/>
<path d="M2.875 20.75H8.5V22.625H2.875V20.75Z" fill="#ECF2FF"/>
<path d="M17.875 21.6875C13.7386 21.6875 10.375 18.3229 10.375 14.1875C10.375 10.0521 13.7386 6.6875 17.875 6.6875C22.0114 6.6875 25.375 10.0521 25.375 14.1875C25.375 18.3229 22.0114 21.6875 17.875 21.6875Z" fill="#6699FF"/>
<path d="M25.375 14.1875C25.375 10.0521 22.0114 6.6875 17.875 6.6875V21.6875C22.0114 21.6875 25.375 18.3229 25.375 14.1875Z" fill="#6666FF"/>
<path d="M16.9375 14.1875H18.8125V17.9375H16.9375V14.1875Z" fill="#ECF2FF"/>
<path d="M16.9375 10.4375H18.8125V12.3125H16.9375V10.4375Z" fill="#ECF2FF"/>
<path d="M17.875 14.1875H18.8125V17.9375H17.875V14.1875Z" fill="#D9E5FF"/>
<path d="M17.875 10.4375H18.8125V12.3125H17.875V10.4375Z" fill="#D9E5FF"/>
<path d="M17.875 26.375H29.125V32H17.875V26.375Z" fill="#D9E5FF"/>
</svg>
