<svg width="27" height="28" viewBox="0 0 27 28" fill="none" xmlns="http://www.w3.org/2000/svg">
<path d="M10.5894 1.69166V5.11046C10.5894 5.38248 10.4814 5.64335 10.289 5.8357C10.0967 6.02804 9.83579 6.1361 9.56378 6.1361C9.29176 6.1361 9.03088 6.02804 8.83854 5.8357C8.64619 5.64335 8.53814 5.38248 8.53814 5.11046V1.69166C8.53814 1.41964 8.64619 1.15876 8.83854 0.966419C9.03088 0.774074 9.29176 0.666016 9.56378 0.666016C9.83579 0.666016 10.0967 0.774074 10.289 0.966419C10.4814 1.15876 10.5894 1.41964 10.5894 1.69166Z" fill="#A2AEBD"/>
<path d="M26.5347 5.8626C26.4709 4.98193 26.0913 4.15392 25.4656 3.53082C24.84 2.90772 24.0105 2.53143 23.1296 2.47114C22.2407 2.40277 21.2287 2.33439 20.1621 2.27969V5.11046C20.1621 5.74517 19.9099 6.35388 19.4611 6.80268C19.0123 7.25149 18.4036 7.50362 17.7689 7.50362C17.1342 7.50362 16.5255 7.25149 16.0767 6.80268C15.6279 6.35388 15.3757 5.74517 15.3757 5.11046V2.03354H11.9569V5.11046C11.9569 5.74517 11.7048 6.35388 11.256 6.80268C10.8072 7.25149 10.1985 7.50362 9.56378 7.50362C8.92907 7.50362 8.32036 7.25149 7.87156 6.80268C7.42275 6.35388 7.17061 5.74517 7.17061 5.11046V2.27969C6.10395 2.27969 5.09198 2.40277 4.18942 2.47114C3.30949 2.53422 2.48153 2.9114 1.85647 3.53395C1.23142 4.15649 0.850902 4.98293 0.78429 5.8626C0.579162 8.39251 0.333008 11.9754 0.333008 14.6831C0.333008 17.3908 0.579162 20.9874 0.78429 23.5173C0.851267 24.3955 1.23228 25.2203 1.85759 25.8405C2.4829 26.4608 3.31068 26.8352 4.18942 26.8951C6.92446 27.1002 10.7809 27.3327 13.6663 27.3327C16.5518 27.3327 20.3945 27.1002 23.1296 26.8951C24.0093 26.838 24.8387 26.4645 25.4645 25.8437C26.0904 25.2228 26.4705 24.3965 26.5347 23.5173C26.7535 20.9874 26.9997 17.4045 26.9997 14.6831C26.9997 11.9617 26.7535 8.39251 26.5347 5.8626ZM8.19626 19.5378C7.83357 19.5378 7.48573 19.3937 7.22927 19.1373C6.97281 18.8808 6.82873 18.533 6.82873 18.1703C6.82873 17.8076 6.97281 17.4598 7.22927 17.2033C7.48573 16.9468 7.83357 16.8028 8.19626 16.8028C8.55894 16.8028 8.90678 16.9468 9.16324 17.2033C9.4197 17.4598 9.56378 17.8076 9.56378 18.1703C9.56378 18.533 9.4197 18.8808 9.16324 19.1373C8.90678 19.3937 8.55894 19.5378 8.19626 19.5378ZM8.19626 14.0677C7.83357 14.0677 7.48573 13.9236 7.22927 13.6672C6.97281 13.4107 6.82873 13.0629 6.82873 12.7002C6.82873 12.3375 6.97281 11.9897 7.22927 11.7332C7.48573 11.4768 7.83357 11.3327 8.19626 11.3327C8.55894 11.3327 8.90678 11.4768 9.16324 11.7332C9.4197 11.9897 9.56378 12.3375 9.56378 12.7002C9.56378 13.0629 9.4197 13.4107 9.16324 13.6672C8.90678 13.9236 8.55894 14.0677 8.19626 14.0677ZM13.6663 19.5378C13.3037 19.5378 12.9558 19.3937 12.6994 19.1373C12.4429 18.8808 12.2988 18.533 12.2988 18.1703C12.2988 17.8076 12.4429 17.4598 12.6994 17.2033C12.9558 16.9468 13.3037 16.8028 13.6663 16.8028C14.029 16.8028 14.3769 16.9468 14.6333 17.2033C14.8898 17.4598 15.0339 17.8076 15.0339 18.1703C15.0339 18.533 14.8898 18.8808 14.6333 19.1373C14.3769 19.3937 14.029 19.5378 13.6663 19.5378ZM13.6663 14.0677C13.3037 14.0677 12.9558 13.9236 12.6994 13.6672C12.4429 13.4107 12.2988 13.0629 12.2988 12.7002C12.2988 12.3375 12.4429 11.9897 12.6994 11.7332C12.9558 11.4768 13.3037 11.3327 13.6663 11.3327C14.029 11.3327 14.3769 11.4768 14.6333 11.7332C14.8898 11.9897 15.0339 12.3375 15.0339 12.7002C15.0339 13.0629 14.8898 13.4107 14.6333 13.6672C14.3769 13.9236 14.029 14.0677 13.6663 14.0677ZM19.1364 14.0677C18.7737 14.0677 18.4259 13.9236 18.1694 13.6672C17.913 13.4107 17.7689 13.0629 17.7689 12.7002C17.7689 12.3375 17.913 11.9897 18.1694 11.7332C18.4259 11.4768 18.7737 11.3327 19.1364 11.3327C19.4991 11.3327 19.847 11.4768 20.1034 11.7332C20.3599 11.9897 20.5039 12.3375 20.5039 12.7002C20.5039 13.0629 20.3599 13.4107 20.1034 13.6672C19.847 13.9236 19.4991 14.0677 19.1364 14.0677Z" fill="#A2AEBD"/>
<path d="M18.7945 1.69166V5.11046C18.7945 5.38248 18.6865 5.64335 18.4941 5.8357C18.3018 6.02804 18.0409 6.1361 17.7689 6.1361C17.4969 6.1361 17.236 6.02804 17.0437 5.8357C16.8513 5.64335 16.7433 5.38248 16.7433 5.11046V1.69166C16.7433 1.41964 16.8513 1.15876 17.0437 0.966419C17.236 0.774074 17.4969 0.666016 17.7689 0.666016C18.0409 0.666016 18.3018 0.774074 18.4941 0.966419C18.6865 1.15876 18.7945 1.41964 18.7945 1.69166Z" fill="#A2AEBD"/>
</svg>
