<svg width="56" height="56" viewBox="0 0 56 56" fill="none" xmlns="http://www.w3.org/2000/svg">
<path d="M0 18C0 8.05888 8.05887 0 18 0H38C47.9411 0 56 8.05887 56 18V38C56 47.9411 47.9411 56 38 56H18C8.05888 56 0 47.9411 0 38V18Z" fill="#F85B9F"/>
<g clip-path="url(#clip0_6959_23604)">
<path d="M27.8093 29.8669C30.8967 29.8669 33.6967 31.1232 35.7258 33.1504L33.0863 35.7899C31.7349 34.4384 29.8682 33.6003 27.8093 33.6003C25.7503 33.6003 23.8837 34.4384 22.5322 35.7899L19.8927 33.1504C20.931 32.1087 22.1649 31.2824 23.5234 30.7189C24.882 30.1555 26.3385 29.8659 27.8093 29.8669ZM14.6101 27.8677C18.1362 24.3416 22.8234 22.4003 27.8093 22.4003C32.7951 22.4003 37.4823 24.3416 41.0085 27.8677L38.369 30.5072C35.5485 27.6867 31.7983 26.1336 27.8093 26.1336C23.8202 26.1336 20.0701 27.6867 17.2495 30.5072L14.6101 27.8677ZM37.9826 16.9888C41.0875 18.3009 43.9085 20.2027 46.2893 22.5888L43.6498 25.2283C39.4181 20.9984 33.7938 18.6669 27.8111 18.6669C21.8285 18.6669 16.2023 20.9965 11.9725 25.2283L9.33301 22.5888C11.757 20.1581 14.6375 18.2305 17.8089 16.9167C20.9804 15.603 24.3802 14.929 27.813 14.9336C31.341 14.9336 34.7626 15.6243 37.9863 16.9888H37.9826ZM25.9426 39.2003C25.9426 38.7052 26.1393 38.2304 26.4893 37.8804C26.8394 37.5303 27.3142 37.3336 27.8093 37.3336C28.3043 37.3336 28.7791 37.5303 29.1292 37.8804C29.4793 38.2304 29.6759 38.7052 29.6759 39.2003C29.6759 39.6954 29.4793 40.1701 29.1292 40.5202C28.7791 40.8703 28.3043 41.0669 27.8093 41.0669C27.3142 41.0669 26.8394 40.8703 26.4893 40.5202C26.1393 40.1701 25.9426 39.6954 25.9426 39.2003Z" fill="white"/>
</g>
<defs>
<clipPath id="clip0_6959_23604">
<rect width="37.3333" height="37.3333" fill="white" transform="translate(9.33301 9.33398)"/>
</clipPath>
</defs>
</svg>
