<svg width="49" height="48" viewBox="0 0 49 48" fill="none" xmlns="http://www.w3.org/2000/svg">
<rect x="0.5" width="48" height="48" rx="18" fill="#F85B9F"/>
<path d="M37.102 28.3839V19.6161C38.0348 19.2427 38.6957 18.3302 38.6957 17.2656C38.6957 15.8699 37.5602 14.7344 36.1645 14.7344C35.5736 14.7344 35.0298 14.9384 34.5986 15.2791L27.005 10.8948C27.0222 10.776 27.0315 10.6547 27.0315 10.5312C27.0315 9.1355 25.896 8 24.5002 8C23.1045 8 21.969 9.1355 21.969 10.5312C21.969 10.6547 21.9783 10.7761 21.9955 10.8948L14.4018 15.2791C13.9706 14.9384 13.4268 14.7344 12.8359 14.7344C11.4402 14.7344 10.3047 15.8699 10.3047 17.2656C10.3047 18.3302 10.9656 19.2427 11.8984 19.6161V28.3839C10.9656 28.7573 10.3047 29.6698 10.3047 30.7344C10.3047 32.1301 11.4402 33.2656 12.8359 33.2656C13.4268 33.2656 13.9706 33.0616 14.4018 32.7209L21.9955 37.1052C21.9783 37.224 21.969 37.3453 21.969 37.4687C21.969 38.8645 23.1045 40 24.5002 40C25.896 40 27.0315 38.8645 27.0315 37.4687C27.0315 37.3452 27.0222 37.2239 27.005 37.1052L34.5987 32.7209C35.0299 33.0616 35.5737 33.2656 36.1646 33.2656C37.5603 33.2656 38.6958 32.1301 38.6958 30.7344C38.6957 29.6698 38.0348 28.7572 37.102 28.3839ZM13.7734 28.3838V19.6161C14.0011 19.5251 14.2123 19.4019 14.4018 19.2522L20.5528 22.8035C20.4377 23.1824 20.3752 23.584 20.3752 24C20.3752 24.416 20.4377 24.8176 20.5528 25.1965L14.4018 28.7477C14.2123 28.5981 14.0011 28.4749 13.7734 28.3838ZM23.5627 35.1182C23.3352 35.2093 23.1239 35.3324 22.9344 35.4821L15.3407 31.0979C15.3579 30.9791 15.3672 30.8577 15.3672 30.7343C15.3672 30.6109 15.3579 30.4896 15.3407 30.3707L21.4927 26.8189C22.0409 27.4033 22.7566 27.8281 23.5627 28.0162V35.1182ZM23.5627 19.9837C22.7566 20.1719 22.0409 20.5966 21.4927 21.1811L15.3407 17.6292C15.3579 17.5104 15.3672 17.3891 15.3672 17.2656C15.3672 17.1421 15.3579 17.0207 15.3407 16.902L22.9344 12.5177C23.1239 12.6676 23.3352 12.7907 23.5627 12.8817V19.9837ZM25.4377 12.8817C25.6653 12.7906 25.8766 12.6675 26.0661 12.5178L33.6598 16.902C33.6426 17.0208 33.6333 17.1421 33.6333 17.2656C33.6333 17.3891 33.6426 17.5104 33.6597 17.6292L27.5077 21.1811C26.9596 20.5967 26.2439 20.1719 25.4377 19.9838V12.8817ZM33.6597 31.098L26.0661 35.4822C25.8766 35.3324 25.6653 35.2093 25.4377 35.1182V28.0162C26.2439 27.8281 26.9596 27.4034 27.5077 26.8189L33.6597 30.3708C33.6426 30.4896 33.6332 30.6109 33.6332 30.7344C33.6332 30.8579 33.6426 30.9792 33.6597 31.098ZM35.2271 28.3839C34.9994 28.4749 34.7882 28.5981 34.5987 28.7478L28.4477 25.1966C28.5627 24.8176 28.6252 24.416 28.6252 24C28.6252 23.584 28.5627 23.1824 28.4477 22.8035L34.5987 19.2522C34.7882 19.4019 34.9994 19.5251 35.2271 19.6162V28.3839Z" fill="white"/>
</svg>
