<svg width="49" height="48" viewBox="0 0 49 48" fill="none" xmlns="http://www.w3.org/2000/svg">
<rect x="0.5" width="48" height="48" rx="18" fill="#2D9CDB"/>
<path fill-rule="evenodd" clip-rule="evenodd" d="M30.3812 11.6918L30.3825 12.6913C34.0553 12.9792 36.4815 15.4819 36.4855 19.32L36.5 30.5544C36.5052 34.7389 33.8763 37.3136 29.6624 37.3203L19.3692 37.3336C15.1816 37.339 12.5198 34.7029 12.5145 30.5064L12.5 19.404C12.4947 15.5406 14.8354 13.0445 18.5082 12.7073L18.5069 11.7078C18.5056 11.1214 18.94 10.6803 19.5193 10.6803C20.0985 10.679 20.5329 11.1188 20.5342 11.7051L20.5355 12.638L28.3552 12.6273L28.3539 11.6945C28.3525 11.1081 28.787 10.6683 29.3662 10.667C29.9323 10.6657 30.3799 11.1054 30.3812 11.6918ZM14.5286 19.8157L34.4595 19.7891V19.3227C34.4029 16.4574 32.9653 14.9542 30.3851 14.7303L30.3864 15.7564C30.3864 16.3295 29.9402 16.7839 29.3741 16.7839C28.7949 16.7853 28.3591 16.3322 28.3591 15.7591L28.3578 14.6797L20.5382 14.6903L20.5395 15.7684C20.5395 16.3428 20.1064 16.7959 19.5272 16.7959C18.9479 16.7973 18.5122 16.3455 18.5122 15.7711L18.5109 14.745C15.9438 15.0022 14.5234 16.5107 14.5273 19.4013L14.5286 19.8157ZM28.8199 25.8727V25.8874C28.833 26.5004 29.3333 26.9655 29.9402 26.9522C30.5326 26.9375 31.0052 26.4298 30.992 25.8167C30.9644 25.2304 30.4891 24.7519 29.898 24.7533C29.2925 24.7666 28.8186 25.2597 28.8199 25.8727ZM29.9073 31.8564C29.3017 31.8431 28.8133 31.338 28.812 30.7249C28.7988 30.1119 29.2846 29.6042 29.8901 29.5895H29.9033C30.522 29.5895 31.0236 30.0946 31.0236 30.7209C31.0249 31.3473 30.5247 31.855 29.9073 31.8564ZM23.3962 25.894C23.4225 26.5071 23.924 26.9855 24.5296 26.9588C25.122 26.9308 25.5946 26.4244 25.5683 25.8114C25.5538 25.2117 25.0667 24.7453 24.4743 24.7466C23.8688 24.7733 23.3948 25.281 23.3962 25.894ZM24.5349 31.7964C23.9293 31.8231 23.4291 31.3446 23.4014 30.7316C23.4014 30.1186 23.874 29.6122 24.4796 29.5842C25.072 29.5829 25.5604 30.0493 25.5735 30.6476C25.6012 31.262 25.1273 31.7684 24.5349 31.7964ZM17.9724 25.9407C17.9988 26.5537 18.5003 27.0335 19.1059 27.0055C19.6983 26.9788 20.1709 26.4711 20.1432 25.8581C20.1301 25.2584 19.643 24.7919 19.0493 24.7933C18.4437 24.8199 17.9711 25.3277 17.9724 25.9407ZM19.1112 31.8031C18.5056 31.8311 18.0054 31.3513 17.9777 30.7383C17.9764 30.1252 18.4503 29.6175 19.0559 29.5908C19.6483 29.5895 20.1367 30.0559 20.1498 30.6556C20.1775 31.2687 19.7049 31.7764 19.1112 31.8031Z" fill="white"/>
</svg>
