<svg width="32" height="32" viewBox="0 0 32 32" fill="none" xmlns="http://www.w3.org/2000/svg">
<g clip-path="url(#clip0_1795_32851)">
<path d="M15.3896 26.667H3.19966C2.02147 26.667 1.06641 25.7119 1.06641 24.5338V22.4004H17.4387L15.3896 26.667Z" fill="#D3DCFB"/>
<path d="M28.8018 9.59998V18.5624V24.5332H3.19966C2.02147 24.5332 1.06641 23.5781 1.06641 22.3999V9.59998L16.0008 4.2666L28.8018 9.59998Z" fill="#EBF5FC"/>
<path d="M4.83449 13.8667H3.70117C3.42505 13.8667 3.20117 13.6428 3.20117 13.3667V12.2334C3.20117 11.9573 3.42505 11.7334 3.70117 11.7334H4.83449C5.11061 11.7334 5.33449 11.9573 5.33449 12.2334V13.3667C5.33449 13.6428 5.11061 13.8667 4.83449 13.8667Z" fill="#3C58A0"/>
<path d="M9.10206 13.8667H7.96875C7.69263 13.8667 7.46875 13.6428 7.46875 13.3667V12.2334C7.46875 11.9573 7.69263 11.7334 7.96875 11.7334H9.10206C9.37819 11.7334 9.60206 11.9573 9.60206 12.2334V13.3667C9.60206 13.6428 9.37819 13.8667 9.10206 13.8667Z" fill="#3C58A0"/>
<path d="M13.3677 13.8667H12.2344C11.9582 13.8667 11.7344 13.6428 11.7344 13.3667V12.2334C11.7344 11.9573 11.9582 11.7334 12.2344 11.7334H13.3677C13.6438 11.7334 13.8677 11.9573 13.8677 12.2334V13.3667C13.8677 13.6428 13.6439 13.8667 13.3677 13.8667Z" fill="#3C58A0"/>
<path d="M17.6353 13.8667H16.502C16.2258 13.8667 16.002 13.6428 16.002 13.3667V12.2334C16.002 11.9573 16.2258 11.7334 16.502 11.7334H17.6353C17.9114 11.7334 18.1353 11.9573 18.1353 12.2334V13.3667C18.1353 13.6428 17.9114 13.8667 17.6353 13.8667Z" fill="#3C58A0"/>
<path d="M21.9009 13.8667H20.7676C20.4915 13.8667 20.2676 13.6428 20.2676 13.3667V12.2334C20.2676 11.9573 20.4915 11.7334 20.7676 11.7334H21.9009C22.177 11.7334 22.4009 11.9573 22.4009 12.2334V13.3667C22.4009 13.6428 22.1771 13.8667 21.9009 13.8667Z" fill="#3C58A0"/>
<path d="M26.1665 13.8667H25.0332C24.7571 13.8667 24.5332 13.6428 24.5332 13.3667V12.2334C24.5332 11.9573 24.7571 11.7334 25.0332 11.7334H26.1665C26.4426 11.7334 26.6665 11.9573 26.6665 12.2334V13.3667C26.6665 13.6428 26.4426 13.8667 26.1665 13.8667Z" fill="#3C58A0"/>
<path d="M4.83449 18.1333H3.70117C3.42505 18.1333 3.20117 17.9094 3.20117 17.6333V16.5C3.20117 16.2239 3.42505 16 3.70117 16H4.83449C5.11061 16 5.33449 16.2239 5.33449 16.5V17.6333C5.33449 17.9095 5.11061 18.1333 4.83449 18.1333Z" fill="#3C58A0"/>
<path d="M9.10206 18.1333H7.96875C7.69263 18.1333 7.46875 17.9094 7.46875 17.6333V16.5C7.46875 16.2239 7.69263 16 7.96875 16H9.10206C9.37819 16 9.60206 16.2239 9.60206 16.5V17.6333C9.60206 17.9095 9.37819 18.1333 9.10206 18.1333Z" fill="#3C58A0"/>
<path d="M13.3677 18.1333H12.2344C11.9582 18.1333 11.7344 17.9094 11.7344 17.6333V16.5C11.7344 16.2239 11.9582 16 12.2344 16H13.3677C13.6438 16 13.8677 16.2239 13.8677 16.5V17.6333C13.8677 17.9095 13.6439 18.1333 13.3677 18.1333Z" fill="#3C58A0"/>
<path d="M18.1353 18.1333V16.5333C18.1353 16.2387 17.8965 16 17.602 16H16.5353C16.2407 16 16.002 16.2387 16.002 16.5333V17.6C16.002 17.8946 16.2408 18.1333 16.5353 18.1333H18.1353Z" fill="#3C58A0"/>
<path d="M4.83449 22.3999H3.70117C3.42505 22.3999 3.20117 22.176 3.20117 21.8999V20.7666C3.20117 20.4905 3.42505 20.2666 3.70117 20.2666H4.83449C5.11061 20.2666 5.33449 20.4905 5.33449 20.7666V21.8999C5.33449 22.176 5.11061 22.3999 4.83449 22.3999Z" fill="#3C58A0"/>
<path d="M9.10206 22.3999H7.96875C7.69263 22.3999 7.46875 22.176 7.46875 21.8999V20.7666C7.46875 20.4905 7.69263 20.2666 7.96875 20.2666H9.10206C9.37819 20.2666 9.60206 20.4905 9.60206 20.7666V21.8999C9.60206 22.176 9.37819 22.3999 9.10206 22.3999Z" fill="#3C58A0"/>
<path d="M13.3677 22.3999H12.2344C11.9582 22.3999 11.7344 22.176 11.7344 21.8999V20.7666C11.7344 20.4905 11.9582 20.2666 12.2344 20.2666H13.3677C13.6438 20.2666 13.8677 20.4905 13.8677 20.7666V21.8999C13.8677 22.176 13.6439 22.3999 13.3677 22.3999Z" fill="#3C58A0"/>
<path d="M26.1514 11.7334H25.0483C24.9815 11.7334 24.9179 11.7465 24.8594 11.7696C25.0503 11.845 25.1856 12.0307 25.1856 12.2485V13.3516C25.1856 13.5693 25.0502 13.7551 24.8594 13.8305C24.9179 13.8536 24.9815 13.8667 25.0483 13.8667H26.1514C26.4359 13.8667 26.6665 13.6361 26.6665 13.3516V12.2485C26.6664 11.964 26.4358 11.7334 26.1514 11.7334Z" fill="#2A428C"/>
<path d="M21.8838 11.7334H20.7807C20.7139 11.7334 20.6504 11.7465 20.5918 11.7696C20.7827 11.845 20.918 12.0307 20.918 12.2485V13.3516C20.918 13.5693 20.7827 13.7551 20.5918 13.8305C20.6504 13.8536 20.7139 13.8667 20.7807 13.8667H21.8838C22.1683 13.8667 22.3989 13.6361 22.3989 13.3516V12.2485C22.3989 11.964 22.1683 11.7334 21.8838 11.7334Z" fill="#2A428C"/>
<path d="M17.6182 11.7334H16.515C16.4483 11.7334 16.3847 11.7465 16.3262 11.7696C16.5171 11.845 16.6524 12.0307 16.6524 12.2485V13.3516C16.6524 13.5693 16.5171 13.7551 16.3262 13.8305C16.3847 13.8536 16.4483 13.8667 16.515 13.8667H17.6182C17.9027 13.8667 18.1333 13.6361 18.1333 13.3516V12.2485C18.1332 11.964 17.9026 11.7334 17.6182 11.7334Z" fill="#2A428C"/>
<path d="M13.3525 11.7334H12.2494C12.1827 11.7334 12.1191 11.7465 12.0605 11.7696C12.2515 11.845 12.3868 12.0307 12.3868 12.2485V13.3516C12.3868 13.5693 12.2515 13.7551 12.0605 13.8305C12.1191 13.8536 12.1827 13.8667 12.2494 13.8667H13.3525C13.637 13.8667 13.8677 13.6361 13.8677 13.3516V12.2485C13.8676 11.964 13.637 11.7334 13.3525 11.7334Z" fill="#2A428C"/>
<path d="M9.08496 11.7334H7.98184C7.91509 11.7334 7.85153 11.7465 7.79297 11.7696C7.98391 11.845 8.11915 12.0307 8.11915 12.2485V13.3516C8.11915 13.5693 7.98384 13.7551 7.79297 13.8305C7.85153 13.8536 7.91509 13.8667 7.98184 13.8667H9.08496C9.36946 13.8667 9.60009 13.6361 9.60009 13.3516V12.2485C9.60009 11.964 9.36946 11.7334 9.08496 11.7334Z" fill="#2A428C"/>
<path d="M4.81934 11.7334H3.71622C3.64947 11.7334 3.58591 11.7465 3.52734 11.7696C3.71828 11.845 3.85359 12.0307 3.85359 12.2485V13.3516C3.85359 13.5693 3.71828 13.7551 3.52734 13.8305C3.58591 13.8536 3.64947 13.8667 3.71622 13.8667H4.81934C5.10384 13.8667 5.33446 13.6361 5.33446 13.3516V12.2485C5.3344 11.964 5.10378 11.7334 4.81934 11.7334Z" fill="#2A428C"/>
<path d="M4.81934 16H3.71622C3.64947 16 3.58591 16.0131 3.52734 16.0362C3.71828 16.1116 3.85359 16.2973 3.85359 16.5151V17.6182C3.85359 17.836 3.71828 18.0217 3.52734 18.0971C3.58591 18.1202 3.64947 18.1334 3.71622 18.1334H4.81934C5.10384 18.1334 5.33446 17.9028 5.33446 17.6183V16.5151C5.3344 16.2306 5.10378 16 4.81934 16Z" fill="#2A428C"/>
<path d="M4.81934 20.2666H3.71622C3.64947 20.2666 3.58591 20.2797 3.52734 20.3028C3.71828 20.3782 3.85359 20.5639 3.85359 20.7817V21.8849C3.85359 22.1026 3.71828 22.2884 3.52734 22.3637C3.58591 22.3869 3.64947 22.4 3.71622 22.4H4.81934C5.10384 22.4 5.33446 22.1694 5.33446 21.8849V20.7817C5.3344 20.4972 5.10378 20.2666 4.81934 20.2666Z" fill="#2A428C"/>
<path d="M9.08496 16H7.98184C7.91509 16 7.85153 16.0131 7.79297 16.0362C7.98391 16.1116 8.11915 16.2973 8.11915 16.5151V17.6182C8.11915 17.836 7.98384 18.0217 7.79297 18.0971C7.85153 18.1202 7.91509 18.1334 7.98184 18.1334H9.08496C9.36946 18.1334 9.60009 17.9028 9.60009 17.6183V16.5151C9.60009 16.2306 9.36946 16 9.08496 16Z" fill="#2A428C"/>
<path d="M9.08496 20.2666H7.98184C7.91509 20.2666 7.85153 20.2797 7.79297 20.3028C7.98391 20.3782 8.11915 20.5639 8.11915 20.7817V21.8849C8.11915 22.1026 7.98384 22.2884 7.79297 22.3637C7.85153 22.3869 7.91509 22.4 7.98184 22.4H9.08496C9.36946 22.4 9.60009 22.1694 9.60009 21.8849V20.7817C9.60009 20.4972 9.36946 20.2666 9.08496 20.2666Z" fill="#2A428C"/>
<path d="M13.3525 16H12.2494C12.1827 16 12.1191 16.0131 12.0605 16.0362C12.2515 16.1116 12.3868 16.2973 12.3868 16.5151V17.6182C12.3868 17.836 12.2515 18.0217 12.0605 18.0971C12.1191 18.1202 12.1827 18.1334 12.2494 18.1334H13.3525C13.637 18.1334 13.8677 17.9028 13.8677 17.6183V16.5151C13.8676 16.2306 13.637 16 13.3525 16Z" fill="#2A428C"/>
<path d="M18.1333 18.1333V16.5151C18.1333 16.2306 17.9027 16 17.6182 16H16.515C16.4483 16 16.3847 16.0131 16.3262 16.0362C16.5171 16.1116 16.6524 16.2973 16.6524 16.5151V17.6182C16.6524 17.836 16.5171 18.0217 16.3262 18.0971C16.3847 18.1202 16.4483 18.1334 16.515 18.1334H18.1333V18.1333Z" fill="#2A428C"/>
<path d="M13.3525 20.2666H12.2494C12.1827 20.2666 12.1191 20.2797 12.0605 20.3028C12.2515 20.3782 12.3868 20.5639 12.3868 20.7817V21.8849C12.3868 22.1026 12.2515 22.2884 12.0605 22.3637C12.1191 22.3869 12.1827 22.4 12.2494 22.4H13.3525C13.637 22.4 13.8677 22.1694 13.8677 21.8849V20.7817C13.8676 20.4972 13.637 20.2666 13.3525 20.2666Z" fill="#2A428C"/>
<path d="M27.3203 8.98242V18.5622V24.5332H28.8023V18.5622V9.59986L27.3203 8.98242Z" fill="#D3DCFB"/>
<path d="M28.8018 9.60041V4.26704C28.8018 3.08885 27.8467 2.13379 26.6685 2.13379H3.19966C2.02147 2.13379 1.06641 3.08885 1.06641 4.26704V9.60041H28.8018Z" fill="#FF4155"/>
<path d="M7.78745 4.74993H6.39889C6.13214 4.74993 5.91602 4.53374 5.91602 4.26705C5.91602 4.00037 6.1322 3.78418 6.39889 3.78418H7.78745C8.0542 3.78418 8.27033 4.00037 8.27033 4.26705C8.27033 4.53374 8.05414 4.74993 7.78745 4.74993Z" fill="#E80054"/>
<path d="M11.1996 4.74993H9.811C9.54425 4.74993 9.32812 4.53374 9.32812 4.26705C9.32812 4.00037 9.54431 3.78418 9.811 3.78418H11.1996C11.4663 3.78418 11.6824 4.00037 11.6824 4.26705C11.6824 4.53374 11.4663 4.74993 11.1996 4.74993Z" fill="#E80054"/>
<path d="M20.0551 4.74993H18.6665C18.3997 4.74993 18.1836 4.53374 18.1836 4.26705C18.1836 4.00037 18.3998 3.78418 18.6665 3.78418H20.0551C20.3218 3.78418 20.538 4.00037 20.538 4.26705C20.538 4.53374 20.3218 4.74993 20.0551 4.74993Z" fill="#E80054"/>
<path d="M23.4672 4.74993H22.0786C21.8118 4.74993 21.5957 4.53374 21.5957 4.26705C21.5957 4.00037 21.8119 3.78418 22.0786 3.78418H23.4672C23.734 3.78418 23.9501 4.00037 23.9501 4.26705C23.9501 4.53374 23.7339 4.74993 23.4672 4.74993Z" fill="#E80054"/>
<path d="M10.1334 4C10.1334 4.73637 9.53648 5.33331 8.80011 5.33331C8.06373 5.33331 7.4668 4.73637 7.4668 4V1.33331C7.46673 0.596938 8.06367 0 8.80005 0C9.53642 0 10.1334 0.596938 10.1334 1.33331V4H10.1334Z" fill="#EBF5FC"/>
<path d="M22.4011 4C22.4011 4.73637 21.8041 5.33331 21.0677 5.33331C20.3314 5.33331 19.7344 4.73637 19.7344 4V1.33331C19.7344 0.596938 20.3313 0 21.0677 0C21.8041 0 22.401 0.596938 22.401 1.33331V4H22.4011Z" fill="#EBF5FC"/>
<path d="M21.0679 0C20.7941 0 20.5399 0.08275 20.3281 0.22425C20.6859 0.463375 20.9217 0.870687 20.9217 1.33337V4C20.9217 4.46263 20.6859 4.87 20.3281 5.10913C20.5398 5.25056 20.7941 5.33337 21.0679 5.33337C21.8042 5.33337 22.4012 4.73644 22.4012 4.00006V1.33331C22.4013 0.596938 21.8043 0 21.0679 0V0Z" fill="#D3DCFB"/>
<path d="M8.8003 0C8.52655 0 8.2723 0.08275 8.06055 0.22425C8.41836 0.463375 8.65417 0.870687 8.65417 1.33337V4C8.65417 4.46263 8.41836 4.87 8.06055 5.10913C8.27223 5.25056 8.52655 5.33337 8.8003 5.33337C9.53667 5.33337 10.1336 4.73644 10.1336 4.00006V1.33331C10.1337 0.596938 9.53673 0 8.8003 0V0Z" fill="#D3DCFB"/>
<path d="M26.6689 2.13379H25.1875C26.3657 2.13379 27.3207 3.08885 27.3207 4.26704V9.60048H28.8021V4.2671C28.8022 3.08891 27.8471 2.13379 26.6689 2.13379Z" fill="#E80054"/>
<path d="M1.06641 6.98438H28.8018V7.95019H1.06641V6.98438Z" fill="#E80054"/>
<path d="M22.9336 32C27.3519 32 30.9336 28.4183 30.9336 24C30.9336 19.5817 27.3519 16 22.9336 16C18.5153 16 14.9336 19.5817 14.9336 24C14.9336 28.4183 18.5153 32 22.9336 32Z" fill="#4FABF7"/>
<path d="M22.935 29.8662C26.1751 29.8662 28.8017 27.2396 28.8017 23.9995C28.8017 20.7594 26.1751 18.1328 22.935 18.1328C19.695 18.1328 17.0684 20.7594 17.0684 23.9995C17.0684 27.2396 19.695 29.8662 22.935 29.8662Z" fill="#EBF5FC"/>
<path d="M22.934 23.4166C22.6673 23.4166 22.4512 23.2004 22.4512 22.9337V20.2671C22.4512 20.0004 22.6674 19.7842 22.934 19.7842C23.2008 19.7842 23.4169 20.0004 23.4169 20.2671V22.9337C23.4169 23.2004 23.2007 23.4166 22.934 23.4166Z" fill="#3C58A0"/>
<path d="M25.6005 24.4833H24.0005C23.7337 24.4833 23.5176 24.2671 23.5176 24.0005C23.5176 23.7338 23.7338 23.5176 24.0005 23.5176H25.6005C25.8673 23.5176 26.0834 23.7338 26.0834 24.0005C26.0834 24.2671 25.8672 24.4833 25.6005 24.4833Z" fill="#3C58A0"/>
<path d="M22.9339 16C22.6842 16 22.4373 16.0121 22.1934 16.0344C26.2645 16.4081 29.4529 19.8314 29.4529 24C29.4529 28.1686 26.2644 31.5919 22.1934 31.9656C22.4372 31.9879 22.6841 32 22.9338 32C27.352 32 30.9338 28.4183 30.9338 24C30.9338 19.5817 27.3521 16 22.9339 16Z" fill="#1886EA"/>
<path d="M22.9333 18.1328C22.6827 18.1328 22.4357 18.1486 22.1934 18.1791C25.0841 18.5429 27.3201 21.0101 27.3201 23.9995C27.3201 26.9889 25.0841 29.4561 22.1934 29.8199C22.4357 29.8504 22.6827 29.8662 22.9333 29.8662C26.1734 29.8662 28.8 27.2396 28.8 23.9995C28.8 20.7594 26.1734 18.1328 22.9333 18.1328Z" fill="#D3DCFB"/>
<path d="M22.9339 25.067C23.523 25.067 24.0006 24.5894 24.0006 24.0003C24.0006 23.4112 23.523 22.9336 22.9339 22.9336C22.3448 22.9336 21.8672 23.4112 21.8672 24.0003C21.8672 24.5894 22.3448 25.067 22.9339 25.067Z" fill="#FFDD40"/>
</g>
<defs>
<clipPath id="clip0_1795_32851">
<rect width="32" height="32" fill="white"/>
</clipPath>
</defs>
</svg>
