<svg width="32" height="32" viewBox="0 0 32 32" fill="none" xmlns="http://www.w3.org/2000/svg">
<path d="M16 30.125C12.2271 30.125 8.67994 28.6558 6.01213 25.9879C3.34431 23.32 1.875 19.7729 1.875 16C1.875 12.2271 3.34425 8.67994 6.01213 6.01213C8.68 3.34431 12.2271 1.875 16 1.875C19.7729 1.875 23.3201 3.34425 25.9879 6.01213C28.6557 8.68 30.125 12.2271 30.125 16C30.125 19.7729 28.6558 23.3201 25.9879 25.9879C23.32 28.6557 19.7729 30.125 16 30.125ZM16 3.75C9.24531 3.75 3.75 9.24531 3.75 16C3.75 22.7547 9.24531 28.25 16 28.25C22.7547 28.25 28.25 22.7547 28.25 16C28.25 9.24531 22.7547 3.75 16 3.75Z" fill="#5E54AC"/>
<path d="M28.25 16C28.25 22.7547 22.7547 28.25 16 28.25V30.125C19.7729 30.125 23.3201 28.6558 25.9879 25.9879C28.6557 23.32 30.125 19.7729 30.125 16C30.125 12.2271 28.6558 8.67994 25.9879 6.01213C23.32 3.34431 19.7729 1.875 16 1.875V3.75C22.7547 3.75 28.25 9.24531 28.25 16Z" fill="#453D81"/>
<path d="M16 23.5C20.1421 23.5 23.5 20.1421 23.5 16C23.5 11.8579 20.1421 8.5 16 8.5C11.8579 8.5 8.5 11.8579 8.5 16C8.5 20.1421 11.8579 23.5 16 23.5Z" fill="#99DAFF"/>
<path d="M23.5 16C23.5 11.8579 20.1421 8.5 16 8.5V23.5C20.1421 23.5 23.5 20.1421 23.5 16Z" fill="#53ACF5"/>
<path d="M16 7.5625C11.3476 7.5625 7.5625 11.3476 7.5625 16C7.5625 20.6524 11.3476 24.4375 16 24.4375C20.6524 24.4375 24.4375 20.6524 24.4375 16C24.4375 11.3476 20.6524 7.5625 16 7.5625ZM16 22.5572C15.8728 22.493 15.4425 22.0752 15.048 20.7752C14.9238 20.3658 14.8172 19.9166 14.7295 19.4375H17.2706C17.1829 19.9165 17.0763 20.3658 16.9521 20.7752C16.5575 22.0752 16.1272 22.493 16 22.5572ZM14.4947 17.5625C14.4572 17.0548 14.4375 16.5314 14.4375 16C14.4375 15.4686 14.4572 14.9453 14.4947 14.4375H17.5053C17.5428 14.9453 17.5625 15.4686 17.5625 16C17.5625 16.5314 17.5428 17.0548 17.5053 17.5625H14.4947ZM9.4375 16C9.4375 15.4617 9.50312 14.9385 9.62594 14.4375H12.6157C12.5801 14.9569 12.5625 15.4809 12.5625 16C12.5625 16.5191 12.5802 17.0431 12.6157 17.5625H9.62594C9.50312 17.0615 9.4375 16.5383 9.4375 16ZM16 9.44281C16.1272 9.507 16.5575 9.92475 16.952 11.2247C17.0763 11.6342 17.1827 12.0834 17.2705 12.5625H14.7294C14.8171 12.0835 14.9237 11.6342 15.0479 11.2247C15.4425 9.92475 15.8728 9.507 16 9.44281ZM19.3843 14.4375H22.3741C22.4969 14.9385 22.5625 15.4617 22.5625 16C22.5625 16.5383 22.4969 17.0615 22.3741 17.5625H19.3843C19.4199 17.0431 19.4375 16.5191 19.4375 16C19.4375 15.4809 19.4198 14.9569 19.3843 14.4375ZM21.5878 12.5625H19.171C19.0131 11.5941 18.7837 10.6901 18.4796 9.92437C19.7731 10.4542 20.8611 11.3854 21.5878 12.5625ZM13.5204 9.92437C13.2163 10.6901 12.9869 11.594 12.829 12.5625H10.4122C11.1389 11.3854 12.2269 10.4542 13.5204 9.92437ZM10.4122 19.4375H12.829C12.9869 20.4059 13.2163 21.3099 13.5204 22.0756C12.2269 21.5457 11.1389 20.6146 10.4122 19.4375ZM18.4796 22.0756C18.7837 21.3099 19.0131 20.406 19.171 19.4375H21.5878C20.8611 20.6146 19.7731 21.5457 18.4796 22.0756Z" fill="#4793FF"/>
<path d="M16.952 11.2247C17.0762 11.6342 17.1828 12.0834 17.2705 12.5625H16V14.4375H17.5053C17.5428 14.9453 17.5625 15.4686 17.5625 16C17.5625 16.5314 17.5428 17.0548 17.5053 17.5625H16V19.4375H17.2706C17.1828 19.9165 17.0763 20.3658 16.9521 20.7752C16.5576 22.0752 16.1273 22.493 16.0001 22.5572V24.4375C20.6525 24.4375 24.4376 20.6524 24.4376 16C24.4376 11.3476 20.6525 7.5625 16.0001 7.5625V9.44281C16.1273 9.507 16.5575 9.92475 16.952 11.2247ZM22.3741 14.4375C22.4969 14.9385 22.5625 15.4617 22.5625 16C22.5625 16.5383 22.4969 17.0615 22.3741 17.5625H19.3843C19.4199 17.0431 19.4375 16.5191 19.4375 16C19.4375 15.4809 19.4198 14.9569 19.3843 14.4375H22.3741ZM21.5878 12.5625H19.171C19.0131 11.5941 18.7837 10.6901 18.4796 9.92437C19.7731 10.4542 20.8611 11.3854 21.5878 12.5625ZM19.171 19.4375H21.5878C20.8611 20.6146 19.7731 21.5457 18.4796 22.0756C18.7838 21.3099 19.0131 20.4059 19.171 19.4375Z" fill="#424FDD"/>
<path d="M16 5.625C17.5533 5.625 18.8125 4.3658 18.8125 2.8125C18.8125 1.2592 17.5533 0 16 0C14.4467 0 13.1875 1.2592 13.1875 2.8125C13.1875 4.3658 14.4467 5.625 16 5.625Z" fill="#FFEA98"/>
<path d="M18.8125 2.8125C18.8125 1.26169 17.5508 0 16 0V5.625C17.5508 5.625 18.8125 4.36331 18.8125 2.8125Z" fill="#FFB454"/>
<path d="M16 32C17.5533 32 18.8125 30.7408 18.8125 29.1875C18.8125 27.6342 17.5533 26.375 16 26.375C14.4467 26.375 13.1875 27.6342 13.1875 29.1875C13.1875 30.7408 14.4467 32 16 32Z" fill="#FFEA98"/>
<path d="M18.8125 29.1875C18.8125 27.6367 17.5508 26.375 16 26.375V32C17.5508 32 18.8125 30.7383 18.8125 29.1875Z" fill="#FFB454"/>
<path d="M29.1875 18.8125C30.7408 18.8125 32 17.5533 32 16C32 14.4467 30.7408 13.1875 29.1875 13.1875C27.6342 13.1875 26.375 14.4467 26.375 16C26.375 17.5533 27.6342 18.8125 29.1875 18.8125Z" fill="#FFEA98"/>
<path d="M32 16C32 14.4492 30.7383 13.1875 29.1875 13.1875V18.8125C30.7383 18.8125 32 17.5508 32 16Z" fill="#FFB454"/>
<path d="M6.67578 28.1377C8.22908 28.1377 9.48828 26.8785 9.48828 25.3252C9.48828 23.7719 8.22908 22.5127 6.67578 22.5127C5.12248 22.5127 3.86328 23.7719 3.86328 25.3252C3.86328 26.8785 5.12248 28.1377 6.67578 28.1377Z" fill="#FF80A7"/>
<path d="M9.48828 25.3252C9.48828 23.7744 8.22659 22.5127 6.67578 22.5127V28.1377C8.22659 28.1377 9.48828 26.876 9.48828 25.3252Z" fill="#FF3D7D"/>
<path d="M25.3242 9.4873C26.8775 9.4873 28.1367 8.22811 28.1367 6.6748C28.1367 5.1215 26.8775 3.8623 25.3242 3.8623C23.7709 3.8623 22.5117 5.1215 22.5117 6.6748C22.5117 8.22811 23.7709 9.4873 25.3242 9.4873Z" fill="#FF80A7"/>
<path d="M28.1367 6.6748C28.1367 5.12399 26.875 3.8623 25.3242 3.8623V9.4873C26.875 9.4873 28.1367 8.22562 28.1367 6.6748Z" fill="#FF3D7D"/>
<path d="M2.8125 18.8125C4.3658 18.8125 5.625 17.5533 5.625 16C5.625 14.4467 4.3658 13.1875 2.8125 13.1875C1.2592 13.1875 0 14.4467 0 16C0 17.5533 1.2592 18.8125 2.8125 18.8125Z" fill="#FFEA98"/>
<path d="M5.625 16C5.625 14.4492 4.36331 13.1875 2.8125 13.1875V18.8125C4.36331 18.8125 5.625 17.5508 5.625 16Z" fill="#FFB454"/>
<path d="M25.3242 28.1377C26.8775 28.1377 28.1367 26.8785 28.1367 25.3252C28.1367 23.7719 26.8775 22.5127 25.3242 22.5127C23.7709 22.5127 22.5117 23.7719 22.5117 25.3252C22.5117 26.8785 23.7709 28.1377 25.3242 28.1377Z" fill="#FF80A7"/>
<path d="M28.1367 25.3252C28.1367 23.7744 26.875 22.5127 25.3242 22.5127V28.1377C26.875 28.1377 28.1367 26.876 28.1367 25.3252Z" fill="#FF3D7D"/>
<path d="M6.67578 9.4873C8.22908 9.4873 9.48828 8.22811 9.48828 6.6748C9.48828 5.1215 8.22908 3.8623 6.67578 3.8623C5.12248 3.8623 3.86328 5.1215 3.86328 6.6748C3.86328 8.22811 5.12248 9.4873 6.67578 9.4873Z" fill="#FF80A7"/>
<path d="M9.48828 6.6748C9.48828 5.12399 8.22659 3.8623 6.67578 3.8623V9.4873C8.22659 9.4873 9.48828 8.22562 9.48828 6.6748Z" fill="#FF3D7D"/>
</svg>
