<svg width="40" height="40" viewBox="0 0 40 40" fill="none" xmlns="http://www.w3.org/2000/svg">
<rect width="40" height="40" rx="18" fill="#FF9F43"/>
<path fill-rule="evenodd" clip-rule="evenodd" d="M25.4876 10C26.9776 10 28.4109 10.5889 29.4653 11.6456C30.5209 12.7 31.1109 14.1222 31.1109 15.6111V24.3889C31.1109 27.4889 28.5887 30 25.4876 30H14.5109C11.4098 30 8.88867 27.4889 8.88867 24.3889V15.6111C8.88867 12.5111 11.3987 10 14.5109 10H25.4876ZM27.2553 17.2667L27.3442 17.1778C27.6098 16.8556 27.6098 16.3889 27.332 16.0667C27.1776 15.9011 26.9653 15.8 26.7442 15.7778C26.5109 15.7656 26.2887 15.8444 26.1209 16L21.1109 20C20.4664 20.5344 19.5431 20.5344 18.8887 20L13.8887 16C13.5431 15.7444 13.0653 15.7778 12.7776 16.0778C12.4776 16.3778 12.4442 16.8556 12.6987 17.1889L12.8442 17.3333L17.8998 21.2778C18.522 21.7667 19.2764 22.0333 20.0664 22.0333C20.8542 22.0333 21.622 21.7667 22.2431 21.2778L27.2553 17.2667Z" fill="white"/>
</svg>
