<svg width="20" height="20" viewBox="0 0 20 20" fill="none" xmlns="http://www.w3.org/2000/svg">
<path d="M9.19066 0.260051C9.42506 0.09113 9.70861 0 9.9998 0C10.291 0 10.5745 0.09113 10.8089 0.260051L19.4431 6.48656C20.4649 7.22432 19.9867 8.77806 18.7703 8.8865H1.22931C0.0128819 8.77806 -0.464418 7.22432 0.556548 6.48656L9.19157 0.260051H9.19066ZM9.9998 6.22079C10.3615 6.22079 10.7083 6.08032 10.9641 5.83028C11.2198 5.58023 11.3635 5.2411 11.3635 4.88749C11.3635 4.53388 11.2198 4.19475 10.9641 3.94471C10.7083 3.69466 10.3615 3.55419 9.9998 3.55419C9.63812 3.55419 9.29126 3.69466 9.03551 3.94471C8.77976 4.19475 8.63609 4.53388 8.63609 4.88749C8.63609 5.2411 8.77976 5.58023 9.03551 5.83028C9.29126 6.08032 9.63812 6.22079 9.9998 6.22079ZM15.0001 9.77626H17.272V15.1095H14.9992V9.77626H15.0001ZM13.1818 15.1095V9.77626H10.9089V15.1095H13.1818ZM9.09066 15.1103V9.77715H6.81781V15.1103H9.09066ZM5.00043 15.1103V9.77715H2.72758V15.1103H5.00043ZM2.95486 15.9992C2.17123 15.9992 1.41968 16.3036 0.865568 16.8453C0.311453 17.3871 0.000153783 18.1219 0.000153783 18.888V19.3325C0.00106292 19.7013 0.306534 20 0.68201 20H19.3167C19.4975 20 19.671 19.9298 19.7988 19.8047C19.9267 19.6797 19.9985 19.5102 19.9985 19.3334V18.8889C19.9985 18.1228 19.6872 17.388 19.1331 16.8462C18.579 16.3045 17.8275 16.0001 17.0438 16.0001H2.95577L2.95486 15.9992Z" fill="#A2AEBD"/>
</svg>
