<svg width="14" height="14" viewBox="0 0 14 14" fill="none" xmlns="http://www.w3.org/2000/svg">
<path fill-rule="evenodd" clip-rule="evenodd" d="M7.96732 2.2541H10.014C12.474 2.2541 13.674 3.56743 13.6673 6.26077V9.50743C13.6673 12.0808 12.0807 13.6674 9.50065 13.6674H4.49398C1.92732 13.6674 0.333984 12.0808 0.333984 9.50076V4.4941C0.333984 1.7341 1.56065 0.334098 3.98065 0.334098H5.03398C5.65465 0.327431 6.23398 0.614098 6.61398 1.10076L7.20065 1.88076C7.38732 2.1141 7.66732 2.2541 7.96732 2.2541ZM3.91398 9.1941H10.0873C10.3607 9.1941 10.5807 8.96743 10.5807 8.6941C10.5807 8.4141 10.3607 8.1941 10.0873 8.1941H3.91398C3.63398 8.1941 3.41398 8.4141 3.41398 8.6941C3.41398 8.96743 3.63398 9.1941 3.91398 9.1941Z" fill="white"/>
</svg>
