<svg width="14" height="14" viewBox="0 0 14 14" fill="none" xmlns="http://www.w3.org/2000/svg">
<path fill-rule="evenodd" clip-rule="evenodd" d="M8.57122 0.338294C8.42249 0.316976 8.27311 0.360945 8.15427 0.455547C8.0321 0.551481 7.95575 0.690053 7.93915 0.84528C7.90396 1.15906 8.13036 1.44287 8.44374 1.47818C10.6048 1.71935 12.2846 3.40286 12.5276 5.5707C12.5601 5.86117 12.8038 6.08035 13.0946 6.08035C13.1165 6.08035 13.1378 6.07902 13.1597 6.07635C13.3117 6.0597 13.4472 5.98442 13.5428 5.8645C13.6377 5.74458 13.6809 5.59535 13.6636 5.44279C13.3608 2.73798 11.2675 0.638755 8.57122 0.338294ZM8.61271 2.65963C8.29535 2.60101 8.00388 2.80353 7.94347 3.11332C7.88305 3.42311 8.08621 3.72557 8.39494 3.78619C9.32445 3.9674 10.0422 4.68691 10.2241 5.6196V5.62027C10.2759 5.88875 10.5122 6.08395 10.7844 6.08395C10.821 6.08395 10.8575 6.08062 10.8947 6.07396C11.2034 6.012 11.4065 5.71021 11.3461 5.39975C11.0746 4.00671 10.0023 2.93078 8.61271 2.65963ZM9.66736 9.06004C9.96835 8.88649 10.3083 8.69048 10.7371 8.7817C11.1255 8.86364 12.4494 9.93824 12.8119 10.3106C13.0496 10.5545 13.1817 10.8063 13.2023 11.0581C13.2381 12.0461 11.8957 13.174 11.6513 13.3146C11.3267 13.5484 10.9489 13.6663 10.5246 13.6663C10.0911 13.6663 9.60775 13.5431 9.08059 13.2973C6.22036 12.1034 1.851 7.82036 0.695758 4.98231C0.216398 3.9257 0.213078 3.0543 0.687791 2.39941C0.877012 2.09229 1.95591 0.808505 2.92193 0.849143C3.17887 0.871128 3.42851 1.00304 3.6735 1.24287C4.04398 1.60596 5.09167 2.93371 5.17267 3.32344C5.2623 3.75648 5.06577 4.10091 4.89116 4.40337C4.85392 4.46839 4.80374 4.54555 4.74876 4.63008C4.54012 4.9509 4.26241 5.37791 4.36068 5.65051C5.06511 7.37999 6.69241 8.88896 8.42263 9.5978C8.6902 9.69505 9.11697 9.41536 9.43676 9.20578C9.52007 9.15118 9.59612 9.10134 9.6602 9.06417L9.66736 9.06004Z" fill="#7966FF"/>
</svg>
