<svg width="14" height="18" viewBox="0 0 14 18" fill="none" xmlns="http://www.w3.org/2000/svg">
<path d="M13.4076 3.04794C13.321 1.9425 12.4552 1.00713 11.3297 0.922094C10.1175 0.83706 8.29935 0.666992 7.00065 0.666992C5.70195 0.666992 3.88377 0.83706 2.67165 1.00713C1.54611 1.09216 0.680304 1.9425 0.593724 3.04794C0.507144 4.40849 0.333984 7.04454 0.333984 9.00033C0.333984 10.8711 0.507144 13.5071 0.593724 14.9527C0.680304 16.0581 1.54611 16.9935 2.67165 17.0786C3.88377 17.1636 5.70195 17.3337 7.00065 17.3337C8.29935 17.3337 10.1175 17.1636 11.3297 17.0786C12.4552 16.9935 13.321 16.0581 13.4076 14.9527C13.4942 13.5922 13.6673 10.9561 13.6673 9.00033C13.6673 7.04454 13.4942 4.49352 13.4076 3.04794ZM7.00065 3.89829C7.43355 3.89829 7.86645 4.32346 7.86645 4.74863C7.86645 5.1738 7.43355 5.59897 7.00065 5.59897C6.56775 5.59897 6.13485 5.1738 6.13485 4.74863C6.13485 4.32346 6.56775 3.89829 7.00065 3.89829ZM7.86645 13.9323H6.13485C5.78853 13.9323 5.44221 13.6772 5.44221 13.252C5.44221 12.8269 5.70195 12.5718 6.13485 12.5718H7.86645C8.21277 12.5718 8.55909 12.8269 8.55909 13.252C8.55909 13.6772 8.21277 13.9323 7.86645 13.9323Z" fill="#A2AEBD"/>
</svg>
