<svg width="32" height="32" viewBox="0 0 32 32" fill="none" xmlns="http://www.w3.org/2000/svg">
<g clip-path="url(#clip0_1795_32844)">
<path d="M29.9421 6H16.4221L15.015 11.4438L14.5098 15.0214L17.2178 22.5742L17.6526 31.7391H29.9422C31.0787 31.7391 32.0005 30.8174 32.0005 29.6809V8.05825C32.0004 6.92175 31.0786 6 29.9421 6Z" fill="#E6E6E6"/>
<path d="M23.043 25.9997L17.6517 31.7388L15.7422 25.9997L16.5213 23.9072L23.043 25.9997Z" fill="#3A5BBC"/>
<path d="M29.347 15.2603V13.9559H24.3905V12.1299H23.0861V13.9559H18.6191V15.2603H25.8623C25.4594 16.1086 24.761 17.4613 23.8011 18.8875C22.9179 17.7844 22.3598 17.0168 22.3531 17.0077L21.9701 16.4799L20.9143 17.2458L21.2973 17.7736C21.3271 17.8148 21.977 18.7088 23.0059 19.9799C22.3045 20.8392 21.0179 22.2365 20.34 22.9144L21.2622 23.8366C21.8473 23.2515 23.0606 21.9483 23.8513 21.0037C24.88 22.2258 25.884 23.3283 26.8422 24.2866L27.3033 24.7477L28.2257 23.8255L27.7646 23.3644C26.7746 22.3744 25.7321 21.2229 24.6616 19.9394C26.045 17.9505 26.9416 16.0672 27.2991 15.2603H29.347Z" fill="#808080"/>
<path d="M21.8331 22.3451L23.0435 25.9999H15.7426H2.05825C0.920875 25.9999 0 25.0781 0 23.9416V2.31899C0 1.18249 0.920875 0.260742 2.05825 0.260742H14.5218L16.4217 5.99987L19.2722 14.6086L21.8331 22.3451Z" fill="#518EF8"/>
<path d="M9.33219 17.9612C6.65906 17.9612 4.48438 15.7866 4.48438 13.1134C4.48438 10.4403 6.65906 8.26562 9.33219 8.26562C10.6262 8.26562 11.8436 8.76969 12.76 9.68512L11.8382 10.608C11.168 9.93862 10.2781 9.57 9.33213 9.57C7.37819 9.57 5.78862 11.1596 5.78862 13.1135C5.78862 15.0674 7.37819 16.657 9.33213 16.657C11.0633 16.657 12.5084 15.4091 12.8154 13.7657H9.33225V12.4613H14.1801V13.1135C14.18 15.7866 12.0053 17.9612 9.33219 17.9612Z" fill="white"/>
</g>
<defs>
<clipPath id="clip0_1795_32844">
<rect width="32" height="32" fill="white"/>
</clipPath>
</defs>
</svg>
