<svg width="28" height="28" viewBox="0 0 28 28" fill="none" xmlns="http://www.w3.org/2000/svg">
<path d="M12.8915 24.5509C11.8651 24.5509 11.0301 23.7158 11.0301 22.6895V11.8317C11.0301 10.8054 11.8651 9.97035 12.8915 9.97035H23.7493C24.7756 9.97035 25.6106 10.8054 25.6106 11.8317V21.2921C26.7476 19.3233 27.3984 17.0385 27.3984 14.6016C27.3984 7.2018 21.3998 1.20312 14 1.20312C6.60023 1.20312 0.601562 7.2018 0.601562 14.6016C0.601562 22.0013 6.60023 28 14 28C17.4515 28 20.5979 26.6945 22.9733 24.5509H12.8915Z" fill="#D4F2F6"/>
<path d="M8.31228 16.0859H0.683594C1.24556 21.1835 4.66665 25.4193 9.30847 27.1548V17.0821C9.30853 16.5319 8.86249 16.0859 8.31228 16.0859Z" fill="#A6E7F0"/>
<path d="M19.0391 2.18457V6.55115C19.0391 7.10136 19.4851 7.54739 20.0353 7.54739H25.3918C23.9043 5.15055 21.6819 3.25814 19.0391 2.18457Z" fill="#A6E7F0"/>
<path d="M11.0294 11.8317C11.0294 10.8054 11.8644 9.97035 12.8908 9.97035H17.0239V1.91609C17.0239 0.857828 16.166 0 15.1078 0H4.25007C3.19187 0 2.33398 0.857828 2.33398 1.91609V12.7739C2.33398 13.8321 3.19187 14.6899 4.25007 14.6899H11.0294V11.8317Z" fill="#2ED1E2"/>
<path d="M11.0298 11.8322C11.0298 10.8058 11.8648 9.97076 12.8912 9.97076H15.5305V1.91649C15.5305 1.68363 15.341 1.49414 15.1081 1.49414H4.25048C4.01762 1.49414 3.82812 1.68358 3.82812 1.91649V12.7743C3.82812 13.0071 4.01756 13.1966 4.25048 13.1966H11.0298V11.8322Z" fill="#03BED7"/>
<path d="M6.35173 12.7742V1.91649C6.35173 1.68363 6.54117 1.49414 6.77409 1.49414H4.25048C4.01762 1.49414 3.82812 1.68358 3.82812 1.91649V12.7743C3.82812 13.0071 4.01756 13.1966 4.25048 13.1966H6.77403C6.54117 13.1965 6.35173 13.0071 6.35173 12.7742Z" fill="#07B2CD"/>
<path d="M9.67869 5.30176L9.27734 6.3616L9.99052 8.24493H10.7933L9.67869 5.30176Z" fill="#0199B1"/>
<path d="M11.6328 10.4614L11.3593 9.73926H10.5566L11.1258 11.2422C11.2269 10.9402 11.4032 10.6723 11.6328 10.4614Z" fill="#0199B1"/>
<path d="M5.71131 11.5598L8.97998 2.92869C9.03833 2.77458 9.14431 2.64863 9.27704 2.56392C9.15963 2.489 9.02138 2.44629 8.87569 2.44629C8.56528 2.44629 8.2872 2.6383 8.17727 2.92869L4.9086 11.5598C4.84084 11.7387 4.97302 11.9301 5.16432 11.9301H5.96702C5.77573 11.93 5.64355 11.7387 5.71131 11.5598Z" fill="#0199B1"/>
<path d="M11.6322 10.4611C11.9638 10.1565 12.4057 9.97009 12.8904 9.97009H13.0436L10.3769 2.92869C10.267 2.63835 9.98894 2.44629 9.67848 2.44629C9.36802 2.44629 9.08999 2.6383 8.98001 2.92869L5.71134 11.5598C5.64358 11.7387 5.77576 11.9301 5.96706 11.9301H6.9796C7.09324 11.9301 7.19506 11.8598 7.23531 11.7535L7.9982 9.73898H11.3588L11.6322 10.4611ZM8.56395 8.24524L9.67853 5.30207L10.7931 8.24524H8.56395Z" fill="white"/>
<path d="M25.6645 11.8321C25.6645 10.7739 24.8066 9.91602 23.7484 9.91602H12.8907C11.8325 9.91602 10.9746 10.7738 10.9746 11.8321V22.6899C10.9746 23.7481 11.8325 24.606 12.8907 24.606H22.9108C24.0046 23.6309 24.9374 22.4795 25.6645 21.1959V11.8321Z" fill="#FD6930"/>
<path d="M14.0676 22.6898V11.8321C14.0676 10.7739 14.9255 9.91602 15.9837 9.91602H12.8907C11.8325 9.91602 10.9746 10.7738 10.9746 11.8321V22.6899C10.9746 23.7481 11.8325 24.606 12.8907 24.606H15.9837C14.9255 24.6059 14.0676 23.7481 14.0676 22.6898Z" fill="#FD5426"/>
<path d="M13.9794 18.8299C13.9993 17.5252 14.7949 16.4158 15.9167 15.9045C15.7393 15.6014 15.6277 15.2553 15.604 14.8832C15.5231 13.6108 16.4543 12.5347 17.6688 12.3817C17.581 12.3691 17.492 12.3623 17.4023 12.3623H16.9714C15.6153 12.3623 14.522 13.5086 14.6094 14.8832C14.633 15.2554 14.7447 15.6014 14.9221 15.9045C13.8002 16.4158 13.0047 17.5251 12.9848 18.8299C12.9568 20.6608 14.4381 22.159 16.2626 22.159H17.2573C15.4327 22.1591 13.9515 20.6608 13.9794 18.8299Z" fill="#D73D24"/>
<path d="M22.5793 19.7884C21.4968 20.3641 20.2894 20.6652 19.0633 20.6652H17.2948C16.3237 20.6652 15.5019 19.9053 15.4731 18.9347C15.4431 17.9262 16.2548 17.0962 17.2568 17.0962H19.02C19.3155 17.0962 19.6052 17.1782 19.8568 17.3331L20.3331 17.6262L20.8358 14.6387L20.6464 14.8506C20.2189 15.329 19.6078 15.6024 18.9664 15.6024H17.9656C17.4506 15.6024 17.0384 15.1544 17.0981 14.6277C17.1485 14.1831 17.5416 13.856 17.9892 13.856H20.6319L19.7529 12.9405C19.3983 12.5711 18.9084 12.3623 18.3964 12.3623H17.9656C16.6095 12.3623 15.5161 13.5086 15.6035 14.8832C15.6272 15.2554 15.7388 15.6014 15.9162 15.9045C14.7944 16.4158 13.9988 17.5251 13.9789 18.8299C13.951 20.6607 15.4322 22.159 17.2568 22.159H18.9323C20.6879 22.159 22.3023 21.1313 23.0453 19.5407L22.5793 19.7884Z" fill="white"/>
</svg>
