<svg width="49" height="48" viewBox="0 0 49 48" fill="none" xmlns="http://www.w3.org/2000/svg">
<rect x="0.5" width="48" height="48" rx="18" fill="#02C5DD"/>
<path fill-rule="evenodd" clip-rule="evenodd" d="M18.9133 10.667H30.088C34.2067 10.667 36.5 13.0403 36.5 17.107V30.8803C36.5 35.0137 34.2067 37.3337 30.088 37.3337H18.9133C14.86 37.3337 12.5 35.0137 12.5 30.8803V17.107C12.5 13.0403 14.86 10.667 18.9133 10.667ZM19.2733 16.8803V16.867H23.2587C23.8333 16.867 24.3 17.3337 24.3 17.9057C24.3 18.4937 23.8333 18.9603 23.2587 18.9603H19.2733C18.6987 18.9603 18.2333 18.4937 18.2333 17.9203C18.2333 17.347 18.6987 16.8803 19.2733 16.8803ZM19.2733 24.987H29.7267C30.3 24.987 30.7667 24.5203 30.7667 23.947C30.7667 23.3737 30.3 22.9057 29.7267 22.9057H19.2733C18.6987 22.9057 18.2333 23.3737 18.2333 23.947C18.2333 24.5203 18.6987 24.987 19.2733 24.987ZM19.2733 31.0803H29.7267C30.2587 31.027 30.66 30.5723 30.66 30.0403C30.66 29.4937 30.2587 29.0403 29.7267 28.987H19.2733C18.8733 28.947 18.4867 29.1337 18.2733 29.4803C18.06 29.8137 18.06 30.2537 18.2733 30.6003C18.4867 30.9337 18.8733 31.1337 19.2733 31.0803Z" fill="white"/>
</svg>
