<svg width="49" height="48" viewBox="0 0 49 48" fill="none" xmlns="http://www.w3.org/2000/svg">
<rect x="0.5" width="48" height="48" rx="18" fill="#EA5455"/>
<g clip-path="url(#clip0_6831_76966)">
<path d="M21.2213 17.9817V14.52H26.636C27.2754 14.52 27.7957 13.9995 27.7957 13.3601V9.22217C27.7957 8.58276 27.2754 8.0625 26.636 8.0625H20.5054C19.866 8.0625 19.3458 8.58276 19.3458 9.22217V17.9841L8.82672 32.5027C8.44562 33.0342 8.39337 33.7559 8.69391 34.3408C8.98517 34.908 9.55475 35.2605 10.18 35.2605H33.9263L27.5079 26.5701L21.2213 17.9817Z" fill="white"/>
<path d="M40.1939 32.666L32.9526 22.5664C32.6492 22.1431 32.1802 21.9004 31.6655 21.9004C31.1511 21.9004 30.6819 22.1433 30.3787 22.5664L28.6289 25.0293L36.1763 35.2603H38.9065C39.502 35.2603 40.043 34.9265 40.3189 34.3894C40.6006 33.8413 40.5515 33.1648 40.1939 32.666Z" fill="white"/>
</g>
<defs>
<clipPath id="clip0_6831_76966">
<rect width="32" height="32" fill="white" transform="translate(8.5 8)"/>
</clipPath>
</defs>
</svg>
