<svg width="56" height="56" viewBox="0 0 56 56" fill="none" xmlns="http://www.w3.org/2000/svg">
<rect width="56" height="56" rx="18" fill="#02C5DD"/>
<path fill-rule="evenodd" clip-rule="evenodd" d="M34.2377 22.3493C34.2377 25.8738 31.4279 28.6999 27.9237 28.6999C24.4195 28.6999 21.6097 25.8738 21.6097 22.3493C21.6097 18.8234 24.4195 16 27.9237 16C31.4279 16 34.2377 18.8234 34.2377 22.3493ZM27.9237 40C22.7769 40 18.3822 39.1841 18.3822 35.9203C18.3822 32.6551 22.7487 31.8094 27.9237 31.8094C33.0705 31.8094 37.4652 32.6254 37.4652 35.8905C37.4652 39.1543 33.0987 40 27.9237 40ZM36.9359 22.4638C36.9359 24.2605 36.4 25.9343 35.4598 27.3258C35.3631 27.469 35.449 27.6621 35.6196 27.6919C35.8547 27.7324 36.0978 27.7554 36.3449 27.7621C38.8095 27.8269 41.0216 26.2315 41.6328 23.8296C42.538 20.2619 39.88 17.0588 36.4953 17.0588C36.1273 17.0588 35.7754 17.098 35.4329 17.1683C35.3859 17.1791 35.3362 17.2007 35.3094 17.2426C35.2771 17.2939 35.3013 17.3628 35.3335 17.4074C36.3503 18.8407 36.9359 20.5888 36.9359 22.4638ZM41.0176 30.2689C42.6737 30.5944 43.7629 31.2591 44.2142 32.225C44.5957 33.018 44.5957 33.9379 44.2142 34.7296C43.5239 36.2277 41.2983 36.7086 40.4334 36.8329C40.2547 36.8599 40.111 36.7046 40.1298 36.5249C40.5717 32.3736 37.0568 30.4053 36.1475 29.9527C36.1085 29.9325 36.1005 29.9014 36.1045 29.8825C36.1072 29.869 36.1233 29.8474 36.1528 29.8433C38.1205 29.8068 40.2359 30.077 41.0176 30.2689ZM19.6557 27.762C19.9029 27.7552 20.1446 27.7336 20.381 27.6917C20.5516 27.662 20.6376 27.4688 20.5409 27.3256C19.6007 25.9342 19.0648 24.2604 19.0648 22.4637C19.0648 20.5886 19.6504 18.8406 20.6671 17.4072C20.6993 17.3627 20.7222 17.2938 20.6913 17.2424C20.6644 17.2019 20.6134 17.1789 20.5677 17.1681C20.2239 17.0979 19.872 17.0587 19.504 17.0587C16.1193 17.0587 13.4613 20.2617 14.3679 23.8295C14.979 26.2314 17.1911 27.8268 19.6557 27.762ZM19.8955 29.8817C19.8995 29.9019 19.8915 29.9317 19.8538 29.9533C18.9432 30.4058 15.4283 32.3741 15.8702 36.5241C15.889 36.7051 15.7466 36.8591 15.568 36.8335C14.703 36.7092 12.4775 36.2283 11.7871 34.7301C11.4043 33.9371 11.4043 33.0185 11.7871 32.2255C12.2384 31.2596 13.3263 30.595 14.9824 30.268C15.7654 30.0776 17.8795 29.8074 19.8485 29.8439C19.878 29.8479 19.8928 29.8695 19.8955 29.8817Z" fill="white"/>
</svg>
