<svg width="49" height="48" viewBox="0 0 49 48" fill="none" xmlns="http://www.w3.org/2000/svg">
<rect x="0.5" width="48" height="48" rx="18" fill="#FFC22D"/>
<path d="M20.5538 11.3405C19.4653 11.0712 18.1048 10.8018 17.0164 10.8018C15.9279 10.8018 14.5674 11.0712 13.4789 11.3405C12.5266 11.4752 11.8463 12.2833 11.7102 13.226C11.5742 14.3035 11.166 16.4584 11.166 17.9398C11.166 19.4213 11.4381 21.3069 11.5742 22.6537C11.7102 23.5964 12.3905 24.4045 13.3429 24.5392C14.2953 24.8085 15.7919 24.9432 16.8803 24.9432C17.9687 24.9432 19.3293 24.6739 20.4177 24.5392C21.3701 24.4045 22.0504 23.5964 22.1864 22.6537C22.4585 21.3069 22.5946 19.4213 22.5946 17.9398C22.5946 16.4584 22.3225 14.3035 22.1864 13.226C22.1864 12.2833 21.5062 11.4752 20.5538 11.3405Z" fill="white"/>
<path d="M35.5198 23.4615C34.5674 23.1922 33.0708 23.0575 31.9823 23.0575C30.8939 23.0575 29.5334 23.3269 28.4449 23.4615C27.4926 23.5962 26.8123 24.4043 26.6762 25.3471C26.4041 26.6939 26.2681 28.5794 26.2681 30.0609C26.2681 31.5423 26.5402 33.4279 26.6762 34.7747C26.8123 35.7174 27.4926 36.5255 28.4449 36.6602C29.3973 36.9295 30.8939 37.0642 31.9823 37.0642C33.0708 37.0642 34.4313 36.7949 35.5198 36.6602C36.4721 36.5255 37.1524 35.7174 37.2885 34.7747C37.5606 33.4279 37.6966 31.5423 37.6966 30.0609C37.6966 28.5794 37.5606 26.6939 37.2885 25.3471C37.1524 24.4043 36.4721 23.5962 35.5198 23.4615Z" fill="white"/>
<path d="M20.6898 28.8487C19.6014 28.5794 18.2408 28.4447 17.0164 28.4447C15.7919 28.4447 14.4313 28.7141 13.3429 28.8487C12.5266 28.9834 11.8463 29.6568 11.5742 30.4649C11.3021 31.4077 11.166 32.2157 11.166 32.8891C11.166 33.5625 11.3021 34.2359 11.5742 35.3134C11.8463 36.1215 12.5266 36.6602 13.3429 36.9295C14.4313 37.1989 15.7919 37.3336 17.0164 37.3336C18.2408 37.3336 19.6014 37.0642 20.6898 36.9295C21.5062 36.7949 22.1864 36.1215 22.4585 35.3134C22.7306 34.3706 22.8667 33.5625 22.8667 32.8891C22.8667 32.2157 22.7306 31.5423 22.4585 30.4649C22.1864 29.5221 21.5062 28.9834 20.6898 28.8487Z" fill="white"/>
<path d="M28.3089 19.1518C29.3973 19.4212 30.7579 19.5559 31.9823 19.5559C33.2068 19.5559 34.5674 19.2865 35.6558 19.1518C36.4721 19.0172 37.1524 18.3438 37.4245 17.5357C37.6966 16.5929 37.8327 15.7848 37.8327 15.1114C37.8327 14.438 37.6966 13.7646 37.4245 12.6872C37.1524 11.8791 36.4721 11.3404 35.6558 11.071C34.5674 10.8017 33.2068 10.667 31.9823 10.667C30.7579 10.667 29.3973 10.9364 28.3089 11.071C27.4925 11.2057 26.8123 11.8791 26.5402 12.6872C26.2681 13.63 26.132 14.438 26.132 15.1114C26.132 15.7848 26.2681 16.4582 26.5402 17.5357C26.8123 18.4784 27.4925 19.0172 28.3089 19.1518Z" fill="white"/>
</svg>
