<svg width="32" height="32" viewBox="0 0 32 32" fill="none" xmlns="http://www.w3.org/2000/svg">
<g clip-path="url(#clip0_1795_32987)">
<path d="M29.8648 4.48868C29.6298 4.05293 29.1694 3.75668 28.6396 3.75668C27.9126 3.75668 12.2954 3.75668 10.9609 3.75668L9.23944 0.869805H8.27312L8.27188 0.867367C8.09188 0.523305 7.73562 0.307617 7.34731 0.307617H1.0435C0.467187 0.30768 0 0.774867 0 1.35118V5.53218L0.740438 6.43549V23.9298C0.934687 24.0329 1.15606 24.0918 1.39131 24.0918H31.2596V4.48868H29.8648Z" fill="#FEA613"/>
<path d="M31.2587 24.092V10.2353L31.9991 9.32915C31.9991 7.04259 31.9991 5.35752 31.9991 5.14815C31.9991 4.37971 31.3762 3.75684 30.6078 3.75684H28.6387C29.4071 3.75684 30.03 4.37971 30.03 5.14815V24.092H31.2587Z" fill="#FE9901"/>
<path d="M8.27216 0.867367L9.78397 3.75668H11.7531L10.2413 0.867367C10.0613 0.523305 9.70503 0.307617 9.31672 0.307617H7.34766C7.73591 0.30768 8.09216 0.523305 8.27216 0.867367Z" fill="#FE9901"/>
<path d="M11.205 7.93728L9.55006 4.92372H8.19531C8.00113 4.65284 7.68656 4.48828 7.34744 4.48828H1.0435C0.467187 4.48828 0 4.95547 0 5.53178V24.5148C0 25.2833 0.622875 25.9062 1.39131 25.9062H28.6396C28.9881 25.9062 29.3059 25.7771 29.5501 25.5653H30.7642V8.29534H29.569C29.3225 8.07353 28.9974 7.93734 28.6397 7.93734L11.205 7.93728Z" fill="#FEC165"/>
<path d="M30.6078 7.9375H28.6387C29.407 7.9375 30.03 8.56037 30.03 9.32881V24.515C30.03 25.2834 29.4071 25.9063 28.6387 25.9063H30.6078C31.3762 25.9063 31.9991 25.2834 31.9991 24.515V9.32881C31.9991 8.56037 31.3762 7.9375 30.6078 7.9375Z" fill="#FDB441"/>
<path d="M8.27222 5.04803L9.78403 7.93734H11.7531L10.2413 5.04803C10.0613 4.70397 9.70509 4.48828 9.31678 4.48828H7.34766C7.73597 4.48834 8.09222 4.70397 8.27222 5.04803Z" fill="#FDB441"/>
<path d="M26.7829 31.477L28.1056 31.1636L29.1036 29.4252L17.2349 17.46L14.9663 19.7285C14.9487 19.7461 14.9487 19.7746 14.9663 19.7921C27.1927 32.0185 26.3924 31.276 26.7829 31.477Z" fill="#60B7FF"/>
<path d="M29.0601 28.3544L17.7316 17.0259C17.714 17.0083 17.6855 17.0083 17.6679 17.0259L16.8047 17.8891L27.2699 28.3544C28.0339 29.1183 28.0339 30.3568 27.2699 31.1208C27.1226 31.2681 26.9576 31.3866 26.7818 31.4771C27.5177 31.8559 28.4434 31.7374 29.0601 31.1208C29.8239 30.3568 29.8239 29.1183 29.0601 28.3544Z" fill="#26A6FE"/>
<path d="M11.2383 13.2991C8.11327 16.4241 8.11327 21.4909 11.2383 24.616C12.7681 26.1458 14.7632 26.9262 16.768 26.9583C18.7728 26.9262 20.768 26.1458 22.2977 24.616C25.4228 21.4909 25.4228 16.4241 22.2977 13.2991C19.2171 10.2184 14.3561 10.1812 11.2383 13.2991Z" fill="#0055A3"/>
<path d="M22.5555 13.2984C20.7649 11.5078 18.3369 10.7437 16.002 11.005C22.5983 11.7432 25.5285 19.8522 20.7653 24.6153C19.4308 25.9498 17.7422 26.714 16.002 26.9087C18.3369 27.17 20.7649 26.4059 22.5555 24.6153C25.6805 21.4902 25.6805 16.4235 22.5555 13.2984Z" fill="#004281"/>
<path d="M12.9988 15.0601C10.8494 17.2095 10.8494 20.7068 12.9988 22.8563C14.0408 23.8983 15.3996 24.4336 16.768 24.4653C21.601 24.3533 23.9569 18.4798 20.5373 15.0602C18.4367 12.9596 15.1419 12.9171 12.9988 15.0601Z" fill="#D8ECFE"/>
<path d="M20.7951 15.0599C19.4924 13.7572 17.6948 13.2455 16.002 13.5219C20.4159 14.2425 22.1735 19.6875 19.005 22.856C18.1583 23.7027 17.1022 24.2143 16.002 24.394C17.6948 24.6703 19.4924 24.1587 20.7951 22.856C22.9445 20.7067 22.9445 17.2093 20.7951 15.0599Z" fill="#B3DAFE"/>
</g>
<defs>
<clipPath id="clip0_1795_32987">
<rect width="32" height="32" fill="white"/>
</clipPath>
</defs>
</svg>
