<svg width="41" height="48" viewBox="0 0 41 48" fill="none" xmlns="http://www.w3.org/2000/svg">
<path fill-rule="evenodd" clip-rule="evenodd" d="M20.9071 31.5055H20.0911C14.4832 31.5055 9.9377 27.0168 9.9377 21.4812V10.6935C9.9377 5.15572 14.4832 0.666992 20.0911 0.666992H20.9071C25.5611 0.666992 29.4828 3.7562 30.6831 7.97261C30.8481 8.55072 30.4118 9.12437 29.8061 9.12437H27.1637C26.3658 9.12437 25.7171 9.76274 25.7171 10.5507V10.5529C25.7171 11.3431 26.3658 11.9814 27.1637 11.9814H29.6004C30.4073 11.9814 31.0628 12.6265 31.0628 13.4234C31.0628 14.2202 30.4073 14.8653 29.6004 14.8653H27.1637C26.3658 14.8653 25.7171 15.5059 25.7171 16.2961C25.7171 17.084 26.3658 17.7246 27.1637 17.7246H29.6004C30.4073 17.7246 31.0628 18.3697 31.0628 19.1688C31.0628 19.9634 30.4073 20.6084 29.6004 20.6084H27.1637C26.3658 20.6084 25.7171 21.2491 25.7171 22.0392C25.7171 22.8271 26.3658 23.4655 27.1637 23.4655H29.6772C30.2966 23.4655 30.7396 24.0637 30.5452 24.6441C29.2048 28.6306 25.3984 31.5055 20.9071 31.5055ZM35.812 21.1602C35.812 19.9259 36.8246 18.9281 38.0724 18.9281C39.3201 18.9281 40.3327 19.9259 40.3327 21.1602C40.3327 31.2024 32.634 39.4946 22.7608 40.6084V45.1016C22.7608 46.3337 21.7482 47.3337 20.5005 47.3337C19.2505 47.3337 18.2401 46.3337 18.2401 45.1016V40.6084C8.36473 39.4946 0.666016 31.2024 0.666016 21.1602C0.666016 19.9259 1.67865 18.9281 2.92635 18.9281C4.17406 18.9281 5.18669 19.9259 5.18669 21.1602C5.18669 29.4971 12.0559 36.2804 20.5005 36.2804C28.9428 36.2804 35.812 29.4971 35.812 21.1602Z" fill="#7966FF"/>
</svg>
