<svg width="54" height="51" viewBox="0 0 54 51" fill="none" xmlns="http://www.w3.org/2000/svg">
<path d="M38.5625 48H32.9375V45.1875C33.7129 45.1875 34.3438 44.5567 34.3438 43.7812V28.2412L35.4702 28.0126C38.0768 27.4833 39.9688 25.1649 39.9688 22.5H42.7812V43.7812C42.7812 46.1075 40.8887 48 38.5625 48Z" fill="#B5DBFF"/>
<path d="M34.3438 31.1111V19.8038L35.4702 19.5751C38.0768 19.0458 39.9688 16.7274 39.9688 14.0625H42.7812V22.5C42.7812 26.4969 39.9418 29.9745 36.0298 30.7688L34.3438 31.1111Z" fill="#D5E8FE"/>
<path d="M34.3438 22.6736V11.3663L35.4702 11.1375C38.0768 10.6083 39.9688 8.28994 39.9688 5.625H42.7812V14.0625C42.7812 18.0594 39.9418 21.537 36.0298 22.3312L34.3438 22.6736Z" fill="#B5DBFF"/>
<path d="M34.3438 14.2361V4.21875C34.3438 3.44334 33.7129 2.8125 32.9375 2.8125V0H38.5625C40.8887 0 42.7812 1.89253 42.7812 4.21875V5.625C42.7812 9.62194 39.9418 13.0995 36.0298 13.8937L34.3438 14.2361Z" fill="#D5E8FE"/>
<path d="M32.9375 0H6.21875V48H32.9375C35.2634 48 37.1562 46.1072 37.1562 43.7812V4.21875C37.1562 1.89281 35.2634 0 32.9375 0Z" fill="#6AA9FF"/>
<path d="M37.1562 4.21875V43.7812C37.1562 46.1072 35.2634 48 32.9375 48H21.6875V0H32.9375C35.2634 0 37.1562 1.89281 37.1562 4.21875Z" fill="#2682FF"/>
<path d="M26.8302 23.4236L25.8364 24.4183C25.288 24.9667 24.3955 24.9667 23.8471 24.4183L21.8586 22.4298C21.7949 22.3661 21.7377 22.2967 21.688 22.2236C21.3668 21.7503 21.3662 21.1208 21.688 20.6467C21.7377 20.5736 21.7949 20.5042 21.8586 20.4405L22.8533 19.4467L16.8871 13.4805L13.9039 16.4636C11.1618 19.2048 11.1627 23.6655 13.9039 26.4067L19.8702 32.373C20.4168 32.9195 21.0318 33.3573 21.688 33.6855C24.3224 35.0055 27.6186 34.5677 29.8133 32.373L32.7964 29.3898L26.8302 23.4236Z" fill="#EDF5FF"/>
<path d="M21.8581 20.4403C21.7944 20.5041 21.7372 20.5734 21.6875 20.6466V18.2812L22.8528 19.4466L21.8581 20.4403Z" fill="#D5E8FE"/>
<path d="M32.7959 29.3899L29.8128 32.373C27.6181 34.5677 24.3219 35.0055 21.6875 33.6855V22.2236C21.7372 22.2968 21.7944 22.3661 21.8581 22.4299L23.8466 24.4183C24.395 24.9668 25.2875 24.9668 25.8359 24.4183L26.8297 23.4236L32.7959 29.3899Z" fill="#D5E8FE"/>
<path d="M42.5 48C48.0229 48 52.5 43.5229 52.5 38C52.5 32.4772 48.0229 28 42.5 28C36.9772 28 32.5 32.4772 32.5 38C32.5 43.5229 36.9772 48 42.5 48Z" fill="#E63946"/>
<path d="M43.9099 38.0002L46.2099 35.7102C46.3982 35.5219 46.504 35.2665 46.504 35.0002C46.504 34.7339 46.3982 34.4785 46.2099 34.2902C46.0216 34.1019 45.7662 33.9961 45.4999 33.9961C45.2336 33.9961 44.9782 34.1019 44.7899 34.2902L42.4999 36.5902L40.2099 34.2902C40.0216 34.1019 39.7662 33.9961 39.4999 33.9961C39.2336 33.9961 38.9782 34.1019 38.7899 34.2902C38.6016 34.4785 38.4958 34.7339 38.4958 35.0002C38.4958 35.2665 38.6016 35.5219 38.7899 35.7102L41.0899 38.0002L38.7899 40.2902C38.6962 40.3831 38.6218 40.4938 38.571 40.6156C38.5203 40.7375 38.4941 40.8682 38.4941 41.0002C38.4941 41.1322 38.5203 41.2629 38.571 41.3848C38.6218 41.5066 38.6962 41.6172 38.7899 41.7102C38.8829 41.8039 38.9935 41.8783 39.1154 41.9291C39.2372 41.9798 39.3679 42.006 39.4999 42.006C39.632 42.006 39.7627 41.9798 39.8845 41.9291C40.0064 41.8783 40.117 41.8039 40.2099 41.7102L42.4999 39.4102L44.7899 41.7102C44.8829 41.8039 44.9935 41.8783 45.1154 41.9291C45.2372 41.9798 45.3679 42.006 45.4999 42.006C45.632 42.006 45.7627 41.9798 45.8845 41.9291C46.0064 41.8783 46.117 41.8039 46.2099 41.7102C46.3037 41.6172 46.3781 41.5066 46.4288 41.3848C46.4796 41.2629 46.5057 41.1322 46.5057 41.0002C46.5057 40.8682 46.4796 40.7375 46.4288 40.6156C46.3781 40.4938 46.3037 40.3831 46.2099 40.2902L43.9099 38.0002Z" fill="#EDEBEA"/>
</svg>
