<svg width="49" height="48" viewBox="0 0 49 48" fill="none" xmlns="http://www.w3.org/2000/svg">
<rect x="0.5" width="48" height="48" rx="18" fill="#5A8DEE"/>
<path fill-rule="evenodd" clip-rule="evenodd" d="M11.166 24.0204C11.166 16.9965 16.7793 10.667 24.526 10.667C32.0993 10.667 37.8327 16.8763 37.8327 23.9803C37.8327 32.2193 31.1127 37.3337 24.4993 37.3337C22.3127 37.3337 19.886 36.7461 17.9393 35.5977C17.2593 35.1838 16.686 34.8766 15.9527 35.117L13.2593 35.9182C12.5793 36.1319 11.966 35.5977 12.166 34.8766L13.0593 31.8855C13.206 31.4715 13.1793 31.0309 12.966 30.6837C11.8193 28.5738 11.166 26.2637 11.166 24.0204ZM22.766 24.0204C22.766 24.9684 23.526 25.7296 24.4727 25.7429C25.4193 25.7429 26.1793 24.9684 26.1793 24.0337C26.1793 23.0856 25.4193 22.3245 24.4727 22.3245C23.5393 22.3111 22.766 23.0856 22.766 24.0204ZM28.9127 24.0337C28.9127 24.9684 29.6727 25.7429 30.6193 25.7429C31.566 25.7429 32.326 24.9684 32.326 24.0337C32.326 23.0856 31.566 22.3245 30.6193 22.3245C29.6727 22.3245 28.9127 23.0856 28.9127 24.0337ZM18.326 25.7429C17.3927 25.7429 16.6193 24.9684 16.6193 24.0337C16.6193 23.0856 17.3793 22.3245 18.326 22.3245C19.2727 22.3245 20.0327 23.0856 20.0327 24.0337C20.0327 24.9684 19.2727 25.7296 18.326 25.7429Z" fill="white"/>
</svg>
